<svg xmlns="http://www.w3.org/2000/svg" xmlns:xlink="http://www.w3.org/1999/xlink" contentStyleType="text/css" data-diagram-type="SEQUENCE" height="631px" preserveAspectRatio="none" style="width:545px;height:631px;background:#FEFEFE;" version="1.1" viewBox="0 0 545 631" width="545px" zoomAndPan="magnify"><?plantuml 1.2026.6?><defs/><g><rect fill="#FEFEFE" height="631" style="stroke:none;stroke-width:1;" width="545" x="0" y="0"/><g class="title" data-source-line="15"><text fill="#000000" font-family="sans-serif" font-size="14" font-weight="700" lengthAdjust="spacing" textLength="121.2285" x="208.4893" y="28.5352">&#29992;&#25143;&#30331;&#24405; &#8212; &#39034;&#24207;&#22270;</text></g><g><title>Vue ..</title><rect fill="#FFFFFF" height="398.2363" style="stroke:#181818;stroke-width:1;" width="10" x="174" y="144.3984"/></g><g><title>SpringBoot</title><rect fill="#FFFFFF" height="181.6406" style="stroke:#181818;stroke-width:1;" width="10" x="349.0078" y="184.3086"/></g><g><title>MySQL</title><rect fill="#FFFFFF" height="26.9551" style="stroke:#181818;stroke-width:1;" width="10" x="508.4287" y="224.2188"/></g><rect fill="none" height="216.5508" style="stroke:#000000;stroke-width:1.5;" width="390.0923" x="10" y="319.084"/><g class="participant-lifeline" data-entity-uid="part1" data-qualified-name="U" data-source-line="17" id="part1-lifeline"><g><title>..</title><rect fill="#000000" fill-opacity="0.00000" height="437.1914" width="8" x="30" y="115.4434"/><line style="stroke:#181818;stroke-width:0.5;stroke-dasharray:5,5;" x1="34" x2="34" y1="115.4434" y2="552.6348"/></g></g><g class="participant-lifeline" data-entity-uid="part2" data-qualified-name="F" data-source-line="18" id="part2-lifeline"><g><title>Vue ..</title><rect fill="#000000" fill-opacity="0.00000" height="437.1914" width="8" x="175" y="115.4434"/><line style="stroke:#181818;stroke-width:0.5;stroke-dasharray:5,5;" x1="178.1863" x2="178.1863" y1="115.4434" y2="552.6348"/></g></g><g class="participant-lifeline" data-entity-uid="part3" data-qualified-name="B" data-source-line="19" id="part3-lifeline"><g><title>SpringBoot</title><rect fill="#000000" fill-opacity="0.00000" height="437.1914" width="8" x="350.0078" y="115.4434"/><line style="stroke:#181818;stroke-width:0.5;stroke-dasharray:5,5;" x1="353.9233" x2="353.9233" y1="115.4434" y2="552.6348"/></g></g><g class="participant-lifeline" data-entity-uid="part4" data-qualified-name="D" data-source-line="20" id="part4-lifeline"><g><title>MySQL</title><rect fill="#000000" fill-opacity="0.00000" height="437.1914" width="8" x="509.4287" y="115.4434"/><line style="stroke:#181818;stroke-width:0.5;stroke-dasharray:5,5;" x1="512.6504" x2="512.6504" y1="115.4434" y2="552.6348"/></g></g><g class="participant participant-head" data-entity-uid="part1" data-qualified-name="U" data-source-line="17" id="part1-head"><text fill="#000000" font-family="sans-serif" font-size="11" lengthAdjust="spacing" textLength="22" x="20" y="113.123">&#29992;&#25143;</text><ellipse cx="34" cy="50.9883" fill="#FFF3E0" rx="8" ry="8" style="stroke:#181818;stroke-width:0.5;"/><path d="M34,58.9883 L34,85.9883 M21,66.9883 L47,66.9883 M34,85.9883 L21,100.9883 M34,85.9883 L47,100.9883" fill="none" style="stroke:#181818;stroke-width:0.5;"/></g><g class="participant participant-tail" data-entity-uid="part1" data-qualified-name="U" data-source-line="17" id="part1-tail"><text fill="#000000" font-family="sans-serif" font-size="11" lengthAdjust="spacing" textLength="22" x="20" y="562.2695">&#29992;&#25143;</text><ellipse cx="34" cy="573.0898" fill="#FFF3E0" rx="8" ry="8" style="stroke:#181818;stroke-width:0.5;"/><path d="M34,581.0898 L34,608.0898 M21,589.0898 L47,589.0898 M34,608.0898 L21,623.0898 M34,608.0898 L47,623.0898" fill="none" style="stroke:#181818;stroke-width:0.5;"/></g><g class="participant participant-head" data-entity-uid="part2" data-qualified-name="F" data-source-line="18" id="part2-head"><rect fill="#E3F2FD" height="26.9551" rx="2.5" ry="2.5" style="stroke:#181818;stroke-width:0.5;" width="59.6274" x="149.1863" y="87.4883"/><text fill="#000000" font-family="sans-serif" font-size="11" lengthAdjust="spacing" textLength="45.6274" x="156.1863" y="105.123">Vue &#21069;&#31471;</text></g><g class="participant participant-tail" data-entity-uid="part2" data-qualified-name="F" data-source-line="18" id="part2-tail"><rect fill="#E3F2FD" height="26.9551" rx="2.5" ry="2.5" style="stroke:#181818;stroke-width:0.5;" width="59.6274" x="149.1863" y="551.6348"/><text fill="#000000" font-family="sans-serif" font-size="11" lengthAdjust="spacing" textLength="45.6274" x="156.1863" y="569.2695">Vue &#21069;&#31471;</text></g><g class="participant participant-head" data-entity-uid="part3" data-qualified-name="B" data-source-line="19" id="part3-head"><rect fill="#E3F2FD" height="39.9102" rx="2.5" ry="2.5" style="stroke:#181818;stroke-width:0.5;" width="72.1689" x="317.9233" y="74.5332"/><text fill="#000000" font-family="sans-serif" font-size="11" lengthAdjust="spacing" textLength="58.1689" x="324.9233" y="92.168">SpringBoot</text><text fill="#000000" font-family="sans-serif" font-size="11" lengthAdjust="spacing" textLength="22" x="343.0078" y="105.123">&#21518;&#31471;</text></g><g class="participant participant-tail" data-entity-uid="part3" data-qualified-name="B" data-source-line="19" id="part3-tail"><rect fill="#E3F2FD" height="39.9102" rx="2.5" ry="2.5" style="stroke:#181818;stroke-width:0.5;" width="72.1689" x="317.9233" y="551.6348"/><text fill="#000000" font-family="sans-serif" font-size="11" lengthAdjust="spacing" textLength="58.1689" x="324.9233" y="569.2695">SpringBoot</text><text fill="#000000" font-family="sans-serif" font-size="11" lengthAdjust="spacing" textLength="22" x="343.0078" y="582.2246">&#21518;&#31471;</text></g><g class="participant participant-head" data-entity-uid="part4" data-qualified-name="D" data-source-line="20" id="part4-head"><text fill="#000000" font-family="sans-serif" font-size="11" lengthAdjust="spacing" textLength="35.5566" x="492.6504" y="113.123">MySQL</text><path d="M495.4287,66.4883 C495.4287,56.4883 513.4287,56.4883 513.4287,56.4883 C513.4287,56.4883 531.4287,56.4883 531.4287,66.4883 L531.4287,92.4883 C531.4287,102.4883 513.4287,102.4883 513.4287,102.4883 C513.4287,102.4883 495.4287,102.4883 495.4287,92.4883 L495.4287,66.4883" fill="#E2E2F0" style="stroke:#181818;stroke-width:0.5;"/><path d="M495.4287,66.4883 C495.4287,76.4883 513.4287,76.4883 513.4287,76.4883 C513.4287,76.4883 531.4287,76.4883 531.4287,66.4883" fill="none" style="stroke:#181818;stroke-width:0.5;"/></g><g class="participant participant-tail" data-entity-uid="part4" data-qualified-name="D" data-source-line="20" id="part4-tail"><text fill="#000000" font-family="sans-serif" font-size="11" lengthAdjust="spacing" textLength="35.5566" x="492.6504" y="562.2695">MySQL</text><path d="M495.4287,574.5898 C495.4287,564.5898 513.4287,564.5898 513.4287,564.5898 C513.4287,564.5898 531.4287,564.5898 531.4287,574.5898 L531.4287,600.5898 C531.4287,610.5898 513.4287,610.5898 513.4287,610.5898 C513.4287,610.5898 495.4287,610.5898 495.4287,600.5898 L495.4287,574.5898" fill="#E2E2F0" style="stroke:#181818;stroke-width:0.5;"/><path d="M495.4287,574.5898 C495.4287,584.5898 513.4287,584.5898 513.4287,584.5898 C513.4287,584.5898 531.4287,584.5898 531.4287,574.5898" fill="none" style="stroke:#181818;stroke-width:0.5;"/></g><g><title>Vue ..</title><rect fill="#FFFFFF" height="398.2363" style="stroke:#181818;stroke-width:1;" width="10" x="174" y="144.3984"/></g><g><title>SpringBoot</title><rect fill="#FFFFFF" height="181.6406" style="stroke:#181818;stroke-width:1;" width="10" x="349.0078" y="184.3086"/></g><g><title>MySQL</title><rect fill="#FFFFFF" height="26.9551" style="stroke:#181818;stroke-width:1;" width="10" x="508.4287" y="224.2188"/></g><g class="message" data-entity-1="part1" data-entity-2="part2" data-source-line="22" id="msg1"><polygon fill="#181818" points="162,140.3984,172,144.3984,162,148.3984,166,144.3984" style="stroke:#181818;stroke-width:1;stroke-linejoin:miter;stroke-miterlimit:10;"/><line style="stroke:#181818;stroke-width:1;" x1="34" x2="168" y1="144.3984" y2="144.3984"/><text fill="#000000" font-family="sans-serif" font-size="11" lengthAdjust="spacing" textLength="121" x="43.5" y="140.0781">&#36873;&#25321;&#35282;&#33394;&#65292;&#36755;&#20837;&#36134;&#21495;&#23494;&#30721;</text></g><g class="message" data-entity-1="part2" data-entity-2="part3" data-source-line="25" id="msg2"><polygon fill="#181818" points="337.0078,180.3086,347.0078,184.3086,337.0078,188.3086,341.0078,184.3086" style="stroke:#181818;stroke-width:1;stroke-linejoin:miter;stroke-miterlimit:10;"/><line style="stroke:#181818;stroke-width:1;" x1="184" x2="343.0078" y1="184.3086" y2="184.3086"/><text fill="#000000" font-family="sans-serif" font-size="11" lengthAdjust="spacing" textLength="92.3882" x="220.3098" y="167.0332">POST /user/login</text><text fill="#000000" font-family="sans-serif" font-size="11" lengthAdjust="spacing" textLength="144.8745" x="194.0667" y="179.9883">{username, password, role}</text></g><g class="message" data-entity-1="part3" data-entity-2="part4" data-source-line="28" id="msg3"><polygon fill="#181818" points="496.4287,220.2188,506.4287,224.2188,496.4287,228.2188,500.4287,224.2188" style="stroke:#181818;stroke-width:1;stroke-linejoin:miter;stroke-miterlimit:10;"/><line style="stroke:#181818;stroke-width:1;" x1="359.0078" x2="502.4287" y1="224.2188" y2="224.2188"/><text fill="#000000" font-family="sans-serif" font-size="11" lengthAdjust="spacing" textLength="130.4209" x="368.5078" y="206.9434">SELECT * FROM sys_user</text><text fill="#000000" font-family="sans-serif" font-size="11" lengthAdjust="spacing" textLength="112.562" x="377.4373" y="219.8984">WHERE username = ?</text></g><g class="message" data-entity-1="part4" data-entity-2="part3" data-source-line="30" id="msg4"><polygon fill="#181818" points="370.0078,247.1738,360.0078,251.1738,370.0078,255.1738,366.0078,251.1738" style="stroke:#181818;stroke-width:1;stroke-linejoin:miter;stroke-miterlimit:10;"/><line style="stroke:#181818;stroke-width:1;stroke-dasharray:2,2;" x1="364.0078" x2="512.4287" y1="251.1738" y2="251.1738"/><text fill="#000000" font-family="sans-serif" font-size="11" lengthAdjust="spacing" textLength="44" x="414.2183" y="246.8535">&#29992;&#25143;&#35760;&#24405;</text></g><g class="message" data-entity-1="part3" data-entity-2="part3" data-source-line="33" id="msg5"><line style="stroke:#181818;stroke-width:1;" x1="359.0078" x2="401.0078" y1="291.084" y2="291.084"/><line style="stroke:#181818;stroke-width:1;" x1="401.0078" x2="401.0078" y1="291.084" y2="304.084"/><line style="stroke:#181818;stroke-width:1;" x1="360.0078" x2="401.0078" y1="304.084" y2="304.084"/><polygon fill="#181818" points="370.0078,300.084,360.0078,304.084,370.0078,308.084,366.0078,304.084" style="stroke:#181818;stroke-width:1;stroke-linejoin:miter;stroke-miterlimit:10;"/><text fill="#000000" font-family="sans-serif" font-size="11" lengthAdjust="spacing" textLength="79.3042" x="366.0078" y="273.8086">MD5(&#23494;&#30721;) &#27604;&#23545;</text><text fill="#000000" font-family="sans-serif" font-size="11" lengthAdjust="spacing" textLength="73.874" x="368.7229" y="286.7637">+ role_id &#26657;&#39564;</text></g><path d="M10,319.084 L69.502,319.084 L69.502,324.0391 L59.502,334.0391 L10,334.0391 L10,319.084" fill="#EEEEEE" style="stroke:#000000;stroke-width:1.5;"/><rect fill="none" height="216.5508" style="stroke:#000000;stroke-width:1.5;" width="390.0923" x="10" y="319.084"/><text fill="#000000" font-family="sans-serif" font-size="11" font-weight="700" lengthAdjust="spacing" textLength="14.502" x="25" y="330.7188">alt</text><text fill="#000000" font-family="sans-serif" font-size="11" font-weight="700" lengthAdjust="spacing" textLength="52.1533" x="84.502" y="331.7188">[&#26657;&#39564;&#36890;&#36807;]</text><g class="message" data-entity-1="part3" data-entity-2="part2" data-source-line="36" id="msg6"><polygon fill="#181818" points="195,361.9492,185,365.9492,195,369.9492,191,365.9492" style="stroke:#181818;stroke-width:1;stroke-linejoin:miter;stroke-miterlimit:10;"/><line style="stroke:#181818;stroke-width:1;stroke-dasharray:2,2;" x1="189" x2="353.0078" y1="365.9492" y2="365.9492"/><text fill="#000000" font-family="sans-serif" font-size="11" lengthAdjust="spacing" textLength="40.0737" x="248.967" y="348.6738">200 OK</text><text fill="#000000" font-family="sans-serif" font-size="11" lengthAdjust="spacing" textLength="115.7578" x="211.125" y="361.6289">{token, role, userInfo}</text></g><g class="message" data-entity-1="part2" data-entity-2="part2" data-source-line="38" id="msg7"><line style="stroke:#181818;stroke-width:1;" x1="184" x2="226" y1="405.8594" y2="405.8594"/><line style="stroke:#181818;stroke-width:1;" x1="226" x2="226" y1="405.8594" y2="418.8594"/><line style="stroke:#181818;stroke-width:1;" x1="185" x2="226" y1="418.8594" y2="418.8594"/><polygon fill="#181818" points="195,414.8594,185,418.8594,195,422.8594,191,418.8594" style="stroke:#181818;stroke-width:1;stroke-linejoin:miter;stroke-miterlimit:10;"/><text fill="#000000" font-family="sans-serif" font-size="11" lengthAdjust="spacing" textLength="90.6641" x="191" y="388.584">&#23384;&#20837; localStorage</text><text fill="#000000" font-family="sans-serif" font-size="11" lengthAdjust="spacing" textLength="44" x="214.332" y="401.5391">&#36335;&#30001;&#36339;&#36716;</text></g><g class="message" data-entity-1="part2" data-entity-2="part1" data-source-line="39" id="msg8"><polygon fill="#181818" points="45,441.8145,35,445.8145,45,449.8145,41,445.8145" style="stroke:#181818;stroke-width:1;stroke-linejoin:miter;stroke-miterlimit:10;"/><line style="stroke:#181818;stroke-width:1;stroke-dasharray:2,2;" x1="39" x2="173" y1="445.8145" y2="445.8145"/><text fill="#000000" font-family="sans-serif" font-size="11" lengthAdjust="spacing" textLength="66" x="71" y="441.4941">&#36339;&#36716;&#35282;&#33394;&#39318;&#39029;</text></g><line style="stroke:#000000;stroke-width:1;stroke-dasharray:2,2;" x1="10" x2="400.0923" y1="454.8145" y2="454.8145"/><text fill="#000000" font-family="sans-serif" font-size="11" font-weight="700" lengthAdjust="spacing" textLength="52.1533" x="15" y="465.4492">[&#26657;&#39564;&#22833;&#36133;]</text><g class="message" data-entity-1="part3" data-entity-2="part2" data-source-line="41" id="msg9"><polygon fill="#181818" points="195,496.6797,185,500.6797,195,504.6797,191,500.6797" style="stroke:#181818;stroke-width:1;stroke-linejoin:miter;stroke-miterlimit:10;"/><line style="stroke:#181818;stroke-width:1;stroke-dasharray:2,2;" x1="189" x2="353.0078" y1="500.6797" y2="500.6797"/><text fill="#000000" font-family="sans-serif" font-size="11" lengthAdjust="spacing" textLength="96.4326" x="220.7876" y="483.4043">401 Unauthorized</text><text fill="#000000" font-family="sans-serif" font-size="11" lengthAdjust="spacing" textLength="146.0078" x="196" y="496.3594">{message: "&#36134;&#21495;&#25110;&#23494;&#30721;&#38169;&#35823;"}</text></g><g class="message" data-entity-1="part2" data-entity-2="part1" data-source-line="43" id="msg10"><polygon fill="#181818" points="45,523.6348,35,527.6348,45,531.6348,41,527.6348" style="stroke:#181818;stroke-width:1;stroke-linejoin:miter;stroke-miterlimit:10;"/><line style="stroke:#181818;stroke-width:1;stroke-dasharray:2,2;" x1="39" x2="173" y1="527.6348" y2="527.6348"/><text fill="#000000" font-family="sans-serif" font-size="11" lengthAdjust="spacing" textLength="66" x="71" y="523.3145">&#25552;&#31034;&#38169;&#35823;&#20449;&#24687;</text></g><?plantuml-src fLDRJnD157wVNt5I7_02eO2-aA2nj1kDD2Yb-jA43DsXRbXcSNUgGKBIFaXfG45TYK2YD0746oiADfPB_ukwbpxn5vpTeRAIyEHiifavvpldVFETCotGynyBjK2ZKhDhy_RA8VmicE0kxTa7hvpTehivovtEQiakJKCwsNUql-oQR-td1swj_gjGTEe5PsVFgKppFLPPEr4D0cwvv6pjSejND-sLDyxt6QTeyIp_nT0OLUWurl4O3EFiQ4xNybJkrLHDXtDImlz229cCuBpA98sobFAOG4T7o6cG1tb2ioH930Fdo7LLoL784ig87aBnFrEooZYc32OHy1KxNJRH9NLASJGLYi9PnZrdu2L9waf4EHunXQbS9dFJcQaAfGFH_xO08P4e8Y0Hm0QaKPXIv6wUW5r-wdwq0g_qhpSrhYiq5zCqbg7smhCcAePapF0mvZsA92TIT_e2QnoXDBHT1GcweL4eExFllNSllFBNe_qvx_2b_MJTszcmvwksDUsk5drcoaFC22-993yiniDkzwS6eJrl4BrTrN8ApT19_q3n66dbKXh68qsNMq7NL39raY66KCpF4ESPKec-HEyWN0Hfe3y9neGnv2V8q7it4WC9Q2Q37hXs4Xz7SMWxPY2KyhQ-S36HJ48OKSF79EDNpejRN037CcthHuPU2aWDAJAVyKhZmnoNNcN7-qPXsQkNH3E3Ghv2dT4ezD_Y5sJQAA7YJgq1mPjqH9iAqA7wiS0WDVMrFx_cWeAgPR6QuYtc0vYXNjLopMsl-iqx-DI4StoQuuLHzAEniTYexABWYGc2zjgsjxD-Yk3bQ0UaASwp-vhEXr_cLCV4g7T3HBJIcLaKEZJC9S-o8cUpFgRXp2-uQpM1_bsl-C-PK1c5XPRG7m00?></g></svg>