<svg xmlns="http://www.w3.org/2000/svg" xmlns:xlink="http://www.w3.org/1999/xlink" contentStyleType="text/css" data-diagram-type="ACTIVITY" height="931px" preserveAspectRatio="none" style="width:1336px;height:931px;background:#FEFEFE;" version="1.1" viewBox="0 0 1336 931" width="1336px" zoomAndPan="magnify"><?plantuml 1.2026.6?><defs/><g><rect fill="#FEFEFE" height="931" style="stroke:none;stroke-width:1;" width="1336" x="0" y="0"/><g class="title" data-source-line="18"><text fill="#000000" font-family="sans-serif" font-size="14" font-weight="700" lengthAdjust="spacing" textLength="181.7607" x="576.2389" y="33.5352">&#25945;&#24072;&#24037;&#20316;&#27969;&#31243; &#8212; &#27963;&#21160;&#22270; (v2)</text></g><ellipse cx="666.1193" cy="62.4883" fill="#222222" rx="10" ry="10" style="stroke:#222222;stroke-width:1;"/><rect fill="#E3F2FD" height="32.9551" rx="12.5" ry="12.5" style="stroke:#1565C0;stroke-width:0.5;" width="64" x="634.1193" y="92.4883"/><text fill="#000000" font-family="sans-serif" font-size="11" lengthAdjust="spacing" textLength="44" x="644.1193" y="113.123">&#30331;&#24405;&#31995;&#32479;</text><rect fill="#E3F2FD" height="32.9551" rx="12.5" ry="12.5" style="stroke:#1565C0;stroke-width:0.5;" width="97" x="617.6193" y="145.4434"/><text fill="#000000" font-family="sans-serif" font-size="11" lengthAdjust="spacing" textLength="77" x="627.6193" y="166.0781">&#36827;&#20837;&#24037;&#20316;&#21488;&#30475;&#26495;</text><polygon fill="#E3F2FD" points="52.8367,198.3984,101.4773,198.3984,113.4773,210.3984,101.4773,222.3984,52.8367,222.3984,40.8367,210.3984,52.8367,198.3984" style="stroke:#1565C0;stroke-width:0.5;stroke-linejoin:miter;stroke-miterlimit:10;"/><text fill="#000000" font-family="sans-serif" font-size="11" lengthAdjust="spacing" textLength="69.6309" x="81.157" y="233.0332">&#35838;&#31243; &amp; &#30693;&#35782;&#28857;</text><text fill="#000000" font-family="sans-serif" font-size="11" lengthAdjust="spacing" textLength="48.6406" x="52.8367" y="214.5557">&#25805;&#20316;&#31867;&#22411;?</text><rect fill="#E3F2FD" height="45.9102" rx="12.5" ry="12.5" style="stroke:#1565C0;stroke-width:0.5;" width="91.7686" x="31.2727" y="254.5332"/><text fill="#000000" font-family="sans-serif" font-size="11" lengthAdjust="spacing" textLength="71.7686" x="41.2727" y="275.168">&#21019;&#24314;/&#32534;&#36753;&#35838;&#31243;</text><text fill="#000000" font-family="sans-serif" font-size="11" lengthAdjust="spacing" textLength="42.6089" x="41.2727" y="288.123">(course)</text><rect fill="#E3F2FD" height="45.9102" rx="12.5" ry="12.5" style="stroke:#1565C0;stroke-width:0.5;" width="116.9966" x="18.6587" y="325.4434"/><text fill="#000000" font-family="sans-serif" font-size="11" lengthAdjust="spacing" textLength="55" x="28.6587" y="346.0781">&#31649;&#29702;&#30693;&#35782;&#28857;</text><text fill="#000000" font-family="sans-serif" font-size="11" lengthAdjust="spacing" textLength="96.9966" x="28.6587" y="359.0332">(knowledge_node)</text><path d="M145.657,404.3086 L145.657,437.6963 L125.657,441.6963 L145.657,445.6963 L145.657,479.084 A0,0 0 0 0 145.657,479.084 L300.6121,479.084 A0,0 0 0 0 300.6121,479.084 L300.6121,414.3086 L290.6121,404.3086 L145.657,404.3086 A0,0 0 0 0 145.657,404.3086" fill="#FEFFDD" style="stroke:#181818;stroke-width:0.5;"/><path d="M290.6121,404.3086 L290.6121,414.3086 L300.6121,414.3086 L290.6121,404.3086" fill="#FEFFDD" style="stroke:#181818;stroke-width:0.5;"/><text fill="#000000" font-family="sans-serif" font-size="11" lengthAdjust="spacing" textLength="96.0352" x="151.657" y="419.9434">name, description</text><text fill="#000000" font-family="sans-serif" font-size="11" lengthAdjust="spacing" textLength="133.9551" x="151.657" y="432.8984">node_type, learning_goal</text><text fill="#000000" font-family="sans-serif" font-size="11" lengthAdjust="spacing" textLength="129.4272" x="151.657" y="445.8535">keywords, example_hint</text><text fill="#000000" font-family="sans-serif" font-size="11" lengthAdjust="spacing" textLength="94.0371" x="151.657" y="458.8086">difficulty, chapter</text><text fill="#000000" font-family="sans-serif" font-size="11" lengthAdjust="spacing" textLength="97.1792" x="151.657" y="471.7637">expected_minutes</text><rect fill="#E3F2FD" height="32.9551" rx="12.5" ry="12.5" style="stroke:#1565C0;stroke-width:0.5;" width="97" x="28.657" y="425.2188"/><text fill="#000000" font-family="sans-serif" font-size="11" lengthAdjust="spacing" textLength="77" x="38.657" y="445.8535">&#37197;&#32622;&#30693;&#35782;&#28857;&#23646;&#24615;</text><path d="M155.3572,514.084 L155.3572,534.5166 L135.3572,538.5166 L155.3572,542.5166 L155.3572,562.9492 A0,0 0 0 0 155.3572,562.9492 L326.2375,562.9492 A0,0 0 0 0 326.2375,562.9492 L326.2375,524.084 L316.2375,514.084 L155.3572,514.084 A0,0 0 0 0 155.3572,514.084" fill="#FEFFDD" style="stroke:#181818;stroke-width:0.5;"/><path d="M316.2375,514.084 L316.2375,524.084 L326.2375,524.084 L316.2375,514.084" fill="#FEFFDD" style="stroke:#181818;stroke-width:0.5;"/><text fill="#000000" font-family="sans-serif" font-size="11" lengthAdjust="spacing" textLength="149.8804" x="161.3572" y="529.7188">from_node_id &#8594; to_node_id</text><text fill="#000000" font-family="sans-serif" font-size="11" lengthAdjust="spacing" textLength="69.1743" x="161.3572" y="542.6738">relation_type</text><text fill="#000000" font-family="sans-serif" font-size="11" lengthAdjust="spacing" textLength="86.4746" x="161.3572" y="555.6289">is_cross_subject</text><rect fill="#E3F2FD" height="45.9102" rx="12.5" ry="12.5" style="stroke:#1565C0;stroke-width:0.5;" width="116.4004" x="18.9568" y="515.5615"/><text fill="#000000" font-family="sans-serif" font-size="11" lengthAdjust="spacing" textLength="88" x="28.9568" y="536.1963">&#35774;&#23450;&#21069;&#32622;&#20381;&#36182;&#20851;&#31995;</text><text fill="#000000" font-family="sans-serif" font-size="11" lengthAdjust="spacing" textLength="96.4004" x="28.9568" y="549.1514">(knowledge_edge)</text><path d="M158.314,597.9492 L158.314,624.8594 L138.314,628.8594 L158.314,632.8594 L158.314,659.7695 A0,0 0 0 0 158.314,659.7695 L266.9756,659.7695 A0,0 0 0 0 266.9756,659.7695 L266.9756,607.9492 L256.9756,597.9492 L158.314,597.9492 A0,0 0 0 0 158.314,597.9492" fill="#FEFFDD" style="stroke:#181818;stroke-width:0.5;"/><path d="M256.9756,597.9492 L256.9756,607.9492 L266.9756,607.9492 L256.9756,597.9492" fill="#FEFFDD" style="stroke:#181818;stroke-width:0.5;"/><text fill="#000000" font-family="sans-serif" font-size="11" lengthAdjust="spacing" textLength="77" x="164.314" y="613.584">&#19978;&#20256;&#35270;&#39057;&#12289;&#25991;&#26723;</text><text fill="#000000" font-family="sans-serif" font-size="11" lengthAdjust="spacing" textLength="55" x="164.314" y="626.5391">&#35774;&#32622;&#23553;&#38754;&#22270;</text><text fill="#000000" font-family="sans-serif" font-size="11" lengthAdjust="spacing" textLength="87.6616" x="164.314" y="639.4941">&#37197;&#32622;&#36164;&#28304;&#38142;&#25509;(url)</text><text fill="#000000" font-family="sans-serif" font-size="11" lengthAdjust="spacing" textLength="84.4443" x="164.314" y="652.4492">&#25490;&#24207;(sort_order)</text><rect fill="#E3F2FD" height="45.9102" rx="12.5" ry="12.5" style="stroke:#1565C0;stroke-width:0.5;" width="122.314" x="16" y="605.9043"/><text fill="#000000" font-family="sans-serif" font-size="11" lengthAdjust="spacing" textLength="66" x="26" y="626.5391">&#31649;&#29702;&#23398;&#20064;&#36164;&#28304;</text><text fill="#000000" font-family="sans-serif" font-size="11" lengthAdjust="spacing" textLength="102.314" x="26" y="639.4941">(learning_resource)</text><rect fill="#E3F2FD" height="45.9102" rx="12.5" ry="12.5" style="stroke:#1565C0;stroke-width:0.5;" width="73.5176" x="40.3982" y="689.9941"/><text fill="#000000" font-family="sans-serif" font-size="11" lengthAdjust="spacing" textLength="44" x="50.3982" y="710.6289">&#31649;&#29702;&#39064;&#24211;</text><text fill="#000000" font-family="sans-serif" font-size="11" lengthAdjust="spacing" textLength="53.5176" x="50.3982" y="723.584">(question)</text><path d="M145.657,748.1738 L145.657,768.6064 L125.657,772.6064 L145.657,776.6064 L145.657,797.0391 A0,0 0 0 0 145.657,797.0391 L295.2678,797.0391 A0,0 0 0 0 295.2678,797.0391 L295.2678,758.1738 L285.2678,748.1738 L145.657,748.1738 A0,0 0 0 0 145.657,748.1738" fill="#FEFFDD" style="stroke:#181818;stroke-width:0.5;"/><path d="M285.2678,748.1738 L285.2678,758.1738 L295.2678,758.1738 L285.2678,748.1738" fill="#FEFFDD" style="stroke:#181818;stroke-width:0.5;"/><text fill="#000000" font-family="sans-serif" font-size="11" lengthAdjust="spacing" textLength="87.5273" x="151.657" y="763.8086">content, options</text><text fill="#000000" font-family="sans-serif" font-size="11" lengthAdjust="spacing" textLength="86.8721" x="151.657" y="776.7637">answer, analysis</text><text fill="#000000" font-family="sans-serif" font-size="11" lengthAdjust="spacing" textLength="128.6108" x="151.657" y="789.7188">difficulty, question_type</text><rect fill="#E3F2FD" height="32.9551" rx="12.5" ry="12.5" style="stroke:#1565C0;stroke-width:0.5;" width="97" x="28.657" y="756.1289"/><text fill="#000000" font-family="sans-serif" font-size="11" lengthAdjust="spacing" textLength="77" x="38.657" y="776.7637">&#39064;&#30446;&#20851;&#32852;&#30693;&#35782;&#28857;</text><polygon fill="#E3F2FD" points="366.0354,198.3984,414.676,198.3984,426.676,210.3984,414.676,222.3984,366.0354,222.3984,354.0354,210.3984,366.0354,198.3984" style="stroke:#1565C0;stroke-width:0.5;stroke-linejoin:miter;stroke-miterlimit:10;"/><text fill="#000000" font-family="sans-serif" font-size="11" lengthAdjust="spacing" textLength="11" x="394.3557" y="233.0332">&#26159;</text><text fill="#000000" font-family="sans-serif" font-size="11" lengthAdjust="spacing" textLength="48.6406" x="366.0354" y="214.5557">&#27979;&#35780;&#31649;&#29702;?</text><rect fill="#E3F2FD" height="45.9102" rx="12.5" ry="12.5" style="stroke:#1565C0;stroke-width:0.5;" width="64" x="358.3557" y="254.5332"/><text fill="#000000" font-family="sans-serif" font-size="11" lengthAdjust="spacing" textLength="44" x="368.3557" y="275.168">&#21019;&#24314;&#27979;&#35780;</text><text fill="#000000" font-family="sans-serif" font-size="11" lengthAdjust="spacing" textLength="36.373" x="368.3557" y="288.123">(exam)</text><rect fill="#E3F2FD" height="32.9551" rx="12.5" ry="12.5" style="stroke:#1565C0;stroke-width:0.5;" width="86" x="347.3557" y="325.4434"/><text fill="#000000" font-family="sans-serif" font-size="11" lengthAdjust="spacing" textLength="66" x="357.3557" y="346.0781">&#35774;&#32622;&#35797;&#21367;&#24635;&#20998;</text><rect fill="#E3F2FD" height="45.9102" rx="12.5" ry="12.5" style="stroke:#1565C0;stroke-width:0.5;" width="108.2363" x="336.2375" y="391.3535"/><text fill="#000000" font-family="sans-serif" font-size="11" lengthAdjust="spacing" textLength="55" x="346.2375" y="411.9883">&#20174;&#39064;&#24211;&#36873;&#39064;</text><text fill="#000000" font-family="sans-serif" font-size="11" lengthAdjust="spacing" textLength="88.2363" x="346.2375" y="424.9434">(exam_question)</text><rect fill="#E3F2FD" height="45.9102" rx="12.5" ry="12.5" style="stroke:#1565C0;stroke-width:0.5;" width="86" x="347.3557" y="472.2637"/><text fill="#000000" font-family="sans-serif" font-size="11" lengthAdjust="spacing" textLength="66" x="357.3557" y="492.8984">&#35774;&#23450;&#39064;&#30446;&#39034;&#24207;</text><text fill="#000000" font-family="sans-serif" font-size="11" lengthAdjust="spacing" textLength="62.4443" x="357.3557" y="505.8535">(sort_order)</text><rect fill="#E3F2FD" height="32.9551" rx="12.5" ry="12.5" style="stroke:#1565C0;stroke-width:0.5;" width="64" x="358.3557" y="553.1738"/><text fill="#000000" font-family="sans-serif" font-size="11" lengthAdjust="spacing" textLength="44" x="368.3557" y="573.8086">&#21457;&#24067;&#27979;&#35780;</text><path d="M453.3557,621.1289 L453.3557,641.5615 L433.3557,645.5615 L453.3557,649.5615 L453.3557,669.9941 A0,0 0 0 0 453.3557,669.9941 L592.1116,669.9941 A0,0 0 0 0 592.1116,669.9941 L592.1116,631.1289 L582.1116,621.1289 L453.3557,621.1289 A0,0 0 0 0 453.3557,621.1289" fill="#FEFFDD" style="stroke:#181818;stroke-width:0.5;"/><path d="M582.1116,621.1289 L582.1116,631.1289 L592.1116,631.1289 L582.1116,621.1289" fill="#FEFFDD" style="stroke:#181818;stroke-width:0.5;"/><text fill="#000000" font-family="sans-serif" font-size="11" lengthAdjust="spacing" textLength="72.644" x="459.3557" y="636.7637">exam_record:</text><text fill="#000000" font-family="sans-serif" font-size="11" lengthAdjust="spacing" textLength="117.7559" x="459.3557" y="649.7188">user_score, start_time</text><text fill="#000000" font-family="sans-serif" font-size="11" lengthAdjust="spacing" textLength="112.9272" x="459.3557" y="662.6738">create_time(&#23436;&#25104;&#26102;&#38388;)</text><rect fill="#E3F2FD" height="32.9551" rx="12.5" ry="12.5" style="stroke:#1565C0;stroke-width:0.5;" width="86" x="347.3557" y="629.084"/><text fill="#000000" font-family="sans-serif" font-size="11" lengthAdjust="spacing" textLength="66" x="357.3557" y="649.7188">&#26597;&#30475;&#23398;&#29983;&#25104;&#32489;</text><path d="M462.2153,700.2188 L462.2153,714.1738 L442.2153,718.1738 L462.2153,722.1738 L462.2153,736.1289 A0,0 0 0 0 462.2153,736.1289 L582.7256,736.1289 A0,0 0 0 0 582.7256,736.1289 L582.7256,710.2188 L572.7256,700.2188 L462.2153,700.2188 A0,0 0 0 0 462.2153,700.2188" fill="#FEFFDD" style="stroke:#181818;stroke-width:0.5;"/><path d="M572.7256,700.2188 L572.7256,710.2188 L582.7256,710.2188 L572.7256,700.2188" fill="#FEFFDD" style="stroke:#181818;stroke-width:0.5;"/><text fill="#000000" font-family="sans-serif" font-size="11" lengthAdjust="spacing" textLength="73.1597" x="468.2153" y="715.8535">ai_report &#23383;&#27573;</text><text fill="#000000" font-family="sans-serif" font-size="11" lengthAdjust="spacing" textLength="99.5103" x="468.2153" y="728.8086">DeepSeek &#33258;&#21160;&#29983;&#25104;</text><rect fill="#E3F2FD" height="32.9551" rx="12.5" ry="12.5" style="stroke:#1565C0;stroke-width:0.5;" width="103.7192" x="338.4961" y="701.6963"/><text fill="#000000" font-family="sans-serif" font-size="11" lengthAdjust="spacing" textLength="83.7192" x="348.4961" y="722.3311">&#26597;&#30475; AI &#35786;&#26029;&#25253;&#21578;</text><polygon fill="#E3F2FD" points="641.4458,198.3984,701.0864,198.3984,713.0864,210.3984,701.0864,222.3984,641.4458,222.3984,629.4458,210.3984,641.4458,198.3984" style="stroke:#1565C0;stroke-width:0.5;stroke-linejoin:miter;stroke-miterlimit:10;"/><text fill="#000000" font-family="sans-serif" font-size="11" lengthAdjust="spacing" textLength="11" x="675.2661" y="233.0332">&#26159;</text><text fill="#000000" font-family="sans-serif" font-size="11" lengthAdjust="spacing" textLength="59.6406" x="641.4458" y="214.5557">&#36328;&#23398;&#31185;&#20027;&#39064;?</text><path d="M760.4207,259.5332 L760.4207,273.4883 L740.4207,277.4883 L760.4207,281.4883 L760.4207,295.4434 A0,0 0 0 0 760.4207,295.4434 L916.4231,295.4434 A0,0 0 0 0 916.4231,295.4434 L916.4231,269.5332 L906.4231,259.5332 L760.4207,259.5332 A0,0 0 0 0 760.4207,259.5332" fill="#FEFFDD" style="stroke:#181818;stroke-width:0.5;"/><path d="M906.4231,259.5332 L906.4231,269.5332 L916.4231,269.5332 L906.4231,259.5332" fill="#FEFFDD" style="stroke:#181818;stroke-width:0.5;"/><text fill="#000000" font-family="sans-serif" font-size="11" lengthAdjust="spacing" textLength="135.0024" x="766.4207" y="275.168">theme_name, description</text><text fill="#000000" font-family="sans-serif" font-size="11" lengthAdjust="spacing" textLength="86.1792" x="766.4207" y="288.123">difficulty, status</text><rect fill="#E3F2FD" height="45.9102" rx="12.5" ry="12.5" style="stroke:#1565C0;stroke-width:0.5;" width="138.3091" x="602.1116" y="254.5332"/><text fill="#000000" font-family="sans-serif" font-size="11" lengthAdjust="spacing" textLength="77" x="612.1116" y="275.168">&#21019;&#24314;&#36328;&#23398;&#31185;&#20027;&#39064;</text><text fill="#000000" font-family="sans-serif" font-size="11" lengthAdjust="spacing" textLength="118.3091" x="612.1116" y="288.123">(cross_subject_theme)</text><rect fill="#E3F2FD" height="45.9102" rx="12.5" ry="12.5" style="stroke:#1565C0;stroke-width:0.5;" width="126.3638" x="608.0842" y="325.4434"/><text fill="#000000" font-family="sans-serif" font-size="11" lengthAdjust="spacing" textLength="88" x="618.0842" y="346.0781">&#20851;&#32852;&#22810;&#23398;&#31185;&#30693;&#35782;&#28857;</text><text fill="#000000" font-family="sans-serif" font-size="11" lengthAdjust="spacing" textLength="106.3638" x="618.0842" y="359.0332">(cross_theme_node)</text><rect fill="#E3F2FD" height="32.9551" rx="12.5" ry="12.5" style="stroke:#1565C0;stroke-width:0.5;" width="86" x="628.2661" y="404.3086"/><text fill="#000000" font-family="sans-serif" font-size="11" lengthAdjust="spacing" textLength="66" x="638.2661" y="424.9434">&#21457;&#24067;&#21040;&#23398;&#29983;&#31471;</text><polygon fill="#E3F2FD" points="956.1028,198.3984,1004.7434,198.3984,1016.7434,210.3984,1004.7434,222.3984,956.1028,222.3984,944.1028,210.3984,956.1028,198.3984" style="stroke:#1565C0;stroke-width:0.5;stroke-linejoin:miter;stroke-miterlimit:10;"/><text fill="#000000" font-family="sans-serif" font-size="11" lengthAdjust="spacing" textLength="11" x="984.4231" y="233.0332">&#26159;</text><text fill="#000000" font-family="sans-serif" font-size="11" lengthAdjust="spacing" textLength="48.6406" x="956.1028" y="214.5557">&#23398;&#24773;&#20998;&#26512;?</text><text fill="#000000" font-family="sans-serif" font-size="11" lengthAdjust="spacing" textLength="22" x="1016.7434" y="208.0781">&#20844;&#21578;</text><rect fill="#E3F2FD" height="32.9551" rx="12.5" ry="12.5" style="stroke:#1565C0;stroke-width:0.5;" width="91.7686" x="934.5388" y="254.5332"/><text fill="#000000" font-family="sans-serif" font-size="11" lengthAdjust="spacing" textLength="71.7686" x="944.5388" y="275.168">&#36873;&#25321;&#29677;&#32423;/&#35838;&#31243;</text><path d="M1048.9231,312.4883 L1048.9231,332.9209 L1028.9231,336.9209 L1048.9231,340.9209 L1048.9231,361.3535 A0,0 0 0 0 1048.9231,361.3535 L1220.2385,361.3535 A0,0 0 0 0 1220.2385,361.3535 L1220.2385,322.4883 L1210.2385,312.4883 L1048.9231,312.4883 A0,0 0 0 0 1048.9231,312.4883" fill="#FEFFDD" style="stroke:#181818;stroke-width:0.5;"/><path d="M1210.2385,312.4883 L1210.2385,322.4883 L1220.2385,322.4883 L1210.2385,312.4883" fill="#FEFFDD" style="stroke:#181818;stroke-width:0.5;"/><text fill="#000000" font-family="sans-serif" font-size="11" lengthAdjust="spacing" textLength="144.896" x="1054.9231" y="328.123">study_record.mastery_level</text><text fill="#000000" font-family="sans-serif" font-size="11" lengthAdjust="spacing" textLength="136.2324" x="1054.9231" y="341.0781">study_record.correct_rate</text><text fill="#000000" font-family="sans-serif" font-size="11" lengthAdjust="spacing" textLength="150.3154" x="1054.9231" y="354.0332">study_record.study_minutes</text><rect fill="#E3F2FD" height="32.9551" rx="12.5" ry="12.5" style="stroke:#1565C0;stroke-width:0.5;" width="97" x="931.9231" y="320.4434"/><text fill="#000000" font-family="sans-serif" font-size="11" lengthAdjust="spacing" textLength="77" x="941.9231" y="341.0781">&#26597;&#30475;&#25972;&#20307;&#25484;&#25569;&#24230;</text><rect fill="#E3F2FD" height="32.9551" rx="12.5" ry="12.5" style="stroke:#1565C0;stroke-width:0.5;" width="108" x="926.4231" y="394.3086"/><text fill="#000000" font-family="sans-serif" font-size="11" lengthAdjust="spacing" textLength="88" x="936.4231" y="414.9434">&#26597;&#30475;&#23398;&#29983;&#20010;&#20307;&#35814;&#24773;</text><path d="M1043.4231,462.2637 L1043.4231,476.2188 L1023.4231,480.2188 L1043.4231,484.2188 L1043.4231,498.1738 A0,0 0 0 0 1043.4231,498.1738 L1180.9812,498.1738 A0,0 0 0 0 1180.9812,498.1738 L1180.9812,472.2637 L1170.9812,462.2637 L1043.4231,462.2637 A0,0 0 0 0 1043.4231,462.2637" fill="#FEFFDD" style="stroke:#181818;stroke-width:0.5;"/><path d="M1170.9812,462.2637 L1170.9812,472.2637 L1180.9812,472.2637 L1170.9812,462.2637" fill="#FEFFDD" style="stroke:#181818;stroke-width:0.5;"/><text fill="#000000" font-family="sans-serif" font-size="11" lengthAdjust="spacing" textLength="85.2822" x="1049.4231" y="477.8984">wrong_question</text><text fill="#000000" font-family="sans-serif" font-size="11" lengthAdjust="spacing" textLength="116.5581" x="1049.4231" y="490.8535">wrong_count &#39057;&#29575;&#20998;&#26512;</text><rect fill="#E3F2FD" height="32.9551" rx="12.5" ry="12.5" style="stroke:#1565C0;stroke-width:0.5;" width="86" x="937.4231" y="463.7412"/><text fill="#000000" font-family="sans-serif" font-size="11" lengthAdjust="spacing" textLength="66" x="947.4231" y="484.376">&#26597;&#30475;&#38169;&#39064;&#32479;&#35745;</text><rect fill="#E3F2FD" height="32.9551" rx="12.5" ry="12.5" style="stroke:#1565C0;stroke-width:0.5;" width="86" x="937.4231" y="533.1738"/><text fill="#000000" font-family="sans-serif" font-size="11" lengthAdjust="spacing" textLength="66" x="947.4231" y="553.8086">&#23548;&#20986;&#23398;&#24773;&#25253;&#34920;</text><rect fill="#E3F2FD" height="45.9102" rx="12.5" ry="12.5" style="stroke:#1565C0;stroke-width:0.5;" width="86" x="1230.2385" y="466.6289"/><text fill="#000000" font-family="sans-serif" font-size="11" lengthAdjust="spacing" textLength="66" x="1240.2385" y="487.2637">&#21457;&#24067;&#31995;&#32479;&#20844;&#21578;</text><text fill="#000000" font-family="sans-serif" font-size="11" lengthAdjust="spacing" textLength="62.2563" x="1240.2385" y="500.2188">(sys_notice)</text><rect fill="#E3F2FD" height="45.9102" rx="12.5" ry="12.5" style="stroke:#1565C0;stroke-width:0.5;" width="86" x="1230.2385" y="547.5391"/><text fill="#000000" font-family="sans-serif" font-size="11" lengthAdjust="spacing" textLength="66" x="1240.2385" y="568.1738">&#36873;&#25321;&#25512;&#36865;&#23545;&#35937;</text><text fill="#000000" font-family="sans-serif" font-size="11" lengthAdjust="spacing" textLength="65.0117" x="1240.2385" y="581.1289">(target_role)</text><rect fill="#E3F2FD" height="32.9551" rx="12.5" ry="12.5" style="stroke:#1565C0;stroke-width:0.5;" width="86" x="623.1193" y="837.0391"/><text fill="#000000" font-family="sans-serif" font-size="11" lengthAdjust="spacing" textLength="66" x="633.1193" y="857.6738">&#26356;&#26032;&#25945;&#23398;&#20869;&#23481;</text><ellipse cx="666.1193" cy="900.9941" fill="none" rx="11" ry="11" style="stroke:#222222;stroke-width:1;"/><ellipse cx="666.1193" cy="900.9941" fill="#222222" rx="6" ry="6" style="stroke:#222222;stroke-width:1;"/><line style="stroke:#181818;stroke-width:1;" x1="666.1193" x2="666.1193" y1="72.4883" y2="92.4883"/><polygon fill="#181818" points="662.1193,82.4883,666.1193,92.4883,670.1193,82.4883,666.1193,86.4883" style="stroke:#181818;stroke-width:1;stroke-linejoin:miter;stroke-miterlimit:10;"/><line style="stroke:#181818;stroke-width:1;" x1="666.1193" x2="666.1193" y1="125.4434" y2="145.4434"/><polygon fill="#181818" points="662.1193,135.4434,666.1193,145.4434,670.1193,135.4434,666.1193,139.4434" style="stroke:#181818;stroke-width:1;stroke-linejoin:miter;stroke-miterlimit:10;"/><line style="stroke:#181818;stroke-width:1;" x1="77.157" x2="77.157" y1="300.4434" y2="325.4434"/><polygon fill="#181818" points="73.157,315.4434,77.157,325.4434,81.157,315.4434,77.157,319.4434" style="stroke:#181818;stroke-width:1;stroke-linejoin:miter;stroke-miterlimit:10;"/><line style="stroke:#181818;stroke-width:1;" x1="77.157" x2="77.157" y1="371.3535" y2="425.2188"/><polygon fill="#181818" points="73.157,415.2188,77.157,425.2188,81.157,415.2188,77.157,419.2188" style="stroke:#181818;stroke-width:1;stroke-linejoin:miter;stroke-miterlimit:10;"/><line style="stroke:#181818;stroke-width:1;" x1="77.157" x2="77.157" y1="458.1738" y2="515.5615"/><polygon fill="#181818" points="73.157,505.5615,77.157,515.5615,81.157,505.5615,77.157,509.5615" style="stroke:#181818;stroke-width:1;stroke-linejoin:miter;stroke-miterlimit:10;"/><line style="stroke:#181818;stroke-width:1;" x1="77.157" x2="77.157" y1="561.4717" y2="605.9043"/><polygon fill="#181818" points="73.157,595.9043,77.157,605.9043,81.157,595.9043,77.157,599.9043" style="stroke:#181818;stroke-width:1;stroke-linejoin:miter;stroke-miterlimit:10;"/><line style="stroke:#181818;stroke-width:1;" x1="77.157" x2="77.157" y1="651.8145" y2="689.9941"/><polygon fill="#181818" points="73.157,679.9941,77.157,689.9941,81.157,679.9941,77.157,683.9941" style="stroke:#181818;stroke-width:1;stroke-linejoin:miter;stroke-miterlimit:10;"/><line style="stroke:#181818;stroke-width:1;" x1="77.157" x2="77.157" y1="735.9043" y2="756.1289"/><polygon fill="#181818" points="73.157,746.1289,77.157,756.1289,81.157,746.1289,77.157,750.1289" style="stroke:#181818;stroke-width:1;stroke-linejoin:miter;stroke-miterlimit:10;"/><line style="stroke:#181818;stroke-width:1;" x1="390.3557" x2="390.3557" y1="300.4434" y2="325.4434"/><polygon fill="#181818" points="386.3557,315.4434,390.3557,325.4434,394.3557,315.4434,390.3557,319.4434" style="stroke:#181818;stroke-width:1;stroke-linejoin:miter;stroke-miterlimit:10;"/><line style="stroke:#181818;stroke-width:1;" x1="390.3557" x2="390.3557" y1="358.3984" y2="391.3535"/><polygon fill="#181818" points="386.3557,381.3535,390.3557,391.3535,394.3557,381.3535,390.3557,385.3535" style="stroke:#181818;stroke-width:1;stroke-linejoin:miter;stroke-miterlimit:10;"/><line style="stroke:#181818;stroke-width:1;" x1="390.3557" x2="390.3557" y1="437.2637" y2="472.2637"/><polygon fill="#181818" points="386.3557,462.2637,390.3557,472.2637,394.3557,462.2637,390.3557,466.2637" style="stroke:#181818;stroke-width:1;stroke-linejoin:miter;stroke-miterlimit:10;"/><line style="stroke:#181818;stroke-width:1;" x1="390.3557" x2="390.3557" y1="518.1738" y2="553.1738"/><polygon fill="#181818" points="386.3557,543.1738,390.3557,553.1738,394.3557,543.1738,390.3557,547.1738" style="stroke:#181818;stroke-width:1;stroke-linejoin:miter;stroke-miterlimit:10;"/><line style="stroke:#181818;stroke-width:1;" x1="390.3557" x2="390.3557" y1="586.1289" y2="629.084"/><polygon fill="#181818" points="386.3557,619.084,390.3557,629.084,394.3557,619.084,390.3557,623.084" style="stroke:#181818;stroke-width:1;stroke-linejoin:miter;stroke-miterlimit:10;"/><line style="stroke:#181818;stroke-width:1;" x1="390.3557" x2="390.3557" y1="662.0391" y2="701.6963"/><polygon fill="#181818" points="386.3557,691.6963,390.3557,701.6963,394.3557,691.6963,390.3557,695.6963" style="stroke:#181818;stroke-width:1;stroke-linejoin:miter;stroke-miterlimit:10;"/><line style="stroke:#181818;stroke-width:1;" x1="671.2661" x2="671.2661" y1="300.4434" y2="325.4434"/><polygon fill="#181818" points="667.2661,315.4434,671.2661,325.4434,675.2661,315.4434,671.2661,319.4434" style="stroke:#181818;stroke-width:1;stroke-linejoin:miter;stroke-miterlimit:10;"/><line style="stroke:#181818;stroke-width:1;" x1="671.2661" x2="671.2661" y1="371.3535" y2="404.3086"/><polygon fill="#181818" points="667.2661,394.3086,671.2661,404.3086,675.2661,394.3086,671.2661,398.3086" style="stroke:#181818;stroke-width:1;stroke-linejoin:miter;stroke-miterlimit:10;"/><line style="stroke:#181818;stroke-width:1;" x1="980.4231" x2="980.4231" y1="287.4883" y2="320.4434"/><polygon fill="#181818" points="976.4231,310.4434,980.4231,320.4434,984.4231,310.4434,980.4231,314.4434" style="stroke:#181818;stroke-width:1;stroke-linejoin:miter;stroke-miterlimit:10;"/><line style="stroke:#181818;stroke-width:1;" x1="980.4231" x2="980.4231" y1="353.3984" y2="394.3086"/><polygon fill="#181818" points="976.4231,384.3086,980.4231,394.3086,984.4231,384.3086,980.4231,388.3086" style="stroke:#181818;stroke-width:1;stroke-linejoin:miter;stroke-miterlimit:10;"/><line style="stroke:#181818;stroke-width:1;" x1="980.4231" x2="980.4231" y1="427.2637" y2="463.7412"/><polygon fill="#181818" points="976.4231,453.7412,980.4231,463.7412,984.4231,453.7412,980.4231,457.7412" style="stroke:#181818;stroke-width:1;stroke-linejoin:miter;stroke-miterlimit:10;"/><line style="stroke:#181818;stroke-width:1;" x1="980.4231" x2="980.4231" y1="496.6963" y2="533.1738"/><polygon fill="#181818" points="976.4231,523.1738,980.4231,533.1738,984.4231,523.1738,980.4231,527.1738" style="stroke:#181818;stroke-width:1;stroke-linejoin:miter;stroke-miterlimit:10;"/><line style="stroke:#181818;stroke-width:1;" x1="1273.2385" x2="1273.2385" y1="512.5391" y2="547.5391"/><polygon fill="#181818" points="1269.2385,537.5391,1273.2385,547.5391,1277.2385,537.5391,1273.2385,541.5391" style="stroke:#181818;stroke-width:1;stroke-linejoin:miter;stroke-miterlimit:10;"/><line style="stroke:#181818;stroke-width:1;" x1="77.157" x2="77.157" y1="222.3984" y2="254.5332"/><polygon fill="#181818" points="73.157,244.5332,77.157,254.5332,81.157,244.5332,77.157,248.5332" style="stroke:#181818;stroke-width:1;stroke-linejoin:miter;stroke-miterlimit:10;"/><line style="stroke:#181818;stroke-width:1;" x1="77.157" x2="77.157" y1="789.084" y2="817.0391"/><polygon fill="#181818" points="73.157,807.0391,77.157,817.0391,81.157,807.0391,77.157,811.0391" style="stroke:#181818;stroke-width:1;stroke-linejoin:miter;stroke-miterlimit:10;"/><line style="stroke:#181818;stroke-width:1;" x1="390.3557" x2="390.3557" y1="222.3984" y2="254.5332"/><polygon fill="#181818" points="386.3557,244.5332,390.3557,254.5332,394.3557,244.5332,390.3557,248.5332" style="stroke:#181818;stroke-width:1;stroke-linejoin:miter;stroke-miterlimit:10;"/><line style="stroke:#181818;stroke-width:1;" x1="390.3557" x2="390.3557" y1="734.6514" y2="817.0391"/><polygon fill="#181818" points="386.3557,807.0391,390.3557,817.0391,394.3557,807.0391,390.3557,811.0391" style="stroke:#181818;stroke-width:1;stroke-linejoin:miter;stroke-miterlimit:10;"/><line style="stroke:#181818;stroke-width:1;" x1="671.2661" x2="671.2661" y1="222.3984" y2="254.5332"/><polygon fill="#181818" points="667.2661,244.5332,671.2661,254.5332,675.2661,244.5332,671.2661,248.5332" style="stroke:#181818;stroke-width:1;stroke-linejoin:miter;stroke-miterlimit:10;"/><line style="stroke:#181818;stroke-width:1;" x1="671.2661" x2="671.2661" y1="437.2637" y2="817.0391"/><polygon fill="#181818" points="667.2661,807.0391,671.2661,817.0391,675.2661,807.0391,671.2661,811.0391" style="stroke:#181818;stroke-width:1;stroke-linejoin:miter;stroke-miterlimit:10;"/><line style="stroke:#181818;stroke-width:1;" x1="980.4231" x2="980.4231" y1="222.3984" y2="254.5332"/><polygon fill="#181818" points="976.4231,244.5332,980.4231,254.5332,984.4231,244.5332,980.4231,248.5332" style="stroke:#181818;stroke-width:1;stroke-linejoin:miter;stroke-miterlimit:10;"/><line style="stroke:#181818;stroke-width:1;" x1="980.4231" x2="980.4231" y1="566.1289" y2="817.0391"/><polygon fill="#181818" points="976.4231,807.0391,980.4231,817.0391,984.4231,807.0391,980.4231,811.0391" style="stroke:#181818;stroke-width:1;stroke-linejoin:miter;stroke-miterlimit:10;"/><line style="stroke:#181818;stroke-width:1;" x1="113.4773" x2="354.0354" y1="210.3984" y2="210.3984"/><polygon fill="#181818" points="344.0354,206.3984,354.0354,210.3984,344.0354,214.3984,348.0354,210.3984" style="stroke:#181818;stroke-width:1;stroke-linejoin:miter;stroke-miterlimit:10;"/><line style="stroke:#181818;stroke-width:1;" x1="426.676" x2="629.4458" y1="210.3984" y2="210.3984"/><polygon fill="#181818" points="619.4458,206.3984,629.4458,210.3984,619.4458,214.3984,623.4458,210.3984" style="stroke:#181818;stroke-width:1;stroke-linejoin:miter;stroke-miterlimit:10;"/><line style="stroke:#181818;stroke-width:1;" x1="713.0864" x2="944.1028" y1="210.3984" y2="210.3984"/><polygon fill="#181818" points="934.1028,206.3984,944.1028,210.3984,934.1028,214.3984,938.1028,210.3984" style="stroke:#181818;stroke-width:1;stroke-linejoin:miter;stroke-miterlimit:10;"/><line style="stroke:#181818;stroke-width:1;" x1="666.1193" x2="666.1193" y1="178.3984" y2="183.3984"/><line style="stroke:#181818;stroke-width:1;" x1="666.1193" x2="77.157" y1="183.3984" y2="183.3984"/><line style="stroke:#181818;stroke-width:1;" x1="77.157" x2="77.157" y1="183.3984" y2="198.3984"/><polygon fill="#181818" points="73.157,188.3984,77.157,198.3984,81.157,188.3984,77.157,192.3984" style="stroke:#181818;stroke-width:1;stroke-linejoin:miter;stroke-miterlimit:10;"/><line style="stroke:#181818;stroke-width:1;" x1="1016.7434" x2="1273.2385" y1="210.3984" y2="210.3984"/><line style="stroke:#181818;stroke-width:1;" x1="1273.2385" x2="1273.2385" y1="210.3984" y2="466.6289"/><polygon fill="#181818" points="1269.2385,456.6289,1273.2385,466.6289,1277.2385,456.6289,1273.2385,460.6289" style="stroke:#181818;stroke-width:1;stroke-linejoin:miter;stroke-miterlimit:10;"/><line style="stroke:#181818;stroke-width:1;" x1="1273.2385" x2="1273.2385" y1="593.4492" y2="817.0391"/><polygon fill="#181818" points="1269.2385,807.0391,1273.2385,817.0391,1277.2385,807.0391,1273.2385,811.0391" style="stroke:#181818;stroke-width:1;stroke-linejoin:miter;stroke-miterlimit:10;"/><line style="stroke:#181818;stroke-width:1;" x1="77.157" x2="1273.2385" y1="817.0391" y2="817.0391"/><line style="stroke:#181818;stroke-width:1;" x1="666.1193" x2="666.1193" y1="817.0391" y2="837.0391"/><polygon fill="#181818" points="662.1193,827.0391,666.1193,837.0391,670.1193,827.0391,666.1193,831.0391" style="stroke:#181818;stroke-width:1;stroke-linejoin:miter;stroke-miterlimit:10;"/><line style="stroke:#181818;stroke-width:1;" x1="666.1193" x2="666.1193" y1="869.9941" y2="889.9941"/><polygon fill="#181818" points="662.1193,879.9941,666.1193,889.9941,670.1193,879.9941,666.1193,883.9941" style="stroke:#181818;stroke-width:1;stroke-linejoin:miter;stroke-miterlimit:10;"/><?plantuml-src fLLjJzjM5FwUNt6bIMkYeRMyjHfecXXjf7tkrqcMczm43yVEV6-WsJefh4q8Rm7AMoa56hO0RKS2AWoQGFfVkjnhvnD_OSU-YMDemfSwai7dEJxtEUSyv_WM-luBBjyjn8yhR7gVRLJHfzGouYlhx2pBJWkrYrVyPCBSdxaypuxrN9xFieLt_6J6AZqpYtbp8OE-GUnWj_RXjNNoZ9SNXF7oV0eYVX4XCgfeSTcGO-YH71gD6df22m_hgcwWhu8Fx9_78umZSaAbGLsZ3vNVCEhkze1oY2fZ2asYttq8hX-lHtlG6-m9tXUOReInqR1tzz_j7xxZsBs1__2UgyWnNGj_5Z8O37uttDV6qHi_s7yls7tFuqIeRD06s3Sy5Eo_um5nAtXVNs_lNGy4TwfGHTUkXEzrhhPkdz4Tidy-7y0gRjDv8GXN7lwnde3FzqJuFV4vj7q3vdg5NQoOxojcPNlGDs1zt63fWeZ2vW_DLpDyy-EWvpKbWlnyQGvWywZ2jcP-220wWZNajqfL-yolaRbTi4ePyyyFS9hTXG6MtM2LyctpVDMgBWgtdpL_I4yO10S6XO_Gd_iguAEQFgxYS1HBcXws_OHZFJrdNXHTHtQqnLDx8eYcKumC9Jf2dKV79CTm5-YCX0mbRXUnXK1GYIRZ0AjODZH5YqfHNLPTXr6S78V6a2w47yknk8gb4KLhHGuhaOWI0lKckr1eH8vJRBWOVXp78Oh3KapH4XGJ1m0bE0mRULZ5AYk-P5DsDhNgfdMoojBleGrNChTlWOx9HGmzvXH7KiBeK-OvedhpqVKni2hRUJkfkbQ5I2539qGYYKU_0DLs14L7l3i2gBcbCZ21_eLkO5SxcwwTlxRsClMTnVzI4tnrakV_Sb587n9dXnFrpHqGfsiNxHNdrPUgF5Vm9mmruE8yzvoLv_r4DwZaZ4sWC_VwpWjMNWBMloOmiOlG51i0vaOHwcrDBBjAwfX82BO8rcWNqXq54HUGDJAEZIxuAwj9ef2sscYUtMf0YojM2NRcoRENtNdYBqe1x_m89yZ6bcCp4r56gxJ2vavvgiAocUQSr2evaNyzDGN_DDwJhfT2o50Kf9ulGst1qrFTPZWslyZEdWeEJHlVBi1-08MOoziyks1MtdIieNEsWKCGTC0r9WWs908sc45d6qbKYRL46ZAmJB5ZyxFYB9p0r_wjhnstxRZWWeP-GbPfcgyUyEa2Mvpko4TMW4qSqeIFu1eldhZ0VOpZ3p4UHTRaMzYR8hCERRDEz-taznPhPnMeOCVENVEpTvzt-2HuAtR383cmr7cJUTK6PQI9jlj6g9tz_L9GyMvQmQPnZDYrdfwpxA5eiVckDDXA7cpyQHe4nxSMscGEgkCpRypv0xEyTrli_AkouIl7jOibdflbytbMtksOFQ69SB8XdMzZCe4zcvHKF8RLzYvmC-oY6g2TzXxYuORLxDLrxUmjqBHAThA3NhY-l6vFJMNRAkOxaXytTDYLpPcxPeOFe4OHR4SpDodgsBPlfNCsMHRL1b5R-Vr64w05wNz0um5liyHtN03s82S9T9Ggxfvkz8Ndzkkf2LRwO1tbmGrcBugXPBfg-m419UBvuW_mZME-UcW_7kooJ9eLOLSIgiTz_mC0?></g></svg>