<?xml version="1.0" encoding="UTF-8" standalone="no"?>
<!DOCTYPE svg PUBLIC "-//W3C//DTD SVG 1.1//EN"
 "http://www.w3.org/Graphics/SVG/1.1/DTD/svg11.dtd">
<!-- Generated by graphviz version 15.1.0 (20260618.0150)
 -->
<!-- Title: 教师活动图 Pages: 1 -->
<svg width="713pt" height="1262pt"
 viewBox="0.00 0.00 713.00 1262.00" xmlns="http://www.w3.org/2000/svg" xmlns:xlink="http://www.w3.org/1999/xlink">
<g id="graph0" class="graph" transform="scale(1.66667 1.66667) rotate(0) translate(4 753.26)">
<title>教师活动图</title>
<polygon fill="white" stroke="none" points="-4,4 -4,-753.26 424,-753.26 424,4 -4,4"/>
<g id="clust1" class="cluster">
<title>cluster_teacher</title>
<polygon fill="none" stroke="gray" stroke-dasharray="5,2" points="96.25,-8 96.25,-741.26 386.25,-741.26 386.25,-8 96.25,-8"/>
</g>
<!-- start -->
<g id="node1" class="node">
<title>start</title>
<ellipse fill="black" stroke="black" cx="267.25" cy="-722.46" rx="10.8" ry="10.8"/>
</g>
<!-- a1 -->
<g id="node2" class="node">
<title>a1</title>
<path fill="white" stroke="black" d="M282.25,-693.66C282.25,-693.66 252.25,-693.66 252.25,-693.66 246.25,-693.66 240.25,-687.66 240.25,-681.66 240.25,-681.66 240.25,-669.66 240.25,-669.66 240.25,-663.66 246.25,-657.66 252.25,-657.66 252.25,-657.66 282.25,-657.66 282.25,-657.66 288.25,-657.66 294.25,-663.66 294.25,-669.66 294.25,-669.66 294.25,-681.66 294.25,-681.66 294.25,-687.66 288.25,-693.66 282.25,-693.66"/>
<text xml:space="preserve" text-anchor="middle" x="267.25" y="-674.06" font-family="PingFang SC,Microsoft YaHei,sans-serif" font-size="8.00">a1</text>
<text xml:space="preserve" text-anchor="middle" x="223.75" y="-698.06" font-family="PingFang SC,Microsoft YaHei,sans-serif" font-size="8.00">登录系统</text>
</g>
<!-- start&#45;&gt;a1 -->
<g id="edge1" class="edge">
<title>start&#45;&gt;a1</title>
<path fill="none" stroke="black" d="M267.25,-711.61C267.25,-711.61 267.25,-705.67 267.25,-705.67"/>
<polygon fill="black" stroke="black" points="270.75,-705.67 267.25,-695.67 263.75,-705.67 270.75,-705.67"/>
</g>
<!-- a2 -->
<g id="node3" class="node">
<title>a2</title>
<path fill="white" stroke="black" d="M282.25,-639.66C282.25,-639.66 252.25,-639.66 252.25,-639.66 246.25,-639.66 240.25,-633.66 240.25,-627.66 240.25,-627.66 240.25,-615.66 240.25,-615.66 240.25,-609.66 246.25,-603.66 252.25,-603.66 252.25,-603.66 282.25,-603.66 282.25,-603.66 288.25,-603.66 294.25,-609.66 294.25,-615.66 294.25,-615.66 294.25,-627.66 294.25,-627.66 294.25,-633.66 288.25,-639.66 282.25,-639.66"/>
<text xml:space="preserve" text-anchor="middle" x="267.25" y="-620.06" font-family="PingFang SC,Microsoft YaHei,sans-serif" font-size="8.00">a2</text>
<text xml:space="preserve" text-anchor="middle" x="211.38" y="-644.06" font-family="PingFang SC,Microsoft YaHei,sans-serif" font-size="8.00">进入工作台看板</text>
</g>
<!-- a1&#45;&gt;a2 -->
<g id="edge2" class="edge">
<title>a1&#45;&gt;a2</title>
<path fill="none" stroke="black" d="M267.25,-657.38C267.25,-657.38 267.25,-651.44 267.25,-651.44"/>
<polygon fill="black" stroke="black" points="270.75,-651.44 267.25,-641.44 263.75,-651.44 270.75,-651.44"/>
</g>
<!-- d1 -->
<g id="node27" class="node">
<title>d1</title>
<polygon fill="white" stroke="black" points="267.25,-585.66 240.25,-567.66 267.25,-549.66 294.25,-567.66 267.25,-585.66"/>
<text xml:space="preserve" text-anchor="middle" x="267.25" y="-566.16" font-family="PingFang SC,Microsoft YaHei,sans-serif" font-size="7.50">d1</text>
<text xml:space="preserve" text-anchor="middle" x="230.88" y="-601.04" font-family="PingFang SC,Microsoft YaHei,sans-serif" font-size="7.50">操作</text>
<text xml:space="preserve" text-anchor="middle" x="230.88" y="-589.79" font-family="PingFang SC,Microsoft YaHei,sans-serif" font-size="7.50">类型?</text>
</g>
<!-- a2&#45;&gt;d1 -->
<g id="edge3" class="edge">
<title>a2&#45;&gt;d1</title>
<path fill="none" stroke="black" d="M267.25,-603.38C267.25,-603.38 267.25,-597.44 267.25,-597.44"/>
<polygon fill="black" stroke="black" points="270.75,-597.44 267.25,-587.44 263.75,-597.44 270.75,-597.44"/>
</g>
<!-- a3 -->
<g id="node4" class="node">
<title>a3</title>
<path fill="white" stroke="black" d="M146.25,-531.66C146.25,-531.66 116.25,-531.66 116.25,-531.66 110.25,-531.66 104.25,-525.66 104.25,-519.66 104.25,-519.66 104.25,-507.66 104.25,-507.66 104.25,-501.66 110.25,-495.66 116.25,-495.66 116.25,-495.66 146.25,-495.66 146.25,-495.66 152.25,-495.66 158.25,-501.66 158.25,-507.66 158.25,-507.66 158.25,-519.66 158.25,-519.66 158.25,-525.66 152.25,-531.66 146.25,-531.66"/>
<text xml:space="preserve" text-anchor="middle" x="131.25" y="-512.06" font-family="PingFang SC,Microsoft YaHei,sans-serif" font-size="8.00">a3</text>
<text xml:space="preserve" text-anchor="middle" x="77.62" y="-548.06" font-family="PingFang SC,Microsoft YaHei,sans-serif" font-size="8.00">创建/编辑课程</text>
<text xml:space="preserve" text-anchor="middle" x="77.62" y="-536.06" font-family="PingFang SC,Microsoft YaHei,sans-serif" font-size="8.00">(course)</text>
</g>
<!-- a4 -->
<g id="node5" class="node">
<title>a4</title>
<path fill="white" stroke="black" d="M146.25,-477.66C146.25,-477.66 116.25,-477.66 116.25,-477.66 110.25,-477.66 104.25,-471.66 104.25,-465.66 104.25,-465.66 104.25,-453.66 104.25,-453.66 104.25,-447.66 110.25,-441.66 116.25,-441.66 116.25,-441.66 146.25,-441.66 146.25,-441.66 152.25,-441.66 158.25,-447.66 158.25,-453.66 158.25,-453.66 158.25,-465.66 158.25,-465.66 158.25,-471.66 152.25,-477.66 146.25,-477.66"/>
<text xml:space="preserve" text-anchor="middle" x="131.25" y="-458.06" font-family="PingFang SC,Microsoft YaHei,sans-serif" font-size="8.00">a4</text>
<text xml:space="preserve" text-anchor="middle" x="70.5" y="-494.06" font-family="PingFang SC,Microsoft YaHei,sans-serif" font-size="8.00">管理知识点</text>
<text xml:space="preserve" text-anchor="middle" x="70.5" y="-482.06" font-family="PingFang SC,Microsoft YaHei,sans-serif" font-size="8.00">(knowledge_node)</text>
</g>
<!-- a3&#45;&gt;a4 -->
<g id="edge5" class="edge">
<title>a3&#45;&gt;a4</title>
<path fill="none" stroke="black" d="M131.25,-495.38C131.25,-495.38 131.25,-489.44 131.25,-489.44"/>
<polygon fill="black" stroke="black" points="134.75,-489.44 131.25,-479.44 127.75,-489.44 134.75,-489.44"/>
</g>
<!-- a5 -->
<g id="node6" class="node">
<title>a5</title>
<path fill="white" stroke="black" d="M146.25,-423.66C146.25,-423.66 116.25,-423.66 116.25,-423.66 110.25,-423.66 104.25,-417.66 104.25,-411.66 104.25,-411.66 104.25,-399.66 104.25,-399.66 104.25,-393.66 110.25,-387.66 116.25,-387.66 116.25,-387.66 146.25,-387.66 146.25,-387.66 152.25,-387.66 158.25,-393.66 158.25,-399.66 158.25,-399.66 158.25,-411.66 158.25,-411.66 158.25,-417.66 152.25,-423.66 146.25,-423.66"/>
<text xml:space="preserve" text-anchor="middle" x="131.25" y="-404.06" font-family="PingFang SC,Microsoft YaHei,sans-serif" font-size="8.00">a5</text>
<text xml:space="preserve" text-anchor="middle" x="52.12" y="-440.06" font-family="PingFang SC,Microsoft YaHei,sans-serif" font-size="8.00">配置知识点属性</text>
<text xml:space="preserve" text-anchor="middle" x="52.12" y="-428.06" font-family="PingFang SC,Microsoft YaHei,sans-serif" font-size="8.00">(name, difficulty, chapter...)</text>
</g>
<!-- a4&#45;&gt;a5 -->
<g id="edge6" class="edge">
<title>a4&#45;&gt;a5</title>
<path fill="none" stroke="black" d="M131.25,-441.38C131.25,-441.38 131.25,-435.44 131.25,-435.44"/>
<polygon fill="black" stroke="black" points="134.75,-435.44 131.25,-425.44 127.75,-435.44 134.75,-435.44"/>
</g>
<!-- a6 -->
<g id="node7" class="node">
<title>a6</title>
<path fill="white" stroke="black" d="M146.25,-369.66C146.25,-369.66 116.25,-369.66 116.25,-369.66 110.25,-369.66 104.25,-363.66 104.25,-357.66 104.25,-357.66 104.25,-345.66 104.25,-345.66 104.25,-339.66 110.25,-333.66 116.25,-333.66 116.25,-333.66 146.25,-333.66 146.25,-333.66 152.25,-333.66 158.25,-339.66 158.25,-345.66 158.25,-345.66 158.25,-357.66 158.25,-357.66 158.25,-363.66 152.25,-369.66 146.25,-369.66"/>
<text xml:space="preserve" text-anchor="middle" x="131.25" y="-350.06" font-family="PingFang SC,Microsoft YaHei,sans-serif" font-size="8.00">a6</text>
<text xml:space="preserve" text-anchor="middle" x="70.5" y="-386.06" font-family="PingFang SC,Microsoft YaHei,sans-serif" font-size="8.00">设定前置依赖关系</text>
<text xml:space="preserve" text-anchor="middle" x="70.5" y="-374.06" font-family="PingFang SC,Microsoft YaHei,sans-serif" font-size="8.00">(knowledge_edge)</text>
</g>
<!-- a5&#45;&gt;a6 -->
<g id="edge7" class="edge">
<title>a5&#45;&gt;a6</title>
<path fill="none" stroke="black" d="M131.25,-387.38C131.25,-387.38 131.25,-381.44 131.25,-381.44"/>
<polygon fill="black" stroke="black" points="134.75,-381.44 131.25,-371.44 127.75,-381.44 134.75,-381.44"/>
</g>
<!-- a7 -->
<g id="node8" class="node">
<title>a7</title>
<path fill="white" stroke="black" d="M146.25,-315.66C146.25,-315.66 116.25,-315.66 116.25,-315.66 110.25,-315.66 104.25,-309.66 104.25,-303.66 104.25,-303.66 104.25,-291.66 104.25,-291.66 104.25,-285.66 110.25,-279.66 116.25,-279.66 116.25,-279.66 146.25,-279.66 146.25,-279.66 152.25,-279.66 158.25,-285.66 158.25,-291.66 158.25,-291.66 158.25,-303.66 158.25,-303.66 158.25,-309.66 152.25,-315.66 146.25,-315.66"/>
<text xml:space="preserve" text-anchor="middle" x="131.25" y="-296.06" font-family="PingFang SC,Microsoft YaHei,sans-serif" font-size="8.00">a7</text>
<text xml:space="preserve" text-anchor="middle" x="68.25" y="-332.06" font-family="PingFang SC,Microsoft YaHei,sans-serif" font-size="8.00">管理学习资源</text>
<text xml:space="preserve" text-anchor="middle" x="68.25" y="-320.06" font-family="PingFang SC,Microsoft YaHei,sans-serif" font-size="8.00">(learning_resource)</text>
</g>
<!-- a6&#45;&gt;a7 -->
<g id="edge8" class="edge">
<title>a6&#45;&gt;a7</title>
<path fill="none" stroke="black" d="M131.25,-333.38C131.25,-333.38 131.25,-327.44 131.25,-327.44"/>
<polygon fill="black" stroke="black" points="134.75,-327.44 131.25,-317.44 127.75,-327.44 134.75,-327.44"/>
</g>
<!-- a8 -->
<g id="node9" class="node">
<title>a8</title>
<path fill="white" stroke="black" d="M153.25,-261.66C153.25,-261.66 123.25,-261.66 123.25,-261.66 117.25,-261.66 111.25,-255.66 111.25,-249.66 111.25,-249.66 111.25,-237.66 111.25,-237.66 111.25,-231.66 117.25,-225.66 123.25,-225.66 123.25,-225.66 153.25,-225.66 153.25,-225.66 159.25,-225.66 165.25,-231.66 165.25,-237.66 165.25,-237.66 165.25,-249.66 165.25,-249.66 165.25,-255.66 159.25,-261.66 153.25,-261.66"/>
<text xml:space="preserve" text-anchor="middle" x="138.25" y="-242.06" font-family="PingFang SC,Microsoft YaHei,sans-serif" font-size="8.00">a8</text>
<text xml:space="preserve" text-anchor="middle" x="92.5" y="-242.06" font-family="PingFang SC,Microsoft YaHei,sans-serif" font-size="8.00">管理题库</text>
<text xml:space="preserve" text-anchor="middle" x="92.5" y="-230.06" font-family="PingFang SC,Microsoft YaHei,sans-serif" font-size="8.00">(question)</text>
</g>
<!-- a7&#45;&gt;a8 -->
<g id="edge9" class="edge">
<title>a7&#45;&gt;a8</title>
<path fill="none" stroke="black" d="M134.75,-279.38C134.75,-279.38 134.75,-273.44 134.75,-273.44"/>
<polygon fill="black" stroke="black" points="138.25,-273.44 134.75,-263.44 131.25,-273.44 138.25,-273.44"/>
</g>
<!-- a9 -->
<g id="node10" class="node">
<title>a9</title>
<path fill="white" stroke="black" d="M166.25,-207.66C166.25,-207.66 136.25,-207.66 136.25,-207.66 130.25,-207.66 124.25,-201.66 124.25,-195.66 124.25,-195.66 124.25,-183.66 124.25,-183.66 124.25,-177.66 130.25,-171.66 136.25,-171.66 136.25,-171.66 166.25,-171.66 166.25,-171.66 172.25,-171.66 178.25,-177.66 178.25,-183.66 178.25,-183.66 178.25,-195.66 178.25,-195.66 178.25,-201.66 172.25,-207.66 166.25,-207.66"/>
<text xml:space="preserve" text-anchor="middle" x="151.25" y="-188.06" font-family="PingFang SC,Microsoft YaHei,sans-serif" font-size="8.00">a9</text>
<text xml:space="preserve" text-anchor="middle" x="95.38" y="-212.06" font-family="PingFang SC,Microsoft YaHei,sans-serif" font-size="8.00">题目关联知识点</text>
</g>
<!-- a8&#45;&gt;a9 -->
<g id="edge10" class="edge">
<title>a8&#45;&gt;a9</title>
<path fill="none" stroke="black" d="M144.75,-225.38C144.75,-225.38 144.75,-219.44 144.75,-219.44"/>
<polygon fill="black" stroke="black" points="148.25,-219.44 144.75,-209.44 141.25,-219.44 148.25,-219.44"/>
</g>
<!-- a24 -->
<g id="node25" class="node">
<title>a24</title>
<path fill="white" stroke="black" d="M256.25,-153.66C256.25,-153.66 226.25,-153.66 226.25,-153.66 220.25,-153.66 214.25,-147.66 214.25,-141.66 214.25,-141.66 214.25,-129.66 214.25,-129.66 214.25,-123.66 220.25,-117.66 226.25,-117.66 226.25,-117.66 256.25,-117.66 256.25,-117.66 262.25,-117.66 268.25,-123.66 268.25,-129.66 268.25,-129.66 268.25,-141.66 268.25,-141.66 268.25,-147.66 262.25,-153.66 256.25,-153.66"/>
<text xml:space="preserve" text-anchor="middle" x="241.25" y="-134.06" font-family="PingFang SC,Microsoft YaHei,sans-serif" font-size="8.00">a24</text>
<text xml:space="preserve" text-anchor="middle" x="189.5" y="-158.06" font-family="PingFang SC,Microsoft YaHei,sans-serif" font-size="8.00">更新教学内容</text>
</g>
<!-- a9&#45;&gt;a24 -->
<g id="edge11" class="edge">
<title>a9&#45;&gt;a24</title>
<path fill="none" stroke="black" d="M151.25,-171.44C151.25,-153.89 151.25,-130 151.25,-130 151.25,-130 202.24,-130 202.24,-130"/>
<polygon fill="black" stroke="black" points="202.24,-133.5 212.24,-130 202.24,-126.5 202.24,-133.5"/>
</g>
<!-- a10 -->
<g id="node11" class="node">
<title>a10</title>
<path fill="white" stroke="black" d="M214.25,-531.66C214.25,-531.66 184.25,-531.66 184.25,-531.66 178.25,-531.66 172.25,-525.66 172.25,-519.66 172.25,-519.66 172.25,-507.66 172.25,-507.66 172.25,-501.66 178.25,-495.66 184.25,-495.66 184.25,-495.66 214.25,-495.66 214.25,-495.66 220.25,-495.66 226.25,-501.66 226.25,-507.66 226.25,-507.66 226.25,-519.66 226.25,-519.66 226.25,-525.66 220.25,-531.66 214.25,-531.66"/>
<text xml:space="preserve" text-anchor="middle" x="199.25" y="-512.06" font-family="PingFang SC,Microsoft YaHei,sans-serif" font-size="8.00">a10</text>
<text xml:space="preserve" text-anchor="middle" x="155.75" y="-548.06" font-family="PingFang SC,Microsoft YaHei,sans-serif" font-size="8.00">创建测评</text>
<text xml:space="preserve" text-anchor="middle" x="155.75" y="-536.06" font-family="PingFang SC,Microsoft YaHei,sans-serif" font-size="8.00">(exam)</text>
</g>
<!-- a11 -->
<g id="node12" class="node">
<title>a11</title>
<path fill="white" stroke="black" d="M214.25,-477.66C214.25,-477.66 184.25,-477.66 184.25,-477.66 178.25,-477.66 172.25,-471.66 172.25,-465.66 172.25,-465.66 172.25,-453.66 172.25,-453.66 172.25,-447.66 178.25,-441.66 184.25,-441.66 184.25,-441.66 214.25,-441.66 214.25,-441.66 220.25,-441.66 226.25,-447.66 226.25,-453.66 226.25,-453.66 226.25,-465.66 226.25,-465.66 226.25,-471.66 220.25,-477.66 214.25,-477.66"/>
<text xml:space="preserve" text-anchor="middle" x="199.25" y="-458.06" font-family="PingFang SC,Microsoft YaHei,sans-serif" font-size="8.00">a11</text>
<text xml:space="preserve" text-anchor="middle" x="256.62" y="-434.06" font-family="PingFang SC,Microsoft YaHei,sans-serif" font-size="8.00">从题库选题</text>
<text xml:space="preserve" text-anchor="middle" x="256.62" y="-422.06" font-family="PingFang SC,Microsoft YaHei,sans-serif" font-size="8.00">(exam_question)</text>
</g>
<!-- a10&#45;&gt;a11 -->
<g id="edge13" class="edge">
<title>a10&#45;&gt;a11</title>
<path fill="none" stroke="black" d="M199.25,-495.38C199.25,-495.38 199.25,-489.44 199.25,-489.44"/>
<polygon fill="black" stroke="black" points="202.75,-489.44 199.25,-479.44 195.75,-489.44 202.75,-489.44"/>
</g>
<!-- a12 -->
<g id="node13" class="node">
<title>a12</title>
<path fill="white" stroke="black" d="M214.25,-423.66C214.25,-423.66 184.25,-423.66 184.25,-423.66 178.25,-423.66 172.25,-417.66 172.25,-411.66 172.25,-411.66 172.25,-399.66 172.25,-399.66 172.25,-393.66 178.25,-387.66 184.25,-387.66 184.25,-387.66 214.25,-387.66 214.25,-387.66 220.25,-387.66 226.25,-393.66 226.25,-399.66 226.25,-399.66 226.25,-411.66 226.25,-411.66 226.25,-417.66 220.25,-423.66 214.25,-423.66"/>
<text xml:space="preserve" text-anchor="middle" x="199.25" y="-404.06" font-family="PingFang SC,Microsoft YaHei,sans-serif" font-size="8.00">a12</text>
<text xml:space="preserve" text-anchor="middle" x="155.75" y="-428.06" font-family="PingFang SC,Microsoft YaHei,sans-serif" font-size="8.00">发布测评</text>
</g>
<!-- a11&#45;&gt;a12 -->
<g id="edge14" class="edge">
<title>a11&#45;&gt;a12</title>
<path fill="none" stroke="black" d="M199.25,-441.38C199.25,-441.38 199.25,-435.44 199.25,-435.44"/>
<polygon fill="black" stroke="black" points="202.75,-435.44 199.25,-425.44 195.75,-435.44 202.75,-435.44"/>
</g>
<!-- a13 -->
<g id="node14" class="node">
<title>a13</title>
<path fill="white" stroke="black" d="M214.25,-369.66C214.25,-369.66 184.25,-369.66 184.25,-369.66 178.25,-369.66 172.25,-363.66 172.25,-357.66 172.25,-357.66 172.25,-345.66 172.25,-345.66 172.25,-339.66 178.25,-333.66 184.25,-333.66 184.25,-333.66 214.25,-333.66 214.25,-333.66 220.25,-333.66 226.25,-339.66 226.25,-345.66 226.25,-345.66 226.25,-357.66 226.25,-357.66 226.25,-363.66 220.25,-369.66 214.25,-369.66"/>
<text xml:space="preserve" text-anchor="middle" x="199.25" y="-350.06" font-family="PingFang SC,Microsoft YaHei,sans-serif" font-size="8.00">a13</text>
<text xml:space="preserve" text-anchor="middle" x="252.88" y="-386.06" font-family="PingFang SC,Microsoft YaHei,sans-serif" font-size="8.00">查看学生成绩</text>
<text xml:space="preserve" text-anchor="middle" x="252.88" y="-374.06" font-family="PingFang SC,Microsoft YaHei,sans-serif" font-size="8.00">(exam_record)</text>
</g>
<!-- a12&#45;&gt;a13 -->
<g id="edge15" class="edge">
<title>a12&#45;&gt;a13</title>
<path fill="none" stroke="black" d="M199.25,-387.38C199.25,-387.38 199.25,-381.44 199.25,-381.44"/>
<polygon fill="black" stroke="black" points="202.75,-381.44 199.25,-371.44 195.75,-381.44 202.75,-381.44"/>
</g>
<!-- a14 -->
<g id="node15" class="node">
<title>a14</title>
<path fill="white" stroke="black" d="M214.25,-315.66C214.25,-315.66 184.25,-315.66 184.25,-315.66 178.25,-315.66 172.25,-309.66 172.25,-303.66 172.25,-303.66 172.25,-291.66 172.25,-291.66 172.25,-285.66 178.25,-279.66 184.25,-279.66 184.25,-279.66 214.25,-279.66 214.25,-279.66 220.25,-279.66 226.25,-285.66 226.25,-291.66 226.25,-291.66 226.25,-303.66 226.25,-303.66 226.25,-309.66 220.25,-315.66 214.25,-315.66"/>
<text xml:space="preserve" text-anchor="middle" x="199.25" y="-296.06" font-family="PingFang SC,Microsoft YaHei,sans-serif" font-size="8.00">a14</text>
<text xml:space="preserve" text-anchor="middle" x="143.75" y="-320.06" font-family="PingFang SC,Microsoft YaHei,sans-serif" font-size="8.00">查看AI诊断报告</text>
</g>
<!-- a13&#45;&gt;a14 -->
<g id="edge16" class="edge">
<title>a13&#45;&gt;a14</title>
<path fill="none" stroke="black" d="M199.25,-333.38C199.25,-333.38 199.25,-327.44 199.25,-327.44"/>
<polygon fill="black" stroke="black" points="202.75,-327.44 199.25,-317.44 195.75,-327.44 202.75,-327.44"/>
</g>
<!-- a14&#45;&gt;a24 -->
<g id="edge17" class="edge">
<title>a14&#45;&gt;a24</title>
<path fill="none" stroke="black" d="M206.83,-279.19C206.83,-237.96 206.83,-142 206.83,-142 206.83,-142 207.53,-142 207.53,-142"/>
<polygon fill="black" stroke="black" points="202.29,-145.5 212.29,-142 202.29,-138.5 202.29,-145.5"/>
</g>
<!-- a15 -->
<g id="node16" class="node">
<title>a15</title>
<path fill="white" stroke="black" d="M282.25,-531.66C282.25,-531.66 252.25,-531.66 252.25,-531.66 246.25,-531.66 240.25,-525.66 240.25,-519.66 240.25,-519.66 240.25,-507.66 240.25,-507.66 240.25,-501.66 246.25,-495.66 252.25,-495.66 252.25,-495.66 282.25,-495.66 282.25,-495.66 288.25,-495.66 294.25,-501.66 294.25,-507.66 294.25,-507.66 294.25,-519.66 294.25,-519.66 294.25,-525.66 288.25,-531.66 282.25,-531.66"/>
<text xml:space="preserve" text-anchor="middle" x="267.25" y="-512.06" font-family="PingFang SC,Microsoft YaHei,sans-serif" font-size="8.00">a15</text>
<text xml:space="preserve" text-anchor="middle" x="335.88" y="-548.06" font-family="PingFang SC,Microsoft YaHei,sans-serif" font-size="8.00">创建跨学科主题</text>
<text xml:space="preserve" text-anchor="middle" x="335.88" y="-536.06" font-family="PingFang SC,Microsoft YaHei,sans-serif" font-size="8.00">(cross_subject_theme)</text>
</g>
<!-- a16 -->
<g id="node17" class="node">
<title>a16</title>
<path fill="white" stroke="black" d="M282.25,-477.66C282.25,-477.66 252.25,-477.66 252.25,-477.66 246.25,-477.66 240.25,-471.66 240.25,-465.66 240.25,-465.66 240.25,-453.66 240.25,-453.66 240.25,-447.66 246.25,-441.66 252.25,-441.66 252.25,-441.66 282.25,-441.66 282.25,-441.66 288.25,-441.66 294.25,-447.66 294.25,-453.66 294.25,-453.66 294.25,-465.66 294.25,-465.66 294.25,-471.66 288.25,-477.66 282.25,-477.66"/>
<text xml:space="preserve" text-anchor="middle" x="267.25" y="-458.06" font-family="PingFang SC,Microsoft YaHei,sans-serif" font-size="8.00">a16</text>
<text xml:space="preserve" text-anchor="middle" x="203.12" y="-494.06" font-family="PingFang SC,Microsoft YaHei,sans-serif" font-size="8.00">关联多学科知识点</text>
<text xml:space="preserve" text-anchor="middle" x="203.12" y="-482.06" font-family="PingFang SC,Microsoft YaHei,sans-serif" font-size="8.00">(cross_theme_node)</text>
</g>
<!-- a15&#45;&gt;a16 -->
<g id="edge19" class="edge">
<title>a15&#45;&gt;a16</title>
<path fill="none" stroke="black" d="M267.25,-495.38C267.25,-495.38 267.25,-489.44 267.25,-489.44"/>
<polygon fill="black" stroke="black" points="270.75,-489.44 267.25,-479.44 263.75,-489.44 270.75,-489.44"/>
</g>
<!-- a17 -->
<g id="node18" class="node">
<title>a17</title>
<path fill="white" stroke="black" d="M256.25,-207.66C256.25,-207.66 226.25,-207.66 226.25,-207.66 220.25,-207.66 214.25,-201.66 214.25,-195.66 214.25,-195.66 214.25,-183.66 214.25,-183.66 214.25,-177.66 220.25,-171.66 226.25,-171.66 226.25,-171.66 256.25,-171.66 256.25,-171.66 262.25,-171.66 268.25,-177.66 268.25,-183.66 268.25,-183.66 268.25,-195.66 268.25,-195.66 268.25,-201.66 262.25,-207.66 256.25,-207.66"/>
<text xml:space="preserve" text-anchor="middle" x="241.25" y="-188.06" font-family="PingFang SC,Microsoft YaHei,sans-serif" font-size="8.00">a17</text>
<text xml:space="preserve" text-anchor="middle" x="189.5" y="-212.06" font-family="PingFang SC,Microsoft YaHei,sans-serif" font-size="8.00">发布到学生端</text>
</g>
<!-- a16&#45;&gt;a17 -->
<g id="edge20" class="edge">
<title>a16&#45;&gt;a17</title>
<path fill="none" stroke="black" d="M248.25,-441.53C248.25,-441.53 248.25,-219.59 248.25,-219.59"/>
<polygon fill="black" stroke="black" points="251.75,-219.59 248.25,-209.59 244.75,-219.59 251.75,-219.59"/>
</g>
<!-- a17&#45;&gt;a24 -->
<g id="edge21" class="edge">
<title>a17&#45;&gt;a24</title>
<path fill="none" stroke="black" d="M241.25,-171.38C241.25,-171.38 241.25,-165.44 241.25,-165.44"/>
<polygon fill="black" stroke="black" points="244.75,-165.44 241.25,-155.44 237.75,-165.44 244.75,-165.44"/>
</g>
<!-- a18 -->
<g id="node19" class="node">
<title>a18</title>
<path fill="white" stroke="black" d="M350.25,-531.66C350.25,-531.66 320.25,-531.66 320.25,-531.66 314.25,-531.66 308.25,-525.66 308.25,-519.66 308.25,-519.66 308.25,-507.66 308.25,-507.66 308.25,-501.66 314.25,-495.66 320.25,-495.66 320.25,-495.66 350.25,-495.66 350.25,-495.66 356.25,-495.66 362.25,-501.66 362.25,-507.66 362.25,-507.66 362.25,-519.66 362.25,-519.66 362.25,-525.66 356.25,-531.66 350.25,-531.66"/>
<text xml:space="preserve" text-anchor="middle" x="335.25" y="-512.06" font-family="PingFang SC,Microsoft YaHei,sans-serif" font-size="8.00">a18</text>
<text xml:space="preserve" text-anchor="middle" x="281.62" y="-488.06" font-family="PingFang SC,Microsoft YaHei,sans-serif" font-size="8.00">选择班级/课程</text>
</g>
<!-- a19 -->
<g id="node20" class="node">
<title>a19</title>
<path fill="white" stroke="black" d="M350.25,-477.66C350.25,-477.66 320.25,-477.66 320.25,-477.66 314.25,-477.66 308.25,-471.66 308.25,-465.66 308.25,-465.66 308.25,-453.66 308.25,-453.66 308.25,-447.66 314.25,-441.66 320.25,-441.66 320.25,-441.66 350.25,-441.66 350.25,-441.66 356.25,-441.66 362.25,-447.66 362.25,-453.66 362.25,-453.66 362.25,-465.66 362.25,-465.66 362.25,-471.66 356.25,-477.66 350.25,-477.66"/>
<text xml:space="preserve" text-anchor="middle" x="335.25" y="-458.06" font-family="PingFang SC,Microsoft YaHei,sans-serif" font-size="8.00">a19</text>
<text xml:space="preserve" text-anchor="middle" x="391.12" y="-494.06" font-family="PingFang SC,Microsoft YaHei,sans-serif" font-size="8.00">查看整体掌握度</text>
<text xml:space="preserve" text-anchor="middle" x="391.12" y="-482.06" font-family="PingFang SC,Microsoft YaHei,sans-serif" font-size="8.00">(study_record)</text>
</g>
<!-- a18&#45;&gt;a19 -->
<g id="edge23" class="edge">
<title>a18&#45;&gt;a19</title>
<path fill="none" stroke="black" d="M335.25,-495.38C335.25,-495.38 335.25,-489.44 335.25,-489.44"/>
<polygon fill="black" stroke="black" points="338.75,-489.44 335.25,-479.44 331.75,-489.44 338.75,-489.44"/>
</g>
<!-- a20 -->
<g id="node21" class="node">
<title>a20</title>
<path fill="white" stroke="black" d="M350.25,-423.66C350.25,-423.66 320.25,-423.66 320.25,-423.66 314.25,-423.66 308.25,-417.66 308.25,-411.66 308.25,-411.66 308.25,-399.66 308.25,-399.66 308.25,-393.66 314.25,-387.66 320.25,-387.66 320.25,-387.66 350.25,-387.66 350.25,-387.66 356.25,-387.66 362.25,-393.66 362.25,-399.66 362.25,-399.66 362.25,-411.66 362.25,-411.66 362.25,-417.66 356.25,-423.66 350.25,-423.66"/>
<text xml:space="preserve" text-anchor="middle" x="335.25" y="-404.06" font-family="PingFang SC,Microsoft YaHei,sans-serif" font-size="8.00">a20</text>
<text xml:space="preserve" text-anchor="middle" x="341.25" y="-428.06" font-family="PingFang SC,Microsoft YaHei,sans-serif" font-size="8.00">查看学生个体详情</text>
</g>
<!-- a19&#45;&gt;a20 -->
<g id="edge24" class="edge">
<title>a19&#45;&gt;a20</title>
<path fill="none" stroke="black" d="M335.25,-441.38C335.25,-441.38 335.25,-435.44 335.25,-435.44"/>
<polygon fill="black" stroke="black" points="338.75,-435.44 335.25,-425.44 331.75,-435.44 338.75,-435.44"/>
</g>
<!-- a21 -->
<g id="node22" class="node">
<title>a21</title>
<path fill="white" stroke="black" d="M350.25,-369.66C350.25,-369.66 320.25,-369.66 320.25,-369.66 314.25,-369.66 308.25,-363.66 308.25,-357.66 308.25,-357.66 308.25,-345.66 308.25,-345.66 308.25,-339.66 314.25,-333.66 320.25,-333.66 320.25,-333.66 350.25,-333.66 350.25,-333.66 356.25,-333.66 362.25,-339.66 362.25,-345.66 362.25,-345.66 362.25,-357.66 362.25,-357.66 362.25,-363.66 356.25,-369.66 350.25,-369.66"/>
<text xml:space="preserve" text-anchor="middle" x="335.25" y="-350.06" font-family="PingFang SC,Microsoft YaHei,sans-serif" font-size="8.00">a21</text>
<text xml:space="preserve" text-anchor="middle" x="276.38" y="-350.06" font-family="PingFang SC,Microsoft YaHei,sans-serif" font-size="8.00">查看错题统计</text>
<text xml:space="preserve" text-anchor="middle" x="276.38" y="-338.06" font-family="PingFang SC,Microsoft YaHei,sans-serif" font-size="8.00">(wrong_question)</text>
</g>
<!-- a20&#45;&gt;a21 -->
<g id="edge25" class="edge">
<title>a20&#45;&gt;a21</title>
<path fill="none" stroke="black" d="M335.25,-387.38C335.25,-387.38 335.25,-381.44 335.25,-381.44"/>
<polygon fill="black" stroke="black" points="338.75,-381.44 335.25,-371.44 331.75,-381.44 338.75,-381.44"/>
</g>
<!-- a22 -->
<g id="node23" class="node">
<title>a22</title>
<path fill="white" stroke="black" d="M298.25,-261.66C298.25,-261.66 268.25,-261.66 268.25,-261.66 262.25,-261.66 256.25,-255.66 256.25,-249.66 256.25,-249.66 256.25,-237.66 256.25,-237.66 256.25,-231.66 262.25,-225.66 268.25,-225.66 268.25,-225.66 298.25,-225.66 298.25,-225.66 304.25,-225.66 310.25,-231.66 310.25,-237.66 310.25,-237.66 310.25,-249.66 310.25,-249.66 310.25,-255.66 304.25,-261.66 298.25,-261.66"/>
<text xml:space="preserve" text-anchor="middle" x="283.25" y="-242.06" font-family="PingFang SC,Microsoft YaHei,sans-serif" font-size="8.00">a22</text>
<text xml:space="preserve" text-anchor="middle" x="231.5" y="-266.06" font-family="PingFang SC,Microsoft YaHei,sans-serif" font-size="8.00">导出学情报表</text>
</g>
<!-- a21&#45;&gt;a22 -->
<g id="edge26" class="edge">
<title>a21&#45;&gt;a22</title>
<path fill="none" stroke="black" d="M317.25,-333.4C317.25,-302.68 317.25,-244 317.25,-244 317.25,-244 316.59,-244 316.59,-244"/>
<polygon fill="black" stroke="black" points="322.21,-240.5 312.21,-244 322.21,-247.5 322.21,-240.5"/>
</g>
<!-- a22&#45;&gt;a24 -->
<g id="edge27" class="edge">
<title>a22&#45;&gt;a24</title>
<path fill="none" stroke="black" d="M275.67,-225.49C275.67,-196.24 275.67,-142 275.67,-142 275.67,-142 274.97,-142 274.97,-142"/>
<polygon fill="black" stroke="black" points="280.21,-138.5 270.21,-142 280.21,-145.5 280.21,-138.5"/>
</g>
<!-- a23 -->
<g id="node24" class="node">
<title>a23</title>
<path fill="white" stroke="black" d="M366.25,-261.66C366.25,-261.66 336.25,-261.66 336.25,-261.66 330.25,-261.66 324.25,-255.66 324.25,-249.66 324.25,-249.66 324.25,-237.66 324.25,-237.66 324.25,-231.66 330.25,-225.66 336.25,-225.66 336.25,-225.66 366.25,-225.66 366.25,-225.66 372.25,-225.66 378.25,-231.66 378.25,-237.66 378.25,-237.66 378.25,-249.66 378.25,-249.66 378.25,-255.66 372.25,-261.66 366.25,-261.66"/>
<text xml:space="preserve" text-anchor="middle" x="351.25" y="-242.06" font-family="PingFang SC,Microsoft YaHei,sans-serif" font-size="8.00">a23</text>
<text xml:space="preserve" text-anchor="middle" x="299.5" y="-278.06" font-family="PingFang SC,Microsoft YaHei,sans-serif" font-size="8.00">发布系统公告</text>
<text xml:space="preserve" text-anchor="middle" x="299.5" y="-266.06" font-family="PingFang SC,Microsoft YaHei,sans-serif" font-size="8.00">(sys_notice)</text>
</g>
<!-- a23&#45;&gt;a24 -->
<g id="edge29" class="edge">
<title>a23&#45;&gt;a24</title>
<path fill="none" stroke="black" d="M351.25,-225.4C351.25,-193.27 351.25,-130 351.25,-130 351.25,-130 280.24,-130 280.24,-130"/>
<polygon fill="black" stroke="black" points="280.24,-126.5 270.24,-130 280.24,-133.5 280.24,-126.5"/>
</g>
<!-- stop_node -->
<g id="node26" class="node">
<title>stop_node</title>
<ellipse fill="black" stroke="black" cx="241.25" cy="-57.83" rx="37.83" ry="37.83"/>
<ellipse fill="none" stroke="black" cx="241.25" cy="-57.83" rx="41.83" ry="41.83"/>
<text xml:space="preserve" text-anchor="middle" x="241.25" y="-56.23" font-family="PingFang SC,Microsoft YaHei,sans-serif" font-size="8.00">stop_node</text>
</g>
<!-- a24&#45;&gt;stop_node -->
<g id="edge30" class="edge">
<title>a24&#45;&gt;stop_node</title>
<path fill="none" stroke="black" d="M241.25,-117.22C241.25,-117.22 241.25,-111.61 241.25,-111.61"/>
<polygon fill="black" stroke="black" points="244.75,-111.61 241.25,-101.61 237.75,-111.61 244.75,-111.61"/>
</g>
<!-- d1&#45;&gt;a3 -->
<g id="edge4" class="edge">
<title>d1&#45;&gt;a3</title>
<path fill="none" stroke="black" d="M248.91,-574C211.79,-574 131.25,-574 131.25,-574 131.25,-574 131.25,-543.61 131.25,-543.61"/>
<polygon fill="black" stroke="black" points="134.75,-543.61 131.25,-533.61 127.75,-543.61 134.75,-543.61"/>
<text xml:space="preserve" text-anchor="middle" x="167.38" y="-578.12" font-family="PingFang SC,Microsoft YaHei,sans-serif" font-size="7.50">课程</text>
</g>
<!-- d1&#45;&gt;a10 -->
<g id="edge12" class="edge">
<title>d1&#45;&gt;a10</title>
<path fill="none" stroke="black" d="M247.95,-562C227.84,-562 199.25,-562 199.25,-562 199.25,-562 199.25,-543.45 199.25,-543.45"/>
<polygon fill="black" stroke="black" points="202.75,-543.45 199.25,-533.45 195.75,-543.45 202.75,-543.45"/>
<text xml:space="preserve" text-anchor="middle" x="206.82" y="-566.12" font-family="PingFang SC,Microsoft YaHei,sans-serif" font-size="7.50">测评</text>
</g>
<!-- d1&#45;&gt;a15 -->
<g id="edge18" class="edge">
<title>d1&#45;&gt;a15</title>
<path fill="none" stroke="black" d="M267.25,-549.08C267.25,-549.08 267.25,-543.61 267.25,-543.61"/>
<polygon fill="black" stroke="black" points="270.75,-543.61 267.25,-533.61 263.75,-543.61 270.75,-543.61"/>
<text xml:space="preserve" text-anchor="middle" x="256" y="-539.22" font-family="PingFang SC,Microsoft YaHei,sans-serif" font-size="7.50">跨学科</text>
</g>
<!-- d1&#45;&gt;a18 -->
<g id="edge22" class="edge">
<title>d1&#45;&gt;a18</title>
<path fill="none" stroke="black" d="M286.55,-562C306.66,-562 335.25,-562 335.25,-562 335.25,-562 335.25,-543.45 335.25,-543.45"/>
<polygon fill="black" stroke="black" points="338.75,-543.45 335.25,-533.45 331.75,-543.45 338.75,-543.45"/>
<text xml:space="preserve" text-anchor="middle" x="312.68" y="-566.12" font-family="PingFang SC,Microsoft YaHei,sans-serif" font-size="7.50">学情</text>
</g>
<!-- d1&#45;&gt;a23 -->
<g id="edge28" class="edge">
<title>d1&#45;&gt;a23</title>
<path fill="none" stroke="black" d="M285.19,-574C314.7,-574 370.25,-574 370.25,-574 370.25,-574 370.25,-273.41 370.25,-273.41"/>
<polygon fill="black" stroke="black" points="373.75,-273.4 370.25,-263.41 366.75,-273.41 373.75,-273.4"/>
<text xml:space="preserve" text-anchor="middle" x="377.75" y="-470.36" font-family="PingFang SC,Microsoft YaHei,sans-serif" font-size="7.50">公告</text>
</g>
</g>
</svg>
