<svg xmlns="http://www.w3.org/2000/svg" xmlns:xlink="http://www.w3.org/1999/xlink" contentStyleType="text/css" data-diagram-type="SEQUENCE" height="1789px" preserveAspectRatio="none" style="width:738px;height:1789px;background:#FEFEFE;" version="1.1" viewBox="0 0 738 1789" width="738px" zoomAndPan="magnify"><?plantuml 1.2026.6?><defs/><g><rect fill="#FEFEFE" height="1789" style="stroke:none;stroke-width:1;" width="738" x="0" y="0"/><g class="title" data-source-line="8"><text fill="#000000" font-family="sans-serif" font-size="14" font-weight="700" lengthAdjust="spacing" textLength="149.2285" x="290.9092" y="28.5352">&#23398;&#29983;&#27979;&#35780;&#27969;&#31243; &#8212; &#39034;&#24207;&#22270;</text></g><g><title>Vue ..</title><rect fill="#FFFFFF" height="1507.3496" style="stroke:#181818;stroke-width:1;" width="10" x="154.2178" y="185.3535"/></g><g><title>SpringBoot</title><rect fill="#FFFFFF" height="93.8203" style="stroke:#181818;stroke-width:1;" width="10" x="360.147" y="212.3086"/></g><g><title>SpringBoot</title><rect fill="#FFFFFF" height="225.4609" style="stroke:#181818;stroke-width:1;" width="10" x="360.147" y="465.9043"/></g><g><title>SpringBoot</title><rect fill="#FFFFFF" height="239.5059" style="stroke:#181818;stroke-width:1;" width="10" x="360.147" y="1038.916"/></g><g><title>SpringBoot</title><rect fill="#FFFFFF" height="227.5508" style="stroke:#181818;stroke-width:1;" width="10" x="360.147" y="1438.1973"/></g><g><title>MySQL</title><rect fill="#FFFFFF" height="26.9551" style="stroke:#181818;stroke-width:1;" width="10" x="611" y="252.2188"/></g><g><title>MySQL</title><rect fill="#FFFFFF" height="26.9551" style="stroke:#181818;stroke-width:1;" width="10" x="611" y="518.7695"/></g><g><title>MySQL</title><rect fill="#FFFFFF" height="26.9551" style="stroke:#181818;stroke-width:1;" width="10" x="611" y="624.5"/></g><g><title>MySQL</title><rect fill="#FFFFFF" height="26.9551" style="stroke:#181818;stroke-width:1;" width="10" x="611" y="1091.7813"/></g><g><title>MySQL</title><rect fill="#FFFFFF" height="26.9551" style="stroke:#181818;stroke-width:1;" width="10" x="611" y="1224.5117"/></g><g><title>MySQL</title><rect fill="#FFFFFF" height="26.9551" style="stroke:#181818;stroke-width:1;" width="10" x="611" y="1478.1074"/></g><g><title>MySQL</title><rect fill="#FFFFFF" height="26.9551" style="stroke:#181818;stroke-width:1;" width="10" x="611" y="1611.8379"/></g><g><title>DeepSeek AI</title><rect fill="#FFFFFF" height="26.9551" style="stroke:#181818;stroke-width:1;" width="10" x="681.9126" y="1544.9727"/></g><rect fill="none" height="81.8652" style="stroke:#000000;stroke-width:1.5;" width="227.2178" x="10" y="825.2305"/><g class="participant-lifeline" data-entity-uid="part1" data-qualified-name="S" data-source-line="10" id="part1-lifeline"><g><title>..</title><rect fill="#000000" fill-opacity="0.00000" height="1595.2598" width="8" x="30" y="115.4434"/><line style="stroke:#181818;stroke-width:0.5;stroke-dasharray:5,5;" x1="34" x2="34" y1="115.4434" y2="1710.7031"/></g></g><g class="participant-lifeline" data-entity-uid="part2" data-qualified-name="F" data-source-line="11" id="part2-lifeline"><g><title>Vue ..</title><rect fill="#000000" fill-opacity="0.00000" height="1595.2598" width="8" x="155.2178" y="115.4434"/><line style="stroke:#181818;stroke-width:0.5;stroke-dasharray:5,5;" x1="158.4041" x2="158.4041" y1="115.4434" y2="1710.7031"/></g></g><g class="participant-lifeline" data-entity-uid="part3" data-qualified-name="B" data-source-line="12" id="part3-lifeline"><g><title>SpringBoot</title><rect fill="#000000" fill-opacity="0.00000" height="1595.2598" width="8" x="361.147" y="115.4434"/><line style="stroke:#181818;stroke-width:0.5;stroke-dasharray:5,5;" x1="365.0625" x2="365.0625" y1="115.4434" y2="1710.7031"/></g></g><g class="participant-lifeline" data-entity-uid="part4" data-qualified-name="D" data-source-line="13" id="part4-lifeline"><g><title>MySQL</title><rect fill="#000000" fill-opacity="0.00000" height="1595.2598" width="8" x="612" y="115.4434"/><line style="stroke:#181818;stroke-width:0.5;stroke-dasharray:5,5;" x1="615.2217" x2="615.2217" y1="115.4434" y2="1710.7031"/></g></g><g class="participant-lifeline" data-entity-uid="part5" data-qualified-name="AI" data-source-line="14" id="part5-lifeline"><g><title>DeepSeek AI</title><rect fill="#000000" fill-opacity="0.00000" height="1595.2598" width="8" x="682.9126" y="115.4434"/><line style="stroke:#181818;stroke-width:0.5;stroke-dasharray:5,5;" x1="686.7783" x2="686.7783" y1="115.4434" y2="1710.7031"/></g></g><g class="participant participant-head" data-entity-uid="part1" data-qualified-name="S" data-source-line="10" id="part1-head"><text fill="#000000" font-family="sans-serif" font-size="11" lengthAdjust="spacing" textLength="22" x="20" y="113.123">&#23398;&#29983;</text><ellipse cx="34" cy="50.9883" fill="#E2E2F0" rx="8" ry="8" style="stroke:#181818;stroke-width:0.5;"/><path d="M34,58.9883 L34,85.9883 M21,66.9883 L47,66.9883 M34,85.9883 L21,100.9883 M34,85.9883 L47,100.9883" fill="none" style="stroke:#181818;stroke-width:0.5;"/></g><g class="participant participant-tail" data-entity-uid="part1" data-qualified-name="S" data-source-line="10" id="part1-tail"><text fill="#000000" font-family="sans-serif" font-size="11" lengthAdjust="spacing" textLength="22" x="20" y="1720.3379">&#23398;&#29983;</text><ellipse cx="34" cy="1731.1582" fill="#E2E2F0" rx="8" ry="8" style="stroke:#181818;stroke-width:0.5;"/><path d="M34,1739.1582 L34,1766.1582 M21,1747.1582 L47,1747.1582 M34,1766.1582 L21,1781.1582 M34,1766.1582 L47,1781.1582" fill="none" style="stroke:#181818;stroke-width:0.5;"/></g><g class="participant participant-head" data-entity-uid="part2" data-qualified-name="F" data-source-line="11" id="part2-head"><rect fill="#E2E2F0" height="26.9551" rx="2.5" ry="2.5" style="stroke:#181818;stroke-width:0.5;" width="59.6274" x="129.4041" y="87.4883"/><text fill="#000000" font-family="sans-serif" font-size="11" lengthAdjust="spacing" textLength="45.6274" x="136.4041" y="105.123">Vue &#21069;&#31471;</text></g><g class="participant participant-tail" data-entity-uid="part2" data-qualified-name="F" data-source-line="11" id="part2-tail"><rect fill="#E2E2F0" height="26.9551" rx="2.5" ry="2.5" style="stroke:#181818;stroke-width:0.5;" width="59.6274" x="129.4041" y="1709.7031"/><text fill="#000000" font-family="sans-serif" font-size="11" lengthAdjust="spacing" textLength="45.6274" x="136.4041" y="1727.3379">Vue &#21069;&#31471;</text></g><g class="participant participant-head" data-entity-uid="part3" data-qualified-name="B" data-source-line="12" id="part3-head"><rect fill="#E2E2F0" height="39.9102" rx="2.5" ry="2.5" style="stroke:#181818;stroke-width:0.5;" width="72.1689" x="329.0625" y="74.5332"/><text fill="#000000" font-family="sans-serif" font-size="11" lengthAdjust="spacing" textLength="58.1689" x="336.0625" y="92.168">SpringBoot</text><text fill="#000000" font-family="sans-serif" font-size="11" lengthAdjust="spacing" textLength="22" x="354.147" y="105.123">&#21518;&#31471;</text></g><g class="participant participant-tail" data-entity-uid="part3" data-qualified-name="B" data-source-line="12" id="part3-tail"><rect fill="#E2E2F0" height="39.9102" rx="2.5" ry="2.5" style="stroke:#181818;stroke-width:0.5;" width="72.1689" x="329.0625" y="1709.7031"/><text fill="#000000" font-family="sans-serif" font-size="11" lengthAdjust="spacing" textLength="58.1689" x="336.0625" y="1727.3379">SpringBoot</text><text fill="#000000" font-family="sans-serif" font-size="11" lengthAdjust="spacing" textLength="22" x="354.147" y="1740.293">&#21518;&#31471;</text></g><g class="participant participant-head" data-entity-uid="part4" data-qualified-name="D" data-source-line="13" id="part4-head"><text fill="#000000" font-family="sans-serif" font-size="11" lengthAdjust="spacing" textLength="35.5566" x="595.2217" y="113.123">MySQL</text><path d="M598,66.4883 C598,56.4883 616,56.4883 616,56.4883 C616,56.4883 634,56.4883 634,66.4883 L634,92.4883 C634,102.4883 616,102.4883 616,102.4883 C616,102.4883 598,102.4883 598,92.4883 L598,66.4883" fill="#E2E2F0" style="stroke:#181818;stroke-width:0.5;"/><path d="M598,66.4883 C598,76.4883 616,76.4883 616,76.4883 C616,76.4883 634,76.4883 634,66.4883" fill="none" style="stroke:#181818;stroke-width:0.5;"/></g><g class="participant participant-tail" data-entity-uid="part4" data-qualified-name="D" data-source-line="13" id="part4-tail"><text fill="#000000" font-family="sans-serif" font-size="11" lengthAdjust="spacing" textLength="35.5566" x="595.2217" y="1720.3379">MySQL</text><path d="M598,1732.6582 C598,1722.6582 616,1722.6582 616,1722.6582 C616,1722.6582 634,1722.6582 634,1732.6582 L634,1758.6582 C634,1768.6582 616,1768.6582 616,1768.6582 C616,1768.6582 598,1768.6582 598,1758.6582 L598,1732.6582" fill="#E2E2F0" style="stroke:#181818;stroke-width:0.5;"/><path d="M598,1732.6582 C598,1742.6582 616,1742.6582 616,1742.6582 C616,1742.6582 634,1742.6582 634,1732.6582" fill="none" style="stroke:#181818;stroke-width:0.5;"/></g><g class="participant participant-head" data-entity-uid="part5" data-qualified-name="AI" data-source-line="14" id="part5-head"><rect fill="#E2E2F0" height="26.9551" rx="2.5" ry="2.5" style="stroke:#181818;stroke-width:0.5;" width="80.2686" x="646.7783" y="87.4883"/><text fill="#000000" font-family="sans-serif" font-size="11" lengthAdjust="spacing" textLength="66.2686" x="653.7783" y="105.123">DeepSeek AI</text></g><g class="participant participant-tail" data-entity-uid="part5" data-qualified-name="AI" data-source-line="14" id="part5-tail"><rect fill="#E2E2F0" height="26.9551" rx="2.5" ry="2.5" style="stroke:#181818;stroke-width:0.5;" width="80.2686" x="646.7783" y="1709.7031"/><text fill="#000000" font-family="sans-serif" font-size="11" lengthAdjust="spacing" textLength="66.2686" x="653.7783" y="1727.3379">DeepSeek AI</text></g><g><title>Vue ..</title><rect fill="#FFFFFF" height="1507.3496" style="stroke:#181818;stroke-width:1;" width="10" x="154.2178" y="185.3535"/></g><g><title>SpringBoot</title><rect fill="#FFFFFF" height="93.8203" style="stroke:#181818;stroke-width:1;" width="10" x="360.147" y="212.3086"/></g><g><title>SpringBoot</title><rect fill="#FFFFFF" height="225.4609" style="stroke:#181818;stroke-width:1;" width="10" x="360.147" y="465.9043"/></g><g><title>SpringBoot</title><rect fill="#FFFFFF" height="239.5059" style="stroke:#181818;stroke-width:1;" width="10" x="360.147" y="1038.916"/></g><g><title>SpringBoot</title><rect fill="#FFFFFF" height="227.5508" style="stroke:#181818;stroke-width:1;" width="10" x="360.147" y="1438.1973"/></g><g><title>MySQL</title><rect fill="#FFFFFF" height="26.9551" style="stroke:#181818;stroke-width:1;" width="10" x="611" y="252.2188"/></g><g><title>MySQL</title><rect fill="#FFFFFF" height="26.9551" style="stroke:#181818;stroke-width:1;" width="10" x="611" y="518.7695"/></g><g><title>MySQL</title><rect fill="#FFFFFF" height="26.9551" style="stroke:#181818;stroke-width:1;" width="10" x="611" y="624.5"/></g><g><title>MySQL</title><rect fill="#FFFFFF" height="26.9551" style="stroke:#181818;stroke-width:1;" width="10" x="611" y="1091.7813"/></g><g><title>MySQL</title><rect fill="#FFFFFF" height="26.9551" style="stroke:#181818;stroke-width:1;" width="10" x="611" y="1224.5117"/></g><g><title>MySQL</title><rect fill="#FFFFFF" height="26.9551" style="stroke:#181818;stroke-width:1;" width="10" x="611" y="1478.1074"/></g><g><title>MySQL</title><rect fill="#FFFFFF" height="26.9551" style="stroke:#181818;stroke-width:1;" width="10" x="611" y="1611.8379"/></g><g><title>DeepSeek AI</title><rect fill="#FFFFFF" height="26.9551" style="stroke:#181818;stroke-width:1;" width="10" x="681.9126" y="1544.9727"/></g><rect fill="#EEEEEE" height="3" style="stroke:#EEEEEE;stroke-width:1;" width="732.0469" x="0" y="144.9209"/><line style="stroke:#000000;stroke-width:1;" x1="0" x2="732.0469" y1="144.9209" y2="144.9209"/><line style="stroke:#000000;stroke-width:1;" x1="0" x2="732.0469" y1="147.9209" y2="147.9209"/><rect fill="#EEEEEE" height="20.9551" style="stroke:#000000;stroke-width:2;" width="61.6255" x="335.2107" y="135.4434"/><text fill="#000000" font-family="sans-serif" font-size="11" font-weight="700" lengthAdjust="spacing" textLength="44" x="341.2107" y="150.0781">&#36827;&#20837;&#27979;&#35780;</text><g class="message" data-entity-1="part1" data-entity-2="part2" data-source-line="18" id="msg1"><polygon fill="#181818" points="142.2178,181.3535,152.2178,185.3535,142.2178,189.3535,146.2178,185.3535" style="stroke:#181818;stroke-width:1;stroke-linejoin:miter;stroke-miterlimit:10;"/><line style="stroke:#181818;stroke-width:1;" x1="34" x2="148.2178" y1="185.3535" y2="185.3535"/><text fill="#000000" font-family="sans-serif" font-size="11" lengthAdjust="spacing" textLength="71.7686" x="58.2246" y="181.0332">&#36873;&#25321;&#35838;&#31243;/&#27979;&#35780;</text></g><g class="message" data-entity-1="part2" data-entity-2="part3" data-source-line="21" id="msg2"><polygon fill="#181818" points="348.147,208.3086,358.147,212.3086,348.147,216.3086,352.147,212.3086" style="stroke:#181818;stroke-width:1;stroke-linejoin:miter;stroke-miterlimit:10;"/><line style="stroke:#181818;stroke-width:1;" x1="164.2178" x2="354.147" y1="212.3086" y2="212.3086"/><text fill="#000000" font-family="sans-serif" font-size="11" lengthAdjust="spacing" textLength="176.9292" x="173.7178" y="207.9883">GET /student/exams?courseId=x</text></g><g class="message" data-entity-1="part3" data-entity-2="part4" data-source-line="23" id="msg3"><polygon fill="#181818" points="599,248.2188,609,252.2188,599,256.2188,603,252.2188" style="stroke:#181818;stroke-width:1;stroke-linejoin:miter;stroke-miterlimit:10;"/><line style="stroke:#181818;stroke-width:1;" x1="370.147" x2="605" y1="252.2188" y2="252.2188"/><text fill="#000000" font-family="sans-serif" font-size="11" lengthAdjust="spacing" textLength="114.1143" x="433.5164" y="234.9434">SELECT * FROM exam</text><text fill="#000000" font-family="sans-serif" font-size="11" lengthAdjust="spacing" textLength="111.2568" x="434.9451" y="247.8984">WHERE course_id = ?</text></g><g class="message" data-entity-1="part4" data-entity-2="part3" data-source-line="25" id="msg4"><polygon fill="#181818" points="381.147,275.1738,371.147,279.1738,381.147,283.1738,377.147,279.1738" style="stroke:#181818;stroke-width:1;stroke-linejoin:miter;stroke-miterlimit:10;"/><line style="stroke:#181818;stroke-width:1;stroke-dasharray:2,2;" x1="375.147" x2="615" y1="279.1738" y2="279.1738"/><text fill="#000000" font-family="sans-serif" font-size="11" lengthAdjust="spacing" textLength="44" x="471.0735" y="274.8535">&#27979;&#35780;&#21015;&#34920;</text></g><g class="message" data-entity-1="part3" data-entity-2="part2" data-source-line="27" id="msg5"><polygon fill="#181818" points="175.2178,302.1289,165.2178,306.1289,175.2178,310.1289,171.2178,306.1289" style="stroke:#181818;stroke-width:1;stroke-linejoin:miter;stroke-miterlimit:10;"/><line style="stroke:#181818;stroke-width:1;stroke-dasharray:2,2;" x1="169.2178" x2="364.147" y1="306.1289" y2="306.1289"/><text fill="#000000" font-family="sans-serif" font-size="11" lengthAdjust="spacing" textLength="73.498" x="227.9333" y="301.8086">&#27979;&#35780;&#21015;&#34920; JSON</text></g><g class="message" data-entity-1="part2" data-entity-2="part1" data-source-line="30" id="msg6"><polygon fill="#181818" points="45,329.084,35,333.084,45,337.084,41,333.084" style="stroke:#181818;stroke-width:1;stroke-linejoin:miter;stroke-miterlimit:10;"/><line style="stroke:#181818;stroke-width:1;stroke-dasharray:2,2;" x1="39" x2="153.2178" y1="333.084" y2="333.084"/><text fill="#000000" font-family="sans-serif" font-size="11" lengthAdjust="spacing" textLength="66" x="61.1089" y="328.7637">&#23637;&#31034;&#21487;&#29992;&#27979;&#35780;</text></g><rect fill="#EEEEEE" height="3" style="stroke:#EEEEEE;stroke-width:1;" width="732.0469" x="0" y="385.5615"/><line style="stroke:#000000;stroke-width:1;" x1="0" x2="732.0469" y1="385.5615" y2="385.5615"/><line style="stroke:#000000;stroke-width:1;" x1="0" x2="732.0469" y1="388.5615" y2="388.5615"/><rect fill="#EEEEEE" height="20.9551" style="stroke:#000000;stroke-width:2;" width="61.6255" x="335.2107" y="376.084"/><text fill="#000000" font-family="sans-serif" font-size="11" font-weight="700" lengthAdjust="spacing" textLength="44" x="341.2107" y="390.7188">&#24320;&#22987;&#31572;&#39064;</text><g class="message" data-entity-1="part1" data-entity-2="part2" data-source-line="36" id="msg7"><polygon fill="#181818" points="142.2178,421.9941,152.2178,425.9941,142.2178,429.9941,146.2178,425.9941" style="stroke:#181818;stroke-width:1;stroke-linejoin:miter;stroke-miterlimit:10;"/><line style="stroke:#181818;stroke-width:1;" x1="34" x2="148.2178" y1="425.9941" y2="425.9941"/><text fill="#000000" font-family="sans-serif" font-size="11" lengthAdjust="spacing" textLength="74.2178" x="57" y="421.6738">&#28857;&#20987;"&#24320;&#22987;&#27979;&#35780;"</text></g><g class="message" data-entity-1="part2" data-entity-2="part3" data-source-line="37" id="msg8"><polygon fill="#181818" points="348.147,461.9043,358.147,465.9043,348.147,469.9043,352.147,465.9043" style="stroke:#181818;stroke-width:1;stroke-linejoin:miter;stroke-miterlimit:10;"/><line style="stroke:#181818;stroke-width:1;" x1="164.2178" x2="354.147" y1="465.9043" y2="465.9043"/><text fill="#000000" font-family="sans-serif" font-size="11" lengthAdjust="spacing" textLength="142.4629" x="190.9509" y="448.6289">POST /student/exam/start</text><text fill="#000000" font-family="sans-serif" font-size="11" lengthAdjust="spacing" textLength="46.4653" x="238.9497" y="461.584">{examId}</text></g><g class="message" data-entity-1="part3" data-entity-2="part4" data-source-line="40" id="msg9"><polygon fill="#181818" points="599,514.7695,609,518.7695,599,522.7695,603,518.7695" style="stroke:#181818;stroke-width:1;stroke-linejoin:miter;stroke-miterlimit:10;"/><line style="stroke:#181818;stroke-width:1;" x1="370.147" x2="605" y1="518.7695" y2="518.7695"/><text fill="#000000" font-family="sans-serif" font-size="11" lengthAdjust="spacing" textLength="140.0137" x="420.5667" y="488.5391">INSERT INTO exam_record</text><text fill="#000000" font-family="sans-serif" font-size="11" lengthAdjust="spacing" textLength="155.5254" x="412.8108" y="501.4941">(user_id, exam_id, course_id,</text><text fill="#000000" font-family="sans-serif" font-size="11" lengthAdjust="spacing" textLength="106.1221" x="437.5125" y="514.4492">start_time = NOW())</text></g><g class="message" data-entity-1="part4" data-entity-2="part3" data-source-line="42" id="msg10"><polygon fill="#181818" points="381.147,541.7246,371.147,545.7246,381.147,549.7246,377.147,545.7246" style="stroke:#181818;stroke-width:1;stroke-linejoin:miter;stroke-miterlimit:10;"/><line style="stroke:#181818;stroke-width:1;stroke-dasharray:2,2;" x1="375.147" x2="615" y1="545.7246" y2="545.7246"/><text fill="#000000" font-family="sans-serif" font-size="11" lengthAdjust="spacing" textLength="50.0479" x="468.0496" y="541.4043">record_id</text></g><g class="message" data-entity-1="part3" data-entity-2="part4" data-source-line="45" id="msg11"><polygon fill="#181818" points="599,620.5,609,624.5,599,628.5,603,624.5" style="stroke:#181818;stroke-width:1;stroke-linejoin:miter;stroke-miterlimit:10;"/><line style="stroke:#181818;stroke-width:1;" x1="370.147" x2="605" y1="624.5" y2="624.5"/><text fill="#000000" font-family="sans-serif" font-size="11" lengthAdjust="spacing" textLength="86.2598" x="447.4436" y="568.3594">SELECT eq.*, q.*</text><text fill="#000000" font-family="sans-serif" font-size="11" lengthAdjust="spacing" textLength="131.9678" x="424.5896" y="581.3145">FROM exam_question eq</text><text fill="#000000" font-family="sans-serif" font-size="11" lengthAdjust="spacing" textLength="221.853" x="379.647" y="594.2695">JOIN question q ON eq.question_id = q.id</text><text fill="#000000" font-family="sans-serif" font-size="11" lengthAdjust="spacing" textLength="121.5532" x="429.7969" y="607.2246">WHERE eq.exam_id = ?</text><text fill="#000000" font-family="sans-serif" font-size="11" lengthAdjust="spacing" textLength="128.6216" x="426.2627" y="620.1797">ORDER BY eq.sort_order</text></g><g class="message" data-entity-1="part4" data-entity-2="part3" data-source-line="47" id="msg12"><polygon fill="#181818" points="381.147,647.4551,371.147,651.4551,381.147,655.4551,377.147,651.4551" style="stroke:#181818;stroke-width:1;stroke-linejoin:miter;stroke-miterlimit:10;"/><line style="stroke:#181818;stroke-width:1;stroke-dasharray:2,2;" x1="375.147" x2="615" y1="651.4551" y2="651.4551"/><text fill="#000000" font-family="sans-serif" font-size="11" lengthAdjust="spacing" textLength="132" x="427.0735" y="647.1348">&#39064;&#30446;&#21015;&#34920;&#65288;&#21547;&#36873;&#39033;&#12289;&#31572;&#26696;&#65289;</text></g><g class="message" data-entity-1="part3" data-entity-2="part2" data-source-line="50" id="msg13"><polygon fill="#181818" points="175.2178,687.3652,165.2178,691.3652,175.2178,695.3652,171.2178,691.3652" style="stroke:#181818;stroke-width:1;stroke-linejoin:miter;stroke-miterlimit:10;"/><line style="stroke:#181818;stroke-width:1;stroke-dasharray:2,2;" x1="169.2178" x2="364.147" y1="691.3652" y2="691.3652"/><text fill="#000000" font-family="sans-serif" font-size="11" lengthAdjust="spacing" textLength="131.6025" x="198.8811" y="674.0898">{recordId, questions: [...]</text><text fill="#000000" font-family="sans-serif" font-size="11" lengthAdjust="spacing" textLength="87.7314" x="220.8167" y="687.0449">(&#31572;&#26696;&#19981;&#36820;&#22238;&#21069;&#31471;)}</text></g><g class="message" data-entity-1="part2" data-entity-2="part2" data-source-line="53" id="msg14"><line style="stroke:#181818;stroke-width:1;" x1="164.2178" x2="206.2178" y1="731.2754" y2="731.2754"/><line style="stroke:#181818;stroke-width:1;" x1="206.2178" x2="206.2178" y1="731.2754" y2="744.2754"/><line style="stroke:#181818;stroke-width:1;" x1="165.2178" x2="206.2178" y1="744.2754" y2="744.2754"/><polygon fill="#181818" points="175.2178,740.2754,165.2178,744.2754,175.2178,748.2754,171.2178,744.2754" style="stroke:#181818;stroke-width:1;stroke-linejoin:miter;stroke-miterlimit:10;"/><text fill="#000000" font-family="sans-serif" font-size="11" lengthAdjust="spacing" textLength="66" x="176.4304" y="714">&#28210;&#26579;&#31572;&#39064;&#30028;&#38754;</text><text fill="#000000" font-family="sans-serif" font-size="11" lengthAdjust="spacing" textLength="76.4253" x="171.2178" y="726.9551">&#35760;&#24405; startTime</text></g><rect fill="#EEEEEE" height="3" style="stroke:#EEEEEE;stroke-width:1;" width="732.0469" x="0" y="796.7529"/><line style="stroke:#000000;stroke-width:1;" x1="0" x2="732.0469" y1="796.7529" y2="796.7529"/><line style="stroke:#000000;stroke-width:1;" x1="0" x2="732.0469" y1="799.7529" y2="799.7529"/><rect fill="#EEEEEE" height="20.9551" style="stroke:#000000;stroke-width:2;" width="61.6255" x="335.2107" y="787.2754"/><text fill="#000000" font-family="sans-serif" font-size="11" font-weight="700" lengthAdjust="spacing" textLength="44" x="341.2107" y="801.9102">&#36880;&#39064;&#20316;&#31572;</text><path d="M10,825.2305 L79.9165,825.2305 L79.9165,830.1855 L69.9165,840.1855 L10,840.1855 L10,825.2305" fill="#EEEEEE" style="stroke:#000000;stroke-width:1.5;"/><rect fill="none" height="81.8652" style="stroke:#000000;stroke-width:1.5;" width="227.2178" x="10" y="825.2305"/><text fill="#000000" font-family="sans-serif" font-size="11" font-weight="700" lengthAdjust="spacing" textLength="24.9165" x="25" y="836.8652">loop</text><text fill="#000000" font-family="sans-serif" font-size="11" font-weight="700" lengthAdjust="spacing" textLength="30.1533" x="94.9165" y="837.8652">[&#27599;&#39064;]</text><g class="message" data-entity-1="part1" data-entity-2="part2" data-source-line="60" id="msg15"><polygon fill="#181818" points="142.2178,855.1406,152.2178,859.1406,142.2178,863.1406,146.2178,859.1406" style="stroke:#181818;stroke-width:1;stroke-linejoin:miter;stroke-miterlimit:10;"/><line style="stroke:#181818;stroke-width:1;" x1="34" x2="148.2178" y1="859.1406" y2="859.1406"/><text fill="#000000" font-family="sans-serif" font-size="11" lengthAdjust="spacing" textLength="71.7686" x="58.2246" y="854.8203">&#36873;&#25321;/&#36755;&#20837;&#31572;&#26696;</text></g><g class="message" data-entity-1="part2" data-entity-2="part2" data-source-line="61" id="msg16"><line style="stroke:#181818;stroke-width:1;" x1="164.2178" x2="206.2178" y1="886.0957" y2="886.0957"/><line style="stroke:#181818;stroke-width:1;" x1="206.2178" x2="206.2178" y1="886.0957" y2="899.0957"/><line style="stroke:#181818;stroke-width:1;" x1="165.2178" x2="206.2178" y1="899.0957" y2="899.0957"/><polygon fill="#181818" points="175.2178,895.0957,165.2178,899.0957,175.2178,903.0957,171.2178,899.0957" style="stroke:#181818;stroke-width:1;stroke-linejoin:miter;stroke-miterlimit:10;"/><text fill="#000000" font-family="sans-serif" font-size="11" lengthAdjust="spacing" textLength="44" x="171.2178" y="881.7754">&#26242;&#23384;&#31572;&#26696;</text></g><rect fill="#EEEEEE" height="3" style="stroke:#EEEEEE;stroke-width:1;" width="732.0469" x="0" y="958.5732"/><line style="stroke:#000000;stroke-width:1;" x1="0" x2="732.0469" y1="958.5732" y2="958.5732"/><line style="stroke:#000000;stroke-width:1;" x1="0" x2="732.0469" y1="961.5732" y2="961.5732"/><rect fill="#EEEEEE" height="20.9551" style="stroke:#000000;stroke-width:2;" width="61.6255" x="335.2107" y="949.0957"/><text fill="#000000" font-family="sans-serif" font-size="11" font-weight="700" lengthAdjust="spacing" textLength="44" x="341.2107" y="963.7305">&#25552;&#20132;&#35797;&#21367;</text><g class="message" data-entity-1="part1" data-entity-2="part2" data-source-line="68" id="msg17"><polygon fill="#181818" points="142.2178,995.0059,152.2178,999.0059,142.2178,1003.0059,146.2178,999.0059" style="stroke:#181818;stroke-width:1;stroke-linejoin:miter;stroke-miterlimit:10;"/><line style="stroke:#181818;stroke-width:1;" x1="34" x2="148.2178" y1="999.0059" y2="999.0059"/><text fill="#000000" font-family="sans-serif" font-size="11" lengthAdjust="spacing" textLength="52.2178" x="68" y="994.6855">&#28857;&#20987;"&#20132;&#21367;"</text></g><g class="message" data-entity-1="part2" data-entity-2="part3" data-source-line="69" id="msg18"><polygon fill="#181818" points="348.147,1034.916,358.147,1038.916,348.147,1042.916,352.147,1038.916" style="stroke:#181818;stroke-width:1;stroke-linejoin:miter;stroke-miterlimit:10;"/><line style="stroke:#181818;stroke-width:1;" x1="164.2178" x2="354.147" y1="1038.916" y2="1038.916"/><text fill="#000000" font-family="sans-serif" font-size="11" lengthAdjust="spacing" textLength="154.9722" x="184.6963" y="1021.6406">POST /student/exam/submit</text><text fill="#000000" font-family="sans-serif" font-size="11" lengthAdjust="spacing" textLength="126.4302" x="198.9673" y="1034.5957">{recordId, answers: [...]}</text></g><g class="message" data-entity-1="part3" data-entity-2="part4" data-source-line="72" id="msg19"><polygon fill="#181818" points="599,1087.7813,609,1091.7813,599,1095.7813,603,1091.7813" style="stroke:#181818;stroke-width:1;stroke-linejoin:miter;stroke-miterlimit:10;"/><line style="stroke:#181818;stroke-width:1;" x1="370.147" x2="605" y1="1091.7813" y2="1091.7813"/><text fill="#000000" font-family="sans-serif" font-size="11" lengthAdjust="spacing" textLength="184.3789" x="398.384" y="1061.5508">SELECT q.answer FROM question q</text><text fill="#000000" font-family="sans-serif" font-size="11" lengthAdjust="spacing" textLength="124.3569" x="428.395" y="1074.5059">JOIN exam_question eq</text><text fill="#000000" font-family="sans-serif" font-size="11" lengthAdjust="spacing" textLength="121.5532" x="429.7969" y="1087.4609">WHERE eq.exam_id = ?</text></g><g class="message" data-entity-1="part4" data-entity-2="part3" data-source-line="74" id="msg20"><polygon fill="#181818" points="381.147,1114.7363,371.147,1118.7363,381.147,1122.7363,377.147,1118.7363" style="stroke:#181818;stroke-width:1;stroke-linejoin:miter;stroke-miterlimit:10;"/><line style="stroke:#181818;stroke-width:1;stroke-dasharray:2,2;" x1="375.147" x2="615" y1="1118.7363" y2="1118.7363"/><text fill="#000000" font-family="sans-serif" font-size="11" lengthAdjust="spacing" textLength="44" x="471.0735" y="1114.416">&#27491;&#30830;&#31572;&#26696;</text></g><g class="message" data-entity-1="part3" data-entity-2="part3" data-source-line="77" id="msg21"><line style="stroke:#181818;stroke-width:1;" x1="370.147" x2="412.147" y1="1158.6465" y2="1158.6465"/><line style="stroke:#181818;stroke-width:1;" x1="412.147" x2="412.147" y1="1158.6465" y2="1171.6465"/><line style="stroke:#181818;stroke-width:1;" x1="371.147" x2="412.147" y1="1171.6465" y2="1171.6465"/><polygon fill="#181818" points="381.147,1167.6465,371.147,1171.6465,381.147,1175.6465,377.147,1171.6465" style="stroke:#181818;stroke-width:1;stroke-linejoin:miter;stroke-miterlimit:10;"/><text fill="#000000" font-family="sans-serif" font-size="11" lengthAdjust="spacing" textLength="66" x="396.4829" y="1141.3711">&#36880;&#39064;&#27604;&#23545;&#31572;&#26696;</text><text fill="#000000" font-family="sans-serif" font-size="11" lengthAdjust="spacing" textLength="104.6719" x="377.147" y="1154.3262">&#35745;&#31639;&#24635;&#20998; user_score</text></g><g class="message" data-entity-1="part3" data-entity-2="part4" data-source-line="79" id="msg22"><polygon fill="#181818" points="599,1220.5117,609,1224.5117,599,1228.5117,603,1224.5117" style="stroke:#181818;stroke-width:1;stroke-linejoin:miter;stroke-miterlimit:10;"/><line style="stroke:#181818;stroke-width:1;" x1="370.147" x2="605" y1="1224.5117" y2="1224.5117"/><text fill="#000000" font-family="sans-serif" font-size="11" lengthAdjust="spacing" textLength="115.0918" x="433.0276" y="1194.2813">UPDATE exam_record</text><text fill="#000000" font-family="sans-serif" font-size="11" lengthAdjust="spacing" textLength="103.3398" x="438.9036" y="1207.2363">SET user_score = ?,</text><text fill="#000000" font-family="sans-serif" font-size="11" lengthAdjust="spacing" textLength="110.7144" x="435.2163" y="1220.1914">create_time = NOW()</text></g><g class="message" data-entity-1="part4" data-entity-2="part3" data-source-line="81" id="msg23"><polygon fill="#181818" points="381.147,1247.4668,371.147,1251.4668,381.147,1255.4668,377.147,1251.4668" style="stroke:#181818;stroke-width:1;stroke-linejoin:miter;stroke-miterlimit:10;"/><line style="stroke:#181818;stroke-width:1;stroke-dasharray:2,2;" x1="375.147" x2="615" y1="1251.4668" y2="1251.4668"/><text fill="#000000" font-family="sans-serif" font-size="11" lengthAdjust="spacing" textLength="15.7266" x="485.2102" y="1247.1465">OK</text></g><g class="message" data-entity-1="part3" data-entity-2="part2" data-source-line="84" id="msg24"><polygon fill="#181818" points="175.2178,1274.4219,165.2178,1278.4219,175.2178,1282.4219,171.2178,1278.4219" style="stroke:#181818;stroke-width:1;stroke-linejoin:miter;stroke-miterlimit:10;"/><line style="stroke:#181818;stroke-width:1;stroke-dasharray:2,2;" x1="169.2178" x2="364.147" y1="1278.4219" y2="1278.4219"/><text fill="#000000" font-family="sans-serif" font-size="11" lengthAdjust="spacing" textLength="119.3081" x="205.0283" y="1274.1016">{totalScore, userScore}</text></g><g class="message" data-entity-1="part2" data-entity-2="part1" data-source-line="87" id="msg25"><polygon fill="#181818" points="45,1301.377,35,1305.377,45,1309.377,41,1305.377" style="stroke:#181818;stroke-width:1;stroke-linejoin:miter;stroke-miterlimit:10;"/><line style="stroke:#181818;stroke-width:1;stroke-dasharray:2,2;" x1="39" x2="153.2178" y1="1305.377" y2="1305.377"/><text fill="#000000" font-family="sans-serif" font-size="11" lengthAdjust="spacing" textLength="44" x="72.1089" y="1301.0566">&#23637;&#31034;&#24471;&#20998;</text></g><rect fill="#EEEEEE" height="3" style="stroke:#EEEEEE;stroke-width:1;" width="732.0469" x="0" y="1357.8545"/><line style="stroke:#000000;stroke-width:1;" x1="0" x2="732.0469" y1="1357.8545" y2="1357.8545"/><line style="stroke:#000000;stroke-width:1;" x1="0" x2="732.0469" y1="1360.8545" y2="1360.8545"/><rect fill="#EEEEEE" height="20.9551" style="stroke:#000000;stroke-width:2;" width="54.9976" x="338.5247" y="1348.377"/><text fill="#000000" font-family="sans-serif" font-size="11" font-weight="700" lengthAdjust="spacing" textLength="37.3721" x="344.5247" y="1363.0117">AI &#35786;&#26029;</text><g class="message" data-entity-1="part1" data-entity-2="part2" data-source-line="93" id="msg26"><polygon fill="#181818" points="142.2178,1394.2871,152.2178,1398.2871,142.2178,1402.2871,146.2178,1398.2871" style="stroke:#181818;stroke-width:1;stroke-linejoin:miter;stroke-miterlimit:10;"/><line style="stroke:#181818;stroke-width:1;" x1="34" x2="148.2178" y1="1398.2871" y2="1398.2871"/><text fill="#000000" font-family="sans-serif" font-size="11" lengthAdjust="spacing" textLength="96.2178" x="46" y="1393.9668">&#28857;&#20987;"&#26597;&#30475;&#35786;&#26029;&#25253;&#21578;"</text></g><g class="message" data-entity-1="part2" data-entity-2="part3" data-source-line="94" id="msg27"><polygon fill="#181818" points="348.147,1434.1973,358.147,1438.1973,348.147,1442.1973,352.147,1438.1973" style="stroke:#181818;stroke-width:1;stroke-linejoin:miter;stroke-miterlimit:10;"/><line style="stroke:#181818;stroke-width:1;" x1="164.2178" x2="354.147" y1="1438.1973" y2="1438.1973"/><text fill="#000000" font-family="sans-serif" font-size="11" lengthAdjust="spacing" textLength="166.5952" x="178.8848" y="1420.9219">POST /student/exam/ai-report</text><text fill="#000000" font-family="sans-serif" font-size="11" lengthAdjust="spacing" textLength="51.6914" x="236.3367" y="1433.877">{recordId}</text></g><g class="message" data-entity-1="part3" data-entity-2="part4" data-source-line="97" id="msg28"><polygon fill="#181818" points="599,1474.1074,609,1478.1074,599,1482.1074,603,1478.1074" style="stroke:#181818;stroke-width:1;stroke-linejoin:miter;stroke-miterlimit:10;"/><line style="stroke:#181818;stroke-width:1;" x1="370.147" x2="605" y1="1478.1074" y2="1478.1074"/><text fill="#000000" font-family="sans-serif" font-size="11" lengthAdjust="spacing" textLength="154.0591" x="413.5439" y="1460.832">SELECT * FROM exam_record</text><text fill="#000000" font-family="sans-serif" font-size="11" lengthAdjust="spacing" textLength="70.3022" x="455.4224" y="1473.7871">WHERE id = ?</text></g><g class="message" data-entity-1="part4" data-entity-2="part3" data-source-line="99" id="msg29"><polygon fill="#181818" points="381.147,1501.0625,371.147,1505.0625,381.147,1509.0625,377.147,1505.0625" style="stroke:#181818;stroke-width:1;stroke-linejoin:miter;stroke-miterlimit:10;"/><line style="stroke:#181818;stroke-width:1;stroke-dasharray:2,2;" x1="375.147" x2="615" y1="1505.0625" y2="1505.0625"/><text fill="#000000" font-family="sans-serif" font-size="11" lengthAdjust="spacing" textLength="44" x="471.0735" y="1500.7422">&#31572;&#39064;&#35760;&#24405;</text></g><g class="message" data-entity-1="part3" data-entity-2="part5" data-source-line="102" id="msg30"><polygon fill="#181818" points="669.9126,1540.9727,679.9126,1544.9727,669.9126,1548.9727,673.9126,1544.9727" style="stroke:#181818;stroke-width:1;stroke-linejoin:miter;stroke-miterlimit:10;"/><line style="stroke:#181818;stroke-width:1;" x1="370.147" x2="675.9126" y1="1544.9727" y2="1544.9727"/><text fill="#000000" font-family="sans-serif" font-size="11" lengthAdjust="spacing" textLength="61.7192" x="495.1702" y="1527.6973">&#35831;&#27714; AI &#20998;&#26512;</text><text fill="#000000" font-family="sans-serif" font-size="11" lengthAdjust="spacing" textLength="77.8594" x="487.1001" y="1540.6523">(&#38169;&#39064; + &#27491;&#30830;&#29575;)</text></g><g class="message" data-entity-1="part5" data-entity-2="part3" data-source-line="104" id="msg31"><polygon fill="#181818" points="381.147,1567.9277,371.147,1571.9277,381.147,1575.9277,377.147,1571.9277" style="stroke:#181818;stroke-width:1;stroke-linejoin:miter;stroke-miterlimit:10;"/><line style="stroke:#181818;stroke-width:1;stroke-dasharray:2,2;" x1="375.147" x2="685.9126" y1="1571.9277" y2="1571.9277"/><text fill="#000000" font-family="sans-serif" font-size="11" lengthAdjust="spacing" textLength="58.2388" x="499.4104" y="1567.6074">AI &#35786;&#26029;&#25253;&#21578;</text></g><g class="message" data-entity-1="part3" data-entity-2="part4" data-source-line="107" id="msg32"><polygon fill="#181818" points="599,1607.8379,609,1611.8379,599,1615.8379,603,1611.8379" style="stroke:#181818;stroke-width:1;stroke-linejoin:miter;stroke-miterlimit:10;"/><line style="stroke:#181818;stroke-width:1;" x1="370.147" x2="605" y1="1611.8379" y2="1611.8379"/><text fill="#000000" font-family="sans-serif" font-size="11" lengthAdjust="spacing" textLength="115.0918" x="433.0276" y="1594.5625">UPDATE exam_record</text><text fill="#000000" font-family="sans-serif" font-size="11" lengthAdjust="spacing" textLength="90.3472" x="445.3999" y="1607.5176">SET ai_report = ?</text></g><g class="message" data-entity-1="part4" data-entity-2="part3" data-source-line="109" id="msg33"><polygon fill="#181818" points="381.147,1634.793,371.147,1638.793,381.147,1642.793,377.147,1638.793" style="stroke:#181818;stroke-width:1;stroke-linejoin:miter;stroke-miterlimit:10;"/><line style="stroke:#181818;stroke-width:1;stroke-dasharray:2,2;" x1="375.147" x2="615" y1="1638.793" y2="1638.793"/><text fill="#000000" font-family="sans-serif" font-size="11" lengthAdjust="spacing" textLength="15.7266" x="485.2102" y="1634.4727">OK</text></g><g class="message" data-entity-1="part3" data-entity-2="part2" data-source-line="112" id="msg34"><polygon fill="#181818" points="175.2178,1661.748,165.2178,1665.748,175.2178,1669.748,171.2178,1665.748" style="stroke:#181818;stroke-width:1;stroke-linejoin:miter;stroke-miterlimit:10;"/><line style="stroke:#181818;stroke-width:1;stroke-dasharray:2,2;" x1="169.2178" x2="364.147" y1="1665.748" y2="1665.748"/><text fill="#000000" font-family="sans-serif" font-size="11" lengthAdjust="spacing" textLength="51.7881" x="238.7883" y="1661.4277">{aiReport}</text></g><g class="message" data-entity-1="part2" data-entity-2="part1" data-source-line="115" id="msg35"><polygon fill="#181818" points="45,1688.7031,35,1692.7031,45,1696.7031,41,1692.7031" style="stroke:#181818;stroke-width:1;stroke-linejoin:miter;stroke-miterlimit:10;"/><line style="stroke:#181818;stroke-width:1;stroke-dasharray:2,2;" x1="39" x2="158.2178" y1="1692.7031" y2="1692.7031"/><text fill="#000000" font-family="sans-serif" font-size="11" lengthAdjust="spacing" textLength="83.7192" x="54.7493" y="1688.3828">&#23637;&#31034; AI &#35786;&#26029;&#25253;&#21578;</text></g><?plantuml-src fLLHRzfM57xthpXY3sswXAYlaLW51JQw1dUOhPh6X1ny5raXrs2RhLiJYKRRceIbOIffkgLBHDPicIf2EwbgawRfV-boRNZgNzYnBs0JIF9GaC3Syvrxp_c-xrmkGEWzNi85QDSFsC4gspY2j-KQMCyhhUQFrlCxzcxbtU6YzU0fszvyTxY4mFSwnvXHQK7MvLcOadCpqxfMeifLBQ_fy44yvhnz28Ly8vVoPboZfgJ-GE3oPL_G8CKIeJaoIGn3dYRXl3fD8KUeINH1C5KpJu0r_h9hM_vEtDPwZGg2d3Fnv0071a0sG19mUrFDgGMPcX3ueeJRBAtOJvfkDDuVbGgwIgSZccPcAAlUww8YWYARyfHi40XCVYzzTjrTZVRdHWafI8JCG3ZXXiC9GGY5eFLcW_sqmsj6fWL1Wh6F80uJq2ulMPL_MiqZx6ES0vpwrMzbas1XGjm1HX3uSImDuuPPKf2CSN9BdZMkvBIIRf244hhbfKI4Y9CHnGmfTZrsDGsN89uI9y59oT2RdyHICU29MLM145pnSgD25COwn_5IsE9wgxuhACI7YRYO-0aCN9F4f1yOSMj7f8H8zcpDVdp0LfjsRRVJf30tD-TommxBxE-AtQYrjn_sSsClxBExhm8SmDC27Y4tHEa48_W3jSZGsywFX3BlPyMZ9P6KOgaqVgL5bvIiJdAQhcJenP91T2Hbb2yx3psYHZFKtJnhghC4MKkADo-EZ0odZk-7IVsy3GX3Yi5Beu0V6TfJA8lsDqnLenZDq6jY8WczbIA8IIUfky3rAmPLfQih1ZkbEy9cg9YAnb8G-T8961fMZtNX80sj6jctD_Quc7WriEeJj6QxllzV-GvgOzKNdMjYeA6EKhTvpmcah5kTCG5V1OF1hv5Ndd_ySgNrfiOsDldaZSmFkgLZgvV_MbltkI7ijL_QVsndQ6llANkz1gu6QPJ0iq-xN4NSyUj7cE3Q9wzf1R2QgxWg0BvEZDfuw-W-pYAloGLu1_--m1eFEn525UyGQxLwVF2urLnZAo-6UXIZ63h7dQMfMTMnfqUMJ8tlYDwbwXJ3TknI378q7sVF5HsR3Bfdc2TE6VR6dtPzhzFu4DEw_d1vjferrjpdI4ULkhstRfLViSMVmPqU0piZlje_ln4DfsFzSoRXJUQ1dQfmkd8wmHFxncjuhUAdfxlGr4mvBpcxZhedk8_pvzrAH-jOlgTrE06jvhBre35KQ6jhntvKuG1hUOVzkdoswB8wffE2fljrFrjdtttTeunBUPQ4V5puc0oJ4BkQmBvUMCyMd6VisDgiucosQxyvz-w7NG_Sk-lZ7V-z4DizeaSCxzj_YlCtTwxcifhbL9pUnLdYochApJvFpu4w_VYuy3y0?></g></svg>