<svg xmlns="http://www.w3.org/2000/svg" xmlns:xlink="http://www.w3.org/1999/xlink" contentStyleType="text/css" data-diagram-type="DESCRIPTION" height="586px" preserveAspectRatio="none" style="width:499px;height:586px;background:#FFFFFF;" version="1.1" viewBox="0 0 499 586" width="499px" zoomAndPan="magnify"><?plantuml 1.2026.6?><defs/><g><!--cluster KG ?????? ? ???--><g class="cluster" data-qualified-name="KG ...... . ..." data-source-line="20" id="ent0002"><rect fill="#FFFFFF" height="565" rx="2.5" ry="2.5" style="stroke:#333333;stroke-width:1;" width="378.09" x="107.5" y="7"/><text fill="#000000" font-family="sans-serif" font-size="14" font-weight="700" lengthAdjust="spacing" textLength="174.2207" x="209.4346" y="22.5352">KG &#26234;&#33021;&#23548;&#23398;&#31995;&#32479; &#8212; &#25945;&#24072;&#31471;</text></g><!--entity UC1--><g class="entity" data-qualified-name="KG ...... . ....UC1" data-source-line="22" id="ent0003"><ellipse cx="176.9406" cy="55.0034" fill="#FFFFFF" rx="19.9706" ry="12.9934" style="stroke:#333333;stroke-width:0.5;"/><text fill="#000000" font-family="sans-serif" font-size="12" lengthAdjust="spacing" textLength="24" x="164.9406" y="58.5698">&#30331;&#24405;</text></g><!--entity UC2--><g class="entity" data-qualified-name="KG ...... . ....UC2" data-source-line="24" id="ent0004"><ellipse cx="176.9411" cy="116.0034" fill="#FFFFFF" rx="36.9411" ry="12.9934" style="stroke:#333333;stroke-width:0.5;"/><text fill="#000000" font-family="sans-serif" font-size="12" lengthAdjust="spacing" textLength="48" x="152.9411" y="119.5698">&#35838;&#31243;&#31649;&#29702;</text></g><!--entity UC3--><g class="entity" data-qualified-name="KG ...... . ....UC3" data-source-line="25" id="ent0005"><ellipse cx="176.9411" cy="177.0034" fill="#FFFFFF" rx="36.9411" ry="12.9934" style="stroke:#333333;stroke-width:0.5;"/><text fill="#000000" font-family="sans-serif" font-size="12" lengthAdjust="spacing" textLength="48" x="152.9411" y="180.5698">&#31456;&#33410;&#31649;&#29702;</text></g><!--entity UC4--><g class="entity" data-qualified-name="KG ...... . ....UC4" data-source-line="26" id="ent0006"><ellipse cx="176.9364" cy="238.0034" fill="#FFFFFF" rx="45.4264" ry="12.9934" style="stroke:#333333;stroke-width:0.5;"/><text fill="#000000" font-family="sans-serif" font-size="12" lengthAdjust="spacing" textLength="60" x="146.9364" y="241.5698">&#30693;&#35782;&#28857;&#31649;&#29702;</text></g><!--entity UC5--><g class="entity" data-qualified-name="KG ...... . ....UC5" data-source-line="27" id="ent0007"><ellipse cx="176.9411" cy="299.0034" fill="#FFFFFF" rx="36.9411" ry="12.9934" style="stroke:#333333;stroke-width:0.5;"/><text fill="#000000" font-family="sans-serif" font-size="12" lengthAdjust="spacing" textLength="48" x="152.9411" y="302.5698">&#39064;&#24211;&#31649;&#29702;</text></g><!--entity UC6--><g class="entity" data-qualified-name="KG ...... . ....UC6" data-source-line="28" id="ent0008"><ellipse cx="176.9411" cy="360.0034" fill="#FFFFFF" rx="36.9411" ry="12.9934" style="stroke:#333333;stroke-width:0.5;"/><text fill="#000000" font-family="sans-serif" font-size="12" lengthAdjust="spacing" textLength="48" x="152.9411" y="363.5698">&#27979;&#35780;&#31649;&#29702;</text></g><!--entity UC7--><g class="entity" data-qualified-name="KG ...... . ....UC7" data-source-line="29" id="ent0009"><ellipse cx="176.9416" cy="420.9983" fill="#FFFFFF" rx="53.4416" ry="13.0883" style="stroke:#333333;stroke-width:0.5;"/><text fill="#000000" font-family="sans-serif" font-size="12" lengthAdjust="spacing" textLength="72" x="140.9416" y="424.5647">&#23398;&#20064;&#36164;&#28304;&#31649;&#29702;</text></g><!--entity UC8--><g class="entity" data-qualified-name="KG ...... . ....UC8" data-source-line="30" id="ent0010"><ellipse cx="176.9364" cy="482.0034" fill="#FFFFFF" rx="45.4264" ry="12.9934" style="stroke:#333333;stroke-width:0.5;"/><text fill="#000000" font-family="sans-serif" font-size="12" lengthAdjust="spacing" textLength="60" x="146.9364" y="485.5698">&#36328;&#23398;&#31185;&#20027;&#39064;</text></g><!--entity UC9--><g class="entity" data-qualified-name="KG ...... . ....UC9" data-source-line="31" id="ent0011"><ellipse cx="176.9411" cy="543.0034" fill="#FFFFFF" rx="36.9411" ry="12.9934" style="stroke:#333333;stroke-width:0.5;"/><text fill="#000000" font-family="sans-serif" font-size="12" lengthAdjust="spacing" textLength="48" x="152.9411" y="546.5698">&#23398;&#24773;&#20998;&#26512;</text></g><!--entity UC10--><g class="entity" data-qualified-name="KG ...... . ....UC10" data-source-line="33" id="ent0012"><ellipse cx="406.9816" cy="225.9983" fill="#FFFFFF" rx="53.4416" ry="13.0883" style="stroke:#333333;stroke-width:0.5;"/><text fill="#000000" font-family="sans-serif" font-size="12" lengthAdjust="spacing" textLength="72" x="370.9816" y="229.5647">&#37197;&#32622;&#21069;&#32622;&#20381;&#36182;</text></g><!--entity UC11--><g class="entity" data-qualified-name="KG ...... . ....UC11" data-source-line="34" id="ent0013"><ellipse cx="406.9811" cy="287.0034" fill="#FFFFFF" rx="36.9411" ry="12.9934" style="stroke:#333333;stroke-width:0.5;"/><text fill="#000000" font-family="sans-serif" font-size="12" lengthAdjust="spacing" textLength="48" x="382.9811" y="290.5698">&#32452;&#21367;&#36873;&#39064;</text></g><!--entity UC12--><g class="entity" data-qualified-name="KG ...... . ....UC12" data-source-line="35" id="ent0014"><ellipse cx="406.9847" cy="349.0049" fill="#FFFFFF" rx="60.2247" ry="14.4449" style="stroke:#333333;stroke-width:0.5;"/><text fill="#000000" font-family="sans-serif" font-size="12" lengthAdjust="spacing" textLength="90.0293" x="361.9701" y="352.5714">&#26597;&#30475;&#25104;&#32489;/AI&#25253;&#21578;</text></g><!--entity UC13--><g class="entity" data-qualified-name="KG ...... . ....UC13" data-source-line="36" id="ent0015"><ellipse cx="406.9833" cy="411.9967" fill="#FFFFFF" rx="55.7333" ry="13.5467" style="stroke:#333333;stroke-width:0.5;"/><text fill="#000000" font-family="sans-serif" font-size="12" lengthAdjust="spacing" textLength="78.293" x="367.8368" y="415.5631">&#19978;&#20256;&#35270;&#39057;/&#36164;&#26009;</text></g><!--entity UC14--><g class="entity" data-qualified-name="KG ...... . ....UC14" data-source-line="37" id="ent0016"><ellipse cx="406.9816" cy="475.0003" fill="#FFFFFF" rx="62.6016" ry="14.9203" style="stroke:#333333;stroke-width:0.5;"/><text fill="#000000" font-family="sans-serif" font-size="12" lengthAdjust="spacing" textLength="96" x="358.9816" y="478.5667">&#20851;&#32852;&#22810;&#23398;&#31185;&#30693;&#35782;&#28857;</text></g><!--entity UC15--><g class="entity" data-qualified-name="KG ...... . ....UC15" data-source-line="38" id="ent0017"><ellipse cx="406.9816" cy="537.9983" fill="#FFFFFF" rx="53.4416" ry="13.0883" style="stroke:#333333;stroke-width:0.5;"/><text fill="#000000" font-family="sans-serif" font-size="12" lengthAdjust="spacing" textLength="72" x="370.9816" y="541.5647">&#23548;&#20986;&#23398;&#24773;&#25253;&#34920;</text></g><!--entity T--><g class="entity" data-qualified-name="T" data-source-line="18" id="ent0001"><ellipse cx="33" cy="277.93" fill="#F1F1F1" rx="16" ry="16" style="stroke:#181818;stroke-width:0.5;"/><path d="M33,297.93 C37,297.93 40,297.93 44,293.93 C52,293.93 60,301.93 60,309.93 L60,313.93 C60,317.93 56,321.93 52,321.93 L14,321.93 C10,321.93 6,317.93 6,313.93 L6,309.93 C6,301.93 14,293.93 22,293.93 C26,297.93 29,297.93 33,297.93" fill="#F1F1F1" style="stroke:#181818;stroke-width:0.5;"/><text fill="#000000" font-family="sans-serif" font-size="12" lengthAdjust="spacing" textLength="24" x="21" y="334.0316">&#25945;&#24072;</text></g><!--link UC4 to UC10--><g class="link" data-entity-1="ent0006" data-entity-2="ent0012" data-link-type="dependency" data-source-line="40" id="lnk18"><path d="M221.91,235.69 C259.7,233.7 309.2669,231.0927 349.1769,228.9927" fill="none" id="UC4-to-UC10" style="stroke:#181818;stroke-width:1;stroke-dasharray:7,7;"/><polygon fill="#181818" points="354.17,228.73,344.9723,225.2084,349.1769,228.9927,345.3926,233.1974,354.17,228.73" style="stroke:#181818;stroke-width:1;stroke-linejoin:miter;stroke-miterlimit:10;"/><text fill="#000000" font-family="sans-serif" font-size="12" lengthAdjust="spacing" textLength="52.793" x="261.38" y="227.5316">&#171;extend&#187;</text></g><!--link UC6 to UC11--><g class="link" data-entity-1="ent0008" data-entity-2="ent0013" data-link-type="dependency" data-source-line="41" id="lnk19"><path d="M203.06,350.4 C219.32,344.3 241,336.38 260.38,330 C300.56,316.77 342.7756,304.5797 372.2756,296.3097" fill="none" id="UC6-to-UC11" style="stroke:#181818;stroke-width:1;stroke-dasharray:7,7;"/><polygon fill="#181818" points="377.09,294.96,367.3444,293.5379,372.2756,296.3097,369.5038,301.2409,377.09,294.96" style="stroke:#181818;stroke-width:1;stroke-linejoin:miter;stroke-miterlimit:10;"/><text fill="#000000" font-family="sans-serif" font-size="12" lengthAdjust="spacing" textLength="52.793" x="261.38" y="310.3816">&#171;extend&#187;</text></g><!--link UC6 to UC12--><g class="link" data-entity-1="ent0008" data-entity-2="ent0014" data-link-type="dependency" data-source-line="42" id="lnk20"><path d="M213.82,358.27 C249.7,356.54 300.4558,354.0913 342.6858,352.0513" fill="none" id="UC6-to-UC12" style="stroke:#181818;stroke-width:1;stroke-dasharray:7,7;"/><polygon fill="#181818" points="347.68,351.81,338.4975,348.2489,342.6858,352.0513,338.8835,356.2396,347.68,351.81" style="stroke:#181818;stroke-width:1;stroke-linejoin:miter;stroke-miterlimit:10;"/><text fill="#000000" font-family="sans-serif" font-size="12" lengthAdjust="spacing" textLength="52.793" x="261.38" y="350.1116">&#171;extend&#187;</text></g><!--link UC7 to UC13--><g class="link" data-entity-1="ent0009" data-entity-2="ent0015" data-link-type="dependency" data-source-line="43" id="lnk21"><path d="M229.97,418.95 C266.39,417.51 309.9239,415.7864 346.8039,414.3364" fill="none" id="UC7-to-UC13" style="stroke:#181818;stroke-width:1;stroke-dasharray:7,7;"/><polygon fill="#181818" points="351.8,414.14,342.6498,410.4967,346.8039,414.3364,342.9641,418.4905,351.8,414.14" style="stroke:#181818;stroke-width:1;stroke-linejoin:miter;stroke-miterlimit:10;"/><text fill="#000000" font-family="sans-serif" font-size="12" lengthAdjust="spacing" textLength="52.793" x="261.38" y="412.2916">&#171;extend&#187;</text></g><!--link UC8 to UC14--><g class="link" data-entity-1="ent0010" data-entity-2="ent0016" data-link-type="dependency" data-source-line="44" id="lnk22"><path d="M222.45,480.63 C257.32,479.56 301.2123,478.213 339.7623,477.033" fill="none" id="UC8-to-UC14" style="stroke:#181818;stroke-width:1;stroke-dasharray:7,7;"/><polygon fill="#181818" points="344.76,476.88,335.6418,473.1572,339.7623,477.033,335.8866,481.1535,344.76,476.88" style="stroke:#181818;stroke-width:1;stroke-linejoin:miter;stroke-miterlimit:10;"/><text fill="#000000" font-family="sans-serif" font-size="12" lengthAdjust="spacing" textLength="52.793" x="261.38" y="474.4716">&#171;extend&#187;</text></g><!--link UC9 to UC15--><g class="link" data-entity-1="ent0011" data-entity-2="ent0017" data-link-type="dependency" data-source-line="45" id="lnk23"><path d="M214.08,542.21 C251.63,541.38 305.7712,540.2 348.4812,539.26" fill="none" id="UC9-to-UC15" style="stroke:#181818;stroke-width:1;stroke-dasharray:7,7;"/><polygon fill="#181818" points="353.48,539.15,344.3942,535.349,348.4812,539.26,344.5702,543.3471,353.48,539.15" style="stroke:#181818;stroke-width:1;stroke-linejoin:miter;stroke-miterlimit:10;"/><text fill="#000000" font-family="sans-serif" font-size="12" lengthAdjust="spacing" textLength="52.793" x="261.38" y="536.6516">&#171;extend&#187;</text></g><!--link T to UC1--><g class="link" data-entity-1="ent0001" data-entity-2="ent0003" data-link-type="dependency" data-source-line="48" id="lnk24"><path d="M36.01,261.1 C40.42,214.34 54.54,135.05 99.5,86 C114.6,69.53 134.7884,62.6555 152.0784,58.9955" fill="none" id="T-to-UC1" style="stroke:#181818;stroke-width:1;"/><polygon fill="#181818" points="156.97,57.96,147.3367,55.9106,152.0784,58.9955,148.9935,63.7371,156.97,57.96" style="stroke:#181818;stroke-width:1;stroke-linejoin:miter;stroke-miterlimit:10;"/></g><!--link T to UC2--><g class="link" data-entity-1="ent0001" data-entity-2="ent0004" data-link-type="dependency" data-source-line="49" id="lnk25"><path d="M41.68,261.24 C50.37,227.3 67.67,178.15 99.5,147 C111.88,134.88 124.8549,128.74 140.1349,124.11" fill="none" id="T-to-UC2" style="stroke:#181818;stroke-width:1;"/><polygon fill="#181818" points="144.92,122.66,135.1468,121.4418,140.1349,124.11,137.4667,129.098,144.92,122.66" style="stroke:#181818;stroke-width:1;stroke-linejoin:miter;stroke-miterlimit:10;"/></g><!--link T to UC3--><g class="link" data-entity-1="ent0001" data-entity-2="ent0005" data-link-type="dependency" data-source-line="50" id="lnk26"><path d="M54.55,261.01 C65.85,242.98 81.29,222.31 99.5,208 C113.24,197.2 126.4881,191.2156 141.5781,186.2756" fill="none" id="T-to-UC3" style="stroke:#181818;stroke-width:1;"/><polygon fill="#181818" points="146.33,184.72,136.5322,183.7186,141.5781,186.2756,139.0212,191.3216,146.33,184.72" style="stroke:#181818;stroke-width:1;stroke-linejoin:miter;stroke-miterlimit:10;"/></g><!--link T to UC4--><g class="link" data-entity-1="ent0001" data-entity-2="ent0006" data-link-type="dependency" data-source-line="51" id="lnk27"><path d="M60.98,286.5 C70.32,282.19 80.86,277.36 90.5,273 C109.78,264.28 127.2429,257.0951 144.1429,250.3851" fill="none" id="T-to-UC4" style="stroke:#181818;stroke-width:1;"/><polygon fill="#181818" points="148.79,248.54,138.9491,248.1435,144.1429,250.3851,141.9013,255.5789,148.79,248.54" style="stroke:#181818;stroke-width:1;stroke-linejoin:miter;stroke-miterlimit:10;"/></g><!--link T to UC5--><g class="link" data-entity-1="ent0001" data-entity-2="ent0007" data-link-type="dependency" data-source-line="52" id="lnk28"><path d="M60.7,299 C83.02,299 110.08,299 134.72,299" fill="none" id="T-to-UC5" style="stroke:#181818;stroke-width:1;"/><polygon fill="#181818" points="139.72,299,130.72,295,134.72,299,130.72,303,139.72,299" style="stroke:#181818;stroke-width:1;stroke-linejoin:miter;stroke-miterlimit:10;"/></g><!--link T to UC6--><g class="link" data-entity-1="ent0001" data-entity-2="ent0008" data-link-type="dependency" data-source-line="53" id="lnk29"><path d="M60.97,311.68 C72.75,317.13 86.75,323.5 99.5,329 C116.73,336.43 131.6938,342.5326 146.7338,348.5126" fill="none" id="T-to-UC6" style="stroke:#181818;stroke-width:1;"/><polygon fill="#181818" points="151.38,350.36,144.4947,343.3178,146.7338,348.5126,141.5389,350.7517,151.38,350.36" style="stroke:#181818;stroke-width:1;stroke-linejoin:miter;stroke-miterlimit:10;"/></g><!--link T to UC7--><g class="link" data-entity-1="ent0001" data-entity-2="ent0009" data-link-type="dependency" data-source-line="54" id="lnk30"><path d="M54.55,336.99 C65.85,355.02 81.29,375.69 99.5,390 C111.44,399.38 121.8821,404.6259 135.5521,409.5159" fill="none" id="T-to-UC7" style="stroke:#181818;stroke-width:1;"/><polygon fill="#181818" points="140.26,411.2,133.1331,404.4024,135.5521,409.5159,130.4386,411.9349,140.26,411.2" style="stroke:#181818;stroke-width:1;stroke-linejoin:miter;stroke-miterlimit:10;"/></g><!--link T to UC8--><g class="link" data-entity-1="ent0001" data-entity-2="ent0010" data-link-type="dependency" data-source-line="55" id="lnk31"><path d="M41.45,336.76 C50.01,370.99 67.25,420.72 99.5,452 C110.55,462.72 121.1216,468.1947 135.1616,472.7247" fill="none" id="T-to-UC8" style="stroke:#181818;stroke-width:1;"/><polygon fill="#181818" points="139.92,474.26,132.583,467.6897,135.1616,472.7247,130.1265,475.3032,139.92,474.26" style="stroke:#181818;stroke-width:1;stroke-linejoin:miter;stroke-miterlimit:10;"/></g><!--link T to UC9--><g class="link" data-entity-1="ent0001" data-entity-2="ent0011" data-link-type="dependency" data-source-line="56" id="lnk32"><path d="M36.01,336.9 C40.42,383.66 54.54,462.95 99.5,512 C111.11,524.67 123.8322,530.8626 139.1722,535.3626" fill="none" id="T-to-UC9" style="stroke:#181818;stroke-width:1;"/><polygon fill="#181818" points="143.97,536.77,136.4599,530.3983,139.1722,535.3626,134.208,538.0749,143.97,536.77" style="stroke:#181818;stroke-width:1;stroke-linejoin:miter;stroke-miterlimit:10;"/></g><?plantuml-src XPFRJjj048Rl_HIhz1geSqw58hL8L5KleGzWuYLO6Bko7VKa90f96X8X9IgW1hLDG4r9XOelK4I82GzJURsRjwZjs9lOJM4lhF7-tyxCFskhcuBqcbEuBR36vJRpYboG-2LPb1NmQDbTZ4e97gvp1L5RbYLjHNWF0HkT4hcS9YihsZiH0kuDLEKjE2KML9ZZL0W-CC1Up_vJoTLaXOUAjnzpbxi_NNHxAhC2SnedvKMQ-y7pyScxs-sQBFBtjhNDC29Sru0c0qN8RsY05vogWYmnZEiQHAoZ9kfN8e1JmIh3J7gAl7mEhEQ0x0sHVej-_yHN1ZPQuC_E8HWVmHTwnExShUyFAOAR1XeUkTbUBR4XaUXtk5l3bwUuNlQGQEZuHPjKTmD4B4IqEaGluzsR01GFGgEpBsZmEK0aWeJLgn6z622IGSAsRDwqIQze3Ue1BXKoTTrrfdFUCFk6NTU3qlyai_PAg5AsljSz8XCQpgXqW8UNQDzvcdVVIE_Od-BZq0IC8Zgu7ktiJwgnRCXTguE_rgnA7Hk_5fw-iAeTrAZwR6ZaPhzgthR9UNbqrbXmx1utVJ8qUbIw8XyFqO-JiLzw4puUkWJdi_aq63ktEo2dNHzCZAtRrmRcvxEkHV04B2x2jngK-6pMKvE-ojwhHcUfAL-DpLBJlXgVfMPyDH5KxPzf5SpDkHADeZIAqIXEemIDaZHAqIXDempp5m00?></g></svg>