<svg xmlns="http://www.w3.org/2000/svg" xmlns:xlink="http://www.w3.org/1999/xlink" contentStyleType="text/css" data-diagram-type="DESCRIPTION" height="1607px" preserveAspectRatio="none" style="width:474px;height:1607px;background:#FEFEFE;" version="1.1" viewBox="0 0 474 1607" width="474px" zoomAndPan="magnify"><?plantuml 1.2026.6?><defs/><g><rect fill="#FEFEFE" height="1607" style="stroke:none;stroke-width:1;" width="474" x="0" y="0"/><!--cluster System--><g class="cluster" data-qualified-name="System" data-source-line="29" id="ent0006"><rect fill="#FAFAFA" height="1378" rx="2.5" ry="2.5" style="stroke:#333333;stroke-width:1;" width="353.34" x="107.5" y="109.2703"/><text fill="#000000" font-family="sans-serif" font-size="13" font-weight="700" lengthAdjust="spacing" textLength="101.207" x="233.5665" y="123.8387">KG &#26234;&#33021;&#23548;&#23398;&#31995;&#32479;</text></g><!--entity UC_Login--><g class="entity" data-qualified-name="System.UC_Login" data-source-line="32" id="ent0007"><ellipse cx="178.4263" cy="1105.2709" fill="#E3F2FD" rx="18.5563" ry="12.1606" style="stroke:#1565C0;stroke-width:0.5;"/><text fill="#000000" font-family="sans-serif" font-size="11" lengthAdjust="spacing" textLength="22" x="167.4263" y="1108.2485">&#30331;&#24405;</text></g><!--entity UC_Register--><g class="entity" data-qualified-name="System.UC_Register" data-source-line="33" id="ent0008"><ellipse cx="178.4263" cy="568.2709" fill="#E3F2FD" rx="18.5563" ry="12.1606" style="stroke:#1565C0;stroke-width:0.5;"/><text fill="#000000" font-family="sans-serif" font-size="11" lengthAdjust="spacing" textLength="22" x="167.4263" y="571.2485">&#27880;&#20876;</text></g><!--entity UC_BrowseKG--><g class="entity" data-qualified-name="System.UC_BrowseKG" data-source-line="34" id="ent0009"><ellipse cx="178.4337" cy="629.2671" fill="#E3F2FD" rx="54.9337" ry="13.3867" style="stroke:#1565C0;stroke-width:0.5;"/><text fill="#000000" font-family="sans-serif" font-size="11" lengthAdjust="spacing" textLength="81.1948" x="137.8363" y="632.2446">&#27983;&#35272;3D&#30693;&#35782;&#22270;&#35889;</text></g><!--entity UC_GenPath--><g class="entity" data-qualified-name="System.UC_GenPath" data-source-line="35" id="ent0010"><ellipse cx="178.4281" cy="749.2679" fill="#E3F2FD" rx="49.2381" ry="12.2476" style="stroke:#1565C0;stroke-width:0.5;"/><text fill="#000000" font-family="sans-serif" font-size="11" lengthAdjust="spacing" textLength="66" x="145.4281" y="752.2455">&#29983;&#25104;&#23398;&#20064;&#36335;&#24452;</text></g><!--entity UC_Practice--><g class="entity" data-qualified-name="System.UC_Practice" data-source-line="36" id="ent0011"><ellipse cx="178.4327" cy="690.2709" fill="#E3F2FD" rx="34.1127" ry="12.1606" style="stroke:#1565C0;stroke-width:0.5;"/><text fill="#000000" font-family="sans-serif" font-size="11" lengthAdjust="spacing" textLength="44" x="156.4327" y="693.2485">&#21047;&#39064;&#32451;&#20064;</text></g><!--entity UC_Exam--><g class="entity" data-qualified-name="System.UC_Exam" data-source-line="37" id="ent0012"><ellipse cx="178.4327" cy="214.2709" fill="#E3F2FD" rx="34.1127" ry="12.1606" style="stroke:#1565C0;stroke-width:0.5;"/><text fill="#000000" font-family="sans-serif" font-size="11" lengthAdjust="spacing" textLength="44" x="156.4327" y="217.2485">&#21442;&#21152;&#27979;&#35780;</text></g><!--entity UC_WrongBook--><g class="entity" data-qualified-name="System.UC_WrongBook" data-source-line="38" id="ent0013"><ellipse cx="178.4309" cy="273.2709" fill="#E3F2FD" rx="41.8909" ry="12.1606" style="stroke:#1565C0;stroke-width:0.5;"/><text fill="#000000" font-family="sans-serif" font-size="11" lengthAdjust="spacing" textLength="55" x="150.9309" y="276.2485">&#26597;&#30475;&#38169;&#39064;&#26412;</text></g><!--entity UC_Report--><g class="entity" data-qualified-name="System.UC_Report" data-source-line="39" id="ent0014"><ellipse cx="178.4281" cy="332.2679" fill="#E3F2FD" rx="49.2381" ry="12.2476" style="stroke:#1565C0;stroke-width:0.5;"/><text fill="#000000" font-family="sans-serif" font-size="11" lengthAdjust="spacing" textLength="66" x="145.4281" y="335.2455">&#26597;&#30475;&#23398;&#24773;&#25253;&#21578;</text></g><!--entity UC_Resource--><g class="entity" data-qualified-name="System.UC_Resource" data-source-line="40" id="ent0015"><ellipse cx="178.4281" cy="391.2679" fill="#E3F2FD" rx="49.2381" ry="12.2476" style="stroke:#1565C0;stroke-width:0.5;"/><text fill="#000000" font-family="sans-serif" font-size="11" lengthAdjust="spacing" textLength="66" x="145.4281" y="394.2455">&#27983;&#35272;&#23398;&#20064;&#36164;&#28304;</text></g><!--entity UC_Favorite--><g class="entity" data-qualified-name="System.UC_Favorite" data-source-line="41" id="ent0016"><ellipse cx="178.4309" cy="450.2709" fill="#E3F2FD" rx="41.8909" ry="12.1606" style="stroke:#1565C0;stroke-width:0.5;"/><text fill="#000000" font-family="sans-serif" font-size="11" lengthAdjust="spacing" textLength="55" x="150.9309" y="453.2485">&#25910;&#34255;&#30693;&#35782;&#28857;</text></g><!--entity UC_AIQA--><g class="entity" data-qualified-name="System.UC_AIQA" data-source-line="42" id="ent0017"><ellipse cx="178.4347" cy="509.2709" fill="#E3F2FD" rx="28.6247" ry="12.1606" style="stroke:#1565C0;stroke-width:0.5;"/><text fill="#000000" font-family="sans-serif" font-size="11" lengthAdjust="spacing" textLength="36.2388" x="160.3153" y="512.2485">AI &#31572;&#30097;</text></g><!--entity UC_NodeMgr--><g class="entity" data-qualified-name="System.UC_NodeMgr" data-source-line="45" id="ent0018"><ellipse cx="178.4309" cy="1164.2709" fill="#E3F2FD" rx="41.8909" ry="12.1606" style="stroke:#1565C0;stroke-width:0.5;"/><text fill="#000000" font-family="sans-serif" font-size="11" lengthAdjust="spacing" textLength="55" x="150.9309" y="1167.2485">&#30693;&#35782;&#28857;&#31649;&#29702;</text></g><!--entity UC_QuestionMgr--><g class="entity" data-qualified-name="System.UC_QuestionMgr" data-source-line="46" id="ent0019"><ellipse cx="178.4327" cy="808.2709" fill="#E3F2FD" rx="34.1127" ry="12.1606" style="stroke:#1565C0;stroke-width:0.5;"/><text fill="#000000" font-family="sans-serif" font-size="11" lengthAdjust="spacing" textLength="44" x="156.4327" y="811.2485">&#39064;&#24211;&#31649;&#29702;</text></g><!--entity UC_ExamMgr--><g class="entity" data-qualified-name="System.UC_ExamMgr" data-source-line="47" id="ent0020"><ellipse cx="178.4327" cy="867.2709" fill="#E3F2FD" rx="34.1127" ry="12.1606" style="stroke:#1565C0;stroke-width:0.5;"/><text fill="#000000" font-family="sans-serif" font-size="11" lengthAdjust="spacing" textLength="44" x="156.4327" y="870.2485">&#27979;&#35780;&#31649;&#29702;</text></g><!--entity UC_ResourceMgr--><g class="entity" data-qualified-name="System.UC_ResourceMgr" data-source-line="48" id="ent0021"><ellipse cx="178.4281" cy="926.2679" fill="#E3F2FD" rx="49.2381" ry="12.2476" style="stroke:#1565C0;stroke-width:0.5;"/><text fill="#000000" font-family="sans-serif" font-size="11" lengthAdjust="spacing" textLength="66" x="145.4281" y="929.2455">&#23398;&#20064;&#36164;&#28304;&#31649;&#29702;</text></g><!--entity UC_CrossTheme--><g class="entity" data-qualified-name="System.UC_CrossTheme" data-source-line="49" id="ent0022"><ellipse cx="178.4312" cy="986.2725" fill="#E3F2FD" rx="53.3112" ry="13.0622" style="stroke:#1565C0;stroke-width:0.5;"/><text fill="#000000" font-family="sans-serif" font-size="11" lengthAdjust="spacing" textLength="77" x="139.9312" y="989.2501">&#36328;&#23398;&#31185;&#20027;&#39064;&#21457;&#24067;</text></g><!--entity UC_Analytics--><g class="entity" data-qualified-name="System.UC_Analytics" data-source-line="50" id="ent0023"><ellipse cx="178.4327" cy="1046.2709" fill="#E3F2FD" rx="34.1127" ry="12.1606" style="stroke:#1565C0;stroke-width:0.5;"/><text fill="#000000" font-family="sans-serif" font-size="11" lengthAdjust="spacing" textLength="44" x="156.4327" y="1049.2485">&#23398;&#24773;&#20998;&#26512;</text></g><!--entity UC_UserMgr--><g class="entity" data-qualified-name="System.UC_UserMgr" data-source-line="53" id="ent0024"><ellipse cx="178.4327" cy="1282.2709" fill="#E3F2FD" rx="34.1127" ry="12.1606" style="stroke:#1565C0;stroke-width:0.5;"/><text fill="#000000" font-family="sans-serif" font-size="11" lengthAdjust="spacing" textLength="44" x="156.4327" y="1285.2485">&#29992;&#25143;&#31649;&#29702;</text></g><!--entity UC_RoleMgr--><g class="entity" data-qualified-name="System.UC_RoleMgr" data-source-line="54" id="ent0025"><ellipse cx="178.4327" cy="1341.2709" fill="#E3F2FD" rx="34.1127" ry="12.1606" style="stroke:#1565C0;stroke-width:0.5;"/><text fill="#000000" font-family="sans-serif" font-size="11" lengthAdjust="spacing" textLength="44" x="156.4327" y="1344.2485">&#35282;&#33394;&#31649;&#29702;</text></g><!--entity UC_Audit--><g class="entity" data-qualified-name="System.UC_Audit" data-source-line="55" id="ent0026"><ellipse cx="178.4281" cy="1400.2679" fill="#E3F2FD" rx="49.2381" ry="12.2476" style="stroke:#1565C0;stroke-width:0.5;"/><text fill="#000000" font-family="sans-serif" font-size="11" lengthAdjust="spacing" textLength="66" x="145.4281" y="1403.2455">&#25805;&#20316;&#26085;&#24535;&#23457;&#35745;</text></g><!--entity UC_Notice--><g class="entity" data-qualified-name="System.UC_Notice" data-source-line="56" id="ent0027"><ellipse cx="178.4327" cy="1459.2709" fill="#E3F2FD" rx="34.1127" ry="12.1606" style="stroke:#1565C0;stroke-width:0.5;"/><text fill="#000000" font-family="sans-serif" font-size="11" lengthAdjust="spacing" textLength="44" x="156.4327" y="1462.2485">&#20844;&#21578;&#31649;&#29702;</text></g><!--entity UC_CourseMgr--><g class="entity" data-qualified-name="System.UC_CourseMgr" data-source-line="57" id="ent0028"><ellipse cx="178.4327" cy="1223.2709" fill="#E3F2FD" rx="34.1127" ry="12.1606" style="stroke:#1565C0;stroke-width:0.5;"/><text fill="#000000" font-family="sans-serif" font-size="11" lengthAdjust="spacing" textLength="44" x="156.4327" y="1226.2485">&#35838;&#31243;&#31649;&#29702;</text></g><!--entity UC_SendCode--><g class="entity" data-qualified-name="System.UC_SendCode" data-source-line="60" id="ent0029"><ellipse cx="395.6109" cy="1105.2709" fill="#E3F2FD" rx="41.8909" ry="12.1606" style="stroke:#1565C0;stroke-width:0.5;"/><text fill="#000000" font-family="sans-serif" font-size="11" lengthAdjust="spacing" textLength="55" x="368.1109" y="1108.2485">&#21457;&#36865;&#39564;&#35777;&#30721;</text></g><!--entity UC_TopoSort--><g class="entity" data-qualified-name="System.UC_TopoSort" data-source-line="61" id="ent0030"><ellipse cx="395.6081" cy="803.2679" fill="#E3F2FD" rx="49.2381" ry="12.2476" style="stroke:#1565C0;stroke-width:0.5;"/><text fill="#000000" font-family="sans-serif" font-size="11" lengthAdjust="spacing" textLength="66" x="362.6081" y="806.2455">&#25299;&#25169;&#25490;&#24207;&#35745;&#31639;</text></g><!--entity UC_AIDiag--><g class="entity" data-qualified-name="System.UC_AIDiag" data-source-line="62" id="ent0031"><ellipse cx="395.611" cy="188.2709" fill="#E3F2FD" rx="44.181" ry="12.1606" style="stroke:#1565C0;stroke-width:0.5;"/><text fill="#000000" font-family="sans-serif" font-size="11" lengthAdjust="spacing" textLength="58.2388" x="366.4916" y="191.2485">AI &#35786;&#26029;&#20998;&#26512;</text></g><!--entity UC_AIHigh--><g class="entity" data-qualified-name="System.UC_AIHigh" data-source-line="63" id="ent0032"><ellipse cx="178.4329" cy="155.2709" fill="#E3F2FD" rx="36.4029" ry="12.1606" style="stroke:#1565C0;stroke-width:0.5;"/><text fill="#000000" font-family="sans-serif" font-size="11" lengthAdjust="spacing" textLength="47.2388" x="154.8135" y="158.2485">AI &#21010;&#37325;&#28857;</text></g><!--entity UC_Confetti--><g class="entity" data-qualified-name="System.UC_Confetti" data-source-line="64" id="ent0033"><ellipse cx="395.6127" cy="713.2709" fill="#E3F2FD" rx="34.1127" ry="12.1606" style="stroke:#1565C0;stroke-width:0.5;"/><text fill="#000000" font-family="sans-serif" font-size="11" lengthAdjust="spacing" textLength="44" x="373.6127" y="716.2485">&#25746;&#33457;&#24198;&#31069;</text></g><!--entity Student--><g class="entity" data-qualified-name="Student" data-source-line="22" id="ent0001"><ellipse cx="33" cy="488.8003" fill="#F1F1F1" rx="16" ry="16" style="stroke:#181818;stroke-width:0.5;"/><path d="M33,508.8003 C37,508.8003 40,508.8003 44,504.8003 C52,504.8003 60,512.8003 60,520.8003 L60,524.8003 C60,528.8003 56,532.8003 52,532.8003 L14,532.8003 C10,532.8003 6,528.8003 6,524.8003 L6,520.8003 C6,512.8003 14,504.8003 22,504.8003 C26,508.8003 29,508.8003 33,508.8003" fill="#F1F1F1" style="stroke:#181818;stroke-width:0.5;"/><text fill="#000000" font-family="sans-serif" font-size="11" lengthAdjust="spacing" textLength="22" x="22" y="543.9351">&#23398;&#29983;</text></g><!--entity Teacher--><g class="entity" data-qualified-name="Teacher" data-source-line="23" id="ent0002"><ellipse cx="33" cy="946.8003" fill="#F1F1F1" rx="16" ry="16" style="stroke:#181818;stroke-width:0.5;"/><path d="M33,966.8003 C37,966.8003 40,966.8003 44,962.8003 C52,962.8003 60,970.8003 60,978.8003 L60,982.8003 C60,986.8003 56,990.8003 52,990.8003 L14,990.8003 C10,990.8003 6,986.8003 6,982.8003 L6,978.8003 C6,970.8003 14,962.8003 22,962.8003 C26,966.8003 29,966.8003 33,966.8003" fill="#F1F1F1" style="stroke:#181818;stroke-width:0.5;"/><text fill="#000000" font-family="sans-serif" font-size="11" lengthAdjust="spacing" textLength="22" x="22" y="1001.9351">&#25945;&#24072;</text></g><!--entity Admin--><g class="entity" data-qualified-name="Admin" data-source-line="24" id="ent0003"><ellipse cx="33" cy="1299.8003" fill="#F1F1F1" rx="16" ry="16" style="stroke:#181818;stroke-width:0.5;"/><path d="M33,1319.8003 C37,1319.8003 40,1319.8003 44,1315.8003 C52,1315.8003 60,1323.8003 60,1331.8003 L60,1335.8003 C60,1339.8003 56,1343.8003 52,1343.8003 L14,1343.8003 C10,1343.8003 6,1339.8003 6,1335.8003 L6,1331.8003 C6,1323.8003 14,1315.8003 22,1315.8003 C26,1319.8003 29,1319.8003 33,1319.8003" fill="#F1F1F1" style="stroke:#181818;stroke-width:0.5;"/><text fill="#000000" font-family="sans-serif" font-size="11" lengthAdjust="spacing" textLength="33" x="16.5" y="1354.9351">&#31649;&#29702;&#21592;</text></g><!--entity Email--><g class="entity" data-qualified-name="Email" data-source-line="25" id="ent0004"><ellipse cx="178.4332" cy="1536.2754" fill="#F1F1F1" rx="16" ry="16" style="stroke:#181818;stroke-width:0.5;"/><path d="M178.4332,1556.2754 C182.4332,1556.2754 185.4332,1556.2754 189.4332,1552.2754 C197.4332,1552.2754 205.4332,1560.2754 205.4332,1568.2754 L205.4332,1572.2754 C205.4332,1576.2754 201.4332,1580.2754 197.4332,1580.2754 L159.4332,1580.2754 C155.4332,1580.2754 151.4332,1576.2754 151.4332,1572.2754 L151.4332,1568.2754 C151.4332,1560.2754 159.4332,1552.2754 167.4332,1552.2754 C171.4332,1556.2754 174.4332,1556.2754 178.4332,1556.2754" fill="#F1F1F1" style="stroke:#181818;stroke-width:0.5;"/><text fill="#000000" font-family="sans-serif" font-size="11" lengthAdjust="spacing" textLength="44" x="156.4332" y="1591.4102">&#37038;&#31665;&#26381;&#21153;</text><text fill="#000000" font-family="sans-serif" font-size="11" font-style="italic" lengthAdjust="spacing" textLength="55.5264" x="150.67" y="1517.4551">&#171;&#22806;&#37096;&#31995;&#32479;&#187;</text></g><!--entity AI--><g class="entity" data-qualified-name="AI" data-source-line="26" id="ent0005"><ellipse cx="395.6043" cy="36.2754" fill="#F1F1F1" rx="16" ry="16" style="stroke:#181818;stroke-width:0.5;"/><path d="M395.6043,56.2754 C399.6043,56.2754 402.6043,56.2754 406.6043,52.2754 C414.6043,52.2754 422.6043,60.2754 422.6043,68.2754 L422.6043,72.2754 C422.6043,76.2754 418.6043,80.2754 414.6043,80.2754 L376.6043,80.2754 C372.6043,80.2754 368.6043,76.2754 368.6043,72.2754 L368.6043,68.2754 C368.6043,60.2754 376.6043,52.2754 384.6043,52.2754 C388.6043,56.2754 391.6043,56.2754 395.6043,56.2754" fill="#F1F1F1" style="stroke:#181818;stroke-width:0.5;"/><text fill="#000000" font-family="sans-serif" font-size="11" lengthAdjust="spacing" textLength="66.2686" x="362.47" y="91.4102">DeepSeek AI</text><text fill="#000000" font-family="sans-serif" font-size="11" font-style="italic" lengthAdjust="spacing" textLength="55.5264" x="367.8411" y="17.4551">&#171;&#22806;&#37096;&#31995;&#32479;&#187;</text></g><!--link UC_Register to UC_SendCode--><g class="link" data-entity-1="ent0008" data-entity-2="ent0029" data-link-type="dependency" data-source-line="67" id="lnk34"><path d="M195.83,573.0003 C208.19,577.4503 224.48,585.4003 233.37,598.2703 C285.91,674.4303 237.99,715.3003 263.37,804.2703 C296.83,921.5903 363.666,1048.7207 385.476,1088.7107" fill="none" id="UC_Register-to-UC_SendCode" style="stroke:#181818;stroke-width:1;stroke-dasharray:7,7;"/><polygon fill="#181818" points="387.87,1093.1003,387.0724,1083.2838,385.476,1088.7107,380.0491,1087.1142,387.87,1093.1003" style="stroke:#181818;stroke-width:1;stroke-linejoin:miter;stroke-miterlimit:10;"/><text fill="#000000" font-family="sans-serif" font-size="11" lengthAdjust="spacing" textLength="48.3936" x="265.87" y="801.9051">&#171;extend&#187;</text></g><!--link UC_GenPath to UC_TopoSort--><g class="link" data-entity-1="ent0010" data-entity-2="ent0030" data-link-type="dependency" data-source-line="68" id="lnk35"><path d="M214,757.9503 C254.04,768.0003 314.7605,783.2328 354.9105,793.3128" fill="none" id="UC_GenPath-to-UC_TopoSort" style="stroke:#181818;stroke-width:1;stroke-dasharray:7,7;"/><polygon fill="#181818" points="359.76,794.5303,352.0049,788.4592,354.9105,793.3128,350.0569,796.2184,359.76,794.5303" style="stroke:#181818;stroke-width:1;stroke-linejoin:miter;stroke-miterlimit:10;"/><text fill="#000000" font-family="sans-serif" font-size="11" lengthAdjust="spacing" textLength="50.2251" x="264.87" y="769.0751">&#171;include&#187;</text></g><!--link UC_Exam to UC_AIDiag--><g class="link" data-entity-1="ent0012" data-entity-2="ent0031" data-link-type="dependency" data-source-line="69" id="lnk36"><path d="M211.18,210.4403 C249.29,205.8303 308.2662,198.7106 349.6962,193.7006" fill="none" id="UC_Exam-to-UC_AIDiag" style="stroke:#181818;stroke-width:1;stroke-dasharray:7,7;"/><polygon fill="#181818" points="354.66,193.1003,345.2449,190.2097,349.6962,193.7006,346.2053,198.1519,354.66,193.1003" style="stroke:#181818;stroke-width:1;stroke-linejoin:miter;stroke-miterlimit:10;"/><text fill="#000000" font-family="sans-serif" font-size="11" lengthAdjust="spacing" textLength="50.2251" x="264.87" y="195.8151">&#171;include&#187;</text></g><!--link UC_Login to UC_SendCode--><g class="link" data-entity-1="ent0007" data-entity-2="ent0029" data-link-type="dependency" data-source-line="70" id="lnk37"><path d="M197.41,1105.2703 C231.55,1105.2703 301.55,1105.2703 348.59,1105.2703" fill="none" id="UC_Login-to-UC_SendCode" style="stroke:#181818;stroke-width:1;stroke-dasharray:7,7;"/><polygon fill="#181818" points="353.59,1105.2703,344.59,1101.2703,348.59,1105.2703,344.59,1109.2703,353.59,1105.2703" style="stroke:#181818;stroke-width:1;stroke-linejoin:miter;stroke-miterlimit:10;"/><text fill="#000000" font-family="sans-serif" font-size="11" lengthAdjust="spacing" textLength="48.3936" x="265.7504" y="1089.9051">&#171;extend&#187;</text><text fill="#000000" font-family="sans-serif" font-size="11" lengthAdjust="spacing" textLength="51.1543" x="264.37" y="1102.8602">(&#25214;&#22238;&#23494;&#30721;)</text></g><!--link UC_AIQA to AI--><g class="link" data-entity-1="ent0017" data-entity-2="ent0005" data-link-type="dependency" data-source-line="71" id="lnk38"><path d="M202.66,502.5203 C213.79,498.0403 226.23,490.9803 233.37,480.2703 C308.67,367.3003 204.06,298.4003 263.37,176.2703 C263.55,175.8903 319.8099,121.9397 358.6099,84.7597" fill="none" id="UC_AIQA-to-AI" style="stroke:#181818;stroke-width:1;stroke-dasharray:7,7;"/><polygon fill="#181818" points="362.22,81.3003,352.9543,84.6391,358.6099,84.7597,358.4893,90.4152,362.22,81.3003" style="stroke:#181818;stroke-width:1;stroke-linejoin:miter;stroke-miterlimit:10;"/><text fill="#000000" font-family="sans-serif" font-size="11" lengthAdjust="spacing" textLength="30.0889" x="274.87" y="125.6651">&#171;use&#187;</text></g><!--link UC_AIHigh to AI--><g class="link" data-entity-1="ent0032" data-entity-2="ent0005" data-link-type="dependency" data-source-line="72" id="lnk39"><path d="M195.36,144.2603 C211.9,133.1003 238.75,115.7603 263.37,103.2703 C296.02,86.7203 330.4232,73.195 357.4032,63.345" fill="none" id="UC_AIHigh-to-AI" style="stroke:#181818;stroke-width:1;stroke-dasharray:7,7;"/><polygon fill="#181818" points="362.1,61.6303,352.274,60.9594,357.4032,63.345,355.0176,68.4742,362.1,61.6303" style="stroke:#181818;stroke-width:1;stroke-linejoin:miter;stroke-miterlimit:10;"/><text fill="#000000" font-family="sans-serif" font-size="11" lengthAdjust="spacing" textLength="30.0889" x="274.87" y="78.3851">&#171;use&#187;</text></g><!--link UC_Practice to UC_Confetti--><g class="link" data-entity-1="ent0011" data-entity-2="ent0033" data-link-type="dependency" data-source-line="73" id="lnk40"><path d="M211.65,693.7203 C252.33,698.0703 316.9284,704.9679 357.5484,709.3179" fill="none" id="UC_Practice-to-UC_Confetti" style="stroke:#181818;stroke-width:1;stroke-dasharray:7,7;"/><polygon fill="#181818" points="362.52,709.8503,353.9971,704.9147,357.5484,709.3179,353.1452,712.8692,362.52,709.8503" style="stroke:#181818;stroke-width:1;stroke-linejoin:miter;stroke-miterlimit:10;"/><text fill="#000000" font-family="sans-serif" font-size="11" lengthAdjust="spacing" textLength="48.3936" x="265.7504" y="684.3451">&#171;extend&#187;</text><text fill="#000000" font-family="sans-serif" font-size="11" lengthAdjust="spacing" textLength="51.1543" x="264.37" y="697.3002">(&#31572;&#23545;&#25746;&#33457;)</text></g><!--link UC_GenPath to UC_Confetti--><g class="link" data-entity-1="ent0010" data-entity-2="ent0033" data-link-type="dependency" data-source-line="74" id="lnk41"><path d="M227.99,748.6503 C254.35,747.5803 287.38,745.0603 316.37,739.2703 C335.6,735.4403 351.9741,730.0312 367.3941,724.1912" fill="none" id="UC_GenPath-to-UC_Confetti" style="stroke:#181818;stroke-width:1;stroke-dasharray:7,7;"/><polygon fill="#181818" points="372.07,722.4203,362.2367,721.8672,367.3941,724.1912,365.0701,729.3486,372.07,722.4203" style="stroke:#181818;stroke-width:1;stroke-linejoin:miter;stroke-miterlimit:10;"/><text fill="#000000" font-family="sans-serif" font-size="11" lengthAdjust="spacing" textLength="48.3936" x="265.7504" y="723.9051">&#171;extend&#187;</text><text fill="#000000" font-family="sans-serif" font-size="11" lengthAdjust="spacing" textLength="51.1543" x="264.37" y="736.8602">(&#23436;&#25104;&#24198;&#31069;)</text></g><!--link Student to UC_Login--><g class="link" data-entity-1="ent0001" data-entity-2="ent0007" data-link-type="dependency" data-source-line="78" id="lnk42"><path d="M36.07,546.6803 C43,666.3703 66.8,1034.5503 99.5,1076.2703 C114.02,1094.8003 136.6838,1100.8299 154.8438,1103.2499" fill="none" id="Student-to-UC_Login" style="stroke:#181818;stroke-width:1;"/><polygon fill="#181818" points="159.8,1103.9103,151.4072,1098.7565,154.8438,1103.2499,150.3505,1106.6864,159.8,1103.9103" style="stroke:#181818;stroke-width:1;stroke-linejoin:miter;stroke-miterlimit:10;"/></g><!--link Student to UC_Register--><g class="link" data-entity-1="ent0001" data-entity-2="ent0008" data-link-type="dependency" data-source-line="79" id="lnk43"><path d="M60.89,522.1303 C72.66,527.6103 86.67,533.9603 99.5,539.2703 C120.71,548.0603 140.9156,555.4547 156.7656,561.0547" fill="none" id="Student-to-UC_Register" style="stroke:#181818;stroke-width:1;"/><polygon fill="#181818" points="161.48,562.7203,154.3266,555.9506,156.7656,561.0547,151.6616,563.4937,161.48,562.7203" style="stroke:#181818;stroke-width:1;stroke-linejoin:miter;stroke-miterlimit:10;"/></g><!--link Student to UC_BrowseKG--><g class="link" data-entity-1="ent0001" data-entity-2="ent0009" data-link-type="dependency" data-source-line="80" id="lnk44"><path d="M54.67,546.4703 C66.01,564.1103 81.43,584.3203 99.5,598.2703 C111.49,607.5303 121.8884,612.7067 135.5984,617.5767" fill="none" id="Student-to-UC_BrowseKG" style="stroke:#181818;stroke-width:1;"/><polygon fill="#181818" points="140.31,619.2503,133.1681,612.4685,135.5984,617.5767,130.4903,620.0071,140.31,619.2503" style="stroke:#181818;stroke-width:1;stroke-linejoin:miter;stroke-miterlimit:10;"/></g><!--link Student to UC_GenPath--><g class="link" data-entity-1="ent0001" data-entity-2="ent0010" data-link-type="dependency" data-source-line="81" id="lnk45"><path d="M35.85,546.6403 C40.09,593.1203 54.02,672.2203 99.5,720.2703 C109.62,730.9703 119.2778,736.2583 132.9678,740.5383" fill="none" id="Student-to-UC_GenPath" style="stroke:#181818;stroke-width:1;"/><polygon fill="#181818" points="137.74,742.0303,130.3436,735.527,132.9678,740.5383,127.9564,743.1625,137.74,742.0303" style="stroke:#181818;stroke-width:1;stroke-linejoin:miter;stroke-miterlimit:10;"/></g><!--link Student to UC_Practice--><g class="link" data-entity-1="ent0001" data-entity-2="ent0011" data-link-type="dependency" data-source-line="82" id="lnk46"><path d="M41.53,546.6003 C50.15,580.4103 67.43,629.5203 99.5,660.2703 C112.68,672.9203 126.944,679.0726 142.924,683.4026" fill="none" id="Student-to-UC_Practice" style="stroke:#181818;stroke-width:1;"/><polygon fill="#181818" points="147.75,684.7103,140.1094,678.4957,142.924,683.4026,138.0171,686.2173,147.75,684.7103" style="stroke:#181818;stroke-width:1;stroke-linejoin:miter;stroke-miterlimit:10;"/></g><!--link Student to UC_Exam--><g class="link" data-entity-1="ent0001" data-entity-2="ent0012" data-link-type="dependency" data-source-line="83" id="lnk47"><path d="M38.86,471.8203 C47.98,406.8503 69.48,276.9603 99.5,243.2703 C111.41,229.9103 125.2104,223.8667 141.2804,219.9767" fill="none" id="Student-to-UC_Exam" style="stroke:#181818;stroke-width:1;"/><polygon fill="#181818" points="146.14,218.8003,136.4515,217.03,141.2804,219.9767,138.3337,224.8055,146.14,218.8003" style="stroke:#181818;stroke-width:1;stroke-linejoin:miter;stroke-miterlimit:10;"/></g><!--link Student to UC_WrongBook--><g class="link" data-entity-1="ent0001" data-entity-2="ent0013" data-link-type="dependency" data-source-line="84" id="lnk48"><path d="M36.13,471.8103 C40.69,426.0903 54.94,349.1103 99.5,302.2703 C110.65,290.5603 122.1486,284.9106 136.9686,280.7206" fill="none" id="Student-to-UC_WrongBook" style="stroke:#181818;stroke-width:1;"/><polygon fill="#181818" points="141.78,279.3603,132.0312,277.9597,136.9686,280.7206,134.2077,285.658,141.78,279.3603" style="stroke:#181818;stroke-width:1;stroke-linejoin:miter;stroke-miterlimit:10;"/></g><!--link Student to UC_Report--><g class="link" data-entity-1="ent0001" data-entity-2="ent0014" data-link-type="dependency" data-source-line="85" id="lnk49"><path d="M41.82,471.9603 C50.58,438.7803 67.89,391.0303 99.5,361.2703 C110.43,350.9803 120.5694,345.7676 134.4294,341.4176" fill="none" id="Student-to-UC_Report" style="stroke:#181818;stroke-width:1;"/><polygon fill="#181818" points="139.2,339.9203,129.4152,338.7989,134.4294,341.4176,131.8108,346.4318,139.2,339.9203" style="stroke:#181818;stroke-width:1;stroke-linejoin:miter;stroke-miterlimit:10;"/></g><!--link Student to UC_Resource--><g class="link" data-entity-1="ent0001" data-entity-2="ent0015" data-link-type="dependency" data-source-line="86" id="lnk50"><path d="M54.54,471.9003 C65.84,454.2203 81.27,434.0203 99.5,420.2703 C111.95,410.8903 122.9987,405.7868 137.1287,401.2568" fill="none" id="Student-to-UC_Resource" style="stroke:#181818;stroke-width:1;"/><polygon fill="#181818" points="141.89,399.7303,132.0985,398.6689,137.1287,401.2568,134.5408,406.287,141.89,399.7303" style="stroke:#181818;stroke-width:1;stroke-linejoin:miter;stroke-miterlimit:10;"/></g><!--link Student to UC_Favorite--><g class="link" data-entity-1="ent0001" data-entity-2="ent0016" data-link-type="dependency" data-source-line="87" id="lnk51"><path d="M60.98,496.7703 C70.32,492.4703 80.86,487.6403 90.5,483.2703 C94.49,481.4703 95.45,480.9303 99.5,479.2703 C116.34,472.4103 130.7893,466.9743 145.8793,461.5043" fill="none" id="Student-to-UC_Favorite" style="stroke:#181818;stroke-width:1;"/><polygon fill="#181818" points="150.58,459.8003,140.7556,459.1069,145.8793,461.5043,143.4819,466.628,150.58,459.8003" style="stroke:#181818;stroke-width:1;stroke-linejoin:miter;stroke-miterlimit:10;"/></g><!--link Student to UC_AIQA--><g class="link" data-entity-1="ent0001" data-entity-2="ent0017" data-link-type="dependency" data-source-line="88" id="lnk52"><path d="M60.98,509.2703 C86.3,509.2703 119,509.2703 144.6,509.2703" fill="none" id="Student-to-UC_AIQA" style="stroke:#181818;stroke-width:1;"/><polygon fill="#181818" points="149.6,509.2703,140.6,505.2703,144.6,509.2703,140.6,513.2703,149.6,509.2703" style="stroke:#181818;stroke-width:1;stroke-linejoin:miter;stroke-miterlimit:10;"/></g><!--link Teacher to UC_Login--><g class="link" data-entity-1="ent0002" data-entity-2="ent0007" data-link-type="dependency" data-source-line="91" id="lnk53"><path d="M45.95,1004.5903 C56.03,1029.4603 73.11,1060.4003 99.5,1076.2703 C119.17,1088.1003 139.6569,1095.0762 156.0069,1099.6762" fill="none" id="Teacher-to-UC_Login" style="stroke:#181818;stroke-width:1;"/><polygon fill="#181818" points="160.82,1101.0303,153.2397,1094.7423,156.0069,1099.6762,151.073,1102.4433,160.82,1101.0303" style="stroke:#181818;stroke-width:1;stroke-linejoin:miter;stroke-miterlimit:10;"/></g><!--link Teacher to UC_NodeMgr--><g class="link" data-entity-1="ent0002" data-entity-2="ent0018" data-link-type="dependency" data-source-line="92" id="lnk54"><path d="M39.46,1004.5503 C46.83,1042.2303 63.47,1099.8003 99.5,1135.2703 C111.02,1146.6203 122.5752,1152.2068 137.3352,1156.4568" fill="none" id="Teacher-to-UC_NodeMgr" style="stroke:#181818;stroke-width:1;"/><polygon fill="#181818" points="142.14,1157.8403,134.5982,1151.5062,137.3352,1156.4568,132.3846,1159.1939,142.14,1157.8403" style="stroke:#181818;stroke-width:1;stroke-linejoin:miter;stroke-miterlimit:10;"/></g><!--link Teacher to UC_QuestionMgr--><g class="link" data-entity-1="ent0002" data-entity-2="ent0019" data-link-type="dependency" data-source-line="93" id="lnk55"><path d="M44.56,929.8203 C54.45,900.9703 71.91,861.9703 99.5,837.2703 C112.95,825.2403 127.0082,819.3262 142.8282,815.1162" fill="none" id="Teacher-to-UC_QuestionMgr" style="stroke:#181818;stroke-width:1;"/><polygon fill="#181818" points="147.66,813.8303,137.934,812.2794,142.8282,815.1162,139.9914,820.0103,147.66,813.8303" style="stroke:#181818;stroke-width:1;stroke-linejoin:miter;stroke-miterlimit:10;"/></g><!--link Teacher to UC_ExamMgr--><g class="link" data-entity-1="ent0002" data-entity-2="ent0020" data-link-type="dependency" data-source-line="94" id="lnk56"><path d="M60.85,931.8203 C71.75,919.2703 85.16,905.9003 99.5,896.2703 C114.73,886.0603 129.2311,880.2779 144.8211,875.5979" fill="none" id="Teacher-to-UC_ExamMgr" style="stroke:#181818;stroke-width:1;"/><polygon fill="#181818" points="149.61,874.1603,139.84,872.9169,144.8211,875.5979,142.1401,880.5791,149.61,874.1603" style="stroke:#181818;stroke-width:1;stroke-linejoin:miter;stroke-miterlimit:10;"/></g><!--link Teacher to UC_ResourceMgr--><g class="link" data-entity-1="ent0002" data-entity-2="ent0021" data-link-type="dependency" data-source-line="95" id="lnk57"><path d="M60.93,958.3903 C70.26,955.4003 80.81,952.1003 90.5,949.2703 C107.59,944.3003 121.8598,940.4444 137.7998,936.3144" fill="none" id="Teacher-to-UC_ResourceMgr" style="stroke:#181818;stroke-width:1;"/><polygon fill="#181818" points="142.64,935.0603,132.9244,933.4455,137.7998,936.3144,134.9309,941.1898,142.64,935.0603" style="stroke:#181818;stroke-width:1;stroke-linejoin:miter;stroke-miterlimit:10;"/></g><!--link Teacher to UC_CrossTheme--><g class="link" data-entity-1="ent0002" data-entity-2="ent0022" data-link-type="dependency" data-source-line="96" id="lnk58"><path d="M60.98,970.8503 C80.62,973.4503 102.7533,976.384 125.8633,979.444" fill="none" id="Teacher-to-UC_CrossTheme" style="stroke:#181818;stroke-width:1;"/><polygon fill="#181818" points="130.82,980.1003,122.4229,974.9535,125.8633,979.444,121.3728,982.8843,130.82,980.1003" style="stroke:#181818;stroke-width:1;stroke-linejoin:miter;stroke-miterlimit:10;"/></g><!--link Teacher to UC_Analytics--><g class="link" data-entity-1="ent0002" data-entity-2="ent0023" data-link-type="dependency" data-source-line="97" id="lnk59"><path d="M60.8,990.6003 C72.2,999.7503 85.97,1009.8103 99.5,1017.2703 C115.81,1026.2703 130.7144,1032.0161 146.2044,1037.0461" fill="none" id="Teacher-to-UC_Analytics" style="stroke:#181818;stroke-width:1;"/><polygon fill="#181818" points="150.96,1038.5903,143.6354,1032.0062,146.2044,1037.0461,141.1646,1039.6151,150.96,1038.5903" style="stroke:#181818;stroke-width:1;stroke-linejoin:miter;stroke-miterlimit:10;"/></g><!--link Admin to UC_Login--><g class="link" data-entity-1="ent0003" data-entity-2="ent0007" data-link-type="dependency" data-source-line="100" id="lnk60"><path d="M37.77,1282.8803 C43.86,1241.3803 59.55,1174.9403 99.5,1134.2703 C115.79,1117.7003 137.4846,1111.3606 155.0046,1108.3006" fill="none" id="Admin-to-UC_Login" style="stroke:#181818;stroke-width:1;"/><polygon fill="#181818" points="159.93,1107.4403,150.376,1105.0484,155.0046,1108.3006,151.7524,1112.9291,159.93,1107.4403" style="stroke:#181818;stroke-width:1;stroke-linejoin:miter;stroke-miterlimit:10;"/></g><!--link Admin to UC_UserMgr--><g class="link" data-entity-1="ent0003" data-entity-2="ent0024" data-link-type="dependency" data-source-line="101" id="lnk61"><path d="M60.98,1313.1303 C86.46,1306.3803 119.6566,1297.5804 145.2566,1290.8004" fill="none" id="Admin-to-UC_UserMgr" style="stroke:#181818;stroke-width:1;"/><polygon fill="#181818" points="150.09,1289.5203,140.3659,1287.9578,145.2566,1290.8004,142.414,1295.6912,150.09,1289.5203" style="stroke:#181818;stroke-width:1;stroke-linejoin:miter;stroke-miterlimit:10;"/></g><!--link Admin to UC_RoleMgr--><g class="link" data-entity-1="ent0003" data-entity-2="ent0025" data-link-type="dependency" data-source-line="102" id="lnk62"><path d="M60.98,1324.2203 C85.24,1327.7803 115.9325,1332.2774 141.3925,1335.9974" fill="none" id="Admin-to-UC_RoleMgr" style="stroke:#181818;stroke-width:1;"/><polygon fill="#181818" points="146.34,1336.7203,138.0129,1331.4611,141.3925,1335.9974,136.8563,1339.3771,146.34,1336.7203" style="stroke:#181818;stroke-width:1;stroke-linejoin:miter;stroke-miterlimit:10;"/></g><!--link Admin to UC_Audit--><g class="link" data-entity-1="ent0003" data-entity-2="ent0026" data-link-type="dependency" data-source-line="103" id="lnk63"><path d="M60.73,1344.1003 C72.13,1353.4303 85.91,1363.6903 99.5,1371.2703 C113.87,1379.2903 126.1632,1384.3195 140.6332,1389.2095" fill="none" id="Admin-to-UC_Audit" style="stroke:#181818;stroke-width:1;"/><polygon fill="#181818" points="145.37,1390.8103,138.1243,1384.1395,140.6332,1389.2095,135.5631,1391.7184,145.37,1390.8103" style="stroke:#181818;stroke-width:1;stroke-linejoin:miter;stroke-miterlimit:10;"/></g><!--link Admin to UC_Notice--><g class="link" data-entity-1="ent0003" data-entity-2="ent0027" data-link-type="dependency" data-source-line="104" id="lnk64"><path d="M48.5,1357.6303 C59.37,1381.3003 76.37,1410.9903 99.5,1430.2703 C113.36,1441.8303 127.4487,1447.6954 143.1687,1452.0154" fill="none" id="Admin-to-UC_Notice" style="stroke:#181818;stroke-width:1;"/><polygon fill="#181818" points="147.99,1453.3403,140.3717,1447.0984,143.1687,1452.0154,138.2518,1454.8125,147.99,1453.3403" style="stroke:#181818;stroke-width:1;stroke-linejoin:miter;stroke-miterlimit:10;"/></g><!--link Admin to UC_CourseMgr--><g class="link" data-entity-1="ent0003" data-entity-2="ent0028" data-link-type="dependency" data-source-line="105" id="lnk65"><path d="M60.77,1286.7103 C71.76,1274.5903 85.24,1261.6203 99.5,1252.2703 C114.83,1242.2203 129.3453,1236.4617 144.9053,1231.7417" fill="none" id="Admin-to-UC_CourseMgr" style="stroke:#181818;stroke-width:1;"/><polygon fill="#181818" points="149.69,1230.2903,139.9164,1229.0751,144.9053,1231.7417,142.2386,1236.7306,149.69,1230.2903" style="stroke:#181818;stroke-width:1;stroke-linejoin:miter;stroke-miterlimit:10;"/></g><!--link Email to UC_SendCode--><g class="link" data-entity-1="ent0004" data-entity-2="ent0029" data-link-type="dependency" data-source-line="108" id="lnk66"><path d="M207.51,1521.3003 C216.5,1511.0803 226.02,1499.1503 233.37,1487.2703 C316.64,1352.5703 374.4177,1172.0548 389.4277,1122.6048" fill="none" id="Email-to-UC_SendCode" style="stroke:#181818;stroke-width:1;"/><polygon fill="#181818" points="390.88,1117.8203,384.4384,1125.2705,389.4277,1122.6048,392.0935,1127.5941,390.88,1117.8203" style="stroke:#181818;stroke-width:1;stroke-linejoin:miter;stroke-miterlimit:10;"/></g><!--link AI to UC_AIDiag--><g class="link" data-entity-1="ent0005" data-entity-2="ent0031" data-link-type="dependency" data-source-line="109" id="lnk67"><path d="M395.61,93.9403 C395.61,121.2503 395.61,143.5603 395.61,170.8803" fill="none" id="AI-to-UC_AIDiag" style="stroke:#181818;stroke-width:1;"/><polygon fill="#181818" points="395.61,175.8803,399.61,166.8803,395.61,170.8803,391.61,166.8803,395.61,175.8803" style="stroke:#181818;stroke-width:1;stroke-linejoin:miter;stroke-miterlimit:10;"/></g><?plantuml-src fLPRJnj757xthnZHXvI7f0MKFbGfaZ6OMcchf2RgIwLguntC2di7xQwJqAeIb-0QOs9i5WWAZQ6gYrK5kvHIBWRtlqJCxlg9lz3Po-nbrl2IDI-SyysSSxuvyvsv0xxuW2zo1-XguwgpWjzqmFiv5JmS1zhskR5uYLiN-E0F_QYjjslN5uLdWzSNfS41VB5hx3LmiwHj_ACl5wulbiaE7vI0F2s8Cvp4PS5JBZMTbb1Ev6CeWoJmKNpC_FaGF9paSXabZaGbAVm8mS20pycb52GbbTaC1DnpAACiz3bpCannCWG_HG3vHjX8OqFnmVYexKCI3oN7Fd3_i_knJosxF-ZFlfqbc58uCPrnz_Ql7x8-PhtlVolRfoZ3zquh7ZL_95ma0oSLe20W2Uaf1V226LL0OeIm_rwT8ty0bnUkJbyPSqkE8MBn0VhCGrHhVO2JGLB9yL1Kg4VRsCQd1Sip0RdK59IeHs_kwMjvN7bjEQDyLX2fgxlGr9k7siugBkvPth4i9sJ0WmVuzytkOiFkb-5X2X-5S2O9uJI89koz4c6eLuDjCZfd-aQ9bk7nszUpD-tAPcK5Pia9M3mw7Gdiqkt-jasMc_P2dxxTnfSRrWPFOZzyXTAap010EshWV8a2leLfWOIH6CnnsTWl38tgjRhHofDhPFnrI5UCIEYv31-ECs7LcbPO8ybTdUqQ9otSUKdnur1yn2bJGJWkd7H_Uwst5mcS0Xz9X5yX1HbaUG4NTxNZ5QFbRZdsWiio2TVg-ivALzqcksexxoZmEmc9wH64fdkXIRBQuf9MhEDAqQDZ1abABpASqevVQkTh7bf6EOdDM5F_DRRADdNwmXa5nxbdI18K1anwHpzGzSqAXKKJZwF14xTR-fOJfv7i3gSRVODu-7MQELX23pvV3m8Vvw1ithiGs2Oz23Qf3m7zt0JXbA7G4kEaONRoVkNgj6qcLQxWqqMwAYOXMPwOWbaOYaDE31Vosblt3A8YbvabRIC7INDl-osygGsjS1BCzuaCfN2k-rLZ-M-cC9G95wMjhrvTxcXRTVpV5cxk6SqzDyiSBp1jXPVUaSPZpony0OnMHs-i174nGgfinMUqOUtcSWd5tRdvxfybepMlxyxJhPBGL6QUxU6LTMsvehsgulCoAKDlRb7y19f1oT0T8Mrij8hQvW5pE8bHWKk7eBXGxVwowhiRqSINP0OmALIhHl4Gd-Vr-gzUtU8aL1I1bkr8h22cCcGAV09VAAGQAh8cnATmuDwzON_1u7EYslOAejSEs14hYgN5MbWdYWSsxm95sfNsnbaYV6luxyMFjUKEVlCMaukyEzzFLvfYO2qaf9buGewthKtQZMugfpGmvOuDJEG7jyvijljluE6cjUQRYQY-TKRzvaZt9hSrfl3IaJ6lqWDnHZMuUtVOcqsCqPr7ZDsTEeoTJXV6xCuIncvD3iRc3ObGBjOm25aTqMVihhupTblGNM9iDGyIuxnKWiGmHYhdZDalteoBIZLZzaiou_BfBkFngQptiA4I6op6Uba5ImcOgCG6Z5HE0qPRD0CcHo03DfyOUktdUutHnEn7dRF8bJroTTo3iiJgVm00?></g></svg>