<?xml version="1.0" encoding="UTF-8" standalone="no"?>
<!DOCTYPE svg PUBLIC "-//W3C//DTD SVG 1.1//EN"
 "http://www.w3.org/Graphics/SVG/1.1/DTD/svg11.dtd">
<!-- Generated by graphviz version 15.1.0 (20260618.0150)
 -->
<!-- Title: ER_Chen Pages: 1 -->
<svg width="1616pt" height="866pt"
 viewBox="0.00 0.00 1616.00 866.00" xmlns="http://www.w3.org/2000/svg" xmlns:xlink="http://www.w3.org/1999/xlink">
<g id="graph0" class="graph" transform="scale(1 1) rotate(0) translate(4 862.25)">
<title>ER_Chen</title>
<polygon fill="white" stroke="none" points="-4,4 -4,-862.25 1612.5,-862.25 1612.5,4 -4,4"/>
<text xml:space="preserve" text-anchor="middle" x="804.25" y="-10.95" font-family="Times,serif" font-size="14.00">智能导学系统 ER 图（22 张表）</text>
<g id="clust1" class="cluster">
<title>cluster_legend</title>
<polygon fill="white" stroke="black" points="8,-446.25 8,-521.25 253.75,-521.25 253.75,-446.25 8,-446.25"/>
<text xml:space="preserve" text-anchor="middle" x="130.88" y="-507.75" font-family="Times,serif" font-size="10.00">图例</text>
</g>
<!-- sys_role -->
<g id="node1" class="node">
<title>sys_role</title>
<polygon fill="none" stroke="black" stroke-width="1.5" points="158.38,-328.25 103.38,-328.25 103.38,-292.25 158.38,-292.25 158.38,-328.25"/>
<text xml:space="preserve" text-anchor="middle" x="130.88" y="-313.88" font-family="Times,serif" font-size="10.00">sys_role</text>
<text xml:space="preserve" text-anchor="middle" x="130.88" y="-302.62" font-family="Times,serif" font-size="10.00">系统角色</text>
</g>
<!-- R_has_user -->
<g id="node23" class="node">
<title>R_has_user</title>
<polygon fill="none" stroke="black" stroke-width="1.5" points="318.13,-355.25 285.5,-337.25 318.13,-319.25 350.76,-337.25 318.13,-355.25"/>
<text xml:space="preserve" text-anchor="middle" x="318.13" y="-335.25" font-family="Times,serif" font-size="10.00">拥有</text>
</g>
<!-- sys_role&#45;&gt;R_has_user -->
<g id="edge15" class="edge">
<title>sys_role&#45;&gt;R_has_user</title>
<path fill="none" stroke="black" stroke-width="1.2" d="M158.81,-314.18C194.24,-319.34 256.07,-328.35 291.06,-333.45"/>
<text xml:space="preserve" text-anchor="middle" x="265.62" y="-332.36" font-family="Times,serif" font-size="7.00">1</text>
</g>
<!-- A_role_id -->
<g id="node46" class="node">
<title>A_role_id</title>
<ellipse fill="none" stroke="black" stroke-width="0.8" cx="318.13" cy="-283.25" rx="27" ry="18"/>
<text xml:space="preserve" text-anchor="middle" x="318.13" y="-280.52" font-family="Times,serif" font-size="8.00">id {PK}</text>
</g>
<!-- sys_role&#45;&gt;A_role_id -->
<g id="edge1" class="edge">
<title>sys_role&#45;&gt;A_role_id</title>
<path fill="none" stroke="black" stroke-width="0.8" d="M158.81,-306.32C194.34,-301.15 256.42,-292.1 291.35,-287.01"/>
</g>
<!-- sys_user -->
<g id="node2" class="node">
<title>sys_user</title>
<polygon fill="none" stroke="black" stroke-width="1.5" points="447.01,-355.25 392.01,-355.25 392.01,-319.25 447.01,-319.25 447.01,-355.25"/>
<text xml:space="preserve" text-anchor="middle" x="419.51" y="-340.88" font-family="Times,serif" font-size="10.00">sys_user</text>
<text xml:space="preserve" text-anchor="middle" x="419.51" y="-329.62" font-family="Times,serif" font-size="10.00">系统用户</text>
</g>
<!-- R_teaches -->
<g id="node24" class="node">
<title>R_teaches</title>
<polygon fill="none" stroke="black" stroke-width="1.5" points="520.89,-623.25 488.26,-605.25 520.89,-587.25 553.52,-605.25 520.89,-623.25"/>
<text xml:space="preserve" text-anchor="middle" x="520.89" y="-603.25" font-family="Times,serif" font-size="10.00">授课</text>
</g>
<!-- sys_user&#45;&gt;R_teaches -->
<g id="edge17" class="edge">
<title>sys_user&#45;&gt;R_teaches</title>
<path fill="none" stroke="black" stroke-width="1.2" d="M426.17,-355.8C442.45,-409.15 488.26,-559.25 488.26,-559.25 488.26,-559.25 501.56,-578.59 510.91,-592.19"/>
<text xml:space="preserve" text-anchor="middle" x="467.64" y="-502.06" font-family="Times,serif" font-size="7.00">1</text>
</g>
<!-- R_creates -->
<g id="node31" class="node">
<title>R_creates</title>
<polygon fill="none" stroke="black" stroke-width="1.5" points="520.89,-550.25 488.26,-532.25 520.89,-514.25 553.52,-532.25 520.89,-550.25"/>
<text xml:space="preserve" text-anchor="middle" x="520.89" y="-530.25" font-family="Times,serif" font-size="10.00">创建</text>
</g>
<!-- sys_user&#45;&gt;R_creates -->
<g id="edge33" class="edge">
<title>sys_user&#45;&gt;R_creates</title>
<path fill="none" stroke="black" stroke-width="1.2" d="M428.02,-355.87C445.66,-399.61 488.26,-505.25 488.26,-505.25 488.26,-505.25 498.27,-513.79 507.03,-521.27"/>
<text xml:space="preserve" text-anchor="middle" x="467.64" y="-462.54" font-family="Times,serif" font-size="7.00">1</text>
</g>
<!-- R_takes -->
<g id="node34" class="node">
<title>R_takes</title>
<polygon fill="none" stroke="black" stroke-width="1.5" points="520.89,-496.25 488.26,-478.25 520.89,-460.25 553.52,-478.25 520.89,-496.25"/>
<text xml:space="preserve" text-anchor="middle" x="520.89" y="-476.25" font-family="Times,serif" font-size="10.00">参加</text>
</g>
<!-- sys_user&#45;&gt;R_takes -->
<g id="edge40" class="edge">
<title>sys_user&#45;&gt;R_takes</title>
<path fill="none" stroke="black" stroke-width="1.2" d="M431.55,-355.82C450.74,-388.12 488.26,-451.25 488.26,-451.25 488.26,-451.25 498.27,-459.79 507.03,-467.27"/>
<text xml:space="preserve" text-anchor="middle" x="467.64" y="-423.03" font-family="Times,serif" font-size="7.00">1</text>
</g>
<!-- R_studies -->
<g id="node35" class="node">
<title>R_studies</title>
<polygon fill="none" stroke="black" stroke-width="1.5" points="520.89,-442.25 488.26,-424.25 520.89,-406.25 553.52,-424.25 520.89,-442.25"/>
<text xml:space="preserve" text-anchor="middle" x="520.89" y="-422.25" font-family="Times,serif" font-size="10.00">学习</text>
</g>
<!-- sys_user&#45;&gt;R_studies -->
<g id="edge42" class="edge">
<title>sys_user&#45;&gt;R_studies</title>
<path fill="none" stroke="black" stroke-width="1.2" d="M441.58,-355.91C461.46,-373.52 488.26,-397.25 488.26,-397.25 488.26,-397.25 498.27,-405.79 507.03,-413.27"/>
<text xml:space="preserve" text-anchor="middle" x="467.64" y="-383.51" font-family="Times,serif" font-size="7.00">1</text>
</g>
<!-- R_generates -->
<g id="node36" class="node">
<title>R_generates</title>
<polygon fill="none" stroke="black" stroke-width="1.5" points="520.89,-388.25 488.26,-370.25 520.89,-352.25 553.52,-370.25 520.89,-388.25"/>
<text xml:space="preserve" text-anchor="middle" x="520.89" y="-368.25" font-family="Times,serif" font-size="10.00">生成</text>
</g>
<!-- sys_user&#45;&gt;R_generates -->
<g id="edge44" class="edge">
<title>sys_user&#45;&gt;R_generates</title>
<path fill="none" stroke="black" stroke-width="1.2" d="M447.67,-346.27C463.99,-351.69 484.42,-358.47 499.39,-363.44"/>
<text xml:space="preserve" text-anchor="middle" x="467.64" y="-356.1" font-family="Times,serif" font-size="7.00">1</text>
</g>
<!-- R_wrong -->
<g id="node38" class="node">
<title>R_wrong</title>
<polygon fill="none" stroke="black" stroke-width="1.5" points="520.89,-334.25 488.26,-316.25 520.89,-298.25 553.52,-316.25 520.89,-334.25"/>
<text xml:space="preserve" text-anchor="middle" x="520.89" y="-314.25" font-family="Times,serif" font-size="10.00">做错</text>
</g>
<!-- sys_user&#45;&gt;R_wrong -->
<g id="edge48" class="edge">
<title>sys_user&#45;&gt;R_wrong</title>
<path fill="none" stroke="black" stroke-width="1.2" d="M447.67,-331.51C462.84,-328.31 481.57,-324.35 496.15,-321.27"/>
<text xml:space="preserve" text-anchor="middle" x="467.64" y="-329.73" font-family="Times,serif" font-size="7.00">1</text>
</g>
<!-- R_publishes -->
<g id="node39" class="node">
<title>R_publishes</title>
<polygon fill="none" stroke="black" stroke-width="1.5" points="520.89,-280.25 488.26,-262.25 520.89,-244.25 553.52,-262.25 520.89,-280.25"/>
<text xml:space="preserve" text-anchor="middle" x="520.89" y="-260.25" font-family="Times,serif" font-size="10.00">发布</text>
</g>
<!-- sys_user&#45;&gt;R_publishes -->
<g id="edge50" class="edge">
<title>sys_user&#45;&gt;R_publishes</title>
<path fill="none" stroke="black" stroke-width="1.2" d="M445.33,-318.52C464.53,-304.03 490.41,-284.5 506.08,-272.67"/>
<text xml:space="preserve" text-anchor="middle" x="467.64" y="-304.35" font-family="Times,serif" font-size="7.00">1</text>
</g>
<!-- R_notifies -->
<g id="node41" class="node">
<title>R_notifies</title>
<polygon fill="none" stroke="black" stroke-width="1.5" points="520.89,-226.25 488.26,-208.25 520.89,-190.25 553.52,-208.25 520.89,-226.25"/>
<text xml:space="preserve" text-anchor="middle" x="520.89" y="-206.25" font-family="Times,serif" font-size="10.00">发布</text>
</g>
<!-- sys_user&#45;&gt;R_notifies -->
<g id="edge54" class="edge">
<title>sys_user&#45;&gt;R_notifies</title>
<path fill="none" stroke="black" stroke-width="1.2" d="M432.94,-318.54C452.5,-289.1 488.26,-235.25 488.26,-235.25 488.26,-235.25 498.27,-226.71 507.03,-219.23"/>
<text xml:space="preserve" text-anchor="middle" x="467.64" y="-270.59" font-family="Times,serif" font-size="7.00">1</text>
</g>
<!-- R_operates -->
<g id="node42" class="node">
<title>R_operates</title>
<polygon fill="none" stroke="black" stroke-width="1.5" points="520.89,-172.25 488.26,-154.25 520.89,-136.25 553.52,-154.25 520.89,-172.25"/>
<text xml:space="preserve" text-anchor="middle" x="520.89" y="-152.25" font-family="Times,serif" font-size="10.00">操作</text>
</g>
<!-- sys_user&#45;&gt;R_operates -->
<g id="edge58" class="edge">
<title>sys_user&#45;&gt;R_operates</title>
<path fill="none" stroke="black" stroke-width="1.2" d="M428.55,-318.74C446.49,-277.42 488.26,-181.25 488.26,-181.25 488.26,-181.25 498.27,-172.71 507.03,-165.23"/>
<text xml:space="preserve" text-anchor="middle" x="467.64" y="-234.06" font-family="Times,serif" font-size="7.00">1</text>
</g>
<!-- R_calls -->
<g id="node43" class="node">
<title>R_calls</title>
<polygon fill="none" stroke="black" stroke-width="1.5" points="520.89,-118.25 488.26,-100.25 520.89,-82.25 553.52,-100.25 520.89,-118.25"/>
<text xml:space="preserve" text-anchor="middle" x="520.89" y="-98.25" font-family="Times,serif" font-size="10.00">调用</text>
</g>
<!-- sys_user&#45;&gt;R_calls -->
<g id="edge60" class="edge">
<title>sys_user&#45;&gt;R_calls</title>
<path fill="none" stroke="black" stroke-width="1.2" d="M426.52,-318.61C443.1,-267.22 488.26,-127.25 488.26,-127.25 488.26,-127.25 498.27,-118.71 507.03,-111.23"/>
<text xml:space="preserve" text-anchor="middle" x="467.64" y="-197.53" font-family="Times,serif" font-size="7.00">1</text>
</g>
<!-- R_favorites -->
<g id="node45" class="node">
<title>R_favorites</title>
<polygon fill="none" stroke="black" stroke-width="1.5" points="520.89,-746.25 488.26,-728.25 520.89,-710.25 553.52,-728.25 520.89,-746.25"/>
<text xml:space="preserve" text-anchor="middle" x="520.89" y="-726.25" font-family="Times,serif" font-size="10.00">收藏</text>
</g>
<!-- sys_user&#45;&gt;R_favorites -->
<g id="edge56" class="edge">
<title>sys_user&#45;&gt;R_favorites</title>
<path fill="none" stroke="black" stroke-width="1.2" d="M424.75,-355.7C439.58,-420.29 488.26,-632.25 488.26,-632.25 488.26,-632.25 505.87,-685.69 514.81,-712.83"/>
<text xml:space="preserve" text-anchor="middle" x="467.64" y="-555.48" font-family="Times,serif" font-size="7.00">N</text>
</g>
<!-- A_user_id -->
<g id="node47" class="node">
<title>A_user_id</title>
<ellipse fill="none" stroke="black" stroke-width="0.8" cx="520.89" cy="-46.25" rx="27" ry="18"/>
<text xml:space="preserve" text-anchor="middle" x="520.89" y="-43.52" font-family="Times,serif" font-size="8.00">id {PK}</text>
</g>
<!-- sys_user&#45;&gt;A_user_id -->
<g id="edge2" class="edge">
<title>sys_user&#45;&gt;A_user_id</title>
<path fill="none" stroke="black" stroke-width="0.8" d="M425.27,-318.69C440.7,-258.59 488.26,-73.25 488.26,-73.25 488.26,-73.25 495.92,-66.71 503.7,-60.07"/>
</g>
<!-- sys_email -->
<g id="node3" class="node">
<title>sys_email</title>
<polygon fill="none" stroke="black" stroke-width="1.5" points="171.5,-382.25 90.25,-382.25 90.25,-346.25 171.5,-346.25 171.5,-382.25"/>
<text xml:space="preserve" text-anchor="middle" x="130.88" y="-367.88" font-family="Times,serif" font-size="10.00">sys_email_code</text>
<text xml:space="preserve" text-anchor="middle" x="130.88" y="-356.62" font-family="Times,serif" font-size="10.00">邮箱验证码</text>
</g>
<!-- course -->
<g id="node4" class="node">
<title>course</title>
<polygon fill="none" stroke="black" stroke-width="1.5" points="672.15,-642.25 618.15,-642.25 618.15,-606.25 672.15,-606.25 672.15,-642.25"/>
<text xml:space="preserve" text-anchor="middle" x="645.15" y="-627.88" font-family="Times,serif" font-size="10.00">course</text>
<text xml:space="preserve" text-anchor="middle" x="645.15" y="-616.62" font-family="Times,serif" font-size="10.00">课程</text>
</g>
<!-- R_has_chapter -->
<g id="node25" class="node">
<title>R_has_chapter</title>
<polygon fill="none" stroke="black" stroke-width="1.5" points="787.32,-750.25 754.69,-732.25 787.32,-714.25 819.95,-732.25 787.32,-750.25"/>
<text xml:space="preserve" text-anchor="middle" x="787.32" y="-730.25" font-family="Times,serif" font-size="10.00">分章</text>
</g>
<!-- course&#45;&gt;R_has_chapter -->
<g id="edge19" class="edge">
<title>course&#45;&gt;R_has_chapter</title>
<path fill="none" stroke="black" stroke-width="1.2" d="M666.71,-642.63C693.45,-666.53 736.77,-705.25 736.77,-705.25 736.77,-705.25 755.41,-715.41 769.82,-723.26"/>
<text xml:space="preserve" text-anchor="middle" x="716.15" y="-690.1" font-family="Times,serif" font-size="7.00">1</text>
</g>
<!-- R_contains -->
<g id="node26" class="node">
<title>R_contains</title>
<polygon fill="none" stroke="black" stroke-width="1.5" points="787.32,-642.25 754.69,-624.25 787.32,-606.25 819.95,-624.25 787.32,-642.25"/>
<text xml:space="preserve" text-anchor="middle" x="787.32" y="-622.25" font-family="Times,serif" font-size="10.00">包含</text>
</g>
<!-- course&#45;&gt;R_contains -->
<g id="edge21" class="edge">
<title>course&#45;&gt;R_contains</title>
<path fill="none" stroke="black" stroke-width="1.2" d="M672.84,-624.25C695.72,-624.25 728.77,-624.25 753.3,-624.25"/>
<text xml:space="preserve" text-anchor="middle" x="716.15" y="-626.6" font-family="Times,serif" font-size="7.00">1</text>
</g>
<!-- R_exam_course -->
<g id="node32" class="node">
<title>R_exam_course</title>
<polygon fill="none" stroke="black" stroke-width="1.5" points="787.32,-588.25 754.69,-570.25 787.32,-552.25 819.95,-570.25 787.32,-588.25"/>
<text xml:space="preserve" text-anchor="middle" x="787.32" y="-568.25" font-family="Times,serif" font-size="10.00">关联</text>
</g>
<!-- course&#45;&gt;R_exam_course -->
<g id="edge35" class="edge">
<title>course&#45;&gt;R_exam_course</title>
<path fill="none" stroke="black" stroke-width="1.2" d="M672.84,-613.97C700.33,-603.38 742.49,-587.14 766.94,-577.72"/>
<text xml:space="preserve" text-anchor="middle" x="716.15" y="-599.6" font-family="Times,serif" font-size="7.00">1</text>
</g>
<!-- A_course_id -->
<g id="node48" class="node">
<title>A_course_id</title>
<ellipse fill="none" stroke="black" stroke-width="0.8" cx="787.32" cy="-678.25" rx="27" ry="18"/>
<text xml:space="preserve" text-anchor="middle" x="787.32" y="-675.52" font-family="Times,serif" font-size="8.00">id {PK}</text>
</g>
<!-- course&#45;&gt;A_course_id -->
<g id="edge3" class="edge">
<title>course&#45;&gt;A_course_id</title>
<path fill="none" stroke="black" stroke-width="0.8" d="M672.84,-634.53C699.06,-644.63 738.62,-659.87 763.44,-669.43"/>
</g>
<!-- chapter -->
<g id="node5" class="node">
<title>chapter</title>
<polygon fill="none" stroke="black" stroke-width="1.5" points="952.5,-750.25 897.5,-750.25 897.5,-714.25 952.5,-714.25 952.5,-750.25"/>
<text xml:space="preserve" text-anchor="middle" x="925" y="-735.88" font-family="Times,serif" font-size="10.00">chapter</text>
<text xml:space="preserve" text-anchor="middle" x="925" y="-724.62" font-family="Times,serif" font-size="10.00">课程章节</text>
</g>
<!-- R_chapter_knode -->
<g id="node27" class="node">
<title>R_chapter_knode</title>
<polygon fill="none" stroke="black" stroke-width="1.5" points="1057.38,-773.25 1012.13,-735.25 1057.38,-697.25 1102.63,-735.25 1057.38,-773.25"/>
<text xml:space="preserve" text-anchor="middle" x="1057.38" y="-740.75" font-family="Times,serif" font-size="10.00">章节</text>
<text xml:space="preserve" text-anchor="middle" x="1057.38" y="-725.75" font-family="Times,serif" font-size="10.00">知识点</text>
</g>
<!-- chapter&#45;&gt;R_chapter_knode -->
<g id="edge23" class="edge">
<title>chapter&#45;&gt;R_chapter_knode</title>
<path fill="none" stroke="black" stroke-width="1.2" d="M953.02,-732.87C970.1,-733.26 992.57,-733.78 1012.21,-734.23"/>
<text xml:space="preserve" text-anchor="middle" x="991.5" y="-736.1" font-family="Times,serif" font-size="7.00">1</text>
</g>
<!-- A_chapter_id -->
<g id="node49" class="node">
<title>A_chapter_id</title>
<ellipse fill="none" stroke="black" stroke-width="0.8" cx="1057.38" cy="-661.25" rx="27" ry="18"/>
<text xml:space="preserve" text-anchor="middle" x="1057.38" y="-658.52" font-family="Times,serif" font-size="8.00">id {PK}</text>
</g>
<!-- chapter&#45;&gt;A_chapter_id -->
<g id="edge4" class="edge">
<title>chapter&#45;&gt;A_chapter_id</title>
<path fill="none" stroke="black" stroke-width="0.8" d="M953.02,-717.54C977.63,-704.13 1013.45,-684.63 1035.81,-672.45"/>
</g>
<!-- knode -->
<g id="node6" class="node">
<title>knode</title>
<polygon fill="none" stroke="black" stroke-width="1.5" points="1231.13,-751.25 1143.88,-751.25 1143.88,-715.25 1231.13,-715.25 1231.13,-751.25"/>
<text xml:space="preserve" text-anchor="middle" x="1187.5" y="-736.88" font-family="Times,serif" font-size="10.00">knowledge_node</text>
<text xml:space="preserve" text-anchor="middle" x="1187.5" y="-725.62" font-family="Times,serif" font-size="10.00">知识点节点</text>
</g>
<!-- R_prereq -->
<g id="node28" class="node">
<title>R_prereq</title>
<polygon fill="none" stroke="black" stroke-width="1.5" points="1322.93,-750.25 1290.3,-732.25 1322.93,-714.25 1355.56,-732.25 1322.93,-750.25"/>
<text xml:space="preserve" text-anchor="middle" x="1322.93" y="-730.25" font-family="Times,serif" font-size="10.00">前置</text>
</g>
<!-- knode&#45;&gt;R_prereq -->
<g id="edge25" class="edge">
<title>knode&#45;&gt;R_prereq</title>
<path fill="none" stroke="black" stroke-width="1.2" d="M1231.82,-732.93C1250.54,-732.79 1272.08,-732.62 1289.4,-732.49"/>
<text xml:space="preserve" text-anchor="middle" x="1251.75" y="-735.13" font-family="Times,serif" font-size="7.00">N</text>
</g>
<!-- R_belongs -->
<g id="node30" class="node">
<title>R_belongs</title>
<polygon fill="none" stroke="black" stroke-width="1.5" points="1322.93,-655.25 1290.3,-637.25 1322.93,-619.25 1355.56,-637.25 1322.93,-655.25"/>
<text xml:space="preserve" text-anchor="middle" x="1322.93" y="-635.25" font-family="Times,serif" font-size="10.00">属于</text>
</g>
<!-- knode&#45;&gt;R_belongs -->
<g id="edge29" class="edge">
<title>knode&#45;&gt;R_belongs</title>
<path fill="none" stroke="black" stroke-width="1.2" d="M1204.43,-714.86C1222.39,-694.12 1249.13,-663.25 1249.13,-663.25 1249.13,-663.25 1280.48,-652.05 1302.04,-644.35"/>
<text xml:space="preserve" text-anchor="middle" x="1251.75" y="-665.6" font-family="Times,serif" font-size="7.00">1</text>
</g>
<!-- R_resources -->
<g id="node44" class="node">
<title>R_resources</title>
<polygon fill="none" stroke="black" stroke-width="1.5" points="1322.93,-858.25 1272.38,-840.25 1322.93,-822.25 1373.48,-840.25 1322.93,-858.25"/>
<text xml:space="preserve" text-anchor="middle" x="1322.93" y="-838.25" font-family="Times,serif" font-size="10.00">提供资源</text>
</g>
<!-- knode&#45;&gt;R_resources -->
<g id="edge31" class="edge">
<title>knode&#45;&gt;R_resources</title>
<path fill="none" stroke="black" stroke-width="1.2" d="M1207.96,-751.8C1232.73,-775.44 1272.38,-813.25 1272.38,-813.25 1272.38,-813.25 1287.84,-821.67 1301.49,-829.11"/>
<text xml:space="preserve" text-anchor="middle" x="1251.75" y="-798.32" font-family="Times,serif" font-size="7.00">1</text>
</g>
<!-- A_node_id -->
<g id="node50" class="node">
<title>A_node_id</title>
<ellipse fill="none" stroke="black" stroke-width="0.8" cx="1322.93" cy="-786.25" rx="27" ry="18"/>
<text xml:space="preserve" text-anchor="middle" x="1322.93" y="-783.52" font-family="Times,serif" font-size="8.00">id {PK}</text>
</g>
<!-- knode&#45;&gt;A_node_id -->
<g id="edge5" class="edge">
<title>knode&#45;&gt;A_node_id</title>
<path fill="none" stroke="black" stroke-width="0.8" d="M1231.82,-750.46C1254.35,-759.4 1280.94,-769.97 1299.38,-777.29"/>
</g>
<!-- kedge -->
<g id="node7" class="node">
<title>kedge</title>
<polygon fill="none" stroke="black" stroke-width="1.5" points="1502.36,-750.25 1415.86,-750.25 1415.86,-714.25 1502.36,-714.25 1502.36,-750.25"/>
<text xml:space="preserve" text-anchor="middle" x="1459.11" y="-735.88" font-family="Times,serif" font-size="10.00">knowledge_edge</text>
<text xml:space="preserve" text-anchor="middle" x="1459.11" y="-724.62" font-family="Times,serif" font-size="10.00">知识点依赖边</text>
</g>
<!-- R_leads_to -->
<g id="node29" class="node">
<title>R_leads_to</title>
<polygon fill="none" stroke="black" stroke-width="1.5" points="1575.87,-724.25 1543.23,-706.25 1575.87,-688.25 1608.5,-706.25 1575.87,-724.25"/>
<text xml:space="preserve" text-anchor="middle" x="1575.87" y="-704.25" font-family="Times,serif" font-size="10.00">后继</text>
</g>
<!-- kedge&#45;&gt;R_leads_to -->
<g id="edge27" class="edge">
<title>kedge&#45;&gt;R_leads_to</title>
<path fill="none" stroke="black" stroke-width="1.2" d="M1502.84,-722.57C1519.28,-718.84 1537.44,-714.73 1551.41,-711.56"/>
<text xml:space="preserve" text-anchor="middle" x="1523.36" y="-720.04" font-family="Times,serif" font-size="7.00">1</text>
</g>
<!-- question -->
<g id="node8" class="node">
<title>question</title>
<polygon fill="none" stroke="black" stroke-width="1.5" points="1486.11,-636.25 1432.11,-636.25 1432.11,-600.25 1486.11,-600.25 1486.11,-636.25"/>
<text xml:space="preserve" text-anchor="middle" x="1459.11" y="-621.88" font-family="Times,serif" font-size="10.00">question</text>
<text xml:space="preserve" text-anchor="middle" x="1459.11" y="-610.62" font-family="Times,serif" font-size="10.00">习题库</text>
</g>
<!-- A_q_id -->
<g id="node51" class="node">
<title>A_q_id</title>
<ellipse fill="none" stroke="black" stroke-width="0.8" cx="1575.87" cy="-618.25" rx="27" ry="18"/>
<text xml:space="preserve" text-anchor="middle" x="1575.87" y="-615.52" font-family="Times,serif" font-size="8.00">id {PK}</text>
</g>
<!-- question&#45;&gt;A_q_id -->
<g id="edge6" class="edge">
<title>question&#45;&gt;A_q_id</title>
<path fill="none" stroke="black" stroke-width="0.8" d="M1486.73,-618.25C1505.4,-618.25 1530.24,-618.25 1548.79,-618.25"/>
</g>
<!-- exam -->
<g id="node9" class="node">
<title>exam</title>
<polygon fill="none" stroke="black" stroke-width="1.5" points="952.5,-583.25 897.5,-583.25 897.5,-547.25 952.5,-547.25 952.5,-583.25"/>
<text xml:space="preserve" text-anchor="middle" x="925" y="-568.88" font-family="Times,serif" font-size="10.00">exam</text>
<text xml:space="preserve" text-anchor="middle" x="925" y="-557.62" font-family="Times,serif" font-size="10.00">测评定义</text>
</g>
<!-- R_links -->
<g id="node33" class="node">
<title>R_links</title>
<polygon fill="none" stroke="black" stroke-width="1.5" points="1057.38,-533.25 1024.75,-515.25 1057.38,-497.25 1090.01,-515.25 1057.38,-533.25"/>
<text xml:space="preserve" text-anchor="middle" x="1057.38" y="-513.25" font-family="Times,serif" font-size="10.00">组卷</text>
</g>
<!-- exam&#45;&gt;R_links -->
<g id="edge37" class="edge">
<title>exam&#45;&gt;R_links</title>
<path fill="none" stroke="black" stroke-width="1.2" d="M953.02,-554.89C978.08,-545.28 1014.76,-531.21 1037.02,-522.67"/>
<text xml:space="preserve" text-anchor="middle" x="991.5" y="-542.6" font-family="Times,serif" font-size="7.00">N</text>
</g>
<!-- A_exam_id -->
<g id="node52" class="node">
<title>A_exam_id</title>
<ellipse fill="none" stroke="black" stroke-width="0.8" cx="1057.38" cy="-569.25" rx="27" ry="18"/>
<text xml:space="preserve" text-anchor="middle" x="1057.38" y="-566.52" font-family="Times,serif" font-size="8.00">id {PK}</text>
</g>
<!-- exam&#45;&gt;A_exam_id -->
<g id="edge7" class="edge">
<title>exam&#45;&gt;A_exam_id</title>
<path fill="none" stroke="black" stroke-width="0.8" d="M953.02,-566.08C975.69,-566.77 1007.88,-567.76 1030.29,-568.45"/>
</g>
<!-- exam_q -->
<g id="node10" class="node">
<title>exam_q</title>
<polygon fill="none" stroke="black" stroke-width="1.5" points="1226.63,-593.25 1148.38,-593.25 1148.38,-557.25 1226.63,-557.25 1226.63,-593.25"/>
<text xml:space="preserve" text-anchor="middle" x="1187.5" y="-578.88" font-family="Times,serif" font-size="10.00">exam_question</text>
<text xml:space="preserve" text-anchor="middle" x="1187.5" y="-567.62" font-family="Times,serif" font-size="10.00">测评题目关联</text>
</g>
<!-- exam_q&#45;&gt;question -->
<g id="edge39" class="edge">
<title>exam_q&#45;&gt;question</title>
<path fill="none" stroke="black" stroke-width="1.2" d="M1227.28,-580.7C1281.52,-588.32 1373.48,-601.25 1373.48,-601.25 1373.48,-601.25 1406.96,-607.97 1431.8,-612.96"/>
<text xml:space="preserve" text-anchor="middle" x="1322.93" y="-603.6" font-family="Times,serif" font-size="7.00">N</text>
</g>
<!-- exam_record -->
<g id="node11" class="node">
<title>exam_record</title>
<polygon fill="none" stroke="black" stroke-width="1.5" points="679.4,-496.25 610.9,-496.25 610.9,-460.25 679.4,-460.25 679.4,-496.25"/>
<text xml:space="preserve" text-anchor="middle" x="645.15" y="-481.88" font-family="Times,serif" font-size="10.00">exam_record</text>
<text xml:space="preserve" text-anchor="middle" x="645.15" y="-470.62" font-family="Times,serif" font-size="10.00">测评记录</text>
</g>
<!-- study_record -->
<g id="node12" class="node">
<title>study_record</title>
<polygon fill="none" stroke="black" stroke-width="1.5" points="679.77,-442.25 610.52,-442.25 610.52,-406.25 679.77,-406.25 679.77,-442.25"/>
<text xml:space="preserve" text-anchor="middle" x="645.15" y="-427.88" font-family="Times,serif" font-size="10.00">study_record</text>
<text xml:space="preserve" text-anchor="middle" x="645.15" y="-416.62" font-family="Times,serif" font-size="10.00">学习记录</text>
</g>
<!-- A_sr_id -->
<g id="node53" class="node">
<title>A_sr_id</title>
<ellipse fill="none" stroke="black" stroke-width="0.8" cx="787.32" cy="-478.25" rx="27" ry="18"/>
<text xml:space="preserve" text-anchor="middle" x="787.32" y="-475.52" font-family="Times,serif" font-size="8.00">id {PK}</text>
</g>
<!-- study_record&#45;&gt;A_sr_id -->
<g id="edge8" class="edge">
<title>study_record&#45;&gt;A_sr_id</title>
<path fill="none" stroke="black" stroke-width="0.8" d="M680.44,-437.46C706.21,-447.39 740.82,-460.72 763.34,-469.4"/>
</g>
<!-- study_path -->
<g id="node13" class="node">
<title>study_path</title>
<polygon fill="none" stroke="black" stroke-width="1.5" points="676.02,-388.25 614.27,-388.25 614.27,-352.25 676.02,-352.25 676.02,-388.25"/>
<text xml:space="preserve" text-anchor="middle" x="645.15" y="-373.88" font-family="Times,serif" font-size="10.00">study_path</text>
<text xml:space="preserve" text-anchor="middle" x="645.15" y="-362.62" font-family="Times,serif" font-size="10.00">学习路径</text>
</g>
<!-- R_details -->
<g id="node37" class="node">
<title>R_details</title>
<polygon fill="none" stroke="black" stroke-width="1.5" points="787.32,-442.25 736.77,-424.25 787.32,-406.25 837.88,-424.25 787.32,-442.25"/>
<text xml:space="preserve" text-anchor="middle" x="787.32" y="-422.25" font-family="Times,serif" font-size="10.00">包含节点</text>
</g>
<!-- study_path&#45;&gt;R_details -->
<g id="edge46" class="edge">
<title>study_path&#45;&gt;R_details</title>
<path fill="none" stroke="black" stroke-width="1.2" d="M676.56,-381.97C702.01,-391.77 737.85,-405.58 761.57,-414.71"/>
<text xml:space="preserve" text-anchor="middle" x="716.15" y="-399.6" font-family="Times,serif" font-size="7.00">1</text>
</g>
<!-- A_sp_id -->
<g id="node54" class="node">
<title>A_sp_id</title>
<ellipse fill="none" stroke="black" stroke-width="0.8" cx="787.32" cy="-370.25" rx="27" ry="18"/>
<text xml:space="preserve" text-anchor="middle" x="787.32" y="-367.52" font-family="Times,serif" font-size="8.00">id {PK}</text>
</g>
<!-- study_path&#45;&gt;A_sp_id -->
<g id="edge9" class="edge">
<title>study_path&#45;&gt;A_sp_id</title>
<path fill="none" stroke="black" stroke-width="0.8" d="M676.56,-370.25C701.52,-370.25 736.5,-370.25 760.21,-370.25"/>
</g>
<!-- path_detail -->
<g id="node14" class="node">
<title>path_detail</title>
<polygon fill="none" stroke="black" stroke-width="1.5" points="956.25,-442.25 893.75,-442.25 893.75,-406.25 956.25,-406.25 956.25,-442.25"/>
<text xml:space="preserve" text-anchor="middle" x="925" y="-427.88" font-family="Times,serif" font-size="10.00">path_detail</text>
<text xml:space="preserve" text-anchor="middle" x="925" y="-416.62" font-family="Times,serif" font-size="10.00">路径详情</text>
</g>
<!-- wrong_q -->
<g id="node15" class="node">
<title>wrong_q</title>
<polygon fill="none" stroke="black" stroke-width="1.5" points="686.52,-334.25 603.77,-334.25 603.77,-298.25 686.52,-298.25 686.52,-334.25"/>
<text xml:space="preserve" text-anchor="middle" x="645.15" y="-319.88" font-family="Times,serif" font-size="10.00">wrong_question</text>
<text xml:space="preserve" text-anchor="middle" x="645.15" y="-308.62" font-family="Times,serif" font-size="10.00">错题本</text>
</g>
<!-- A_wq_id -->
<g id="node55" class="node">
<title>A_wq_id</title>
<ellipse fill="none" stroke="black" stroke-width="0.8" cx="787.32" cy="-316.25" rx="27" ry="18"/>
<text xml:space="preserve" text-anchor="middle" x="787.32" y="-313.52" font-family="Times,serif" font-size="8.00">id {PK}</text>
</g>
<!-- wrong_q&#45;&gt;A_wq_id -->
<g id="edge10" class="edge">
<title>wrong_q&#45;&gt;A_wq_id</title>
<path fill="none" stroke="black" stroke-width="0.8" d="M687.07,-316.25C710.66,-316.25 739.63,-316.25 760.17,-316.25"/>
</g>
<!-- theme -->
<g id="node16" class="node">
<title>theme</title>
<polygon fill="none" stroke="black" stroke-width="1.5" points="695.52,-280.25 594.77,-280.25 594.77,-244.25 695.52,-244.25 695.52,-280.25"/>
<text xml:space="preserve" text-anchor="middle" x="645.15" y="-265.88" font-family="Times,serif" font-size="10.00">cross_subject_theme</text>
<text xml:space="preserve" text-anchor="middle" x="645.15" y="-254.62" font-family="Times,serif" font-size="10.00">跨学科主题</text>
</g>
<!-- R_theme_node -->
<g id="node40" class="node">
<title>R_theme_node</title>
<polygon fill="none" stroke="black" stroke-width="1.5" points="787.32,-280.25 754.69,-262.25 787.32,-244.25 819.95,-262.25 787.32,-280.25"/>
<text xml:space="preserve" text-anchor="middle" x="787.32" y="-260.25" font-family="Times,serif" font-size="10.00">关联</text>
</g>
<!-- theme&#45;&gt;R_theme_node -->
<g id="edge52" class="edge">
<title>theme&#45;&gt;R_theme_node</title>
<path fill="none" stroke="black" stroke-width="1.2" d="M695.96,-262.25C715.01,-262.25 736.23,-262.25 753.33,-262.25"/>
<text xml:space="preserve" text-anchor="middle" x="716.15" y="-264.6" font-family="Times,serif" font-size="7.00">N</text>
</g>
<!-- A_theme_id -->
<g id="node56" class="node">
<title>A_theme_id</title>
<ellipse fill="none" stroke="black" stroke-width="0.8" cx="787.32" cy="-208.25" rx="27" ry="18"/>
<text xml:space="preserve" text-anchor="middle" x="787.32" y="-205.53" font-family="Times,serif" font-size="8.00">id {PK}</text>
</g>
<!-- theme&#45;&gt;A_theme_id -->
<g id="edge11" class="edge">
<title>theme&#45;&gt;A_theme_id</title>
<path fill="none" stroke="black" stroke-width="0.8" d="M694.78,-243.51C718.19,-234.5 745.13,-224.12 763.69,-216.97"/>
</g>
<!-- theme_node -->
<g id="node17" class="node">
<title>theme_node</title>
<polygon fill="none" stroke="black" stroke-width="1.5" points="970.88,-280.25 879.13,-280.25 879.13,-244.25 970.88,-244.25 970.88,-280.25"/>
<text xml:space="preserve" text-anchor="middle" x="925" y="-265.88" font-family="Times,serif" font-size="10.00">cross_theme_node</text>
<text xml:space="preserve" text-anchor="middle" x="925" y="-254.62" font-family="Times,serif" font-size="10.00">主题&#45;知识点关联</text>
</g>
<!-- sys_notice -->
<g id="node18" class="node">
<title>sys_notice</title>
<polygon fill="none" stroke="black" stroke-width="1.5" points="674.9,-226.25 615.4,-226.25 615.4,-190.25 674.9,-190.25 674.9,-226.25"/>
<text xml:space="preserve" text-anchor="middle" x="645.15" y="-211.88" font-family="Times,serif" font-size="10.00">sys_notice</text>
<text xml:space="preserve" text-anchor="middle" x="645.15" y="-200.62" font-family="Times,serif" font-size="10.00">系统公告</text>
</g>
<!-- A_notice_id -->
<g id="node57" class="node">
<title>A_notice_id</title>
<ellipse fill="none" stroke="black" stroke-width="0.8" cx="787.32" cy="-154.25" rx="27" ry="18"/>
<text xml:space="preserve" text-anchor="middle" x="787.32" y="-151.53" font-family="Times,serif" font-size="8.00">id {PK}</text>
</g>
<!-- sys_notice&#45;&gt;A_notice_id -->
<g id="edge12" class="edge">
<title>sys_notice&#45;&gt;A_notice_id</title>
<path fill="none" stroke="black" stroke-width="0.8" d="M675.53,-196.93C701.7,-186.85 739.46,-172.3 763.44,-163.06"/>
</g>
<!-- sys_log -->
<g id="node19" class="node">
<title>sys_log</title>
<polygon fill="none" stroke="black" stroke-width="1.5" points="680.52,-172.25 609.77,-172.25 609.77,-136.25 680.52,-136.25 680.52,-172.25"/>
<text xml:space="preserve" text-anchor="middle" x="645.15" y="-157.88" font-family="Times,serif" font-size="10.00">sys_oper_log</text>
<text xml:space="preserve" text-anchor="middle" x="645.15" y="-146.62" font-family="Times,serif" font-size="10.00">操作日志</text>
</g>
<!-- ai_log -->
<g id="node20" class="node">
<title>ai_log</title>
<polygon fill="none" stroke="black" stroke-width="1.5" points="677.9,-118.25 612.4,-118.25 612.4,-82.25 677.9,-82.25 677.9,-118.25"/>
<text xml:space="preserve" text-anchor="middle" x="645.15" y="-103.88" font-family="Times,serif" font-size="10.00">ai_call_log</text>
<text xml:space="preserve" text-anchor="middle" x="645.15" y="-92.62" font-family="Times,serif" font-size="10.00">AI调用日志</text>
</g>
<!-- learn_res -->
<g id="node21" class="node">
<title>learn_res</title>
<polygon fill="none" stroke="black" stroke-width="1.5" points="1503.48,-858.25 1414.73,-858.25 1414.73,-822.25 1503.48,-822.25 1503.48,-858.25"/>
<text xml:space="preserve" text-anchor="middle" x="1459.11" y="-843.88" font-family="Times,serif" font-size="10.00">learning_resource</text>
<text xml:space="preserve" text-anchor="middle" x="1459.11" y="-832.62" font-family="Times,serif" font-size="10.00">学习资源</text>
</g>
<!-- A_lr_id -->
<g id="node58" class="node">
<title>A_lr_id</title>
<ellipse fill="none" stroke="black" stroke-width="0.8" cx="1575.87" cy="-840.25" rx="27" ry="18"/>
<text xml:space="preserve" text-anchor="middle" x="1575.87" y="-837.52" font-family="Times,serif" font-size="8.00">id {PK}</text>
</g>
<!-- learn_res&#45;&gt;A_lr_id -->
<g id="edge13" class="edge">
<title>learn_res&#45;&gt;A_lr_id</title>
<path fill="none" stroke="black" stroke-width="0.8" d="M1504.15,-840.25C1519.19,-840.25 1535.53,-840.25 1548.71,-840.25"/>
</g>
<!-- user_fav -->
<g id="node22" class="node">
<title>user_fav</title>
<polygon fill="none" stroke="black" stroke-width="1.5" points="165.5,-436.25 96.25,-436.25 96.25,-400.25 165.5,-400.25 165.5,-436.25"/>
<text xml:space="preserve" text-anchor="middle" x="130.88" y="-421.88" font-family="Times,serif" font-size="10.00">user_favorite</text>
<text xml:space="preserve" text-anchor="middle" x="130.88" y="-410.62" font-family="Times,serif" font-size="10.00">用户收藏</text>
</g>
<!-- A_fav_id -->
<g id="node59" class="node">
<title>A_fav_id</title>
<ellipse fill="none" stroke="black" stroke-width="0.8" cx="318.13" cy="-418.25" rx="27" ry="18"/>
<text xml:space="preserve" text-anchor="middle" x="318.13" y="-415.52" font-family="Times,serif" font-size="8.00">id {PK}</text>
</g>
<!-- user_fav&#45;&gt;A_fav_id -->
<g id="edge14" class="edge">
<title>user_fav&#45;&gt;A_fav_id</title>
<path fill="none" stroke="black" stroke-width="0.8" d="M165.85,-418.25C201.89,-418.25 258.05,-418.25 290.85,-418.25"/>
</g>
<!-- R_has_user&#45;&gt;sys_user -->
<g id="edge16" class="edge">
<title>R_has_user&#45;&gt;sys_user</title>
<path fill="none" stroke="black" stroke-width="1.2" d="M352.22,-337.25C364.98,-337.25 379.39,-337.25 391.51,-337.25"/>
<text xml:space="preserve" text-anchor="middle" x="371.39" y="-339.6" font-family="Times,serif" font-size="7.00">N</text>
</g>
<!-- R_teaches&#45;&gt;course -->
<g id="edge18" class="edge">
<title>R_teaches&#45;&gt;course</title>
<path fill="none" stroke="black" stroke-width="1.2" d="M547.52,-609.23C568.1,-612.43 596.91,-616.91 617.71,-620.14"/>
<text xml:space="preserve" text-anchor="middle" x="574.15" y="-615.96" font-family="Times,serif" font-size="7.00">N</text>
</g>
<!-- R_has_chapter&#45;&gt;chapter -->
<g id="edge20" class="edge">
<title>R_has_chapter&#45;&gt;chapter</title>
<path fill="none" stroke="black" stroke-width="1.2" d="M821.17,-732.25C844.38,-732.25 875.13,-732.25 896.93,-732.25"/>
<text xml:space="preserve" text-anchor="middle" x="858.5" y="-734.6" font-family="Times,serif" font-size="7.00">N</text>
</g>
<!-- R_contains&#45;&gt;knode -->
<g id="edge22" class="edge">
<title>R_contains&#45;&gt;knode</title>
<path fill="none" stroke="black" stroke-width="1.2" d="M819.61,-625.25C899.11,-627.77 1102.63,-634.25 1102.63,-634.25 1102.63,-634.25 1146.43,-685.95 1170.73,-714.63"/>
<text xml:space="preserve" text-anchor="middle" x="991.5" y="-633.08" font-family="Times,serif" font-size="7.00">N</text>
</g>
<!-- R_chapter_knode&#45;&gt;knode -->
<g id="edge24" class="edge">
<title>R_chapter_knode&#45;&gt;knode</title>
<path fill="none" stroke="black" stroke-width="1.2" d="M1102.83,-734.56C1115.98,-734.35 1130.36,-734.13 1143.43,-733.92"/>
<text xml:space="preserve" text-anchor="middle" x="1123.25" y="-736.6" font-family="Times,serif" font-size="7.00">N</text>
</g>
<!-- R_prereq&#45;&gt;kedge -->
<g id="edge26" class="edge">
<title>R_prereq&#45;&gt;kedge</title>
<path fill="none" stroke="black" stroke-width="1.2" d="M1357.1,-732.25C1374.64,-732.25 1396.37,-732.25 1415.19,-732.25"/>
<text xml:space="preserve" text-anchor="middle" x="1394.11" y="-734.6" font-family="Times,serif" font-size="7.00">1</text>
</g>
<!-- R_leads_to&#45;&gt;knode -->
<g id="edge28" class="edge">
<title>R_leads_to&#45;&gt;knode</title>
<path fill="none" stroke="black" stroke-width="1.2" d="M1542.52,-705.8C1523.63,-705.53 1503.48,-705.25 1503.48,-705.25 1503.48,-705.25 1272.38,-705.25 1272.38,-705.25 1272.38,-705.25 1252.06,-712.03 1231.42,-718.92"/>
<text xml:space="preserve" text-anchor="middle" x="1394.11" y="-707.6" font-family="Times,serif" font-size="7.00">N</text>
</g>
<!-- R_belongs&#45;&gt;question -->
<g id="edge30" class="edge">
<title>R_belongs&#45;&gt;question</title>
<path fill="none" stroke="black" stroke-width="1.2" d="M1350.12,-633.54C1373.61,-630.22 1407.92,-625.36 1431.53,-622.01"/>
<text xml:space="preserve" text-anchor="middle" x="1394.11" y="-629.53" font-family="Times,serif" font-size="7.00">N</text>
</g>
<!-- R_creates&#45;&gt;exam -->
<g id="edge34" class="edge">
<title>R_creates&#45;&gt;exam</title>
<path fill="none" stroke="black" stroke-width="1.2" d="M553.05,-533.33C632.77,-536.11 837.88,-543.25 837.88,-543.25 837.88,-543.25 871.94,-551.95 897.22,-558.41"/>
<text xml:space="preserve" text-anchor="middle" x="716.15" y="-541.36" font-family="Times,serif" font-size="7.00">N</text>
</g>
<!-- R_exam_course&#45;&gt;exam -->
<g id="edge36" class="edge">
<title>R_exam_course&#45;&gt;exam</title>
<path fill="none" stroke="black" stroke-width="1.2" d="M819.11,-569.12C842.57,-568.25 874.55,-567.07 897.01,-566.24"/>
<text xml:space="preserve" text-anchor="middle" x="858.5" y="-570.1" font-family="Times,serif" font-size="7.00">N</text>
</g>
<!-- R_links&#45;&gt;exam_q -->
<g id="edge38" class="edge">
<title>R_links&#45;&gt;exam_q</title>
<path fill="none" stroke="black" stroke-width="1.2" d="M1076.19,-523.59C1094.62,-532.22 1123.98,-545.97 1147.78,-557.12"/>
<text xml:space="preserve" text-anchor="middle" x="1123.25" y="-547.6" font-family="Times,serif" font-size="7.00">1</text>
</g>
<!-- R_takes&#45;&gt;exam_record -->
<g id="edge41" class="edge">
<title>R_takes&#45;&gt;exam_record</title>
<path fill="none" stroke="black" stroke-width="1.2" d="M554.97,-478.25C572.09,-478.25 592.94,-478.25 610.18,-478.25"/>
<text xml:space="preserve" text-anchor="middle" x="574.15" y="-480.6" font-family="Times,serif" font-size="7.00">N</text>
</g>
<!-- R_studies&#45;&gt;study_record -->
<g id="edge43" class="edge">
<title>R_studies&#45;&gt;study_record</title>
<path fill="none" stroke="black" stroke-width="1.2" d="M554.97,-424.25C572.09,-424.25 592.94,-424.25 610.18,-424.25"/>
<text xml:space="preserve" text-anchor="middle" x="574.15" y="-426.6" font-family="Times,serif" font-size="7.00">N</text>
</g>
<!-- R_generates&#45;&gt;study_path -->
<g id="edge45" class="edge">
<title>R_generates&#45;&gt;study_path</title>
<path fill="none" stroke="black" stroke-width="1.2" d="M554.97,-370.25C573.22,-370.25 595.72,-370.25 613.55,-370.25"/>
<text xml:space="preserve" text-anchor="middle" x="574.15" y="-372.6" font-family="Times,serif" font-size="7.00">N</text>
</g>
<!-- R_details&#45;&gt;path_detail -->
<g id="edge47" class="edge">
<title>R_details&#45;&gt;path_detail</title>
<path fill="none" stroke="black" stroke-width="1.2" d="M840.01,-424.25C857.98,-424.25 877.56,-424.25 893.29,-424.25"/>
<text xml:space="preserve" text-anchor="middle" x="858.5" y="-426.6" font-family="Times,serif" font-size="7.00">N</text>
</g>
<!-- R_wrong&#45;&gt;wrong_q -->
<g id="edge49" class="edge">
<title>R_wrong&#45;&gt;wrong_q</title>
<path fill="none" stroke="black" stroke-width="1.2" d="M554.97,-316.25C569.82,-316.25 587.49,-316.25 603.17,-316.25"/>
<text xml:space="preserve" text-anchor="middle" x="574.15" y="-318.6" font-family="Times,serif" font-size="7.00">N</text>
</g>
<!-- R_publishes&#45;&gt;theme -->
<g id="edge51" class="edge">
<title>R_publishes&#45;&gt;theme</title>
<path fill="none" stroke="black" stroke-width="1.2" d="M554.97,-262.25C567,-262.25 580.87,-262.25 594.03,-262.25"/>
<text xml:space="preserve" text-anchor="middle" x="574.15" y="-264.6" font-family="Times,serif" font-size="7.00">N</text>
</g>
<!-- R_theme_node&#45;&gt;theme_node -->
<g id="edge53" class="edge">
<title>R_theme_node&#45;&gt;theme_node</title>
<path fill="none" stroke="black" stroke-width="1.2" d="M821.17,-262.25C838.34,-262.25 859.64,-262.25 878.39,-262.25"/>
<text xml:space="preserve" text-anchor="middle" x="858.5" y="-264.6" font-family="Times,serif" font-size="7.00">1</text>
</g>
<!-- R_notifies&#45;&gt;sys_notice -->
<g id="edge55" class="edge">
<title>R_notifies&#45;&gt;sys_notice</title>
<path fill="none" stroke="black" stroke-width="1.2" d="M554.97,-208.25C573.64,-208.25 596.77,-208.25 614.79,-208.25"/>
<text xml:space="preserve" text-anchor="middle" x="574.15" y="-210.6" font-family="Times,serif" font-size="7.00">N</text>
</g>
<!-- R_operates&#45;&gt;sys_log -->
<g id="edge59" class="edge">
<title>R_operates&#45;&gt;sys_log</title>
<path fill="none" stroke="black" stroke-width="1.2" d="M554.97,-154.25C571.8,-154.25 592.26,-154.25 609.33,-154.25"/>
<text xml:space="preserve" text-anchor="middle" x="574.15" y="-156.6" font-family="Times,serif" font-size="7.00">N</text>
</g>
<!-- R_calls&#45;&gt;ai_log -->
<g id="edge61" class="edge">
<title>R_calls&#45;&gt;ai_log</title>
<path fill="none" stroke="black" stroke-width="1.2" d="M554.97,-100.25C572.65,-100.25 594.33,-100.25 611.88,-100.25"/>
<text xml:space="preserve" text-anchor="middle" x="574.15" y="-102.6" font-family="Times,serif" font-size="7.00">N</text>
</g>
<!-- R_resources&#45;&gt;learn_res -->
<g id="edge32" class="edge">
<title>R_resources&#45;&gt;learn_res</title>
<path fill="none" stroke="black" stroke-width="1.2" d="M1375.42,-840.25C1388.28,-840.25 1401.95,-840.25 1414.4,-840.25"/>
<text xml:space="preserve" text-anchor="middle" x="1394.11" y="-842.6" font-family="Times,serif" font-size="7.00">N</text>
</g>
<!-- R_favorites&#45;&gt;knode -->
<g id="edge57" class="edge">
<title>R_favorites&#45;&gt;knode</title>
<path fill="none" stroke="black" stroke-width="1.2" d="M537.37,-737.5C570.27,-757.14 644.15,-801.25 644.15,-801.25 644.15,-801.25 644.15,-801.25 1058.38,-801.25 1058.38,-801.25 1102.63,-782.25 1102.63,-782.25 1102.63,-782.25 1131.04,-765.65 1154.79,-751.77"/>
<text xml:space="preserve" text-anchor="middle" x="858.5" y="-803.6" font-family="Times,serif" font-size="7.00">N</text>
</g>
<!-- l1 -->
<g id="node60" class="node">
<title>l1</title>
<text xml:space="preserve" text-anchor="middle" x="130.88" y="-470.7" font-family="Times,serif" font-size="8.00">□ 实体 &#160;&#160;&#160;◇ 关系 &#160;&#160;&#160;○ 属性 &#160;&#160;&#160;── 关联 &#160;&#160;&#160;1/N 基数 &#160;&#160;&#160;{PK} 主键</text>
</g>
</g>
</svg>
