<?xml version="1.0" encoding="UTF-8" standalone="no"?>
<!DOCTYPE svg PUBLIC "-//W3C//DTD SVG 1.1//EN"
 "http://www.w3.org/Graphics/SVG/1.1/DTD/svg11.dtd">
<!-- Generated by graphviz version 15.1.0 (20260618.0150)
 -->
<!-- Title: ER_Chen Pages: 1 -->
<svg width="1675pt" height="866pt"
 viewBox="0.00 0.00 1675.00 866.00" xmlns="http://www.w3.org/2000/svg" xmlns:xlink="http://www.w3.org/1999/xlink">
<g id="graph0" class="graph" transform="scale(1 1) rotate(0) translate(4 862.25)">
<title>ER_Chen</title>
<polygon fill="white" stroke="none" points="-4,4 -4,-862.25 1671,-862.25 1671,4 -4,4"/>
<text xml:space="preserve" text-anchor="middle" x="833.5" y="-10.95" font-family="Times,serif" font-size="14.00">智能导学系统 ER 图（22 张表）</text>
<g id="clust1" class="cluster">
<title>cluster_legend</title>
<polygon fill="white" stroke="black" points="8,-446.25 8,-521.25 307,-521.25 307,-446.25 8,-446.25"/>
<text xml:space="preserve" text-anchor="middle" x="157.5" y="-507.75" font-family="Times,serif" font-size="10.00">图例</text>
</g>
<!-- sys_role -->
<g id="node1" class="node">
<title>sys_role</title>
<polygon fill="none" stroke="black" stroke-width="1.5" points="185,-328.25 130,-328.25 130,-292.25 185,-292.25 185,-328.25"/>
<text xml:space="preserve" text-anchor="middle" x="157.5" y="-313.88" font-family="Times,serif" font-size="10.00">sys_role</text>
<text xml:space="preserve" text-anchor="middle" x="157.5" y="-302.62" font-family="Times,serif" font-size="10.00">系统角色</text>
</g>
<!-- R_has_user -->
<g id="node23" class="node">
<title>R_has_user</title>
<polygon fill="none" stroke="black" stroke-width="1.5" points="371.38,-355.25 338.75,-337.25 371.38,-319.25 404.01,-337.25 371.38,-355.25"/>
<text xml:space="preserve" text-anchor="middle" x="371.38" y="-335.25" font-family="Times,serif" font-size="10.00">拥有</text>
</g>
<!-- sys_role&#45;&gt;R_has_user -->
<g id="edge15" class="edge">
<title>sys_role&#45;&gt;R_has_user</title>
<path fill="none" stroke="black" stroke-width="1.2" d="M185.33,-313.67C225.98,-318.85 302.72,-328.63 343.43,-333.82"/>
<text xml:space="preserve" text-anchor="middle" x="318.88" y="-333.08" font-family="Times,serif" font-size="7.00">1</text>
</g>
<!-- A_role_id -->
<g id="node46" class="node">
<title>A_role_id</title>
<ellipse fill="none" stroke="black" stroke-width="0.8" cx="371.38" cy="-283.25" rx="27" ry="18"/>
<text xml:space="preserve" text-anchor="middle" x="371.38" y="-280.52" font-family="Times,serif" font-size="8.00">id {PK}</text>
</g>
<!-- sys_role&#45;&gt;A_role_id -->
<g id="edge1" class="edge">
<title>sys_role&#45;&gt;A_role_id</title>
<path fill="none" stroke="black" stroke-width="0.8" d="M185.33,-306.83C226.42,-301.59 304.4,-291.66 344.75,-286.52"/>
</g>
<!-- sys_user -->
<g id="node2" class="node">
<title>sys_user</title>
<polygon fill="none" stroke="black" stroke-width="1.5" points="500.26,-355.25 445.26,-355.25 445.26,-319.25 500.26,-319.25 500.26,-355.25"/>
<text xml:space="preserve" text-anchor="middle" x="472.76" y="-340.88" font-family="Times,serif" font-size="10.00">sys_user</text>
<text xml:space="preserve" text-anchor="middle" x="472.76" y="-329.62" font-family="Times,serif" font-size="10.00">系统用户</text>
</g>
<!-- R_teaches -->
<g id="node24" class="node">
<title>R_teaches</title>
<polygon fill="none" stroke="black" stroke-width="1.5" points="579.39,-623.25 546.76,-605.25 579.39,-587.25 612.02,-605.25 579.39,-623.25"/>
<text xml:space="preserve" text-anchor="middle" x="579.39" y="-603.25" font-family="Times,serif" font-size="10.00">授课</text>
</g>
<!-- sys_user&#45;&gt;R_teaches -->
<g id="edge17" class="edge">
<title>sys_user&#45;&gt;R_teaches</title>
<path fill="none" stroke="black" stroke-width="1.2" d="M479.85,-355.88C492.04,-393.12 518.26,-473.25 518.26,-473.25 518.26,-473.25 546.76,-559.25 546.76,-559.25 546.76,-559.25 560.06,-578.59 569.41,-592.19"/>
<text xml:space="preserve" text-anchor="middle" x="523.51" y="-505.87" font-family="Times,serif" font-size="7.00">1</text>
</g>
<!-- R_creates -->
<g id="node31" class="node">
<title>R_creates</title>
<polygon fill="none" stroke="black" stroke-width="1.5" points="579.39,-550.25 546.76,-532.25 579.39,-514.25 612.02,-532.25 579.39,-550.25"/>
<text xml:space="preserve" text-anchor="middle" x="579.39" y="-530.25" font-family="Times,serif" font-size="10.00">创建</text>
</g>
<!-- sys_user&#45;&gt;R_creates -->
<g id="edge33" class="edge">
<title>sys_user&#45;&gt;R_creates</title>
<path fill="none" stroke="black" stroke-width="1.2" d="M481.85,-355.87C500.86,-399.61 546.76,-505.25 546.76,-505.25 546.76,-505.25 556.77,-513.79 565.53,-521.27"/>
<text xml:space="preserve" text-anchor="middle" x="523.51" y="-462.54" font-family="Times,serif" font-size="7.00">1</text>
</g>
<!-- R_takes -->
<g id="node34" class="node">
<title>R_takes</title>
<polygon fill="none" stroke="black" stroke-width="1.5" points="579.39,-496.25 546.76,-478.25 579.39,-460.25 612.02,-478.25 579.39,-496.25"/>
<text xml:space="preserve" text-anchor="middle" x="579.39" y="-476.25" font-family="Times,serif" font-size="10.00">参加</text>
</g>
<!-- sys_user&#45;&gt;R_takes -->
<g id="edge40" class="edge">
<title>sys_user&#45;&gt;R_takes</title>
<path fill="none" stroke="black" stroke-width="1.2" d="M485.65,-355.82C506.34,-388.12 546.76,-451.25 546.76,-451.25 546.76,-451.25 556.77,-459.79 565.53,-467.27"/>
<text xml:space="preserve" text-anchor="middle" x="523.51" y="-423.03" font-family="Times,serif" font-size="7.00">1</text>
</g>
<!-- R_studies -->
<g id="node35" class="node">
<title>R_studies</title>
<polygon fill="none" stroke="black" stroke-width="1.5" points="579.39,-442.25 546.76,-424.25 579.39,-406.25 612.02,-424.25 579.39,-442.25"/>
<text xml:space="preserve" text-anchor="middle" x="579.39" y="-422.25" font-family="Times,serif" font-size="10.00">学习</text>
</g>
<!-- sys_user&#45;&gt;R_studies -->
<g id="edge42" class="edge">
<title>sys_user&#45;&gt;R_studies</title>
<path fill="none" stroke="black" stroke-width="1.2" d="M496.21,-355.91C517.22,-373.39 547.91,-398.91 565.23,-413.3"/>
<text xml:space="preserve" text-anchor="middle" x="523.51" y="-383.1" font-family="Times,serif" font-size="7.00">1</text>
</g>
<!-- R_generates -->
<g id="node36" class="node">
<title>R_generates</title>
<polygon fill="none" stroke="black" stroke-width="1.5" points="579.39,-388.25 546.76,-370.25 579.39,-352.25 612.02,-370.25 579.39,-388.25"/>
<text xml:space="preserve" text-anchor="middle" x="579.39" y="-368.25" font-family="Times,serif" font-size="10.00">生成</text>
</g>
<!-- sys_user&#45;&gt;R_generates -->
<g id="edge44" class="edge">
<title>sys_user&#45;&gt;R_generates</title>
<path fill="none" stroke="black" stroke-width="1.2" d="M500.98,-345.83C518.66,-351.41 541.35,-358.57 557.59,-363.69"/>
<text xml:space="preserve" text-anchor="middle" x="523.51" y="-356.1" font-family="Times,serif" font-size="7.00">1</text>
</g>
<!-- R_wrong -->
<g id="node38" class="node">
<title>R_wrong</title>
<polygon fill="none" stroke="black" stroke-width="1.5" points="579.39,-334.25 546.76,-316.25 579.39,-298.25 612.02,-316.25 579.39,-334.25"/>
<text xml:space="preserve" text-anchor="middle" x="579.39" y="-314.25" font-family="Times,serif" font-size="10.00">做错</text>
</g>
<!-- sys_user&#45;&gt;R_wrong -->
<g id="edge48" class="edge">
<title>sys_user&#45;&gt;R_wrong</title>
<path fill="none" stroke="black" stroke-width="1.2" d="M500.98,-331.79C517.45,-328.48 538.27,-324.3 554.16,-321.11"/>
<text xml:space="preserve" text-anchor="middle" x="523.51" y="-330.36" font-family="Times,serif" font-size="7.00">1</text>
</g>
<!-- R_publishes -->
<g id="node39" class="node">
<title>R_publishes</title>
<polygon fill="none" stroke="black" stroke-width="1.5" points="579.39,-280.25 546.76,-262.25 579.39,-244.25 612.02,-262.25 579.39,-280.25"/>
<text xml:space="preserve" text-anchor="middle" x="579.39" y="-260.25" font-family="Times,serif" font-size="10.00">发布</text>
</g>
<!-- sys_user&#45;&gt;R_publishes -->
<g id="edge50" class="edge">
<title>sys_user&#45;&gt;R_publishes</title>
<path fill="none" stroke="black" stroke-width="1.2" d="M499.89,-318.52C520.23,-303.94 547.68,-284.26 564.15,-272.46"/>
<text xml:space="preserve" text-anchor="middle" x="523.51" y="-306.59" font-family="Times,serif" font-size="7.00">1</text>
</g>
<!-- R_notifies -->
<g id="node41" class="node">
<title>R_notifies</title>
<polygon fill="none" stroke="black" stroke-width="1.5" points="579.39,-226.25 546.76,-208.25 579.39,-190.25 612.02,-208.25 579.39,-226.25"/>
<text xml:space="preserve" text-anchor="middle" x="579.39" y="-206.25" font-family="Times,serif" font-size="10.00">发布</text>
</g>
<!-- sys_user&#45;&gt;R_notifies -->
<g id="edge54" class="edge">
<title>sys_user&#45;&gt;R_notifies</title>
<path fill="none" stroke="black" stroke-width="1.2" d="M487.15,-318.54C508.22,-289.1 546.76,-235.25 546.76,-235.25 546.76,-235.25 556.77,-226.71 565.53,-219.23"/>
<text xml:space="preserve" text-anchor="middle" x="523.51" y="-276.46" font-family="Times,serif" font-size="7.00">1</text>
</g>
<!-- R_operates -->
<g id="node42" class="node">
<title>R_operates</title>
<polygon fill="none" stroke="black" stroke-width="1.5" points="579.39,-172.25 546.76,-154.25 579.39,-136.25 612.02,-154.25 579.39,-172.25"/>
<text xml:space="preserve" text-anchor="middle" x="579.39" y="-152.25" font-family="Times,serif" font-size="10.00">操作</text>
</g>
<!-- sys_user&#45;&gt;R_operates -->
<g id="edge58" class="edge">
<title>sys_user&#45;&gt;R_operates</title>
<path fill="none" stroke="black" stroke-width="0.8" stroke-dasharray="5,2" d="M482.42,-318.74C501.76,-277.42 546.76,-181.25 546.76,-181.25 546.76,-181.25 556.77,-172.71 565.53,-165.23"/>
<text xml:space="preserve" text-anchor="middle" x="523.51" y="-243.04" font-family="Times,serif" font-size="7.00">0..1</text>
</g>
<!-- R_calls -->
<g id="node43" class="node">
<title>R_calls</title>
<polygon fill="none" stroke="black" stroke-width="1.5" points="579.39,-118.25 546.76,-100.25 579.39,-82.25 612.02,-100.25 579.39,-118.25"/>
<text xml:space="preserve" text-anchor="middle" x="579.39" y="-98.25" font-family="Times,serif" font-size="10.00">调用</text>
</g>
<!-- sys_user&#45;&gt;R_calls -->
<g id="edge60" class="edge">
<title>sys_user&#45;&gt;R_calls</title>
<path fill="none" stroke="black" stroke-width="0.8" stroke-dasharray="5,2" d="M480.24,-318.61C498.1,-267.22 546.76,-127.25 546.76,-127.25 546.76,-127.25 556.77,-118.71 565.53,-111.23"/>
<text xml:space="preserve" text-anchor="middle" x="523.51" y="-209.62" font-family="Times,serif" font-size="7.00">0..1</text>
</g>
<!-- R_favorites -->
<g id="node45" class="node">
<title>R_favorites</title>
<polygon fill="none" stroke="black" stroke-width="1.5" points="579.39,-746.25 546.76,-728.25 579.39,-710.25 612.02,-728.25 579.39,-746.25"/>
<text xml:space="preserve" text-anchor="middle" x="579.39" y="-726.25" font-family="Times,serif" font-size="10.00">收藏</text>
</g>
<!-- sys_user&#45;&gt;R_favorites -->
<g id="edge56" class="edge">
<title>sys_user&#45;&gt;R_favorites</title>
<path fill="none" stroke="black" stroke-width="1.2" d="M478.33,-355.7C494.31,-420.29 546.76,-632.25 546.76,-632.25 546.76,-632.25 564.37,-685.69 573.31,-712.83"/>
<text xml:space="preserve" text-anchor="middle" x="523.51" y="-555.48" font-family="Times,serif" font-size="7.00">N</text>
</g>
<!-- A_user_id -->
<g id="node47" class="node">
<title>A_user_id</title>
<ellipse fill="none" stroke="black" stroke-width="0.8" cx="579.39" cy="-46.25" rx="27" ry="18"/>
<text xml:space="preserve" text-anchor="middle" x="579.39" y="-43.52" font-family="Times,serif" font-size="8.00">id {PK}</text>
</g>
<!-- sys_user&#45;&gt;A_user_id -->
<g id="edge2" class="edge">
<title>sys_user&#45;&gt;A_user_id</title>
<path fill="none" stroke="black" stroke-width="0.8" d="M478.89,-318.69C495.51,-258.59 546.76,-73.25 546.76,-73.25 546.76,-73.25 554.42,-66.71 562.2,-60.07"/>
</g>
<!-- sys_email -->
<g id="node3" class="node">
<title>sys_email</title>
<polygon fill="none" stroke="black" stroke-width="1.5" points="198.12,-382.25 116.88,-382.25 116.88,-346.25 198.12,-346.25 198.12,-382.25"/>
<text xml:space="preserve" text-anchor="middle" x="157.5" y="-367.88" font-family="Times,serif" font-size="10.00">sys_email_code</text>
<text xml:space="preserve" text-anchor="middle" x="157.5" y="-356.62" font-family="Times,serif" font-size="10.00">邮箱验证码</text>
</g>
<!-- course -->
<g id="node4" class="node">
<title>course</title>
<polygon fill="none" stroke="black" stroke-width="1.5" points="730.65,-642.25 676.65,-642.25 676.65,-606.25 730.65,-606.25 730.65,-642.25"/>
<text xml:space="preserve" text-anchor="middle" x="703.65" y="-627.88" font-family="Times,serif" font-size="10.00">course</text>
<text xml:space="preserve" text-anchor="middle" x="703.65" y="-616.62" font-family="Times,serif" font-size="10.00">课程</text>
</g>
<!-- R_has_chapter -->
<g id="node25" class="node">
<title>R_has_chapter</title>
<polygon fill="none" stroke="black" stroke-width="1.5" points="845.82,-750.25 813.19,-732.25 845.82,-714.25 878.45,-732.25 845.82,-750.25"/>
<text xml:space="preserve" text-anchor="middle" x="845.82" y="-730.25" font-family="Times,serif" font-size="10.00">分章</text>
</g>
<!-- course&#45;&gt;R_has_chapter -->
<g id="edge19" class="edge">
<title>course&#45;&gt;R_has_chapter</title>
<path fill="none" stroke="black" stroke-width="1.2" d="M725.21,-642.63C751.95,-666.53 795.27,-705.25 795.27,-705.25 795.27,-705.25 813.91,-715.41 828.32,-723.26"/>
<text xml:space="preserve" text-anchor="middle" x="774.65" y="-690.1" font-family="Times,serif" font-size="7.00">1</text>
</g>
<!-- R_contains -->
<g id="node26" class="node">
<title>R_contains</title>
<polygon fill="none" stroke="black" stroke-width="1.5" points="845.82,-642.25 813.19,-624.25 845.82,-606.25 878.45,-624.25 845.82,-642.25"/>
<text xml:space="preserve" text-anchor="middle" x="845.82" y="-622.25" font-family="Times,serif" font-size="10.00">包含</text>
</g>
<!-- course&#45;&gt;R_contains -->
<g id="edge21" class="edge">
<title>course&#45;&gt;R_contains</title>
<path fill="none" stroke="black" stroke-width="1.2" d="M731.34,-624.25C754.22,-624.25 787.27,-624.25 811.8,-624.25"/>
<text xml:space="preserve" text-anchor="middle" x="774.65" y="-626.6" font-family="Times,serif" font-size="7.00">1</text>
</g>
<!-- R_exam_course -->
<g id="node32" class="node">
<title>R_exam_course</title>
<polygon fill="none" stroke="black" stroke-width="1.5" points="845.82,-588.25 813.19,-570.25 845.82,-552.25 878.45,-570.25 845.82,-588.25"/>
<text xml:space="preserve" text-anchor="middle" x="845.82" y="-568.25" font-family="Times,serif" font-size="10.00">关联</text>
</g>
<!-- course&#45;&gt;R_exam_course -->
<g id="edge35" class="edge">
<title>course&#45;&gt;R_exam_course</title>
<path fill="none" stroke="black" stroke-width="1.2" d="M731.34,-613.97C758.83,-603.38 800.99,-587.14 825.44,-577.72"/>
<text xml:space="preserve" text-anchor="middle" x="774.65" y="-599.6" font-family="Times,serif" font-size="7.00">1</text>
</g>
<!-- A_course_id -->
<g id="node48" class="node">
<title>A_course_id</title>
<ellipse fill="none" stroke="black" stroke-width="0.8" cx="845.82" cy="-678.25" rx="27" ry="18"/>
<text xml:space="preserve" text-anchor="middle" x="845.82" y="-675.52" font-family="Times,serif" font-size="8.00">id {PK}</text>
</g>
<!-- course&#45;&gt;A_course_id -->
<g id="edge3" class="edge">
<title>course&#45;&gt;A_course_id</title>
<path fill="none" stroke="black" stroke-width="0.8" d="M731.34,-634.53C757.56,-644.63 797.12,-659.87 821.94,-669.43"/>
</g>
<!-- chapter -->
<g id="node5" class="node">
<title>chapter</title>
<polygon fill="none" stroke="black" stroke-width="1.5" points="1011,-750.25 956,-750.25 956,-714.25 1011,-714.25 1011,-750.25"/>
<text xml:space="preserve" text-anchor="middle" x="983.5" y="-735.88" font-family="Times,serif" font-size="10.00">chapter</text>
<text xml:space="preserve" text-anchor="middle" x="983.5" y="-724.62" font-family="Times,serif" font-size="10.00">课程章节</text>
</g>
<!-- R_chapter_knode -->
<g id="node27" class="node">
<title>R_chapter_knode</title>
<polygon fill="none" stroke="black" stroke-width="1.5" points="1115.88,-773.25 1070.63,-735.25 1115.88,-697.25 1161.13,-735.25 1115.88,-773.25"/>
<text xml:space="preserve" text-anchor="middle" x="1115.88" y="-740.75" font-family="Times,serif" font-size="10.00">章节</text>
<text xml:space="preserve" text-anchor="middle" x="1115.88" y="-725.75" font-family="Times,serif" font-size="10.00">知识点</text>
</g>
<!-- chapter&#45;&gt;R_chapter_knode -->
<g id="edge23" class="edge">
<title>chapter&#45;&gt;R_chapter_knode</title>
<path fill="none" stroke="black" stroke-width="1.2" d="M1011.52,-732.87C1028.6,-733.26 1051.07,-733.78 1070.71,-734.23"/>
<text xml:space="preserve" text-anchor="middle" x="1050" y="-736.1" font-family="Times,serif" font-size="7.00">1</text>
</g>
<!-- A_chapter_id -->
<g id="node49" class="node">
<title>A_chapter_id</title>
<ellipse fill="none" stroke="black" stroke-width="0.8" cx="1115.88" cy="-661.25" rx="27" ry="18"/>
<text xml:space="preserve" text-anchor="middle" x="1115.88" y="-658.52" font-family="Times,serif" font-size="8.00">id {PK}</text>
</g>
<!-- chapter&#45;&gt;A_chapter_id -->
<g id="edge4" class="edge">
<title>chapter&#45;&gt;A_chapter_id</title>
<path fill="none" stroke="black" stroke-width="0.8" d="M1011.52,-717.54C1036.13,-704.13 1071.95,-684.63 1094.31,-672.45"/>
</g>
<!-- knode -->
<g id="node6" class="node">
<title>knode</title>
<polygon fill="none" stroke="black" stroke-width="1.5" points="1289.63,-751.25 1202.38,-751.25 1202.38,-715.25 1289.63,-715.25 1289.63,-751.25"/>
<text xml:space="preserve" text-anchor="middle" x="1246" y="-736.88" font-family="Times,serif" font-size="10.00">knowledge_node</text>
<text xml:space="preserve" text-anchor="middle" x="1246" y="-725.62" font-family="Times,serif" font-size="10.00">知识点节点</text>
</g>
<!-- R_prereq -->
<g id="node28" class="node">
<title>R_prereq</title>
<polygon fill="none" stroke="black" stroke-width="1.5" points="1381.43,-750.25 1348.8,-732.25 1381.43,-714.25 1414.06,-732.25 1381.43,-750.25"/>
<text xml:space="preserve" text-anchor="middle" x="1381.43" y="-730.25" font-family="Times,serif" font-size="10.00">前置</text>
</g>
<!-- knode&#45;&gt;R_prereq -->
<g id="edge25" class="edge">
<title>knode&#45;&gt;R_prereq</title>
<path fill="none" stroke="black" stroke-width="1.2" d="M1290.32,-732.93C1309.04,-732.79 1330.58,-732.62 1347.9,-732.49"/>
<text xml:space="preserve" text-anchor="middle" x="1310.25" y="-735.13" font-family="Times,serif" font-size="7.00">N</text>
</g>
<!-- R_belongs -->
<g id="node30" class="node">
<title>R_belongs</title>
<polygon fill="none" stroke="black" stroke-width="1.5" points="1381.43,-655.25 1348.8,-637.25 1381.43,-619.25 1414.06,-637.25 1381.43,-655.25"/>
<text xml:space="preserve" text-anchor="middle" x="1381.43" y="-635.25" font-family="Times,serif" font-size="10.00">属于</text>
</g>
<!-- knode&#45;&gt;R_belongs -->
<g id="edge29" class="edge">
<title>knode&#45;&gt;R_belongs</title>
<path fill="none" stroke="black" stroke-width="1.2" d="M1262.93,-714.86C1280.89,-694.12 1307.63,-663.25 1307.63,-663.25 1307.63,-663.25 1338.98,-652.05 1360.54,-644.35"/>
<text xml:space="preserve" text-anchor="middle" x="1310.25" y="-665.6" font-family="Times,serif" font-size="7.00">1</text>
</g>
<!-- R_resources -->
<g id="node44" class="node">
<title>R_resources</title>
<polygon fill="none" stroke="black" stroke-width="1.5" points="1381.43,-858.25 1330.88,-840.25 1381.43,-822.25 1431.98,-840.25 1381.43,-858.25"/>
<text xml:space="preserve" text-anchor="middle" x="1381.43" y="-838.25" font-family="Times,serif" font-size="10.00">提供资源</text>
</g>
<!-- knode&#45;&gt;R_resources -->
<g id="edge31" class="edge">
<title>knode&#45;&gt;R_resources</title>
<path fill="none" stroke="black" stroke-width="1.2" d="M1266.46,-751.8C1291.23,-775.44 1330.88,-813.25 1330.88,-813.25 1330.88,-813.25 1346.34,-821.67 1359.99,-829.11"/>
<text xml:space="preserve" text-anchor="middle" x="1310.25" y="-798.32" font-family="Times,serif" font-size="7.00">1</text>
</g>
<!-- A_node_id -->
<g id="node50" class="node">
<title>A_node_id</title>
<ellipse fill="none" stroke="black" stroke-width="0.8" cx="1381.43" cy="-786.25" rx="27" ry="18"/>
<text xml:space="preserve" text-anchor="middle" x="1381.43" y="-783.52" font-family="Times,serif" font-size="8.00">id {PK}</text>
</g>
<!-- knode&#45;&gt;A_node_id -->
<g id="edge5" class="edge">
<title>knode&#45;&gt;A_node_id</title>
<path fill="none" stroke="black" stroke-width="0.8" d="M1290.32,-750.46C1312.85,-759.4 1339.44,-769.97 1357.88,-777.29"/>
</g>
<!-- kedge -->
<g id="node7" class="node">
<title>kedge</title>
<polygon fill="none" stroke="black" stroke-width="1.5" points="1560.86,-750.25 1474.36,-750.25 1474.36,-714.25 1560.86,-714.25 1560.86,-750.25"/>
<text xml:space="preserve" text-anchor="middle" x="1517.61" y="-735.88" font-family="Times,serif" font-size="10.00">knowledge_edge</text>
<text xml:space="preserve" text-anchor="middle" x="1517.61" y="-724.62" font-family="Times,serif" font-size="10.00">知识点依赖边</text>
</g>
<!-- R_leads_to -->
<g id="node29" class="node">
<title>R_leads_to</title>
<polygon fill="none" stroke="black" stroke-width="1.5" points="1634.37,-724.25 1601.73,-706.25 1634.37,-688.25 1667,-706.25 1634.37,-724.25"/>
<text xml:space="preserve" text-anchor="middle" x="1634.37" y="-704.25" font-family="Times,serif" font-size="10.00">后继</text>
</g>
<!-- kedge&#45;&gt;R_leads_to -->
<g id="edge27" class="edge">
<title>kedge&#45;&gt;R_leads_to</title>
<path fill="none" stroke="black" stroke-width="1.2" d="M1561.34,-722.57C1577.78,-718.84 1595.94,-714.73 1609.91,-711.56"/>
<text xml:space="preserve" text-anchor="middle" x="1581.86" y="-720.04" font-family="Times,serif" font-size="7.00">1</text>
</g>
<!-- question -->
<g id="node8" class="node">
<title>question</title>
<polygon fill="none" stroke="black" stroke-width="1.5" points="1544.61,-636.25 1490.61,-636.25 1490.61,-600.25 1544.61,-600.25 1544.61,-636.25"/>
<text xml:space="preserve" text-anchor="middle" x="1517.61" y="-621.88" font-family="Times,serif" font-size="10.00">question</text>
<text xml:space="preserve" text-anchor="middle" x="1517.61" y="-610.62" font-family="Times,serif" font-size="10.00">习题库</text>
</g>
<!-- A_q_id -->
<g id="node51" class="node">
<title>A_q_id</title>
<ellipse fill="none" stroke="black" stroke-width="0.8" cx="1634.37" cy="-618.25" rx="27" ry="18"/>
<text xml:space="preserve" text-anchor="middle" x="1634.37" y="-615.52" font-family="Times,serif" font-size="8.00">id {PK}</text>
</g>
<!-- question&#45;&gt;A_q_id -->
<g id="edge6" class="edge">
<title>question&#45;&gt;A_q_id</title>
<path fill="none" stroke="black" stroke-width="0.8" d="M1545.23,-618.25C1563.9,-618.25 1588.74,-618.25 1607.29,-618.25"/>
</g>
<!-- exam -->
<g id="node9" class="node">
<title>exam</title>
<polygon fill="none" stroke="black" stroke-width="1.5" points="1011,-583.25 956,-583.25 956,-547.25 1011,-547.25 1011,-583.25"/>
<text xml:space="preserve" text-anchor="middle" x="983.5" y="-568.88" font-family="Times,serif" font-size="10.00">exam</text>
<text xml:space="preserve" text-anchor="middle" x="983.5" y="-557.62" font-family="Times,serif" font-size="10.00">测评定义</text>
</g>
<!-- R_links -->
<g id="node33" class="node">
<title>R_links</title>
<polygon fill="none" stroke="black" stroke-width="1.5" points="1115.88,-533.25 1083.25,-515.25 1115.88,-497.25 1148.51,-515.25 1115.88,-533.25"/>
<text xml:space="preserve" text-anchor="middle" x="1115.88" y="-513.25" font-family="Times,serif" font-size="10.00">组卷</text>
</g>
<!-- exam&#45;&gt;R_links -->
<g id="edge37" class="edge">
<title>exam&#45;&gt;R_links</title>
<path fill="none" stroke="black" stroke-width="1.2" d="M1011.52,-554.89C1036.58,-545.28 1073.26,-531.21 1095.52,-522.67"/>
<text xml:space="preserve" text-anchor="middle" x="1050" y="-542.6" font-family="Times,serif" font-size="7.00">N</text>
</g>
<!-- A_exam_id -->
<g id="node52" class="node">
<title>A_exam_id</title>
<ellipse fill="none" stroke="black" stroke-width="0.8" cx="1115.88" cy="-569.25" rx="27" ry="18"/>
<text xml:space="preserve" text-anchor="middle" x="1115.88" y="-566.52" font-family="Times,serif" font-size="8.00">id {PK}</text>
</g>
<!-- exam&#45;&gt;A_exam_id -->
<g id="edge7" class="edge">
<title>exam&#45;&gt;A_exam_id</title>
<path fill="none" stroke="black" stroke-width="0.8" d="M1011.52,-566.08C1034.19,-566.77 1066.38,-567.76 1088.79,-568.45"/>
</g>
<!-- exam_q -->
<g id="node10" class="node">
<title>exam_q</title>
<polygon fill="none" stroke="black" stroke-width="1.5" points="1285.13,-593.25 1206.88,-593.25 1206.88,-557.25 1285.13,-557.25 1285.13,-593.25"/>
<text xml:space="preserve" text-anchor="middle" x="1246" y="-578.88" font-family="Times,serif" font-size="10.00">exam_question</text>
<text xml:space="preserve" text-anchor="middle" x="1246" y="-567.62" font-family="Times,serif" font-size="10.00">测评题目关联</text>
</g>
<!-- exam_q&#45;&gt;question -->
<g id="edge39" class="edge">
<title>exam_q&#45;&gt;question</title>
<path fill="none" stroke="black" stroke-width="1.2" d="M1285.78,-580.7C1340.02,-588.32 1431.98,-601.25 1431.98,-601.25 1431.98,-601.25 1465.46,-607.97 1490.3,-612.96"/>
<text xml:space="preserve" text-anchor="middle" x="1381.43" y="-603.6" font-family="Times,serif" font-size="7.00">N</text>
</g>
<!-- exam_record -->
<g id="node11" class="node">
<title>exam_record</title>
<polygon fill="none" stroke="black" stroke-width="1.5" points="737.9,-496.25 669.4,-496.25 669.4,-460.25 737.9,-460.25 737.9,-496.25"/>
<text xml:space="preserve" text-anchor="middle" x="703.65" y="-481.88" font-family="Times,serif" font-size="10.00">exam_record</text>
<text xml:space="preserve" text-anchor="middle" x="703.65" y="-470.62" font-family="Times,serif" font-size="10.00">测评记录</text>
</g>
<!-- study_record -->
<g id="node12" class="node">
<title>study_record</title>
<polygon fill="none" stroke="black" stroke-width="1.5" points="738.27,-442.25 669.02,-442.25 669.02,-406.25 738.27,-406.25 738.27,-442.25"/>
<text xml:space="preserve" text-anchor="middle" x="703.65" y="-427.88" font-family="Times,serif" font-size="10.00">study_record</text>
<text xml:space="preserve" text-anchor="middle" x="703.65" y="-416.62" font-family="Times,serif" font-size="10.00">学习记录</text>
</g>
<!-- A_sr_id -->
<g id="node53" class="node">
<title>A_sr_id</title>
<ellipse fill="none" stroke="black" stroke-width="0.8" cx="845.82" cy="-478.25" rx="27" ry="18"/>
<text xml:space="preserve" text-anchor="middle" x="845.82" y="-475.52" font-family="Times,serif" font-size="8.00">id {PK}</text>
</g>
<!-- study_record&#45;&gt;A_sr_id -->
<g id="edge8" class="edge">
<title>study_record&#45;&gt;A_sr_id</title>
<path fill="none" stroke="black" stroke-width="0.8" d="M738.94,-437.46C764.71,-447.39 799.32,-460.72 821.84,-469.4"/>
</g>
<!-- study_path -->
<g id="node13" class="node">
<title>study_path</title>
<polygon fill="none" stroke="black" stroke-width="1.5" points="734.52,-388.25 672.77,-388.25 672.77,-352.25 734.52,-352.25 734.52,-388.25"/>
<text xml:space="preserve" text-anchor="middle" x="703.65" y="-373.88" font-family="Times,serif" font-size="10.00">study_path</text>
<text xml:space="preserve" text-anchor="middle" x="703.65" y="-362.62" font-family="Times,serif" font-size="10.00">学习路径</text>
</g>
<!-- R_details -->
<g id="node37" class="node">
<title>R_details</title>
<polygon fill="none" stroke="black" stroke-width="1.5" points="845.82,-442.25 795.27,-424.25 845.82,-406.25 896.38,-424.25 845.82,-442.25"/>
<text xml:space="preserve" text-anchor="middle" x="845.82" y="-422.25" font-family="Times,serif" font-size="10.00">包含节点</text>
</g>
<!-- study_path&#45;&gt;R_details -->
<g id="edge46" class="edge">
<title>study_path&#45;&gt;R_details</title>
<path fill="none" stroke="black" stroke-width="1.2" d="M735.06,-381.97C760.51,-391.77 796.35,-405.58 820.07,-414.71"/>
<text xml:space="preserve" text-anchor="middle" x="774.65" y="-399.6" font-family="Times,serif" font-size="7.00">1</text>
</g>
<!-- A_sp_id -->
<g id="node54" class="node">
<title>A_sp_id</title>
<ellipse fill="none" stroke="black" stroke-width="0.8" cx="845.82" cy="-370.25" rx="27" ry="18"/>
<text xml:space="preserve" text-anchor="middle" x="845.82" y="-367.52" font-family="Times,serif" font-size="8.00">id {PK}</text>
</g>
<!-- study_path&#45;&gt;A_sp_id -->
<g id="edge9" class="edge">
<title>study_path&#45;&gt;A_sp_id</title>
<path fill="none" stroke="black" stroke-width="0.8" d="M735.06,-370.25C760.02,-370.25 795,-370.25 818.71,-370.25"/>
</g>
<!-- path_detail -->
<g id="node14" class="node">
<title>path_detail</title>
<polygon fill="none" stroke="black" stroke-width="1.5" points="1014.75,-442.25 952.25,-442.25 952.25,-406.25 1014.75,-406.25 1014.75,-442.25"/>
<text xml:space="preserve" text-anchor="middle" x="983.5" y="-427.88" font-family="Times,serif" font-size="10.00">path_detail</text>
<text xml:space="preserve" text-anchor="middle" x="983.5" y="-416.62" font-family="Times,serif" font-size="10.00">路径详情</text>
</g>
<!-- wrong_q -->
<g id="node15" class="node">
<title>wrong_q</title>
<polygon fill="none" stroke="black" stroke-width="1.5" points="745.02,-334.25 662.27,-334.25 662.27,-298.25 745.02,-298.25 745.02,-334.25"/>
<text xml:space="preserve" text-anchor="middle" x="703.65" y="-319.88" font-family="Times,serif" font-size="10.00">wrong_question</text>
<text xml:space="preserve" text-anchor="middle" x="703.65" y="-308.62" font-family="Times,serif" font-size="10.00">错题本</text>
</g>
<!-- A_wq_id -->
<g id="node55" class="node">
<title>A_wq_id</title>
<ellipse fill="none" stroke="black" stroke-width="0.8" cx="845.82" cy="-316.25" rx="27" ry="18"/>
<text xml:space="preserve" text-anchor="middle" x="845.82" y="-313.52" font-family="Times,serif" font-size="8.00">id {PK}</text>
</g>
<!-- wrong_q&#45;&gt;A_wq_id -->
<g id="edge10" class="edge">
<title>wrong_q&#45;&gt;A_wq_id</title>
<path fill="none" stroke="black" stroke-width="0.8" d="M745.57,-316.25C769.16,-316.25 798.13,-316.25 818.67,-316.25"/>
</g>
<!-- theme -->
<g id="node16" class="node">
<title>theme</title>
<polygon fill="none" stroke="black" stroke-width="1.5" points="754.02,-280.25 653.27,-280.25 653.27,-244.25 754.02,-244.25 754.02,-280.25"/>
<text xml:space="preserve" text-anchor="middle" x="703.65" y="-265.88" font-family="Times,serif" font-size="10.00">cross_subject_theme</text>
<text xml:space="preserve" text-anchor="middle" x="703.65" y="-254.62" font-family="Times,serif" font-size="10.00">跨学科主题</text>
</g>
<!-- R_theme_node -->
<g id="node40" class="node">
<title>R_theme_node</title>
<polygon fill="none" stroke="black" stroke-width="1.5" points="845.82,-280.25 813.19,-262.25 845.82,-244.25 878.45,-262.25 845.82,-280.25"/>
<text xml:space="preserve" text-anchor="middle" x="845.82" y="-260.25" font-family="Times,serif" font-size="10.00">关联</text>
</g>
<!-- theme&#45;&gt;R_theme_node -->
<g id="edge52" class="edge">
<title>theme&#45;&gt;R_theme_node</title>
<path fill="none" stroke="black" stroke-width="1.2" d="M754.46,-262.25C773.51,-262.25 794.73,-262.25 811.83,-262.25"/>
<text xml:space="preserve" text-anchor="middle" x="774.65" y="-264.6" font-family="Times,serif" font-size="7.00">N</text>
</g>
<!-- A_theme_id -->
<g id="node56" class="node">
<title>A_theme_id</title>
<ellipse fill="none" stroke="black" stroke-width="0.8" cx="845.82" cy="-208.25" rx="27" ry="18"/>
<text xml:space="preserve" text-anchor="middle" x="845.82" y="-205.53" font-family="Times,serif" font-size="8.00">id {PK}</text>
</g>
<!-- theme&#45;&gt;A_theme_id -->
<g id="edge11" class="edge">
<title>theme&#45;&gt;A_theme_id</title>
<path fill="none" stroke="black" stroke-width="0.8" d="M753.28,-243.51C776.69,-234.5 803.63,-224.12 822.19,-216.97"/>
</g>
<!-- theme_node -->
<g id="node17" class="node">
<title>theme_node</title>
<polygon fill="none" stroke="black" stroke-width="1.5" points="1029.38,-280.25 937.63,-280.25 937.63,-244.25 1029.38,-244.25 1029.38,-280.25"/>
<text xml:space="preserve" text-anchor="middle" x="983.5" y="-265.88" font-family="Times,serif" font-size="10.00">cross_theme_node</text>
<text xml:space="preserve" text-anchor="middle" x="983.5" y="-254.62" font-family="Times,serif" font-size="10.00">主题&#45;知识点关联</text>
</g>
<!-- sys_notice -->
<g id="node18" class="node">
<title>sys_notice</title>
<polygon fill="none" stroke="black" stroke-width="1.5" points="733.4,-226.25 673.9,-226.25 673.9,-190.25 733.4,-190.25 733.4,-226.25"/>
<text xml:space="preserve" text-anchor="middle" x="703.65" y="-211.88" font-family="Times,serif" font-size="10.00">sys_notice</text>
<text xml:space="preserve" text-anchor="middle" x="703.65" y="-200.62" font-family="Times,serif" font-size="10.00">系统公告</text>
</g>
<!-- A_notice_id -->
<g id="node57" class="node">
<title>A_notice_id</title>
<ellipse fill="none" stroke="black" stroke-width="0.8" cx="845.82" cy="-154.25" rx="27" ry="18"/>
<text xml:space="preserve" text-anchor="middle" x="845.82" y="-151.53" font-family="Times,serif" font-size="8.00">id {PK}</text>
</g>
<!-- sys_notice&#45;&gt;A_notice_id -->
<g id="edge12" class="edge">
<title>sys_notice&#45;&gt;A_notice_id</title>
<path fill="none" stroke="black" stroke-width="0.8" d="M734.03,-196.93C760.2,-186.85 797.96,-172.3 821.94,-163.06"/>
</g>
<!-- sys_log -->
<g id="node19" class="node">
<title>sys_log</title>
<polygon fill="none" stroke="black" stroke-width="1.5" points="739.02,-172.25 668.27,-172.25 668.27,-136.25 739.02,-136.25 739.02,-172.25"/>
<text xml:space="preserve" text-anchor="middle" x="703.65" y="-157.88" font-family="Times,serif" font-size="10.00">sys_oper_log</text>
<text xml:space="preserve" text-anchor="middle" x="703.65" y="-146.62" font-family="Times,serif" font-size="10.00">操作日志</text>
</g>
<!-- ai_log -->
<g id="node20" class="node">
<title>ai_log</title>
<polygon fill="none" stroke="black" stroke-width="1.5" points="736.4,-118.25 670.9,-118.25 670.9,-82.25 736.4,-82.25 736.4,-118.25"/>
<text xml:space="preserve" text-anchor="middle" x="703.65" y="-103.88" font-family="Times,serif" font-size="10.00">ai_call_log</text>
<text xml:space="preserve" text-anchor="middle" x="703.65" y="-92.62" font-family="Times,serif" font-size="10.00">AI调用日志</text>
</g>
<!-- learn_res -->
<g id="node21" class="node">
<title>learn_res</title>
<polygon fill="none" stroke="black" stroke-width="1.5" points="1561.98,-858.25 1473.23,-858.25 1473.23,-822.25 1561.98,-822.25 1561.98,-858.25"/>
<text xml:space="preserve" text-anchor="middle" x="1517.61" y="-843.88" font-family="Times,serif" font-size="10.00">learning_resource</text>
<text xml:space="preserve" text-anchor="middle" x="1517.61" y="-832.62" font-family="Times,serif" font-size="10.00">学习资源</text>
</g>
<!-- A_lr_id -->
<g id="node58" class="node">
<title>A_lr_id</title>
<ellipse fill="none" stroke="black" stroke-width="0.8" cx="1634.37" cy="-840.25" rx="27" ry="18"/>
<text xml:space="preserve" text-anchor="middle" x="1634.37" y="-837.52" font-family="Times,serif" font-size="8.00">id {PK}</text>
</g>
<!-- learn_res&#45;&gt;A_lr_id -->
<g id="edge13" class="edge">
<title>learn_res&#45;&gt;A_lr_id</title>
<path fill="none" stroke="black" stroke-width="0.8" d="M1562.65,-840.25C1577.69,-840.25 1594.03,-840.25 1607.21,-840.25"/>
</g>
<!-- user_fav -->
<g id="node22" class="node">
<title>user_fav</title>
<polygon fill="none" stroke="black" stroke-width="1.5" points="192.12,-436.25 122.88,-436.25 122.88,-400.25 192.12,-400.25 192.12,-436.25"/>
<text xml:space="preserve" text-anchor="middle" x="157.5" y="-421.88" font-family="Times,serif" font-size="10.00">user_favorite</text>
<text xml:space="preserve" text-anchor="middle" x="157.5" y="-410.62" font-family="Times,serif" font-size="10.00">用户收藏</text>
</g>
<!-- A_fav_id -->
<g id="node59" class="node">
<title>A_fav_id</title>
<ellipse fill="none" stroke="black" stroke-width="0.8" cx="371.38" cy="-418.25" rx="27" ry="18"/>
<text xml:space="preserve" text-anchor="middle" x="371.38" y="-415.52" font-family="Times,serif" font-size="8.00">id {PK}</text>
</g>
<!-- user_fav&#45;&gt;A_fav_id -->
<g id="edge14" class="edge">
<title>user_fav&#45;&gt;A_fav_id</title>
<path fill="none" stroke="black" stroke-width="0.8" d="M192.54,-418.25C234.77,-418.25 305.86,-418.25 344.12,-418.25"/>
</g>
<!-- R_has_user&#45;&gt;sys_user -->
<g id="edge16" class="edge">
<title>R_has_user&#45;&gt;sys_user</title>
<path fill="none" stroke="black" stroke-width="1.2" d="M405.47,-337.25C418.23,-337.25 432.64,-337.25 444.76,-337.25"/>
<text xml:space="preserve" text-anchor="middle" x="424.64" y="-339.6" font-family="Times,serif" font-size="7.00">N</text>
</g>
<!-- R_teaches&#45;&gt;course -->
<g id="edge18" class="edge">
<title>R_teaches&#45;&gt;course</title>
<path fill="none" stroke="black" stroke-width="1.2" d="M606.02,-609.23C626.6,-612.43 655.41,-616.91 676.21,-620.14"/>
<text xml:space="preserve" text-anchor="middle" x="632.65" y="-615.96" font-family="Times,serif" font-size="7.00">N</text>
</g>
<!-- R_has_chapter&#45;&gt;chapter -->
<g id="edge20" class="edge">
<title>R_has_chapter&#45;&gt;chapter</title>
<path fill="none" stroke="black" stroke-width="1.2" d="M879.67,-732.25C902.88,-732.25 933.63,-732.25 955.43,-732.25"/>
<text xml:space="preserve" text-anchor="middle" x="917" y="-734.6" font-family="Times,serif" font-size="7.00">N</text>
</g>
<!-- R_contains&#45;&gt;knode -->
<g id="edge22" class="edge">
<title>R_contains&#45;&gt;knode</title>
<path fill="none" stroke="black" stroke-width="1.2" d="M878.11,-625.25C957.61,-627.77 1161.13,-634.25 1161.13,-634.25 1161.13,-634.25 1204.93,-685.95 1229.23,-714.63"/>
<text xml:space="preserve" text-anchor="middle" x="1050" y="-633.08" font-family="Times,serif" font-size="7.00">N</text>
</g>
<!-- R_chapter_knode&#45;&gt;knode -->
<g id="edge24" class="edge">
<title>R_chapter_knode&#45;&gt;knode</title>
<path fill="none" stroke="black" stroke-width="1.2" d="M1161.33,-734.56C1174.48,-734.35 1188.86,-734.13 1201.93,-733.92"/>
<text xml:space="preserve" text-anchor="middle" x="1181.75" y="-736.6" font-family="Times,serif" font-size="7.00">N</text>
</g>
<!-- R_prereq&#45;&gt;kedge -->
<g id="edge26" class="edge">
<title>R_prereq&#45;&gt;kedge</title>
<path fill="none" stroke="black" stroke-width="1.2" d="M1415.6,-732.25C1433.14,-732.25 1454.87,-732.25 1473.69,-732.25"/>
<text xml:space="preserve" text-anchor="middle" x="1452.61" y="-734.6" font-family="Times,serif" font-size="7.00">1</text>
</g>
<!-- R_leads_to&#45;&gt;knode -->
<g id="edge28" class="edge">
<title>R_leads_to&#45;&gt;knode</title>
<path fill="none" stroke="black" stroke-width="1.2" d="M1601.02,-705.8C1582.13,-705.53 1561.98,-705.25 1561.98,-705.25 1561.98,-705.25 1330.88,-705.25 1330.88,-705.25 1330.88,-705.25 1310.56,-712.03 1289.92,-718.92"/>
<text xml:space="preserve" text-anchor="middle" x="1452.61" y="-707.6" font-family="Times,serif" font-size="7.00">N</text>
</g>
<!-- R_belongs&#45;&gt;question -->
<g id="edge30" class="edge">
<title>R_belongs&#45;&gt;question</title>
<path fill="none" stroke="black" stroke-width="1.2" d="M1408.62,-633.54C1432.11,-630.22 1466.42,-625.36 1490.03,-622.01"/>
<text xml:space="preserve" text-anchor="middle" x="1452.61" y="-629.53" font-family="Times,serif" font-size="7.00">N</text>
</g>
<!-- R_creates&#45;&gt;exam -->
<g id="edge34" class="edge">
<title>R_creates&#45;&gt;exam</title>
<path fill="none" stroke="black" stroke-width="1.2" d="M611.55,-533.33C691.27,-536.11 896.38,-543.25 896.38,-543.25 896.38,-543.25 930.44,-551.95 955.72,-558.41"/>
<text xml:space="preserve" text-anchor="middle" x="774.65" y="-541.36" font-family="Times,serif" font-size="7.00">N</text>
</g>
<!-- R_exam_course&#45;&gt;exam -->
<g id="edge36" class="edge">
<title>R_exam_course&#45;&gt;exam</title>
<path fill="none" stroke="black" stroke-width="1.2" d="M877.61,-569.12C901.07,-568.25 933.05,-567.07 955.51,-566.24"/>
<text xml:space="preserve" text-anchor="middle" x="917" y="-570.1" font-family="Times,serif" font-size="7.00">N</text>
</g>
<!-- R_links&#45;&gt;exam_q -->
<g id="edge38" class="edge">
<title>R_links&#45;&gt;exam_q</title>
<path fill="none" stroke="black" stroke-width="1.2" d="M1134.69,-523.59C1153.12,-532.22 1182.48,-545.97 1206.28,-557.12"/>
<text xml:space="preserve" text-anchor="middle" x="1181.75" y="-547.6" font-family="Times,serif" font-size="7.00">1</text>
</g>
<!-- R_takes&#45;&gt;exam_record -->
<g id="edge41" class="edge">
<title>R_takes&#45;&gt;exam_record</title>
<path fill="none" stroke="black" stroke-width="1.2" d="M613.47,-478.25C630.59,-478.25 651.44,-478.25 668.68,-478.25"/>
<text xml:space="preserve" text-anchor="middle" x="632.65" y="-480.6" font-family="Times,serif" font-size="7.00">N</text>
</g>
<!-- R_studies&#45;&gt;study_record -->
<g id="edge43" class="edge">
<title>R_studies&#45;&gt;study_record</title>
<path fill="none" stroke="black" stroke-width="1.2" d="M613.47,-424.25C630.59,-424.25 651.44,-424.25 668.68,-424.25"/>
<text xml:space="preserve" text-anchor="middle" x="632.65" y="-426.6" font-family="Times,serif" font-size="7.00">N</text>
</g>
<!-- R_generates&#45;&gt;study_path -->
<g id="edge45" class="edge">
<title>R_generates&#45;&gt;study_path</title>
<path fill="none" stroke="black" stroke-width="1.2" d="M613.47,-370.25C631.72,-370.25 654.22,-370.25 672.05,-370.25"/>
<text xml:space="preserve" text-anchor="middle" x="632.65" y="-372.6" font-family="Times,serif" font-size="7.00">N</text>
</g>
<!-- R_details&#45;&gt;path_detail -->
<g id="edge47" class="edge">
<title>R_details&#45;&gt;path_detail</title>
<path fill="none" stroke="black" stroke-width="1.2" d="M898.51,-424.25C916.48,-424.25 936.06,-424.25 951.79,-424.25"/>
<text xml:space="preserve" text-anchor="middle" x="917" y="-426.6" font-family="Times,serif" font-size="7.00">N</text>
</g>
<!-- R_wrong&#45;&gt;wrong_q -->
<g id="edge49" class="edge">
<title>R_wrong&#45;&gt;wrong_q</title>
<path fill="none" stroke="black" stroke-width="1.2" d="M613.47,-316.25C628.32,-316.25 645.99,-316.25 661.67,-316.25"/>
<text xml:space="preserve" text-anchor="middle" x="632.65" y="-318.6" font-family="Times,serif" font-size="7.00">N</text>
</g>
<!-- R_publishes&#45;&gt;theme -->
<g id="edge51" class="edge">
<title>R_publishes&#45;&gt;theme</title>
<path fill="none" stroke="black" stroke-width="1.2" d="M613.47,-262.25C625.5,-262.25 639.37,-262.25 652.53,-262.25"/>
<text xml:space="preserve" text-anchor="middle" x="632.65" y="-264.6" font-family="Times,serif" font-size="7.00">N</text>
</g>
<!-- R_theme_node&#45;&gt;theme_node -->
<g id="edge53" class="edge">
<title>R_theme_node&#45;&gt;theme_node</title>
<path fill="none" stroke="black" stroke-width="1.2" d="M879.67,-262.25C896.84,-262.25 918.14,-262.25 936.89,-262.25"/>
<text xml:space="preserve" text-anchor="middle" x="917" y="-264.6" font-family="Times,serif" font-size="7.00">1</text>
</g>
<!-- R_notifies&#45;&gt;sys_notice -->
<g id="edge55" class="edge">
<title>R_notifies&#45;&gt;sys_notice</title>
<path fill="none" stroke="black" stroke-width="1.2" d="M613.47,-208.25C632.14,-208.25 655.27,-208.25 673.29,-208.25"/>
<text xml:space="preserve" text-anchor="middle" x="632.65" y="-210.6" font-family="Times,serif" font-size="7.00">N</text>
</g>
<!-- R_operates&#45;&gt;sys_log -->
<g id="edge59" class="edge">
<title>R_operates&#45;&gt;sys_log</title>
<path fill="none" stroke="black" stroke-width="0.8" stroke-dasharray="5,2" d="M613.47,-154.25C630.3,-154.25 650.76,-154.25 667.83,-154.25"/>
<text xml:space="preserve" text-anchor="middle" x="632.65" y="-156.6" font-family="Times,serif" font-size="7.00">N</text>
</g>
<!-- R_calls&#45;&gt;ai_log -->
<g id="edge61" class="edge">
<title>R_calls&#45;&gt;ai_log</title>
<path fill="none" stroke="black" stroke-width="0.8" stroke-dasharray="5,2" d="M613.47,-100.25C631.15,-100.25 652.83,-100.25 670.38,-100.25"/>
<text xml:space="preserve" text-anchor="middle" x="632.65" y="-102.6" font-family="Times,serif" font-size="7.00">N</text>
</g>
<!-- R_resources&#45;&gt;learn_res -->
<g id="edge32" class="edge">
<title>R_resources&#45;&gt;learn_res</title>
<path fill="none" stroke="black" stroke-width="1.2" d="M1433.92,-840.25C1446.78,-840.25 1460.45,-840.25 1472.9,-840.25"/>
<text xml:space="preserve" text-anchor="middle" x="1452.61" y="-842.6" font-family="Times,serif" font-size="7.00">N</text>
</g>
<!-- R_favorites&#45;&gt;knode -->
<g id="edge57" class="edge">
<title>R_favorites&#45;&gt;knode</title>
<path fill="none" stroke="black" stroke-width="1.2" d="M595.87,-737.5C628.77,-757.14 702.65,-801.25 702.65,-801.25 702.65,-801.25 702.65,-801.25 1116.88,-801.25 1116.88,-801.25 1161.13,-782.25 1161.13,-782.25 1161.13,-782.25 1189.54,-765.65 1213.29,-751.77"/>
<text xml:space="preserve" text-anchor="middle" x="917" y="-803.6" font-family="Times,serif" font-size="7.00">N</text>
</g>
<!-- l1 -->
<g id="node60" class="node">
<title>l1</title>
<text xml:space="preserve" text-anchor="middle" x="157.5" y="-470.7" font-family="Times,serif" font-size="8.00">□ 实体 &#160;&#160;&#160;◇ 关系 &#160;&#160;&#160;○ 属性 &#160;&#160;&#160;── 强关联 &#160;&#160;&#160;╌╌ 弱关联 &#160;&#160;&#160;1/N 基数 &#160;&#160;&#160;{PK} 主键</text>
</g>
</g>
</svg>
