<svg xmlns="http://www.w3.org/2000/svg" xmlns:xlink="http://www.w3.org/1999/xlink" contentStyleType="text/css" data-diagram-type="ACTIVITY" height="1072px" preserveAspectRatio="none" style="width:1127px;height:1072px;background:#FFFFFF;" version="1.1" viewBox="0 0 1127 1072" width="1127px" zoomAndPan="magnify"><?plantuml 1.2026.6?><defs/><g><g class="title" data-source-line="27"><text fill="#000000" font-family="PingFang SC" font-size="14" font-weight="700" lengthAdjust="spacing" textLength="202.566" x="461.3917" y="34.84">KG &#26234;&#33021;&#23548;&#23398;&#31995;&#32479; &#8212; &#24635;&#20307;&#27963;&#21160;&#22270;</text></g><rect fill="none" height="18.2" style="stroke:none;stroke-width:1;" width="1080.3495" x="20" y="58.52"/><ellipse cx="90" cy="91.72" fill="#222222" rx="10" ry="10" style="stroke:#222222;stroke-width:1;"/><rect fill="#FFFFFF" height="39.6" rx="12.5" ry="12.5" style="stroke:#333333;stroke-width:1.5;" width="76" x="52" y="121.72"/><text fill="#000000" font-family="PingFang SC" font-size="14" lengthAdjust="spacing" textLength="56" x="62" y="146.56">&#29992;&#25143;&#30331;&#24405;</text><rect fill="#FFFFFF" height="39.6" rx="12.5" ry="12.5" style="stroke:#333333;stroke-width:1.5;" width="76" x="52" y="245.28"/><text fill="#000000" font-family="PingFang SC" font-size="14" lengthAdjust="spacing" textLength="56" x="62" y="270.12">&#25552;&#31034;&#38169;&#35823;</text><ellipse cx="90" cy="321.58" fill="none" rx="11" ry="11" style="stroke:#222222;stroke-width:1;"/><ellipse cx="90" cy="321.58" fill="#222222" rx="6" ry="6" style="stroke:#222222;stroke-width:1;"/><polygon fill="#FFFFFF" points="90,194.18,102,206.18,90,218.18,78,206.18,90,194.18" style="stroke:#333333;stroke-width:1.5;stroke-linejoin:miter;stroke-miterlimit:10;"/><text fill="#000000" font-family="PingFang SC" font-size="14" lengthAdjust="spacing" textLength="35.518" x="96" y="189.42">&#25104;&#21151;?</text><text fill="#000000" font-family="PingFang SC" font-size="13" lengthAdjust="spacing" textLength="13" x="96" y="231.96">&#21542;</text><text fill="#000000" font-family="PingFang SC" font-size="13" lengthAdjust="spacing" textLength="13" x="102" y="201.76">&#26159;</text><rect fill="#FFFFFF" height="39.6" rx="12.5" ry="12.5" style="stroke:#333333;stroke-width:1.5;" width="104" x="38" y="374.58"/><text fill="#000000" font-family="PingFang SC" font-size="14" lengthAdjust="spacing" textLength="84" x="48" y="399.42">&#36827;&#20837;&#31995;&#32479;&#39318;&#39029;</text><rect fill="#555555" height="6" rx="2.5" ry="2.5" style="stroke:#555555;stroke-width:1;" width="128" x="26" y="434.18"/><line style="stroke:#000000;stroke-width:1.5;" x1="20" x2="20" y1="58.52" y2="1051.88"/><rect fill="#FFFFFF" height="39.6" rx="12.5" ry="12.5" style="stroke:#333333;stroke-width:1.5;" width="122.284" x="233.245" y="460.18"/><text fill="#000000" font-family="PingFang SC" font-size="14" lengthAdjust="spacing" textLength="102.284" x="243.245" y="485.02">&#27983;&#35272;3D&#30693;&#35782;&#22270;&#35889;</text><rect fill="#FFFFFF" height="39.6" rx="12.5" ry="12.5" style="stroke:#333333;stroke-width:1.5;" width="118" x="235.387" y="519.78"/><text fill="#000000" font-family="PingFang SC" font-size="14" lengthAdjust="spacing" textLength="98" x="245.387" y="544.62">&#36873;&#25321;&#30446;&#26631;&#30693;&#35782;&#28857;</text><path d="M366.387,587.18 L366.387,595.18 L346.387,599.18 L366.387,603.18 L366.387,611.18 A0,0 0 0 0 366.387,611.18 L487.387,611.18 A0,0 0 0 0 487.387,611.18 L487.387,597.18 L477.387,587.18 L366.387,587.18 A0,0 0 0 0 366.387,587.18" fill="#FFFFF0" style="stroke:#BBBBBB;stroke-width:0.5;"/><path d="M477.387,587.18 L477.387,597.18 L487.387,597.18 L477.387,587.18" fill="#FFFFF0" style="stroke:#BBBBBB;stroke-width:0.5;"/><text fill="#000000" font-family="PingFang SC" font-size="10" lengthAdjust="spacing" textLength="100" x="372.387" y="602.78">&#25299;&#25169;&#25490;&#24207;&#35745;&#31639;&#21069;&#32622;&#20381;&#36182;</text><rect fill="#FFFFFF" height="39.6" rx="12.5" ry="12.5" style="stroke:#333333;stroke-width:1.5;" width="104" x="242.387" y="579.38"/><text fill="#000000" font-family="PingFang SC" font-size="14" lengthAdjust="spacing" textLength="84" x="252.387" y="604.22">&#29983;&#25104;&#23398;&#20064;&#36335;&#24452;</text><path d="M394.387,654.78 L394.387,669.78 L374.387,673.78 L394.387,677.78 L394.387,692.78 A0,0 0 0 0 394.387,692.78 L494.927,692.78 A0,0 0 0 0 494.927,692.78 L494.927,664.78 L484.927,654.78 L394.387,654.78 A0,0 0 0 0 394.387,654.78" fill="#FFFFF0" style="stroke:#BBBBBB;stroke-width:0.5;"/><path d="M484.927,654.78 L484.927,664.78 L494.927,664.78 L484.927,654.78" fill="#FFFFF0" style="stroke:#BBBBBB;stroke-width:0.5;"/><text fill="#000000" font-family="PingFang SC" font-size="10" lengthAdjust="spacing" textLength="79.54" x="400.387" y="670.38">AI&#21010;&#37325;&#28857; / AI&#31572;&#30097;</text><text fill="#000000" font-family="PingFang SC" font-size="10" lengthAdjust="spacing" textLength="60" x="400.387" y="684.38">&#27983;&#35272;&#23398;&#20064;&#36164;&#28304;</text><rect fill="#FFFFFF" height="39.6" rx="12.5" ry="12.5" style="stroke:#333333;stroke-width:1.5;" width="160" x="214.387" y="653.98"/><text fill="#000000" font-family="PingFang SC" font-size="14" lengthAdjust="spacing" textLength="140" x="224.387" y="678.82">&#30693;&#35782;&#28857;&#23398;&#20064;&#19982;&#37197;&#22871;&#32451;&#20064;</text><rect fill="#FFFFFF" height="39.6" rx="12.5" ry="12.5" style="stroke:#333333;stroke-width:1.5;" width="104" x="242.387" y="728.58"/><text fill="#000000" font-family="PingFang SC" font-size="14" lengthAdjust="spacing" textLength="84" x="252.387" y="753.42">&#21442;&#21152;&#31456;&#33410;&#27979;&#35780;</text><polygon fill="#FFFFFF" points="294.387,822.78,306.387,834.78,294.387,846.78,282.387,834.78,294.387,822.78" style="stroke:#333333;stroke-width:1.5;stroke-linejoin:miter;stroke-miterlimit:10;"/><text fill="#000000" font-family="PingFang SC" font-size="14" lengthAdjust="spacing" textLength="63.518" x="300.387" y="818.02">&#27979;&#35780;&#36890;&#36807;?</text><text fill="#000000" font-family="PingFang SC" font-size="13" lengthAdjust="spacing" textLength="13" x="269.387" y="830.36">&#26159;</text><text fill="#000000" font-family="PingFang SC" font-size="13" lengthAdjust="spacing" textLength="13" x="306.387" y="830.36">&#21542;</text><rect fill="#FFFFFF" height="39.6" rx="12.5" ry="12.5" style="stroke:#333333;stroke-width:1.5;" width="116.516" x="164" y="856.78"/><text fill="#000000" font-family="PingFang SC" font-size="14" lengthAdjust="spacing" textLength="96.516" x="174" y="881.62">&#26597;&#30475;AI&#35786;&#26029;&#25253;&#21578;</text><rect fill="#FFFFFF" height="39.6" rx="12.5" ry="12.5" style="stroke:#333333;stroke-width:1.5;" width="132" x="300.516" y="856.78"/><text fill="#000000" font-family="PingFang SC" font-size="14" lengthAdjust="spacing" textLength="112" x="310.516" y="881.62">&#38169;&#39064;&#25910;&#24405;&#33267;&#38169;&#39064;&#26412;</text><rect fill="#FFFFFF" height="39.6" rx="12.5" ry="12.5" style="stroke:#333333;stroke-width:1.5;" width="118" x="307.516" y="924.28"/><text fill="#000000" font-family="PingFang SC" font-size="14" lengthAdjust="spacing" textLength="98" x="317.516" y="949.12">&#38169;&#39064;&#37325;&#20570;&#19982;&#22797;&#20064;</text><polygon fill="#FFFFFF" points="294.387,969.88,306.387,981.88,294.387,993.88,282.387,981.88,294.387,969.88" style="stroke:#333333;stroke-width:1.5;stroke-linejoin:miter;stroke-miterlimit:10;"/><ellipse cx="294.387" cy="1024.88" fill="none" rx="11" ry="11" style="stroke:#222222;stroke-width:1;"/><ellipse cx="294.387" cy="1024.88" fill="#222222" rx="6" ry="6" style="stroke:#222222;stroke-width:1;"/><line style="stroke:#000000;stroke-width:1.5;" x1="158" x2="158" y1="58.52" y2="1051.88"/><path d="M664.927,584.68 L664.927,599.68 L644.927,603.68 L664.927,607.68 L664.927,622.68 A0,0 0 0 0 664.927,622.68 L790.927,622.68 A0,0 0 0 0 790.927,622.68 L790.927,594.68 L780.927,584.68 L664.927,584.68 A0,0 0 0 0 664.927,584.68" fill="#FFFFF0" style="stroke:#BBBBBB;stroke-width:0.5;"/><path d="M780.927,584.68 L780.927,594.68 L790.927,594.68 L780.927,584.68" fill="#FFFFF0" style="stroke:#BBBBBB;stroke-width:0.5;"/><text fill="#000000" font-family="PingFang SC" font-size="10" lengthAdjust="spacing" textLength="105" x="670.927" y="600.28">&#37197;&#32622;&#23646;&#24615;/&#35774;&#23450;&#21069;&#32622;&#20381;&#36182;</text><text fill="#000000" font-family="PingFang SC" font-size="10" lengthAdjust="spacing" textLength="60" x="670.927" y="614.28">&#19978;&#20256;&#23398;&#20064;&#36164;&#28304;</text><rect fill="#FFFFFF" height="39.6" rx="12.5" ry="12.5" style="stroke:#333333;stroke-width:1.5;" width="132" x="512.927" y="583.88"/><text fill="#000000" font-family="PingFang SC" font-size="14" lengthAdjust="spacing" textLength="112" x="522.927" y="608.72">&#35838;&#31243;&#19982;&#30693;&#35782;&#28857;&#31649;&#29702;</text><rect fill="#FFFFFF" height="39.6" rx="12.5" ry="12.5" style="stroke:#333333;stroke-width:1.5;" width="76" x="540.927" y="658.48"/><text fill="#000000" font-family="PingFang SC" font-size="14" lengthAdjust="spacing" textLength="56" x="550.927" y="683.32">&#39064;&#24211;&#31649;&#29702;</text><rect fill="#FFFFFF" height="39.6" rx="12.5" ry="12.5" style="stroke:#333333;stroke-width:1.5;" width="146" x="505.927" y="733.08"/><text fill="#000000" font-family="PingFang SC" font-size="14" lengthAdjust="spacing" textLength="126" x="515.927" y="757.92">&#21019;&#24314;&#27979;&#35780;&#24182;&#32452;&#21367;&#21457;&#24067;</text><path d="M671.927,808.48 L671.927,823.48 L651.927,827.48 L671.927,831.48 L671.927,846.48 A0,0 0 0 0 671.927,846.48 L752.927,846.48 A0,0 0 0 0 752.927,846.48 L752.927,818.48 L742.927,808.48 L671.927,808.48 A0,0 0 0 0 671.927,808.48" fill="#FFFFF0" style="stroke:#BBBBBB;stroke-width:0.5;"/><path d="M742.927,808.48 L742.927,818.48 L752.927,818.48 L742.927,808.48" fill="#FFFFF0" style="stroke:#BBBBBB;stroke-width:0.5;"/><text fill="#000000" font-family="PingFang SC" font-size="10" lengthAdjust="spacing" textLength="50" x="677.927" y="824.08">&#25484;&#25569;&#24230;&#32479;&#35745;</text><text fill="#000000" font-family="PingFang SC" font-size="10" lengthAdjust="spacing" textLength="60" x="677.927" y="838.08">&#38169;&#39064;&#20998;&#24067;&#20998;&#26512;</text><rect fill="#FFFFFF" height="39.6" rx="12.5" ry="12.5" style="stroke:#333333;stroke-width:1.5;" width="146" x="505.927" y="807.68"/><text fill="#000000" font-family="PingFang SC" font-size="14" lengthAdjust="spacing" textLength="126" x="515.927" y="832.52">&#23398;&#24773;&#20998;&#26512;&#19982;&#25253;&#34920;&#23548;&#20986;</text><ellipse cx="578.927" cy="893.28" fill="none" rx="11" ry="11" style="stroke:#222222;stroke-width:1;"/><ellipse cx="578.927" cy="893.28" fill="#222222" rx="6" ry="6" style="stroke:#222222;stroke-width:1;"/><line style="stroke:#000000;stroke-width:1.5;" x1="499.927" x2="499.927" y1="58.52" y2="1051.88"/><path d="M972.185,621.98 L972.185,636.98 L952.185,640.98 L972.185,644.98 L972.185,659.98 A0,0 0 0 0 972.185,659.98 L1083.185,659.98 A0,0 0 0 0 1083.185,659.98 L1083.185,631.98 L1073.185,621.98 L972.185,621.98 A0,0 0 0 0 972.185,621.98" fill="#FFFFF0" style="stroke:#BBBBBB;stroke-width:0.5;"/><path d="M1073.185,621.98 L1073.185,631.98 L1083.185,631.98 L1073.185,621.98" fill="#FFFFF0" style="stroke:#BBBBBB;stroke-width:0.5;"/><text fill="#000000" font-family="PingFang SC" font-size="10" lengthAdjust="spacing" textLength="90" x="978.185" y="637.58">&#21019;&#24314;/&#32534;&#36753;/&#31105;&#29992;&#29992;&#25143;</text><text fill="#000000" font-family="PingFang SC" font-size="10" lengthAdjust="spacing" textLength="60" x="978.185" y="651.58">&#20998;&#37197;&#35282;&#33394;&#26435;&#38480;</text><rect fill="#FFFFFF" height="39.6" rx="12.5" ry="12.5" style="stroke:#333333;stroke-width:1.5;" width="118" x="834.185" y="621.18"/><text fill="#000000" font-family="PingFang SC" font-size="14" lengthAdjust="spacing" textLength="98" x="844.185" y="646.02">&#29992;&#25143;&#19982;&#35282;&#33394;&#31649;&#29702;</text><rect fill="#FFFFFF" height="39.6" rx="12.5" ry="12.5" style="stroke:#333333;stroke-width:1.5;" width="146" x="820.185" y="695.78"/><text fill="#000000" font-family="PingFang SC" font-size="14" lengthAdjust="spacing" textLength="126" x="830.185" y="720.62">&#35838;&#31243;&#23457;&#26680;&#19982;&#20844;&#21578;&#21457;&#24067;</text><rect fill="#FFFFFF" height="39.6" rx="12.5" ry="12.5" style="stroke:#333333;stroke-width:1.5;" width="158.516" x="813.927" y="770.38"/><text fill="#000000" font-family="PingFang SC" font-size="14" lengthAdjust="spacing" textLength="138.516" x="823.927" y="795.22">&#25805;&#20316;&#26085;&#24535;&#19982;AI&#35843;&#29992;&#23457;&#35745;</text><ellipse cx="893.185" cy="855.98" fill="none" rx="11" ry="11" style="stroke:#222222;stroke-width:1;"/><ellipse cx="893.185" cy="855.98" fill="#222222" rx="6" ry="6" style="stroke:#222222;stroke-width:1;"/><rect fill="#555555" height="6" rx="2.5" ry="2.5" style="stroke:#555555;stroke-width:1;" width="293.258" x="801.927" y="1045.88"/><line style="stroke:#000000;stroke-width:1.5;" x1="795.927" x2="795.927" y1="58.52" y2="1051.88"/><line style="stroke:#000000;stroke-width:1.5;" x1="1099.185" x2="1099.185" y1="58.52" y2="1051.88"/><line style="stroke:#333333;stroke-width:1.5;" x1="90" x2="90" y1="101.72" y2="121.72"/><polygon fill="#333333" points="86,111.72,90,121.72,94,111.72,90,115.72" style="stroke:#333333;stroke-width:1;stroke-linejoin:miter;stroke-miterlimit:10;"/><line style="stroke:#333333;stroke-width:1.5;" x1="90" x2="90" y1="284.88" y2="310.58"/><polygon fill="#333333" points="86,300.58,90,310.58,94,300.58,90,304.58" style="stroke:#333333;stroke-width:1;stroke-linejoin:miter;stroke-miterlimit:10;"/><line style="stroke:#333333;stroke-width:1.5;" x1="90" x2="90" y1="218.18" y2="245.28"/><polygon fill="#333333" points="86,235.28,90,245.28,94,235.28,90,239.28" style="stroke:#333333;stroke-width:1;stroke-linejoin:miter;stroke-miterlimit:10;"/><line style="stroke:#333333;stroke-width:1.5;" x1="102" x2="138" y1="206.18" y2="206.18"/><polygon fill="#333333" points="134,280.58,138,290.58,142,280.58,138,284.58" style="stroke:#333333;stroke-width:1.5;stroke-linejoin:miter;stroke-miterlimit:10;"/><line style="stroke:#333333;stroke-width:1.5;" x1="138" x2="138" y1="206.18" y2="354.58"/><line style="stroke:#333333;stroke-width:1.5;" x1="138" x2="90" y1="354.58" y2="354.58"/><line style="stroke:#333333;stroke-width:1.5;" x1="90" x2="90" y1="354.58" y2="374.58"/><polygon fill="#333333" points="86,364.58,90,374.58,94,364.58,90,368.58" style="stroke:#333333;stroke-width:1;stroke-linejoin:miter;stroke-miterlimit:10;"/><line style="stroke:#333333;stroke-width:1.5;" x1="90" x2="90" y1="161.32" y2="194.18"/><polygon fill="#333333" points="86,184.18,90,194.18,94,184.18,90,188.18" style="stroke:#333333;stroke-width:1;stroke-linejoin:miter;stroke-miterlimit:10;"/><line style="stroke:#333333;stroke-width:1.5;" x1="90" x2="90" y1="414.18" y2="434.18"/><polygon fill="#333333" points="86,424.18,90,434.18,94,424.18,90,428.18" style="stroke:#333333;stroke-width:1;stroke-linejoin:miter;stroke-miterlimit:10;"/><line style="stroke:#333333;stroke-width:1.5;" x1="294.387" x2="294.387" y1="499.78" y2="519.78"/><polygon fill="#333333" points="290.387,509.78,294.387,519.78,298.387,509.78,294.387,513.78" style="stroke:#333333;stroke-width:1;stroke-linejoin:miter;stroke-miterlimit:10;"/><line style="stroke:#333333;stroke-width:1.5;" x1="294.387" x2="294.387" y1="559.38" y2="579.38"/><polygon fill="#333333" points="290.387,569.38,294.387,579.38,298.387,569.38,294.387,573.38" style="stroke:#333333;stroke-width:1;stroke-linejoin:miter;stroke-miterlimit:10;"/><line style="stroke:#333333;stroke-width:1.5;" x1="294.387" x2="294.387" y1="618.98" y2="653.98"/><polygon fill="#333333" points="290.387,643.98,294.387,653.98,298.387,643.98,294.387,647.98" style="stroke:#333333;stroke-width:1;stroke-linejoin:miter;stroke-miterlimit:10;"/><line style="stroke:#333333;stroke-width:1.5;" x1="294.387" x2="294.387" y1="693.58" y2="728.58"/><polygon fill="#333333" points="290.387,718.58,294.387,728.58,298.387,718.58,294.387,722.58" style="stroke:#333333;stroke-width:1;stroke-linejoin:miter;stroke-miterlimit:10;"/><line style="stroke:#333333;stroke-width:1.5;" x1="366.516" x2="366.516" y1="896.38" y2="924.28"/><polygon fill="#333333" points="362.516,914.28,366.516,924.28,370.516,914.28,366.516,918.28" style="stroke:#333333;stroke-width:1;stroke-linejoin:miter;stroke-miterlimit:10;"/><line style="stroke:#333333;stroke-width:1.5;" x1="282.387" x2="222.258" y1="834.78" y2="834.78"/><line style="stroke:#333333;stroke-width:1.5;" x1="222.258" x2="222.258" y1="834.78" y2="856.78"/><polygon fill="#333333" points="218.258,846.78,222.258,856.78,226.258,846.78,222.258,850.78" style="stroke:#333333;stroke-width:1;stroke-linejoin:miter;stroke-miterlimit:10;"/><line style="stroke:#333333;stroke-width:1.5;" x1="306.387" x2="366.516" y1="834.78" y2="834.78"/><line style="stroke:#333333;stroke-width:1.5;" x1="366.516" x2="366.516" y1="834.78" y2="856.78"/><polygon fill="#333333" points="362.516,846.78,366.516,856.78,370.516,846.78,366.516,850.78" style="stroke:#333333;stroke-width:1;stroke-linejoin:miter;stroke-miterlimit:10;"/><line style="stroke:#333333;stroke-width:1.5;" x1="222.258" x2="222.258" y1="896.38" y2="981.88"/><line style="stroke:#333333;stroke-width:1.5;" x1="222.258" x2="282.387" y1="981.88" y2="981.88"/><polygon fill="#333333" points="272.387,977.88,282.387,981.88,272.387,985.88,276.387,981.88" style="stroke:#333333;stroke-width:1;stroke-linejoin:miter;stroke-miterlimit:10;"/><line style="stroke:#333333;stroke-width:1.5;" x1="366.516" x2="366.516" y1="963.88" y2="981.88"/><line style="stroke:#333333;stroke-width:1.5;" x1="366.516" x2="306.387" y1="981.88" y2="981.88"/><polygon fill="#333333" points="316.387,977.88,306.387,981.88,316.387,985.88,312.387,981.88" style="stroke:#333333;stroke-width:1;stroke-linejoin:miter;stroke-miterlimit:10;"/><line style="stroke:#333333;stroke-width:1.5;" x1="294.387" x2="294.387" y1="768.18" y2="822.78"/><polygon fill="#333333" points="290.387,812.78,294.387,822.78,298.387,812.78,294.387,816.78" style="stroke:#333333;stroke-width:1;stroke-linejoin:miter;stroke-miterlimit:10;"/><line style="stroke:#333333;stroke-width:1.5;" x1="294.387" x2="294.387" y1="993.88" y2="1013.88"/><polygon fill="#333333" points="290.387,1003.88,294.387,1013.88,298.387,1003.88,294.387,1007.88" style="stroke:#333333;stroke-width:1;stroke-linejoin:miter;stroke-miterlimit:10;"/><line style="stroke:#333333;stroke-width:1.5;" x1="578.927" x2="578.927" y1="623.48" y2="658.48"/><polygon fill="#333333" points="574.927,648.48,578.927,658.48,582.927,648.48,578.927,652.48" style="stroke:#333333;stroke-width:1;stroke-linejoin:miter;stroke-miterlimit:10;"/><line style="stroke:#333333;stroke-width:1.5;" x1="578.927" x2="578.927" y1="698.08" y2="733.08"/><polygon fill="#333333" points="574.927,723.08,578.927,733.08,582.927,723.08,578.927,727.08" style="stroke:#333333;stroke-width:1;stroke-linejoin:miter;stroke-miterlimit:10;"/><line style="stroke:#333333;stroke-width:1.5;" x1="578.927" x2="578.927" y1="772.68" y2="807.68"/><polygon fill="#333333" points="574.927,797.68,578.927,807.68,582.927,797.68,578.927,801.68" style="stroke:#333333;stroke-width:1;stroke-linejoin:miter;stroke-miterlimit:10;"/><line style="stroke:#333333;stroke-width:1.5;" x1="578.927" x2="578.927" y1="847.28" y2="882.28"/><polygon fill="#333333" points="574.927,872.28,578.927,882.28,582.927,872.28,578.927,876.28" style="stroke:#333333;stroke-width:1;stroke-linejoin:miter;stroke-miterlimit:10;"/><line style="stroke:#333333;stroke-width:1.5;" x1="893.185" x2="893.185" y1="660.78" y2="695.78"/><polygon fill="#333333" points="889.185,685.78,893.185,695.78,897.185,685.78,893.185,689.78" style="stroke:#333333;stroke-width:1;stroke-linejoin:miter;stroke-miterlimit:10;"/><line style="stroke:#333333;stroke-width:1.5;" x1="893.185" x2="893.185" y1="735.38" y2="770.38"/><polygon fill="#333333" points="889.185,760.38,893.185,770.38,897.185,760.38,893.185,764.38" style="stroke:#333333;stroke-width:1;stroke-linejoin:miter;stroke-miterlimit:10;"/><line style="stroke:#333333;stroke-width:1.5;" x1="893.185" x2="893.185" y1="809.98" y2="844.98"/><polygon fill="#333333" points="889.185,834.98,893.185,844.98,897.185,834.98,893.185,838.98" style="stroke:#333333;stroke-width:1;stroke-linejoin:miter;stroke-miterlimit:10;"/><line style="stroke:#333333;stroke-width:1.5;" x1="33" x2="33" y1="440.18" y2="444.18"/><line style="stroke:#333333;stroke-width:1.5;" x1="33" x2="294.387" y1="444.18" y2="444.18"/><line style="stroke:#333333;stroke-width:1.5;" x1="294.387" x2="294.387" y1="444.18" y2="460.18"/><polygon fill="#333333" points="290.387,450.18,294.387,460.18,298.387,450.18,294.387,454.18" style="stroke:#333333;stroke-width:1;stroke-linejoin:miter;stroke-miterlimit:10;"/><line style="stroke:#333333;stroke-width:1.5;" x1="56.3345" x2="56.3345" y1="440.18" y2="444.18"/><line style="stroke:#333333;stroke-width:1.5;" x1="56.3345" x2="578.927" y1="444.18" y2="444.18"/><line style="stroke:#333333;stroke-width:1.5;" x1="578.927" x2="578.927" y1="444.18" y2="583.88"/><polygon fill="#333333" points="574.927,573.88,578.927,583.88,582.927,573.88,578.927,577.88" style="stroke:#333333;stroke-width:1;stroke-linejoin:miter;stroke-miterlimit:10;"/><line style="stroke:#333333;stroke-width:1.5;" x1="147" x2="147" y1="440.18" y2="444.18"/><line style="stroke:#333333;stroke-width:1.5;" x1="147" x2="893.185" y1="444.18" y2="444.18"/><line style="stroke:#333333;stroke-width:1.5;" x1="893.185" x2="893.185" y1="444.18" y2="621.18"/><polygon fill="#333333" points="889.185,611.18,893.185,621.18,897.185,611.18,893.185,615.18" style="stroke:#333333;stroke-width:1;stroke-linejoin:miter;stroke-miterlimit:10;"/><text fill="#000000" font-family="PingFang SC" font-size="13" lengthAdjust="spacing" textLength="26" x="76" y="72.3">&#20844;&#20849;</text><text fill="#000000" font-family="PingFang SC" font-size="13" lengthAdjust="spacing" textLength="26" x="315.9635" y="72.3">&#23398;&#29983;</text><text fill="#000000" font-family="PingFang SC" font-size="13" lengthAdjust="spacing" textLength="26" x="634.927" y="72.3">&#25945;&#24072;</text><text fill="#000000" font-family="PingFang SC" font-size="13" lengthAdjust="spacing" textLength="39" x="928.056" y="72.3">&#31649;&#29702;&#21592;</text><?plantuml-src XLHTJnfP6BwVNt6IlQatQrjtR_2YqJOspIQRJTm_C2iZJjIPPfZkfhjiGaK4XoAW54LjWQQWJGjJjqj54Fml6yx7_8jzvvmHfWBr9I4vv_rwtkTvpuHNLUsfRCZhw3TvQJLawC-qu4DzJJVGTmlSfF0W8gWioy_Mp0LTCnVLFnLqRsQyysTvNK6_g5feGTP2QF6XBsf9ruAggUhQelbyJK51LLw76r-0l6IglwlcS_INXC3c9u3YFjq8AePtFyEDtm_n_U2B-tL5NLhLb70OtVl-H-blFt81Olxs-Rt0CNr7WeOWxlkSOLCsp4cPog3pY0l-JKxRjtlV21kEV7ziqCZ0S-xFBuPXw7zCQiQTNxCwT6gwgNnJmhkZ4ivpko7XNP1A0homB3yzHgJOPh4kjYznlKO_TsYdXFwBvX69TlhTFV9l1rkd-AWdIH4S_uZZPn694ou5QFwK9CzfiOExhsObTHdT8SaijaeFff2vecZe3ixMfdZd0CbawRksaoyosvxbLs5JVoefQs45iWxiAGbqKfUb0Biwml6gGE7K2awbEIj9oxgnwhO7UFbInAlOpB2JvCmZMgeoUmlmiKzdedB0YMwJr7jwr23bX73JZGlF1mLSaFLQ_wBCpctSsnGEJgsXXbPCVdIDfFR8TexixE9sXZKgjB6FjzEqs-ZtNhDcWOS1Q9xfrRxk9ShtMpjEF8sh-xGJW-F4FdDFS7BNIQGX4Kt3YTRpj90Rmk23UeYRcwIT7TCQPpQmLQOVoipQ8CqKixsnk2Zyx4GFsLLY80td_Bf5W9Igz3WrzuJP5YdKYLN5EKiK40eDX1JyvelEsmEI_mAwiyHdxtZySVPc20o5Nnm23_XTUi2047gm0bnS98TaLPCYv5KHjvAUmipkqTCKP0zufQ12TciYaS0so8FFtf3eoJHhz73ZS4Gnr_ejgtzPleLHW8_RU_wE0Pmymfsse1DVVA6TJPm-nvaSRiMk8-er4elZv1PvamNWG2IhdBeFAz6Ul6OxBqccWjirs7XOi-4qd4Ae1UL5nL6KemmAm3Xt4BdUT_UD0XPsiiks_xc5GJ7XDBqii5vkcjPUGBgeu0lP0fv5DV8wvXJ7aIUamuqAARTS-U6xaRE-OehifVlTOx9VnLVx406hzoa6dI05EF1z8Tpl0kBl_ty0?></g></svg>