<svg xmlns="http://www.w3.org/2000/svg" xmlns:xlink="http://www.w3.org/1999/xlink" contentStyleType="text/css" data-diagram-type="ACTIVITY" height="1548px" preserveAspectRatio="none" style="width:783px;height:1548px;background:#FEFEFE;" version="1.1" viewBox="0 0 783 1548" width="783px" zoomAndPan="magnify"><?plantuml 1.2026.6?><defs/><g><rect fill="#FEFEFE" height="1548" style="stroke:none;stroke-width:1;" width="783" x="0" y="0"/><g class="title" data-source-line="17"><text fill="#000000" font-family="sans-serif" font-size="14" font-weight="700" lengthAdjust="spacing" textLength="177.2285" x="302.0892" y="33.5352">&#27880;&#20876;&#19982;&#39564;&#35777;&#30721;&#27969;&#31243; &#8212; &#27963;&#21160;&#22270;</text></g><rect fill="none" height="12.9551" style="stroke:none;stroke-width:1;" width="736.407" x="20" y="53.4883"/><ellipse cx="192.756" cy="81.4434" fill="#222222" rx="10" ry="10" style="stroke:#222222;stroke-width:1;"/><rect fill="#E3F2FD" height="32.9551" rx="12.5" ry="12.5" style="stroke:#1565C0;stroke-width:0.5;" width="86" x="149.756" y="111.4434"/><text fill="#000000" font-family="sans-serif" font-size="11" lengthAdjust="spacing" textLength="66" x="159.756" y="132.0781">&#36827;&#20837;&#27880;&#20876;&#39029;&#38754;</text><rect fill="#E3F2FD" height="45.9102" rx="12.5" ry="12.5" style="stroke:#1565C0;stroke-width:0.5;" width="126.1543" x="129.6788" y="164.3984"/><text fill="#000000" font-family="sans-serif" font-size="11" lengthAdjust="spacing" textLength="44" x="139.6788" y="185.0332">&#22635;&#20889;&#20449;&#24687;</text><text fill="#000000" font-family="sans-serif" font-size="11" lengthAdjust="spacing" textLength="106.1543" x="139.6788" y="197.9883">(&#29992;&#25143;&#21517;&#12289;&#37038;&#31665;&#12289;&#23494;&#30721;)</text><rect fill="#E3F2FD" height="32.9551" rx="12.5" ry="12.5" style="stroke:#1565C0;stroke-width:0.5;" width="64" x="160.756" y="230.3086"/><text fill="#000000" font-family="sans-serif" font-size="11" lengthAdjust="spacing" textLength="44" x="170.756" y="250.9434">&#36755;&#20837;&#37038;&#31665;</text><path d="M121,327.2637 L121,341.2188 L101,345.2188 L121,349.2188 L121,363.1738 A0,0 0 0 0 121,363.1738 L208,363.1738 A0,0 0 0 0 208,363.1738 L208,337.2637 L198,327.2637 L121,327.2637 A0,0 0 0 0 121,327.2637" fill="#FEFFDD" style="stroke:#181818;stroke-width:0.5;"/><path d="M198,327.2637 L198,337.2637 L208,337.2637 L198,327.2637" fill="#FEFFDD" style="stroke:#181818;stroke-width:0.5;"/><text fill="#000000" font-family="sans-serif" font-size="11" lengthAdjust="spacing" textLength="66" x="127" y="342.8984">&#21069;&#31471;&#31105;&#29992;&#25353;&#38062;</text><text fill="#000000" font-family="sans-serif" font-size="11" lengthAdjust="spacing" textLength="66" x="127" y="355.8535">&#26174;&#31034;&#21097;&#20313;&#31186;&#25968;</text><rect fill="#E3F2FD" height="32.9551" rx="12.5" ry="12.5" style="stroke:#1565C0;stroke-width:0.5;" width="75" x="26" y="328.7412"/><text fill="#000000" font-family="sans-serif" font-size="11" lengthAdjust="spacing" textLength="55" x="36" y="349.376">&#31561;&#24453;&#20498;&#35745;&#26102;</text><rect fill="#E3F2FD" height="32.9551" rx="12.5" ry="12.5" style="stroke:#1565C0;stroke-width:0.5;" width="75" x="155.256" y="548.9941"/><text fill="#000000" font-family="sans-serif" font-size="11" lengthAdjust="spacing" textLength="55" x="165.256" y="569.6289">&#36755;&#20837;&#39564;&#35777;&#30721;</text><rect fill="#E3F2FD" height="32.9551" rx="12.5" ry="12.5" style="stroke:#1565C0;stroke-width:0.5;" width="86" x="149.756" y="601.9492"/><text fill="#000000" font-family="sans-serif" font-size="11" lengthAdjust="spacing" textLength="66" x="159.756" y="622.584">&#25552;&#20132;&#27880;&#20876;&#34920;&#21333;</text><rect fill="#E3F2FD" height="32.9551" rx="12.5" ry="12.5" style="stroke:#1565C0;stroke-width:0.5;" width="105.2178" x="140.1471" y="703.3818"/><text fill="#000000" font-family="sans-serif" font-size="11" lengthAdjust="spacing" textLength="85.2178" x="150.1471" y="724.0166">&#25552;&#31034;"&#39564;&#35777;&#30721;&#38169;&#35823;"</text><rect fill="#E3F2FD" height="32.9551" rx="12.5" ry="12.5" style="stroke:#1565C0;stroke-width:0.5;" width="97" x="144.256" y="770.8369"/><text fill="#000000" font-family="sans-serif" font-size="11" lengthAdjust="spacing" textLength="77" x="154.256" y="791.4717">&#37325;&#26032;&#36755;&#20837;&#39564;&#35777;&#30721;</text><rect fill="#E3F2FD" height="32.9551" rx="12.5" ry="12.5" style="stroke:#1565C0;stroke-width:0.5;" width="116.2178" x="134.6471" y="894.2695"/><text fill="#000000" font-family="sans-serif" font-size="11" lengthAdjust="spacing" textLength="96.2178" x="144.6471" y="914.9043">&#25552;&#31034;"&#39564;&#35777;&#30721;&#24050;&#36807;&#26399;"</text><rect fill="#E3F2FD" height="32.9551" rx="12.5" ry="12.5" style="stroke:#1565C0;stroke-width:0.5;" width="97" x="144.256" y="961.7246"/><text fill="#000000" font-family="sans-serif" font-size="11" lengthAdjust="spacing" textLength="77" x="154.256" y="982.3594">&#37325;&#26032;&#33719;&#21462;&#39564;&#35777;&#30721;</text><rect fill="#E3F2FD" height="32.9551" rx="12.5" ry="12.5" style="stroke:#1565C0;stroke-width:0.5;" width="105.2178" x="140.1471" y="1085.1572"/><text fill="#000000" font-family="sans-serif" font-size="11" lengthAdjust="spacing" textLength="85.2178" x="150.1471" y="1105.792">&#25552;&#31034;"&#36134;&#21495;&#24050;&#23384;&#22312;"</text><rect fill="#E3F2FD" height="32.9551" rx="12.5" ry="12.5" style="stroke:#1565C0;stroke-width:0.5;" width="75" x="155.256" y="1152.6123"/><text fill="#000000" font-family="sans-serif" font-size="11" lengthAdjust="spacing" textLength="55" x="165.256" y="1173.2471">&#20462;&#25913;&#29992;&#25143;&#21517;</text><rect fill="#E3F2FD" height="32.9551" rx="12.5" ry="12.5" style="stroke:#1565C0;stroke-width:0.5;" width="94.2178" x="145.6471" y="1399.3877"/><text fill="#000000" font-family="sans-serif" font-size="11" lengthAdjust="spacing" textLength="74.2178" x="155.6471" y="1420.0225">&#25552;&#31034;"&#27880;&#20876;&#25104;&#21151;"</text><rect fill="#E3F2FD" height="32.9551" rx="12.5" ry="12.5" style="stroke:#1565C0;stroke-width:0.5;" width="75" x="155.256" y="1452.3428"/><text fill="#000000" font-family="sans-serif" font-size="11" lengthAdjust="spacing" textLength="55" x="165.256" y="1472.9775">&#36339;&#36716;&#30331;&#24405;&#39029;</text><ellipse cx="192.756" cy="1516.2979" fill="none" rx="11" ry="11" style="stroke:#222222;stroke-width:1;"/><ellipse cx="192.756" cy="1516.2979" fill="#222222" rx="6" ry="6" style="stroke:#222222;stroke-width:1;"/><line style="stroke:#000000;stroke-width:1.5;" x1="20" x2="20" y1="53.4883" y2="1527.2979"/><polygon fill="#E3F2FD" points="295.5048,283.2637,372.537,283.2637,384.537,295.2637,372.537,307.2637,295.5048,307.2637,283.5048,295.2637,295.5048,283.2637" style="stroke:#1565C0;stroke-width:0.5;stroke-linejoin:miter;stroke-miterlimit:10;"/><text fill="#000000" font-family="sans-serif" font-size="11" lengthAdjust="spacing" textLength="77.0322" x="295.5048" y="299.4209">60 &#31186;&#20869;&#24050;&#21457;&#36865;?</text><text fill="#000000" font-family="sans-serif" font-size="11" lengthAdjust="spacing" textLength="11" x="272.5048" y="292.9434">&#26159;</text><text fill="#000000" font-family="sans-serif" font-size="11" lengthAdjust="spacing" textLength="11" x="384.537" y="292.9434">&#21542;</text><rect fill="#E3F2FD" height="32.9551" rx="12.5" ry="12.5" style="stroke:#1565C0;stroke-width:0.5;" width="121.9165" x="402.3186" y="327.2637"/><text fill="#000000" font-family="sans-serif" font-size="11" lengthAdjust="spacing" textLength="101.9165" x="412.3186" y="347.8984">&#29983;&#25104; 6 &#20301;&#38543;&#26426;&#39564;&#35777;&#30721;</text><path d="M577.2888,394.6514 L577.2888,402.1289 L557.2888,406.1289 L577.2888,410.1289 L577.2888,417.6064 A0,0 0 0 0 577.2888,417.6064 L750.6667,417.6064 A0,0 0 0 0 750.6667,417.6064 L750.6667,404.6514 L740.6667,394.6514 L577.2888,394.6514 A0,0 0 0 0 577.2888,394.6514" fill="#FEFFDD" style="stroke:#181818;stroke-width:0.5;"/><path d="M740.6667,394.6514 L740.6667,404.6514 L750.6667,404.6514 L740.6667,394.6514" fill="#FEFFDD" style="stroke:#181818;stroke-width:0.5;"/><text fill="#000000" font-family="sans-serif" font-size="11" lengthAdjust="spacing" textLength="152.3779" x="583.2888" y="410.2861">expire_time = now() + 5&#20998;&#38047;</text><rect fill="#E3F2FD" height="45.9102" rx="12.5" ry="12.5" style="stroke:#1565C0;stroke-width:0.5;" width="188.0239" x="369.2649" y="383.1738"/><text fill="#000000" font-family="sans-serif" font-size="11" lengthAdjust="spacing" textLength="107.7173" x="379.2649" y="403.8086">&#23384;&#20837; sys_email_code</text><text fill="#000000" font-family="sans-serif" font-size="11" lengthAdjust="spacing" textLength="168.0239" x="379.2649" y="416.7637">(email, code, type, expire_time)</text><rect fill="#E3F2FD" height="45.9102" rx="12.5" ry="12.5" style="stroke:#1565C0;stroke-width:0.5;" width="95.813" x="415.3704" y="449.084"/><text fill="#000000" font-family="sans-serif" font-size="11" lengthAdjust="spacing" textLength="55" x="425.3704" y="469.7188">&#36755;&#20986;&#39564;&#35777;&#30721;</text><text fill="#000000" font-family="sans-serif" font-size="11" lengthAdjust="spacing" textLength="75.813" x="425.3704" y="482.6738">(console/&#37038;&#20214;)</text><polygon fill="#E3F2FD" points="334.0209,504.9941,346.0209,516.9941,334.0209,528.9941,322.0209,516.9941,334.0209,504.9941" style="stroke:#1565C0;stroke-width:0.5;stroke-linejoin:miter;stroke-miterlimit:10;"/><polygon fill="#E3F2FD" points="304.2006,654.9043,363.8412,654.9043,375.8412,666.9043,363.8412,678.9043,304.2006,678.9043,292.2006,666.9043,304.2006,654.9043" style="stroke:#1565C0;stroke-width:0.5;stroke-linejoin:miter;stroke-miterlimit:10;"/><text fill="#000000" font-family="sans-serif" font-size="11" lengthAdjust="spacing" textLength="11" x="338.0209" y="689.5391">&#21542;</text><text fill="#000000" font-family="sans-serif" font-size="11" lengthAdjust="spacing" textLength="59.6406" x="304.2006" y="671.0615">&#39564;&#35777;&#30721;&#27491;&#30830;?</text><polygon fill="#E3F2FD" points="309.9825,845.792,358.0592,845.792,370.0592,857.792,358.0592,869.792,309.9825,869.792,297.9825,857.792,309.9825,845.792" style="stroke:#1565C0;stroke-width:0.5;stroke-linejoin:miter;stroke-miterlimit:10;"/><text fill="#000000" font-family="sans-serif" font-size="11" lengthAdjust="spacing" textLength="11" x="338.0209" y="880.4268">&#21542;</text><text fill="#000000" font-family="sans-serif" font-size="11" lengthAdjust="spacing" textLength="48.0767" x="309.9825" y="861.9492">5 &#20998;&#38047;&#20869;?</text><polygon fill="#E3F2FD" points="309.7006,1036.6797,358.3412,1036.6797,370.3412,1048.6797,358.3412,1060.6797,309.7006,1060.6797,297.7006,1048.6797,309.7006,1036.6797" style="stroke:#1565C0;stroke-width:0.5;stroke-linejoin:miter;stroke-miterlimit:10;"/><text fill="#000000" font-family="sans-serif" font-size="11" lengthAdjust="spacing" textLength="11" x="338.0209" y="1071.3145">&#21542;</text><text fill="#000000" font-family="sans-serif" font-size="11" lengthAdjust="spacing" textLength="48.6406" x="309.7006" y="1052.8369">&#36134;&#21495;&#21807;&#19968;?</text><rect fill="#E3F2FD" height="32.9551" rx="12.5" ry="12.5" style="stroke:#1565C0;stroke-width:0.5;" width="92.1499" x="287.9459" y="1227.5674"/><text fill="#000000" font-family="sans-serif" font-size="11" lengthAdjust="spacing" textLength="72.1499" x="297.9459" y="1248.2021">MD5 &#21152;&#23494;&#23494;&#30721;</text><rect fill="#E3F2FD" height="32.9551" rx="12.5" ry="12.5" style="stroke:#1565C0;stroke-width:0.5;" width="136.3755" x="265.8331" y="1280.5225"/><text fill="#000000" font-family="sans-serif" font-size="11" lengthAdjust="spacing" textLength="116.3755" x="275.8331" y="1301.1572">INSERT INTO sys_user</text><rect fill="#E3F2FD" height="45.9102" rx="12.5" ry="12.5" style="stroke:#1565C0;stroke-width:0.5;" width="135.5161" x="266.2628" y="1333.4775"/><text fill="#000000" font-family="sans-serif" font-size="11" lengthAdjust="spacing" textLength="88" x="276.2628" y="1354.1123">&#26631;&#35760;&#39564;&#35777;&#30721;&#24050;&#20351;&#29992;</text><text fill="#000000" font-family="sans-serif" font-size="11" lengthAdjust="spacing" textLength="115.5161" x="276.2628" y="1367.0674">(UPDATE is_used = 1)</text><line style="stroke:#000000;stroke-width:1.5;" x1="259.8331" x2="259.8331" y1="53.4883" y2="1527.2979"/><line style="stroke:#000000;stroke-width:1.5;" x1="755.6667" x2="755.6667" y1="53.4883" y2="1527.2979"/><line style="stroke:#181818;stroke-width:1;" x1="192.756" x2="192.756" y1="91.4434" y2="111.4434"/><polygon fill="#181818" points="188.756,101.4434,192.756,111.4434,196.756,101.4434,192.756,105.4434" style="stroke:#181818;stroke-width:1;stroke-linejoin:miter;stroke-miterlimit:10;"/><line style="stroke:#181818;stroke-width:1;" x1="192.756" x2="192.756" y1="144.3984" y2="164.3984"/><polygon fill="#181818" points="188.756,154.3984,192.756,164.3984,196.756,154.3984,192.756,158.3984" style="stroke:#181818;stroke-width:1;stroke-linejoin:miter;stroke-miterlimit:10;"/><line style="stroke:#181818;stroke-width:1;" x1="192.756" x2="192.756" y1="210.3086" y2="230.3086"/><polygon fill="#181818" points="188.756,220.3086,192.756,230.3086,196.756,220.3086,192.756,224.3086" style="stroke:#181818;stroke-width:1;stroke-linejoin:miter;stroke-miterlimit:10;"/><line style="stroke:#181818;stroke-width:1;" x1="192.756" x2="192.756" y1="581.9492" y2="601.9492"/><polygon fill="#181818" points="188.756,591.9492,192.756,601.9492,196.756,591.9492,192.756,595.9492" style="stroke:#181818;stroke-width:1;stroke-linejoin:miter;stroke-miterlimit:10;"/><line style="stroke:#181818;stroke-width:1;" x1="192.756" x2="192.756" y1="736.3369" y2="770.8369"/><polygon fill="#181818" points="188.756,760.8369,192.756,770.8369,196.756,760.8369,192.756,764.8369" style="stroke:#181818;stroke-width:1;stroke-linejoin:miter;stroke-miterlimit:10;"/><line style="stroke:#181818;stroke-width:1;" x1="192.756" x2="192.756" y1="927.2246" y2="961.7246"/><polygon fill="#181818" points="188.756,951.7246,192.756,961.7246,196.756,951.7246,192.756,955.7246" style="stroke:#181818;stroke-width:1;stroke-linejoin:miter;stroke-miterlimit:10;"/><line style="stroke:#181818;stroke-width:1;" x1="192.756" x2="192.756" y1="1118.1123" y2="1152.6123"/><polygon fill="#181818" points="188.756,1142.6123,192.756,1152.6123,196.756,1142.6123,192.756,1146.6123" style="stroke:#181818;stroke-width:1;stroke-linejoin:miter;stroke-miterlimit:10;"/><line style="stroke:#181818;stroke-width:1;" x1="192.756" x2="192.756" y1="1432.3428" y2="1452.3428"/><polygon fill="#181818" points="188.756,1442.3428,192.756,1452.3428,196.756,1442.3428,192.756,1446.3428" style="stroke:#181818;stroke-width:1;stroke-linejoin:miter;stroke-miterlimit:10;"/><line style="stroke:#181818;stroke-width:1;" x1="192.756" x2="192.756" y1="1485.2979" y2="1505.2979"/><polygon fill="#181818" points="188.756,1495.2979,192.756,1505.2979,196.756,1495.2979,192.756,1499.2979" style="stroke:#181818;stroke-width:1;stroke-linejoin:miter;stroke-miterlimit:10;"/><line style="stroke:#181818;stroke-width:1;" x1="463.2769" x2="463.2769" y1="360.2188" y2="383.1738"/><polygon fill="#181818" points="459.2769,373.1738,463.2769,383.1738,467.2769,373.1738,463.2769,377.1738" style="stroke:#181818;stroke-width:1;stroke-linejoin:miter;stroke-miterlimit:10;"/><line style="stroke:#181818;stroke-width:1;" x1="463.2769" x2="463.2769" y1="429.084" y2="449.084"/><polygon fill="#181818" points="459.2769,439.084,463.2769,449.084,467.2769,439.084,463.2769,443.084" style="stroke:#181818;stroke-width:1;stroke-linejoin:miter;stroke-miterlimit:10;"/><line style="stroke:#181818;stroke-width:1;" x1="384.537" x2="463.2769" y1="295.2637" y2="295.2637"/><line style="stroke:#181818;stroke-width:1;" x1="463.2769" x2="463.2769" y1="295.2637" y2="327.2637"/><polygon fill="#181818" points="459.2769,317.2637,463.2769,327.2637,467.2769,317.2637,463.2769,321.2637" style="stroke:#181818;stroke-width:1;stroke-linejoin:miter;stroke-miterlimit:10;"/><line style="stroke:#181818;stroke-width:1;" x1="463.2769" x2="463.2769" y1="494.9941" y2="516.9941"/><line style="stroke:#181818;stroke-width:1;" x1="463.2769" x2="346.0209" y1="516.9941" y2="516.9941"/><polygon fill="#181818" points="356.0209,512.9941,346.0209,516.9941,356.0209,520.9941,352.0209,516.9941" style="stroke:#181818;stroke-width:1;stroke-linejoin:miter;stroke-miterlimit:10;"/><line style="stroke:#181818;stroke-width:1;" x1="375.8412" x2="396.6298" y1="666.9043" y2="666.9043"/><polygon fill="#181818" points="392.6298,740.8369,396.6298,750.8369,400.6298,740.8369,396.6298,744.8369" style="stroke:#181818;stroke-width:1;stroke-linejoin:miter;stroke-miterlimit:10;"/><line style="stroke:#181818;stroke-width:1;" x1="396.6298" x2="396.6298" y1="666.9043" y2="825.792"/><line style="stroke:#181818;stroke-width:1;" x1="396.6298" x2="334.0209" y1="825.792" y2="825.792"/><line style="stroke:#181818;stroke-width:1;" x1="334.0209" x2="334.0209" y1="825.792" y2="845.792"/><polygon fill="#181818" points="330.0209,835.792,334.0209,845.792,338.0209,835.792,334.0209,839.792" style="stroke:#181818;stroke-width:1;stroke-linejoin:miter;stroke-miterlimit:10;"/><line style="stroke:#181818;stroke-width:1;" x1="370.0592" x2="402.1298" y1="857.792" y2="857.792"/><polygon fill="#181818" points="398.1298,931.7246,402.1298,941.7246,406.1298,931.7246,402.1298,935.7246" style="stroke:#181818;stroke-width:1;stroke-linejoin:miter;stroke-miterlimit:10;"/><line style="stroke:#181818;stroke-width:1;" x1="402.1298" x2="402.1298" y1="857.792" y2="1016.6797"/><line style="stroke:#181818;stroke-width:1;" x1="402.1298" x2="334.0209" y1="1016.6797" y2="1016.6797"/><line style="stroke:#181818;stroke-width:1;" x1="334.0209" x2="334.0209" y1="1016.6797" y2="1036.6797"/><polygon fill="#181818" points="330.0209,1026.6797,334.0209,1036.6797,338.0209,1026.6797,334.0209,1030.6797" style="stroke:#181818;stroke-width:1;stroke-linejoin:miter;stroke-miterlimit:10;"/><line style="stroke:#181818;stroke-width:1;" x1="370.3412" x2="396.6298" y1="1048.6797" y2="1048.6797"/><polygon fill="#181818" points="392.6298,1122.6123,396.6298,1132.6123,400.6298,1122.6123,396.6298,1126.6123" style="stroke:#181818;stroke-width:1;stroke-linejoin:miter;stroke-miterlimit:10;"/><line style="stroke:#181818;stroke-width:1;" x1="396.6298" x2="396.6298" y1="1048.6797" y2="1207.5674"/><line style="stroke:#181818;stroke-width:1;" x1="396.6298" x2="334.0209" y1="1207.5674" y2="1207.5674"/><line style="stroke:#181818;stroke-width:1;" x1="334.0209" x2="334.0209" y1="1207.5674" y2="1227.5674"/><polygon fill="#181818" points="330.0209,1217.5674,334.0209,1227.5674,338.0209,1217.5674,334.0209,1221.5674" style="stroke:#181818;stroke-width:1;stroke-linejoin:miter;stroke-miterlimit:10;"/><line style="stroke:#181818;stroke-width:1;" x1="334.0209" x2="334.0209" y1="1260.5225" y2="1280.5225"/><polygon fill="#181818" points="330.0209,1270.5225,334.0209,1280.5225,338.0209,1270.5225,334.0209,1274.5225" style="stroke:#181818;stroke-width:1;stroke-linejoin:miter;stroke-miterlimit:10;"/><line style="stroke:#181818;stroke-width:1;" x1="334.0209" x2="334.0209" y1="1313.4775" y2="1333.4775"/><polygon fill="#181818" points="330.0209,1323.4775,334.0209,1333.4775,338.0209,1323.4775,334.0209,1327.4775" style="stroke:#181818;stroke-width:1;stroke-linejoin:miter;stroke-miterlimit:10;"/><line style="stroke:#181818;stroke-width:1;" x1="283.5048" x2="63.5" y1="295.2637" y2="295.2637"/><line style="stroke:#181818;stroke-width:1;" x1="63.5" x2="63.5" y1="295.2637" y2="328.7412"/><polygon fill="#181818" points="59.5,318.7412,63.5,328.7412,67.5,318.7412,63.5,322.7412" style="stroke:#181818;stroke-width:1;stroke-linejoin:miter;stroke-miterlimit:10;"/><line style="stroke:#181818;stroke-width:1;" x1="63.5" x2="63.5" y1="361.6963" y2="516.9941"/><line style="stroke:#181818;stroke-width:1;" x1="63.5" x2="322.0209" y1="516.9941" y2="516.9941"/><polygon fill="#181818" points="312.0209,512.9941,322.0209,516.9941,312.0209,520.9941,316.0209,516.9941" style="stroke:#181818;stroke-width:1;stroke-linejoin:miter;stroke-miterlimit:10;"/><line style="stroke:#181818;stroke-width:1;" x1="192.756" x2="192.756" y1="263.2637" y2="268.2637"/><line style="stroke:#181818;stroke-width:1;" x1="192.756" x2="334.0209" y1="268.2637" y2="268.2637"/><line style="stroke:#181818;stroke-width:1;" x1="334.0209" x2="334.0209" y1="268.2637" y2="283.2637"/><polygon fill="#181818" points="330.0209,273.2637,334.0209,283.2637,338.0209,273.2637,334.0209,277.2637" style="stroke:#181818;stroke-width:1;stroke-linejoin:miter;stroke-miterlimit:10;"/><line style="stroke:#181818;stroke-width:1;" x1="334.0209" x2="334.0209" y1="528.9941" y2="533.9941"/><line style="stroke:#181818;stroke-width:1;" x1="334.0209" x2="192.756" y1="533.9941" y2="533.9941"/><line style="stroke:#181818;stroke-width:1;" x1="192.756" x2="192.756" y1="533.9941" y2="548.9941"/><polygon fill="#181818" points="188.756,538.9941,192.756,548.9941,196.756,538.9941,192.756,542.9941" style="stroke:#181818;stroke-width:1;stroke-linejoin:miter;stroke-miterlimit:10;"/><line style="stroke:#181818;stroke-width:1;" x1="334.0209" x2="334.0209" y1="678.9043" y2="691.1431"/><line style="stroke:#181818;stroke-width:1;" x1="334.0209" x2="192.756" y1="691.1431" y2="691.1431"/><line style="stroke:#181818;stroke-width:1;" x1="192.756" x2="192.756" y1="691.1431" y2="703.3818"/><polygon fill="#181818" points="188.756,693.3818,192.756,703.3818,196.756,693.3818,192.756,697.3818" style="stroke:#181818;stroke-width:1;stroke-linejoin:miter;stroke-miterlimit:10;"/><line style="stroke:#181818;stroke-width:1;" x1="192.756" x2="192.756" y1="634.9043" y2="639.9043"/><line style="stroke:#181818;stroke-width:1;" x1="192.756" x2="334.0209" y1="639.9043" y2="639.9043"/><line style="stroke:#181818;stroke-width:1;" x1="334.0209" x2="334.0209" y1="639.9043" y2="654.9043"/><polygon fill="#181818" points="330.0209,644.9043,334.0209,654.9043,338.0209,644.9043,334.0209,648.9043" style="stroke:#181818;stroke-width:1;stroke-linejoin:miter;stroke-miterlimit:10;"/><line style="stroke:#181818;stroke-width:1;" x1="334.0209" x2="334.0209" y1="869.792" y2="882.0308"/><line style="stroke:#181818;stroke-width:1;" x1="334.0209" x2="192.756" y1="882.0308" y2="882.0308"/><line style="stroke:#181818;stroke-width:1;" x1="192.756" x2="192.756" y1="882.0308" y2="894.2695"/><polygon fill="#181818" points="188.756,884.2695,192.756,894.2695,196.756,884.2695,192.756,888.2695" style="stroke:#181818;stroke-width:1;stroke-linejoin:miter;stroke-miterlimit:10;"/><line style="stroke:#181818;stroke-width:1;" x1="334.0209" x2="334.0209" y1="1060.6797" y2="1072.9185"/><line style="stroke:#181818;stroke-width:1;" x1="334.0209" x2="192.756" y1="1072.9185" y2="1072.9185"/><line style="stroke:#181818;stroke-width:1;" x1="192.756" x2="192.756" y1="1072.9185" y2="1085.1572"/><polygon fill="#181818" points="188.756,1075.1572,192.756,1085.1572,196.756,1075.1572,192.756,1079.1572" style="stroke:#181818;stroke-width:1;stroke-linejoin:miter;stroke-miterlimit:10;"/><line style="stroke:#181818;stroke-width:1;" x1="334.0209" x2="334.0209" y1="1379.3877" y2="1384.3877"/><line style="stroke:#181818;stroke-width:1;" x1="334.0209" x2="192.756" y1="1384.3877" y2="1384.3877"/><line style="stroke:#181818;stroke-width:1;" x1="192.756" x2="192.756" y1="1384.3877" y2="1399.3877"/><polygon fill="#181818" points="188.756,1389.3877,192.756,1399.3877,196.756,1389.3877,192.756,1393.3877" style="stroke:#181818;stroke-width:1;stroke-linejoin:miter;stroke-miterlimit:10;"/><text fill="#000000" font-family="sans-serif" font-size="11" lengthAdjust="spacing" textLength="22" x="128.9166" y="64.123">&#23398;&#29983;</text><text fill="#000000" font-family="sans-serif" font-size="11" lengthAdjust="spacing" textLength="22" x="496.7499" y="64.123">&#31995;&#32479;</text><?plantuml-src fLHjJzDG5FxUNt6Z7zYYYKmOn15Y56XYubi4lvcGkbsaSLj9LrGKaut8Nf2nYGD1CJ15d2zRKOGfSzj_qTvxsq_-1K_RiHKKex5BbfvxpZtFSy_ptBQXtlzuk3P4FrN8J84ygw5lqHoYMmKIdzK-pnblPtKrnjPYT3l62W_DmhK4ISJHrGldVtnzgc-NoUk79rWbIOillaTZ9BbE5ulwp1IR-cA6jRTiJdMHwBnUojCdEsvOqtUcuOsiFs3PEBJxBzgHcs9uJ9254Bek-6_UaANnSA1F2aeoEieFc3z7HG2F2ED1XPV2og1u5oEFnv4K_8fuIrGcq3qEmNFsOBU13luats_d93c0vSQwnzlbxMktrfsDxpjnHI4aXGE_jEHv_bHVvsyAdVrvRpVlwNOKHHH1LXh9phuplBVTaSIjvfsT7HrT7AU8IX0VggOjzPxm73T9YXiijph9MIYSJwy_8zElxDr6Vjju_gA7yv7yEn9Vrkfv6bElXLqiLw39CiccGLfZgiHA7qpTrJY0k7iuw55x33ti3CIJRAl2AW0XZY1NLpjYh-T9V9gKFvBC8oCQE-r6oYWE8nTTKjtMM9kSpC37YYbIcsxwgSTQ3KiAHh9uOrInGlCXgJHxfxADc4blDcNCbvefkbHZwxiazKQhBWCwNTYqKZ0xgn67Wn6CN2IxqS3V8spZvrPfCekwa5PD6qypT6MtELARYuyKb-2yA38H6SOXGGmE-wK0XZbPmN5aHiUHCZ46__ZEc2ZZOKKCOVUX9t4KeLuekEroesF8Iv9nOtvrFtCBtvnteiKAaFrIE285yGdGGAli019i44SSQkzfr3g9ZsQoskwwhRoUBv3qma7jMbOglcJvKbEurk3s2GSDOUf7chkCtBAkgaSQGpCIQRgu-GiDCnV0Yk0VRN9sKl0YUmfWe7-51yFfzGHTMJt0OAvCCej_pq3_j44oPP9JjS_HlwJGs0A61wEi5FRmjNg9vhuqBzCVaNqN-k7eCsjmo-oB1eATkpWuS6K8dRiuTCdotdW4owQEQmczjEayjbQj0mhOukhb_ZD30qYqQWFWBOzvNrkcQF2rFG2c9pFci7nwUKkllcVB5L9TW6z23tmhf37k9m00?></g></svg>