<?xml version="1.0" encoding="UTF-8" standalone="no"?>
<!DOCTYPE svg PUBLIC "-//W3C//DTD SVG 1.1//EN"
 "http://www.w3.org/Graphics/SVG/1.1/DTD/svg11.dtd">
<!-- Generated by graphviz version 15.1.0 (20260618.0150)
 -->
<!-- Title: 注册活动图 Pages: 1 -->
<svg width="600pt" height="1885pt"
 viewBox="0.00 0.00 600.00 1885.00" xmlns="http://www.w3.org/2000/svg" xmlns:xlink="http://www.w3.org/1999/xlink">
<g id="graph0" class="graph" transform="scale(1.66667 1.66667) rotate(0) translate(4 1127.12)">
<title>注册活动图</title>
<polygon fill="white" stroke="none" points="-4,4 -4,-1127.12 355.75,-1127.12 355.75,4 -4,4"/>
<!-- start -->
<g id="node1" class="node">
<title>start</title>
<ellipse fill="black" stroke="black" cx="126.25" cy="-1112.32" rx="10.8" ry="10.8"/>
</g>
<!-- a1 -->
<g id="node2" class="node">
<title>a1</title>
<path fill="white" stroke="black" d="M141.25,-1083.52C141.25,-1083.52 111.25,-1083.52 111.25,-1083.52 105.25,-1083.52 99.25,-1077.52 99.25,-1071.52 99.25,-1071.52 99.25,-1059.52 99.25,-1059.52 99.25,-1053.52 105.25,-1047.52 111.25,-1047.52 111.25,-1047.52 141.25,-1047.52 141.25,-1047.52 147.25,-1047.52 153.25,-1053.52 153.25,-1059.52 153.25,-1059.52 153.25,-1071.52 153.25,-1071.52 153.25,-1077.52 147.25,-1083.52 141.25,-1083.52"/>
<text xml:space="preserve" text-anchor="middle" x="126.25" y="-1063.92" font-family="PingFang SC,Microsoft YaHei,sans-serif" font-size="8.00">a1</text>
<text xml:space="preserve" text-anchor="middle" x="74.5" y="-1087.92" font-family="PingFang SC,Microsoft YaHei,sans-serif" font-size="8.00">进入注册页面</text>
</g>
<!-- start&#45;&gt;a1 -->
<g id="edge1" class="edge">
<title>start&#45;&gt;a1</title>
<path fill="none" stroke="black" d="M126.25,-1101.46C126.25,-1101.46 126.25,-1095.53 126.25,-1095.53"/>
<polygon fill="black" stroke="black" points="129.75,-1095.53 126.25,-1085.53 122.75,-1095.53 129.75,-1095.53"/>
</g>
<!-- a2 -->
<g id="node3" class="node">
<title>a2</title>
<path fill="white" stroke="black" d="M141.25,-1029.52C141.25,-1029.52 111.25,-1029.52 111.25,-1029.52 105.25,-1029.52 99.25,-1023.52 99.25,-1017.52 99.25,-1017.52 99.25,-1005.52 99.25,-1005.52 99.25,-999.52 105.25,-993.52 111.25,-993.52 111.25,-993.52 141.25,-993.52 141.25,-993.52 147.25,-993.52 153.25,-999.52 153.25,-1005.52 153.25,-1005.52 153.25,-1017.52 153.25,-1017.52 153.25,-1023.52 147.25,-1029.52 141.25,-1029.52"/>
<text xml:space="preserve" text-anchor="middle" x="126.25" y="-1009.92" font-family="PingFang SC,Microsoft YaHei,sans-serif" font-size="8.00">a2</text>
<text xml:space="preserve" text-anchor="middle" x="59.12" y="-1045.92" font-family="PingFang SC,Microsoft YaHei,sans-serif" font-size="8.00">填写信息</text>
<text xml:space="preserve" text-anchor="middle" x="59.12" y="-1033.92" font-family="PingFang SC,Microsoft YaHei,sans-serif" font-size="8.00">(用户名、邮箱、密码)</text>
</g>
<!-- a1&#45;&gt;a2 -->
<g id="edge2" class="edge">
<title>a1&#45;&gt;a2</title>
<path fill="none" stroke="black" d="M126.25,-1047.24C126.25,-1047.24 126.25,-1041.3 126.25,-1041.3"/>
<polygon fill="black" stroke="black" points="129.75,-1041.3 126.25,-1031.3 122.75,-1041.3 129.75,-1041.3"/>
</g>
<!-- a3 -->
<g id="node4" class="node">
<title>a3</title>
<path fill="white" stroke="black" d="M141.25,-975.52C141.25,-975.52 111.25,-975.52 111.25,-975.52 105.25,-975.52 99.25,-969.52 99.25,-963.52 99.25,-963.52 99.25,-951.52 99.25,-951.52 99.25,-945.52 105.25,-939.52 111.25,-939.52 111.25,-939.52 141.25,-939.52 141.25,-939.52 147.25,-939.52 153.25,-945.52 153.25,-951.52 153.25,-951.52 153.25,-963.52 153.25,-963.52 153.25,-969.52 147.25,-975.52 141.25,-975.52"/>
<text xml:space="preserve" text-anchor="middle" x="126.25" y="-955.92" font-family="PingFang SC,Microsoft YaHei,sans-serif" font-size="8.00">a3</text>
<text xml:space="preserve" text-anchor="middle" x="82.75" y="-979.92" font-family="PingFang SC,Microsoft YaHei,sans-serif" font-size="8.00">输入邮箱</text>
</g>
<!-- a2&#45;&gt;a3 -->
<g id="edge3" class="edge">
<title>a2&#45;&gt;a3</title>
<path fill="none" stroke="black" d="M126.25,-993.24C126.25,-993.24 126.25,-987.3 126.25,-987.3"/>
<polygon fill="black" stroke="black" points="129.75,-987.3 126.25,-977.3 122.75,-987.3 129.75,-987.3"/>
</g>
<!-- d1 -->
<g id="node22" class="node">
<title>d1</title>
<polygon fill="white" stroke="black" points="126.25,-921.52 99.25,-903.52 126.25,-885.52 153.25,-903.52 126.25,-921.52"/>
<text xml:space="preserve" text-anchor="middle" x="126.25" y="-902.02" font-family="PingFang SC,Microsoft YaHei,sans-serif" font-size="7.50">d1</text>
<text xml:space="preserve" text-anchor="middle" x="86.12" y="-936.89" font-family="PingFang SC,Microsoft YaHei,sans-serif" font-size="7.50">60秒内</text>
<text xml:space="preserve" text-anchor="middle" x="86.12" y="-925.64" font-family="PingFang SC,Microsoft YaHei,sans-serif" font-size="7.50">已发送?</text>
</g>
<!-- a3&#45;&gt;d1 -->
<g id="edge4" class="edge">
<title>a3&#45;&gt;d1</title>
<path fill="none" stroke="black" d="M126.25,-939.24C126.25,-939.24 126.25,-933.3 126.25,-933.3"/>
<polygon fill="black" stroke="black" points="129.75,-933.3 126.25,-923.3 122.75,-933.3 129.75,-933.3"/>
</g>
<!-- a4 -->
<g id="node5" class="node">
<title>a4</title>
<path fill="white" stroke="black" d="M108.25,-813.52C108.25,-813.52 78.25,-813.52 78.25,-813.52 72.25,-813.52 66.25,-807.52 66.25,-801.52 66.25,-801.52 66.25,-789.52 66.25,-789.52 66.25,-783.52 72.25,-777.52 78.25,-777.52 78.25,-777.52 108.25,-777.52 108.25,-777.52 114.25,-777.52 120.25,-783.52 120.25,-789.52 120.25,-789.52 120.25,-801.52 120.25,-801.52 120.25,-807.52 114.25,-813.52 108.25,-813.52"/>
<text xml:space="preserve" text-anchor="middle" x="93.25" y="-793.92" font-family="PingFang SC,Microsoft YaHei,sans-serif" font-size="8.00">a4</text>
<text xml:space="preserve" text-anchor="middle" x="38.5" y="-829.92" font-family="PingFang SC,Microsoft YaHei,sans-serif" font-size="8.00">等待倒计时</text>
<text xml:space="preserve" text-anchor="middle" x="38.5" y="-817.92" font-family="PingFang SC,Microsoft YaHei,sans-serif" font-size="8.00">(前端禁用按钮)</text>
</g>
<!-- a8 -->
<g id="node9" class="node">
<title>a8</title>
<path fill="white" stroke="black" d="M141.25,-705.52C141.25,-705.52 111.25,-705.52 111.25,-705.52 105.25,-705.52 99.25,-699.52 99.25,-693.52 99.25,-693.52 99.25,-681.52 99.25,-681.52 99.25,-675.52 105.25,-669.52 111.25,-669.52 111.25,-669.52 141.25,-669.52 141.25,-669.52 147.25,-669.52 153.25,-675.52 153.25,-681.52 153.25,-681.52 153.25,-693.52 153.25,-693.52 153.25,-699.52 147.25,-705.52 141.25,-705.52"/>
<text xml:space="preserve" text-anchor="middle" x="126.25" y="-685.92" font-family="PingFang SC,Microsoft YaHei,sans-serif" font-size="8.00">a8</text>
<text xml:space="preserve" text-anchor="middle" x="78.62" y="-709.92" font-family="PingFang SC,Microsoft YaHei,sans-serif" font-size="8.00">输入验证码</text>
</g>
<!-- a4&#45;&gt;a8 -->
<g id="edge6" class="edge">
<title>a4&#45;&gt;a8</title>
<path fill="none" stroke="black" d="M109.75,-777.2C109.75,-777.2 109.75,-717.44 109.75,-717.44"/>
<polygon fill="black" stroke="black" points="113.25,-717.44 109.75,-707.44 106.25,-717.44 113.25,-717.44"/>
</g>
<!-- a5 -->
<g id="node6" class="node">
<title>a5</title>
<path fill="white" stroke="black" d="M171.25,-867.52C171.25,-867.52 141.25,-867.52 141.25,-867.52 135.25,-867.52 129.25,-861.52 129.25,-855.52 129.25,-855.52 129.25,-843.52 129.25,-843.52 129.25,-837.52 135.25,-831.52 141.25,-831.52 141.25,-831.52 171.25,-831.52 171.25,-831.52 177.25,-831.52 183.25,-837.52 183.25,-843.52 183.25,-843.52 183.25,-855.52 183.25,-855.52 183.25,-861.52 177.25,-867.52 171.25,-867.52"/>
<text xml:space="preserve" text-anchor="middle" x="156.25" y="-847.92" font-family="PingFang SC,Microsoft YaHei,sans-serif" font-size="8.00">a5</text>
<text xml:space="preserve" text-anchor="middle" x="94" y="-871.92" font-family="PingFang SC,Microsoft YaHei,sans-serif" font-size="8.00">生成6位随机验证码</text>
</g>
<!-- a6 -->
<g id="node7" class="node">
<title>a6</title>
<path fill="white" stroke="black" d="M176.25,-813.52C176.25,-813.52 146.25,-813.52 146.25,-813.52 140.25,-813.52 134.25,-807.52 134.25,-801.52 134.25,-801.52 134.25,-789.52 134.25,-789.52 134.25,-783.52 140.25,-777.52 146.25,-777.52 146.25,-777.52 176.25,-777.52 176.25,-777.52 182.25,-777.52 188.25,-783.52 188.25,-789.52 188.25,-789.52 188.25,-801.52 188.25,-801.52 188.25,-807.52 182.25,-813.52 176.25,-813.52"/>
<text xml:space="preserve" text-anchor="middle" x="161.25" y="-793.92" font-family="PingFang SC,Microsoft YaHei,sans-serif" font-size="8.00">a6</text>
<text xml:space="preserve" text-anchor="middle" x="243" y="-829.92" font-family="PingFang SC,Microsoft YaHei,sans-serif" font-size="8.00">存入 sys_email_code</text>
<text xml:space="preserve" text-anchor="middle" x="243" y="-817.92" font-family="PingFang SC,Microsoft YaHei,sans-serif" font-size="8.00">(email,code,type,expire_time)</text>
</g>
<!-- a5&#45;&gt;a6 -->
<g id="edge8" class="edge">
<title>a5&#45;&gt;a6</title>
<path fill="none" stroke="black" d="M158.75,-831.24C158.75,-831.24 158.75,-825.3 158.75,-825.3"/>
<polygon fill="black" stroke="black" points="162.25,-825.3 158.75,-815.3 155.25,-825.3 162.25,-825.3"/>
</g>
<!-- a7 -->
<g id="node8" class="node">
<title>a7</title>
<path fill="white" stroke="black" d="M171.25,-759.52C171.25,-759.52 141.25,-759.52 141.25,-759.52 135.25,-759.52 129.25,-753.52 129.25,-747.52 129.25,-747.52 129.25,-735.52 129.25,-735.52 129.25,-729.52 135.25,-723.52 141.25,-723.52 141.25,-723.52 171.25,-723.52 171.25,-723.52 177.25,-723.52 183.25,-729.52 183.25,-735.52 183.25,-735.52 183.25,-747.52 183.25,-747.52 183.25,-753.52 177.25,-759.52 171.25,-759.52"/>
<text xml:space="preserve" text-anchor="middle" x="156.25" y="-739.92" font-family="PingFang SC,Microsoft YaHei,sans-serif" font-size="8.00">a7</text>
<text xml:space="preserve" text-anchor="middle" x="101.88" y="-739.92" font-family="PingFang SC,Microsoft YaHei,sans-serif" font-size="8.00">输出验证码</text>
<text xml:space="preserve" text-anchor="middle" x="101.88" y="-727.92" font-family="PingFang SC,Microsoft YaHei,sans-serif" font-size="8.00">(console/邮件)</text>
</g>
<!-- a6&#45;&gt;a7 -->
<g id="edge9" class="edge">
<title>a6&#45;&gt;a7</title>
<path fill="none" stroke="black" d="M158.75,-777.24C158.75,-777.24 158.75,-771.3 158.75,-771.3"/>
<polygon fill="black" stroke="black" points="162.25,-771.3 158.75,-761.3 155.25,-771.3 162.25,-771.3"/>
</g>
<!-- a7&#45;&gt;a8 -->
<g id="edge10" class="edge">
<title>a7&#45;&gt;a8</title>
<path fill="none" stroke="black" d="M141.25,-723.24C141.25,-723.24 141.25,-717.3 141.25,-717.3"/>
<polygon fill="black" stroke="black" points="144.75,-717.3 141.25,-707.3 137.75,-717.3 144.75,-717.3"/>
</g>
<!-- a9 -->
<g id="node10" class="node">
<title>a9</title>
<path fill="white" stroke="black" d="M141.25,-651.52C141.25,-651.52 111.25,-651.52 111.25,-651.52 105.25,-651.52 99.25,-645.52 99.25,-639.52 99.25,-639.52 99.25,-627.52 99.25,-627.52 99.25,-621.52 105.25,-615.52 111.25,-615.52 111.25,-615.52 141.25,-615.52 141.25,-615.52 147.25,-615.52 153.25,-621.52 153.25,-627.52 153.25,-627.52 153.25,-639.52 153.25,-639.52 153.25,-645.52 147.25,-651.52 141.25,-651.52"/>
<text xml:space="preserve" text-anchor="middle" x="126.25" y="-631.92" font-family="PingFang SC,Microsoft YaHei,sans-serif" font-size="8.00">a9</text>
<text xml:space="preserve" text-anchor="middle" x="74.5" y="-655.92" font-family="PingFang SC,Microsoft YaHei,sans-serif" font-size="8.00">提交注册表单</text>
</g>
<!-- a8&#45;&gt;a9 -->
<g id="edge11" class="edge">
<title>a8&#45;&gt;a9</title>
<path fill="none" stroke="black" d="M126.25,-669.24C126.25,-669.24 126.25,-663.3 126.25,-663.3"/>
<polygon fill="black" stroke="black" points="129.75,-663.3 126.25,-653.3 122.75,-663.3 129.75,-663.3"/>
</g>
<!-- d2 -->
<g id="node23" class="node">
<title>d2</title>
<polygon fill="white" stroke="black" points="126.25,-597.52 99.25,-579.52 126.25,-561.52 153.25,-579.52 126.25,-597.52"/>
<text xml:space="preserve" text-anchor="middle" x="126.25" y="-578.02" font-family="PingFang SC,Microsoft YaHei,sans-serif" font-size="7.50">d2</text>
<text xml:space="preserve" text-anchor="middle" x="88" y="-612.89" font-family="PingFang SC,Microsoft YaHei,sans-serif" font-size="7.50">验证码</text>
<text xml:space="preserve" text-anchor="middle" x="88" y="-601.64" font-family="PingFang SC,Microsoft YaHei,sans-serif" font-size="7.50">正确?</text>
</g>
<!-- a9&#45;&gt;d2 -->
<g id="edge12" class="edge">
<title>a9&#45;&gt;d2</title>
<path fill="none" stroke="black" d="M126.25,-615.24C126.25,-615.24 126.25,-609.3 126.25,-609.3"/>
<polygon fill="black" stroke="black" points="129.75,-609.3 126.25,-599.3 122.75,-609.3 129.75,-609.3"/>
</g>
<!-- a10 -->
<g id="node11" class="node">
<title>a10</title>
<path fill="white" stroke="black" d="M107.25,-543.52C107.25,-543.52 77.25,-543.52 77.25,-543.52 71.25,-543.52 65.25,-537.52 65.25,-531.52 65.25,-531.52 65.25,-519.52 65.25,-519.52 65.25,-513.52 71.25,-507.52 77.25,-507.52 77.25,-507.52 107.25,-507.52 107.25,-507.52 113.25,-507.52 119.25,-513.52 119.25,-519.52 119.25,-519.52 119.25,-531.52 119.25,-531.52 119.25,-537.52 113.25,-543.52 107.25,-543.52"/>
<text xml:space="preserve" text-anchor="middle" x="92.25" y="-523.92" font-family="PingFang SC,Microsoft YaHei,sans-serif" font-size="8.00">a10</text>
<text xml:space="preserve" text-anchor="middle" x="32.62" y="-547.92" font-family="PingFang SC,Microsoft YaHei,sans-serif" font-size="8.00">提示&quot;验证码错误&quot;</text>
</g>
<!-- a11 -->
<g id="node12" class="node">
<title>a11</title>
<path fill="white" stroke="black" d="M106.25,-489.52C106.25,-489.52 76.25,-489.52 76.25,-489.52 70.25,-489.52 64.25,-483.52 64.25,-477.52 64.25,-477.52 64.25,-465.52 64.25,-465.52 64.25,-459.52 70.25,-453.52 76.25,-453.52 76.25,-453.52 106.25,-453.52 106.25,-453.52 112.25,-453.52 118.25,-459.52 118.25,-465.52 118.25,-465.52 118.25,-477.52 118.25,-477.52 118.25,-483.52 112.25,-489.52 106.25,-489.52"/>
<text xml:space="preserve" text-anchor="middle" x="91.25" y="-469.92" font-family="PingFang SC,Microsoft YaHei,sans-serif" font-size="8.00">a11</text>
<text xml:space="preserve" text-anchor="middle" x="35.38" y="-493.92" font-family="PingFang SC,Microsoft YaHei,sans-serif" font-size="8.00">重新输入验证码</text>
</g>
<!-- a10&#45;&gt;a11 -->
<g id="edge14" class="edge">
<title>a10&#45;&gt;a11</title>
<path fill="none" stroke="black" d="M91.75,-507.24C91.75,-507.24 91.75,-501.3 91.75,-501.3"/>
<polygon fill="black" stroke="black" points="95.25,-501.3 91.75,-491.3 88.25,-501.3 95.25,-501.3"/>
</g>
<!-- detach1 -->
<g id="node27" class="node">
<title>detach1</title>
<ellipse fill="black" stroke="black" cx="89.25" cy="-404.58" rx="30.94" ry="30.94"/>
<text xml:space="preserve" text-anchor="middle" x="89.25" y="-403.08" font-family="PingFang SC,Microsoft YaHei,sans-serif" font-size="7.50">detach1</text>
</g>
<!-- a11&#45;&gt;detach1 -->
<g id="edge15" class="edge">
<title>a11&#45;&gt;detach1</title>
<path fill="none" stroke="black" d="M91.25,-453.23C91.25,-453.23 91.25,-447.24 91.25,-447.24"/>
<polygon fill="black" stroke="black" points="94.75,-447.24 91.25,-437.24 87.75,-447.24 94.75,-447.24"/>
</g>
<!-- a12 -->
<g id="node13" class="node">
<title>a12</title>
<path fill="white" stroke="black" d="M176.25,-489.52C176.25,-489.52 146.25,-489.52 146.25,-489.52 140.25,-489.52 134.25,-483.52 134.25,-477.52 134.25,-477.52 134.25,-465.52 134.25,-465.52 134.25,-459.52 140.25,-453.52 146.25,-453.52 146.25,-453.52 176.25,-453.52 176.25,-453.52 182.25,-453.52 188.25,-459.52 188.25,-465.52 188.25,-465.52 188.25,-477.52 188.25,-477.52 188.25,-483.52 182.25,-489.52 176.25,-489.52"/>
<text xml:space="preserve" text-anchor="middle" x="161.25" y="-469.92" font-family="PingFang SC,Microsoft YaHei,sans-serif" font-size="8.00">a12</text>
<text xml:space="preserve" text-anchor="middle" x="97.5" y="-445.92" font-family="PingFang SC,Microsoft YaHei,sans-serif" font-size="8.00">提示&quot;验证码已过期&quot;</text>
</g>
<!-- a13 -->
<g id="node14" class="node">
<title>a13</title>
<path fill="white" stroke="black" d="M176.25,-422.58C176.25,-422.58 146.25,-422.58 146.25,-422.58 140.25,-422.58 134.25,-416.58 134.25,-410.58 134.25,-410.58 134.25,-398.58 134.25,-398.58 134.25,-392.58 140.25,-386.58 146.25,-386.58 146.25,-386.58 176.25,-386.58 176.25,-386.58 182.25,-386.58 188.25,-392.58 188.25,-398.58 188.25,-398.58 188.25,-410.58 188.25,-410.58 188.25,-416.58 182.25,-422.58 176.25,-422.58"/>
<text xml:space="preserve" text-anchor="middle" x="161.25" y="-402.98" font-family="PingFang SC,Microsoft YaHei,sans-serif" font-size="8.00">a13</text>
<text xml:space="preserve" text-anchor="middle" x="163.12" y="-426.98" font-family="PingFang SC,Microsoft YaHei,sans-serif" font-size="8.00">重新获取验证码</text>
</g>
<!-- a12&#45;&gt;a13 -->
<g id="edge18" class="edge">
<title>a12&#45;&gt;a13</title>
<path fill="none" stroke="black" d="M161.25,-453.23C161.25,-453.23 161.25,-434.36 161.25,-434.36"/>
<polygon fill="black" stroke="black" points="164.75,-434.36 161.25,-424.36 157.75,-434.36 164.75,-434.36"/>
</g>
<!-- detach2 -->
<g id="node28" class="node">
<title>detach2</title>
<ellipse fill="black" stroke="black" cx="158.25" cy="-323.65" rx="32" ry="32"/>
<text xml:space="preserve" text-anchor="middle" x="158.25" y="-322.15" font-family="PingFang SC,Microsoft YaHei,sans-serif" font-size="7.50">detach2</text>
</g>
<!-- a13&#45;&gt;detach2 -->
<g id="edge19" class="edge">
<title>a13&#45;&gt;detach2</title>
<path fill="none" stroke="black" d="M161.25,-386.22C161.25,-386.22 161.25,-367.44 161.25,-367.44"/>
<polygon fill="black" stroke="black" points="164.75,-367.44 161.25,-357.44 157.75,-367.44 164.75,-367.44"/>
</g>
<!-- a14 -->
<g id="node15" class="node">
<title>a14</title>
<path fill="white" stroke="black" d="M246.25,-422.58C246.25,-422.58 216.25,-422.58 216.25,-422.58 210.25,-422.58 204.25,-416.58 204.25,-410.58 204.25,-410.58 204.25,-398.58 204.25,-398.58 204.25,-392.58 210.25,-386.58 216.25,-386.58 216.25,-386.58 246.25,-386.58 246.25,-386.58 252.25,-386.58 258.25,-392.58 258.25,-398.58 258.25,-398.58 258.25,-410.58 258.25,-410.58 258.25,-416.58 252.25,-422.58 246.25,-422.58"/>
<text xml:space="preserve" text-anchor="middle" x="231.25" y="-402.98" font-family="PingFang SC,Microsoft YaHei,sans-serif" font-size="8.00">a14</text>
<text xml:space="preserve" text-anchor="middle" x="171.62" y="-378.98" font-family="PingFang SC,Microsoft YaHei,sans-serif" font-size="8.00">提示&quot;账号已存在&quot;</text>
</g>
<!-- a15 -->
<g id="node16" class="node">
<title>a15</title>
<path fill="white" stroke="black" d="M246.25,-341.65C246.25,-341.65 216.25,-341.65 216.25,-341.65 210.25,-341.65 204.25,-335.65 204.25,-329.65 204.25,-329.65 204.25,-317.65 204.25,-317.65 204.25,-311.65 210.25,-305.65 216.25,-305.65 216.25,-305.65 246.25,-305.65 246.25,-305.65 252.25,-305.65 258.25,-311.65 258.25,-317.65 258.25,-317.65 258.25,-329.65 258.25,-329.65 258.25,-335.65 252.25,-341.65 246.25,-341.65"/>
<text xml:space="preserve" text-anchor="middle" x="231.25" y="-322.05" font-family="PingFang SC,Microsoft YaHei,sans-serif" font-size="8.00">a15</text>
<text xml:space="preserve" text-anchor="middle" x="224.88" y="-346.05" font-family="PingFang SC,Microsoft YaHei,sans-serif" font-size="8.00">修改用户名</text>
</g>
<!-- a14&#45;&gt;a15 -->
<g id="edge22" class="edge">
<title>a14&#45;&gt;a15</title>
<path fill="none" stroke="black" d="M231.25,-386.22C231.25,-386.22 231.25,-353.46 231.25,-353.46"/>
<polygon fill="black" stroke="black" points="234.75,-353.46 231.25,-343.46 227.75,-353.46 234.75,-353.46"/>
</g>
<!-- detach3 -->
<g id="node29" class="node">
<title>detach3</title>
<ellipse fill="black" stroke="black" cx="229.25" cy="-241.66" rx="32" ry="32"/>
<text xml:space="preserve" text-anchor="middle" x="229.25" y="-240.16" font-family="PingFang SC,Microsoft YaHei,sans-serif" font-size="7.50">detach3</text>
</g>
<!-- a15&#45;&gt;detach3 -->
<g id="edge23" class="edge">
<title>a15&#45;&gt;detach3</title>
<path fill="none" stroke="black" d="M231.25,-305.45C231.25,-305.45 231.25,-285.51 231.25,-285.51"/>
<polygon fill="black" stroke="black" points="234.75,-285.51 231.25,-275.51 227.75,-285.51 234.75,-285.51"/>
</g>
<!-- a16 -->
<g id="node17" class="node">
<title>a16</title>
<path fill="white" stroke="black" d="M315.25,-422.58C315.25,-422.58 285.25,-422.58 285.25,-422.58 279.25,-422.58 273.25,-416.58 273.25,-410.58 273.25,-410.58 273.25,-398.58 273.25,-398.58 273.25,-392.58 279.25,-386.58 285.25,-386.58 285.25,-386.58 315.25,-386.58 315.25,-386.58 321.25,-386.58 327.25,-392.58 327.25,-398.58 327.25,-398.58 327.25,-410.58 327.25,-410.58 327.25,-416.58 321.25,-422.58 315.25,-422.58"/>
<text xml:space="preserve" text-anchor="middle" x="300.25" y="-402.98" font-family="PingFang SC,Microsoft YaHei,sans-serif" font-size="8.00">a16</text>
<text xml:space="preserve" text-anchor="middle" x="246.62" y="-426.98" font-family="PingFang SC,Microsoft YaHei,sans-serif" font-size="8.00">MD5 加密密码</text>
</g>
<!-- a17 -->
<g id="node18" class="node">
<title>a17</title>
<path fill="white" stroke="black" d="M316.25,-341.65C316.25,-341.65 286.25,-341.65 286.25,-341.65 280.25,-341.65 274.25,-335.65 274.25,-329.65 274.25,-329.65 274.25,-317.65 274.25,-317.65 274.25,-311.65 280.25,-305.65 286.25,-305.65 286.25,-305.65 316.25,-305.65 316.25,-305.65 322.25,-305.65 328.25,-311.65 328.25,-317.65 328.25,-317.65 328.25,-329.65 328.25,-329.65 328.25,-335.65 322.25,-341.65 316.25,-341.65"/>
<text xml:space="preserve" text-anchor="middle" x="301.25" y="-322.05" font-family="PingFang SC,Microsoft YaHei,sans-serif" font-size="8.00">a17</text>
<text xml:space="preserve" text-anchor="middle" x="248.38" y="-298.05" font-family="PingFang SC,Microsoft YaHei,sans-serif" font-size="8.00">INSERT INTO</text>
<text xml:space="preserve" text-anchor="middle" x="248.38" y="-286.05" font-family="PingFang SC,Microsoft YaHei,sans-serif" font-size="8.00">sys_user</text>
</g>
<!-- a16&#45;&gt;a17 -->
<g id="edge25" class="edge">
<title>a16&#45;&gt;a17</title>
<path fill="none" stroke="black" d="M300.75,-386.22C300.75,-386.22 300.75,-353.46 300.75,-353.46"/>
<polygon fill="black" stroke="black" points="304.25,-353.46 300.75,-343.46 297.25,-353.46 304.25,-353.46"/>
</g>
<!-- a18 -->
<g id="node19" class="node">
<title>a18</title>
<path fill="white" stroke="black" d="M317.25,-259.66C317.25,-259.66 287.25,-259.66 287.25,-259.66 281.25,-259.66 275.25,-253.66 275.25,-247.66 275.25,-247.66 275.25,-235.66 275.25,-235.66 275.25,-229.66 281.25,-223.66 287.25,-223.66 287.25,-223.66 317.25,-223.66 317.25,-223.66 323.25,-223.66 329.25,-229.66 329.25,-235.66 329.25,-235.66 329.25,-247.66 329.25,-247.66 329.25,-253.66 323.25,-259.66 317.25,-259.66"/>
<text xml:space="preserve" text-anchor="middle" x="302.25" y="-240.06" font-family="PingFang SC,Microsoft YaHei,sans-serif" font-size="8.00">a18</text>
<text xml:space="preserve" text-anchor="middle" x="313.5" y="-276.06" font-family="PingFang SC,Microsoft YaHei,sans-serif" font-size="8.00">标记验证码已使用</text>
<text xml:space="preserve" text-anchor="middle" x="313.5" y="-264.06" font-family="PingFang SC,Microsoft YaHei,sans-serif" font-size="8.00">(UPDATE is_used=1)</text>
</g>
<!-- a17&#45;&gt;a18 -->
<g id="edge26" class="edge">
<title>a17&#45;&gt;a18</title>
<path fill="none" stroke="black" d="M301.75,-305.45C301.75,-305.45 301.75,-271.6 301.75,-271.6"/>
<polygon fill="black" stroke="black" points="305.25,-271.6 301.75,-261.6 298.25,-271.6 305.25,-271.6"/>
</g>
<!-- a19 -->
<g id="node20" class="node">
<title>a19</title>
<path fill="white" stroke="black" d="M317.25,-191.66C317.25,-191.66 287.25,-191.66 287.25,-191.66 281.25,-191.66 275.25,-185.66 275.25,-179.66 275.25,-179.66 275.25,-167.66 275.25,-167.66 275.25,-161.66 281.25,-155.66 287.25,-155.66 287.25,-155.66 317.25,-155.66 317.25,-155.66 323.25,-155.66 329.25,-161.66 329.25,-167.66 329.25,-167.66 329.25,-179.66 329.25,-179.66 329.25,-185.66 323.25,-191.66 317.25,-191.66"/>
<text xml:space="preserve" text-anchor="middle" x="302.25" y="-172.06" font-family="PingFang SC,Microsoft YaHei,sans-serif" font-size="8.00">a19</text>
<text xml:space="preserve" text-anchor="middle" x="246.75" y="-196.06" font-family="PingFang SC,Microsoft YaHei,sans-serif" font-size="8.00">提示&quot;注册成功&quot;</text>
</g>
<!-- a18&#45;&gt;a19 -->
<g id="edge27" class="edge">
<title>a18&#45;&gt;a19</title>
<path fill="none" stroke="black" d="M302.25,-223.44C302.25,-223.44 302.25,-203.45 302.25,-203.45"/>
<polygon fill="black" stroke="black" points="305.75,-203.45 302.25,-193.45 298.75,-203.45 305.75,-203.45"/>
</g>
<!-- a20 -->
<g id="node21" class="node">
<title>a20</title>
<path fill="white" stroke="black" d="M317.25,-137.66C317.25,-137.66 287.25,-137.66 287.25,-137.66 281.25,-137.66 275.25,-131.66 275.25,-125.66 275.25,-125.66 275.25,-113.66 275.25,-113.66 275.25,-107.66 281.25,-101.66 287.25,-101.66 287.25,-101.66 317.25,-101.66 317.25,-101.66 323.25,-101.66 329.25,-107.66 329.25,-113.66 329.25,-113.66 329.25,-125.66 329.25,-125.66 329.25,-131.66 323.25,-137.66 317.25,-137.66"/>
<text xml:space="preserve" text-anchor="middle" x="302.25" y="-118.06" font-family="PingFang SC,Microsoft YaHei,sans-serif" font-size="8.00">a20</text>
<text xml:space="preserve" text-anchor="middle" x="254.62" y="-142.06" font-family="PingFang SC,Microsoft YaHei,sans-serif" font-size="8.00">跳转登录页</text>
</g>
<!-- a19&#45;&gt;a20 -->
<g id="edge28" class="edge">
<title>a19&#45;&gt;a20</title>
<path fill="none" stroke="black" d="M302.25,-155.38C302.25,-155.38 302.25,-149.44 302.25,-149.44"/>
<polygon fill="black" stroke="black" points="305.75,-149.44 302.25,-139.44 298.75,-149.44 305.75,-149.44"/>
</g>
<!-- stop_node -->
<g id="node26" class="node">
<title>stop_node</title>
<ellipse fill="black" stroke="black" cx="302.25" cy="-41.83" rx="37.83" ry="37.83"/>
<ellipse fill="none" stroke="black" cx="302.25" cy="-41.83" rx="41.83" ry="41.83"/>
<text xml:space="preserve" text-anchor="middle" x="302.25" y="-40.33" font-family="PingFang SC,Microsoft YaHei,sans-serif" font-size="7.50">stop_node</text>
</g>
<!-- a20&#45;&gt;stop_node -->
<g id="edge29" class="edge">
<title>a20&#45;&gt;stop_node</title>
<path fill="none" stroke="black" d="M302.25,-101.22C302.25,-101.22 302.25,-95.61 302.25,-95.61"/>
<polygon fill="black" stroke="black" points="305.75,-95.61 302.25,-85.61 298.75,-95.61 305.75,-95.61"/>
</g>
<!-- d1&#45;&gt;a4 -->
<g id="edge5" class="edge">
<title>d1&#45;&gt;a4</title>
<path fill="none" stroke="black" d="M109.75,-896.1C109.75,-896.1 109.75,-825.44 109.75,-825.44"/>
<polygon fill="black" stroke="black" points="113.25,-825.44 109.75,-815.44 106.25,-825.44 113.25,-825.44"/>
<text xml:space="preserve" text-anchor="middle" x="106" y="-853.64" font-family="PingFang SC,Microsoft YaHei,sans-serif" font-size="7.50">是</text>
</g>
<!-- d1&#45;&gt;a5 -->
<g id="edge7" class="edge">
<title>d1&#45;&gt;a5</title>
<path fill="none" stroke="black" d="M141.25,-895.08C141.25,-895.08 141.25,-879.46 141.25,-879.46"/>
<polygon fill="black" stroke="black" points="144.75,-879.46 141.25,-869.46 137.75,-879.46 144.75,-879.46"/>
<text xml:space="preserve" text-anchor="middle" x="137.5" y="-880.15" font-family="PingFang SC,Microsoft YaHei,sans-serif" font-size="7.50">否</text>
</g>
<!-- d2&#45;&gt;a10 -->
<g id="edge13" class="edge">
<title>d2&#45;&gt;a10</title>
<path fill="none" stroke="black" d="M109.25,-572.46C109.25,-572.46 109.25,-555.48 109.25,-555.48"/>
<polygon fill="black" stroke="black" points="112.75,-555.48 109.25,-545.48 105.75,-555.48 112.75,-555.48"/>
<text xml:space="preserve" text-anchor="middle" x="105.5" y="-556.84" font-family="PingFang SC,Microsoft YaHei,sans-serif" font-size="7.50">否</text>
</g>
<!-- d3 -->
<g id="node24" class="node">
<title>d3</title>
<polygon fill="white" stroke="black" points="161.25,-543.52 134.25,-525.52 161.25,-507.52 188.25,-525.52 161.25,-543.52"/>
<text xml:space="preserve" text-anchor="middle" x="161.25" y="-524.02" font-family="PingFang SC,Microsoft YaHei,sans-serif" font-size="7.50">d3</text>
<text xml:space="preserve" text-anchor="middle" x="198" y="-558.89" font-family="PingFang SC,Microsoft YaHei,sans-serif" font-size="7.50">5分钟</text>
<text xml:space="preserve" text-anchor="middle" x="198" y="-547.64" font-family="PingFang SC,Microsoft YaHei,sans-serif" font-size="7.50">内?</text>
</g>
<!-- d2&#45;&gt;d3 -->
<g id="edge16" class="edge">
<title>d2&#45;&gt;d3</title>
<path fill="none" stroke="black" d="M143.75,-572.9C143.75,-572.9 143.75,-543.71 143.75,-543.71"/>
<polygon fill="black" stroke="black" points="147.25,-543.71 143.75,-533.71 140.25,-543.71 147.25,-543.71"/>
<text xml:space="preserve" text-anchor="middle" x="140" y="-551.18" font-family="PingFang SC,Microsoft YaHei,sans-serif" font-size="7.50">是</text>
</g>
<!-- d3&#45;&gt;a12 -->
<g id="edge17" class="edge">
<title>d3&#45;&gt;a12</title>
<path fill="none" stroke="black" d="M161.25,-506.93C161.25,-506.93 161.25,-501.47 161.25,-501.47"/>
<polygon fill="black" stroke="black" points="164.75,-501.47 161.25,-491.47 157.75,-501.47 164.75,-501.47"/>
<text xml:space="preserve" text-anchor="middle" x="157.5" y="-497.08" font-family="PingFang SC,Microsoft YaHei,sans-serif" font-size="7.50">否</text>
</g>
<!-- d4 -->
<g id="node25" class="node">
<title>d4</title>
<polygon fill="white" stroke="black" points="231.25,-489.52 204.25,-471.52 231.25,-453.52 258.25,-471.52 231.25,-489.52"/>
<text xml:space="preserve" text-anchor="middle" x="231.25" y="-470.02" font-family="PingFang SC,Microsoft YaHei,sans-serif" font-size="7.50">d4</text>
<text xml:space="preserve" text-anchor="middle" x="213.62" y="-504.89" font-family="PingFang SC,Microsoft YaHei,sans-serif" font-size="7.50">账号</text>
<text xml:space="preserve" text-anchor="middle" x="213.62" y="-493.64" font-family="PingFang SC,Microsoft YaHei,sans-serif" font-size="7.50">唯一?</text>
</g>
<!-- d3&#45;&gt;d4 -->
<g id="edge20" class="edge">
<title>d3&#45;&gt;d4</title>
<path fill="none" stroke="black" d="M188.11,-526C207.85,-526 231.25,-526 231.25,-526 231.25,-526 231.25,-501.48 231.25,-501.48"/>
<polygon fill="black" stroke="black" points="234.75,-501.48 231.25,-491.48 227.75,-501.48 234.75,-501.48"/>
<text xml:space="preserve" text-anchor="middle" x="218.19" y="-530.12" font-family="PingFang SC,Microsoft YaHei,sans-serif" font-size="7.50">是</text>
</g>
<!-- d4&#45;&gt;a14 -->
<g id="edge21" class="edge">
<title>d4&#45;&gt;a14</title>
<path fill="none" stroke="black" d="M231.25,-453.23C231.25,-453.23 231.25,-434.36 231.25,-434.36"/>
<polygon fill="black" stroke="black" points="234.75,-434.36 231.25,-424.36 227.75,-434.36 234.75,-434.36"/>
<text xml:space="preserve" text-anchor="middle" x="227.5" y="-447.92" font-family="PingFang SC,Microsoft YaHei,sans-serif" font-size="7.50">否</text>
</g>
<!-- d4&#45;&gt;a16 -->
<g id="edge24" class="edge">
<title>d4&#45;&gt;a16</title>
<path fill="none" stroke="black" d="M258.12,-472C277.5,-472 300.25,-472 300.25,-472 300.25,-472 300.25,-434.52 300.25,-434.52"/>
<polygon fill="black" stroke="black" points="303.75,-434.52 300.25,-424.52 296.75,-434.52 303.75,-434.52"/>
<text xml:space="preserve" text-anchor="middle" x="294.18" y="-476.12" font-family="PingFang SC,Microsoft YaHei,sans-serif" font-size="7.50">是</text>
</g>
</g>
</svg>
