<?xml version="1.0" encoding="UTF-8" standalone="no"?>
<!DOCTYPE svg PUBLIC "-//W3C//DTD SVG 1.1//EN"
 "http://www.w3.org/Graphics/SVG/1.1/DTD/svg11.dtd">
<!-- Generated by graphviz version 15.1.0 (20260618.0150)
 -->
<!-- Title: TechArch Pages: 1 -->
<svg width="945pt" height="640pt"
 viewBox="0.00 0.00 945.00 640.00" xmlns="http://www.w3.org/2000/svg" xmlns:xlink="http://www.w3.org/1999/xlink">
<g id="graph0" class="graph" transform="scale(1 1) rotate(0) translate(4 635.65)">
<title>TechArch</title>
<polygon fill="white" stroke="none" points="-4,4 -4,-635.65 940.88,-635.65 940.88,4 -4,4"/>
<text xml:space="preserve" text-anchor="middle" x="468.44" y="-12.05" font-family="Times,serif" font-size="16.00">智能导学系统 — 技术架构图</text>
<g id="clust1" class="cluster">
<title>cluster_A</title>
<path fill="#e8f5e9" stroke="#a5d6a7" stroke-width="2.2" d="M62.88,-567.65C62.88,-567.65 820.88,-567.65 820.88,-567.65 826.88,-567.65 832.88,-573.65 832.88,-579.65 832.88,-579.65 832.88,-611.65 832.88,-611.65 832.88,-617.65 826.88,-623.65 820.88,-623.65 820.88,-623.65 62.88,-623.65 62.88,-623.65 56.88,-623.65 50.88,-617.65 50.88,-611.65 50.88,-611.65 50.88,-579.65 50.88,-579.65 50.88,-573.65 56.88,-567.65 62.88,-567.65"/>
</g>
<g id="clust3" class="cluster">
<title>cluster_B</title>
<path fill="#fce4ec" stroke="#f48fb1" stroke-width="2.2" d="M62.88,-477.45C62.88,-477.45 916.88,-477.45 916.88,-477.45 922.88,-477.45 928.88,-483.45 928.88,-489.45 928.88,-489.45 928.88,-521.45 928.88,-521.45 928.88,-527.45 922.88,-533.45 916.88,-533.45 916.88,-533.45 62.88,-533.45 62.88,-533.45 56.88,-533.45 50.88,-527.45 50.88,-521.45 50.88,-521.45 50.88,-489.45 50.88,-489.45 50.88,-483.45 56.88,-477.45 62.88,-477.45"/>
</g>
<g id="clust5" class="cluster">
<title>cluster_C</title>
<path fill="#e3f2fd" stroke="#90caf9" stroke-width="2.2" d="M206.88,-383.65C206.88,-383.65 772.88,-383.65 772.88,-383.65 778.88,-383.65 784.88,-389.65 784.88,-395.65 784.88,-395.65 784.88,-434.85 784.88,-434.85 784.88,-440.85 778.88,-446.85 772.88,-446.85 772.88,-446.85 206.88,-446.85 206.88,-446.85 200.88,-446.85 194.88,-440.85 194.88,-434.85 194.88,-434.85 194.88,-395.65 194.88,-395.65 194.88,-389.65 200.88,-383.65 206.88,-383.65"/>
</g>
<g id="clust7" class="cluster">
<title>cluster_D</title>
<path fill="#ede7f6" stroke="#b39ddb" stroke-width="2.2" d="M110.88,-291.65C110.88,-291.65 868.88,-291.65 868.88,-291.65 874.88,-291.65 880.88,-297.65 880.88,-303.65 880.88,-303.65 880.88,-346.45 880.88,-346.45 880.88,-352.45 874.88,-358.45 868.88,-358.45 868.88,-358.45 110.88,-358.45 110.88,-358.45 104.88,-358.45 98.88,-352.45 98.88,-346.45 98.88,-346.45 98.88,-303.65 98.88,-303.65 98.88,-297.65 104.88,-291.65 110.88,-291.65"/>
</g>
<g id="clust9" class="cluster">
<title>cluster_E</title>
<path fill="#fff3e0" stroke="#ffcc80" stroke-width="2.2" d="M110.88,-188.85C110.88,-188.85 868.88,-188.85 868.88,-188.85 874.88,-188.85 880.88,-194.85 880.88,-200.85 880.88,-200.85 880.88,-232.85 880.88,-232.85 880.88,-238.85 874.88,-244.85 868.88,-244.85 868.88,-244.85 110.88,-244.85 110.88,-244.85 104.88,-244.85 98.88,-238.85 98.88,-232.85 98.88,-232.85 98.88,-200.85 98.88,-200.85 98.88,-194.85 104.88,-188.85 110.88,-188.85"/>
</g>
<g id="clust11" class="cluster">
<title>cluster_F</title>
<path fill="#ffebee" stroke="#ef9a9a" stroke-width="2.2" d="M158.88,-53.65C158.88,-53.65 820.88,-53.65 820.88,-53.65 826.88,-53.65 832.88,-59.65 832.88,-65.65 832.88,-65.65 832.88,-104.85 832.88,-104.85 832.88,-110.85 826.88,-116.85 820.88,-116.85 820.88,-116.85 158.88,-116.85 158.88,-116.85 152.88,-116.85 146.88,-110.85 146.88,-104.85 146.88,-104.85 146.88,-65.65 146.88,-65.65 146.88,-59.65 152.88,-53.65 158.88,-53.65"/>
</g>
<!-- L1 -->
<g id="node1" class="node">
<title>L1</title>
<polygon fill="#43a047" stroke="#43a047" stroke-width="0" points="40.68,-626.25 1.08,-626.25 1.08,-565.05 40.68,-565.05 40.68,-626.25"/>
<text xml:space="preserve" text-anchor="middle" x="20.88" y="-608.65" font-family="Times,serif" font-size="10.00" fill="white">访</text>
<text xml:space="preserve" text-anchor="middle" x="20.88" y="-593.65" font-family="Times,serif" font-size="10.00" fill="white">问</text>
<text xml:space="preserve" text-anchor="middle" x="20.88" y="-578.65" font-family="Times,serif" font-size="10.00" fill="white">层</text>
</g>
<!-- L2 -->
<g id="node2" class="node">
<title>L2</title>
<polygon fill="#c62828" stroke="#c62828" stroke-width="0" points="40.68,-536.05 1.08,-536.05 1.08,-474.85 40.68,-474.85 40.68,-536.05"/>
<text xml:space="preserve" text-anchor="middle" x="20.88" y="-525.95" font-family="Times,serif" font-size="10.00" fill="white">前</text>
<text xml:space="preserve" text-anchor="middle" x="20.88" y="-510.95" font-family="Times,serif" font-size="10.00" fill="white">端</text>
<text xml:space="preserve" text-anchor="middle" x="20.88" y="-495.95" font-family="Times,serif" font-size="10.00" fill="white">框</text>
<text xml:space="preserve" text-anchor="middle" x="20.88" y="-480.95" font-family="Times,serif" font-size="10.00" fill="white">架</text>
</g>
<!-- L1&#45;&gt;L2 -->
<!-- L3 -->
<g id="node3" class="node">
<title>L3</title>
<polygon fill="#1565c0" stroke="#1565c0" stroke-width="0" points="40.68,-445.85 1.08,-445.85 1.08,-384.65 40.68,-384.65 40.68,-445.85"/>
<text xml:space="preserve" text-anchor="middle" x="20.88" y="-435.75" font-family="Times,serif" font-size="10.00" fill="white">功</text>
<text xml:space="preserve" text-anchor="middle" x="20.88" y="-420.75" font-family="Times,serif" font-size="10.00" fill="white">能</text>
<text xml:space="preserve" text-anchor="middle" x="20.88" y="-405.75" font-family="Times,serif" font-size="10.00" fill="white">模</text>
<text xml:space="preserve" text-anchor="middle" x="20.88" y="-390.75" font-family="Times,serif" font-size="10.00" fill="white">块</text>
</g>
<!-- L2&#45;&gt;L3 -->
<!-- L4 -->
<g id="node4" class="node">
<title>L4</title>
<polygon fill="#4527a0" stroke="#4527a0" stroke-width="0" points="40.68,-355.65 1.08,-355.65 1.08,-294.45 40.68,-294.45 40.68,-355.65"/>
<text xml:space="preserve" text-anchor="middle" x="20.88" y="-345.55" font-family="Times,serif" font-size="10.00" fill="white">业</text>
<text xml:space="preserve" text-anchor="middle" x="20.88" y="-330.55" font-family="Times,serif" font-size="10.00" fill="white">务</text>
<text xml:space="preserve" text-anchor="middle" x="20.88" y="-315.55" font-family="Times,serif" font-size="10.00" fill="white">服</text>
<text xml:space="preserve" text-anchor="middle" x="20.88" y="-300.55" font-family="Times,serif" font-size="10.00" fill="white">务</text>
</g>
<!-- L3&#45;&gt;L4 -->
<!-- L5 -->
<g id="node5" class="node">
<title>L5</title>
<polygon fill="#e65100" stroke="#e65100" stroke-width="0" points="41.76,-265.45 0,-265.45 0,-168.25 41.76,-168.25 41.76,-265.45"/>
<text xml:space="preserve" text-anchor="middle" x="20.88" y="-250.13" font-family="Times,serif" font-size="8.00" fill="white">中</text>
<text xml:space="preserve" text-anchor="middle" x="20.88" y="-238.13" font-family="Times,serif" font-size="8.00" fill="white">间</text>
<text xml:space="preserve" text-anchor="middle" x="20.88" y="-226.13" font-family="Times,serif" font-size="8.00" fill="white">件</text>
<text xml:space="preserve" text-anchor="middle" x="20.88" y="-214.13" font-family="Times,serif" font-size="8.00" fill="white">/</text>
<text xml:space="preserve" text-anchor="middle" x="20.88" y="-204.38" font-family="Times,serif" font-size="8.00" fill="white">框</text>
<text xml:space="preserve" text-anchor="middle" x="20.88" y="-192.38" font-family="Times,serif" font-size="8.00" fill="white">架</text>
<text xml:space="preserve" text-anchor="middle" x="20.88" y="-180.38" font-family="Times,serif" font-size="8.00" fill="white">层</text>
</g>
<!-- L4&#45;&gt;L5 -->
<!-- L6 -->
<g id="node6" class="node">
<title>L6</title>
<polygon fill="#b71c1c" stroke="#b71c1c" stroke-width="0" points="41.76,-139.25 0,-139.25 0,-31.25 41.76,-31.25 41.76,-139.25"/>
<text xml:space="preserve" text-anchor="middle" x="20.88" y="-118.53" font-family="Times,serif" font-size="8.00" fill="white">数</text>
<text xml:space="preserve" text-anchor="middle" x="20.88" y="-106.53" font-family="Times,serif" font-size="8.00" fill="white">据</text>
<text xml:space="preserve" text-anchor="middle" x="20.88" y="-94.53" font-family="Times,serif" font-size="8.00" fill="white">/</text>
<text xml:space="preserve" text-anchor="middle" x="20.88" y="-84.78" font-family="Times,serif" font-size="8.00" fill="white">基</text>
<text xml:space="preserve" text-anchor="middle" x="20.88" y="-72.78" font-family="Times,serif" font-size="8.00" fill="white">础</text>
<text xml:space="preserve" text-anchor="middle" x="20.88" y="-60.77" font-family="Times,serif" font-size="8.00" fill="white">设</text>
<text xml:space="preserve" text-anchor="middle" x="20.88" y="-48.77" font-family="Times,serif" font-size="8.00" fill="white">施</text>
</g>
<!-- L5&#45;&gt;L6 -->
<!-- _1a -->
<!-- _1b -->
<!-- a1 -->
<g id="node9" class="node">
<title>a1</title>
<path fill="#c8e6c9" stroke="#66bb6a" stroke-width="1.2" d="M330.88,-613.65C330.88,-613.65 264.88,-613.65 264.88,-613.65 258.88,-613.65 252.88,-607.65 252.88,-601.65 252.88,-601.65 252.88,-589.65 252.88,-589.65 252.88,-583.65 258.88,-577.65 264.88,-577.65 264.88,-577.65 330.88,-577.65 330.88,-577.65 336.88,-577.65 342.88,-583.65 342.88,-589.65 342.88,-589.65 342.88,-601.65 342.88,-601.65 342.88,-607.65 336.88,-613.65 330.88,-613.65"/>
<text xml:space="preserve" text-anchor="middle" x="297.88" y="-593.85" font-family="Times,serif" font-size="9.00" fill="#1b5e20">PC 浏览器</text>
</g>
<!-- a2 -->
<g id="node10" class="node">
<title>a2</title>
<path fill="#c8e6c9" stroke="#66bb6a" stroke-width="1.2" d="M426.88,-613.65C426.88,-613.65 360.88,-613.65 360.88,-613.65 354.88,-613.65 348.88,-607.65 348.88,-601.65 348.88,-601.65 348.88,-589.65 348.88,-589.65 348.88,-583.65 354.88,-577.65 360.88,-577.65 360.88,-577.65 426.88,-577.65 426.88,-577.65 432.88,-577.65 438.88,-583.65 438.88,-589.65 438.88,-589.65 438.88,-601.65 438.88,-601.65 438.88,-607.65 432.88,-613.65 426.88,-613.65"/>
<text xml:space="preserve" text-anchor="middle" x="393.88" y="-593.85" font-family="Times,serif" font-size="9.00" fill="#1b5e20">手机浏览器</text>
</g>
<!-- a3 -->
<g id="node11" class="node">
<title>a3</title>
<path fill="#c8e6c9" stroke="#66bb6a" stroke-width="1.2" d="M522.88,-613.65C522.88,-613.65 456.88,-613.65 456.88,-613.65 450.88,-613.65 444.88,-607.65 444.88,-601.65 444.88,-601.65 444.88,-589.65 444.88,-589.65 444.88,-583.65 450.88,-577.65 456.88,-577.65 456.88,-577.65 522.88,-577.65 522.88,-577.65 528.88,-577.65 534.88,-583.65 534.88,-589.65 534.88,-589.65 534.88,-601.65 534.88,-601.65 534.88,-607.65 528.88,-613.65 522.88,-613.65"/>
<text xml:space="preserve" text-anchor="middle" x="489.88" y="-592.35" font-family="Times,serif" font-size="9.00" fill="#1b5e20">IntelliJ IDEA</text>
</g>
<!-- _1c -->
<!-- _1d -->
<!-- _1e -->
<!-- f1 -->
<g id="node15" class="node">
<title>f1</title>
<path fill="#f8bbd0" stroke="#e57373" stroke-width="1.2" d="M138.88,-523.45C138.88,-523.45 72.88,-523.45 72.88,-523.45 66.88,-523.45 60.88,-517.45 60.88,-511.45 60.88,-511.45 60.88,-499.45 60.88,-499.45 60.88,-493.45 66.88,-487.45 72.88,-487.45 72.88,-487.45 138.88,-487.45 138.88,-487.45 144.88,-487.45 150.88,-493.45 150.88,-499.45 150.88,-499.45 150.88,-511.45 150.88,-511.45 150.88,-517.45 144.88,-523.45 138.88,-523.45"/>
<text xml:space="preserve" text-anchor="middle" x="105.88" y="-502.72" font-family="Times,serif" font-size="8.00" fill="#880e4f">Vue 3.5</text>
</g>
<!-- f2 -->
<g id="node16" class="node">
<title>f2</title>
<path fill="#f8bbd0" stroke="#e57373" stroke-width="1.2" d="M234.88,-523.45C234.88,-523.45 168.88,-523.45 168.88,-523.45 162.88,-523.45 156.88,-517.45 156.88,-511.45 156.88,-511.45 156.88,-499.45 156.88,-499.45 156.88,-493.45 162.88,-487.45 168.88,-487.45 168.88,-487.45 234.88,-487.45 234.88,-487.45 240.88,-487.45 246.88,-493.45 246.88,-499.45 246.88,-499.45 246.88,-511.45 246.88,-511.45 246.88,-517.45 240.88,-523.45 234.88,-523.45"/>
<text xml:space="preserve" text-anchor="middle" x="201.88" y="-502.72" font-family="Times,serif" font-size="8.00" fill="#880e4f">Vite 8</text>
</g>
<!-- f3 -->
<g id="node17" class="node">
<title>f3</title>
<path fill="#f8bbd0" stroke="#e57373" stroke-width="1.2" d="M330.88,-523.45C330.88,-523.45 264.88,-523.45 264.88,-523.45 258.88,-523.45 252.88,-517.45 252.88,-511.45 252.88,-511.45 252.88,-499.45 252.88,-499.45 252.88,-493.45 258.88,-487.45 264.88,-487.45 264.88,-487.45 330.88,-487.45 330.88,-487.45 336.88,-487.45 342.88,-493.45 342.88,-499.45 342.88,-499.45 342.88,-511.45 342.88,-511.45 342.88,-517.45 336.88,-523.45 330.88,-523.45"/>
<text xml:space="preserve" text-anchor="middle" x="297.88" y="-507.6" font-family="Times,serif" font-size="8.00" fill="#880e4f">Element</text>
<text xml:space="preserve" text-anchor="middle" x="297.88" y="-497.85" font-family="Times,serif" font-size="8.00" fill="#880e4f">Plus 2</text>
</g>
<!-- f4 -->
<g id="node18" class="node">
<title>f4</title>
<path fill="#f8bbd0" stroke="#e57373" stroke-width="1.2" d="M426.88,-523.45C426.88,-523.45 360.88,-523.45 360.88,-523.45 354.88,-523.45 348.88,-517.45 348.88,-511.45 348.88,-511.45 348.88,-499.45 348.88,-499.45 348.88,-493.45 354.88,-487.45 360.88,-487.45 360.88,-487.45 426.88,-487.45 426.88,-487.45 432.88,-487.45 438.88,-493.45 438.88,-499.45 438.88,-499.45 438.88,-511.45 438.88,-511.45 438.88,-517.45 432.88,-523.45 426.88,-523.45"/>
<text xml:space="preserve" text-anchor="middle" x="393.88" y="-502.72" font-family="Times,serif" font-size="8.00" fill="#880e4f">ECharts 6</text>
</g>
<!-- f5 -->
<g id="node19" class="node">
<title>f5</title>
<path fill="#f8bbd0" stroke="#e57373" stroke-width="1.2" d="M522.88,-523.45C522.88,-523.45 456.88,-523.45 456.88,-523.45 450.88,-523.45 444.88,-517.45 444.88,-511.45 444.88,-511.45 444.88,-499.45 444.88,-499.45 444.88,-493.45 450.88,-487.45 456.88,-487.45 456.88,-487.45 522.88,-487.45 522.88,-487.45 528.88,-487.45 534.88,-493.45 534.88,-499.45 534.88,-499.45 534.88,-511.45 534.88,-511.45 534.88,-517.45 528.88,-523.45 522.88,-523.45"/>
<text xml:space="preserve" text-anchor="middle" x="489.88" y="-502.72" font-family="Times,serif" font-size="8.00" fill="#880e4f">D3.js</text>
</g>
<!-- f6 -->
<g id="node20" class="node">
<title>f6</title>
<path fill="#f8bbd0" stroke="#e57373" stroke-width="1.2" d="M618.88,-523.45C618.88,-523.45 552.88,-523.45 552.88,-523.45 546.88,-523.45 540.88,-517.45 540.88,-511.45 540.88,-511.45 540.88,-499.45 540.88,-499.45 540.88,-493.45 546.88,-487.45 552.88,-487.45 552.88,-487.45 618.88,-487.45 618.88,-487.45 624.88,-487.45 630.88,-493.45 630.88,-499.45 630.88,-499.45 630.88,-511.45 630.88,-511.45 630.88,-517.45 624.88,-523.45 618.88,-523.45"/>
<text xml:space="preserve" text-anchor="middle" x="585.88" y="-502.72" font-family="Times,serif" font-size="8.00" fill="#880e4f">Three.js</text>
</g>
<!-- f7 -->
<g id="node21" class="node">
<title>f7</title>
<path fill="#f8bbd0" stroke="#e57373" stroke-width="1.2" d="M714.88,-523.45C714.88,-523.45 648.88,-523.45 648.88,-523.45 642.88,-523.45 636.88,-517.45 636.88,-511.45 636.88,-511.45 636.88,-499.45 636.88,-499.45 636.88,-493.45 642.88,-487.45 648.88,-487.45 648.88,-487.45 714.88,-487.45 714.88,-487.45 720.88,-487.45 726.88,-493.45 726.88,-499.45 726.88,-499.45 726.88,-511.45 726.88,-511.45 726.88,-517.45 720.88,-523.45 714.88,-523.45"/>
<text xml:space="preserve" text-anchor="middle" x="681.88" y="-502.72" font-family="Times,serif" font-size="8.00" fill="#880e4f">Pinia 3</text>
</g>
<!-- f8 -->
<g id="node22" class="node">
<title>f8</title>
<path fill="#f8bbd0" stroke="#e57373" stroke-width="1.2" d="M810.88,-523.45C810.88,-523.45 744.88,-523.45 744.88,-523.45 738.88,-523.45 732.88,-517.45 732.88,-511.45 732.88,-511.45 732.88,-499.45 732.88,-499.45 732.88,-493.45 738.88,-487.45 744.88,-487.45 744.88,-487.45 810.88,-487.45 810.88,-487.45 816.88,-487.45 822.88,-493.45 822.88,-499.45 822.88,-499.45 822.88,-511.45 822.88,-511.45 822.88,-517.45 816.88,-523.45 810.88,-523.45"/>
<text xml:space="preserve" text-anchor="middle" x="777.88" y="-507.6" font-family="Times,serif" font-size="8.00" fill="#880e4f">Vue</text>
<text xml:space="preserve" text-anchor="middle" x="777.88" y="-497.85" font-family="Times,serif" font-size="8.00" fill="#880e4f">Router 5</text>
</g>
<!-- f9 -->
<g id="node23" class="node">
<title>f9</title>
<path fill="#f8bbd0" stroke="#e57373" stroke-width="1.2" d="M906.88,-523.45C906.88,-523.45 840.88,-523.45 840.88,-523.45 834.88,-523.45 828.88,-517.45 828.88,-511.45 828.88,-511.45 828.88,-499.45 828.88,-499.45 828.88,-493.45 834.88,-487.45 840.88,-487.45 840.88,-487.45 906.88,-487.45 906.88,-487.45 912.88,-487.45 918.88,-493.45 918.88,-499.45 918.88,-499.45 918.88,-511.45 918.88,-511.45 918.88,-517.45 912.88,-523.45 906.88,-523.45"/>
<text xml:space="preserve" text-anchor="middle" x="873.88" y="-502.72" font-family="Times,serif" font-size="8.00" fill="#880e4f">Axios</text>
</g>
<!-- _3a -->
<!-- m1 -->
<g id="node25" class="node">
<title>m1</title>
<path fill="#bbdefb" stroke="#64b5f6" stroke-width="1.2" d="M378.88,-436.85C378.88,-436.85 312.88,-436.85 312.88,-436.85 306.88,-436.85 300.88,-430.85 300.88,-424.85 300.88,-424.85 300.88,-405.65 300.88,-405.65 300.88,-399.65 306.88,-393.65 312.88,-393.65 312.88,-393.65 378.88,-393.65 378.88,-393.65 384.88,-393.65 390.88,-399.65 390.88,-405.65 390.88,-405.65 390.88,-424.85 390.88,-424.85 390.88,-430.85 384.88,-436.85 378.88,-436.85"/>
<text xml:space="preserve" text-anchor="middle" x="345.88" y="-420.2" font-family="Times,serif" font-size="9.00" fill="#0d47a1">学生端</text>
<text xml:space="preserve" text-anchor="middle" x="345.88" y="-406.7" font-family="Times,serif" font-size="9.00" fill="#0d47a1">15 页面</text>
</g>
<!-- m2 -->
<g id="node26" class="node">
<title>m2</title>
<path fill="#bbdefb" stroke="#64b5f6" stroke-width="1.2" d="M474.88,-436.85C474.88,-436.85 408.88,-436.85 408.88,-436.85 402.88,-436.85 396.88,-430.85 396.88,-424.85 396.88,-424.85 396.88,-405.65 396.88,-405.65 396.88,-399.65 402.88,-393.65 408.88,-393.65 408.88,-393.65 474.88,-393.65 474.88,-393.65 480.88,-393.65 486.88,-399.65 486.88,-405.65 486.88,-405.65 486.88,-424.85 486.88,-424.85 486.88,-430.85 480.88,-436.85 474.88,-436.85"/>
<text xml:space="preserve" text-anchor="middle" x="441.88" y="-420.2" font-family="Times,serif" font-size="9.00" fill="#0d47a1">教师端</text>
<text xml:space="preserve" text-anchor="middle" x="441.88" y="-406.7" font-family="Times,serif" font-size="9.00" fill="#0d47a1">10 页面</text>
</g>
<!-- m3 -->
<g id="node27" class="node">
<title>m3</title>
<path fill="#bbdefb" stroke="#64b5f6" stroke-width="1.2" d="M570.88,-436.85C570.88,-436.85 504.88,-436.85 504.88,-436.85 498.88,-436.85 492.88,-430.85 492.88,-424.85 492.88,-424.85 492.88,-405.65 492.88,-405.65 492.88,-399.65 498.88,-393.65 504.88,-393.65 504.88,-393.65 570.88,-393.65 570.88,-393.65 576.88,-393.65 582.88,-399.65 582.88,-405.65 582.88,-405.65 582.88,-424.85 582.88,-424.85 582.88,-430.85 576.88,-436.85 570.88,-436.85"/>
<text xml:space="preserve" text-anchor="middle" x="537.88" y="-420.2" font-family="Times,serif" font-size="9.00" fill="#0d47a1">管理员端</text>
<text xml:space="preserve" text-anchor="middle" x="537.88" y="-406.7" font-family="Times,serif" font-size="9.00" fill="#0d47a1">7 页面</text>
</g>
<!-- m4 -->
<g id="node28" class="node">
<title>m4</title>
<path fill="#bbdefb" stroke="#64b5f6" stroke-width="1.2" d="M666.88,-436.85C666.88,-436.85 600.88,-436.85 600.88,-436.85 594.88,-436.85 588.88,-430.85 588.88,-424.85 588.88,-424.85 588.88,-405.65 588.88,-405.65 588.88,-399.65 594.88,-393.65 600.88,-393.65 600.88,-393.65 666.88,-393.65 666.88,-393.65 672.88,-393.65 678.88,-399.65 678.88,-405.65 678.88,-405.65 678.88,-424.85 678.88,-424.85 678.88,-430.85 672.88,-436.85 666.88,-436.85"/>
<text xml:space="preserve" text-anchor="middle" x="633.88" y="-420.2" font-family="Times,serif" font-size="9.00" fill="#0d47a1">认证模块</text>
<text xml:space="preserve" text-anchor="middle" x="633.88" y="-406.7" font-family="Times,serif" font-size="9.00" fill="#0d47a1">注册/登录/找回</text>
</g>
<!-- _3b -->
<!-- b1 -->
<g id="node30" class="node">
<title>b1</title>
<path fill="#d1c4e9" stroke="#7e57c2" stroke-width="1.2" d="M186.88,-348.45C186.88,-348.45 120.88,-348.45 120.88,-348.45 114.88,-348.45 108.88,-342.45 108.88,-336.45 108.88,-336.45 108.88,-313.65 108.88,-313.65 108.88,-307.65 114.88,-301.65 120.88,-301.65 120.88,-301.65 186.88,-301.65 186.88,-301.65 192.88,-301.65 198.88,-307.65 198.88,-313.65 198.88,-313.65 198.88,-336.45 198.88,-336.45 198.88,-342.45 192.88,-348.45 186.88,-348.45"/>
<text xml:space="preserve" text-anchor="middle" x="153.88" y="-329.18" font-family="Times,serif" font-size="7.50" fill="#311b92">知识图谱</text>
<text xml:space="preserve" text-anchor="middle" x="153.88" y="-317.93" font-family="Times,serif" font-size="7.50" fill="#311b92">拓扑排序</text>
</g>
<!-- b2 -->
<g id="node31" class="node">
<title>b2</title>
<path fill="#d1c4e9" stroke="#7e57c2" stroke-width="1.2" d="M282.88,-348.45C282.88,-348.45 216.88,-348.45 216.88,-348.45 210.88,-348.45 204.88,-342.45 204.88,-336.45 204.88,-336.45 204.88,-313.65 204.88,-313.65 204.88,-307.65 210.88,-301.65 216.88,-301.65 216.88,-301.65 282.88,-301.65 282.88,-301.65 288.88,-301.65 294.88,-307.65 294.88,-313.65 294.88,-313.65 294.88,-336.45 294.88,-336.45 294.88,-342.45 288.88,-348.45 282.88,-348.45"/>
<text xml:space="preserve" text-anchor="middle" x="249.88" y="-329.18" font-family="Times,serif" font-size="7.50" fill="#311b92">学习路径</text>
<text xml:space="preserve" text-anchor="middle" x="249.88" y="-317.93" font-family="Times,serif" font-size="7.50" fill="#311b92">自动生成</text>
</g>
<!-- b3 -->
<g id="node32" class="node">
<title>b3</title>
<path fill="#d1c4e9" stroke="#7e57c2" stroke-width="1.2" d="M378.88,-348.45C378.88,-348.45 312.88,-348.45 312.88,-348.45 306.88,-348.45 300.88,-342.45 300.88,-336.45 300.88,-336.45 300.88,-313.65 300.88,-313.65 300.88,-307.65 306.88,-301.65 312.88,-301.65 312.88,-301.65 378.88,-301.65 378.88,-301.65 384.88,-301.65 390.88,-307.65 390.88,-313.65 390.88,-313.65 390.88,-336.45 390.88,-336.45 390.88,-342.45 384.88,-348.45 378.88,-348.45"/>
<text xml:space="preserve" text-anchor="middle" x="345.88" y="-329.18" font-family="Times,serif" font-size="7.50" fill="#311b92">在线刷题</text>
<text xml:space="preserve" text-anchor="middle" x="345.88" y="-317.93" font-family="Times,serif" font-size="7.50" fill="#311b92">即时判分</text>
</g>
<!-- b4 -->
<g id="node33" class="node">
<title>b4</title>
<path fill="#d1c4e9" stroke="#7e57c2" stroke-width="1.2" d="M474.88,-348.45C474.88,-348.45 408.88,-348.45 408.88,-348.45 402.88,-348.45 396.88,-342.45 396.88,-336.45 396.88,-336.45 396.88,-313.65 396.88,-313.65 396.88,-307.65 402.88,-301.65 408.88,-301.65 408.88,-301.65 474.88,-301.65 474.88,-301.65 480.88,-301.65 486.88,-307.65 486.88,-313.65 486.88,-313.65 486.88,-336.45 486.88,-336.45 486.88,-342.45 480.88,-348.45 474.88,-348.45"/>
<text xml:space="preserve" text-anchor="middle" x="441.88" y="-329.18" font-family="Times,serif" font-size="7.50" fill="#311b92">测评中心</text>
<text xml:space="preserve" text-anchor="middle" x="441.88" y="-317.93" font-family="Times,serif" font-size="7.50" fill="#311b92">AI 诊断</text>
</g>
<!-- b5 -->
<g id="node34" class="node">
<title>b5</title>
<path fill="#d1c4e9" stroke="#7e57c2" stroke-width="1.2" d="M570.88,-348.45C570.88,-348.45 504.88,-348.45 504.88,-348.45 498.88,-348.45 492.88,-342.45 492.88,-336.45 492.88,-336.45 492.88,-313.65 492.88,-313.65 492.88,-307.65 498.88,-301.65 504.88,-301.65 504.88,-301.65 570.88,-301.65 570.88,-301.65 576.88,-301.65 582.88,-307.65 582.88,-313.65 582.88,-313.65 582.88,-336.45 582.88,-336.45 582.88,-342.45 576.88,-348.45 570.88,-348.45"/>
<text xml:space="preserve" text-anchor="middle" x="537.88" y="-329.18" font-family="Times,serif" font-size="7.50" fill="#311b92">错题本</text>
<text xml:space="preserve" text-anchor="middle" x="537.88" y="-317.93" font-family="Times,serif" font-size="7.50" fill="#311b92">AI 讲解</text>
</g>
<!-- b6 -->
<g id="node35" class="node">
<title>b6</title>
<path fill="#d1c4e9" stroke="#7e57c2" stroke-width="1.2" d="M666.88,-348.45C666.88,-348.45 600.88,-348.45 600.88,-348.45 594.88,-348.45 588.88,-342.45 588.88,-336.45 588.88,-336.45 588.88,-313.65 588.88,-313.65 588.88,-307.65 594.88,-301.65 600.88,-301.65 600.88,-301.65 666.88,-301.65 666.88,-301.65 672.88,-301.65 678.88,-307.65 678.88,-313.65 678.88,-313.65 678.88,-336.45 678.88,-336.45 678.88,-342.45 672.88,-348.45 666.88,-348.45"/>
<text xml:space="preserve" text-anchor="middle" x="633.88" y="-329.18" font-family="Times,serif" font-size="7.50" fill="#311b92">跨学科</text>
<text xml:space="preserve" text-anchor="middle" x="633.88" y="-317.93" font-family="Times,serif" font-size="7.50" fill="#311b92">主题融合</text>
</g>
<!-- b7 -->
<g id="node36" class="node">
<title>b7</title>
<path fill="#d1c4e9" stroke="#7e57c2" stroke-width="1.2" d="M762.88,-348.45C762.88,-348.45 696.88,-348.45 696.88,-348.45 690.88,-348.45 684.88,-342.45 684.88,-336.45 684.88,-336.45 684.88,-313.65 684.88,-313.65 684.88,-307.65 690.88,-301.65 696.88,-301.65 696.88,-301.65 762.88,-301.65 762.88,-301.65 768.88,-301.65 774.88,-307.65 774.88,-313.65 774.88,-313.65 774.88,-336.45 774.88,-336.45 774.88,-342.45 768.88,-348.45 762.88,-348.45"/>
<text xml:space="preserve" text-anchor="middle" x="729.88" y="-329.18" font-family="Times,serif" font-size="7.50" fill="#311b92">学情分析</text>
<text xml:space="preserve" text-anchor="middle" x="729.88" y="-317.93" font-family="Times,serif" font-size="7.50" fill="#311b92">数据统计</text>
</g>
<!-- b8 -->
<g id="node37" class="node">
<title>b8</title>
<path fill="#d1c4e9" stroke="#7e57c2" stroke-width="1.2" d="M858.88,-348.45C858.88,-348.45 792.88,-348.45 792.88,-348.45 786.88,-348.45 780.88,-342.45 780.88,-336.45 780.88,-336.45 780.88,-313.65 780.88,-313.65 780.88,-307.65 786.88,-301.65 792.88,-301.65 792.88,-301.65 858.88,-301.65 858.88,-301.65 864.88,-301.65 870.88,-307.65 870.88,-313.65 870.88,-313.65 870.88,-336.45 870.88,-336.45 870.88,-342.45 864.88,-348.45 858.88,-348.45"/>
<text xml:space="preserve" text-anchor="middle" x="825.88" y="-329.18" font-family="Times,serif" font-size="7.50" fill="#311b92">学习伙伴</text>
<text xml:space="preserve" text-anchor="middle" x="825.88" y="-317.93" font-family="Times,serif" font-size="7.50" fill="#311b92">CSS 动画</text>
</g>
<!-- s1 -->
<g id="node38" class="node">
<title>s1</title>
<path fill="#ffe0b2" stroke="#ff9800" stroke-width="1.2" d="M186.88,-234.85C186.88,-234.85 120.88,-234.85 120.88,-234.85 114.88,-234.85 108.88,-228.85 108.88,-222.85 108.88,-222.85 108.88,-210.85 108.88,-210.85 108.88,-204.85 114.88,-198.85 120.88,-198.85 120.88,-198.85 186.88,-198.85 186.88,-198.85 192.88,-198.85 198.88,-204.85 198.88,-210.85 198.88,-210.85 198.88,-222.85 198.88,-222.85 198.88,-228.85 192.88,-234.85 186.88,-234.85"/>
<text xml:space="preserve" text-anchor="middle" x="153.88" y="-219" font-family="Times,serif" font-size="8.00" fill="#bf360c">Spring Boot</text>
<text xml:space="preserve" text-anchor="middle" x="153.88" y="-209.25" font-family="Times,serif" font-size="8.00" fill="#bf360c">3.5.16</text>
</g>
<!-- s2 -->
<g id="node39" class="node">
<title>s2</title>
<path fill="#ffe0b2" stroke="#ff9800" stroke-width="1.2" d="M282.88,-234.85C282.88,-234.85 216.88,-234.85 216.88,-234.85 210.88,-234.85 204.88,-228.85 204.88,-222.85 204.88,-222.85 204.88,-210.85 204.88,-210.85 204.88,-204.85 210.88,-198.85 216.88,-198.85 216.88,-198.85 282.88,-198.85 282.88,-198.85 288.88,-198.85 294.88,-204.85 294.88,-210.85 294.88,-210.85 294.88,-222.85 294.88,-222.85 294.88,-228.85 288.88,-234.85 282.88,-234.85"/>
<text xml:space="preserve" text-anchor="middle" x="249.88" y="-219" font-family="Times,serif" font-size="8.00" fill="#bf360c">MyBatis</text>
<text xml:space="preserve" text-anchor="middle" x="249.88" y="-209.25" font-family="Times,serif" font-size="8.00" fill="#bf360c">Plus 3.5.5</text>
</g>
<!-- s3 -->
<g id="node40" class="node">
<title>s3</title>
<path fill="#ffe0b2" stroke="#ff9800" stroke-width="1.2" d="M378.88,-234.85C378.88,-234.85 312.88,-234.85 312.88,-234.85 306.88,-234.85 300.88,-228.85 300.88,-222.85 300.88,-222.85 300.88,-210.85 300.88,-210.85 300.88,-204.85 306.88,-198.85 312.88,-198.85 312.88,-198.85 378.88,-198.85 378.88,-198.85 384.88,-198.85 390.88,-204.85 390.88,-210.85 390.88,-210.85 390.88,-222.85 390.88,-222.85 390.88,-228.85 384.88,-234.85 378.88,-234.85"/>
<text xml:space="preserve" text-anchor="middle" x="345.88" y="-219" font-family="Times,serif" font-size="8.00" fill="#bf360c">JWT</text>
<text xml:space="preserve" text-anchor="middle" x="345.88" y="-209.25" font-family="Times,serif" font-size="8.00" fill="#bf360c">(jjwt)</text>
</g>
<!-- s4 -->
<g id="node41" class="node">
<title>s4</title>
<path fill="#ffe0b2" stroke="#ff9800" stroke-width="1.2" d="M474.88,-234.85C474.88,-234.85 408.88,-234.85 408.88,-234.85 402.88,-234.85 396.88,-228.85 396.88,-222.85 396.88,-222.85 396.88,-210.85 396.88,-210.85 396.88,-204.85 402.88,-198.85 408.88,-198.85 408.88,-198.85 474.88,-198.85 474.88,-198.85 480.88,-198.85 486.88,-204.85 486.88,-210.85 486.88,-210.85 486.88,-222.85 486.88,-222.85 486.88,-228.85 480.88,-234.85 474.88,-234.85"/>
<text xml:space="preserve" text-anchor="middle" x="441.88" y="-219" font-family="Times,serif" font-size="8.00" fill="#bf360c">JavaMail</text>
<text xml:space="preserve" text-anchor="middle" x="441.88" y="-209.25" font-family="Times,serif" font-size="8.00" fill="#bf360c">(QQ SMTP)</text>
</g>
<!-- s5 -->
<g id="node42" class="node">
<title>s5</title>
<path fill="#ffe0b2" stroke="#ff9800" stroke-width="1.2" d="M570.88,-234.85C570.88,-234.85 504.88,-234.85 504.88,-234.85 498.88,-234.85 492.88,-228.85 492.88,-222.85 492.88,-222.85 492.88,-210.85 492.88,-210.85 492.88,-204.85 498.88,-198.85 504.88,-198.85 504.88,-198.85 570.88,-198.85 570.88,-198.85 576.88,-198.85 582.88,-204.85 582.88,-210.85 582.88,-210.85 582.88,-222.85 582.88,-222.85 582.88,-228.85 576.88,-234.85 570.88,-234.85"/>
<text xml:space="preserve" text-anchor="middle" x="537.88" y="-220.12" font-family="Times,serif" font-size="8.00" fill="#bf360c">AOP</text>
<text xml:space="preserve" text-anchor="middle" x="537.88" y="-210.38" font-family="Times,serif" font-size="8.00" fill="#bf360c">操作日志</text>
</g>
<!-- s6 -->
<g id="node43" class="node">
<title>s6</title>
<path fill="#ffe0b2" stroke="#ff9800" stroke-width="1.2" d="M666.88,-234.85C666.88,-234.85 600.88,-234.85 600.88,-234.85 594.88,-234.85 588.88,-228.85 588.88,-222.85 588.88,-222.85 588.88,-210.85 588.88,-210.85 588.88,-204.85 594.88,-198.85 600.88,-198.85 600.88,-198.85 666.88,-198.85 666.88,-198.85 672.88,-198.85 678.88,-204.85 678.88,-210.85 678.88,-210.85 678.88,-222.85 678.88,-222.85 678.88,-228.85 672.88,-234.85 666.88,-234.85"/>
<text xml:space="preserve" text-anchor="middle" x="633.88" y="-219" font-family="Times,serif" font-size="8.00" fill="#bf360c">RestTemplate</text>
<text xml:space="preserve" text-anchor="middle" x="633.88" y="-209.25" font-family="Times,serif" font-size="8.00" fill="#bf360c">(HTTP)</text>
</g>
<!-- s7 -->
<g id="node44" class="node">
<title>s7</title>
<path fill="#ffe0b2" stroke="#ff9800" stroke-width="1.2" d="M762.88,-234.85C762.88,-234.85 696.88,-234.85 696.88,-234.85 690.88,-234.85 684.88,-228.85 684.88,-222.85 684.88,-222.85 684.88,-210.85 684.88,-210.85 684.88,-204.85 690.88,-198.85 696.88,-198.85 696.88,-198.85 762.88,-198.85 762.88,-198.85 768.88,-198.85 774.88,-204.85 774.88,-210.85 774.88,-210.85 774.88,-222.85 774.88,-222.85 774.88,-228.85 768.88,-234.85 762.88,-234.85"/>
<text xml:space="preserve" text-anchor="middle" x="729.88" y="-220.12" font-family="Times,serif" font-size="8.00" fill="#bf360c">HikariCP</text>
<text xml:space="preserve" text-anchor="middle" x="729.88" y="-210.38" font-family="Times,serif" font-size="8.00" fill="#bf360c">连接池</text>
</g>
<!-- s8 -->
<g id="node45" class="node">
<title>s8</title>
<path fill="#ffe0b2" stroke="#ff9800" stroke-width="1.2" d="M858.88,-234.85C858.88,-234.85 792.88,-234.85 792.88,-234.85 786.88,-234.85 780.88,-228.85 780.88,-222.85 780.88,-222.85 780.88,-210.85 780.88,-210.85 780.88,-204.85 786.88,-198.85 792.88,-198.85 792.88,-198.85 858.88,-198.85 858.88,-198.85 864.88,-198.85 870.88,-204.85 870.88,-210.85 870.88,-210.85 870.88,-222.85 870.88,-222.85 870.88,-228.85 864.88,-234.85 858.88,-234.85"/>
<text xml:space="preserve" text-anchor="middle" x="825.88" y="-214.12" font-family="Times,serif" font-size="8.00" fill="#bf360c">Lombok</text>
</g>
<!-- _6a -->
<!-- d1 -->
<g id="node47" class="node">
<title>d1</title>
<path fill="#ffcdd2" stroke="#e57373" stroke-width="1.2" d="M330.88,-106.85C330.88,-106.85 264.88,-106.85 264.88,-106.85 258.88,-106.85 252.88,-100.85 252.88,-94.85 252.88,-94.85 252.88,-75.65 252.88,-75.65 252.88,-69.65 258.88,-63.65 264.88,-63.65 264.88,-63.65 330.88,-63.65 330.88,-63.65 336.88,-63.65 342.88,-69.65 342.88,-75.65 342.88,-75.65 342.88,-94.85 342.88,-94.85 342.88,-100.85 336.88,-106.85 330.88,-106.85"/>
<text xml:space="preserve" text-anchor="middle" x="297.88" y="-88.53" font-family="Times,serif" font-size="8.00" fill="#b71c1c">MySQL 8.0</text>
<text xml:space="preserve" text-anchor="middle" x="297.88" y="-78.78" font-family="Times,serif" font-size="8.00" fill="#b71c1c">22 张表</text>
</g>
<!-- d2 -->
<g id="node48" class="node">
<title>d2</title>
<path fill="#ffcdd2" stroke="#e57373" stroke-width="1.2" d="M426.88,-106.85C426.88,-106.85 360.88,-106.85 360.88,-106.85 354.88,-106.85 348.88,-100.85 348.88,-94.85 348.88,-94.85 348.88,-75.65 348.88,-75.65 348.88,-69.65 354.88,-63.65 360.88,-63.65 360.88,-63.65 426.88,-63.65 426.88,-63.65 432.88,-63.65 438.88,-69.65 438.88,-75.65 438.88,-75.65 438.88,-94.85 438.88,-94.85 438.88,-100.85 432.88,-106.85 426.88,-106.85"/>
<text xml:space="preserve" text-anchor="middle" x="393.88" y="-88.53" font-family="Times,serif" font-size="8.00" fill="#b71c1c">Docker</text>
<text xml:space="preserve" text-anchor="middle" x="393.88" y="-78.78" font-family="Times,serif" font-size="8.00" fill="#b71c1c">多阶段构建</text>
</g>
<!-- d3 -->
<g id="node49" class="node">
<title>d3</title>
<path fill="#ffcdd2" stroke="#e57373" stroke-width="1.2" d="M522.88,-106.85C522.88,-106.85 456.88,-106.85 456.88,-106.85 450.88,-106.85 444.88,-100.85 444.88,-94.85 444.88,-94.85 444.88,-75.65 444.88,-75.65 444.88,-69.65 450.88,-63.65 456.88,-63.65 456.88,-63.65 522.88,-63.65 522.88,-63.65 528.88,-63.65 534.88,-69.65 534.88,-75.65 534.88,-75.65 534.88,-94.85 534.88,-94.85 534.88,-100.85 528.88,-106.85 522.88,-106.85"/>
<text xml:space="preserve" text-anchor="middle" x="489.88" y="-88.53" font-family="Times,serif" font-size="8.00" fill="#b71c1c">数据脚本</text>
<text xml:space="preserve" text-anchor="middle" x="489.88" y="-76.53" font-family="Times,serif" font-size="8.00" fill="#b71c1c">init/seed/migrate</text>
</g>
<!-- d4 -->
<g id="node50" class="node">
<title>d4</title>
<path fill="#ffcdd2" stroke="#e57373" stroke-width="1.2" d="M618.88,-106.85C618.88,-106.85 552.88,-106.85 552.88,-106.85 546.88,-106.85 540.88,-100.85 540.88,-94.85 540.88,-94.85 540.88,-75.65 540.88,-75.65 540.88,-69.65 546.88,-63.65 552.88,-63.65 552.88,-63.65 618.88,-63.65 618.88,-63.65 624.88,-63.65 630.88,-69.65 630.88,-75.65 630.88,-75.65 630.88,-94.85 630.88,-94.85 630.88,-100.85 624.88,-106.85 618.88,-106.85"/>
<text xml:space="preserve" text-anchor="middle" x="585.88" y="-88.53" font-family="Times,serif" font-size="8.00" fill="#b71c1c">DeepSeek</text>
<text xml:space="preserve" text-anchor="middle" x="585.88" y="-78.78" font-family="Times,serif" font-size="8.00" fill="#b71c1c">API (外部)</text>
</g>
<!-- d5 -->
<g id="node51" class="node">
<title>d5</title>
<path fill="#ffcdd2" stroke="#e57373" stroke-width="1.2" d="M714.88,-106.85C714.88,-106.85 648.88,-106.85 648.88,-106.85 642.88,-106.85 636.88,-100.85 636.88,-94.85 636.88,-94.85 636.88,-75.65 636.88,-75.65 636.88,-69.65 642.88,-63.65 648.88,-63.65 648.88,-63.65 714.88,-63.65 714.88,-63.65 720.88,-63.65 726.88,-69.65 726.88,-75.65 726.88,-75.65 726.88,-94.85 726.88,-94.85 726.88,-100.85 720.88,-106.85 714.88,-106.85"/>
<text xml:space="preserve" text-anchor="middle" x="681.88" y="-89.65" font-family="Times,serif" font-size="8.00" fill="#b71c1c">QQ 邮箱</text>
<text xml:space="preserve" text-anchor="middle" x="681.88" y="-77.65" font-family="Times,serif" font-size="8.00" fill="#b71c1c">SMTP (外部)</text>
</g>
<!-- _6b -->
</g>
</svg>
