<svg xmlns="http://www.w3.org/2000/svg" xmlns:xlink="http://www.w3.org/1999/xlink" contentStyleType="text/css" data-diagram-type="SEQUENCE" height="1551px" preserveAspectRatio="none" style="width:698px;height:1551px;background:#FEFEFE;" version="1.1" viewBox="0 0 698 1551" width="698px" zoomAndPan="magnify"><?plantuml 1.2026.6?><defs/><g><rect fill="#FEFEFE" height="1551" style="stroke:none;stroke-width:1;" width="698" x="0" y="0"/><g class="title" data-source-line="9"><text fill="#000000" font-family="sans-serif" font-size="14" font-weight="700" lengthAdjust="spacing" textLength="149.2285" x="271.0393" y="28.5352">&#23398;&#29983;&#23398;&#20064;&#27969;&#31243; &#8212; &#39034;&#24207;&#22270;</text></g><g><title>Vue ..</title><rect fill="#FFFFFF" height="1276.7988" style="stroke:#181818;stroke-width:1;" width="10" x="168" y="185.3535"/></g><g><title>SpringBoot</title><rect fill="#FFFFFF" height="80.8652" style="stroke:#181818;stroke-width:1;" width="10" x="392.1157" y="212.3086"/></g><g><title>SpringBoot</title><rect fill="#FFFFFF" height="301.416" style="stroke:#181818;stroke-width:1;" width="10" x="392.1157" y="505.8594"/></g><g><title>SpringBoot</title><rect fill="#FFFFFF" height="372.2813" style="stroke:#181818;stroke-width:1;" width="10" x="392.1157" y="1055.916"/></g><g><title>MySQL</title><rect fill="#FFFFFF" height="26.9551" style="stroke:#181818;stroke-width:1;" width="10" x="636.5288" y="239.2637"/></g><g><title>MySQL</title><rect fill="#FFFFFF" height="26.9551" style="stroke:#181818;stroke-width:1;" width="10" x="636.5288" y="657.5449"/></g><g><title>MySQL</title><rect fill="#FFFFFF" height="26.9551" style="stroke:#181818;stroke-width:1;" width="10" x="636.5288" y="746.3652"/></g><g><title>MySQL</title><rect fill="#FFFFFF" height="26.9551" style="stroke:#181818;stroke-width:1;" width="10" x="636.5288" y="1095.8262"/></g><g><title>MySQL</title><rect fill="#FFFFFF" height="26.9551" style="stroke:#181818;stroke-width:1;" width="10" x="636.5288" y="1224.6016"/></g><g><title>MySQL</title><rect fill="#FFFFFF" height="26.9551" style="stroke:#181818;stroke-width:1;" width="10" x="636.5288" y="1346.332"/></g><rect fill="none" height="81.8203" style="stroke:#000000;stroke-width:1.5;" width="321.2759" x="351.0313" y="699.5"/><rect fill="none" height="539.9668" style="stroke:#000000;stroke-width:1.5;" width="672.3071" x="10" y="915.1855"/><rect fill="none" height="243.4609" style="stroke:#000000;stroke-width:1.5;" width="539.1208" x="133.1863" y="1177.7363"/><g class="participant-lifeline" data-entity-uid="part1" data-qualified-name="S" data-source-line="11" id="part1-lifeline"><g><title>..</title><rect fill="#000000" fill-opacity="0.00000" height="1356.709" width="8" x="30" y="115.4434"/><line style="stroke:#181818;stroke-width:0.5;stroke-dasharray:5,5;" x1="34" x2="34" y1="115.4434" y2="1472.1523"/></g></g><g class="participant-lifeline" data-entity-uid="part2" data-qualified-name="F" data-source-line="12" id="part2-lifeline"><g><title>Vue ..</title><rect fill="#000000" fill-opacity="0.00000" height="1356.709" width="8" x="169" y="115.4434"/><line style="stroke:#181818;stroke-width:0.5;stroke-dasharray:5,5;" x1="172.1863" x2="172.1863" y1="115.4434" y2="1472.1523"/></g></g><g class="participant-lifeline" data-entity-uid="part3" data-qualified-name="B" data-source-line="13" id="part3-lifeline"><g><title>SpringBoot</title><rect fill="#000000" fill-opacity="0.00000" height="1356.709" width="8" x="393.1157" y="115.4434"/><line style="stroke:#181818;stroke-width:0.5;stroke-dasharray:5,5;" x1="397.0313" x2="397.0313" y1="115.4434" y2="1472.1523"/></g></g><g class="participant-lifeline" data-entity-uid="part4" data-qualified-name="D" data-source-line="14" id="part4-lifeline"><g><title>MySQL</title><rect fill="#000000" fill-opacity="0.00000" height="1356.709" width="8" x="637.5288" y="115.4434"/><line style="stroke:#181818;stroke-width:0.5;stroke-dasharray:5,5;" x1="640.7505" x2="640.7505" y1="115.4434" y2="1472.1523"/></g></g><g class="participant participant-head" data-entity-uid="part1" data-qualified-name="S" data-source-line="11" id="part1-head"><text fill="#000000" font-family="sans-serif" font-size="11" lengthAdjust="spacing" textLength="22" x="20" y="113.123">&#23398;&#29983;</text><ellipse cx="34" cy="50.9883" fill="#E2E2F0" rx="8" ry="8" style="stroke:#181818;stroke-width:0.5;"/><path d="M34,58.9883 L34,85.9883 M21,66.9883 L47,66.9883 M34,85.9883 L21,100.9883 M34,85.9883 L47,100.9883" fill="none" style="stroke:#181818;stroke-width:0.5;"/></g><g class="participant participant-tail" data-entity-uid="part1" data-qualified-name="S" data-source-line="11" id="part1-tail"><text fill="#000000" font-family="sans-serif" font-size="11" lengthAdjust="spacing" textLength="22" x="20" y="1481.7871">&#23398;&#29983;</text><ellipse cx="34" cy="1492.6074" fill="#E2E2F0" rx="8" ry="8" style="stroke:#181818;stroke-width:0.5;"/><path d="M34,1500.6074 L34,1527.6074 M21,1508.6074 L47,1508.6074 M34,1527.6074 L21,1542.6074 M34,1527.6074 L47,1542.6074" fill="none" style="stroke:#181818;stroke-width:0.5;"/></g><g class="participant participant-head" data-entity-uid="part2" data-qualified-name="F" data-source-line="12" id="part2-head"><rect fill="#E2E2F0" height="26.9551" rx="2.5" ry="2.5" style="stroke:#181818;stroke-width:0.5;" width="59.6274" x="143.1863" y="87.4883"/><text fill="#000000" font-family="sans-serif" font-size="11" lengthAdjust="spacing" textLength="45.6274" x="150.1863" y="105.123">Vue &#21069;&#31471;</text></g><g class="participant participant-tail" data-entity-uid="part2" data-qualified-name="F" data-source-line="12" id="part2-tail"><rect fill="#E2E2F0" height="26.9551" rx="2.5" ry="2.5" style="stroke:#181818;stroke-width:0.5;" width="59.6274" x="143.1863" y="1471.1523"/><text fill="#000000" font-family="sans-serif" font-size="11" lengthAdjust="spacing" textLength="45.6274" x="150.1863" y="1488.7871">Vue &#21069;&#31471;</text></g><g class="participant participant-head" data-entity-uid="part3" data-qualified-name="B" data-source-line="13" id="part3-head"><rect fill="#E2E2F0" height="39.9102" rx="2.5" ry="2.5" style="stroke:#181818;stroke-width:0.5;" width="72.1689" x="361.0313" y="74.5332"/><text fill="#000000" font-family="sans-serif" font-size="11" lengthAdjust="spacing" textLength="58.1689" x="368.0313" y="92.168">SpringBoot</text><text fill="#000000" font-family="sans-serif" font-size="11" lengthAdjust="spacing" textLength="22" x="386.1157" y="105.123">&#21518;&#31471;</text></g><g class="participant participant-tail" data-entity-uid="part3" data-qualified-name="B" data-source-line="13" id="part3-tail"><rect fill="#E2E2F0" height="39.9102" rx="2.5" ry="2.5" style="stroke:#181818;stroke-width:0.5;" width="72.1689" x="361.0313" y="1471.1523"/><text fill="#000000" font-family="sans-serif" font-size="11" lengthAdjust="spacing" textLength="58.1689" x="368.0313" y="1488.7871">SpringBoot</text><text fill="#000000" font-family="sans-serif" font-size="11" lengthAdjust="spacing" textLength="22" x="386.1157" y="1501.7422">&#21518;&#31471;</text></g><g class="participant participant-head" data-entity-uid="part4" data-qualified-name="D" data-source-line="14" id="part4-head"><text fill="#000000" font-family="sans-serif" font-size="11" lengthAdjust="spacing" textLength="35.5566" x="620.7505" y="113.123">MySQL</text><path d="M623.5288,66.4883 C623.5288,56.4883 641.5288,56.4883 641.5288,56.4883 C641.5288,56.4883 659.5288,56.4883 659.5288,66.4883 L659.5288,92.4883 C659.5288,102.4883 641.5288,102.4883 641.5288,102.4883 C641.5288,102.4883 623.5288,102.4883 623.5288,92.4883 L623.5288,66.4883" fill="#E2E2F0" style="stroke:#181818;stroke-width:0.5;"/><path d="M623.5288,66.4883 C623.5288,76.4883 641.5288,76.4883 641.5288,76.4883 C641.5288,76.4883 659.5288,76.4883 659.5288,66.4883" fill="none" style="stroke:#181818;stroke-width:0.5;"/></g><g class="participant participant-tail" data-entity-uid="part4" data-qualified-name="D" data-source-line="14" id="part4-tail"><text fill="#000000" font-family="sans-serif" font-size="11" lengthAdjust="spacing" textLength="35.5566" x="620.7505" y="1481.7871">MySQL</text><path d="M623.5288,1494.1074 C623.5288,1484.1074 641.5288,1484.1074 641.5288,1484.1074 C641.5288,1484.1074 659.5288,1484.1074 659.5288,1494.1074 L659.5288,1520.1074 C659.5288,1530.1074 641.5288,1530.1074 641.5288,1530.1074 C641.5288,1530.1074 623.5288,1530.1074 623.5288,1520.1074 L623.5288,1494.1074" fill="#E2E2F0" style="stroke:#181818;stroke-width:0.5;"/><path d="M623.5288,1494.1074 C623.5288,1504.1074 641.5288,1504.1074 641.5288,1504.1074 C641.5288,1504.1074 659.5288,1504.1074 659.5288,1494.1074" fill="none" style="stroke:#181818;stroke-width:0.5;"/></g><g><title>Vue ..</title><rect fill="#FFFFFF" height="1276.7988" style="stroke:#181818;stroke-width:1;" width="10" x="168" y="185.3535"/></g><g><title>SpringBoot</title><rect fill="#FFFFFF" height="80.8652" style="stroke:#181818;stroke-width:1;" width="10" x="392.1157" y="212.3086"/></g><g><title>SpringBoot</title><rect fill="#FFFFFF" height="301.416" style="stroke:#181818;stroke-width:1;" width="10" x="392.1157" y="505.8594"/></g><g><title>SpringBoot</title><rect fill="#FFFFFF" height="372.2813" style="stroke:#181818;stroke-width:1;" width="10" x="392.1157" y="1055.916"/></g><g><title>MySQL</title><rect fill="#FFFFFF" height="26.9551" style="stroke:#181818;stroke-width:1;" width="10" x="636.5288" y="239.2637"/></g><g><title>MySQL</title><rect fill="#FFFFFF" height="26.9551" style="stroke:#181818;stroke-width:1;" width="10" x="636.5288" y="657.5449"/></g><g><title>MySQL</title><rect fill="#FFFFFF" height="26.9551" style="stroke:#181818;stroke-width:1;" width="10" x="636.5288" y="746.3652"/></g><g><title>MySQL</title><rect fill="#FFFFFF" height="26.9551" style="stroke:#181818;stroke-width:1;" width="10" x="636.5288" y="1095.8262"/></g><g><title>MySQL</title><rect fill="#FFFFFF" height="26.9551" style="stroke:#181818;stroke-width:1;" width="10" x="636.5288" y="1224.6016"/></g><g><title>MySQL</title><rect fill="#FFFFFF" height="26.9551" style="stroke:#181818;stroke-width:1;" width="10" x="636.5288" y="1346.332"/></g><rect fill="#EEEEEE" height="3" style="stroke:#EEEEEE;stroke-width:1;" width="692.3071" x="0" y="144.9209"/><line style="stroke:#000000;stroke-width:1;" x1="0" x2="692.3071" y1="144.9209" y2="144.9209"/><line style="stroke:#000000;stroke-width:1;" x1="0" x2="692.3071" y1="147.9209" y2="147.9209"/><rect fill="#EEEEEE" height="20.9551" style="stroke:#000000;stroke-width:2;" width="83.6255" x="304.3408" y="135.4434"/><text fill="#000000" font-family="sans-serif" font-size="11" font-weight="700" lengthAdjust="spacing" textLength="66" x="310.3408" y="150.0781">&#36827;&#20837;&#30693;&#35782;&#22270;&#35889;</text><g class="message" data-entity-1="part1" data-entity-2="part2" data-source-line="18" id="msg1"><polygon fill="#181818" points="156,181.3535,166,185.3535,156,189.3535,160,185.3535" style="stroke:#181818;stroke-width:1;stroke-linejoin:miter;stroke-miterlimit:10;"/><line style="stroke:#181818;stroke-width:1;" x1="34" x2="162" y1="185.3535" y2="185.3535"/><text fill="#000000" font-family="sans-serif" font-size="11" lengthAdjust="spacing" textLength="88" x="57" y="181.0332">&#36827;&#20837;&#30693;&#35782;&#22270;&#35889;&#39029;&#38754;</text></g><g class="message" data-entity-1="part2" data-entity-2="part3" data-source-line="21" id="msg2"><polygon fill="#181818" points="380.1157,208.3086,390.1157,212.3086,380.1157,216.3086,384.1157,212.3086" style="stroke:#181818;stroke-width:1;stroke-linejoin:miter;stroke-miterlimit:10;"/><line style="stroke:#181818;stroke-width:1;" x1="178" x2="386.1157" y1="212.3086" y2="212.3086"/><text fill="#000000" font-family="sans-serif" font-size="11" lengthAdjust="spacing" textLength="172.7397" x="198.688" y="207.9883">GET /student/knowledge-nodes</text></g><g class="message" data-entity-1="part3" data-entity-2="part4" data-source-line="24" id="msg3"><polygon fill="#181818" points="624.5288,235.2637,634.5288,239.2637,624.5288,243.2637,628.5288,239.2637" style="stroke:#181818;stroke-width:1;stroke-linejoin:miter;stroke-miterlimit:10;"/><line style="stroke:#181818;stroke-width:1;" x1="402.1157" x2="630.5288" y1="239.2637" y2="239.2637"/><text fill="#000000" font-family="sans-serif" font-size="11" lengthAdjust="spacing" textLength="174.7378" x="431.9534" y="234.9434">SELECT * FROM knowledge_node</text></g><g class="message" data-entity-1="part4" data-entity-2="part3" data-source-line="26" id="msg4"><polygon fill="#181818" points="413.1157,262.2188,403.1157,266.2188,413.1157,270.2188,409.1157,266.2188" style="stroke:#181818;stroke-width:1;stroke-linejoin:miter;stroke-miterlimit:10;"/><line style="stroke:#181818;stroke-width:1;stroke-dasharray:2,2;" x1="407.1157" x2="640.5288" y1="266.2188" y2="266.2188"/><text fill="#000000" font-family="sans-serif" font-size="11" lengthAdjust="spacing" textLength="55" x="494.3223" y="261.8984">&#30693;&#35782;&#28857;&#21015;&#34920;</text></g><g class="message" data-entity-1="part3" data-entity-2="part2" data-source-line="29" id="msg5"><polygon fill="#181818" points="189,289.1738,179,293.1738,189,297.1738,185,293.1738" style="stroke:#181818;stroke-width:1;stroke-linejoin:miter;stroke-miterlimit:10;"/><line style="stroke:#181818;stroke-width:1;stroke-dasharray:2,2;" x1="183" x2="396.1157" y1="293.1738" y2="293.1738"/><text fill="#000000" font-family="sans-serif" font-size="11" lengthAdjust="spacing" textLength="84.498" x="245.3088" y="288.8535">&#30693;&#35782;&#28857;&#21015;&#34920; JSON</text></g><g class="message" data-entity-1="part2" data-entity-2="part2" data-source-line="32" id="msg6"><line style="stroke:#181818;stroke-width:1;" x1="178" x2="220" y1="320.1289" y2="320.1289"/><line style="stroke:#181818;stroke-width:1;" x1="220" x2="220" y1="320.1289" y2="333.1289"/><line style="stroke:#181818;stroke-width:1;" x1="179" x2="220" y1="333.1289" y2="333.1289"/><polygon fill="#181818" points="189,329.1289,179,333.1289,189,337.1289,185,333.1289" style="stroke:#181818;stroke-width:1;stroke-linejoin:miter;stroke-miterlimit:10;"/><text fill="#000000" font-family="sans-serif" font-size="11" lengthAdjust="spacing" textLength="77" x="185" y="315.8086">&#28210;&#26579;&#30693;&#35782;&#28857;&#21345;&#29255;</text></g><g class="message" data-entity-1="part2" data-entity-2="part1" data-source-line="33" id="msg7"><polygon fill="#181818" points="45,356.084,35,360.084,45,364.084,41,360.084" style="stroke:#181818;stroke-width:1;stroke-linejoin:miter;stroke-miterlimit:10;"/><line style="stroke:#181818;stroke-width:1;stroke-dasharray:2,2;" x1="39" x2="167" y1="360.084" y2="360.084"/><text fill="#000000" font-family="sans-serif" font-size="11" lengthAdjust="spacing" textLength="77" x="62.5" y="355.7637">&#23637;&#31034;&#30693;&#35782;&#28857;&#22270;&#35889;</text></g><rect fill="#EEEEEE" height="3" style="stroke:#EEEEEE;stroke-width:1;" width="692.3071" x="0" y="412.5615"/><line style="stroke:#000000;stroke-width:1;" x1="0" x2="692.3071" y1="412.5615" y2="412.5615"/><line style="stroke:#000000;stroke-width:1;" x1="0" x2="692.3071" y1="415.5615" y2="415.5615"/><rect fill="#EEEEEE" height="20.9551" style="stroke:#000000;stroke-width:2;" width="83.6255" x="304.3408" y="403.084"/><text fill="#000000" font-family="sans-serif" font-size="11" font-weight="700" lengthAdjust="spacing" textLength="66" x="310.3408" y="417.7188">&#29983;&#25104;&#23398;&#20064;&#36335;&#24452;</text><g class="message" data-entity-1="part1" data-entity-2="part2" data-source-line="39" id="msg8"><polygon fill="#181818" points="156,461.9492,166,465.9492,156,469.9492,160,465.9492" style="stroke:#181818;stroke-width:1;stroke-linejoin:miter;stroke-miterlimit:10;"/><line style="stroke:#181818;stroke-width:1;" x1="34" x2="162" y1="465.9492" y2="465.9492"/><text fill="#000000" font-family="sans-serif" font-size="11" lengthAdjust="spacing" textLength="77" x="62.5" y="448.6738">&#36873;&#25321;&#30446;&#26631;&#30693;&#35782;&#28857;</text><text fill="#000000" font-family="sans-serif" font-size="11" lengthAdjust="spacing" textLength="96.2178" x="52.8911" y="461.6289">&#28857;&#20987;"&#29983;&#25104;&#23398;&#20064;&#36335;&#24452;"</text></g><g class="message" data-entity-1="part2" data-entity-2="part3" data-source-line="40" id="msg9"><polygon fill="#181818" points="380.1157,501.8594,390.1157,505.8594,380.1157,509.8594,384.1157,505.8594" style="stroke:#181818;stroke-width:1;stroke-linejoin:miter;stroke-miterlimit:10;"/><line style="stroke:#181818;stroke-width:1;" x1="178" x2="386.1157" y1="505.8594" y2="505.8594"/><text fill="#000000" font-family="sans-serif" font-size="11" lengthAdjust="spacing" textLength="195.1157" x="187.5" y="488.584">POST /student/study-path/generate</text><text fill="#000000" font-family="sans-serif" font-size="11" lengthAdjust="spacing" textLength="76.9731" x="246.5713" y="501.5391">{targetNodeId}</text></g><g class="message" data-entity-1="part3" data-entity-2="part3" data-source-line="43" id="msg10"><line style="stroke:#181818;stroke-width:1;" x1="402.1157" x2="444.1157" y1="545.7695" y2="545.7695"/><line style="stroke:#181818;stroke-width:1;" x1="444.1157" x2="444.1157" y1="545.7695" y2="558.7695"/><line style="stroke:#181818;stroke-width:1;" x1="403.1157" x2="444.1157" y1="558.7695" y2="558.7695"/><polygon fill="#181818" points="413.1157,554.7695,403.1157,558.7695,413.1157,562.7695,409.1157,558.7695" style="stroke:#181818;stroke-width:1;stroke-linejoin:miter;stroke-miterlimit:10;"/><text fill="#000000" font-family="sans-serif" font-size="11" lengthAdjust="spacing" textLength="66" x="424.3052" y="528.4941">&#25299;&#25169;&#25490;&#24207;&#31639;&#27861;</text><text fill="#000000" font-family="sans-serif" font-size="11" lengthAdjust="spacing" textLength="96.3789" x="409.1157" y="541.4492">(+) &#35745;&#31639;&#21069;&#32622;&#20381;&#36182;&#38142;</text></g><path d="M407,571.7695 L407,619.7695 L538,619.7695 L538,581.7695 L528,571.7695 L407,571.7695" fill="#FEFFDD" style="stroke:#181818;stroke-width:0.5;"/><path d="M528,571.7695 L528,581.7695 L538,581.7695 L528,571.7695" fill="#FEFFDD" style="stroke:#181818;stroke-width:0.5;"/><text fill="#000000" font-family="sans-serif" font-size="11" lengthAdjust="spacing" textLength="98.6294" x="413" y="587.4043">&#20174;&#30446;&#26631;&#33410;&#28857;&#21453;&#21521; BFS</text><text fill="#000000" font-family="sans-serif" font-size="11" lengthAdjust="spacing" textLength="110" x="413" y="600.3594">&#25910;&#38598;&#25152;&#26377;&#21069;&#32622;&#20381;&#36182;&#33410;&#28857;</text><text fill="#000000" font-family="sans-serif" font-size="11" lengthAdjust="spacing" textLength="66" x="413" y="613.3145">&#25353;&#25299;&#25169;&#24207;&#25490;&#21015;</text><g class="message" data-entity-1="part3" data-entity-2="part4" data-source-line="50" id="msg11"><polygon fill="#181818" points="624.5288,653.5449,634.5288,657.5449,624.5288,661.5449,628.5288,657.5449" style="stroke:#181818;stroke-width:1;stroke-linejoin:miter;stroke-miterlimit:10;"/><line style="stroke:#181818;stroke-width:1;" x1="402.1157" x2="630.5288" y1="657.5449" y2="657.5449"/><text fill="#000000" font-family="sans-serif" font-size="11" lengthAdjust="spacing" textLength="129.5078" x="454.5684" y="640.2695">INSERT INTO study_path</text><text fill="#000000" font-family="sans-serif" font-size="11" lengthAdjust="spacing" textLength="215.4131" x="411.6157" y="653.2246">(user_id, target_node_id, path_name, ...)</text></g><g class="message" data-entity-1="part4" data-entity-2="part3" data-source-line="52" id="msg12"><polygon fill="#181818" points="413.1157,680.5,403.1157,684.5,413.1157,688.5,409.1157,684.5" style="stroke:#181818;stroke-width:1;stroke-linejoin:miter;stroke-miterlimit:10;"/><line style="stroke:#181818;stroke-width:1;stroke-dasharray:2,2;" x1="407.1157" x2="640.5288" y1="684.5" y2="684.5"/><text fill="#000000" font-family="sans-serif" font-size="11" lengthAdjust="spacing" textLength="39.542" x="502.0513" y="680.1797">path_id</text></g><path d="M351.0313,699.5 L420.9478,699.5 L420.9478,704.4551 L410.9478,714.4551 L351.0313,714.4551 L351.0313,699.5" fill="#EEEEEE" style="stroke:#000000;stroke-width:1.5;"/><rect fill="none" height="81.8203" style="stroke:#000000;stroke-width:1.5;" width="321.2759" x="351.0313" y="699.5"/><text fill="#000000" font-family="sans-serif" font-size="11" font-weight="700" lengthAdjust="spacing" textLength="24.9165" x="366.0313" y="711.1348">loop</text><text fill="#000000" font-family="sans-serif" font-size="11" font-weight="700" lengthAdjust="spacing" textLength="74.1533" x="435.9478" y="712.1348">[&#27599;&#20010;&#36335;&#24452;&#33410;&#28857;]</text><g class="message" data-entity-1="part3" data-entity-2="part4" data-source-line="56" id="msg13"><polygon fill="#181818" points="624.5288,742.3652,634.5288,746.3652,624.5288,750.3652,628.5288,746.3652" style="stroke:#181818;stroke-width:1;stroke-linejoin:miter;stroke-miterlimit:10;"/><line style="stroke:#181818;stroke-width:1;" x1="402.1157" x2="630.5288" y1="746.3652" y2="746.3652"/><text fill="#000000" font-family="sans-serif" font-size="11" lengthAdjust="spacing" textLength="129.8892" x="454.3777" y="729.0898">INSERT INTO path_detail</text><text fill="#000000" font-family="sans-serif" font-size="11" lengthAdjust="spacing" textLength="158.1465" x="440.249" y="742.0449">(path_id, node_id, sort_order)</text></g><g class="message" data-entity-1="part4" data-entity-2="part3" data-source-line="58" id="msg14"><polygon fill="#181818" points="413.1157,769.3203,403.1157,773.3203,413.1157,777.3203,409.1157,773.3203" style="stroke:#181818;stroke-width:1;stroke-linejoin:miter;stroke-miterlimit:10;"/><line style="stroke:#181818;stroke-width:1;stroke-dasharray:2,2;" x1="407.1157" x2="640.5288" y1="773.3203" y2="773.3203"/><text fill="#000000" font-family="sans-serif" font-size="11" lengthAdjust="spacing" textLength="15.7266" x="513.959" y="769">OK</text></g><g class="message" data-entity-1="part3" data-entity-2="part2" data-source-line="62" id="msg15"><polygon fill="#181818" points="189,803.2754,179,807.2754,189,811.2754,185,807.2754" style="stroke:#181818;stroke-width:1;stroke-linejoin:miter;stroke-miterlimit:10;"/><line style="stroke:#181818;stroke-width:1;stroke-dasharray:2,2;" x1="183" x2="396.1157" y1="807.2754" y2="807.2754"/><text fill="#000000" font-family="sans-serif" font-size="11" lengthAdjust="spacing" textLength="178.3042" x="198.4058" y="802.9551">{pathId, nodes: [...], totalMinutes}</text></g><g class="message" data-entity-1="part2" data-entity-2="part1" data-source-line="65" id="msg16"><polygon fill="#181818" points="45,830.2305,35,834.2305,45,838.2305,41,834.2305" style="stroke:#181818;stroke-width:1;stroke-linejoin:miter;stroke-miterlimit:10;"/><line style="stroke:#181818;stroke-width:1;stroke-dasharray:2,2;" x1="39" x2="167" y1="834.2305" y2="834.2305"/><text fill="#000000" font-family="sans-serif" font-size="11" lengthAdjust="spacing" textLength="110" x="46" y="829.9102">&#23637;&#31034;&#23398;&#20064;&#36335;&#24452;&#33410;&#28857;&#21015;&#34920;</text></g><rect fill="#EEEEEE" height="3" style="stroke:#EEEEEE;stroke-width:1;" width="692.3071" x="0" y="886.708"/><line style="stroke:#000000;stroke-width:1;" x1="0" x2="692.3071" y1="886.708" y2="886.708"/><line style="stroke:#000000;stroke-width:1;" x1="0" x2="692.3071" y1="889.708" y2="889.708"/><rect fill="#EEEEEE" height="20.9551" style="stroke:#000000;stroke-width:2;" width="99.626" x="296.3406" y="877.2305"/><text fill="#000000" font-family="sans-serif" font-size="11" font-weight="700" lengthAdjust="spacing" textLength="82.0005" x="302.3406" y="891.8652">&#25353;&#24207;&#23398;&#20064; + &#32451;&#20064;</text><path d="M10,915.1855 L79.9165,915.1855 L79.9165,920.1406 L69.9165,930.1406 L10,930.1406 L10,915.1855" fill="#EEEEEE" style="stroke:#000000;stroke-width:1.5;"/><rect fill="none" height="539.9668" style="stroke:#000000;stroke-width:1.5;" width="672.3071" x="10" y="915.1855"/><text fill="#000000" font-family="sans-serif" font-size="11" font-weight="700" lengthAdjust="spacing" textLength="24.9165" x="25" y="926.8203">loop</text><text fill="#000000" font-family="sans-serif" font-size="11" font-weight="700" lengthAdjust="spacing" textLength="74.1533" x="94.9165" y="927.8203">[&#36880;&#20010;&#33410;&#28857;&#23398;&#20064;]</text><g class="message" data-entity-1="part1" data-entity-2="part2" data-source-line="72" id="msg17"><polygon fill="#181818" points="156,945.0957,166,949.0957,156,953.0957,160,949.0957" style="stroke:#181818;stroke-width:1;stroke-linejoin:miter;stroke-miterlimit:10;"/><line style="stroke:#181818;stroke-width:1;" x1="34" x2="162" y1="949.0957" y2="949.0957"/><text fill="#000000" font-family="sans-serif" font-size="11" lengthAdjust="spacing" textLength="77" x="62.5" y="944.7754">&#23398;&#20064;&#30693;&#35782;&#28857;&#20869;&#23481;</text></g><g class="message" data-entity-1="part2" data-entity-2="part2" data-source-line="73" id="msg18"><line style="stroke:#181818;stroke-width:1;" x1="178" x2="220" y1="976.0508" y2="976.0508"/><line style="stroke:#181818;stroke-width:1;" x1="220" x2="220" y1="976.0508" y2="989.0508"/><line style="stroke:#181818;stroke-width:1;" x1="179" x2="220" y1="989.0508" y2="989.0508"/><polygon fill="#181818" points="189,985.0508,179,989.0508,189,993.0508,185,989.0508" style="stroke:#181818;stroke-width:1;stroke-linejoin:miter;stroke-miterlimit:10;"/><text fill="#000000" font-family="sans-serif" font-size="11" lengthAdjust="spacing" textLength="77" x="185" y="971.7305">&#23637;&#31034;&#30693;&#35782;&#28857;&#35762;&#35299;</text></g><g class="message" data-entity-1="part1" data-entity-2="part2" data-source-line="74" id="msg19"><polygon fill="#181818" points="156,1012.0059,166,1016.0059,156,1020.0059,160,1016.0059" style="stroke:#181818;stroke-width:1;stroke-linejoin:miter;stroke-miterlimit:10;"/><line style="stroke:#181818;stroke-width:1;" x1="34" x2="162" y1="1016.0059" y2="1016.0059"/><text fill="#000000" font-family="sans-serif" font-size="11" lengthAdjust="spacing" textLength="66" x="68" y="1011.6855">&#23436;&#25104;&#37197;&#22871;&#32451;&#20064;</text></g><g class="message" data-entity-1="part2" data-entity-2="part3" data-source-line="75" id="msg20"><polygon fill="#181818" points="380.1157,1051.916,390.1157,1055.916,380.1157,1059.916,384.1157,1055.916" style="stroke:#181818;stroke-width:1;stroke-linejoin:miter;stroke-miterlimit:10;"/><line style="stroke:#181818;stroke-width:1;" x1="178" x2="386.1157" y1="1055.916" y2="1055.916"/><text fill="#000000" font-family="sans-serif" font-size="11" lengthAdjust="spacing" textLength="163.9634" x="203.0762" y="1038.6406">POST /student/submit-answer</text><text fill="#000000" font-family="sans-serif" font-size="11" lengthAdjust="spacing" textLength="132.7627" x="218.6765" y="1051.5957">{questionId, userAnswer}</text></g><g class="message" data-entity-1="part3" data-entity-2="part4" data-source-line="78" id="msg21"><polygon fill="#181818" points="624.5288,1091.8262,634.5288,1095.8262,624.5288,1099.8262,628.5288,1095.8262" style="stroke:#181818;stroke-width:1;stroke-linejoin:miter;stroke-miterlimit:10;"/><line style="stroke:#181818;stroke-width:1;" x1="402.1157" x2="630.5288" y1="1095.8262" y2="1095.8262"/><text fill="#000000" font-family="sans-serif" font-size="11" lengthAdjust="spacing" textLength="140.0137" x="449.3154" y="1078.5508">INSERT INTO study_record</text><text fill="#000000" font-family="sans-serif" font-size="11" lengthAdjust="spacing" textLength="112.4224" x="463.1111" y="1091.5059">(user_id, node_id, ...)</text></g><g class="message" data-entity-1="part4" data-entity-2="part3" data-source-line="80" id="msg22"><polygon fill="#181818" points="413.1157,1118.7813,403.1157,1122.7813,413.1157,1126.7813,409.1157,1122.7813" style="stroke:#181818;stroke-width:1;stroke-linejoin:miter;stroke-miterlimit:10;"/><line style="stroke:#181818;stroke-width:1;stroke-dasharray:2,2;" x1="407.1157" x2="640.5288" y1="1122.7813" y2="1122.7813"/><text fill="#000000" font-family="sans-serif" font-size="11" lengthAdjust="spacing" textLength="15.7266" x="513.959" y="1118.4609">OK</text></g><g class="message" data-entity-1="part3" data-entity-2="part3" data-source-line="83" id="msg23"><line style="stroke:#181818;stroke-width:1;" x1="402.1157" x2="444.1157" y1="1149.7363" y2="1149.7363"/><line style="stroke:#181818;stroke-width:1;" x1="444.1157" x2="444.1157" y1="1149.7363" y2="1162.7363"/><line style="stroke:#181818;stroke-width:1;" x1="403.1157" x2="444.1157" y1="1162.7363" y2="1162.7363"/><polygon fill="#181818" points="413.1157,1158.7363,403.1157,1162.7363,413.1157,1166.7363,409.1157,1162.7363" style="stroke:#181818;stroke-width:1;stroke-linejoin:miter;stroke-miterlimit:10;"/><text fill="#000000" font-family="sans-serif" font-size="11" lengthAdjust="spacing" textLength="55" x="409.1157" y="1145.416">&#35745;&#31639;&#27491;&#30830;&#29575;</text></g><path d="M133.1863,1177.7363 L192.6882,1177.7363 L192.6882,1182.6914 L182.6882,1192.6914 L133.1863,1192.6914 L133.1863,1177.7363" fill="#EEEEEE" style="stroke:#000000;stroke-width:1.5;"/><rect fill="none" height="243.4609" style="stroke:#000000;stroke-width:1.5;" width="539.1208" x="133.1863" y="1177.7363"/><text fill="#000000" font-family="sans-serif" font-size="11" font-weight="700" lengthAdjust="spacing" textLength="14.502" x="148.1863" y="1189.3711">alt</text><text fill="#000000" font-family="sans-serif" font-size="11" font-weight="700" lengthAdjust="spacing" textLength="114.0552" x="207.6882" y="1190.3711">[&#27491;&#30830;&#29575; &#8805; &#38408;&#20540; (80%)]</text><g class="message" data-entity-1="part3" data-entity-2="part4" data-source-line="86" id="msg24"><polygon fill="#181818" points="624.5288,1220.6016,634.5288,1224.6016,624.5288,1228.6016,628.5288,1224.6016" style="stroke:#181818;stroke-width:1;stroke-linejoin:miter;stroke-miterlimit:10;"/><line style="stroke:#181818;stroke-width:1;" x1="402.1157" x2="630.5288" y1="1224.6016" y2="1224.6016"/><text fill="#000000" font-family="sans-serif" font-size="11" lengthAdjust="spacing" textLength="115.0918" x="461.7764" y="1207.3262">UPDATE study_record</text><text fill="#000000" font-family="sans-serif" font-size="11" lengthAdjust="spacing" textLength="117.2349" x="460.7048" y="1220.2813">SET mastery_level = 2</text></g><g class="message" data-entity-1="part4" data-entity-2="part3" data-source-line="88" id="msg25"><polygon fill="#181818" points="413.1157,1247.5566,403.1157,1251.5566,413.1157,1255.5566,409.1157,1251.5566" style="stroke:#181818;stroke-width:1;stroke-linejoin:miter;stroke-miterlimit:10;"/><line style="stroke:#181818;stroke-width:1;stroke-dasharray:2,2;" x1="407.1157" x2="640.5288" y1="1251.5566" y2="1251.5566"/><text fill="#000000" font-family="sans-serif" font-size="11" lengthAdjust="spacing" textLength="15.7266" x="513.959" y="1247.2363">OK</text></g><g class="message" data-entity-1="part3" data-entity-2="part2" data-source-line="90" id="msg26"><polygon fill="#181818" points="189,1287.4668,179,1291.4668,189,1295.4668,185,1291.4668" style="stroke:#181818;stroke-width:1;stroke-linejoin:miter;stroke-miterlimit:10;"/><line style="stroke:#181818;stroke-width:1;stroke-dasharray:2,2;" x1="183" x2="391.1157" y1="1291.4668" y2="1291.4668"/><text fill="#000000" font-family="sans-serif" font-size="11" lengthAdjust="spacing" textLength="158.0122" x="206.0518" y="1274.1914">{correctRate, masteryLevel: 2}</text><text fill="#000000" font-family="sans-serif" font-size="11" lengthAdjust="spacing" textLength="103.3667" x="233.3745" y="1287.1465">&#36798;&#26631; &#10003; &#35299;&#38145;&#19979;&#19968;&#33410;&#28857;</text></g><line style="stroke:#000000;stroke-width:1;stroke-dasharray:2,2;" x1="133.1863" x2="672.3071" y1="1300.4668" y2="1300.4668"/><text fill="#000000" font-family="sans-serif" font-size="11" font-weight="700" lengthAdjust="spacing" textLength="79.1538" x="138.1863" y="1311.1016">[&#27491;&#30830;&#29575; &lt; &#38408;&#20540;]</text><g class="message" data-entity-1="part3" data-entity-2="part4" data-source-line="92" id="msg27"><polygon fill="#181818" points="624.5288,1342.332,634.5288,1346.332,624.5288,1350.332,628.5288,1346.332" style="stroke:#181818;stroke-width:1;stroke-linejoin:miter;stroke-miterlimit:10;"/><line style="stroke:#181818;stroke-width:1;" x1="402.1157" x2="630.5288" y1="1346.332" y2="1346.332"/><text fill="#000000" font-family="sans-serif" font-size="11" lengthAdjust="spacing" textLength="115.0918" x="461.7764" y="1329.0566">UPDATE study_record</text><text fill="#000000" font-family="sans-serif" font-size="11" lengthAdjust="spacing" textLength="117.2349" x="460.7048" y="1342.0117">SET mastery_level = 1</text></g><g class="message" data-entity-1="part4" data-entity-2="part3" data-source-line="94" id="msg28"><polygon fill="#181818" points="413.1157,1369.2871,403.1157,1373.2871,413.1157,1377.2871,409.1157,1373.2871" style="stroke:#181818;stroke-width:1;stroke-linejoin:miter;stroke-miterlimit:10;"/><line style="stroke:#181818;stroke-width:1;stroke-dasharray:2,2;" x1="407.1157" x2="640.5288" y1="1373.2871" y2="1373.2871"/><text fill="#000000" font-family="sans-serif" font-size="11" lengthAdjust="spacing" textLength="15.7266" x="513.959" y="1368.9668">OK</text></g><g class="message" data-entity-1="part3" data-entity-2="part2" data-source-line="96" id="msg29"><polygon fill="#181818" points="189,1409.1973,179,1413.1973,189,1417.1973,185,1413.1973" style="stroke:#181818;stroke-width:1;stroke-linejoin:miter;stroke-miterlimit:10;"/><line style="stroke:#181818;stroke-width:1;stroke-dasharray:2,2;" x1="183" x2="391.1157" y1="1413.1973" y2="1413.1973"/><text fill="#000000" font-family="sans-serif" font-size="11" lengthAdjust="spacing" textLength="158.0122" x="206.0518" y="1395.9219">{correctRate, masteryLevel: 1}</text><text fill="#000000" font-family="sans-serif" font-size="11" lengthAdjust="spacing" textLength="110" x="230.0579" y="1408.877">&#26410;&#36798;&#26631;&#65292;&#24314;&#35758;&#32487;&#32493;&#21047;&#39064;</text></g><g class="message" data-entity-1="part2" data-entity-2="part1" data-source-line="100" id="msg30"><polygon fill="#181818" points="45,1443.1523,35,1447.1523,45,1451.1523,41,1447.1523" style="stroke:#181818;stroke-width:1;stroke-linejoin:miter;stroke-miterlimit:10;"/><line style="stroke:#181818;stroke-width:1;stroke-dasharray:2,2;" x1="39" x2="167" y1="1447.1523" y2="1447.1523"/><text fill="#000000" font-family="sans-serif" font-size="11" lengthAdjust="spacing" textLength="110" x="46" y="1442.832">&#26174;&#31034;&#21028;&#20998;&#32467;&#26524;&#19982;&#25484;&#25569;&#24230;</text></g><?plantuml-src lLPTJzjc5BxthpZADBMiV8nUJMXC8YMPMFdeCDtDc28Jlqqjp6jclsd52b9e1qa613heG8EEfYqjOyAqdLXJmhB_mkAFNFKlxBnsI9p0BYQa9HUnVRwUyvpdlCubwBx0HxW4bVoHTRHiRPRW9BK6rlwByhidzk6iixk0Hlj9sahFmys1_lV7FrkPUTiy_3irAwciWwW6mKkhjEVa3l32JU-vhnuuQxiOTI54nhX29oLTce0nAJwUqBKabQzfggR31z48_mOyP79BIgeigb4cAjyHwEmC60toRPBGE1aWXY4bI8-g92Z42ML45mIcC9NmRfsrxM3F7WarIWH1YZEi7F8TGo0P80gOdYbnPLAY349V9J5DTidvxS2pHXkjugIkq4HOqzWejLPofrvXGPQOD2OP1483K-AN_TxJNa7exWRthqrhRiVPtd4FvX62--eryYa88hHz1b7eEiTUoHzM7Z_bK9Kx4YE8GOXoxp1wVnuPWGw39MNiksESQdTL8YT86zLaOjGZme8GvX6z6256-YFNHk0ZY0uF3K0j9CP3wX6zGY-qLMluM9pxxwpCkflV5MGISEE9gyYR_E0BSMWmw1okukQ-Tk6DlRrQZrZAEzaqDwDTHBlr-f7p_AXkzuWGXEdfQOz479QTMV47wxuzi4hVDv9OIMNjXL-TJHC5NaioIdccT35qDZfKP_J6a1YWbFzEjKrAx7P7Wb2YOn-Zz1wJz0HXWyXOdpnpbcQUnbvOjRCFxToFg3J7NBT_VpHABrzf0TVCuorNr9zckVJOFVofibeIg8RXkfAupK2xXNa0F-LYpc_0_U4-1xwyPAqyX71KzApssX-LpNaxcxAtii5ilhFlifZrKI043YIpBX0g0wyLq4FVe1WP7i6VaI7mketnRX5iqY1wJ95RmU_M4uXtp-qnAasGLcXlRsyvNpIUao8tYKNLj4cm3vRBXJsV-03SSn5vQMJ294L5IDMahL33OcWwYscwJFGMBqcW6B-juncwxZreW8Di1FLxZwVlgsOtkk1hxEuRR5zZaZgWq2GZninPFJS8DgYfwjZydQaf5uV2pnxF3ww0Ktp0BxXuFMuggHNEZH_gENcmQyBsdzNtOdxECdtwQglLj3gk-SPz-QmfYxc82r2PMx9srdq4zHJdx41oR49XRH8rxX8TrO_7hi4KZNAgk4XwFCDC8_z8phyErPUPJk8ukA3GQbFrPFMVnralo3tyHRFtdpbvqycbVIk-sQ3s24woEr3Po5YfOxZyoSSV-YKRKD-yqTip4ca2BEAPEo4P-9wPYgda3b6X6wxMOfiWdmlx3FH0uLCnOYqio8RHeVMqN3-lrWLNPqQfMohXqG0dMwk0uwsipPOB2-L2Ah1F_0qUQFRJQgiNQBBp_soo4vkqj_RyFjyVBrh58zSqdU9BfxXlPTvMdcxuNU8EDrMgIg--c_P6YUzcvZd-mt6Ag_OlM-L2piujsijvw-Y5Vmm4ugF2Fm00?></g></svg>