<svg xmlns="http://www.w3.org/2000/svg" width="1710" height="1512" viewBox="0 0 1710 1512">
<rect width="1710" height="1512" fill="#ffffff"/>
<line x1="171.5" y1="590.9" x2="53.5" y2="515.9" stroke="#aaa" stroke-width="1"/>
<line x1="171.5" y1="590.9" x2="53.5" y2="565.9" stroke="#aaa" stroke-width="1"/>
<line x1="171.5" y1="590.9" x2="53.5" y2="615.9" stroke="#aaa" stroke-width="1"/>
<line x1="171.5" y1="590.9" x2="53.5" y2="665.9" stroke="#aaa" stroke-width="1"/>
<rect x="121.5" y="567.9" width="100" height="46" rx="3" fill="white" stroke="#222" stroke-width="1.5"/>
<text x="171.5" y="591.9" text-anchor="middle" dominant-baseline="middle" fill="#111" font-size="17" font-family="Microsoft YaHei, PingFang SC, sans-serif" font-weight="normal">课程</text>
<ellipse cx="53.5" cy="515.9" rx="39.5" ry="21" fill="white" stroke="#222" stroke-width="1.5"/>
<text x="53.5" y="516.9" text-anchor="middle" dominant-baseline="middle" fill="#111" font-size="15" font-family="Microsoft YaHei, PingFang SC, sans-serif">课程ID</text>
<ellipse cx="53.5" cy="565.9" rx="45.5" ry="21" fill="white" stroke="#222" stroke-width="1.5"/>
<text x="53.5" y="566.9" text-anchor="middle" dominant-baseline="middle" fill="#111" font-size="15" font-family="Microsoft YaHei, PingFang SC, sans-serif">课程名称</text>
<ellipse cx="53.5" cy="615.9" rx="45.5" ry="21" fill="white" stroke="#222" stroke-width="1.5"/>
<text x="53.5" y="616.9" text-anchor="middle" dominant-baseline="middle" fill="#111" font-size="15" font-family="Microsoft YaHei, PingFang SC, sans-serif">所属学科</text>
<ellipse cx="53.5" cy="665.9" rx="45.5" ry="21" fill="white" stroke="#222" stroke-width="1.5"/>
<text x="53.5" y="666.9" text-anchor="middle" dominant-baseline="middle" fill="#111" font-size="15" font-family="Microsoft YaHei, PingFang SC, sans-serif">负责教师</text>
<line x1="626" y1="553" x2="600.1" y2="407.9" stroke="#aaa" stroke-width="1"/>
<line x1="626" y1="553" x2="561.7" y2="661.3" stroke="#aaa" stroke-width="1"/>
<line x1="626" y1="553" x2="709.3" y2="462.5" stroke="#aaa" stroke-width="1"/>
<line x1="626" y1="553" x2="773.7" y2="599.8" stroke="#aaa" stroke-width="1"/>
<rect x="576" y="530" width="100" height="46" rx="3" fill="white" stroke="#222" stroke-width="1.5"/>
<text x="626" y="554" text-anchor="middle" dominant-baseline="middle" fill="#111" font-size="17" font-family="Microsoft YaHei, PingFang SC, sans-serif" font-weight="normal">知识点</text>
<ellipse cx="600.1" cy="407.9" rx="47" ry="21" fill="white" stroke="#222" stroke-width="1.5"/>
<text x="600.1" y="408.9" text-anchor="middle" dominant-baseline="middle" fill="#111" font-size="15" font-family="Microsoft YaHei, PingFang SC, sans-serif">知识点ID</text>
<ellipse cx="561.7" cy="661.3" rx="53.5" ry="21" fill="white" stroke="#222" stroke-width="1.5"/>
<text x="561.7" y="662.3" text-anchor="middle" dominant-baseline="middle" fill="#111" font-size="15" font-family="Microsoft YaHei, PingFang SC, sans-serif">知识点名称</text>
<ellipse cx="709.3" cy="462.5" rx="38" ry="21" fill="white" stroke="#222" stroke-width="1.5"/>
<text x="709.3" y="463.5" text-anchor="middle" dominant-baseline="middle" fill="#111" font-size="15" font-family="Microsoft YaHei, PingFang SC, sans-serif">难度</text>
<ellipse cx="773.7" cy="599.8" rx="45.5" ry="21" fill="white" stroke="#222" stroke-width="1.5"/>
<text x="773.7" y="600.8" text-anchor="middle" dominant-baseline="middle" fill="#111" font-size="15" font-family="Microsoft YaHei, PingFang SC, sans-serif">所属章节</text>
<line x1="209.4" y1="382.9" x2="86.4" y2="307.9" stroke="#aaa" stroke-width="1"/>
<line x1="209.4" y1="382.9" x2="86.4" y2="357.9" stroke="#aaa" stroke-width="1"/>
<line x1="209.4" y1="382.9" x2="86.4" y2="407.9" stroke="#aaa" stroke-width="1"/>
<line x1="209.4" y1="382.9" x2="86.4" y2="457.9" stroke="#aaa" stroke-width="1"/>
<rect x="159.4" y="359.9" width="100" height="46" rx="3" fill="white" stroke="#222" stroke-width="1.5"/>
<text x="209.4" y="383.9" text-anchor="middle" dominant-baseline="middle" fill="#111" font-size="17" font-family="Microsoft YaHei, PingFang SC, sans-serif" font-weight="normal">依赖边</text>
<ellipse cx="86.4" cy="307.9" rx="38" ry="21" fill="white" stroke="#222" stroke-width="1.5"/>
<text x="86.4" y="308.9" text-anchor="middle" dominant-baseline="middle" fill="#111" font-size="15" font-family="Microsoft YaHei, PingFang SC, sans-serif">边ID</text>
<ellipse cx="86.4" cy="357.9" rx="53.5" ry="21" fill="white" stroke="#222" stroke-width="1.5"/>
<text x="86.4" y="358.9" text-anchor="middle" dominant-baseline="middle" fill="#111" font-size="15" font-family="Microsoft YaHei, PingFang SC, sans-serif">前置知识点</text>
<ellipse cx="86.4" cy="407.9" rx="53.5" ry="21" fill="white" stroke="#222" stroke-width="1.5"/>
<text x="86.4" y="408.9" text-anchor="middle" dominant-baseline="middle" fill="#111" font-size="15" font-family="Microsoft YaHei, PingFang SC, sans-serif">后继知识点</text>
<ellipse cx="86.4" cy="457.9" rx="45.5" ry="21" fill="white" stroke="#222" stroke-width="1.5"/>
<text x="86.4" y="458.9" text-anchor="middle" dominant-baseline="middle" fill="#111" font-size="15" font-family="Microsoft YaHei, PingFang SC, sans-serif">关系类型</text>
<line x1="1082" y1="553" x2="1193" y2="513" stroke="#aaa" stroke-width="1"/>
<line x1="1082" y1="553" x2="1190.3" y2="599.8" stroke="#aaa" stroke-width="1"/>
<line x1="1082" y1="553" x2="1128.8" y2="661.3" stroke="#aaa" stroke-width="1"/>
<line x1="1082" y1="553" x2="1042" y2="664" stroke="#aaa" stroke-width="1"/>
<rect x="1032" y="530" width="100" height="46" rx="3" fill="white" stroke="#222" stroke-width="1.5"/>
<text x="1082" y="554" text-anchor="middle" dominant-baseline="middle" fill="#111" font-size="17" font-family="Microsoft YaHei, PingFang SC, sans-serif" font-weight="normal">习题</text>
<ellipse cx="1193" cy="513" rx="39.5" ry="21" fill="white" stroke="#222" stroke-width="1.5"/>
<text x="1193" y="514" text-anchor="middle" dominant-baseline="middle" fill="#111" font-size="15" font-family="Microsoft YaHei, PingFang SC, sans-serif">题目ID</text>
<ellipse cx="1190.3" cy="599.8" rx="38" ry="21" fill="white" stroke="#222" stroke-width="1.5"/>
<text x="1190.3" y="600.8" text-anchor="middle" dominant-baseline="middle" fill="#111" font-size="15" font-family="Microsoft YaHei, PingFang SC, sans-serif">题干</text>
<ellipse cx="1128.8" cy="661.3" rx="38" ry="21" fill="white" stroke="#222" stroke-width="1.5"/>
<text x="1128.8" y="662.3" text-anchor="middle" dominant-baseline="middle" fill="#111" font-size="15" font-family="Microsoft YaHei, PingFang SC, sans-serif">难度</text>
<ellipse cx="1042" cy="664" rx="38" ry="21" fill="white" stroke="#222" stroke-width="1.5"/>
<text x="1042" y="665" text-anchor="middle" dominant-baseline="middle" fill="#111" font-size="15" font-family="Microsoft YaHei, PingFang SC, sans-serif">题型</text>
<line x1="349.3" y1="230.3" x2="231.3" y2="155.3" stroke="#aaa" stroke-width="1"/>
<line x1="349.3" y1="230.3" x2="231.3" y2="205.3" stroke="#aaa" stroke-width="1"/>
<line x1="349.3" y1="230.3" x2="231.3" y2="255.3" stroke="#aaa" stroke-width="1"/>
<line x1="349.3" y1="230.3" x2="231.3" y2="305.3" stroke="#aaa" stroke-width="1"/>
<rect x="299.3" y="207.3" width="100" height="46" rx="3" fill="white" stroke="#222" stroke-width="1.5"/>
<text x="349.3" y="231.3" text-anchor="middle" dominant-baseline="middle" fill="#111" font-size="17" font-family="Microsoft YaHei, PingFang SC, sans-serif" font-weight="normal">学习记录</text>
<ellipse cx="231.3" cy="155.3" rx="39.5" ry="21" fill="white" stroke="#222" stroke-width="1.5"/>
<text x="231.3" y="156.3" text-anchor="middle" dominant-baseline="middle" fill="#111" font-size="15" font-family="Microsoft YaHei, PingFang SC, sans-serif">记录ID</text>
<ellipse cx="231.3" cy="205.3" rx="39.5" ry="21" fill="white" stroke="#222" stroke-width="1.5"/>
<text x="231.3" y="206.3" text-anchor="middle" dominant-baseline="middle" fill="#111" font-size="15" font-family="Microsoft YaHei, PingFang SC, sans-serif">学生ID</text>
<ellipse cx="231.3" cy="255.3" rx="38" ry="21" fill="white" stroke="#222" stroke-width="1.5"/>
<text x="231.3" y="256.3" text-anchor="middle" dominant-baseline="middle" fill="#111" font-size="15" font-family="Microsoft YaHei, PingFang SC, sans-serif">掌握度</text>
<ellipse cx="231.3" cy="305.3" rx="38" ry="21" fill="white" stroke="#222" stroke-width="1.5"/>
<text x="231.3" y="306.3" text-anchor="middle" dominant-baseline="middle" fill="#111" font-size="15" font-family="Microsoft YaHei, PingFang SC, sans-serif">正确率</text>
<line x1="1538" y1="553" x2="1656" y2="478" stroke="#aaa" stroke-width="1"/>
<line x1="1538" y1="553" x2="1656" y2="528" stroke="#aaa" stroke-width="1"/>
<line x1="1538" y1="553" x2="1656" y2="578" stroke="#aaa" stroke-width="1"/>
<line x1="1538" y1="553" x2="1656" y2="628" stroke="#aaa" stroke-width="1"/>
<rect x="1488" y="530" width="100" height="46" rx="3" fill="white" stroke="#222" stroke-width="1.5"/>
<text x="1538" y="554" text-anchor="middle" dominant-baseline="middle" fill="#111" font-size="17" font-family="Microsoft YaHei, PingFang SC, sans-serif" font-weight="normal">学习路径</text>
<ellipse cx="1656" cy="478" rx="39.5" ry="21" fill="white" stroke="#222" stroke-width="1.5"/>
<text x="1656" y="479" text-anchor="middle" dominant-baseline="middle" fill="#111" font-size="15" font-family="Microsoft YaHei, PingFang SC, sans-serif">路径ID</text>
<ellipse cx="1656" cy="528" rx="39.5" ry="21" fill="white" stroke="#222" stroke-width="1.5"/>
<text x="1656" y="529" text-anchor="middle" dominant-baseline="middle" fill="#111" font-size="15" font-family="Microsoft YaHei, PingFang SC, sans-serif">学生ID</text>
<ellipse cx="1656" cy="578" rx="45.5" ry="21" fill="white" stroke="#222" stroke-width="1.5"/>
<text x="1656" y="579" text-anchor="middle" dominant-baseline="middle" fill="#111" font-size="15" font-family="Microsoft YaHei, PingFang SC, sans-serif">路径名称</text>
<ellipse cx="1656" cy="628" rx="38" ry="21" fill="white" stroke="#222" stroke-width="1.5"/>
<text x="1656" y="629" text-anchor="middle" dominant-baseline="middle" fill="#111" font-size="15" font-family="Microsoft YaHei, PingFang SC, sans-serif">状态</text>
<line x1="626" y1="959" x2="658.6" y2="1072.4" stroke="#aaa" stroke-width="1"/>
<line x1="626" y1="959" x2="561.7" y2="1058" stroke="#aaa" stroke-width="1"/>
<line x1="626" y1="959" x2="509.1" y2="975.3" stroke="#aaa" stroke-width="1"/>
<rect x="576" y="936" width="100" height="46" rx="3" fill="white" stroke="#222" stroke-width="1.5"/>
<text x="626" y="960" text-anchor="middle" dominant-baseline="middle" fill="#111" font-size="17" font-family="Microsoft YaHei, PingFang SC, sans-serif" font-weight="normal">路径详情</text>
<ellipse cx="658.6" cy="1072.4" rx="39.5" ry="21" fill="white" stroke="#222" stroke-width="1.5"/>
<text x="658.6" y="1073.4" text-anchor="middle" dominant-baseline="middle" fill="#111" font-size="15" font-family="Microsoft YaHei, PingFang SC, sans-serif">详情ID</text>
<ellipse cx="561.7" cy="1058" rx="45.5" ry="21" fill="white" stroke="#222" stroke-width="1.5"/>
<text x="561.7" y="1059" text-anchor="middle" dominant-baseline="middle" fill="#111" font-size="15" font-family="Microsoft YaHei, PingFang SC, sans-serif">学习顺序</text>
<ellipse cx="509.1" cy="975.3" rx="45.5" ry="21" fill="white" stroke="#222" stroke-width="1.5"/>
<text x="509.1" y="976.3" text-anchor="middle" dominant-baseline="middle" fill="#111" font-size="15" font-family="Microsoft YaHei, PingFang SC, sans-serif">是否完成</text>
<line x1="1082" y1="147" x2="983" y2="29" stroke="#aaa" stroke-width="1"/>
<line x1="1082" y1="147" x2="1082" y2="29" stroke="#aaa" stroke-width="1"/>
<line x1="1082" y1="147" x2="1181" y2="29" stroke="#aaa" stroke-width="1"/>
<rect x="1032" y="124" width="100" height="46" rx="3" fill="white" stroke="#222" stroke-width="1.5"/>
<text x="1082" y="148" text-anchor="middle" dominant-baseline="middle" fill="#111" font-size="17" font-family="Microsoft YaHei, PingFang SC, sans-serif" font-weight="normal">错题</text>
<ellipse cx="983" cy="29" rx="39.5" ry="21" fill="white" stroke="#222" stroke-width="1.5"/>
<text x="983" y="30" text-anchor="middle" dominant-baseline="middle" fill="#111" font-size="15" font-family="Microsoft YaHei, PingFang SC, sans-serif">错题ID</text>
<ellipse cx="1082" cy="29" rx="39.5" ry="21" fill="white" stroke="#222" stroke-width="1.5"/>
<text x="1082" y="30" text-anchor="middle" dominant-baseline="middle" fill="#111" font-size="15" font-family="Microsoft YaHei, PingFang SC, sans-serif">学生ID</text>
<ellipse cx="1181" cy="29" rx="45.5" ry="21" fill="white" stroke="#222" stroke-width="1.5"/>
<text x="1181" y="30" text-anchor="middle" dominant-baseline="middle" fill="#111" font-size="15" font-family="Microsoft YaHei, PingFang SC, sans-serif">错误次数</text>
<line x1="1082" y1="1365" x2="933.5" y2="1483" stroke="#aaa" stroke-width="1"/>
<line x1="1082" y1="1365" x2="1032.5" y2="1483" stroke="#aaa" stroke-width="1"/>
<line x1="1082" y1="1365" x2="1131.5" y2="1483" stroke="#aaa" stroke-width="1"/>
<line x1="1082" y1="1365" x2="1230.5" y2="1483" stroke="#aaa" stroke-width="1"/>
<rect x="1032" y="1342" width="100" height="46" rx="3" fill="white" stroke="#222" stroke-width="1.5"/>
<text x="1082" y="1366" text-anchor="middle" dominant-baseline="middle" fill="#111" font-size="17" font-family="Microsoft YaHei, PingFang SC, sans-serif" font-weight="normal">跨学科主题</text>
<ellipse cx="933.5" cy="1483" rx="39.5" ry="21" fill="white" stroke="#222" stroke-width="1.5"/>
<text x="933.5" y="1484" text-anchor="middle" dominant-baseline="middle" fill="#111" font-size="15" font-family="Microsoft YaHei, PingFang SC, sans-serif">主题ID</text>
<ellipse cx="1032.5" cy="1483" rx="45.5" ry="21" fill="white" stroke="#222" stroke-width="1.5"/>
<text x="1032.5" y="1484" text-anchor="middle" dominant-baseline="middle" fill="#111" font-size="15" font-family="Microsoft YaHei, PingFang SC, sans-serif">主题名称</text>
<ellipse cx="1131.5" cy="1483" rx="38" ry="21" fill="white" stroke="#222" stroke-width="1.5"/>
<text x="1131.5" y="1484" text-anchor="middle" dominant-baseline="middle" fill="#111" font-size="15" font-family="Microsoft YaHei, PingFang SC, sans-serif">难度</text>
<ellipse cx="1230.5" cy="1483" rx="45.5" ry="21" fill="white" stroke="#222" stroke-width="1.5"/>
<text x="1230.5" y="1484" text-anchor="middle" dominant-baseline="middle" fill="#111" font-size="15" font-family="Microsoft YaHei, PingFang SC, sans-serif">发布教师</text>
<line x1="1082" y1="959" x2="1189.7" y2="910.7" stroke="#aaa" stroke-width="1"/>
<rect x="1032" y="936" width="100" height="46" rx="3" fill="white" stroke="#222" stroke-width="1.5"/>
<text x="1082" y="960" text-anchor="middle" dominant-baseline="middle" fill="#111" font-size="17" font-family="Microsoft YaHei, PingFang SC, sans-serif" font-weight="normal">主题知识点</text>
<ellipse cx="1189.7" cy="910.7" rx="39.5" ry="21" fill="white" stroke="#222" stroke-width="1.5"/>
<text x="1189.7" y="911.7" text-anchor="middle" dominant-baseline="middle" fill="#111" font-size="15" font-family="Microsoft YaHei, PingFang SC, sans-serif">关联ID</text>
<line x1="221.5" y1="586.7" x2="364" y2="574.8" stroke="#333" stroke-width="1.5"/>
<line x1="433.5" y1="569.1" x2="576" y2="557.2" stroke="#333" stroke-width="1.5"/>
<polygon points="398.7,549.9 438.7,571.9 398.7,593.9 358.7,571.9" fill="white" stroke="#222" stroke-width="1.5"/>
<text x="398.7" y="572.9" text-anchor="middle" dominant-baseline="middle" fill="#111" font-size="16" font-family="Microsoft YaHei, PingFang SC, sans-serif">包含</text>
<text x="293.8" y="584.7" text-anchor="middle" fill="#000" font-size="18" font-family="Microsoft YaHei, PingFang SC, sans-serif">1</text>
<text x="503.7" y="543.2" text-anchor="middle" fill="#000" font-size="18" font-family="Microsoft YaHei, PingFang SC, sans-serif">n</text>
<line x1="576" y1="532.6" x2="440.7" y2="477.3" stroke="#333" stroke-width="1.5"/>
<line x1="394.7" y1="458.6" x2="259.4" y2="403.3" stroke="#333" stroke-width="1.5"/>
<polygon points="417.7,445.9 457.7,467.9 417.7,489.9 377.7,467.9" fill="white" stroke="#222" stroke-width="1.5"/>
<text x="417.7" y="468.9" text-anchor="middle" dominant-baseline="middle" fill="#111" font-size="16" font-family="Microsoft YaHei, PingFang SC, sans-serif">前置</text>
<text x="512.9" y="485.8" text-anchor="middle" fill="#000" font-size="18" font-family="Microsoft YaHei, PingFang SC, sans-serif">1</text>
<text x="322.5" y="434.1" text-anchor="middle" fill="#000" font-size="18" font-family="Microsoft YaHei, PingFang SC, sans-serif">n</text>
<line x1="676" y1="553" x2="814" y2="553" stroke="#333" stroke-width="1.5"/>
<line x1="894" y1="553" x2="1032" y2="553" stroke="#333" stroke-width="1.5"/>
<polygon points="854,531 894,553 854,575 814,553" fill="white" stroke="#222" stroke-width="1.5"/>
<text x="854" y="554" text-anchor="middle" dominant-baseline="middle" fill="#111" font-size="16" font-family="Microsoft YaHei, PingFang SC, sans-serif">关联</text>
<text x="745" y="557" text-anchor="middle" fill="#000" font-size="18" font-family="Microsoft YaHei, PingFang SC, sans-serif">1</text>
<text x="963" y="533" text-anchor="middle" fill="#000" font-size="18" font-family="Microsoft YaHei, PingFang SC, sans-serif">n</text>
<line x1="606.3" y1="530" x2="500.5" y2="406.6" stroke="#333" stroke-width="1.5"/>
<line x1="474.8" y1="376.7" x2="369" y2="253.3" stroke="#333" stroke-width="1.5"/>
<polygon points="487.7,369.6 527.7,391.6 487.7,413.6 447.7,391.6" fill="white" stroke="#222" stroke-width="1.5"/>
<text x="487.7" y="392.6" text-anchor="middle" dominant-baseline="middle" fill="#111" font-size="16" font-family="Microsoft YaHei, PingFang SC, sans-serif">学习</text>
<text x="550.6" y="475.5" text-anchor="middle" fill="#000" font-size="18" font-family="Microsoft YaHei, PingFang SC, sans-serif">1</text>
<text x="412.8" y="314.8" text-anchor="middle" fill="#000" font-size="18" font-family="Microsoft YaHei, PingFang SC, sans-serif">n</text>
<line x1="676" y1="545.8" x2="1050.3" y2="491.6" stroke="#333" stroke-width="1.5"/>
<line x1="1113.7" y1="491.6" x2="1488" y2="545.8" stroke="#333" stroke-width="1.5"/>
<polygon points="1082,465 1122,487 1082,509 1042,487" fill="white" stroke="#222" stroke-width="1.5"/>
<text x="1082" y="488" text-anchor="middle" dominant-baseline="middle" fill="#111" font-size="16" font-family="Microsoft YaHei, PingFang SC, sans-serif">目标</text>
<text x="861.4" y="498.8" text-anchor="middle" fill="#000" font-size="18" font-family="Microsoft YaHei, PingFang SC, sans-serif">1</text>
<text x="1302.6" y="498.8" text-anchor="middle" fill="#000" font-size="18" font-family="Microsoft YaHei, PingFang SC, sans-serif">n</text>
<line x1="626" y1="576" x2="626" y2="734" stroke="#333" stroke-width="1.5"/>
<line x1="626" y1="778" x2="626" y2="936" stroke="#333" stroke-width="1.5"/>
<polygon points="626,734 666,756 626,778 586,756" fill="white" stroke="#222" stroke-width="1.5"/>
<text x="626" y="757" text-anchor="middle" dominant-baseline="middle" fill="#111" font-size="16" font-family="Microsoft YaHei, PingFang SC, sans-serif">包含</text>
<text x="614" y="647" text-anchor="middle" fill="#000" font-size="18" font-family="Microsoft YaHei, PingFang SC, sans-serif">1</text>
<text x="638" y="849" text-anchor="middle" fill="#000" font-size="18" font-family="Microsoft YaHei, PingFang SC, sans-serif">n</text>
<line x1="1488" y1="575.3" x2="1104.1" y2="746.2" stroke="#333" stroke-width="1.5"/>
<line x1="1059.9" y1="765.8" x2="676" y2="936.7" stroke="#333" stroke-width="1.5"/>
<polygon points="1082,734 1122,756 1082,778 1042,756" fill="white" stroke="#222" stroke-width="1.5"/>
<text x="1082" y="757" text-anchor="middle" dominant-baseline="middle" fill="#111" font-size="16" font-family="Microsoft YaHei, PingFang SC, sans-serif">组成</text>
<text x="1291.2" y="641.7" text-anchor="middle" fill="#000" font-size="18" font-family="Microsoft YaHei, PingFang SC, sans-serif">1</text>
<text x="872.8" y="854.3" text-anchor="middle" fill="#000" font-size="18" font-family="Microsoft YaHei, PingFang SC, sans-serif">n</text>
<line x1="1082" y1="530" x2="1082" y2="372" stroke="#333" stroke-width="1.5"/>
<line x1="1082" y1="328" x2="1082" y2="170" stroke="#333" stroke-width="1.5"/>
<polygon points="1082,328 1122,350 1082,372 1042,350" fill="white" stroke="#222" stroke-width="1.5"/>
<text x="1082" y="351" text-anchor="middle" dominant-baseline="middle" fill="#111" font-size="16" font-family="Microsoft YaHei, PingFang SC, sans-serif">记录</text>
<text x="1094" y="443" text-anchor="middle" fill="#000" font-size="18" font-family="Microsoft YaHei, PingFang SC, sans-serif">1</text>
<text x="1070" y="241" text-anchor="middle" fill="#000" font-size="18" font-family="Microsoft YaHei, PingFang SC, sans-serif">n</text>
<line x1="1082" y1="1342" x2="1082" y2="1184" stroke="#333" stroke-width="1.5"/>
<line x1="1082" y1="1140" x2="1082" y2="982" stroke="#333" stroke-width="1.5"/>
<polygon points="1082,1140 1122,1162 1082,1184 1042,1162" fill="white" stroke="#222" stroke-width="1.5"/>
<text x="1082" y="1163" text-anchor="middle" dominant-baseline="middle" fill="#111" font-size="16" font-family="Microsoft YaHei, PingFang SC, sans-serif">关联</text>
<text x="1094" y="1255" text-anchor="middle" fill="#000" font-size="18" font-family="Microsoft YaHei, PingFang SC, sans-serif">1</text>
<text x="1070" y="1053" text-anchor="middle" fill="#000" font-size="18" font-family="Microsoft YaHei, PingFang SC, sans-serif">n</text>
<line x1="651.8" y1="576" x2="838.7" y2="742.4" stroke="#333" stroke-width="1.5"/>
<line x1="869.3" y1="769.6" x2="1056.2" y2="936" stroke="#333" stroke-width="1.5"/>
<polygon points="854,734 894,756 854,778 814,756" fill="white" stroke="#222" stroke-width="1.5"/>
<text x="854" y="757" text-anchor="middle" dominant-baseline="middle" fill="#111" font-size="16" font-family="Microsoft YaHei, PingFang SC, sans-serif">关联</text>
<text x="737.3" y="660.2" text-anchor="middle" fill="#000" font-size="18" font-family="Microsoft YaHei, PingFang SC, sans-serif">1</text>
<text x="970.7" y="835.8" text-anchor="middle" fill="#000" font-size="18" font-family="Microsoft YaHei, PingFang SC, sans-serif">n</text>
</svg>