<svg xmlns="http://www.w3.org/2000/svg" width="1215" height="1086" viewBox="0 0 1215 1086">
<rect width="1215" height="1086" fill="#ffffff"/>
<line x1="171.5" y1="147" x2="53.5" y2="72" stroke="#aaa" stroke-width="1"/>
<line x1="171.5" y1="147" x2="53.5" y2="122" stroke="#aaa" stroke-width="1"/>
<line x1="171.5" y1="147" x2="53.5" y2="172" stroke="#aaa" stroke-width="1"/>
<line x1="171.5" y1="147" x2="53.5" y2="222" stroke="#aaa" stroke-width="1"/>
<rect x="121.5" y="124" width="100" height="46" rx="3" fill="white" stroke="#222" stroke-width="1.5"/>
<text x="171.5" y="148" text-anchor="middle" dominant-baseline="middle" fill="#111" font-size="17" font-family="Microsoft YaHei, PingFang SC, sans-serif" font-weight="normal">测评</text>
<ellipse cx="53.5" cy="72" rx="39.5" ry="21" fill="white" stroke="#222" stroke-width="1.5"/>
<text x="53.5" y="73" text-anchor="middle" dominant-baseline="middle" fill="#111" font-size="15" font-family="Microsoft YaHei, PingFang SC, sans-serif">测评ID</text>
<ellipse cx="53.5" cy="122" rx="45.5" ry="21" fill="white" stroke="#222" stroke-width="1.5"/>
<text x="53.5" y="123" text-anchor="middle" dominant-baseline="middle" fill="#111" font-size="15" font-family="Microsoft YaHei, PingFang SC, sans-serif">测评名称</text>
<ellipse cx="53.5" cy="172" rx="45.5" ry="21" fill="white" stroke="#222" stroke-width="1.5"/>
<text x="53.5" y="173" text-anchor="middle" dominant-baseline="middle" fill="#111" font-size="15" font-family="Microsoft YaHei, PingFang SC, sans-serif">试卷总分</text>
<ellipse cx="53.5" cy="222" rx="38" ry="21" fill="white" stroke="#222" stroke-width="1.5"/>
<text x="53.5" y="223" text-anchor="middle" dominant-baseline="middle" fill="#111" font-size="15" font-family="Microsoft YaHei, PingFang SC, sans-serif">状态</text>
<line x1="1043.5" y1="147" x2="1161.5" y2="122" stroke="#aaa" stroke-width="1"/>
<line x1="1043.5" y1="147" x2="1161.5" y2="172" stroke="#aaa" stroke-width="1"/>
<rect x="993.5" y="124" width="100" height="46" rx="3" fill="white" stroke="#222" stroke-width="1.5"/>
<text x="1043.5" y="148" text-anchor="middle" dominant-baseline="middle" fill="#111" font-size="17" font-family="Microsoft YaHei, PingFang SC, sans-serif" font-weight="normal">课程</text>
<ellipse cx="1161.5" cy="122" rx="39.5" ry="21" fill="white" stroke="#222" stroke-width="1.5"/>
<text x="1161.5" y="123" text-anchor="middle" dominant-baseline="middle" fill="#111" font-size="15" font-family="Microsoft YaHei, PingFang SC, sans-serif">课程ID</text>
<ellipse cx="1161.5" cy="172" rx="45.5" ry="21" fill="white" stroke="#222" stroke-width="1.5"/>
<text x="1161.5" y="173" text-anchor="middle" dominant-baseline="middle" fill="#111" font-size="15" font-family="Microsoft YaHei, PingFang SC, sans-serif">课程名称</text>
<line x1="171.5" y1="543" x2="53.5" y2="518" stroke="#aaa" stroke-width="1"/>
<line x1="171.5" y1="543" x2="53.5" y2="568" stroke="#aaa" stroke-width="1"/>
<rect x="121.5" y="520" width="100" height="46" rx="3" fill="white" stroke="#222" stroke-width="1.5"/>
<text x="171.5" y="544" text-anchor="middle" dominant-baseline="middle" fill="#111" font-size="17" font-family="Microsoft YaHei, PingFang SC, sans-serif" font-weight="normal">用户</text>
<ellipse cx="53.5" cy="518" rx="39.5" ry="21" fill="white" stroke="#222" stroke-width="1.5"/>
<text x="53.5" y="519" text-anchor="middle" dominant-baseline="middle" fill="#111" font-size="15" font-family="Microsoft YaHei, PingFang SC, sans-serif">用户ID</text>
<ellipse cx="53.5" cy="568" rx="38" ry="21" fill="white" stroke="#222" stroke-width="1.5"/>
<text x="53.5" y="569" text-anchor="middle" dominant-baseline="middle" fill="#111" font-size="15" font-family="Microsoft YaHei, PingFang SC, sans-serif">用户名</text>
<line x1="607.5" y1="939" x2="558" y2="1057" stroke="#aaa" stroke-width="1"/>
<line x1="607.5" y1="939" x2="657" y2="1057" stroke="#aaa" stroke-width="1"/>
<rect x="557.5" y="916" width="100" height="46" rx="3" fill="white" stroke="#222" stroke-width="1.5"/>
<text x="607.5" y="940" text-anchor="middle" dominant-baseline="middle" fill="#111" font-size="17" font-family="Microsoft YaHei, PingFang SC, sans-serif" font-weight="normal">题目</text>
<ellipse cx="558" cy="1057" rx="39.5" ry="21" fill="white" stroke="#222" stroke-width="1.5"/>
<text x="558" y="1058" text-anchor="middle" dominant-baseline="middle" fill="#111" font-size="15" font-family="Microsoft YaHei, PingFang SC, sans-serif">题目ID</text>
<ellipse cx="657" cy="1057" rx="45.5" ry="21" fill="white" stroke="#222" stroke-width="1.5"/>
<text x="657" y="1058" text-anchor="middle" dominant-baseline="middle" fill="#111" font-size="15" font-family="Microsoft YaHei, PingFang SC, sans-serif">题目内容</text>
<line x1="607.5" y1="147" x2="518.4" y2="69.6" stroke="#aaa" stroke-width="1"/>
<line x1="607.5" y1="147" x2="607.5" y2="29" stroke="#aaa" stroke-width="1"/>
<line x1="607.5" y1="147" x2="696.6" y2="69.6" stroke="#aaa" stroke-width="1"/>
<rect x="557.5" y="124" width="100" height="46" rx="3" fill="white" stroke="#222" stroke-width="1.5"/>
<text x="607.5" y="148" text-anchor="middle" dominant-baseline="middle" fill="#111" font-size="17" font-family="Microsoft YaHei, PingFang SC, sans-serif" font-weight="normal">测评记录</text>
<ellipse cx="518.4" cy="69.6" rx="39.5" ry="21" fill="white" stroke="#222" stroke-width="1.5"/>
<text x="518.4" y="70.6" text-anchor="middle" dominant-baseline="middle" fill="#111" font-size="15" font-family="Microsoft YaHei, PingFang SC, sans-serif">记录ID</text>
<ellipse cx="607.5" cy="29" rx="45.5" ry="21" fill="white" stroke="#222" stroke-width="1.5"/>
<text x="607.5" y="30" text-anchor="middle" dominant-baseline="middle" fill="#111" font-size="15" font-family="Microsoft YaHei, PingFang SC, sans-serif">学生得分</text>
<ellipse cx="696.6" cy="69.6" rx="45.5" ry="21" fill="white" stroke="#222" stroke-width="1.5"/>
<text x="696.6" y="70.6" text-anchor="middle" dominant-baseline="middle" fill="#111" font-size="15" font-family="Microsoft YaHei, PingFang SC, sans-serif">完成时间</text>
<line x1="607.5" y1="543" x2="685.8" y2="454.8" stroke="#aaa" stroke-width="1"/>
<line x1="607.5" y1="543" x2="725.5" y2="544.3" stroke="#aaa" stroke-width="1"/>
<rect x="557.5" y="520" width="100" height="46" rx="3" fill="white" stroke="#222" stroke-width="1.5"/>
<text x="607.5" y="544" text-anchor="middle" dominant-baseline="middle" fill="#111" font-size="17" font-family="Microsoft YaHei, PingFang SC, sans-serif" font-weight="normal">测评题目</text>
<ellipse cx="685.8" cy="454.8" rx="39.5" ry="21" fill="white" stroke="#222" stroke-width="1.5"/>
<text x="685.8" y="455.8" text-anchor="middle" dominant-baseline="middle" fill="#111" font-size="15" font-family="Microsoft YaHei, PingFang SC, sans-serif">关联ID</text>
<ellipse cx="725.5" cy="544.3" rx="45.5" ry="21" fill="white" stroke="#222" stroke-width="1.5"/>
<text x="725.5" y="545.3" text-anchor="middle" dominant-baseline="middle" fill="#111" font-size="15" font-family="Microsoft YaHei, PingFang SC, sans-serif">题目顺序</text>
<line x1="221.5" y1="154.6" x2="576.1" y2="208.3" stroke="#333" stroke-width="1.5"/>
<line x1="638.9" y1="208.3" x2="993.5" y2="154.6" stroke="#333" stroke-width="1.5"/>
<polygon points="607.5,191 647.5,213 607.5,235 567.5,213" fill="white" stroke="#222" stroke-width="1.5"/>
<text x="607.5" y="214" text-anchor="middle" dominant-baseline="middle" fill="#111" font-size="16" font-family="Microsoft YaHei, PingFang SC, sans-serif">属于</text>
<text x="397" y="185.3" text-anchor="middle" fill="#000" font-size="18" font-family="Microsoft YaHei, PingFang SC, sans-serif">n</text>
<text x="818" y="185.3" text-anchor="middle" fill="#000" font-size="18" font-family="Microsoft YaHei, PingFang SC, sans-serif">1</text>
<line x1="171.5" y1="170" x2="171.5" y2="323" stroke="#333" stroke-width="1.5"/>
<line x1="171.5" y1="367" x2="171.5" y2="520" stroke="#333" stroke-width="1.5"/>
<polygon points="171.5,323 211.5,345 171.5,367 131.5,345" fill="white" stroke="#222" stroke-width="1.5"/>
<text x="171.5" y="346" text-anchor="middle" dominant-baseline="middle" fill="#111" font-size="16" font-family="Microsoft YaHei, PingFang SC, sans-serif">发布</text>
<text x="159.5" y="238.5" text-anchor="middle" fill="#000" font-size="18" font-family="Microsoft YaHei, PingFang SC, sans-serif">n</text>
<text x="183.5" y="435.5" text-anchor="middle" fill="#000" font-size="18" font-family="Microsoft YaHei, PingFang SC, sans-serif">1</text>
<line x1="557.5" y1="522.5" x2="389.7" y2="453.8" stroke="#333" stroke-width="1.5"/>
<line x1="356.2" y1="428.3" x2="186.6" y2="170" stroke="#333" stroke-width="1.5"/>
<polygon points="366.8,422.4 406.8,444.4 366.8,466.4 326.8,444.4" fill="white" stroke="#222" stroke-width="1.5"/>
<text x="366.8" y="445.4" text-anchor="middle" dominant-baseline="middle" fill="#111" font-size="16" font-family="Microsoft YaHei, PingFang SC, sans-serif">包含</text>
<text x="478.2" y="469.1" text-anchor="middle" fill="#000" font-size="18" font-family="Microsoft YaHei, PingFang SC, sans-serif">n</text>
<text x="261.4" y="297.7" text-anchor="middle" fill="#000" font-size="18" font-family="Microsoft YaHei, PingFang SC, sans-serif">1</text>
<line x1="607.5" y1="566" x2="607.5" y2="719" stroke="#333" stroke-width="1.5"/>
<line x1="607.5" y1="763" x2="607.5" y2="916" stroke="#333" stroke-width="1.5"/>
<polygon points="607.5,719 647.5,741 607.5,763 567.5,741" fill="white" stroke="#222" stroke-width="1.5"/>
<text x="607.5" y="742" text-anchor="middle" dominant-baseline="middle" fill="#111" font-size="16" font-family="Microsoft YaHei, PingFang SC, sans-serif">关联</text>
<text x="595.5" y="634.5" text-anchor="middle" fill="#000" font-size="18" font-family="Microsoft YaHei, PingFang SC, sans-serif">n</text>
<text x="619.5" y="831.5" text-anchor="middle" fill="#000" font-size="18" font-family="Microsoft YaHei, PingFang SC, sans-serif">1</text>
<line x1="581.5" y1="170" x2="432.4" y2="301.9" stroke="#333" stroke-width="1.5"/>
<line x1="402.2" y1="329.3" x2="196.3" y2="520" stroke="#333" stroke-width="1.5"/>
<polygon points="417.1,293.5 457.1,315.5 417.1,337.5 377.1,315.5" fill="white" stroke="#222" stroke-width="1.5"/>
<text x="417.1" y="316.5" text-anchor="middle" dominant-baseline="middle" fill="#111" font-size="16" font-family="Microsoft YaHei, PingFang SC, sans-serif">作答</text>
<text x="512.4" y="238.7" text-anchor="middle" fill="#000" font-size="18" font-family="Microsoft YaHei, PingFang SC, sans-serif">n</text>
<text x="308.6" y="424.2" text-anchor="middle" fill="#000" font-size="18" font-family="Microsoft YaHei, PingFang SC, sans-serif">1</text>
<line x1="557.5" y1="147" x2="429.5" y2="147" stroke="#333" stroke-width="1.5"/>
<line x1="349.5" y1="147" x2="221.5" y2="147" stroke="#333" stroke-width="1.5"/>
<polygon points="389.5,125 429.5,147 389.5,169 349.5,147" fill="white" stroke="#222" stroke-width="1.5"/>
<text x="389.5" y="148" text-anchor="middle" dominant-baseline="middle" fill="#111" font-size="16" font-family="Microsoft YaHei, PingFang SC, sans-serif">对应</text>
<text x="493.5" y="127" text-anchor="middle" fill="#000" font-size="18" font-family="Microsoft YaHei, PingFang SC, sans-serif">n</text>
<text x="285.5" y="127" text-anchor="middle" fill="#000" font-size="18" font-family="Microsoft YaHei, PingFang SC, sans-serif">1</text>
<line x1="657.5" y1="147" x2="785.5" y2="147" stroke="#333" stroke-width="1.5"/>
<line x1="865.5" y1="147" x2="993.5" y2="147" stroke="#333" stroke-width="1.5"/>
<polygon points="825.5,125 865.5,147 825.5,169 785.5,147" fill="white" stroke="#222" stroke-width="1.5"/>
<text x="825.5" y="148" text-anchor="middle" dominant-baseline="middle" fill="#111" font-size="16" font-family="Microsoft YaHei, PingFang SC, sans-serif">属于</text>
<text x="721.5" y="151" text-anchor="middle" fill="#000" font-size="18" font-family="Microsoft YaHei, PingFang SC, sans-serif">n</text>
<text x="929.5" y="127" text-anchor="middle" fill="#000" font-size="18" font-family="Microsoft YaHei, PingFang SC, sans-serif">1</text>
</svg>