<svg xmlns="http://www.w3.org/2000/svg" width="886" height="999" viewBox="0 0 886 999">
<rect width="886" height="999" fill="#ffffff"/>
<line x1="293.6" y1="167.6" x2="98" y2="29" stroke="#aaa" stroke-width="1"/>
<line x1="293.6" y1="167.6" x2="197" y2="29" stroke="#aaa" stroke-width="1"/>
<line x1="293.6" y1="167.6" x2="296" y2="29" stroke="#aaa" stroke-width="1"/>
<line x1="293.6" y1="167.6" x2="395" y2="29" stroke="#aaa" stroke-width="1"/>
<rect x="243.6" y="144.6" width="100" height="46" rx="3" fill="white" stroke="#222" stroke-width="1.5"/>
<text x="293.6" y="168.6" text-anchor="middle" dominant-baseline="middle" fill="#111" font-size="17" font-family="Microsoft YaHei, PingFang SC, sans-serif" font-weight="normal">系统角色</text>
<ellipse cx="98" cy="29" rx="39.5" ry="21" fill="white" stroke="#222" stroke-width="1.5"/>
<text x="98" y="30" text-anchor="middle" dominant-baseline="middle" fill="#111" font-size="15" font-family="Microsoft YaHei, PingFang SC, sans-serif">角色ID</text>
<ellipse cx="197" cy="29" rx="45.5" ry="21" fill="white" stroke="#222" stroke-width="1.5"/>
<text x="197" y="30" text-anchor="middle" dominant-baseline="middle" fill="#111" font-size="15" font-family="Microsoft YaHei, PingFang SC, sans-serif">角色编码</text>
<ellipse cx="296" cy="29" rx="45.5" ry="21" fill="white" stroke="#222" stroke-width="1.5"/>
<text x="296" y="30" text-anchor="middle" dominant-baseline="middle" fill="#111" font-size="15" font-family="Microsoft YaHei, PingFang SC, sans-serif">角色名称</text>
<ellipse cx="395" cy="29" rx="45.5" ry="21" fill="white" stroke="#222" stroke-width="1.5"/>
<text x="395" y="30" text-anchor="middle" dominant-baseline="middle" fill="#111" font-size="15" font-family="Microsoft YaHei, PingFang SC, sans-serif">角色描述</text>
<line x1="525.6" y1="579.3" x2="642.7" y2="565" stroke="#aaa" stroke-width="1"/>
<line x1="525.6" y1="579.3" x2="613.2" y2="658.4" stroke="#aaa" stroke-width="1"/>
<line x1="525.6" y1="579.3" x2="523.3" y2="697.2" stroke="#aaa" stroke-width="1"/>
<line x1="525.6" y1="579.3" x2="435" y2="654.8" stroke="#aaa" stroke-width="1"/>
<line x1="525.6" y1="579.3" x2="409.1" y2="560.4" stroke="#aaa" stroke-width="1"/>
<rect x="475.6" y="556.3" width="100" height="46" rx="3" fill="white" stroke="#222" stroke-width="1.5"/>
<text x="525.6" y="580.3" text-anchor="middle" dominant-baseline="middle" fill="#111" font-size="17" font-family="Microsoft YaHei, PingFang SC, sans-serif" font-weight="normal">系统用户</text>
<ellipse cx="642.7" cy="565" rx="39.5" ry="21" fill="white" stroke="#222" stroke-width="1.5"/>
<text x="642.7" y="566" text-anchor="middle" dominant-baseline="middle" fill="#111" font-size="15" font-family="Microsoft YaHei, PingFang SC, sans-serif">用户ID</text>
<ellipse cx="613.2" cy="658.4" rx="45.5" ry="21" fill="white" stroke="#222" stroke-width="1.5"/>
<text x="613.2" y="659.4" text-anchor="middle" dominant-baseline="middle" fill="#111" font-size="15" font-family="Microsoft YaHei, PingFang SC, sans-serif">登录账号</text>
<ellipse cx="523.3" cy="697.2" rx="45.5" ry="21" fill="white" stroke="#222" stroke-width="1.5"/>
<text x="523.3" y="698.2" text-anchor="middle" dominant-baseline="middle" fill="#111" font-size="15" font-family="Microsoft YaHei, PingFang SC, sans-serif">真实姓名</text>
<ellipse cx="435" cy="654.8" rx="45.5" ry="21" fill="white" stroke="#222" stroke-width="1.5"/>
<text x="435" y="655.8" text-anchor="middle" dominant-baseline="middle" fill="#111" font-size="15" font-family="Microsoft YaHei, PingFang SC, sans-serif">绑定邮箱</text>
<ellipse cx="409.1" cy="560.4" rx="45.5" ry="21" fill="white" stroke="#222" stroke-width="1.5"/>
<text x="409.1" y="561.4" text-anchor="middle" dominant-baseline="middle" fill="#111" font-size="15" font-family="Microsoft YaHei, PingFang SC, sans-serif">账号状态</text>
<line x1="259" y1="850.7" x2="55" y2="969.7" stroke="#aaa" stroke-width="1"/>
<line x1="259" y1="850.7" x2="157" y2="969.7" stroke="#aaa" stroke-width="1"/>
<line x1="259" y1="850.7" x2="259" y2="969.7" stroke="#aaa" stroke-width="1"/>
<line x1="259" y1="850.7" x2="361" y2="969.7" stroke="#aaa" stroke-width="1"/>
<line x1="259" y1="850.7" x2="463" y2="969.7" stroke="#aaa" stroke-width="1"/>
<rect x="209" y="827.7" width="100" height="46" rx="3" fill="white" stroke="#222" stroke-width="1.5"/>
<text x="259" y="851.7" text-anchor="middle" dominant-baseline="middle" fill="#111" font-size="17" font-family="Microsoft YaHei, PingFang SC, sans-serif" font-weight="normal">邮箱验证码</text>
<ellipse cx="55" cy="969.7" rx="47" ry="21" fill="white" stroke="#222" stroke-width="1.5"/>
<text x="55" y="970.7" text-anchor="middle" dominant-baseline="middle" fill="#111" font-size="15" font-family="Microsoft YaHei, PingFang SC, sans-serif">验证码ID</text>
<ellipse cx="157" cy="969.7" rx="45.5" ry="21" fill="white" stroke="#222" stroke-width="1.5"/>
<text x="157" y="970.7" text-anchor="middle" dominant-baseline="middle" fill="#111" font-size="15" font-family="Microsoft YaHei, PingFang SC, sans-serif">目标邮箱</text>
<ellipse cx="259" cy="969.7" rx="38" ry="21" fill="white" stroke="#222" stroke-width="1.5"/>
<text x="259" y="970.7" text-anchor="middle" dominant-baseline="middle" fill="#111" font-size="15" font-family="Microsoft YaHei, PingFang SC, sans-serif">验证码</text>
<ellipse cx="361" cy="969.7" rx="45.5" ry="21" fill="white" stroke="#222" stroke-width="1.5"/>
<text x="361" y="970.7" text-anchor="middle" dominant-baseline="middle" fill="#111" font-size="15" font-family="Microsoft YaHei, PingFang SC, sans-serif">过期时间</text>
<ellipse cx="463" cy="969.7" rx="45.5" ry="21" fill="white" stroke="#222" stroke-width="1.5"/>
<text x="463" y="970.7" text-anchor="middle" dominant-baseline="middle" fill="#111" font-size="15" font-family="Microsoft YaHei, PingFang SC, sans-serif">是否使用</text>
<line x1="634.2" y1="222.6" x2="409.1" y2="107.6" stroke="#aaa" stroke-width="1"/>
<line x1="634.2" y1="222.6" x2="523.3" y2="107.6" stroke="#aaa" stroke-width="1"/>
<line x1="634.2" y1="222.6" x2="634.2" y2="104.6" stroke="#aaa" stroke-width="1"/>
<line x1="634.2" y1="222.6" x2="733.2" y2="104.6" stroke="#aaa" stroke-width="1"/>
<line x1="634.2" y1="222.6" x2="832.2" y2="104.6" stroke="#aaa" stroke-width="1"/>
<rect x="584.2" y="199.6" width="100" height="46" rx="3" fill="white" stroke="#222" stroke-width="1.5"/>
<text x="634.2" y="223.6" text-anchor="middle" dominant-baseline="middle" fill="#111" font-size="17" font-family="Microsoft YaHei, PingFang SC, sans-serif" font-weight="normal">系统公告</text>
<ellipse cx="409.1" cy="107.6" rx="39.5" ry="21" fill="white" stroke="#222" stroke-width="1.5"/>
<text x="409.1" y="108.6" text-anchor="middle" dominant-baseline="middle" fill="#111" font-size="15" font-family="Microsoft YaHei, PingFang SC, sans-serif">公告ID</text>
<ellipse cx="523.3" cy="107.6" rx="45.5" ry="21" fill="white" stroke="#222" stroke-width="1.5"/>
<text x="523.3" y="108.6" text-anchor="middle" dominant-baseline="middle" fill="#111" font-size="15" font-family="Microsoft YaHei, PingFang SC, sans-serif">公告标题</text>
<ellipse cx="634.2" cy="104.6" rx="45.5" ry="21" fill="white" stroke="#222" stroke-width="1.5"/>
<text x="634.2" y="105.6" text-anchor="middle" dominant-baseline="middle" fill="#111" font-size="15" font-family="Microsoft YaHei, PingFang SC, sans-serif">公告正文</text>
<ellipse cx="733.2" cy="104.6" rx="45.5" ry="21" fill="white" stroke="#222" stroke-width="1.5"/>
<text x="733.2" y="105.6" text-anchor="middle" dominant-baseline="middle" fill="#111" font-size="15" font-family="Microsoft YaHei, PingFang SC, sans-serif">推送对象</text>
<ellipse cx="832.2" cy="104.6" rx="45.5" ry="21" fill="white" stroke="#222" stroke-width="1.5"/>
<text x="832.2" y="105.6" text-anchor="middle" dominant-baseline="middle" fill="#111" font-size="15" font-family="Microsoft YaHei, PingFang SC, sans-serif">发布时间</text>
<line x1="306.5" y1="190.6" x2="400.1" y2="356.6" stroke="#333" stroke-width="1.5"/>
<line x1="419" y1="390.2" x2="512.6" y2="556.3" stroke="#333" stroke-width="1.5"/>
<polygon points="409.6,351.4 449.6,373.4 409.6,395.4 369.6,373.4" fill="white" stroke="#222" stroke-width="1.5"/>
<text x="409.6" y="374.4" text-anchor="middle" dominant-baseline="middle" fill="#111" font-size="16" font-family="Microsoft YaHei, PingFang SC, sans-serif">拥有</text>
<text x="341.7" y="268.6" text-anchor="middle" fill="#000" font-size="18" font-family="Microsoft YaHei, PingFang SC, sans-serif">1</text>
<text x="477.4" y="462.2" text-anchor="middle" fill="#000" font-size="18" font-family="Microsoft YaHei, PingFang SC, sans-serif">n</text>
<line x1="532.6" y1="556.3" x2="574.2" y2="419.8" stroke="#333" stroke-width="1.5"/>
<line x1="585.6" y1="382.1" x2="627.2" y2="245.6" stroke="#333" stroke-width="1.5"/>
<polygon points="579.9,378.9 619.9,400.9 579.9,422.9 539.9,400.9" fill="white" stroke="#222" stroke-width="1.5"/>
<text x="579.9" y="401.9" text-anchor="middle" dominant-baseline="middle" fill="#111" font-size="16" font-family="Microsoft YaHei, PingFang SC, sans-serif">发布</text>
<text x="564.9" y="483.5" text-anchor="middle" fill="#000" font-size="18" font-family="Microsoft YaHei, PingFang SC, sans-serif">1</text>
<text x="594.9" y="302.4" text-anchor="middle" fill="#000" font-size="18" font-family="Microsoft YaHei, PingFang SC, sans-serif">n</text>
</svg>