<svg xmlns="http://www.w3.org/2000/svg" xmlns:xlink="http://www.w3.org/1999/xlink" version="1.1" data-diagram-type="CLASS" style="width:2271px;height:568px;background:#FFFFFF;" width="2271px" height="568px" viewBox="0 0 2271 568" zoomAndPan="magnify" preserveAspectRatio="none" contentStyleType="text/css"><?plantuml 1.2026.7beta6?><defs/><g font-family="sans-serif" lengthAdjust="spacing"><g class="title" data-source-line="1"><text x="987.051" y="22.995" fill="#000" font-size="14" textLength="289.897" font-weight="700" font-family="'Microsoft YaHei'">KG智能导学系统 - 后端分层类图（核心逻辑）</text></g><!--cluster Controller 层--><g class="cluster" data-qualified-name="Controller ." id="ent0001" data-source-line="16"><path d="M8.5,43.297 L107.445,43.297 A3.75,3.75 0 0 1 109.945,45.797 L116.945,65.594 L1478.5,65.594 A2.5,2.5 0 0 1 1481,68.094 L1481,551.357 A2.5,2.5 0 0 1 1478.5,553.857 L8.5,553.857 A2.5,2.5 0 0 1 6,551.357 L6,45.797 A2.5,2.5 0 0 1 8.5,43.297" style="stroke:#000;stroke-width:1.5;" fill="#FFF"/><line x1="6" y1="65.594" x2="116.945" y2="65.594" style="stroke:#000;stroke-width:1.5;"/><text x="10" y="58.292" fill="#000" font-size="14" textLength="97.945" font-weight="700" font-family="'Microsoft YaHei'">Controller 层</text></g><!--cluster Service 接口层--><g class="cluster" data-qualified-name="Service ..." id="ent0012" data-source-line="76"><path d="M1507.5,75.887 L1613.575,75.887 A3.75,3.75 0 0 1 1616.075,78.387 L1623.075,98.184 L2253.5,98.184 A2.5,2.5 0 0 1 2256,100.684 L2256,518.767 A2.5,2.5 0 0 1 2253.5,521.267 L1507.5,521.267 A2.5,2.5 0 0 1 1505,518.767 L1505,78.387 A2.5,2.5 0 0 1 1507.5,75.887" style="stroke:#000;stroke-width:1.5;" fill="#FFF"/><line x1="1505" y1="98.184" x2="1623.075" y2="98.184" style="stroke:#000;stroke-width:1.5;"/><text x="1509" y="90.882" fill="#000" font-size="14" textLength="105.075" font-weight="700" font-family="'Microsoft YaHei'">Service 接口层</text></g><!--class AuthController--><g class="entity" data-qualified-name="Controller ..AuthController" id="ent0002" data-source-line="17"><rect x="21.59" y="78.297" width="332.817" height="113.188" fill="#FFF" style="stroke:#000;stroke-width:0.5;" rx="2.5" ry="2.5"/><ellipse cx="140.041" cy="94.297" rx="11" ry="11" fill="#ADD1B2" style="stroke:#181818;stroke-width:1;"/><path d="M143.009,99.937 Q142.431,100.234 141.791,100.375 Q141.15,100.531 140.447,100.531 Q137.947,100.531 136.619,98.891 Q135.306,97.234 135.306,94.109 Q135.306,90.984 136.619,89.328 Q137.947,87.672 140.447,87.672 Q141.15,87.672 141.791,87.828 Q142.447,87.984 143.009,88.281 L143.009,91 Q142.384,90.422 141.791,90.156 Q141.197,89.875 140.572,89.875 Q139.228,89.875 138.541,90.953 Q137.853,92.016 137.853,94.109 Q137.853,96.203 138.541,97.281 Q139.228,98.344 140.572,98.344 Q141.197,98.344 141.791,98.078 Q142.384,97.797 143.009,97.219 L143.009,99.937 Z " fill="#000"/><text x="160.541" y="98.451" fill="#000" font-size="12" textLength="87.416" font-family="'Microsoft YaHei'">AuthController</text><line x1="22.59" y1="110.297" x2="353.407" y2="110.297" style="stroke:#000;stroke-width:0.5;"/><line x1="22.59" y1="118.297" x2="353.407" y2="118.297" style="stroke:#000;stroke-width:0.5;"/><g data-visibility-modifier="PUBLIC_METHOD"><ellipse cx="32.59" cy="131.945" rx="3" ry="3" fill="#84BE84" style="stroke:#038048;stroke-width:1;"/></g><text x="41.59" y="135.292" fill="#000" font-size="14" textLength="252.971" font-family="'Microsoft YaHei'">login(LoginDTO) : Result&lt;LoginVO&gt;</text><g data-visibility-modifier="PUBLIC_METHOD"><ellipse cx="32.59" cy="148.242" rx="3" ry="3" fill="#84BE84" style="stroke:#038048;stroke-width:1;"/></g><text x="41.59" y="151.589" fill="#000" font-size="14" textLength="211.347" font-family="'Microsoft YaHei'">register(RegisterDTO) : Result</text><g data-visibility-modifier="PUBLIC_METHOD"><ellipse cx="32.59" cy="164.539" rx="3" ry="3" fill="#84BE84" style="stroke:#038048;stroke-width:1;"/></g><text x="41.59" y="167.886" fill="#000" font-size="14" textLength="239.388" font-family="'Microsoft YaHei'">sendCode(SendCodeDTO) : Result</text><g data-visibility-modifier="PUBLIC_METHOD"><ellipse cx="32.59" cy="180.836" rx="3" ry="3" fill="#84BE84" style="stroke:#038048;stroke-width:1;"/></g><text x="41.59" y="184.183" fill="#000" font-size="14" textLength="306.817" font-family="'Microsoft YaHei'">resetPassword(ResetPasswordDTO) : Result</text></g><!--class AdminController--><g class="entity" data-qualified-name="Controller ..AdminController" id="ent0003" data-source-line="23"><rect x="389.47" y="78.297" width="311.059" height="113.188" fill="#FFF" style="stroke:#000;stroke-width:0.5;" rx="2.5" ry="2.5"/><ellipse cx="491.876" cy="94.297" rx="11" ry="11" fill="#ADD1B2" style="stroke:#181818;stroke-width:1;"/><path d="M494.845,99.937 Q494.267,100.234 493.626,100.375 Q492.986,100.531 492.283,100.531 Q489.783,100.531 488.454,98.891 Q487.142,97.234 487.142,94.109 Q487.142,90.984 488.454,89.328 Q489.783,87.672 492.283,87.672 Q492.986,87.672 493.626,87.828 Q494.283,87.984 494.845,88.281 L494.845,91 Q494.22,90.422 493.626,90.156 Q493.033,89.875 492.408,89.875 Q491.064,89.875 490.376,90.953 Q489.689,92.016 489.689,94.109 Q489.689,96.203 490.376,97.281 Q491.064,98.344 492.408,98.344 Q493.033,98.344 493.626,98.078 Q494.22,97.797 494.845,97.219 L494.845,99.937 Z " fill="#000"/><text x="512.376" y="98.451" fill="#000" font-size="12" textLength="97.746" font-family="'Microsoft YaHei'">AdminController</text><line x1="390.47" y1="110.297" x2="699.529" y2="110.297" style="stroke:#000;stroke-width:0.5;"/><line x1="390.47" y1="118.297" x2="699.529" y2="118.297" style="stroke:#000;stroke-width:0.5;"/><g data-visibility-modifier="PUBLIC_METHOD"><ellipse cx="400.47" cy="131.945" rx="3" ry="3" fill="#84BE84" style="stroke:#038048;stroke-width:1;"/></g><text x="409.47" y="135.292" fill="#000" font-size="14" textLength="236.599" font-family="'Microsoft YaHei'">listUsers(keyword, roleId) : Result</text><g data-visibility-modifier="PUBLIC_METHOD"><ellipse cx="400.47" cy="148.242" rx="3" ry="3" fill="#84BE84" style="stroke:#038048;stroke-width:1;"/></g><text x="409.47" y="151.589" fill="#000" font-size="14" textLength="201.462" font-family="'Microsoft YaHei'">createUser(SysUser) : Result</text><g data-visibility-modifier="PUBLIC_METHOD"><ellipse cx="400.47" cy="164.539" rx="3" ry="3" fill="#84BE84" style="stroke:#038048;stroke-width:1;"/></g><text x="409.47" y="167.886" fill="#000" font-size="14" textLength="206.042" font-family="'Microsoft YaHei'">updateUser(SysUser) : Result</text><g data-visibility-modifier="PUBLIC_METHOD"><ellipse cx="400.47" cy="180.836" rx="3" ry="3" fill="#84BE84" style="stroke:#038048;stroke-width:1;"/></g><text x="409.47" y="184.183" fill="#000" font-size="14" textLength="285.059" font-family="'Microsoft YaHei'">listOperLogs(module, start, end) : Result</text></g><!--class CourseController--><g class="entity" data-qualified-name="Controller ..CourseController" id="ent0004" data-source-line="29"><rect x="736" y="78.297" width="286.005" height="113.188" fill="#FFF" style="stroke:#000;stroke-width:0.5;" rx="2.5" ry="2.5"/><ellipse cx="824.16" cy="94.297" rx="11" ry="11" fill="#ADD1B2" style="stroke:#181818;stroke-width:1;"/><path d="M827.128,99.937 Q826.55,100.234 825.91,100.375 Q825.269,100.531 824.566,100.531 Q822.066,100.531 820.738,98.891 Q819.425,97.234 819.425,94.109 Q819.425,90.984 820.738,89.328 Q822.066,87.672 824.566,87.672 Q825.269,87.672 825.91,87.828 Q826.566,87.984 827.128,88.281 L827.128,91 Q826.503,90.422 825.91,90.156 Q825.316,89.875 824.691,89.875 Q823.347,89.875 822.66,90.953 Q821.972,92.016 821.972,94.109 Q821.972,96.203 822.66,97.281 Q823.347,98.344 824.691,98.344 Q825.316,98.344 825.91,98.078 Q826.503,97.797 827.128,97.219 L827.128,99.937 Z " fill="#000"/><text x="844.66" y="98.451" fill="#000" font-size="12" textLength="101.186" font-family="'Microsoft YaHei'">CourseController</text><line x1="737" y1="110.297" x2="1021.005" y2="110.297" style="stroke:#000;stroke-width:0.5;"/><line x1="737" y1="118.297" x2="1021.005" y2="118.297" style="stroke:#000;stroke-width:0.5;"/><g data-visibility-modifier="PUBLIC_METHOD"><ellipse cx="747" cy="131.945" rx="3" ry="3" fill="#84BE84" style="stroke:#038048;stroke-width:1;"/></g><text x="756" y="135.292" fill="#000" font-size="14" textLength="260.005" font-family="'Microsoft YaHei'">list(subject) : Result&lt;List&lt;Course&gt;&gt;</text><g data-visibility-modifier="PUBLIC_METHOD"><ellipse cx="747" cy="148.242" rx="3" ry="3" fill="#84BE84" style="stroke:#038048;stroke-width:1;"/></g><text x="756" y="151.589" fill="#000" font-size="14" textLength="162.053" font-family="'Microsoft YaHei'">create(Course) : Result</text><g data-visibility-modifier="PUBLIC_METHOD"><ellipse cx="747" cy="164.539" rx="3" ry="3" fill="#84BE84" style="stroke:#038048;stroke-width:1;"/></g><text x="756" y="167.886" fill="#000" font-size="14" textLength="188.31" font-family="'Microsoft YaHei'">update(id, Course) : Result</text><g data-visibility-modifier="PUBLIC_METHOD"><ellipse cx="747" cy="180.836" rx="3" ry="3" fill="#84BE84" style="stroke:#038048;stroke-width:1;"/></g><text x="756" y="184.183" fill="#000" font-size="14" textLength="125.31" font-family="'Microsoft YaHei'">delete(id) : Result</text></g><!--class NodeController--><g class="entity" data-qualified-name="Controller ..NodeController" id="ent0005" data-source-line="35"><rect x="1056.85" y="78.297" width="408.3" height="113.188" fill="#FFF" style="stroke:#000;stroke-width:0.5;" rx="2.5" ry="2.5"/><ellipse cx="1211.445" cy="94.297" rx="11" ry="11" fill="#ADD1B2" style="stroke:#181818;stroke-width:1;"/><path d="M1214.414,99.937 Q1213.836,100.234 1213.195,100.375 Q1212.555,100.531 1211.851,100.531 Q1209.351,100.531 1208.023,98.891 Q1206.711,97.234 1206.711,94.109 Q1206.711,90.984 1208.023,89.328 Q1209.351,87.672 1211.851,87.672 Q1212.555,87.672 1213.195,87.828 Q1213.851,87.984 1214.414,88.281 L1214.414,91 Q1213.789,90.422 1213.195,90.156 Q1212.601,89.875 1211.976,89.875 Q1210.633,89.875 1209.945,90.953 Q1209.258,92.016 1209.258,94.109 Q1209.258,96.203 1209.945,97.281 Q1210.633,98.344 1211.976,98.344 Q1212.601,98.344 1213.195,98.078 Q1213.789,97.797 1214.414,97.219 L1214.414,99.937 Z " fill="#000"/><text x="1231.945" y="98.451" fill="#000" font-size="12" textLength="90.609" font-family="'Microsoft YaHei'">NodeController</text><line x1="1057.85" y1="110.297" x2="1464.15" y2="110.297" style="stroke:#000;stroke-width:0.5;"/><line x1="1057.85" y1="118.297" x2="1464.15" y2="118.297" style="stroke:#000;stroke-width:0.5;"/><g data-visibility-modifier="PUBLIC_METHOD"><ellipse cx="1067.85" cy="131.945" rx="3" ry="3" fill="#84BE84" style="stroke:#038048;stroke-width:1;"/></g><text x="1076.85" y="135.292" fill="#000" font-size="14" textLength="382.3" font-family="'Microsoft YaHei'">list(courseId, name) : Result&lt;List&lt;KnowledgeNode&gt;&gt;</text><g data-visibility-modifier="PUBLIC_METHOD"><ellipse cx="1067.85" cy="148.242" rx="3" ry="3" fill="#84BE84" style="stroke:#038048;stroke-width:1;"/></g><text x="1076.85" y="151.589" fill="#000" font-size="14" textLength="226.673" font-family="'Microsoft YaHei'">create(KnowledgeNode) : Result</text><g data-visibility-modifier="PUBLIC_METHOD"><ellipse cx="1067.85" cy="164.539" rx="3" ry="3" fill="#84BE84" style="stroke:#038048;stroke-width:1;"/></g><text x="1076.85" y="167.886" fill="#000" font-size="14" textLength="252.93" font-family="'Microsoft YaHei'">update(id, KnowledgeNode) : Result</text><g data-visibility-modifier="PUBLIC_METHOD"><ellipse cx="1067.85" cy="180.836" rx="3" ry="3" fill="#84BE84" style="stroke:#038048;stroke-width:1;"/></g><text x="1076.85" y="184.183" fill="#000" font-size="14" textLength="125.31" font-family="'Microsoft YaHei'">delete(id) : Result</text></g><!--class EdgeController--><g class="entity" data-qualified-name="Controller ..EdgeController" id="ent0006" data-source-line="41"><rect x="21.73" y="259.627" width="346.53" height="96.891" fill="#FFF" style="stroke:#000;stroke-width:0.5;" rx="2.5" ry="2.5"/><ellipse cx="146" cy="275.627" rx="11" ry="11" fill="#ADD1B2" style="stroke:#181818;stroke-width:1;"/><path d="M148.969,281.267 Q148.391,281.564 147.75,281.705 Q147.109,281.861 146.406,281.861 Q143.906,281.861 142.578,280.221 Q141.266,278.564 141.266,275.439 Q141.266,272.314 142.578,270.658 Q143.906,269.002 146.406,269.002 Q147.109,269.002 147.75,269.158 Q148.406,269.314 148.969,269.611 L148.969,272.33 Q148.344,271.752 147.75,271.486 Q147.156,271.205 146.531,271.205 Q145.188,271.205 144.5,272.283 Q143.813,273.346 143.813,275.439 Q143.813,277.533 144.5,278.611 Q145.188,279.674 146.531,279.674 Q147.156,279.674 147.75,279.408 Q148.344,279.127 148.969,278.549 L148.969,281.267 Z " fill="#000"/><text x="166.5" y="279.781" fill="#000" font-size="12" textLength="89.49" font-family="'Microsoft YaHei'">EdgeController</text><line x1="22.73" y1="291.627" x2="367.26" y2="291.627" style="stroke:#000;stroke-width:0.5;"/><line x1="22.73" y1="299.627" x2="367.26" y2="299.627" style="stroke:#000;stroke-width:0.5;"/><g data-visibility-modifier="PUBLIC_METHOD"><ellipse cx="32.73" cy="313.275" rx="3" ry="3" fill="#84BE84" style="stroke:#038048;stroke-width:1;"/></g><text x="41.73" y="316.622" fill="#000" font-size="14" textLength="320.53" font-family="'Microsoft YaHei'">list(nodeId) : Result&lt;List&lt;KnowledgeEdge&gt;&gt;</text><g data-visibility-modifier="PUBLIC_METHOD"><ellipse cx="32.73" cy="329.572" rx="3" ry="3" fill="#84BE84" style="stroke:#038048;stroke-width:1;"/></g><text x="41.73" y="332.919" fill="#000" font-size="14" textLength="147.8" font-family="'Microsoft YaHei'">create(body) : Result</text><g data-visibility-modifier="PUBLIC_METHOD"><ellipse cx="32.73" cy="345.869" rx="3" ry="3" fill="#84BE84" style="stroke:#038048;stroke-width:1;"/></g><text x="41.73" y="349.216" fill="#000" font-size="14" textLength="125.31" font-family="'Microsoft YaHei'">delete(id) : Result</text></g><!--class QuestionController--><g class="entity" data-qualified-name="Controller ..QuestionController" id="ent0007" data-source-line="46"><rect x="403.34" y="251.477" width="435.329" height="113.188" fill="#FFF" style="stroke:#000;stroke-width:0.5;" rx="2.5" ry="2.5"/><ellipse cx="560.273" cy="267.477" rx="11" ry="11" fill="#ADD1B2" style="stroke:#181818;stroke-width:1;"/><path d="M563.242,273.117 Q562.664,273.414 562.023,273.555 Q561.382,273.711 560.679,273.711 Q558.179,273.711 556.851,272.071 Q555.539,270.414 555.539,267.289 Q555.539,264.164 556.851,262.508 Q558.179,260.852 560.679,260.852 Q561.382,260.852 562.023,261.008 Q562.679,261.164 563.242,261.461 L563.242,264.18 Q562.617,263.602 562.023,263.336 Q561.429,263.055 560.804,263.055 Q559.461,263.055 558.773,264.133 Q558.086,265.196 558.086,267.289 Q558.086,269.383 558.773,270.461 Q559.461,271.524 560.804,271.524 Q561.429,271.524 562.023,271.258 Q562.617,270.977 563.242,270.399 L563.242,273.117 Z " fill="#000"/><text x="580.773" y="271.631" fill="#000" font-size="12" textLength="112.963" font-family="'Microsoft YaHei'">QuestionController</text><line x1="404.34" y1="283.477" x2="837.669" y2="283.477" style="stroke:#000;stroke-width:0.5;"/><line x1="404.34" y1="291.477" x2="837.669" y2="291.477" style="stroke:#000;stroke-width:0.5;"/><g data-visibility-modifier="PUBLIC_METHOD"><ellipse cx="414.34" cy="305.125" rx="3" ry="3" fill="#84BE84" style="stroke:#038048;stroke-width:1;"/></g><text x="423.34" y="308.472" fill="#000" font-size="14" textLength="409.329" font-family="'Microsoft YaHei'">list(nodeId, courseId, difficulty) : Result&lt;List&lt;Question&gt;&gt;</text><g data-visibility-modifier="PUBLIC_METHOD"><ellipse cx="414.34" cy="321.422" rx="3" ry="3" fill="#84BE84" style="stroke:#038048;stroke-width:1;"/></g><text x="423.34" y="324.769" fill="#000" font-size="14" textLength="175.793" font-family="'Microsoft YaHei'">create(Question) : Result</text><g data-visibility-modifier="PUBLIC_METHOD"><ellipse cx="414.34" cy="337.719" rx="3" ry="3" fill="#84BE84" style="stroke:#038048;stroke-width:1;"/></g><text x="423.34" y="341.066" fill="#000" font-size="14" textLength="202.05" font-family="'Microsoft YaHei'">update(id, Question) : Result</text><g data-visibility-modifier="PUBLIC_METHOD"><ellipse cx="414.34" cy="354.016" rx="3" ry="3" fill="#84BE84" style="stroke:#038048;stroke-width:1;"/></g><text x="423.34" y="357.363" fill="#000" font-size="14" textLength="125.31" font-family="'Microsoft YaHei'">delete(id) : Result</text></g><!--class StudentPathController--><g class="entity" data-qualified-name="Controller ..StudentPathController" id="ent0008" data-source-line="52"><rect x="873.76" y="251.477" width="332.476" height="113.188" fill="#FFF" style="stroke:#000;stroke-width:0.5;" rx="2.5" ry="2.5"/><ellipse cx="969.033" cy="267.477" rx="11" ry="11" fill="#ADD1B2" style="stroke:#181818;stroke-width:1;"/><path d="M972.002,273.117 Q971.424,273.414 970.783,273.555 Q970.142,273.711 969.439,273.711 Q966.939,273.711 965.611,272.071 Q964.299,270.414 964.299,267.289 Q964.299,264.164 965.611,262.508 Q966.939,260.852 969.439,260.852 Q970.142,260.852 970.783,261.008 Q971.439,261.164 972.002,261.461 L972.002,264.18 Q971.377,263.602 970.783,263.336 Q970.189,263.055 969.564,263.055 Q968.22,263.055 967.533,264.133 Q966.845,265.196 966.845,267.289 Q966.845,269.383 967.533,270.461 Q968.22,271.524 969.564,271.524 Q970.189,271.524 970.783,271.258 Q971.377,270.977 972.002,270.399 L972.002,273.117 Z " fill="#000"/><text x="989.533" y="271.631" fill="#000" font-size="12" textLength="133.43" font-family="'Microsoft YaHei'">StudentPathController</text><line x1="874.76" y1="283.477" x2="1205.236" y2="283.477" style="stroke:#000;stroke-width:0.5;"/><line x1="874.76" y1="291.477" x2="1205.236" y2="291.477" style="stroke:#000;stroke-width:0.5;"/><g data-visibility-modifier="PUBLIC_METHOD"><ellipse cx="884.76" cy="305.125" rx="3" ry="3" fill="#84BE84" style="stroke:#038048;stroke-width:1;"/></g><text x="893.76" y="308.472" fill="#000" font-size="14" textLength="240.297" font-family="'Microsoft YaHei'">generate(body) : Result&lt;Integer&gt;</text><g data-visibility-modifier="PUBLIC_METHOD"><ellipse cx="884.76" cy="321.422" rx="3" ry="3" fill="#84BE84" style="stroke:#038048;stroke-width:1;"/></g><text x="893.76" y="324.769" fill="#000" font-size="14" textLength="306.476" font-family="'Microsoft YaHei'">generateByTheme(body) : Result&lt;Integer&gt;</text><g data-visibility-modifier="PUBLIC_METHOD"><ellipse cx="884.76" cy="337.719" rx="3" ry="3" fill="#84BE84" style="stroke:#038048;stroke-width:1;"/></g><text x="893.76" y="341.066" fill="#000" font-size="14" textLength="189.93" font-family="'Microsoft YaHei'">list() : Result&lt;List&lt;Map&gt;&gt;</text><g data-visibility-modifier="PUBLIC_METHOD"><ellipse cx="884.76" cy="354.016" rx="3" ry="3" fill="#84BE84" style="stroke:#038048;stroke-width:1;"/></g><text x="893.76" y="357.363" fill="#000" font-size="14" textLength="173.558" font-family="'Microsoft YaHei'">detail(id) : Result&lt;Map&gt;</text></g><!--class StudentExamController--><g class="entity" data-qualified-name="Controller ..StudentExamController" id="ent0009" data-source-line="58"><rect x="1240.77" y="259.627" width="216.47" height="96.891" fill="#FFF" style="stroke:#000;stroke-width:0.5;" rx="2.5" ry="2.5"/><ellipse cx="1275.666" cy="275.627" rx="11" ry="11" fill="#ADD1B2" style="stroke:#181818;stroke-width:1;"/><path d="M1278.635,281.267 Q1278.057,281.564 1277.416,281.705 Q1276.776,281.861 1276.072,281.861 Q1273.572,281.861 1272.244,280.221 Q1270.932,278.564 1270.932,275.439 Q1270.932,272.314 1272.244,270.658 Q1273.572,269.002 1276.072,269.002 Q1276.776,269.002 1277.416,269.158 Q1278.072,269.314 1278.635,269.611 L1278.635,272.33 Q1278.01,271.752 1277.416,271.486 Q1276.822,271.205 1276.197,271.205 Q1274.854,271.205 1274.166,272.283 Q1273.479,273.346 1273.479,275.439 Q1273.479,277.533 1274.166,278.611 Q1274.854,279.674 1276.197,279.674 Q1276.822,279.674 1277.416,279.408 Q1278.01,279.127 1278.635,278.549 L1278.635,281.267 Z " fill="#000"/><text x="1294.088" y="279.781" fill="#000" font-size="12" textLength="140.256" font-family="'Microsoft YaHei'">StudentExamController</text><line x1="1241.77" y1="291.627" x2="1456.24" y2="291.627" style="stroke:#000;stroke-width:0.5;"/><line x1="1241.77" y1="299.627" x2="1456.24" y2="299.627" style="stroke:#000;stroke-width:0.5;"/><g data-visibility-modifier="PUBLIC_METHOD"><ellipse cx="1251.77" cy="313.275" rx="3" ry="3" fill="#84BE84" style="stroke:#038048;stroke-width:1;"/></g><text x="1260.77" y="316.622" fill="#000" font-size="14" textLength="155.996" font-family="'Microsoft YaHei'">listMyExams() : Result</text><g data-visibility-modifier="PUBLIC_METHOD"><ellipse cx="1251.77" cy="329.572" rx="3" ry="3" fill="#84BE84" style="stroke:#038048;stroke-width:1;"/></g><text x="1260.77" y="332.919" fill="#000" font-size="14" textLength="160.597" font-family="'Microsoft YaHei'">examPaper(id) : Result</text><g data-visibility-modifier="PUBLIC_METHOD"><ellipse cx="1251.77" cy="345.869" rx="3" ry="3" fill="#84BE84" style="stroke:#038048;stroke-width:1;"/></g><text x="1260.77" y="349.216" fill="#000" font-size="14" textLength="190.47" font-family="'Microsoft YaHei'">submitExam(body) : Result</text></g><!--class TeacherExamController--><g class="entity" data-qualified-name="Controller ..TeacherExamController" id="ent0010" data-source-line="63"><rect x="94.97" y="424.667" width="200.057" height="113.188" fill="#FFF" style="stroke:#000;stroke-width:0.5;" rx="2.5" ry="2.5"/><ellipse cx="121.874" cy="440.667" rx="11" ry="11" fill="#ADD1B2" style="stroke:#181818;stroke-width:1;"/><path d="M124.843,446.307 Q124.265,446.604 123.624,446.745 Q122.983,446.901 122.28,446.901 Q119.78,446.901 118.452,445.261 Q117.14,443.604 117.14,440.479 Q117.14,437.354 118.452,435.698 Q119.78,434.042 122.28,434.042 Q122.983,434.042 123.624,434.198 Q124.28,434.354 124.843,434.651 L124.843,437.37 Q124.218,436.792 123.624,436.526 Q123.03,436.245 122.405,436.245 Q121.061,436.245 120.374,437.323 Q119.686,438.386 119.686,440.479 Q119.686,442.573 120.374,443.651 Q121.061,444.714 122.405,444.714 Q123.03,444.714 123.624,444.448 Q124.218,444.167 124.843,443.589 L124.843,446.307 Z " fill="#000"/><text x="138.519" y="444.821" fill="#000" font-size="12" textLength="141.604" font-family="'Microsoft YaHei'">TeacherExamController</text><line x1="95.97" y1="456.667" x2="294.027" y2="456.667" style="stroke:#000;stroke-width:0.5;"/><line x1="95.97" y1="464.667" x2="294.027" y2="464.667" style="stroke:#000;stroke-width:0.5;"/><g data-visibility-modifier="PUBLIC_METHOD"><ellipse cx="105.97" cy="478.315" rx="3" ry="3" fill="#84BE84" style="stroke:#038048;stroke-width:1;"/></g><text x="114.97" y="481.662" fill="#000" font-size="14" textLength="148.805" font-family="'Microsoft YaHei'">list(courseId) : Result</text><g data-visibility-modifier="PUBLIC_METHOD"><ellipse cx="105.97" cy="494.612" rx="3" ry="3" fill="#84BE84" style="stroke:#038048;stroke-width:1;"/></g><text x="114.97" y="497.959" fill="#000" font-size="14" textLength="147.8" font-family="'Microsoft YaHei'">create(body) : Result</text><g data-visibility-modifier="PUBLIC_METHOD"><ellipse cx="105.97" cy="510.909" rx="3" ry="3" fill="#84BE84" style="stroke:#038048;stroke-width:1;"/></g><text x="114.97" y="514.256" fill="#000" font-size="14" textLength="174.057" font-family="'Microsoft YaHei'">update(id, body) : Result</text><g data-visibility-modifier="PUBLIC_METHOD"><ellipse cx="105.97" cy="527.206" rx="3" ry="3" fill="#84BE84" style="stroke:#038048;stroke-width:1;"/></g><text x="114.97" y="530.553" fill="#000" font-size="14" textLength="125.31" font-family="'Microsoft YaHei'">delete(id) : Result</text></g><!--class ThemeController--><g class="entity" data-qualified-name="Controller ..ThemeController" id="ent0011" data-source-line="69"><rect x="329.81" y="424.667" width="438.371" height="113.188" fill="#FFF" style="stroke:#000;stroke-width:0.5;" rx="2.5" ry="2.5"/><ellipse cx="494.405" cy="440.667" rx="11" ry="11" fill="#ADD1B2" style="stroke:#181818;stroke-width:1;"/><path d="M497.373,446.307 Q496.795,446.604 496.155,446.745 Q495.514,446.901 494.811,446.901 Q492.311,446.901 490.983,445.261 Q489.67,443.604 489.67,440.479 Q489.67,437.354 490.983,435.698 Q492.311,434.042 494.811,434.042 Q495.514,434.042 496.155,434.198 Q496.811,434.354 497.373,434.651 L497.373,437.37 Q496.748,436.792 496.155,436.526 Q495.561,436.245 494.936,436.245 Q493.592,436.245 492.905,437.323 Q492.217,438.386 492.217,440.479 Q492.217,442.573 492.905,443.651 Q493.592,444.714 494.936,444.714 Q495.561,444.714 496.155,444.448 Q496.748,444.167 497.373,443.589 L497.373,446.307 Z " fill="#000"/><text x="514.905" y="444.821" fill="#000" font-size="12" textLength="100.682" font-family="'Microsoft YaHei'">ThemeController</text><line x1="330.81" y1="456.667" x2="767.181" y2="456.667" style="stroke:#000;stroke-width:0.5;"/><line x1="330.81" y1="464.667" x2="767.181" y2="464.667" style="stroke:#000;stroke-width:0.5;"/><g data-visibility-modifier="PUBLIC_METHOD"><ellipse cx="340.81" cy="478.315" rx="3" ry="3" fill="#84BE84" style="stroke:#038048;stroke-width:1;"/></g><text x="349.81" y="481.662" fill="#000" font-size="14" textLength="412.371" font-family="'Microsoft YaHei'">list(difficulty, status) : Result&lt;List&lt;CrossSubjectTheme&gt;&gt;</text><g data-visibility-modifier="PUBLIC_METHOD"><ellipse cx="340.81" cy="494.612" rx="3" ry="3" fill="#84BE84" style="stroke:#038048;stroke-width:1;"/></g><text x="349.81" y="497.959" fill="#000" font-size="14" textLength="252.485" font-family="'Microsoft YaHei'">create(CrossSubjectTheme) : Result</text><g data-visibility-modifier="PUBLIC_METHOD"><ellipse cx="340.81" cy="510.909" rx="3" ry="3" fill="#84BE84" style="stroke:#038048;stroke-width:1;"/></g><text x="349.81" y="514.256" fill="#000" font-size="14" textLength="278.742" font-family="'Microsoft YaHei'">update(id, CrossSubjectTheme) : Result</text><g data-visibility-modifier="PUBLIC_METHOD"><ellipse cx="340.81" cy="527.206" rx="3" ry="3" fill="#84BE84" style="stroke:#038048;stroke-width:1;"/></g><text x="349.81" y="530.553" fill="#000" font-size="14" textLength="170.146" font-family="'Microsoft YaHei'">toggleStatus(id) : Result</text></g><!--class SysUserService--><g class="entity" data-qualified-name="Service ....SysUserService" id="ent0013" data-source-line="77"><rect x="1545.66" y="110.887" width="124.672" height="48" fill="#FFF" style="stroke:#000;stroke-width:0.5;" rx="2.5" ry="2.5"/><ellipse cx="1560.66" cy="126.887" rx="11" ry="11" fill="#B4A7E5" style="stroke:#181818;stroke-width:1;"/><path d="M1556.582,122.652 L1556.582,120.496 L1563.973,120.496 L1563.973,122.652 L1561.504,122.652 L1561.504,130.731 L1563.973,130.731 L1563.973,132.887 L1556.582,132.887 L1556.582,130.731 L1559.051,130.731 L1559.051,122.652 L1556.582,122.652 Z " fill="#000"/><text x="1574.66" y="131.041" fill="#000" font-size="12" textLength="92.672" font-style="italic" font-family="'Microsoft YaHei'">SysUserService</text><line x1="1546.66" y1="142.887" x2="1669.332" y2="142.887" style="stroke:#000;stroke-width:0.5;"/><line x1="1546.66" y1="150.887" x2="1669.332" y2="150.887" style="stroke:#000;stroke-width:0.5;"/></g><!--class SysRoleService--><g class="entity" data-qualified-name="Service ....SysRoleService" id="ent0014" data-source-line="78"><rect x="1705.14" y="110.887" width="123.717" height="48" fill="#FFF" style="stroke:#000;stroke-width:0.5;" rx="2.5" ry="2.5"/><ellipse cx="1720.14" cy="126.887" rx="11" ry="11" fill="#B4A7E5" style="stroke:#181818;stroke-width:1;"/><path d="M1716.062,122.652 L1716.062,120.496 L1723.453,120.496 L1723.453,122.652 L1720.984,122.652 L1720.984,130.731 L1723.453,130.731 L1723.453,132.887 L1716.062,132.887 L1716.062,130.731 L1718.531,130.731 L1718.531,122.652 L1716.062,122.652 Z " fill="#000"/><text x="1734.14" y="131.041" fill="#000" font-size="12" textLength="91.717" font-style="italic" font-family="'Microsoft YaHei'">SysRoleService</text><line x1="1706.14" y1="142.887" x2="1827.857" y2="142.887" style="stroke:#000;stroke-width:0.5;"/><line x1="1706.14" y1="150.887" x2="1827.857" y2="150.887" style="stroke:#000;stroke-width:0.5;"/></g><!--class LogService--><g class="entity" data-qualified-name="Service ....LogService" id="ent0015" data-source-line="79"><rect x="1864" y="110.887" width="97.994" height="48" fill="#FFF" style="stroke:#000;stroke-width:0.5;" rx="2.5" ry="2.5"/><ellipse cx="1879" cy="126.887" rx="11" ry="11" fill="#B4A7E5" style="stroke:#181818;stroke-width:1;"/><path d="M1874.922,122.652 L1874.922,120.496 L1882.313,120.496 L1882.313,122.652 L1879.844,122.652 L1879.844,130.731 L1882.313,130.731 L1882.313,132.887 L1874.922,132.887 L1874.922,130.731 L1877.391,130.731 L1877.391,122.652 L1874.922,122.652 Z " fill="#000"/><text x="1893" y="131.041" fill="#000" font-size="12" textLength="65.994" font-style="italic" font-family="'Microsoft YaHei'">LogService</text><line x1="1865" y1="142.887" x2="1960.994" y2="142.887" style="stroke:#000;stroke-width:0.5;"/><line x1="1865" y1="150.887" x2="1960.994" y2="150.887" style="stroke:#000;stroke-width:0.5;"/></g><!--class CourseService--><g class="entity" data-qualified-name="Service ....CourseService" id="ent0016" data-source-line="80"><rect x="1996.88" y="110.887" width="118.244" height="48" fill="#FFF" style="stroke:#000;stroke-width:0.5;" rx="2.5" ry="2.5"/><ellipse cx="2011.88" cy="126.887" rx="11" ry="11" fill="#B4A7E5" style="stroke:#181818;stroke-width:1;"/><path d="M2007.802,122.652 L2007.802,120.496 L2015.193,120.496 L2015.193,122.652 L2012.724,122.652 L2012.724,130.731 L2015.193,130.731 L2015.193,132.887 L2007.802,132.887 L2007.802,130.731 L2010.271,130.731 L2010.271,122.652 L2007.802,122.652 Z " fill="#000"/><text x="2025.88" y="131.041" fill="#000" font-size="12" textLength="86.244" font-style="italic" font-family="'Microsoft YaHei'">CourseService</text><line x1="1997.88" y1="142.887" x2="2114.124" y2="142.887" style="stroke:#000;stroke-width:0.5;"/><line x1="1997.88" y1="150.887" x2="2114.124" y2="150.887" style="stroke:#000;stroke-width:0.5;"/></g><!--class KnowledgeNodeService--><g class="entity" data-qualified-name="Service ....KnowledgeNodeService" id="ent0017" data-source-line="81"><rect x="1521.18" y="284.077" width="173.633" height="48" fill="#FFF" style="stroke:#000;stroke-width:0.5;" rx="2.5" ry="2.5"/><ellipse cx="1536.18" cy="300.077" rx="11" ry="11" fill="#B4A7E5" style="stroke:#181818;stroke-width:1;"/><path d="M1532.102,295.843 L1532.102,293.686 L1539.493,293.686 L1539.493,295.843 L1537.024,295.843 L1537.024,303.921 L1539.493,303.921 L1539.493,306.077 L1532.102,306.077 L1532.102,303.921 L1534.571,303.921 L1534.571,295.843 L1532.102,295.843 Z " fill="#000"/><text x="1550.18" y="304.231" fill="#000" font-size="12" textLength="141.633" font-style="italic" font-family="'Microsoft YaHei'">KnowledgeNodeService</text><line x1="1522.18" y1="316.077" x2="1693.813" y2="316.077" style="stroke:#000;stroke-width:0.5;"/><line x1="1522.18" y1="324.077" x2="1693.813" y2="324.077" style="stroke:#000;stroke-width:0.5;"/></g><!--class KnowledgeEdgeService--><g class="entity" data-qualified-name="Service ....KnowledgeEdgeService" id="ent0018" data-source-line="82"><rect x="1729.74" y="284.077" width="172.514" height="48" fill="#FFF" style="stroke:#000;stroke-width:0.5;" rx="2.5" ry="2.5"/><ellipse cx="1744.74" cy="300.077" rx="11" ry="11" fill="#B4A7E5" style="stroke:#181818;stroke-width:1;"/><path d="M1740.662,295.843 L1740.662,293.686 L1748.053,293.686 L1748.053,295.843 L1745.584,295.843 L1745.584,303.921 L1748.053,303.921 L1748.053,306.077 L1740.662,306.077 L1740.662,303.921 L1743.131,303.921 L1743.131,295.843 L1740.662,295.843 Z " fill="#000"/><text x="1758.74" y="304.231" fill="#000" font-size="12" textLength="140.514" font-style="italic" font-family="'Microsoft YaHei'">KnowledgeEdgeService</text><line x1="1730.74" y1="316.077" x2="1901.254" y2="316.077" style="stroke:#000;stroke-width:0.5;"/><line x1="1730.74" y1="324.077" x2="1901.254" y2="324.077" style="stroke:#000;stroke-width:0.5;"/></g><!--class QuestionService--><g class="entity" data-qualified-name="Service ....QuestionService" id="ent0019" data-source-line="83"><rect x="1936.99" y="284.077" width="130.021" height="48" fill="#FFF" style="stroke:#000;stroke-width:0.5;" rx="2.5" ry="2.5"/><ellipse cx="1951.99" cy="300.077" rx="11" ry="11" fill="#B4A7E5" style="stroke:#181818;stroke-width:1;"/><path d="M1947.912,295.843 L1947.912,293.686 L1955.303,293.686 L1955.303,295.843 L1952.834,295.843 L1952.834,303.921 L1955.303,303.921 L1955.303,306.077 L1947.912,306.077 L1947.912,303.921 L1950.381,303.921 L1950.381,295.843 L1947.912,295.843 Z " fill="#000"/><text x="1965.99" y="304.231" fill="#000" font-size="12" textLength="98.021" font-style="italic" font-family="'Microsoft YaHei'">QuestionService</text><line x1="1937.99" y1="316.077" x2="2066.011" y2="316.077" style="stroke:#000;stroke-width:0.5;"/><line x1="1937.99" y1="324.077" x2="2066.011" y2="324.077" style="stroke:#000;stroke-width:0.5;"/></g><!--class StudyPathService--><g class="entity" data-qualified-name="Service ....StudyPathService" id="ent0020" data-source-line="84"><rect x="2102.05" y="284.077" width="137.896" height="48" fill="#FFF" style="stroke:#000;stroke-width:0.5;" rx="2.5" ry="2.5"/><ellipse cx="2117.05" cy="300.077" rx="11" ry="11" fill="#B4A7E5" style="stroke:#181818;stroke-width:1;"/><path d="M2112.972,295.843 L2112.972,293.686 L2120.363,293.686 L2120.363,295.843 L2117.894,295.843 L2117.894,303.921 L2120.363,303.921 L2120.363,306.077 L2112.972,306.077 L2112.972,303.921 L2115.441,303.921 L2115.441,295.843 L2112.972,295.843 Z " fill="#000"/><text x="2131.05" y="304.231" fill="#000" font-size="12" textLength="105.896" font-style="italic" font-family="'Microsoft YaHei'">StudyPathService</text><line x1="2103.05" y1="316.077" x2="2238.946" y2="316.077" style="stroke:#000;stroke-width:0.5;"/><line x1="2103.05" y1="324.077" x2="2238.946" y2="324.077" style="stroke:#000;stroke-width:0.5;"/></g><!--class StudyRecordService--><g class="entity" data-qualified-name="Service ....StudyRecordService" id="ent0021" data-source-line="85"><rect x="1531.4" y="457.267" width="153.207" height="48" fill="#FFF" style="stroke:#000;stroke-width:0.5;" rx="2.5" ry="2.5"/><ellipse cx="1546.4" cy="473.267" rx="11" ry="11" fill="#B4A7E5" style="stroke:#181818;stroke-width:1;"/><path d="M1542.322,469.032 L1542.322,466.876 L1549.713,466.876 L1549.713,469.032 L1547.244,469.032 L1547.244,477.111 L1549.713,477.111 L1549.713,479.267 L1542.322,479.267 L1542.322,477.111 L1544.791,477.111 L1544.791,469.032 L1542.322,469.032 Z " fill="#000"/><text x="1560.4" y="477.421" fill="#000" font-size="12" textLength="121.207" font-style="italic" font-family="'Microsoft YaHei'">StudyRecordService</text><line x1="1532.4" y1="489.267" x2="1683.607" y2="489.267" style="stroke:#000;stroke-width:0.5;"/><line x1="1532.4" y1="497.267" x2="1683.607" y2="497.267" style="stroke:#000;stroke-width:0.5;"/></g><!--class WrongQuestionService--><g class="entity" data-qualified-name="Service ....WrongQuestionService" id="ent0022" data-source-line="86"><rect x="1719.31" y="457.267" width="169.385" height="48" fill="#FFF" style="stroke:#000;stroke-width:0.5;" rx="2.5" ry="2.5"/><ellipse cx="1734.31" cy="473.267" rx="11" ry="11" fill="#B4A7E5" style="stroke:#181818;stroke-width:1;"/><path d="M1730.232,469.032 L1730.232,466.876 L1737.623,466.876 L1737.623,469.032 L1735.154,469.032 L1735.154,477.111 L1737.623,477.111 L1737.623,479.267 L1730.232,479.267 L1730.232,477.111 L1732.701,477.111 L1732.701,469.032 L1730.232,469.032 Z " fill="#000"/><text x="1748.31" y="477.421" fill="#000" font-size="12" textLength="137.385" font-style="italic" font-family="'Microsoft YaHei'">WrongQuestionService</text><line x1="1720.31" y1="489.267" x2="1887.695" y2="489.267" style="stroke:#000;stroke-width:0.5;"/><line x1="1720.31" y1="497.267" x2="1887.695" y2="497.267" style="stroke:#000;stroke-width:0.5;"/></g><!--class ExamService--><g class="entity" data-qualified-name="Service ....ExamService" id="ent0023" data-source-line="87"><rect x="1923.96" y="457.267" width="110.076" height="48" fill="#FFF" style="stroke:#000;stroke-width:0.5;" rx="2.5" ry="2.5"/><ellipse cx="1938.96" cy="473.267" rx="11" ry="11" fill="#B4A7E5" style="stroke:#181818;stroke-width:1;"/><path d="M1934.882,469.032 L1934.882,466.876 L1942.273,466.876 L1942.273,469.032 L1939.804,469.032 L1939.804,477.111 L1942.273,477.111 L1942.273,479.267 L1934.882,479.267 L1934.882,477.111 L1937.351,477.111 L1937.351,469.032 L1934.882,469.032 Z " fill="#000"/><text x="1952.96" y="477.421" fill="#000" font-size="12" textLength="78.076" font-style="italic" font-family="'Microsoft YaHei'">ExamService</text><line x1="1924.96" y1="489.267" x2="2033.036" y2="489.267" style="stroke:#000;stroke-width:0.5;"/><line x1="1924.96" y1="497.267" x2="2033.036" y2="497.267" style="stroke:#000;stroke-width:0.5;"/></g><?plantuml-src dLLDRzD04BttLwnoCY8Su8YgIBGKg4e_I0A8uyOxSPRQtcXtJJ2e4g8IAfS2HyG190GNXAgA2oAb_1etvTI_mApZD8w_ed99x9ctRz-CPzzghbqWQxTFtlywtVqT7Hn5tx-EVWn7mu_a2edUxe--7KHxhwB3bwF3OVJX-Enex-JJp-ZFxjyNmzFZTsT7hnVKDlVxL5AFTAYzxKWH-6nPk4AIGOzhIEKPT6dWwbl2rnlK0r9RvxOKIdGrUKJl0A-biBPBbIBF5mXPAcJ5k90Cv3ZMSH64CKFTui-0NBssi9DYwsEQEd11lZG3bL8CulMpY0bpRHctbi9rGHBiLYs6Zeku4UXUAciIX5mchd2uRzqrlpVRcvV8TT84XUrPZ4CFDXi9JeB3bGPfDPE76NG2Kc3AOM2raeSYa0G5UWib3R1Kf4kzPU4xK_NCutwHVDHoNu5KrZQ4Xg9E406hBBUjBO5gC5Yh5IhpduC4VJOFOlRRx8F4xYZB4onmeKwKfbBN2TPSedvP1591YNnB1Pt7OEjqxp6yE5xKQCpejyRH4kaMn_fB40nSY14b6ZVmSvKfj6FALIJtySHaXQxvOk02Sy1GPFNE9AjaLmFdgL_1XMNgVIHC3qH6jLcQLTqHBBomXdi1ACs5NwsZJgRTPBpRvJRoX5br4wwii4cygfEbc7a5j7J0mCVJMEWK3lWWyyrPNFKrE20R6TXIsEw1DmyTDoPR_3hjdzVDG5FkpcYEyqN2LvvIhwJvww59AYlN4y3m5iKJdMrBx6T1n-CnRNuYfhktWTeza1Mxdn-W4bSgdhVK9_slUOpxNwPeEdgnV-b0vVm7BqNL6djJJ9MpeYoWqfNcWhLm71TQiPPyKQaxhWNo2RU1dEn_YTvyFh_cE4wMx59C9EQTuBAf9juFHIcqzABms4wBCZEELGam5bC4c9pKGgKuqw4vYgN99jXuuHMb7qhXErNaPbQJ-3y0?></g></svg>