<svg xmlns="http://www.w3.org/2000/svg" xmlns:xlink="http://www.w3.org/1999/xlink" contentStyleType="text/css" data-diagram-type="SEQUENCE" height="1092px" preserveAspectRatio="none" style="width:772px;height:1092px;background:#FEFEFE;" version="1.1" viewBox="0 0 772 1092" width="772px" zoomAndPan="magnify"><?plantuml 1.2026.6?><defs/><g><rect fill="#FEFEFE" height="1092" style="stroke:none;stroke-width:1;" width="772" x="0" y="0"/><g class="title" data-source-line="9"><text fill="#000000" font-family="sans-serif" font-size="14" font-weight="700" lengthAdjust="spacing" textLength="121.2285" x="321.9314" y="28.5352">&#23398;&#29983;&#27880;&#20876; &#8212; &#39034;&#24207;&#22270;</text></g><g><title>Vue ..</title><rect fill="#FFFFFF" height="818.5176" style="stroke:#181818;stroke-width:1;" width="10" x="207" y="185.3535"/></g><g><title>SpringBoot</title><rect fill="#FFFFFF" height="192.6406" style="stroke:#181818;stroke-width:1;" width="10" x="495.0425" y="212.3086"/></g><g><title>SpringBoot</title><rect fill="#FFFFFF" height="315.3711" style="stroke:#181818;stroke-width:1;" width="10" x="495.0425" y="564.7246"/></g><g><title>MySQL</title><rect fill="#FFFFFF" height="26.9551" style="stroke:#181818;stroke-width:1;" width="10" x="720.313" y="292.1738"/></g><g><title>MySQL</title><rect fill="#FFFFFF" height="26.9551" style="stroke:#181818;stroke-width:1;" width="10" x="720.313" y="604.6348"/></g><g><title>MySQL</title><rect fill="#FFFFFF" height="26.9551" style="stroke:#181818;stroke-width:1;" width="10" x="720.313" y="746.3652"/></g><g><title>MySQL</title><rect fill="#FFFFFF" height="26.9551" style="stroke:#181818;stroke-width:1;" width="10" x="720.313" y="813.2305"/></g><rect fill="none" height="350.2813" style="stroke:#000000;stroke-width:1.5;" width="746.0913" x="10" y="646.5898"/><g class="participant-lifeline" data-entity-uid="part1" data-qualified-name="S" data-source-line="11" id="part1-lifeline"><g><title>..</title><rect fill="#000000" fill-opacity="0.00000" height="898.4277" width="8" x="30" y="115.4434"/><line style="stroke:#181818;stroke-width:0.5;stroke-dasharray:5,5;" x1="34" x2="34" y1="115.4434" y2="1013.8711"/></g></g><g class="participant-lifeline" data-entity-uid="part2" data-qualified-name="F" data-source-line="12" id="part2-lifeline"><g><title>Vue ..</title><rect fill="#000000" fill-opacity="0.00000" height="898.4277" width="8" x="208" y="115.4434"/><line style="stroke:#181818;stroke-width:0.5;stroke-dasharray:5,5;" x1="211.1863" x2="211.1863" y1="115.4434" y2="1013.8711"/></g></g><g class="participant-lifeline" data-entity-uid="part3" data-qualified-name="B" data-source-line="13" id="part3-lifeline"><g><title>SpringBoot</title><rect fill="#000000" fill-opacity="0.00000" height="898.4277" width="8" x="496.0425" y="115.4434"/><line style="stroke:#181818;stroke-width:0.5;stroke-dasharray:5,5;" x1="499.958" x2="499.958" y1="115.4434" y2="1013.8711"/></g></g><g class="participant-lifeline" data-entity-uid="part4" data-qualified-name="D" data-source-line="14" id="part4-lifeline"><g><title>MySQL</title><rect fill="#000000" fill-opacity="0.00000" height="898.4277" width="8" x="721.313" y="115.4434"/><line style="stroke:#181818;stroke-width:0.5;stroke-dasharray:5,5;" x1="724.5347" x2="724.5347" y1="115.4434" y2="1013.8711"/></g></g><g class="participant participant-head" data-entity-uid="part1" data-qualified-name="S" data-source-line="11" id="part1-head"><text fill="#000000" font-family="sans-serif" font-size="11" lengthAdjust="spacing" textLength="22" x="20" y="113.123">&#23398;&#29983;</text><ellipse cx="34" cy="50.9883" fill="#E2E2F0" rx="8" ry="8" style="stroke:#181818;stroke-width:0.5;"/><path d="M34,58.9883 L34,85.9883 M21,66.9883 L47,66.9883 M34,85.9883 L21,100.9883 M34,85.9883 L47,100.9883" fill="none" style="stroke:#181818;stroke-width:0.5;"/></g><g class="participant participant-tail" data-entity-uid="part1" data-qualified-name="S" data-source-line="11" id="part1-tail"><text fill="#000000" font-family="sans-serif" font-size="11" lengthAdjust="spacing" textLength="22" x="20" y="1023.5059">&#23398;&#29983;</text><ellipse cx="34" cy="1034.3262" fill="#E2E2F0" rx="8" ry="8" style="stroke:#181818;stroke-width:0.5;"/><path d="M34,1042.3262 L34,1069.3262 M21,1050.3262 L47,1050.3262 M34,1069.3262 L21,1084.3262 M34,1069.3262 L47,1084.3262" fill="none" style="stroke:#181818;stroke-width:0.5;"/></g><g class="participant participant-head" data-entity-uid="part2" data-qualified-name="F" data-source-line="12" id="part2-head"><rect fill="#E2E2F0" height="26.9551" rx="2.5" ry="2.5" style="stroke:#181818;stroke-width:0.5;" width="59.6274" x="182.1863" y="87.4883"/><text fill="#000000" font-family="sans-serif" font-size="11" lengthAdjust="spacing" textLength="45.6274" x="189.1863" y="105.123">Vue &#21069;&#31471;</text></g><g class="participant participant-tail" data-entity-uid="part2" data-qualified-name="F" data-source-line="12" id="part2-tail"><rect fill="#E2E2F0" height="26.9551" rx="2.5" ry="2.5" style="stroke:#181818;stroke-width:0.5;" width="59.6274" x="182.1863" y="1012.8711"/><text fill="#000000" font-family="sans-serif" font-size="11" lengthAdjust="spacing" textLength="45.6274" x="189.1863" y="1030.5059">Vue &#21069;&#31471;</text></g><g class="participant participant-head" data-entity-uid="part3" data-qualified-name="B" data-source-line="13" id="part3-head"><rect fill="#E2E2F0" height="39.9102" rx="2.5" ry="2.5" style="stroke:#181818;stroke-width:0.5;" width="72.1689" x="463.958" y="74.5332"/><text fill="#000000" font-family="sans-serif" font-size="11" lengthAdjust="spacing" textLength="58.1689" x="470.958" y="92.168">SpringBoot</text><text fill="#000000" font-family="sans-serif" font-size="11" lengthAdjust="spacing" textLength="22" x="489.0425" y="105.123">&#21518;&#31471;</text></g><g class="participant participant-tail" data-entity-uid="part3" data-qualified-name="B" data-source-line="13" id="part3-tail"><rect fill="#E2E2F0" height="39.9102" rx="2.5" ry="2.5" style="stroke:#181818;stroke-width:0.5;" width="72.1689" x="463.958" y="1012.8711"/><text fill="#000000" font-family="sans-serif" font-size="11" lengthAdjust="spacing" textLength="58.1689" x="470.958" y="1030.5059">SpringBoot</text><text fill="#000000" font-family="sans-serif" font-size="11" lengthAdjust="spacing" textLength="22" x="489.0425" y="1043.4609">&#21518;&#31471;</text></g><g class="participant participant-head" data-entity-uid="part4" data-qualified-name="D" data-source-line="14" id="part4-head"><text fill="#000000" font-family="sans-serif" font-size="11" lengthAdjust="spacing" textLength="35.5566" x="704.5347" y="113.123">MySQL</text><path d="M707.313,66.4883 C707.313,56.4883 725.313,56.4883 725.313,56.4883 C725.313,56.4883 743.313,56.4883 743.313,66.4883 L743.313,92.4883 C743.313,102.4883 725.313,102.4883 725.313,102.4883 C725.313,102.4883 707.313,102.4883 707.313,92.4883 L707.313,66.4883" fill="#E2E2F0" style="stroke:#181818;stroke-width:0.5;"/><path d="M707.313,66.4883 C707.313,76.4883 725.313,76.4883 725.313,76.4883 C725.313,76.4883 743.313,76.4883 743.313,66.4883" fill="none" style="stroke:#181818;stroke-width:0.5;"/></g><g class="participant participant-tail" data-entity-uid="part4" data-qualified-name="D" data-source-line="14" id="part4-tail"><text fill="#000000" font-family="sans-serif" font-size="11" lengthAdjust="spacing" textLength="35.5566" x="704.5347" y="1023.5059">MySQL</text><path d="M707.313,1035.8262 C707.313,1025.8262 725.313,1025.8262 725.313,1025.8262 C725.313,1025.8262 743.313,1025.8262 743.313,1035.8262 L743.313,1061.8262 C743.313,1071.8262 725.313,1071.8262 725.313,1071.8262 C725.313,1071.8262 707.313,1071.8262 707.313,1061.8262 L707.313,1035.8262" fill="#E2E2F0" style="stroke:#181818;stroke-width:0.5;"/><path d="M707.313,1035.8262 C707.313,1045.8262 725.313,1045.8262 725.313,1045.8262 C725.313,1045.8262 743.313,1045.8262 743.313,1035.8262" fill="none" style="stroke:#181818;stroke-width:0.5;"/></g><g><title>Vue ..</title><rect fill="#FFFFFF" height="818.5176" style="stroke:#181818;stroke-width:1;" width="10" x="207" y="185.3535"/></g><g><title>SpringBoot</title><rect fill="#FFFFFF" height="192.6406" style="stroke:#181818;stroke-width:1;" width="10" x="495.0425" y="212.3086"/></g><g><title>SpringBoot</title><rect fill="#FFFFFF" height="315.3711" style="stroke:#181818;stroke-width:1;" width="10" x="495.0425" y="564.7246"/></g><g><title>MySQL</title><rect fill="#FFFFFF" height="26.9551" style="stroke:#181818;stroke-width:1;" width="10" x="720.313" y="292.1738"/></g><g><title>MySQL</title><rect fill="#FFFFFF" height="26.9551" style="stroke:#181818;stroke-width:1;" width="10" x="720.313" y="604.6348"/></g><g><title>MySQL</title><rect fill="#FFFFFF" height="26.9551" style="stroke:#181818;stroke-width:1;" width="10" x="720.313" y="746.3652"/></g><g><title>MySQL</title><rect fill="#FFFFFF" height="26.9551" style="stroke:#181818;stroke-width:1;" width="10" x="720.313" y="813.2305"/></g><rect fill="#EEEEEE" height="3" style="stroke:#EEEEEE;stroke-width:1;" width="766.0913" x="0" y="144.9209"/><line style="stroke:#000000;stroke-width:1;" x1="0" x2="766.0913" y1="144.9209" y2="144.9209"/><line style="stroke:#000000;stroke-width:1;" x1="0" x2="766.0913" y1="147.9209" y2="147.9209"/><rect fill="#EEEEEE" height="20.9551" style="stroke:#000000;stroke-width:2;" width="72.6255" x="346.7329" y="135.4434"/><text fill="#000000" font-family="sans-serif" font-size="11" font-weight="700" lengthAdjust="spacing" textLength="55" x="352.7329" y="150.0781">&#33719;&#21462;&#39564;&#35777;&#30721;</text><g class="message" data-entity-1="part1" data-entity-2="part2" data-source-line="18" id="msg1"><polygon fill="#181818" points="195,181.3535,205,185.3535,195,189.3535,199,185.3535" style="stroke:#181818;stroke-width:1;stroke-linejoin:miter;stroke-miterlimit:10;"/><line style="stroke:#181818;stroke-width:1;" x1="34" x2="201" y1="185.3535" y2="185.3535"/><text fill="#000000" font-family="sans-serif" font-size="11" lengthAdjust="spacing" textLength="154" x="43.5" y="181.0332">&#22635;&#20889;&#27880;&#20876;&#20449;&#24687;&#65292;&#28857;&#20987;&#33719;&#21462;&#39564;&#35777;&#30721;</text></g><g class="message" data-entity-1="part2" data-entity-2="part3" data-source-line="21" id="msg2"><polygon fill="#181818" points="483.0425,208.3086,493.0425,212.3086,483.0425,216.3086,487.0425,212.3086" style="stroke:#181818;stroke-width:1;stroke-linejoin:miter;stroke-miterlimit:10;"/><line style="stroke:#181818;stroke-width:1;" x1="217" x2="489.0425" y1="212.3086" y2="212.3086"/><text fill="#000000" font-family="sans-serif" font-size="11" lengthAdjust="spacing" textLength="259.0425" x="226.5" y="207.9883">GET /user/send-code?email=xxx&amp;type=register</text></g><g class="message" data-entity-1="part3" data-entity-2="part3" data-source-line="24" id="msg3"><line style="stroke:#181818;stroke-width:1;" x1="505.0425" x2="547.0425" y1="239.2637" y2="239.2637"/><line style="stroke:#181818;stroke-width:1;" x1="547.0425" x2="547.0425" y1="239.2637" y2="252.2637"/><line style="stroke:#181818;stroke-width:1;" x1="506.0425" x2="547.0425" y1="252.2637" y2="252.2637"/><polygon fill="#181818" points="516.0425,248.2637,506.0425,252.2637,516.0425,256.2637,512.0425,252.2637" style="stroke:#181818;stroke-width:1;stroke-linejoin:miter;stroke-miterlimit:10;"/><text fill="#000000" font-family="sans-serif" font-size="11" lengthAdjust="spacing" textLength="101.9165" x="512.0425" y="234.9434">&#29983;&#25104; 6 &#20301;&#38543;&#26426;&#39564;&#35777;&#30721;</text></g><g class="message" data-entity-1="part3" data-entity-2="part4" data-source-line="26" id="msg4"><polygon fill="#181818" points="708.313,288.1738,718.313,292.1738,708.313,296.1738,712.313,292.1738" style="stroke:#181818;stroke-width:1;stroke-linejoin:miter;stroke-miterlimit:10;"/><line style="stroke:#181818;stroke-width:1;" x1="505.0425" x2="714.313" y1="292.1738" y2="292.1738"/><text fill="#000000" font-family="sans-serif" font-size="11" lengthAdjust="spacing" textLength="153.0869" x="536.1343" y="274.8984">INSERT INTO sys_email_code</text><text fill="#000000" font-family="sans-serif" font-size="11" lengthAdjust="spacing" textLength="168.0239" x="528.6658" y="287.8535">(email, code, type, expire_time)</text></g><g class="message" data-entity-1="part4" data-entity-2="part3" data-source-line="28" id="msg5"><polygon fill="#181818" points="516.0425,315.1289,506.0425,319.1289,516.0425,323.1289,512.0425,319.1289" style="stroke:#181818;stroke-width:1;stroke-linejoin:miter;stroke-miterlimit:10;"/><line style="stroke:#181818;stroke-width:1;stroke-dasharray:2,2;" x1="510.0425" x2="724.313" y1="319.1289" y2="319.1289"/><text fill="#000000" font-family="sans-serif" font-size="11" lengthAdjust="spacing" textLength="15.7266" x="607.3145" y="314.8086">OK</text></g><path d="M510,332.1289 L510,380.1289 L641,380.1289 L641,342.1289 L631,332.1289 L510,332.1289" fill="#FEFFDD" style="stroke:#181818;stroke-width:0.5;"/><path d="M631,332.1289 L631,342.1289 L641,342.1289 L631,332.1289" fill="#FEFFDD" style="stroke:#181818;stroke-width:0.5;"/><text fill="#000000" font-family="sans-serif" font-size="11" lengthAdjust="spacing" textLength="110.3706" x="516" y="347.7637">&#24320;&#21457;&#38454;&#27573;&#36890;&#36807; console</text><text fill="#000000" font-family="sans-serif" font-size="11" lengthAdjust="spacing" textLength="110" x="516" y="360.7188">&#36755;&#20986;&#39564;&#35777;&#30721;&#65292;&#29983;&#20135;&#29615;&#22659;</text><text fill="#000000" font-family="sans-serif" font-size="11" lengthAdjust="spacing" textLength="66" x="516" y="373.6738">&#23545;&#25509;&#37038;&#20214;&#26381;&#21153;</text><g class="message" data-entity-1="part3" data-entity-2="part2" data-source-line="37" id="msg6"><polygon fill="#181818" points="228,400.9492,218,404.9492,228,408.9492,224,404.9492" style="stroke:#181818;stroke-width:1;stroke-linejoin:miter;stroke-miterlimit:10;"/><line style="stroke:#181818;stroke-width:1;stroke-dasharray:2,2;" x1="222" x2="499.0425" y1="404.9492" y2="404.9492"/><text fill="#000000" font-family="sans-serif" font-size="11" lengthAdjust="spacing" textLength="135.0078" x="291.0173" y="400.6289">{message: "&#39564;&#35777;&#30721;&#24050;&#21457;&#36865;"}</text></g><g class="message" data-entity-1="part2" data-entity-2="part1" data-source-line="40" id="msg7"><polygon fill="#181818" points="45,427.9043,35,431.9043,45,435.9043,41,431.9043" style="stroke:#181818;stroke-width:1;stroke-linejoin:miter;stroke-miterlimit:10;"/><line style="stroke:#181818;stroke-width:1;stroke-dasharray:2,2;" x1="39" x2="206" y1="431.9043" y2="431.9043"/><text fill="#000000" font-family="sans-serif" font-size="11" lengthAdjust="spacing" textLength="129.2178" x="55.8911" y="427.584">&#25552;&#31034;"&#39564;&#35777;&#30721;&#24050;&#21457;&#36865;&#33267;&#37038;&#31665;"</text></g><rect fill="#EEEEEE" height="3" style="stroke:#EEEEEE;stroke-width:1;" width="766.0913" x="0" y="484.3818"/><line style="stroke:#000000;stroke-width:1;" x1="0" x2="766.0913" y1="484.3818" y2="484.3818"/><line style="stroke:#000000;stroke-width:1;" x1="0" x2="766.0913" y1="487.3818" y2="487.3818"/><rect fill="#EEEEEE" height="20.9551" style="stroke:#000000;stroke-width:2;" width="61.6255" x="352.2329" y="474.9043"/><text fill="#000000" font-family="sans-serif" font-size="11" font-weight="700" lengthAdjust="spacing" textLength="44" x="358.2329" y="489.5391">&#25552;&#20132;&#27880;&#20876;</text><g class="message" data-entity-1="part1" data-entity-2="part2" data-source-line="46" id="msg8"><polygon fill="#181818" points="195,520.8145,205,524.8145,195,528.8145,199,524.8145" style="stroke:#181818;stroke-width:1;stroke-linejoin:miter;stroke-miterlimit:10;"/><line style="stroke:#181818;stroke-width:1;" x1="34" x2="201" y1="524.8145" y2="524.8145"/><text fill="#000000" font-family="sans-serif" font-size="11" lengthAdjust="spacing" textLength="110" x="65.5" y="520.4941">&#36755;&#20837;&#39564;&#35777;&#30721;&#65292;&#28857;&#20987;&#27880;&#20876;</text></g><g class="message" data-entity-1="part2" data-entity-2="part3" data-source-line="47" id="msg9"><polygon fill="#181818" points="483.0425,560.7246,493.0425,564.7246,483.0425,568.7246,487.0425,564.7246" style="stroke:#181818;stroke-width:1;stroke-linejoin:miter;stroke-miterlimit:10;"/><line style="stroke:#181818;stroke-width:1;" x1="217" x2="489.0425" y1="564.7246" y2="564.7246"/><text fill="#000000" font-family="sans-serif" font-size="11" lengthAdjust="spacing" textLength="106.6055" x="302.7185" y="547.4492">POST /user/register</text><text fill="#000000" font-family="sans-serif" font-size="11" lengthAdjust="spacing" textLength="185.5444" x="263.249" y="560.4043">{username, email, code, password}</text></g><g class="message" data-entity-1="part3" data-entity-2="part4" data-source-line="50" id="msg10"><polygon fill="#181818" points="708.313,600.6348,718.313,604.6348,708.313,608.6348,712.313,604.6348" style="stroke:#181818;stroke-width:1;stroke-linejoin:miter;stroke-miterlimit:10;"/><line style="stroke:#181818;stroke-width:1;" x1="505.0425" x2="714.313" y1="604.6348" y2="604.6348"/><text fill="#000000" font-family="sans-serif" font-size="11" lengthAdjust="spacing" textLength="77" x="574.1777" y="587.3594">&#26657;&#39564;&#36134;&#21495;&#21807;&#19968;&#24615;</text><text fill="#000000" font-family="sans-serif" font-size="11" lengthAdjust="spacing" textLength="78.2246" x="573.5654" y="600.3145">+ &#39564;&#35777;&#30721;&#26377;&#25928;&#24615;</text></g><g class="message" data-entity-1="part4" data-entity-2="part3" data-source-line="52" id="msg11"><polygon fill="#181818" points="516.0425,627.5898,506.0425,631.5898,516.0425,635.5898,512.0425,631.5898" style="stroke:#181818;stroke-width:1;stroke-linejoin:miter;stroke-miterlimit:10;"/><line style="stroke:#181818;stroke-width:1;stroke-dasharray:2,2;" x1="510.0425" x2="724.313" y1="631.5898" y2="631.5898"/><text fill="#000000" font-family="sans-serif" font-size="11" lengthAdjust="spacing" textLength="44" x="593.1777" y="627.2695">&#26657;&#39564;&#32467;&#26524;</text></g><path d="M10,646.5898 L69.502,646.5898 L69.502,651.5449 L59.502,661.5449 L10,661.5449 L10,646.5898" fill="#EEEEEE" style="stroke:#000000;stroke-width:1.5;"/><rect fill="none" height="350.2813" style="stroke:#000000;stroke-width:1.5;" width="746.0913" x="10" y="646.5898"/><text fill="#000000" font-family="sans-serif" font-size="11" font-weight="700" lengthAdjust="spacing" textLength="14.502" x="25" y="658.2246">alt</text><text fill="#000000" font-family="sans-serif" font-size="11" font-weight="700" lengthAdjust="spacing" textLength="52.1533" x="84.502" y="659.2246">[&#26657;&#39564;&#36890;&#36807;]</text><g class="message" data-entity-1="part3" data-entity-2="part3" data-source-line="56" id="msg12"><line style="stroke:#181818;stroke-width:1;" x1="505.0425" x2="547.0425" y1="693.4551" y2="693.4551"/><line style="stroke:#181818;stroke-width:1;" x1="547.0425" x2="547.0425" y1="693.4551" y2="706.4551"/><line style="stroke:#181818;stroke-width:1;" x1="506.0425" x2="547.0425" y1="706.4551" y2="706.4551"/><polygon fill="#181818" points="516.0425,702.4551,506.0425,706.4551,516.0425,710.4551,512.0425,706.4551" style="stroke:#181818;stroke-width:1;stroke-linejoin:miter;stroke-miterlimit:10;"/><text fill="#000000" font-family="sans-serif" font-size="11" lengthAdjust="spacing" textLength="72.1499" x="521.6997" y="676.1797">MD5 &#21152;&#23494;&#23494;&#30721;</text><text fill="#000000" font-family="sans-serif" font-size="11" lengthAdjust="spacing" textLength="91.4644" x="512.0425" y="689.1348">role_id = 3 (&#23398;&#29983;)</text></g><g class="message" data-entity-1="part3" data-entity-2="part4" data-source-line="58" id="msg13"><polygon fill="#181818" points="708.313,742.3652,718.313,746.3652,708.313,750.3652,712.313,746.3652" style="stroke:#181818;stroke-width:1;stroke-linejoin:miter;stroke-miterlimit:10;"/><line style="stroke:#181818;stroke-width:1;" x1="505.0425" x2="714.313" y1="746.3652" y2="746.3652"/><text fill="#000000" font-family="sans-serif" font-size="11" lengthAdjust="spacing" textLength="116.3755" x="554.49" y="729.0898">INSERT INTO sys_user</text><text fill="#000000" font-family="sans-serif" font-size="11" lengthAdjust="spacing" textLength="196.2705" x="514.5425" y="742.0449">(username, password, email, role_id)</text></g><g class="message" data-entity-1="part4" data-entity-2="part3" data-source-line="60" id="msg14"><polygon fill="#181818" points="516.0425,769.3203,506.0425,773.3203,516.0425,777.3203,512.0425,773.3203" style="stroke:#181818;stroke-width:1;stroke-linejoin:miter;stroke-miterlimit:10;"/><line style="stroke:#181818;stroke-width:1;stroke-dasharray:2,2;" x1="510.0425" x2="724.313" y1="773.3203" y2="773.3203"/><text fill="#000000" font-family="sans-serif" font-size="11" lengthAdjust="spacing" textLength="15.7266" x="607.3145" y="769">OK</text></g><g class="message" data-entity-1="part3" data-entity-2="part4" data-source-line="63" id="msg15"><polygon fill="#181818" points="708.313,809.2305,718.313,813.2305,708.313,817.2305,712.313,813.2305" style="stroke:#181818;stroke-width:1;stroke-linejoin:miter;stroke-miterlimit:10;"/><line style="stroke:#181818;stroke-width:1;" x1="505.0425" x2="714.313" y1="813.2305" y2="813.2305"/><text fill="#000000" font-family="sans-serif" font-size="11" lengthAdjust="spacing" textLength="128.165" x="548.5952" y="795.9551">UPDATE sys_email_code</text><text fill="#000000" font-family="sans-serif" font-size="11" lengthAdjust="spacing" textLength="84.7559" x="570.2998" y="808.9102">SET is_used = 1</text></g><g class="message" data-entity-1="part4" data-entity-2="part3" data-source-line="65" id="msg16"><polygon fill="#181818" points="516.0425,836.1855,506.0425,840.1855,516.0425,844.1855,512.0425,840.1855" style="stroke:#181818;stroke-width:1;stroke-linejoin:miter;stroke-miterlimit:10;"/><line style="stroke:#181818;stroke-width:1;stroke-dasharray:2,2;" x1="510.0425" x2="724.313" y1="840.1855" y2="840.1855"/><text fill="#000000" font-family="sans-serif" font-size="11" lengthAdjust="spacing" textLength="15.7266" x="607.3145" y="835.8652">OK</text></g><g class="message" data-entity-1="part3" data-entity-2="part2" data-source-line="68" id="msg17"><polygon fill="#181818" points="228,876.0957,218,880.0957,228,884.0957,224,880.0957" style="stroke:#181818;stroke-width:1;stroke-linejoin:miter;stroke-miterlimit:10;"/><line style="stroke:#181818;stroke-width:1;stroke-dasharray:2,2;" x1="222" x2="499.0425" y1="880.0957" y2="880.0957"/><text fill="#000000" font-family="sans-serif" font-size="11" lengthAdjust="spacing" textLength="40.0737" x="338.4844" y="862.8203">200 OK</text><text fill="#000000" font-family="sans-serif" font-size="11" lengthAdjust="spacing" textLength="113.0078" x="302.0173" y="875.7754">{message: "&#27880;&#20876;&#25104;&#21151;"}</text></g><g class="message" data-entity-1="part2" data-entity-2="part1" data-source-line="70" id="msg18"><polygon fill="#181818" points="45,903.0508,35,907.0508,45,911.0508,41,907.0508" style="stroke:#181818;stroke-width:1;stroke-linejoin:miter;stroke-miterlimit:10;"/><line style="stroke:#181818;stroke-width:1;stroke-dasharray:2,2;" x1="39" x2="206" y1="907.0508" y2="907.0508"/><text fill="#000000" font-family="sans-serif" font-size="11" lengthAdjust="spacing" textLength="55" x="93" y="902.7305">&#36339;&#36716;&#30331;&#24405;&#39029;</text></g><line style="stroke:#000000;stroke-width:1;stroke-dasharray:2,2;" x1="10" x2="756.0913" y1="916.0508" y2="916.0508"/><text fill="#000000" font-family="sans-serif" font-size="11" font-weight="700" lengthAdjust="spacing" textLength="52.1533" x="15" y="926.6855">[&#26657;&#39564;&#22833;&#36133;]</text><g class="message" data-entity-1="part3" data-entity-2="part2" data-source-line="73" id="msg19"><polygon fill="#181818" points="228,957.916,218,961.916,228,965.916,224,961.916" style="stroke:#181818;stroke-width:1;stroke-linejoin:miter;stroke-miterlimit:10;"/><line style="stroke:#181818;stroke-width:1;stroke-dasharray:2,2;" x1="222" x2="499.0425" y1="961.916" y2="961.916"/><text fill="#000000" font-family="sans-serif" font-size="11" lengthAdjust="spacing" textLength="89.8369" x="313.6028" y="944.6406">400 Bad Request</text><text fill="#000000" font-family="sans-serif" font-size="11" lengthAdjust="spacing" textLength="184.7764" x="266.1331" y="957.5957">{message: "&#39564;&#35777;&#30721;&#38169;&#35823;/&#36134;&#21495;&#24050;&#23384;&#22312;"}</text></g><g class="message" data-entity-1="part2" data-entity-2="part1" data-source-line="75" id="msg20"><polygon fill="#181818" points="45,984.8711,35,988.8711,45,992.8711,41,988.8711" style="stroke:#181818;stroke-width:1;stroke-linejoin:miter;stroke-miterlimit:10;"/><line style="stroke:#181818;stroke-width:1;stroke-dasharray:2,2;" x1="39" x2="206" y1="988.8711" y2="988.8711"/><text fill="#000000" font-family="sans-serif" font-size="11" lengthAdjust="spacing" textLength="66" x="87.5" y="984.5508">&#26174;&#31034;&#38169;&#35823;&#25552;&#31034;</text></g><?plantuml-src fLHRJnj757wVNt7aIarGGOJU7YAvLLpZgceeQPRqoHAQU2VkAlQikpjkeI6IdQeseO29ubH0hO8hI53Ji4g1qDXS_alhcLq_vIzqPdTz8qYLchMbtPbp-SuvtpTp0Q9lyA0BqAutUAF2Vpc1lmjL47ixlBGe3ehkpa_IA3RBl5o26nDNNnsjkzKD_k3ORPp-KoYAquBORufwINxZ31ib6Pl8Jseo8iFUg2Jxja5psC9Pk8bJjzEMcQVw9sR6jE2jnBZwzNdev1REPrZ2f4mplYSmDjPdjCatUK9JP8BODawJAnaZJI55A2CMGinW6GBysMFPLT2qttzt6WZX59EOaS0b0jW63Sd4p4WPEKmPHBxAomJtbzodZczD35grd6NGTCmqMPBobUMELmpfcE6Rs2OGcPZLlhpgxyOHYaR1MpxabP_RlozwJj7TBCen8gJ1o4UGWCl0wqzvQIqejNLQ5qNdrT6YU-ybBpVFnAdAZMyn8x8ab53nCHd_wVWKZEPjOetQXEeZALCd7vCiDZBHcPcPjzbiZaGjaZPiDPrkWXX2iKu2DQZv5VWGMiTBxVMAg3LwY85NN7fzzeKsVdrAlgOcmPwrfts8QOMMf1VznJ2erJ0eo64WCpd38jFCo9AX7cuSnM4an9ty7EcapuAKoC0oqbypC6_94a4-_AZ0Am_Qgo_4xa6xiEwTbYKAjSqCyStUoKDUxjMh9bVTQ3MUkCiE_-s788FpKYnlj-_jjfelH6s9BzIHd1FuYbRjXJJSoGPgkWoHRZf--AS2BnGZT_jBZVdJbt6QZ1EL5NUhSKwCLzwJeExkymX2StDplX2aSwkn5SfoG0MgaH-t1nhn9H3uzjY-DgbrwEwmcgHtr9hYh1fxFnCvRDlVcPP-ztNY5QLYiwu0zn_poY6lEgs_2gBm94dVWMuPedPVF9gNk-Sp62Hmcm_5hxKpNCgx8pG7hFbKT2Kt4Vy0-C8cTqhoBt6Ir9ACJXiwHE4zk1WSpI7K2pfFWQffgRrUxvrskrC8amxvUVggKyi17QgDmVe7a6zSYr-P6dzDzfeyUOPVXwfxxF-ZX1fuzz8bwIRfx4anlBRdL_Z2XXJXcGp14UbfqJlSyux_SDUQ_FXHktw0aBgzGnhurdDlV_iCuliICOPrkAvkL9iDG7T5qAwkUOup6kf4ollPAg_j_7SrOlL4demWEZWbwk2XVg4aqBy0?></g></svg>