<?xml version="1.0" encoding="UTF-8" standalone="no"?>
<!DOCTYPE svg PUBLIC "-//W3C//DTD SVG 1.1//EN"
 "http://www.w3.org/Graphics/SVG/1.1/DTD/svg11.dtd">
<!-- Generated by graphviz version 15.1.0 (20260618.0150)
 -->
<!-- Title: 学生活动图_4_3_紧凑版 Pages: 1 -->
<svg width="1953pt" height="1500pt"
 viewBox="0.00 0.00 1953.00 1500.00" xmlns="http://www.w3.org/2000/svg" xmlns:xlink="http://www.w3.org/1999/xlink">
<g id="graph0" class="graph" transform="scale(1.05775 1.05775) rotate(0) translate(4 1414.1)">
<title>学生活动图_4_3_紧凑版</title>
<polygon fill="white" stroke="none" points="-4,4 -4,-1414.1 1842.47,-1414.1 1842.47,4 -4,4"/>
<text xml:space="preserve" text-anchor="middle" x="919.23" y="-1390.9" font-family="PingFang SC,Microsoft YaHei,sans-serif" font-size="16.00">学生完整学习流程 — 活动图 (4:3 紧凑放大版)</text>
<g id="clust1" class="cluster">
<title>cluster_0</title>
<polygon fill="#f0f4f8" stroke="#b0c4de" stroke-dasharray="5,2" points="20.04,-905.3 20.04,-1352.85 914.32,-1352.85 914.32,-905.3 20.04,-905.3"/>
<text xml:space="preserve" text-anchor="middle" x="467.18" y="-1338.4" font-family="PingFang SC,Microsoft YaHei,sans-serif" font-size="11.00">一、系统访问与路径规划</text>
</g>
<g id="clust2" class="cluster">
<title>cluster_1</title>
<polygon fill="#f5f5f5" stroke="#d3d3d3" stroke-dasharray="5,2" points="30.06,-8 30.06,-897.3 931.86,-897.3 931.86,-8 30.06,-8"/>
<text xml:space="preserve" text-anchor="middle" x="480.96" y="-882.85" font-family="PingFang SC,Microsoft YaHei,sans-serif" font-size="11.00">二、知识点精修与闭环练习</text>
</g>
<g id="clust3" class="cluster">
<title>cluster_2</title>
<polygon fill="#f4f9f4" stroke="#bcdeb0" stroke-dasharray="5,2" points="951.9,-203.6 951.9,-784.55 1758.51,-784.55 1758.51,-203.6 951.9,-203.6"/>
<text xml:space="preserve" text-anchor="middle" x="1355.2" y="-770.1" font-family="PingFang SC,Microsoft YaHei,sans-serif" font-size="11.00">三、章节学情测评与错题强化</text>
</g>
<!-- start -->
<g id="node1" class="node">
<title>start</title>
<ellipse fill="black" stroke="black" cx="175.02" cy="-1370" rx="9" ry="9"/>
</g>
<!-- a1 -->
<g id="node4" class="node">
<title>a1</title>
<path fill="#fbfbfb" stroke="#444444" stroke-width="1.2" d="M212.22,-1321.4C212.22,-1321.4 137.82,-1321.4 137.82,-1321.4 133.02,-1321.4 128.22,-1316.6 128.22,-1311.8 128.22,-1311.8 128.22,-1302.2 128.22,-1302.2 128.22,-1297.4 133.02,-1292.6 137.82,-1292.6 137.82,-1292.6 212.22,-1292.6 212.22,-1292.6 217.02,-1292.6 221.82,-1297.4 221.82,-1302.2 221.82,-1302.2 221.82,-1311.8 221.82,-1311.8 221.82,-1316.6 217.02,-1321.4 212.22,-1321.4"/>
<text xml:space="preserve" text-anchor="middle" x="175.02" y="-1305" font-family="PingFang SC,Microsoft YaHei,sans-serif" font-size="10.00">访问系统</text>
</g>
<!-- start&#45;&gt;a1 -->
<g id="edge1" class="edge">
<title>start&#45;&gt;a1</title>
<path fill="none" stroke="#555555" stroke-width="1.1" d="M175.02,-1360.52C175.02,-1353.43 175.02,-1342.94 175.02,-1333.2"/>
<polygon fill="#555555" stroke="#555555" stroke-width="1.1" points="178.52,-1333.23 175.02,-1323.23 171.52,-1333.23 178.52,-1333.23"/>
</g>
<!-- stop_node -->
<g id="node2" class="node">
<title>stop_node</title>
<ellipse fill="black" stroke="black" cx="1809.02" cy="-414" rx="7.92" ry="7.92"/>
<ellipse fill="none" stroke="black" cx="1809.02" cy="-414" rx="11.92" ry="11.92"/>
</g>
<!-- detach_node -->
<g id="node3" class="node">
<title>detach_node</title>
<ellipse fill="black" stroke="black" cx="1480.02" cy="-177" rx="5.4" ry="5.4"/>
</g>
<!-- d1 -->
<g id="node13" class="node">
<title>d1</title>
<polygon fill="#ffffff" stroke="#444444" stroke-width="1.2" points="175.02,-1274.2 125.9,-1258 175.02,-1241.8 224.14,-1258 175.02,-1274.2"/>
<text xml:space="preserve" text-anchor="middle" x="175.02" y="-1256.1" font-family="PingFang SC,Microsoft YaHei,sans-serif" font-size="9.50">已注册?</text>
</g>
<!-- a1&#45;&gt;d1 -->
<g id="edge2" class="edge">
<title>a1&#45;&gt;d1</title>
<path fill="none" stroke="#555555" stroke-width="1.1" d="M175.02,-1292.15C175.02,-1290.25 175.02,-1288.25 175.02,-1286.21"/>
<polygon fill="#555555" stroke="#555555" stroke-width="1.1" points="178.52,-1286.23 175.02,-1276.23 171.52,-1286.23 178.52,-1286.23"/>
</g>
<!-- a2 -->
<g id="node5" class="node">
<title>a2</title>
<path fill="#fbfbfb" stroke="#444444" stroke-width="1.2" d="M498.22,-1272.4C498.22,-1272.4 423.82,-1272.4 423.82,-1272.4 419.02,-1272.4 414.22,-1267.6 414.22,-1262.8 414.22,-1262.8 414.22,-1253.2 414.22,-1253.2 414.22,-1248.4 419.02,-1243.6 423.82,-1243.6 423.82,-1243.6 498.22,-1243.6 498.22,-1243.6 503.02,-1243.6 507.82,-1248.4 507.82,-1253.2 507.82,-1253.2 507.82,-1262.8 507.82,-1262.8 507.82,-1267.6 503.02,-1272.4 498.22,-1272.4"/>
<text xml:space="preserve" text-anchor="middle" x="461.02" y="-1256" font-family="PingFang SC,Microsoft YaHei,sans-serif" font-size="10.00">注册</text>
</g>
<!-- a3 -->
<g id="node6" class="node">
<title>a3</title>
<path fill="#fbfbfb" stroke="#444444" stroke-width="1.2" d="M225.22,-1223.4C225.22,-1223.4 150.82,-1223.4 150.82,-1223.4 146.02,-1223.4 141.22,-1218.6 141.22,-1213.8 141.22,-1213.8 141.22,-1204.2 141.22,-1204.2 141.22,-1199.4 146.02,-1194.6 150.82,-1194.6 150.82,-1194.6 225.22,-1194.6 225.22,-1194.6 230.02,-1194.6 234.82,-1199.4 234.82,-1204.2 234.82,-1204.2 234.82,-1213.8 234.82,-1213.8 234.82,-1218.6 230.02,-1223.4 225.22,-1223.4"/>
<text xml:space="preserve" text-anchor="middle" x="188.02" y="-1207" font-family="PingFang SC,Microsoft YaHei,sans-serif" font-size="10.00">登录系统</text>
</g>
<!-- a2&#45;&gt;a3 -->
<g id="edge4" class="edge">
<title>a2&#45;&gt;a3</title>
<path fill="none" stroke="#555555" stroke-width="1.1" d="M413.78,-1248.87C367.34,-1240.87 296.36,-1228.65 246.41,-1220.05"/>
<polygon fill="#555555" stroke="#555555" stroke-width="1.1" points="247.23,-1216.64 236.78,-1218.39 246.04,-1223.54 247.23,-1216.64"/>
</g>
<!-- d2 -->
<g id="node14" class="node">
<title>d2</title>
<polygon fill="#ffffff" stroke="#444444" stroke-width="1.2" points="188.02,-1177.2 129.41,-1161 188.02,-1144.8 246.63,-1161 188.02,-1177.2"/>
<text xml:space="preserve" text-anchor="middle" x="188.02" y="-1159.1" font-family="PingFang SC,Microsoft YaHei,sans-serif" font-size="9.50">首次登录?</text>
</g>
<!-- a3&#45;&gt;d2 -->
<g id="edge6" class="edge">
<title>a3&#45;&gt;d2</title>
<path fill="none" stroke="#555555" stroke-width="1.1" d="M188.02,-1194.45C188.02,-1192.71 188.02,-1190.88 188.02,-1189.02"/>
<polygon fill="#555555" stroke="#555555" stroke-width="1.1" points="191.52,-1189.22 188.02,-1179.22 184.52,-1189.22 191.52,-1189.22"/>
</g>
<!-- a4 -->
<g id="node7" class="node">
<title>a4</title>
<path fill="#fbfbfb" stroke="#444444" stroke-width="1.2" d="M814.22,-1175.4C814.22,-1175.4 739.82,-1175.4 739.82,-1175.4 735.02,-1175.4 730.22,-1170.6 730.22,-1165.8 730.22,-1165.8 730.22,-1156.2 730.22,-1156.2 730.22,-1151.4 735.02,-1146.6 739.82,-1146.6 739.82,-1146.6 814.22,-1146.6 814.22,-1146.6 819.02,-1146.6 823.82,-1151.4 823.82,-1156.2 823.82,-1156.2 823.82,-1165.8 823.82,-1165.8 823.82,-1170.6 819.02,-1175.4 814.22,-1175.4"/>
<text xml:space="preserve" text-anchor="middle" x="777.02" y="-1159" font-family="PingFang SC,Microsoft YaHei,sans-serif" font-size="10.00">新手引导</text>
</g>
<!-- a7 -->
<g id="node10" class="node">
<title>a7</title>
<path fill="#fbfbfb" stroke="#444444" stroke-width="1.2" d="M648.22,-1035.4C648.22,-1035.4 573.82,-1035.4 573.82,-1035.4 569.02,-1035.4 564.22,-1030.6 564.22,-1025.8 564.22,-1025.8 564.22,-1016.2 564.22,-1016.2 564.22,-1011.4 569.02,-1006.6 573.82,-1006.6 573.82,-1006.6 648.22,-1006.6 648.22,-1006.6 653.02,-1006.6 657.82,-1011.4 657.82,-1016.2 657.82,-1016.2 657.82,-1025.8 657.82,-1025.8 657.82,-1030.6 653.02,-1035.4 648.22,-1035.4"/>
<text xml:space="preserve" text-anchor="middle" x="611.02" y="-1019" font-family="PingFang SC,Microsoft YaHei,sans-serif" font-size="10.00">浏览3D知识图谱</text>
</g>
<!-- a4&#45;&gt;a7 -->
<g id="edge8" class="edge">
<title>a4&#45;&gt;a7</title>
<path fill="none" stroke="#555555" stroke-width="1.1" d="M751.16,-1146.13C741.41,-1140.49 730.4,-1133.63 721.02,-1126.5 687.46,-1101.02 652.89,-1066.58 631.68,-1044.33"/>
<polygon fill="#555555" stroke="#555555" stroke-width="1.1" points="634.26,-1041.96 624.85,-1037.09 629.17,-1046.77 634.26,-1041.96"/>
</g>
<!-- a5 -->
<g id="node8" class="node">
<title>a5</title>
<path fill="#fbfbfb" stroke="#444444" stroke-width="1.2" d="M533.22,-1175.4C533.22,-1175.4 458.82,-1175.4 458.82,-1175.4 454.02,-1175.4 449.22,-1170.6 449.22,-1165.8 449.22,-1165.8 449.22,-1156.2 449.22,-1156.2 449.22,-1151.4 454.02,-1146.6 458.82,-1146.6 458.82,-1146.6 533.22,-1146.6 533.22,-1146.6 538.02,-1146.6 542.82,-1151.4 542.82,-1156.2 542.82,-1156.2 542.82,-1165.8 542.82,-1165.8 542.82,-1170.6 538.02,-1175.4 533.22,-1175.4"/>
<text xml:space="preserve" text-anchor="middle" x="496.02" y="-1159" font-family="PingFang SC,Microsoft YaHei,sans-serif" font-size="10.00">学情看板</text>
</g>
<!-- d3 -->
<g id="node15" class="node">
<title>d3</title>
<polygon fill="#ffffff" stroke="#444444" stroke-width="1.2" points="436.02,-1126.5 385.52,-1090 436.02,-1053.5 486.52,-1090 436.02,-1126.5"/>
<text xml:space="preserve" text-anchor="middle" x="436.02" y="-1095.22" font-family="PingFang SC,Microsoft YaHei,sans-serif" font-size="9.50">有进行</text>
<text xml:space="preserve" text-anchor="middle" x="436.02" y="-1080.97" font-family="PingFang SC,Microsoft YaHei,sans-serif" font-size="9.50">中路径?</text>
</g>
<!-- a5&#45;&gt;d3 -->
<g id="edge10" class="edge">
<title>a5&#45;&gt;d3</title>
<path fill="none" stroke="#555555" stroke-width="1.1" d="M483.88,-1146.04C477.78,-1139.02 470.13,-1130.23 462.75,-1121.74"/>
<polygon fill="#555555" stroke="#555555" stroke-width="1.1" points="465.53,-1119.6 456.32,-1114.35 460.24,-1124.19 465.53,-1119.6"/>
</g>
<!-- a6 -->
<g id="node9" class="node">
<title>a6</title>
<path fill="#fbfbfb" stroke="#444444" stroke-width="1.2" d="M814.22,-1104.4C814.22,-1104.4 739.82,-1104.4 739.82,-1104.4 735.02,-1104.4 730.22,-1099.6 730.22,-1094.8 730.22,-1094.8 730.22,-1085.2 730.22,-1085.2 730.22,-1080.4 735.02,-1075.6 739.82,-1075.6 739.82,-1075.6 814.22,-1075.6 814.22,-1075.6 819.02,-1075.6 823.82,-1080.4 823.82,-1085.2 823.82,-1085.2 823.82,-1094.8 823.82,-1094.8 823.82,-1099.6 819.02,-1104.4 814.22,-1104.4"/>
<text xml:space="preserve" text-anchor="middle" x="777.02" y="-1088" font-family="PingFang SC,Microsoft YaHei,sans-serif" font-size="10.00">快捷续学</text>
</g>
<!-- a6&#45;&gt;a7 -->
<g id="edge12" class="edge">
<title>a6&#45;&gt;a7</title>
<path fill="none" stroke="#555555" stroke-width="1.1" d="M742.62,-1075.12C717.67,-1065.04 683.66,-1051.32 656.47,-1040.34"/>
<polygon fill="#555555" stroke="#555555" stroke-width="1.1" points="657.78,-1037.1 647.2,-1036.6 655.16,-1043.59 657.78,-1037.1"/>
</g>
<!-- a8 -->
<g id="node11" class="node">
<title>a8</title>
<path fill="#fbfbfb" stroke="#444444" stroke-width="1.2" d="M648.22,-988.4C648.22,-988.4 573.82,-988.4 573.82,-988.4 569.02,-988.4 564.22,-983.6 564.22,-978.8 564.22,-978.8 564.22,-969.2 564.22,-969.2 564.22,-964.4 569.02,-959.6 573.82,-959.6 573.82,-959.6 648.22,-959.6 648.22,-959.6 653.02,-959.6 657.82,-964.4 657.82,-969.2 657.82,-969.2 657.82,-978.8 657.82,-978.8 657.82,-983.6 653.02,-988.4 648.22,-988.4"/>
<text xml:space="preserve" text-anchor="middle" x="611.02" y="-972" font-family="PingFang SC,Microsoft YaHei,sans-serif" font-size="10.00">选目标知识点</text>
</g>
<!-- a7&#45;&gt;a8 -->
<g id="edge14" class="edge">
<title>a7&#45;&gt;a8</title>
<path fill="none" stroke="#555555" stroke-width="1.1" d="M611.02,-1006.25C611.02,-1004.37 611.02,-1002.39 611.02,-1000.38"/>
<polygon fill="#555555" stroke="#555555" stroke-width="1.1" points="614.52,-1000.64 611.02,-990.64 607.52,-1000.64 614.52,-1000.64"/>
</g>
<!-- a9 -->
<g id="node12" class="node">
<title>a9</title>
<path fill="#fbfbfb" stroke="#444444" stroke-width="1.2" d="M648.22,-942.4C648.22,-942.4 573.82,-942.4 573.82,-942.4 569.02,-942.4 564.22,-937.6 564.22,-932.8 564.22,-932.8 564.22,-923.2 564.22,-923.2 564.22,-918.4 569.02,-913.6 573.82,-913.6 573.82,-913.6 648.22,-913.6 648.22,-913.6 653.02,-913.6 657.82,-918.4 657.82,-923.2 657.82,-923.2 657.82,-932.8 657.82,-932.8 657.82,-937.6 653.02,-942.4 648.22,-942.4"/>
<text xml:space="preserve" text-anchor="middle" x="611.02" y="-926" font-family="PingFang SC,Microsoft YaHei,sans-serif" font-size="10.00">生成学习路径</text>
</g>
<!-- a8&#45;&gt;a9 -->
<g id="edge15" class="edge">
<title>a8&#45;&gt;a9</title>
<path fill="none" stroke="#555555" stroke-width="1.1" d="M611.02,-959.08C611.02,-957.63 611.02,-956.14 611.02,-954.61"/>
<polygon fill="#555555" stroke="#555555" stroke-width="1.1" points="614.52,-954.65 611.02,-944.65 607.52,-954.65 614.52,-954.65"/>
</g>
<!-- d4 -->
<g id="node29" class="node">
<title>d4</title>
<polygon fill="#ffffff" stroke="#444444" stroke-width="1.2" points="611.02,-865.5 565.77,-829 611.02,-792.5 656.27,-829 611.02,-865.5"/>
<text xml:space="preserve" text-anchor="middle" x="611.02" y="-834.23" font-family="PingFang SC,Microsoft YaHei,sans-serif" font-size="9.50">还有未</text>
<text xml:space="preserve" text-anchor="middle" x="611.02" y="-819.98" font-family="PingFang SC,Microsoft YaHei,sans-serif" font-size="9.50">完成?</text>
</g>
<!-- a9&#45;&gt;d4 -->
<g id="edge16" class="edge">
<title>a9&#45;&gt;d4</title>
<path fill="none" stroke="#555555" stroke-width="1.1" d="M611.02,-913.1C611.02,-903.62 611.02,-890.46 611.02,-877.4"/>
<polygon fill="#555555" stroke="#555555" stroke-width="1.1" points="614.52,-877.72 611.02,-867.72 607.52,-877.72 614.52,-877.72"/>
</g>
<!-- d1&#45;&gt;a2 -->
<g id="edge3" class="edge">
<title>d1&#45;&gt;a2</title>
<path fill="none" stroke="#555555" stroke-width="1.1" d="M225.85,-1258C284.68,-1258 343.51,-1258 402.34,-1258"/>
<polygon fill="#555555" stroke="#555555" stroke-width="1.1" points="402.05,-1261.5 412.05,-1258 402.05,-1254.5 402.05,-1261.5"/>
<text xml:space="preserve" text-anchor="middle" x="315.83" y="-1262.67" font-family="PingFang SC,Microsoft YaHei,sans-serif" font-size="8.50">否</text>
</g>
<!-- d1&#45;&gt;a3 -->
<g id="edge5" class="edge">
<title>d1&#45;&gt;a3</title>
<path fill="none" stroke="#555555" stroke-width="1.1" d="M178.99,-1242.64C179.66,-1240.23 180.37,-1237.67 181.08,-1235.07"/>
<polygon fill="#555555" stroke="#555555" stroke-width="1.1" points="184.43,-1236.12 183.72,-1225.55 177.68,-1234.26 184.43,-1236.12"/>
<text xml:space="preserve" text-anchor="middle" x="176.93" y="-1239.87" font-family="PingFang SC,Microsoft YaHei,sans-serif" font-size="8.50">是</text>
</g>
<!-- d2&#45;&gt;a4 -->
<g id="edge7" class="edge">
<title>d2&#45;&gt;a4</title>
<path fill="none" stroke="#555555" stroke-width="1.1" d="M227.39,-1166.93C292.86,-1176.09 428.26,-1191.99 543.02,-1185.9 602.82,-1182.73 670.85,-1175.02 718.09,-1169.02"/>
<polygon fill="#555555" stroke="#555555" stroke-width="1.1" points="718.51,-1172.49 727.98,-1167.75 717.62,-1165.55 718.51,-1172.49"/>
<text xml:space="preserve" text-anchor="middle" x="474.16" y="-1191.88" font-family="PingFang SC,Microsoft YaHei,sans-serif" font-size="8.50">是</text>
</g>
<!-- d2&#45;&gt;a5 -->
<g id="edge9" class="edge">
<title>d2&#45;&gt;a5</title>
<path fill="none" stroke="#555555" stroke-width="1.1" d="M248.78,-1161C311.64,-1161 374.51,-1161 437.37,-1161"/>
<polygon fill="#555555" stroke="#555555" stroke-width="1.1" points="437.03,-1164.5 447.03,-1161 437.03,-1157.5 437.03,-1164.5"/>
<text xml:space="preserve" text-anchor="middle" x="344.48" y="-1165.67" font-family="PingFang SC,Microsoft YaHei,sans-serif" font-size="8.50">否</text>
</g>
<!-- d3&#45;&gt;a6 -->
<g id="edge11" class="edge">
<title>d3&#45;&gt;a6</title>
<path fill="none" stroke="#555555" stroke-width="1.1" d="M487.3,-1090C564.34,-1090 641.37,-1090 718.41,-1090"/>
<polygon fill="#555555" stroke="#555555" stroke-width="1.1" points="718.11,-1093.5 728.11,-1090 718.11,-1086.5 718.11,-1093.5"/>
<text xml:space="preserve" text-anchor="middle" x="604.6" y="-1094.67" font-family="PingFang SC,Microsoft YaHei,sans-serif" font-size="8.50">是</text>
</g>
<!-- d3&#45;&gt;a7 -->
<g id="edge13" class="edge">
<title>d3&#45;&gt;a7</title>
<path fill="none" stroke="#555555" stroke-width="1.1" d="M468.53,-1076.55C495.29,-1066.31 533.59,-1051.64 563.75,-1040.1"/>
<polygon fill="#555555" stroke="#555555" stroke-width="1.1" points="564.81,-1043.44 572.9,-1036.59 562.31,-1036.9 564.81,-1043.44"/>
<text xml:space="preserve" text-anchor="middle" x="517.41" y="-1060.94" font-family="PingFang SC,Microsoft YaHei,sans-serif" font-size="8.50">否</text>
</g>
<!-- a10 -->
<g id="node16" class="node">
<title>a10</title>
<path fill="#fbfbfb" stroke="#444444" stroke-width="1.2" d="M340.22,-752.4C340.22,-752.4 265.82,-752.4 265.82,-752.4 261.02,-752.4 256.22,-747.6 256.22,-742.8 256.22,-742.8 256.22,-733.2 256.22,-733.2 256.22,-728.4 261.02,-723.6 265.82,-723.6 265.82,-723.6 340.22,-723.6 340.22,-723.6 345.02,-723.6 349.82,-728.4 349.82,-733.2 349.82,-733.2 349.82,-742.8 349.82,-742.8 349.82,-747.6 345.02,-752.4 340.22,-752.4"/>
<text xml:space="preserve" text-anchor="middle" x="303.02" y="-736" font-family="PingFang SC,Microsoft YaHei,sans-serif" font-size="10.00">进入知识点学习</text>
</g>
<!-- a11 -->
<g id="node17" class="node">
<title>a11</title>
<path fill="#fbfbfb" stroke="#444444" stroke-width="1.2" d="M272.22,-706.4C272.22,-706.4 197.82,-706.4 197.82,-706.4 193.02,-706.4 188.22,-701.6 188.22,-696.8 188.22,-696.8 188.22,-687.2 188.22,-687.2 188.22,-682.4 193.02,-677.6 197.82,-677.6 197.82,-677.6 272.22,-677.6 272.22,-677.6 277.02,-677.6 281.82,-682.4 281.82,-687.2 281.82,-687.2 281.82,-696.8 281.82,-696.8 281.82,-701.6 277.02,-706.4 272.22,-706.4"/>
<text xml:space="preserve" text-anchor="middle" x="235.02" y="-690" font-family="PingFang SC,Microsoft YaHei,sans-serif" font-size="10.00">学习内容</text>
</g>
<!-- a10&#45;&gt;a11 -->
<g id="edge18" class="edge">
<title>a10&#45;&gt;a11</title>
<path fill="none" stroke="#555555" stroke-width="1.1" d="M281.5,-723.08C276.67,-719.95 271.44,-716.57 266.29,-713.24"/>
<polygon fill="#555555" stroke="#555555" stroke-width="1.1" points="268.32,-710.38 258.03,-707.89 264.52,-716.26 268.32,-710.38"/>
</g>
<!-- d5 -->
<g id="node30" class="node">
<title>d5</title>
<polygon fill="#ffffff" stroke="#444444" stroke-width="1.2" points="163.02,-659.5 117.77,-623 163.02,-586.5 208.27,-623 163.02,-659.5"/>
<text xml:space="preserve" text-anchor="middle" x="163.02" y="-628.23" font-family="PingFang SC,Microsoft YaHei,sans-serif" font-size="9.50">有学习</text>
<text xml:space="preserve" text-anchor="middle" x="163.02" y="-613.98" font-family="PingFang SC,Microsoft YaHei,sans-serif" font-size="9.50">资源?</text>
</g>
<!-- a11&#45;&gt;d5 -->
<g id="edge19" class="edge">
<title>a11&#45;&gt;d5</title>
<path fill="none" stroke="#555555" stroke-width="1.1" d="M220.1,-677.12C212.03,-669.6 201.77,-660.06 192.19,-651.14"/>
<polygon fill="#555555" stroke="#555555" stroke-width="1.1" points="194.58,-648.58 184.87,-644.33 189.81,-653.71 194.58,-648.58"/>
</g>
<!-- a12 -->
<g id="node18" class="node">
<title>a12</title>
<path fill="#fbfbfb" stroke="#444444" stroke-width="1.2" d="M475.22,-637.4C475.22,-637.4 400.82,-637.4 400.82,-637.4 396.02,-637.4 391.22,-632.6 391.22,-627.8 391.22,-627.8 391.22,-618.2 391.22,-618.2 391.22,-613.4 396.02,-608.6 400.82,-608.6 400.82,-608.6 475.22,-608.6 475.22,-608.6 480.02,-608.6 484.82,-613.4 484.82,-618.2 484.82,-618.2 484.82,-627.8 484.82,-627.8 484.82,-632.6 480.02,-637.4 475.22,-637.4"/>
<text xml:space="preserve" text-anchor="middle" x="438.02" y="-621" font-family="PingFang SC,Microsoft YaHei,sans-serif" font-size="10.00">浏览学习资源</text>
</g>
<!-- d6 -->
<g id="node31" class="node">
<title>d6</title>
<polygon fill="#ffffff" stroke="#444444" stroke-width="1.2" points="163.02,-568.5 122.27,-532 163.02,-495.5 203.77,-532 163.02,-568.5"/>
<text xml:space="preserve" text-anchor="middle" x="163.02" y="-537.23" font-family="PingFang SC,Microsoft YaHei,sans-serif" font-size="9.50">需AI</text>
<text xml:space="preserve" text-anchor="middle" x="163.02" y="-522.98" font-family="PingFang SC,Microsoft YaHei,sans-serif" font-size="9.50">帮助?</text>
</g>
<!-- a12&#45;&gt;d6 -->
<g id="edge22" class="edge">
<title>a12&#45;&gt;d6</title>
<path fill="none" stroke="#555555" stroke-width="1.1" d="M395.05,-608.09C342.67,-591.14 254.8,-562.7 203.55,-546.12"/>
<polygon fill="#555555" stroke="#555555" stroke-width="1.1" points="204.76,-542.83 194.16,-543.08 202.6,-549.49 204.76,-542.83"/>
</g>
<!-- a13 -->
<g id="node19" class="node">
<title>a13</title>
<path fill="#fbfbfb" stroke="#444444" stroke-width="1.2" d="M465.22,-546.4C465.22,-546.4 390.82,-546.4 390.82,-546.4 386.02,-546.4 381.22,-541.6 381.22,-536.8 381.22,-536.8 381.22,-527.2 381.22,-527.2 381.22,-522.4 386.02,-517.6 390.82,-517.6 390.82,-517.6 465.22,-517.6 465.22,-517.6 470.02,-517.6 474.82,-522.4 474.82,-527.2 474.82,-527.2 474.82,-536.8 474.82,-536.8 474.82,-541.6 470.02,-546.4 465.22,-546.4"/>
<text xml:space="preserve" text-anchor="middle" x="428.02" y="-530" font-family="PingFang SC,Microsoft YaHei,sans-serif" font-size="10.00">AI划重点</text>
</g>
<!-- a14 -->
<g id="node20" class="node">
<title>a14</title>
<path fill="#fbfbfb" stroke="#444444" stroke-width="1.2" d="M415.22,-477.4C415.22,-477.4 340.82,-477.4 340.82,-477.4 336.02,-477.4 331.22,-472.6 331.22,-467.8 331.22,-467.8 331.22,-458.2 331.22,-458.2 331.22,-453.4 336.02,-448.6 340.82,-448.6 340.82,-448.6 415.22,-448.6 415.22,-448.6 420.02,-448.6 424.82,-453.4 424.82,-458.2 424.82,-458.2 424.82,-467.8 424.82,-467.8 424.82,-472.6 420.02,-477.4 415.22,-477.4"/>
<text xml:space="preserve" text-anchor="middle" x="378.02" y="-461" font-family="PingFang SC,Microsoft YaHei,sans-serif" font-size="10.00">AI答疑</text>
</g>
<!-- a13&#45;&gt;a14 -->
<g id="edge24" class="edge">
<title>a13&#45;&gt;a14</title>
<path fill="none" stroke="#555555" stroke-width="1.1" d="M417.66,-517.12C411.16,-508.4 402.61,-496.96 395.12,-486.92"/>
<polygon fill="#555555" stroke="#555555" stroke-width="1.1" points="398.15,-485.12 389.36,-479.2 392.54,-489.31 398.15,-485.12"/>
</g>
<!-- d7 -->
<g id="node32" class="node">
<title>d7</title>
<polygon fill="#ffffff" stroke="#444444" stroke-width="1.2" points="165.02,-430.2 125.38,-414 165.02,-397.8 204.66,-414 165.02,-430.2"/>
<text xml:space="preserve" text-anchor="middle" x="165.02" y="-412.1" font-family="PingFang SC,Microsoft YaHei,sans-serif" font-size="9.50">收藏?</text>
</g>
<!-- a14&#45;&gt;d7 -->
<g id="edge25" class="edge">
<title>a14&#45;&gt;d7</title>
<path fill="none" stroke="#555555" stroke-width="1.1" d="M330.75,-451.57C291.66,-442.94 236.96,-430.87 201.27,-423"/>
<polygon fill="#555555" stroke="#555555" stroke-width="1.1" points="202.08,-419.59 191.57,-420.86 200.58,-426.43 202.08,-419.59"/>
</g>
<!-- a15 -->
<g id="node21" class="node">
<title>a15</title>
<path fill="#fbfbfb" stroke="#444444" stroke-width="1.2" d="M463.22,-428.4C463.22,-428.4 388.82,-428.4 388.82,-428.4 384.02,-428.4 379.22,-423.6 379.22,-418.8 379.22,-418.8 379.22,-409.2 379.22,-409.2 379.22,-404.4 384.02,-399.6 388.82,-399.6 388.82,-399.6 463.22,-399.6 463.22,-399.6 468.02,-399.6 472.82,-404.4 472.82,-409.2 472.82,-409.2 472.82,-418.8 472.82,-418.8 472.82,-423.6 468.02,-428.4 463.22,-428.4"/>
<text xml:space="preserve" text-anchor="middle" x="426.02" y="-412" font-family="PingFang SC,Microsoft YaHei,sans-serif" font-size="10.00">收藏知识点</text>
</g>
<!-- a16 -->
<g id="node22" class="node">
<title>a16</title>
<path fill="#fbfbfb" stroke="#444444" stroke-width="1.2" d="M205.22,-380.4C205.22,-380.4 130.82,-380.4 130.82,-380.4 126.02,-380.4 121.22,-375.6 121.22,-370.8 121.22,-370.8 121.22,-361.2 121.22,-361.2 121.22,-356.4 126.02,-351.6 130.82,-351.6 130.82,-351.6 205.22,-351.6 205.22,-351.6 210.02,-351.6 214.82,-356.4 214.82,-361.2 214.82,-361.2 214.82,-370.8 214.82,-370.8 214.82,-375.6 210.02,-380.4 205.22,-380.4"/>
<text xml:space="preserve" text-anchor="middle" x="168.02" y="-364" font-family="PingFang SC,Microsoft YaHei,sans-serif" font-size="10.00">做练习</text>
</g>
<!-- a15&#45;&gt;a16 -->
<g id="edge28" class="edge">
<title>a15&#45;&gt;a16</title>
<path fill="none" stroke="#555555" stroke-width="1.1" d="M378.7,-404.56C335.78,-396.91 272.38,-385.61 226.35,-377.4"/>
<polygon fill="#555555" stroke="#555555" stroke-width="1.1" points="227.14,-373.99 216.68,-375.68 225.91,-380.88 227.14,-373.99"/>
</g>
<!-- a17 -->
<g id="node23" class="node">
<title>a17</title>
<path fill="#fbfbfb" stroke="#444444" stroke-width="1.2" d="M205.22,-311.4C205.22,-311.4 130.82,-311.4 130.82,-311.4 126.02,-311.4 121.22,-306.6 121.22,-301.8 121.22,-301.8 121.22,-292.2 121.22,-292.2 121.22,-287.4 126.02,-282.6 130.82,-282.6 130.82,-282.6 205.22,-282.6 205.22,-282.6 210.02,-282.6 214.82,-287.4 214.82,-292.2 214.82,-292.2 214.82,-301.8 214.82,-301.8 214.82,-306.6 210.02,-311.4 205.22,-311.4"/>
<text xml:space="preserve" text-anchor="middle" x="168.02" y="-295" font-family="PingFang SC,Microsoft YaHei,sans-serif" font-size="10.00">提交答案</text>
</g>
<!-- a16&#45;&gt;a17 -->
<g id="edge30" class="edge">
<title>a16&#45;&gt;a17</title>
<path fill="none" stroke="#555555" stroke-width="1.1" d="M168.02,-351.12C168.02,-343.12 168.02,-332.83 168.02,-323.43"/>
<polygon fill="#555555" stroke="#555555" stroke-width="1.1" points="171.52,-323.53 168.02,-313.53 164.52,-323.53 171.52,-323.53"/>
</g>
<!-- d8 -->
<g id="node33" class="node">
<title>d8</title>
<polygon fill="#ffffff" stroke="#444444" stroke-width="1.2" points="150.02,-242.2 110.38,-226 150.02,-209.8 189.66,-226 150.02,-242.2"/>
<text xml:space="preserve" text-anchor="middle" x="150.02" y="-224.1" font-family="PingFang SC,Microsoft YaHei,sans-serif" font-size="9.50">答对?</text>
</g>
<!-- a17&#45;&gt;d8 -->
<g id="edge31" class="edge">
<title>a17&#45;&gt;d8</title>
<path fill="none" stroke="#555555" stroke-width="1.1" d="M164.38,-282.04C162.13,-273.43 159.19,-262.15 156.55,-252.04"/>
<polygon fill="#555555" stroke="#555555" stroke-width="1.1" points="159.99,-251.35 154.08,-242.55 153.22,-253.11 159.99,-251.35"/>
</g>
<!-- a18 -->
<g id="node24" class="node">
<title>a18</title>
<path fill="#fbfbfb" stroke="#444444" stroke-width="1.2" d="M781.22,-240.4C781.22,-240.4 706.82,-240.4 706.82,-240.4 702.02,-240.4 697.22,-235.6 697.22,-230.8 697.22,-230.8 697.22,-221.2 697.22,-221.2 697.22,-216.4 702.02,-211.6 706.82,-211.6 706.82,-211.6 781.22,-211.6 781.22,-211.6 786.02,-211.6 790.82,-216.4 790.82,-221.2 790.82,-221.2 790.82,-230.8 790.82,-230.8 790.82,-235.6 786.02,-240.4 781.22,-240.4"/>
<text xml:space="preserve" text-anchor="middle" x="744.02" y="-224" font-family="PingFang SC,Microsoft YaHei,sans-serif" font-size="10.00">标记已掌握</text>
</g>
<!-- d9 -->
<g id="node34" class="node">
<title>d9</title>
<polygon fill="#ffffff" stroke="#444444" stroke-width="1.2" points="604.02,-145.5 549.77,-109 604.02,-72.5 658.27,-109 604.02,-145.5"/>
<text xml:space="preserve" text-anchor="middle" x="604.02" y="-114.22" font-family="PingFang SC,Microsoft YaHei,sans-serif" font-size="9.50">正确率</text>
<text xml:space="preserve" text-anchor="middle" x="604.02" y="-99.97" font-family="PingFang SC,Microsoft YaHei,sans-serif" font-size="9.50">&gt;=80%?</text>
</g>
<!-- a18&#45;&gt;d9 -->
<g id="edge33" class="edge">
<title>a18&#45;&gt;d9</title>
<path fill="none" stroke="#555555" stroke-width="1.1" d="M727.13,-211.13C704.89,-192.85 665.28,-160.32 636.99,-137.09"/>
<polygon fill="#555555" stroke="#555555" stroke-width="1.1" points="639.48,-134.6 629.53,-130.96 635.04,-140.01 639.48,-134.6"/>
</g>
<!-- a19 -->
<g id="node25" class="node">
<title>a19</title>
<path fill="#fbfbfb" stroke="#444444" stroke-width="1.2" d="M500.22,-240.4C500.22,-240.4 425.82,-240.4 425.82,-240.4 421.02,-240.4 416.22,-235.6 416.22,-230.8 416.22,-230.8 416.22,-221.2 416.22,-221.2 416.22,-216.4 421.02,-211.6 425.82,-211.6 425.82,-211.6 500.22,-211.6 500.22,-211.6 505.02,-211.6 509.82,-216.4 509.82,-221.2 509.82,-221.2 509.82,-230.8 509.82,-230.8 509.82,-235.6 505.02,-240.4 500.22,-240.4"/>
<text xml:space="preserve" text-anchor="middle" x="463.02" y="-224" font-family="PingFang SC,Microsoft YaHei,sans-serif" font-size="10.00">记录错题</text>
</g>
<!-- a20 -->
<g id="node26" class="node">
<title>a20</title>
<path fill="#fbfbfb" stroke="#444444" stroke-width="1.2" d="M553.22,-191.4C553.22,-191.4 478.82,-191.4 478.82,-191.4 474.02,-191.4 469.22,-186.6 469.22,-181.8 469.22,-181.8 469.22,-172.2 469.22,-172.2 469.22,-167.4 474.02,-162.6 478.82,-162.6 478.82,-162.6 553.22,-162.6 553.22,-162.6 558.02,-162.6 562.82,-167.4 562.82,-172.2 562.82,-172.2 562.82,-181.8 562.82,-181.8 562.82,-186.6 558.02,-191.4 553.22,-191.4"/>
<text xml:space="preserve" text-anchor="middle" x="516.02" y="-175" font-family="PingFang SC,Microsoft YaHei,sans-serif" font-size="10.00">AI讲解</text>
</g>
<!-- a19&#45;&gt;a20 -->
<g id="edge35" class="edge">
<title>a19&#45;&gt;a20</title>
<path fill="none" stroke="#555555" stroke-width="1.1" d="M478.64,-211.15C482.8,-207.46 487.41,-203.37 491.92,-199.38"/>
<polygon fill="#555555" stroke="#555555" stroke-width="1.1" points="493.93,-202.27 499.09,-193.02 489.28,-197.03 493.93,-202.27"/>
</g>
<!-- a20&#45;&gt;d9 -->
<g id="edge36" class="edge">
<title>a20&#45;&gt;d9</title>
<path fill="none" stroke="#555555" stroke-width="1.1" d="M534.68,-162C544.79,-154.42 557.61,-144.8 569.47,-135.91"/>
<polygon fill="#555555" stroke="#555555" stroke-width="1.1" points="571.47,-138.78 577.38,-129.98 567.27,-133.18 571.47,-138.78"/>
</g>
<!-- a21 -->
<g id="node27" class="node">
<title>a21</title>
<path fill="#fbfbfb" stroke="#444444" stroke-width="1.2" d="M425.82,-54C425.82,-54 356.22,-54 356.22,-54 350.22,-54 344.22,-48 344.22,-42 344.22,-42 344.22,-28 344.22,-28 344.22,-22 350.22,-16 356.22,-16 356.22,-16 425.82,-16 425.82,-16 431.82,-16 437.82,-22 437.82,-28 437.82,-28 437.82,-42 437.82,-42 437.82,-48 431.82,-54 425.82,-54"/>
<text xml:space="preserve" text-anchor="middle" x="391.02" y="-40.5" font-family="PingFang SC,Microsoft YaHei,sans-serif" font-size="10.00">标记已掌握</text>
<text xml:space="preserve" text-anchor="middle" x="391.02" y="-25.5" font-family="PingFang SC,Microsoft YaHei,sans-serif" font-size="10.00">解锁下一个</text>
</g>
<!-- a21&#45;&gt;d4 -->
<g id="edge38" class="edge">
<title>a21&#45;&gt;d4</title>
<path fill="none" stroke="#555555" stroke-width="1.1" d="M390.19,-54.59C389.05,-91.21 388.89,-174.94 407.02,-242.2 427,-316.32 454.24,-326.23 482.02,-397.8 536.09,-537.12 581.51,-708.96 600.92,-786.54"/>
<polygon fill="#555555" stroke="#555555" stroke-width="1.1" points="597.49,-787.25 603.3,-796.11 604.28,-785.56 597.49,-787.25"/>
</g>
<!-- a22 -->
<g id="node28" class="node">
<title>a22</title>
<path fill="#fbfbfb" stroke="#444444" stroke-width="1.2" d="M795.82,-54C795.82,-54 726.22,-54 726.22,-54 720.22,-54 714.22,-48 714.22,-42 714.22,-42 714.22,-28 714.22,-28 714.22,-22 720.22,-16 726.22,-16 726.22,-16 795.82,-16 795.82,-16 801.82,-16 807.82,-22 807.82,-28 807.82,-28 807.82,-42 807.82,-42 807.82,-48 801.82,-54 795.82,-54"/>
<text xml:space="preserve" text-anchor="middle" x="761.02" y="-40.5" font-family="PingFang SC,Microsoft YaHei,sans-serif" font-size="10.00">标记学习中</text>
<text xml:space="preserve" text-anchor="middle" x="761.02" y="-25.5" font-family="PingFang SC,Microsoft YaHei,sans-serif" font-size="10.00">继续刷题</text>
</g>
<!-- a22&#45;&gt;d4 -->
<g id="edge40" class="edge">
<title>a22&#45;&gt;d4</title>
<path fill="none" stroke="#555555" stroke-width="1.1" d="M804.23,-54.57C847.91,-76.6 909.02,-117.82 909.02,-176 909.02,-693 909.02,-693 909.02,-693 909.02,-798.34 752.6,-821.91 666.41,-826.89"/>
<polygon fill="#555555" stroke="#555555" stroke-width="1.1" points="666.46,-823.39 656.65,-827.39 666.82,-830.38 666.46,-823.39"/>
</g>
<!-- d4&#45;&gt;a10 -->
<g id="edge17" class="edge">
<title>d4&#45;&gt;a10</title>
<path fill="none" stroke="#555555" stroke-width="1.1" d="M578.06,-818.48C526.38,-803.54 425.58,-774.41 361.41,-755.87"/>
<polygon fill="#555555" stroke="#555555" stroke-width="1.1" points="362.45,-752.53 351.87,-753.12 360.51,-759.25 362.45,-752.53"/>
<text xml:space="preserve" text-anchor="middle" x="460.04" y="-790.24" font-family="PingFang SC,Microsoft YaHei,sans-serif" font-size="8.50">是</text>
</g>
<!-- a23 -->
<g id="node35" class="node">
<title>a23</title>
<path fill="#fbfbfb" stroke="#444444" stroke-width="1.2" d="M1127.22,-752.4C1127.22,-752.4 1052.82,-752.4 1052.82,-752.4 1048.02,-752.4 1043.22,-747.6 1043.22,-742.8 1043.22,-742.8 1043.22,-733.2 1043.22,-733.2 1043.22,-728.4 1048.02,-723.6 1052.82,-723.6 1052.82,-723.6 1127.22,-723.6 1127.22,-723.6 1132.02,-723.6 1136.82,-728.4 1136.82,-733.2 1136.82,-733.2 1136.82,-742.8 1136.82,-742.8 1136.82,-747.6 1132.02,-752.4 1127.22,-752.4"/>
<text xml:space="preserve" text-anchor="middle" x="1090.02" y="-736" font-family="PingFang SC,Microsoft YaHei,sans-serif" font-size="10.00">路径完成！</text>
</g>
<!-- d4&#45;&gt;a23 -->
<g id="edge41" class="edge">
<title>d4&#45;&gt;a23</title>
<path fill="none" stroke="#555555" stroke-width="1.1" d="M651.64,-824.51C713.49,-818.74 834.81,-805.69 936.02,-784.15 970.33,-776.85 1008.15,-765.81 1037.72,-756.47"/>
<polygon fill="#555555" stroke="#555555" stroke-width="1.1" points="1038.58,-759.87 1047.04,-753.49 1036.45,-753.2 1038.58,-759.87"/>
<text xml:space="preserve" text-anchor="middle" x="847.85" y="-804.31" font-family="PingFang SC,Microsoft YaHei,sans-serif" font-size="8.50">否</text>
</g>
<!-- d5&#45;&gt;a12 -->
<g id="edge20" class="edge">
<title>d5&#45;&gt;a12</title>
<path fill="none" stroke="#555555" stroke-width="1.1" d="M209.21,-623C265.91,-623 322.61,-623 379.31,-623"/>
<polygon fill="#555555" stroke="#555555" stroke-width="1.1" points="378.98,-626.5 388.98,-623 378.98,-619.5 378.98,-626.5"/>
<text xml:space="preserve" text-anchor="middle" x="296.12" y="-627.67" font-family="PingFang SC,Microsoft YaHei,sans-serif" font-size="8.50">是</text>
</g>
<!-- d5&#45;&gt;d6 -->
<g id="edge21" class="edge">
<title>d5&#45;&gt;d6</title>
<path fill="none" stroke="#555555" stroke-width="1.1" d="M163.02,-585.8C163.02,-584.09 163.02,-582.35 163.02,-580.62"/>
<polygon fill="#555555" stroke="#555555" stroke-width="1.1" points="166.52,-580.83 163.02,-570.83 159.52,-580.83 166.52,-580.83"/>
<text xml:space="preserve" text-anchor="middle" x="158.89" y="-585.33" font-family="PingFang SC,Microsoft YaHei,sans-serif" font-size="8.50">否</text>
</g>
<!-- d6&#45;&gt;a13 -->
<g id="edge23" class="edge">
<title>d6&#45;&gt;a13</title>
<path fill="none" stroke="#555555" stroke-width="1.1" d="M204.43,-532C259.45,-532 314.46,-532 369.48,-532"/>
<polygon fill="#555555" stroke="#555555" stroke-width="1.1" points="369.19,-535.5 379.19,-532 369.19,-528.5 369.19,-535.5"/>
<text xml:space="preserve" text-anchor="middle" x="288.63" y="-536.67" font-family="PingFang SC,Microsoft YaHei,sans-serif" font-size="8.50">是</text>
</g>
<!-- d6&#45;&gt;d7 -->
<g id="edge26" class="edge">
<title>d6&#45;&gt;d7</title>
<path fill="none" stroke="#555555" stroke-width="1.1" d="M163.64,-495.25C163.93,-478.13 164.28,-457.95 164.55,-442.12"/>
<polygon fill="#555555" stroke="#555555" stroke-width="1.1" points="168.05,-442.21 164.72,-432.15 161.05,-442.09 168.05,-442.21"/>
<text xml:space="preserve" text-anchor="middle" x="160.07" y="-467.32" font-family="PingFang SC,Microsoft YaHei,sans-serif" font-size="8.50">否</text>
</g>
<!-- d7&#45;&gt;a15 -->
<g id="edge27" class="edge">
<title>d7&#45;&gt;a15</title>
<path fill="none" stroke="#555555" stroke-width="1.1" d="M206.06,-414C259.8,-414 313.55,-414 367.29,-414"/>
<polygon fill="#555555" stroke="#555555" stroke-width="1.1" points="367.1,-417.5 377.1,-414 367.1,-410.5 367.1,-417.5"/>
<text xml:space="preserve" text-anchor="middle" x="288.22" y="-418.68" font-family="PingFang SC,Microsoft YaHei,sans-serif" font-size="8.50">是</text>
</g>
<!-- d7&#45;&gt;a16 -->
<g id="edge29" class="edge">
<title>d7&#45;&gt;a16</title>
<path fill="none" stroke="#555555" stroke-width="1.1" d="M166.02,-397.68C166.13,-395.98 166.24,-394.22 166.36,-392.44"/>
<polygon fill="#555555" stroke="#555555" stroke-width="1.1" points="169.85,-392.72 167.01,-382.52 162.86,-392.27 169.85,-392.72"/>
<text xml:space="preserve" text-anchor="middle" x="162.23" y="-397.16" font-family="PingFang SC,Microsoft YaHei,sans-serif" font-size="8.50">否</text>
</g>
<!-- d8&#45;&gt;a18 -->
<g id="edge32" class="edge">
<title>d8&#45;&gt;a18</title>
<path fill="none" stroke="#555555" stroke-width="1.1" d="M179.87,-230.62C241.51,-239.59 387.4,-257.97 510.02,-251.35 569.83,-248.12 637.86,-240.28 685.09,-234.16"/>
<polygon fill="#555555" stroke="#555555" stroke-width="1.1" points="685.53,-237.64 694.99,-232.87 684.62,-230.7 685.53,-237.64"/>
<text xml:space="preserve" text-anchor="middle" x="434.05" y="-257.33" font-family="PingFang SC,Microsoft YaHei,sans-serif" font-size="8.50">是</text>
</g>
<!-- d8&#45;&gt;a19 -->
<g id="edge34" class="edge">
<title>d8&#45;&gt;a19</title>
<path fill="none" stroke="#555555" stroke-width="1.1" d="M190.98,-226C262.09,-226 333.21,-226 404.32,-226"/>
<polygon fill="#555555" stroke="#555555" stroke-width="1.1" points="404.07,-229.5 414.07,-226 404.07,-222.5 404.07,-229.5"/>
<text xml:space="preserve" text-anchor="middle" x="299.36" y="-230.68" font-family="PingFang SC,Microsoft YaHei,sans-serif" font-size="8.50">否</text>
</g>
<!-- d9&#45;&gt;a21 -->
<g id="edge37" class="edge">
<title>d9&#45;&gt;a21</title>
<path fill="none" stroke="#555555" stroke-width="1.1" d="M568.37,-95.95C535.92,-84.98 487.42,-68.59 449.34,-55.71"/>
<polygon fill="#555555" stroke="#555555" stroke-width="1.1" points="450.56,-52.43 439.97,-52.55 448.32,-59.06 450.56,-52.43"/>
<text xml:space="preserve" text-anchor="middle" x="499.46" y="-78.72" font-family="PingFang SC,Microsoft YaHei,sans-serif" font-size="8.50">是</text>
</g>
<!-- d9&#45;&gt;a22 -->
<g id="edge39" class="edge">
<title>d9&#45;&gt;a22</title>
<path fill="none" stroke="#555555" stroke-width="1.1" d="M635.79,-93.43C657.1,-83.66 685.63,-70.57 710.08,-59.36"/>
<polygon fill="#555555" stroke="#555555" stroke-width="1.1" points="711.48,-62.57 719.11,-55.22 708.56,-56.21 711.48,-62.57"/>
<text xml:space="preserve" text-anchor="middle" x="674.29" y="-78.56" font-family="PingFang SC,Microsoft YaHei,sans-serif" font-size="8.50">否</text>
</g>
<!-- a24 -->
<g id="node36" class="node">
<title>a24</title>
<path fill="#fbfbfb" stroke="#444444" stroke-width="1.2" d="M1127.22,-706.4C1127.22,-706.4 1052.82,-706.4 1052.82,-706.4 1048.02,-706.4 1043.22,-701.6 1043.22,-696.8 1043.22,-696.8 1043.22,-687.2 1043.22,-687.2 1043.22,-682.4 1048.02,-677.6 1052.82,-677.6 1052.82,-677.6 1127.22,-677.6 1127.22,-677.6 1132.02,-677.6 1136.82,-682.4 1136.82,-687.2 1136.82,-687.2 1136.82,-696.8 1136.82,-696.8 1136.82,-701.6 1132.02,-706.4 1127.22,-706.4"/>
<text xml:space="preserve" text-anchor="middle" x="1090.02" y="-690" font-family="PingFang SC,Microsoft YaHei,sans-serif" font-size="10.00">参加章节测评</text>
</g>
<!-- a23&#45;&gt;a24 -->
<g id="edge42" class="edge">
<title>a23&#45;&gt;a24</title>
<path fill="none" stroke="#555555" stroke-width="1.1" d="M1090.02,-723.08C1090.02,-721.63 1090.02,-720.14 1090.02,-718.61"/>
<polygon fill="#555555" stroke="#555555" stroke-width="1.1" points="1093.52,-718.65 1090.02,-708.65 1086.52,-718.65 1093.52,-718.65"/>
</g>
<!-- d10 -->
<g id="node46" class="node">
<title>d10</title>
<polygon fill="#ffffff" stroke="#444444" stroke-width="1.2" points="1090.02,-659.5 1049.27,-623 1090.02,-586.5 1130.77,-623 1090.02,-659.5"/>
<text xml:space="preserve" text-anchor="middle" x="1090.02" y="-628.23" font-family="PingFang SC,Microsoft YaHei,sans-serif" font-size="9.50">测评</text>
<text xml:space="preserve" text-anchor="middle" x="1090.02" y="-613.98" font-family="PingFang SC,Microsoft YaHei,sans-serif" font-size="9.50">通过?</text>
</g>
<!-- a24&#45;&gt;d10 -->
<g id="edge43" class="edge">
<title>a24&#45;&gt;d10</title>
<path fill="none" stroke="#555555" stroke-width="1.1" d="M1090.02,-677.12C1090.02,-675.4 1090.02,-673.59 1090.02,-671.69"/>
<polygon fill="#555555" stroke="#555555" stroke-width="1.1" points="1093.52,-671.93 1090.02,-661.93 1086.52,-671.93 1093.52,-671.93"/>
</g>
<!-- a25 -->
<g id="node37" class="node">
<title>a25</title>
<path fill="#fbfbfb" stroke="#444444" stroke-width="1.2" d="M1407.22,-546.4C1407.22,-546.4 1332.82,-546.4 1332.82,-546.4 1328.02,-546.4 1323.22,-541.6 1323.22,-536.8 1323.22,-536.8 1323.22,-527.2 1323.22,-527.2 1323.22,-522.4 1328.02,-517.6 1332.82,-517.6 1332.82,-517.6 1407.22,-517.6 1407.22,-517.6 1412.02,-517.6 1416.82,-522.4 1416.82,-527.2 1416.82,-527.2 1416.82,-536.8 1416.82,-536.8 1416.82,-541.6 1412.02,-546.4 1407.22,-546.4"/>
<text xml:space="preserve" text-anchor="middle" x="1370.02" y="-530" font-family="PingFang SC,Microsoft YaHei,sans-serif" font-size="10.00">AI诊断报告</text>
</g>
<!-- a26 -->
<g id="node38" class="node">
<title>a26</title>
<path fill="#fbfbfb" stroke="#444444" stroke-width="1.2" d="M1532.22,-477.4C1532.22,-477.4 1457.82,-477.4 1457.82,-477.4 1453.02,-477.4 1448.22,-472.6 1448.22,-467.8 1448.22,-467.8 1448.22,-458.2 1448.22,-458.2 1448.22,-453.4 1453.02,-448.6 1457.82,-448.6 1457.82,-448.6 1532.22,-448.6 1532.22,-448.6 1537.02,-448.6 1541.82,-453.4 1541.82,-458.2 1541.82,-458.2 1541.82,-467.8 1541.82,-467.8 1541.82,-472.6 1537.02,-477.4 1532.22,-477.4"/>
<text xml:space="preserve" text-anchor="middle" x="1495.02" y="-461" font-family="PingFang SC,Microsoft YaHei,sans-serif" font-size="10.00">查看报告</text>
</g>
<!-- a25&#45;&gt;a26 -->
<g id="edge45" class="edge">
<title>a25&#45;&gt;a26</title>
<path fill="none" stroke="#555555" stroke-width="1.1" d="M1395.92,-517.12C1414.19,-507.33 1438.9,-494.08 1459.07,-483.27"/>
<polygon fill="#555555" stroke="#555555" stroke-width="1.1" points="1460.53,-486.46 1467.69,-478.65 1457.22,-480.29 1460.53,-486.46"/>
</g>
<!-- a26&#45;&gt;stop_node -->
<g id="edge46" class="edge">
<title>a26&#45;&gt;stop_node</title>
<path fill="none" stroke="#555555" stroke-width="1.1" d="M1542.26,-459.16C1595.99,-455.28 1686.1,-446.83 1762.02,-430.2 1770.36,-428.37 1779.33,-425.67 1787.17,-423.04"/>
<polygon fill="#555555" stroke="#555555" stroke-width="1.1" points="1788.14,-426.41 1796.41,-419.8 1785.82,-419.81 1788.14,-426.41"/>
</g>
<!-- a27 -->
<g id="node39" class="node">
<title>a27</title>
<path fill="#fbfbfb" stroke="#444444" stroke-width="1.2" d="M1127.22,-546.4C1127.22,-546.4 1052.82,-546.4 1052.82,-546.4 1048.02,-546.4 1043.22,-541.6 1043.22,-536.8 1043.22,-536.8 1043.22,-527.2 1043.22,-527.2 1043.22,-522.4 1048.02,-517.6 1052.82,-517.6 1052.82,-517.6 1127.22,-517.6 1127.22,-517.6 1132.02,-517.6 1136.82,-522.4 1136.82,-527.2 1136.82,-527.2 1136.82,-536.8 1136.82,-536.8 1136.82,-541.6 1132.02,-546.4 1127.22,-546.4"/>
<text xml:space="preserve" text-anchor="middle" x="1090.02" y="-530" font-family="PingFang SC,Microsoft YaHei,sans-serif" font-size="10.00">错题收录</text>
</g>
<!-- a28 -->
<g id="node40" class="node">
<title>a28</title>
<path fill="#fbfbfb" stroke="#444444" stroke-width="1.2" d="M1127.22,-477.4C1127.22,-477.4 1052.82,-477.4 1052.82,-477.4 1048.02,-477.4 1043.22,-472.6 1043.22,-467.8 1043.22,-467.8 1043.22,-458.2 1043.22,-458.2 1043.22,-453.4 1048.02,-448.6 1052.82,-448.6 1052.82,-448.6 1127.22,-448.6 1127.22,-448.6 1132.02,-448.6 1136.82,-453.4 1136.82,-458.2 1136.82,-458.2 1136.82,-467.8 1136.82,-467.8 1136.82,-472.6 1132.02,-477.4 1127.22,-477.4"/>
<text xml:space="preserve" text-anchor="middle" x="1090.02" y="-461" font-family="PingFang SC,Microsoft YaHei,sans-serif" font-size="10.00">错题本</text>
</g>
<!-- a27&#45;&gt;a28 -->
<g id="edge48" class="edge">
<title>a27&#45;&gt;a28</title>
<path fill="none" stroke="#555555" stroke-width="1.1" d="M1090.02,-517.12C1090.02,-509.12 1090.02,-498.83 1090.02,-489.43"/>
<polygon fill="#555555" stroke="#555555" stroke-width="1.1" points="1093.52,-489.53 1090.02,-479.53 1086.52,-489.53 1093.52,-489.53"/>
</g>
<!-- a29 -->
<g id="node41" class="node">
<title>a29</title>
<path fill="#fbfbfb" stroke="#444444" stroke-width="1.2" d="M1127.22,-428.4C1127.22,-428.4 1052.82,-428.4 1052.82,-428.4 1048.02,-428.4 1043.22,-423.6 1043.22,-418.8 1043.22,-418.8 1043.22,-409.2 1043.22,-409.2 1043.22,-404.4 1048.02,-399.6 1052.82,-399.6 1052.82,-399.6 1127.22,-399.6 1127.22,-399.6 1132.02,-399.6 1136.82,-404.4 1136.82,-409.2 1136.82,-409.2 1136.82,-418.8 1136.82,-418.8 1136.82,-423.6 1132.02,-428.4 1127.22,-428.4"/>
<text xml:space="preserve" text-anchor="middle" x="1090.02" y="-412" font-family="PingFang SC,Microsoft YaHei,sans-serif" font-size="10.00">看讲解</text>
</g>
<!-- a28&#45;&gt;a29 -->
<g id="edge49" class="edge">
<title>a28&#45;&gt;a29</title>
<path fill="none" stroke="#555555" stroke-width="1.1" d="M1090.02,-448.15C1090.02,-445.69 1090.02,-443.05 1090.02,-440.39"/>
<polygon fill="#555555" stroke="#555555" stroke-width="1.1" points="1093.52,-440.58 1090.02,-430.58 1086.52,-440.58 1093.52,-440.58"/>
</g>
<!-- a30 -->
<g id="node42" class="node">
<title>a30</title>
<path fill="#fbfbfb" stroke="#444444" stroke-width="1.2" d="M1127.22,-380.4C1127.22,-380.4 1052.82,-380.4 1052.82,-380.4 1048.02,-380.4 1043.22,-375.6 1043.22,-370.8 1043.22,-370.8 1043.22,-361.2 1043.22,-361.2 1043.22,-356.4 1048.02,-351.6 1052.82,-351.6 1052.82,-351.6 1127.22,-351.6 1127.22,-351.6 1132.02,-351.6 1136.82,-356.4 1136.82,-361.2 1136.82,-361.2 1136.82,-370.8 1136.82,-370.8 1136.82,-375.6 1132.02,-380.4 1127.22,-380.4"/>
<text xml:space="preserve" text-anchor="middle" x="1090.02" y="-364" font-family="PingFang SC,Microsoft YaHei,sans-serif" font-size="10.00">错题重做</text>
</g>
<!-- a29&#45;&gt;a30 -->
<g id="edge50" class="edge">
<title>a29&#45;&gt;a30</title>
<path fill="none" stroke="#555555" stroke-width="1.1" d="M1090.02,-399.45C1090.02,-397.26 1090.02,-394.94 1090.02,-392.58"/>
<polygon fill="#555555" stroke="#555555" stroke-width="1.1" points="1093.52,-392.6 1090.02,-382.6 1086.52,-392.6 1093.52,-392.6"/>
</g>
<!-- d11 -->
<g id="node47" class="node">
<title>d11</title>
<polygon fill="#ffffff" stroke="#444444" stroke-width="1.2" points="1075.02,-333.5 1034.27,-297 1075.02,-260.5 1115.77,-297 1075.02,-333.5"/>
<text xml:space="preserve" text-anchor="middle" x="1075.02" y="-302.23" font-family="PingFang SC,Microsoft YaHei,sans-serif" font-size="9.50">重做</text>
<text xml:space="preserve" text-anchor="middle" x="1075.02" y="-287.98" font-family="PingFang SC,Microsoft YaHei,sans-serif" font-size="9.50">答对?</text>
</g>
<!-- a30&#45;&gt;d11 -->
<g id="edge51" class="edge">
<title>a30&#45;&gt;d11</title>
<path fill="none" stroke="#555555" stroke-width="1.1" d="M1086.91,-351.12C1086.12,-347.57 1085.22,-343.58 1084.29,-339.41"/>
<polygon fill="#555555" stroke="#555555" stroke-width="1.1" points="1087.74,-338.78 1082.14,-329.79 1080.91,-340.31 1087.74,-338.78"/>
</g>
<!-- a31 -->
<g id="node43" class="node">
<title>a31</title>
<path fill="#fbfbfb" stroke="#444444" stroke-width="1.2" d="M1374.82,-316C1374.82,-316 1305.22,-316 1305.22,-316 1299.22,-316 1293.22,-310 1293.22,-304 1293.22,-304 1293.22,-290 1293.22,-290 1293.22,-284 1299.22,-278 1305.22,-278 1305.22,-278 1374.82,-278 1374.82,-278 1380.82,-278 1386.82,-284 1386.82,-290 1386.82,-290 1386.82,-304 1386.82,-304 1386.82,-310 1380.82,-316 1374.82,-316"/>
<text xml:space="preserve" text-anchor="middle" x="1340.02" y="-302.5" font-family="PingFang SC,Microsoft YaHei,sans-serif" font-size="10.00">标记掌握</text>
<text xml:space="preserve" text-anchor="middle" x="1340.02" y="-287.5" font-family="PingFang SC,Microsoft YaHei,sans-serif" font-size="10.00">移除错题本</text>
</g>
<!-- a33 -->
<g id="node45" class="node">
<title>a33</title>
<path fill="#fbfbfb" stroke="#444444" stroke-width="1.2" d="M1517.22,-240.4C1517.22,-240.4 1442.82,-240.4 1442.82,-240.4 1438.02,-240.4 1433.22,-235.6 1433.22,-230.8 1433.22,-230.8 1433.22,-221.2 1433.22,-221.2 1433.22,-216.4 1438.02,-211.6 1442.82,-211.6 1442.82,-211.6 1517.22,-211.6 1517.22,-211.6 1522.02,-211.6 1526.82,-216.4 1526.82,-221.2 1526.82,-221.2 1526.82,-230.8 1526.82,-230.8 1526.82,-235.6 1522.02,-240.4 1517.22,-240.4"/>
<text xml:space="preserve" text-anchor="middle" x="1480.02" y="-224" font-family="PingFang SC,Microsoft YaHei,sans-serif" font-size="10.00">再次测评</text>
</g>
<!-- a31&#45;&gt;a33 -->
<g id="edge53" class="edge">
<title>a31&#45;&gt;a33</title>
<path fill="none" stroke="#555555" stroke-width="1.1" d="M1377.54,-277.51C1397.31,-267.76 1421.53,-255.83 1441.45,-246.01"/>
<polygon fill="#555555" stroke="#555555" stroke-width="1.1" points="1442.82,-249.24 1450.24,-241.68 1439.72,-242.96 1442.82,-249.24"/>
</g>
<!-- a32 -->
<g id="node44" class="node">
<title>a32</title>
<path fill="#fbfbfb" stroke="#444444" stroke-width="1.2" d="M1658.22,-311.4C1658.22,-311.4 1583.82,-311.4 1583.82,-311.4 1579.02,-311.4 1574.22,-306.6 1574.22,-301.8 1574.22,-301.8 1574.22,-292.2 1574.22,-292.2 1574.22,-287.4 1579.02,-282.6 1583.82,-282.6 1583.82,-282.6 1658.22,-282.6 1658.22,-282.6 1663.02,-282.6 1667.82,-287.4 1667.82,-292.2 1667.82,-292.2 1667.82,-301.8 1667.82,-301.8 1667.82,-306.6 1663.02,-311.4 1658.22,-311.4"/>
<text xml:space="preserve" text-anchor="middle" x="1621.02" y="-295" font-family="PingFang SC,Microsoft YaHei,sans-serif" font-size="10.00">保留错题本</text>
</g>
<!-- a32&#45;&gt;a33 -->
<g id="edge55" class="edge">
<title>a32&#45;&gt;a33</title>
<path fill="none" stroke="#555555" stroke-width="1.1" d="M1592.49,-282.04C1571.27,-271.66 1542.09,-257.37 1518.76,-245.96"/>
<polygon fill="#555555" stroke="#555555" stroke-width="1.1" points="1520.53,-242.93 1510.01,-241.67 1517.45,-249.21 1520.53,-242.93"/>
</g>
<!-- a33&#45;&gt;detach_node -->
<g id="edge56" class="edge">
<title>a33&#45;&gt;detach_node</title>
<path fill="none" stroke="#555555" stroke-width="1.1" d="M1480.02,-211.15C1480.02,-205.94 1480.02,-199.96 1480.02,-194.53"/>
<polygon fill="#555555" stroke="#555555" stroke-width="1.1" points="1483.52,-194.56 1480.02,-184.56 1476.52,-194.56 1483.52,-194.56"/>
</g>
<!-- d10&#45;&gt;a25 -->
<g id="edge44" class="edge">
<title>d10&#45;&gt;a25</title>
<path fill="none" stroke="#555555" stroke-width="1.1" d="M1119.72,-612.56C1166.13,-597.81 1256.58,-569.06 1315.1,-550.46"/>
<polygon fill="#555555" stroke="#555555" stroke-width="1.1" points="1315.93,-553.86 1324.4,-547.5 1313.81,-547.19 1315.93,-553.86"/>
<text xml:space="preserve" text-anchor="middle" x="1218.4" y="-584.56" font-family="PingFang SC,Microsoft YaHei,sans-serif" font-size="8.50">是</text>
</g>
<!-- d10&#45;&gt;a27 -->
<g id="edge47" class="edge">
<title>d10&#45;&gt;a27</title>
<path fill="none" stroke="#555555" stroke-width="1.1" d="M1090.02,-585.8C1090.02,-576.62 1090.02,-566.95 1090.02,-558.42"/>
<polygon fill="#555555" stroke="#555555" stroke-width="1.1" points="1093.52,-558.62 1090.02,-548.62 1086.52,-558.62 1093.52,-558.62"/>
<text xml:space="preserve" text-anchor="middle" x="1085.89" y="-570.95" font-family="PingFang SC,Microsoft YaHei,sans-serif" font-size="8.50">否</text>
</g>
<!-- d11&#45;&gt;a31 -->
<g id="edge52" class="edge">
<title>d11&#45;&gt;a31</title>
<path fill="none" stroke="#555555" stroke-width="1.1" d="M1116.43,-297C1171.45,-297 1226.46,-297 1281.48,-297"/>
<polygon fill="#555555" stroke="#555555" stroke-width="1.1" points="1281.19,-300.5 1291.19,-297 1281.19,-293.5 1281.19,-300.5"/>
<text xml:space="preserve" text-anchor="middle" x="1200.63" y="-301.68" font-family="PingFang SC,Microsoft YaHei,sans-serif" font-size="8.50">是</text>
</g>
<!-- d11&#45;&gt;a32 -->
<g id="edge54" class="edge">
<title>d11&#45;&gt;a32</title>
<path fill="none" stroke="#555555" stroke-width="1.1" d="M1106.83,-305.8C1149,-316.97 1225.91,-335.61 1293.02,-342.55 1387.89,-352.36 1497.55,-330.32 1562.99,-313.6"/>
<polygon fill="#555555" stroke="#555555" stroke-width="1.1" points="1563.49,-317.09 1572.28,-311.18 1561.72,-310.31 1563.49,-317.09"/>
<text xml:space="preserve" text-anchor="middle" x="1335.95" y="-349.64" font-family="PingFang SC,Microsoft YaHei,sans-serif" font-size="8.50">否</text>
</g>
</g>
</svg>
