<svg xmlns="http://www.w3.org/2000/svg" xmlns:xlink="http://www.w3.org/1999/xlink" contentStyleType="text/css" data-diagram-type="ACTIVITY" height="584px" preserveAspectRatio="none" style="width:1474px;height:584px;background:#FEFEFE;" version="1.1" viewBox="0 0 1474 584" width="1474px" zoomAndPan="magnify"><?plantuml 1.2026.6?><defs/><g><rect fill="#FEFEFE" height="584" style="stroke:none;stroke-width:1;" width="1474" x="0" y="0"/><g class="title" data-source-line="18"><text fill="#000000" font-family="sans-serif" font-size="14" font-weight="700" lengthAdjust="spacing" textLength="206.2197" x="633.1918" y="33.5352">&#31649;&#29702;&#21592;&#24037;&#20316;&#27969;&#31243; &#8212; &#27963;&#21160;&#22270; (&#26032;&#22686;)</text></g><ellipse cx="746.6798" cy="62.4883" fill="#222222" rx="10" ry="10" style="stroke:#222222;stroke-width:1;"/><rect fill="#E3F2FD" height="32.9551" rx="12.5" ry="12.5" style="stroke:#1565C0;stroke-width:0.5;" width="64" x="714.6798" y="92.4883"/><text fill="#000000" font-family="sans-serif" font-size="11" lengthAdjust="spacing" textLength="44" x="724.6798" y="113.123">&#30331;&#24405;&#31995;&#32479;</text><rect fill="#E3F2FD" height="32.9551" rx="12.5" ry="12.5" style="stroke:#1565C0;stroke-width:0.5;" width="86" x="703.6798" y="145.4434"/><text fill="#000000" font-family="sans-serif" font-size="11" lengthAdjust="spacing" textLength="66" x="713.6798" y="166.0781">&#36827;&#20837;&#31649;&#29702;&#21518;&#21488;</text><polygon fill="#E3F2FD" points="65.3325,198.3984,113.9731,198.3984,125.9731,210.3984,113.9731,222.3984,65.3325,222.3984,53.3325,210.3984,65.3325,198.3984" style="stroke:#1565C0;stroke-width:0.5;stroke-linejoin:miter;stroke-miterlimit:10;"/><text fill="#000000" font-family="sans-serif" font-size="11" lengthAdjust="spacing" textLength="44" x="93.6528" y="233.0332">&#29992;&#25143;&#31649;&#29702;</text><text fill="#000000" font-family="sans-serif" font-size="11" lengthAdjust="spacing" textLength="48.6406" x="65.3325" y="214.5557">&#25805;&#20316;&#31867;&#22411;?</text><path d="M152.6528,255.3535 L152.6528,269.3086 L132.6528,273.3086 L152.6528,277.3086 L152.6528,291.2637 A0,0 0 0 0 152.6528,291.2637 L255.6587,291.2637 A0,0 0 0 0 255.6587,291.2637 L255.6587,265.3535 L245.6587,255.3535 L152.6528,255.3535 A0,0 0 0 0 152.6528,255.3535" fill="#FEFFDD" style="stroke:#181818;stroke-width:0.5;"/><path d="M245.6587,255.3535 L245.6587,265.3535 L255.6587,265.3535 L245.6587,255.3535" fill="#FEFFDD" style="stroke:#181818;stroke-width:0.5;"/><text fill="#000000" font-family="sans-serif" font-size="11" lengthAdjust="spacing" textLength="82.0059" x="158.6528" y="270.9883">sys_user &#20840;&#23383;&#27573;</text><text fill="#000000" font-family="sans-serif" font-size="11" lengthAdjust="spacing" textLength="55" x="158.6528" y="283.9434">&#21547;&#35282;&#33394;&#20851;&#32852;</text><rect fill="#E3F2FD" height="32.9551" rx="12.5" ry="12.5" style="stroke:#1565C0;stroke-width:0.5;" width="86" x="46.6528" y="256.8311"/><text fill="#000000" font-family="sans-serif" font-size="11" lengthAdjust="spacing" textLength="66" x="56.6528" y="277.4658">&#26597;&#30475;&#29992;&#25143;&#21015;&#34920;</text><path d="M183.3057,326.2637 L183.3057,346.6963 L163.3057,350.6963 L183.3057,354.6963 L183.3057,375.1289 A0,0 0 0 0 183.3057,375.1289 L291.6289,375.1289 A0,0 0 0 0 291.6289,375.1289 L291.6289,336.2637 L281.6289,326.2637 L183.3057,326.2637 A0,0 0 0 0 183.3057,326.2637" fill="#FEFFDD" style="stroke:#181818;stroke-width:0.5;"/><path d="M281.6289,326.2637 L281.6289,336.2637 L291.6289,336.2637 L281.6289,326.2637" fill="#FEFFDD" style="stroke:#181818;stroke-width:0.5;"/><text fill="#000000" font-family="sans-serif" font-size="11" lengthAdjust="spacing" textLength="87.3232" x="189.3057" y="341.8984">&#20998;&#37197;&#35282;&#33394;(role_id)</text><text fill="#000000" font-family="sans-serif" font-size="11" lengthAdjust="spacing" textLength="75.8237" x="189.3057" y="354.8535">&#35774;&#32622;&#23494;&#30721;(MD5)</text><text fill="#000000" font-family="sans-serif" font-size="11" lengthAdjust="spacing" textLength="83.499" x="189.3057" y="367.8086">&#31649;&#29702;&#29366;&#24577;(status)</text><rect fill="#E3F2FD" height="32.9551" rx="12.5" ry="12.5" style="stroke:#1565C0;stroke-width:0.5;" width="147.3057" x="16" y="334.2188"/><text fill="#000000" font-family="sans-serif" font-size="11" lengthAdjust="spacing" textLength="127.3057" x="26" y="354.8535">&#21019;&#24314;/&#32534;&#36753;/&#31105;&#29992;/&#21024;&#38500;&#29992;&#25143;</text><polygon fill="#E3F2FD" points="323.6289,198.3984,372.2695,198.3984,384.2695,210.3984,372.2695,222.3984,323.6289,222.3984,311.6289,210.3984,323.6289,198.3984" style="stroke:#1565C0;stroke-width:0.5;stroke-linejoin:miter;stroke-miterlimit:10;"/><text fill="#000000" font-family="sans-serif" font-size="11" lengthAdjust="spacing" textLength="11" x="351.9492" y="233.0332">&#26159;</text><text fill="#000000" font-family="sans-serif" font-size="11" lengthAdjust="spacing" textLength="48.6406" x="323.6289" y="214.5557">&#35282;&#33394;&#31649;&#29702;?</text><path d="M410.9492,255.3535 L410.9492,275.7861 L390.9492,279.7861 L410.9492,283.7861 L410.9492,304.2188 A0,0 0 0 0 410.9492,304.2188 L615.1787,304.2188 A0,0 0 0 0 615.1787,304.2188 L615.1787,265.3535 L605.1787,255.3535 L410.9492,255.3535 A0,0 0 0 0 410.9492,255.3535" fill="#FEFFDD" style="stroke:#181818;stroke-width:0.5;"/><path d="M605.1787,255.3535 L605.1787,265.3535 L615.1787,265.3535 L605.1787,255.3535" fill="#FEFFDD" style="stroke:#181818;stroke-width:0.5;"/><text fill="#000000" font-family="sans-serif" font-size="11" lengthAdjust="spacing" textLength="183.2295" x="416.9492" y="270.9883">role_code: admin/teacher/student</text><text fill="#000000" font-family="sans-serif" font-size="11" lengthAdjust="spacing" textLength="150.8633" x="416.9492" y="283.9434">role_name: &#31649;&#29702;&#21592;/&#25945;&#24072;/&#23398;&#29983;</text><text fill="#000000" font-family="sans-serif" font-size="11" lengthAdjust="spacing" textLength="59.7749" x="416.9492" y="296.8984">description</text><rect fill="#E3F2FD" height="45.9102" rx="12.5" ry="12.5" style="stroke:#1565C0;stroke-width:0.5;" width="86" x="304.9492" y="256.8311"/><text fill="#000000" font-family="sans-serif" font-size="11" lengthAdjust="spacing" textLength="66" x="314.9492" y="277.4658">&#31649;&#29702;&#31995;&#32479;&#35282;&#33394;</text><text fill="#000000" font-family="sans-serif" font-size="11" lengthAdjust="spacing" textLength="50.1821" x="314.9492" y="290.4209">(sys_role)</text><rect fill="#E3F2FD" height="32.9551" rx="12.5" ry="12.5" style="stroke:#1565C0;stroke-width:0.5;" width="86" x="304.9492" y="339.2188"/><text fill="#000000" font-family="sans-serif" font-size="11" lengthAdjust="spacing" textLength="66" x="314.9492" y="359.8535">&#37197;&#32622;&#35282;&#33394;&#26435;&#38480;</text><polygon fill="#E3F2FD" points="647.1787,198.3984,695.8193,198.3984,707.8193,210.3984,695.8193,222.3984,647.1787,222.3984,635.1787,210.3984,647.1787,198.3984" style="stroke:#1565C0;stroke-width:0.5;stroke-linejoin:miter;stroke-miterlimit:10;"/><text fill="#000000" font-family="sans-serif" font-size="11" lengthAdjust="spacing" textLength="11" x="675.499" y="233.0332">&#26159;</text><text fill="#000000" font-family="sans-serif" font-size="11" lengthAdjust="spacing" textLength="48.6406" x="647.1787" y="214.5557">&#35838;&#31243;&#31649;&#29702;?</text><path d="M737.3833,260.3535 L737.3833,274.3086 L717.3833,278.3086 L737.3833,282.3086 L737.3833,296.2637 A0,0 0 0 0 737.3833,296.2637 L880.1299,296.2637 A0,0 0 0 0 880.1299,296.2637 L880.1299,270.3535 L870.1299,260.3535 L737.3833,260.3535 A0,0 0 0 0 737.3833,260.3535" fill="#FEFFDD" style="stroke:#181818;stroke-width:0.5;"/><path d="M870.1299,260.3535 L870.1299,270.3535 L880.1299,270.3535 L870.1299,260.3535" fill="#FEFFDD" style="stroke:#181818;stroke-width:0.5;"/><text fill="#000000" font-family="sans-serif" font-size="11" lengthAdjust="spacing" textLength="115.7954" x="743.3833" y="275.9883">subject, course_name</text><text fill="#000000" font-family="sans-serif" font-size="11" lengthAdjust="spacing" textLength="121.7466" x="743.3833" y="288.9434">description, teacher_id</text><rect fill="#E3F2FD" height="45.9102" rx="12.5" ry="12.5" style="stroke:#1565C0;stroke-width:0.5;" width="91.7686" x="625.6147" y="255.3535"/><text fill="#000000" font-family="sans-serif" font-size="11" lengthAdjust="spacing" textLength="71.7686" x="635.6147" y="275.9883">&#23457;&#26680;/&#31649;&#29702;&#35838;&#31243;</text><text fill="#000000" font-family="sans-serif" font-size="11" lengthAdjust="spacing" textLength="42.6089" x="635.6147" y="288.9434">(course)</text><polygon fill="#E3F2FD" points="944.1299,198.3984,992.7705,198.3984,1004.7705,210.3984,992.7705,222.3984,944.1299,222.3984,932.1299,210.3984,944.1299,198.3984" style="stroke:#1565C0;stroke-width:0.5;stroke-linejoin:miter;stroke-miterlimit:10;"/><text fill="#000000" font-family="sans-serif" font-size="11" lengthAdjust="spacing" textLength="11" x="972.4502" y="233.0332">&#26159;</text><text fill="#000000" font-family="sans-serif" font-size="11" lengthAdjust="spacing" textLength="48.6406" x="944.1299" y="214.5557">&#20844;&#21578;&#31649;&#29702;?</text><text fill="#000000" font-family="sans-serif" font-size="11" lengthAdjust="spacing" textLength="44" x="1004.7705" y="208.0781">&#25805;&#20316;&#23457;&#35745;</text><path d="M1031.4502,255.3535 L1031.4502,275.7861 L1011.4502,279.7861 L1031.4502,283.7861 L1031.4502,304.2188 A0,0 0 0 0 1031.4502,304.2188 L1161.4619,304.2188 A0,0 0 0 0 1161.4619,304.2188 L1161.4619,265.3535 L1151.4619,255.3535 L1031.4502,255.3535 A0,0 0 0 0 1031.4502,255.3535" fill="#FEFFDD" style="stroke:#181818;stroke-width:0.5;"/><path d="M1151.4619,255.3535 L1151.4619,265.3535 L1161.4619,265.3535 L1151.4619,255.3535" fill="#FEFFDD" style="stroke:#181818;stroke-width:0.5;"/><text fill="#000000" font-family="sans-serif" font-size="11" lengthAdjust="spacing" textLength="68.0786" x="1037.4502" y="270.9883">title, content</text><text fill="#000000" font-family="sans-serif" font-size="11" lengthAdjust="spacing" textLength="109.0117" x="1037.4502" y="283.9434">target_role(&#25512;&#36865;&#23545;&#35937;)</text><text fill="#000000" font-family="sans-serif" font-size="11" lengthAdjust="spacing" textLength="61.7729" x="1037.4502" y="296.8984">create_time</text><rect fill="#E3F2FD" height="45.9102" rx="12.5" ry="12.5" style="stroke:#1565C0;stroke-width:0.5;" width="86" x="925.4502" y="256.8311"/><text fill="#000000" font-family="sans-serif" font-size="11" lengthAdjust="spacing" textLength="66" x="935.4502" y="277.4658">&#21457;&#24067;&#31995;&#32479;&#20844;&#21578;</text><text fill="#000000" font-family="sans-serif" font-size="11" lengthAdjust="spacing" textLength="62.2563" x="935.4502" y="290.4209">(sys_notice)</text><polygon fill="#E3F2FD" points="944.1299,339.2188,992.7705,339.2188,1004.7705,351.2188,992.7705,363.2188,944.1299,363.2188,932.1299,351.2188,944.1299,339.2188" style="stroke:#1565C0;stroke-width:0.5;stroke-linejoin:miter;stroke-miterlimit:10;"/><text fill="#000000" font-family="sans-serif" font-size="11" lengthAdjust="spacing" textLength="48.6406" x="944.1299" y="355.376">&#32039;&#24613;&#20844;&#21578;?</text><text fill="#000000" font-family="sans-serif" font-size="11" lengthAdjust="spacing" textLength="11" x="921.1299" y="348.8984">&#26159;</text><text fill="#000000" font-family="sans-serif" font-size="11" lengthAdjust="spacing" textLength="11" x="1004.7705" y="348.8984">&#21542;</text><rect fill="#E3F2FD" height="32.9551" rx="12.5" ry="12.5" style="stroke:#1565C0;stroke-width:0.5;" width="64" x="890.1299" y="373.2188"/><text fill="#000000" font-family="sans-serif" font-size="11" lengthAdjust="spacing" textLength="44" x="900.1299" y="393.8535">&#20840;&#31449;&#25512;&#36865;</text><rect fill="#E3F2FD" height="32.9551" rx="12.5" ry="12.5" style="stroke:#1565C0;stroke-width:0.5;" width="75" x="977.2705" y="373.2188"/><text fill="#000000" font-family="sans-serif" font-size="11" lengthAdjust="spacing" textLength="55" x="987.2705" y="393.8535">&#25353;&#35282;&#33394;&#25512;&#36865;</text><polygon fill="#E3F2FD" points="968.4502,412.1738,980.4502,424.1738,968.4502,436.1738,956.4502,424.1738,968.4502,412.1738" style="stroke:#1565C0;stroke-width:0.5;stroke-linejoin:miter;stroke-miterlimit:10;"/><path d="M1320.7771,237.6372 L1320.7771,258.0698 L1300.7771,262.0698 L1320.7771,266.0698 L1320.7771,286.5024 A0,0 0 0 0 1320.7771,286.5024 L1427.489,286.5024 A0,0 0 0 0 1427.489,286.5024 L1427.489,247.6372 L1417.489,237.6372 L1320.7771,237.6372 A0,0 0 0 0 1320.7771,237.6372" fill="#FEFFDD" style="stroke:#181818;stroke-width:0.5;"/><path d="M1417.489,237.6372 L1417.489,247.6372 L1427.489,247.6372 L1417.489,237.6372" fill="#FEFFDD" style="stroke:#181818;stroke-width:0.5;"/><text fill="#000000" font-family="sans-serif" font-size="11" lengthAdjust="spacing" textLength="85.7119" x="1326.7771" y="253.272">user_id, module</text><text fill="#000000" font-family="sans-serif" font-size="11" lengthAdjust="spacing" textLength="68.3257" x="1326.7771" y="266.2271">operation, ip</text><text fill="#000000" font-family="sans-serif" font-size="11" lengthAdjust="spacing" textLength="61.7729" x="1326.7771" y="279.1821">create_time</text><rect fill="#E3F2FD" height="45.9102" rx="12.5" ry="12.5" style="stroke:#1565C0;stroke-width:0.5;" width="96.2212" x="1204.5559" y="239.1147"/><text fill="#000000" font-family="sans-serif" font-size="11" lengthAdjust="spacing" textLength="66" x="1214.5559" y="259.7495">&#26597;&#30475;&#25805;&#20316;&#26085;&#24535;</text><text fill="#000000" font-family="sans-serif" font-size="11" lengthAdjust="spacing" textLength="76.2212" x="1214.5559" y="272.7046">(sys_oper_log)</text><path d="M1324.5261,321.5024 L1324.5261,341.9351 L1304.5261,345.9351 L1324.5261,349.9351 L1324.5261,370.3677 A0,0 0 0 0 1324.5261,370.3677 L1453.6033,370.3677 A0,0 0 0 0 1453.6033,370.3677 L1453.6033,331.5024 L1443.6033,321.5024 L1324.5261,321.5024 A0,0 0 0 0 1324.5261,321.5024" fill="#FEFFDD" style="stroke:#181818;stroke-width:0.5;"/><path d="M1443.6033,321.5024 L1443.6033,331.5024 L1453.6033,331.5024 L1443.6033,321.5024" fill="#FEFFDD" style="stroke:#181818;stroke-width:0.5;"/><text fill="#000000" font-family="sans-serif" font-size="11" lengthAdjust="spacing" textLength="75.9526" x="1330.5261" y="337.1372">user_id, scene</text><text fill="#000000" font-family="sans-serif" font-size="11" lengthAdjust="spacing" textLength="76.8066" x="1330.5261" y="350.0923">prompt, result</text><text fill="#000000" font-family="sans-serif" font-size="11" lengthAdjust="spacing" textLength="108.0771" x="1330.5261" y="363.0474">call_duration, status</text><rect fill="#E3F2FD" height="45.9102" rx="12.5" ry="12.5" style="stroke:#1565C0;stroke-width:0.5;" width="103.7192" x="1200.8069" y="322.98"/><text fill="#000000" font-family="sans-serif" font-size="11" lengthAdjust="spacing" textLength="83.7192" x="1210.8069" y="343.6147">&#26597;&#30475; AI &#35843;&#29992;&#26085;&#24535;</text><text fill="#000000" font-family="sans-serif" font-size="11" lengthAdjust="spacing" textLength="62.2725" x="1210.8069" y="356.5698">(ai_call_log)</text><polygon fill="#E3F2FD" points="1228.3462,405.3677,1276.9868,405.3677,1288.9868,417.3677,1276.9868,429.3677,1228.3462,429.3677,1216.3462,417.3677,1228.3462,405.3677" style="stroke:#1565C0;stroke-width:0.5;stroke-linejoin:miter;stroke-miterlimit:10;"/><text fill="#000000" font-family="sans-serif" font-size="11" lengthAdjust="spacing" textLength="48.6406" x="1228.3462" y="421.5249">&#24322;&#24120;&#25805;&#20316;?</text><text fill="#000000" font-family="sans-serif" font-size="11" lengthAdjust="spacing" textLength="11" x="1205.3462" y="415.0474">&#26159;</text><text fill="#000000" font-family="sans-serif" font-size="11" lengthAdjust="spacing" textLength="11" x="1288.9868" y="415.0474">&#21542;</text><rect fill="#E3F2FD" height="32.9551" rx="12.5" ry="12.5" style="stroke:#1565C0;stroke-width:0.5;" width="69.7686" x="1171.4619" y="439.3677"/><text fill="#000000" font-family="sans-serif" font-size="11" lengthAdjust="spacing" textLength="49.7686" x="1181.4619" y="460.0024">&#26631;&#35760;/&#21578;&#35686;</text><rect fill="#E3F2FD" height="32.9551" rx="12.5" ry="12.5" style="stroke:#1565C0;stroke-width:0.5;" width="64" x="1266.9868" y="439.3677"/><text fill="#000000" font-family="sans-serif" font-size="11" lengthAdjust="spacing" textLength="44" x="1276.9868" y="460.0024">&#24402;&#26723;&#26085;&#24535;</text><polygon fill="#E3F2FD" points="1252.6665,478.3228,1264.6665,490.3228,1252.6665,502.3228,1240.6665,490.3228,1252.6665,478.3228" style="stroke:#1565C0;stroke-width:0.5;stroke-linejoin:miter;stroke-miterlimit:10;"/><ellipse cx="746.6798" cy="553.3228" fill="none" rx="11" ry="11" style="stroke:#222222;stroke-width:1;"/><ellipse cx="746.6798" cy="553.3228" fill="#222222" rx="6" ry="6" style="stroke:#222222;stroke-width:1;"/><line style="stroke:#181818;stroke-width:1;" x1="746.6798" x2="746.6798" y1="72.4883" y2="92.4883"/><polygon fill="#181818" points="742.6798,82.4883,746.6798,92.4883,750.6798,82.4883,746.6798,86.4883" style="stroke:#181818;stroke-width:1;stroke-linejoin:miter;stroke-miterlimit:10;"/><line style="stroke:#181818;stroke-width:1;" x1="746.6798" x2="746.6798" y1="125.4434" y2="145.4434"/><polygon fill="#181818" points="742.6798,135.4434,746.6798,145.4434,750.6798,135.4434,746.6798,139.4434" style="stroke:#181818;stroke-width:1;stroke-linejoin:miter;stroke-miterlimit:10;"/><line style="stroke:#181818;stroke-width:1;" x1="89.6528" x2="89.6528" y1="289.7861" y2="334.2188"/><polygon fill="#181818" points="85.6528,324.2188,89.6528,334.2188,93.6528,324.2188,89.6528,328.2188" style="stroke:#181818;stroke-width:1;stroke-linejoin:miter;stroke-miterlimit:10;"/><line style="stroke:#181818;stroke-width:1;" x1="347.9492" x2="347.9492" y1="302.7412" y2="339.2188"/><polygon fill="#181818" points="343.9492,329.2188,347.9492,339.2188,351.9492,329.2188,347.9492,333.2188" style="stroke:#181818;stroke-width:1;stroke-linejoin:miter;stroke-miterlimit:10;"/><line style="stroke:#181818;stroke-width:1;" x1="932.1299" x2="922.1299" y1="351.2188" y2="351.2188"/><line style="stroke:#181818;stroke-width:1;" x1="922.1299" x2="922.1299" y1="351.2188" y2="373.2188"/><polygon fill="#181818" points="918.1299,363.2188,922.1299,373.2188,926.1299,363.2188,922.1299,367.2188" style="stroke:#181818;stroke-width:1;stroke-linejoin:miter;stroke-miterlimit:10;"/><line style="stroke:#181818;stroke-width:1;" x1="1004.7705" x2="1014.7705" y1="351.2188" y2="351.2188"/><line style="stroke:#181818;stroke-width:1;" x1="1014.7705" x2="1014.7705" y1="351.2188" y2="373.2188"/><polygon fill="#181818" points="1010.7705,363.2188,1014.7705,373.2188,1018.7705,363.2188,1014.7705,367.2188" style="stroke:#181818;stroke-width:1;stroke-linejoin:miter;stroke-miterlimit:10;"/><line style="stroke:#181818;stroke-width:1;" x1="922.1299" x2="922.1299" y1="406.1738" y2="424.1738"/><line style="stroke:#181818;stroke-width:1;" x1="922.1299" x2="956.4502" y1="424.1738" y2="424.1738"/><polygon fill="#181818" points="946.4502,420.1738,956.4502,424.1738,946.4502,428.1738,950.4502,424.1738" style="stroke:#181818;stroke-width:1;stroke-linejoin:miter;stroke-miterlimit:10;"/><line style="stroke:#181818;stroke-width:1;" x1="1014.7705" x2="1014.7705" y1="406.1738" y2="424.1738"/><line style="stroke:#181818;stroke-width:1;" x1="1014.7705" x2="980.4502" y1="424.1738" y2="424.1738"/><polygon fill="#181818" points="990.4502,420.1738,980.4502,424.1738,990.4502,428.1738,986.4502,424.1738" style="stroke:#181818;stroke-width:1;stroke-linejoin:miter;stroke-miterlimit:10;"/><line style="stroke:#181818;stroke-width:1;" x1="968.4502" x2="968.4502" y1="302.7412" y2="339.2188"/><polygon fill="#181818" points="964.4502,329.2188,968.4502,339.2188,972.4502,329.2188,968.4502,333.2188" style="stroke:#181818;stroke-width:1;stroke-linejoin:miter;stroke-miterlimit:10;"/><line style="stroke:#181818;stroke-width:1;" x1="1252.6665" x2="1252.6665" y1="285.0249" y2="322.98"/><polygon fill="#181818" points="1248.6665,312.98,1252.6665,322.98,1256.6665,312.98,1252.6665,316.98" style="stroke:#181818;stroke-width:1;stroke-linejoin:miter;stroke-miterlimit:10;"/><line style="stroke:#181818;stroke-width:1;" x1="1216.3462" x2="1206.3462" y1="417.3677" y2="417.3677"/><line style="stroke:#181818;stroke-width:1;" x1="1206.3462" x2="1206.3462" y1="417.3677" y2="439.3677"/><polygon fill="#181818" points="1202.3462,429.3677,1206.3462,439.3677,1210.3462,429.3677,1206.3462,433.3677" style="stroke:#181818;stroke-width:1;stroke-linejoin:miter;stroke-miterlimit:10;"/><line style="stroke:#181818;stroke-width:1;" x1="1288.9868" x2="1298.9868" y1="417.3677" y2="417.3677"/><line style="stroke:#181818;stroke-width:1;" x1="1298.9868" x2="1298.9868" y1="417.3677" y2="439.3677"/><polygon fill="#181818" points="1294.9868,429.3677,1298.9868,439.3677,1302.9868,429.3677,1298.9868,433.3677" style="stroke:#181818;stroke-width:1;stroke-linejoin:miter;stroke-miterlimit:10;"/><line style="stroke:#181818;stroke-width:1;" x1="1206.3462" x2="1206.3462" y1="472.3228" y2="490.3228"/><line style="stroke:#181818;stroke-width:1;" x1="1206.3462" x2="1240.6665" y1="490.3228" y2="490.3228"/><polygon fill="#181818" points="1230.6665,486.3228,1240.6665,490.3228,1230.6665,494.3228,1234.6665,490.3228" style="stroke:#181818;stroke-width:1;stroke-linejoin:miter;stroke-miterlimit:10;"/><line style="stroke:#181818;stroke-width:1;" x1="1298.9868" x2="1298.9868" y1="472.3228" y2="490.3228"/><line style="stroke:#181818;stroke-width:1;" x1="1298.9868" x2="1264.6665" y1="490.3228" y2="490.3228"/><polygon fill="#181818" points="1274.6665,486.3228,1264.6665,490.3228,1274.6665,494.3228,1270.6665,490.3228" style="stroke:#181818;stroke-width:1;stroke-linejoin:miter;stroke-miterlimit:10;"/><line style="stroke:#181818;stroke-width:1;" x1="1252.6665" x2="1252.6665" y1="368.8901" y2="405.3677"/><polygon fill="#181818" points="1248.6665,395.3677,1252.6665,405.3677,1256.6665,395.3677,1252.6665,399.3677" style="stroke:#181818;stroke-width:1;stroke-linejoin:miter;stroke-miterlimit:10;"/><line style="stroke:#181818;stroke-width:1;" x1="89.6528" x2="89.6528" y1="222.3984" y2="256.8311"/><polygon fill="#181818" points="85.6528,246.8311,89.6528,256.8311,93.6528,246.8311,89.6528,250.8311" style="stroke:#181818;stroke-width:1;stroke-linejoin:miter;stroke-miterlimit:10;"/><line style="stroke:#181818;stroke-width:1;" x1="89.6528" x2="89.6528" y1="367.1738" y2="522.3228"/><polygon fill="#181818" points="85.6528,512.3228,89.6528,522.3228,93.6528,512.3228,89.6528,516.3228" style="stroke:#181818;stroke-width:1;stroke-linejoin:miter;stroke-miterlimit:10;"/><line style="stroke:#181818;stroke-width:1;" x1="347.9492" x2="347.9492" y1="222.3984" y2="256.8311"/><polygon fill="#181818" points="343.9492,246.8311,347.9492,256.8311,351.9492,246.8311,347.9492,250.8311" style="stroke:#181818;stroke-width:1;stroke-linejoin:miter;stroke-miterlimit:10;"/><line style="stroke:#181818;stroke-width:1;" x1="347.9492" x2="347.9492" y1="372.1738" y2="522.3228"/><polygon fill="#181818" points="343.9492,512.3228,347.9492,522.3228,351.9492,512.3228,347.9492,516.3228" style="stroke:#181818;stroke-width:1;stroke-linejoin:miter;stroke-miterlimit:10;"/><line style="stroke:#181818;stroke-width:1;" x1="671.499" x2="671.499" y1="222.3984" y2="255.3535"/><polygon fill="#181818" points="667.499,245.3535,671.499,255.3535,675.499,245.3535,671.499,249.3535" style="stroke:#181818;stroke-width:1;stroke-linejoin:miter;stroke-miterlimit:10;"/><line style="stroke:#181818;stroke-width:1;" x1="671.499" x2="671.499" y1="301.2637" y2="522.3228"/><polygon fill="#181818" points="667.499,512.3228,671.499,522.3228,675.499,512.3228,671.499,516.3228" style="stroke:#181818;stroke-width:1;stroke-linejoin:miter;stroke-miterlimit:10;"/><line style="stroke:#181818;stroke-width:1;" x1="968.4502" x2="968.4502" y1="222.3984" y2="256.8311"/><polygon fill="#181818" points="964.4502,246.8311,968.4502,256.8311,972.4502,246.8311,968.4502,250.8311" style="stroke:#181818;stroke-width:1;stroke-linejoin:miter;stroke-miterlimit:10;"/><line style="stroke:#181818;stroke-width:1;" x1="968.4502" x2="968.4502" y1="436.1738" y2="522.3228"/><polygon fill="#181818" points="964.4502,512.3228,968.4502,522.3228,972.4502,512.3228,968.4502,516.3228" style="stroke:#181818;stroke-width:1;stroke-linejoin:miter;stroke-miterlimit:10;"/><line style="stroke:#181818;stroke-width:1;" x1="125.9731" x2="311.6289" y1="210.3984" y2="210.3984"/><polygon fill="#181818" points="301.6289,206.3984,311.6289,210.3984,301.6289,214.3984,305.6289,210.3984" style="stroke:#181818;stroke-width:1;stroke-linejoin:miter;stroke-miterlimit:10;"/><line style="stroke:#181818;stroke-width:1;" x1="384.2695" x2="635.1787" y1="210.3984" y2="210.3984"/><polygon fill="#181818" points="625.1787,206.3984,635.1787,210.3984,625.1787,214.3984,629.1787,210.3984" style="stroke:#181818;stroke-width:1;stroke-linejoin:miter;stroke-miterlimit:10;"/><line style="stroke:#181818;stroke-width:1;" x1="707.8193" x2="932.1299" y1="210.3984" y2="210.3984"/><polygon fill="#181818" points="922.1299,206.3984,932.1299,210.3984,922.1299,214.3984,926.1299,210.3984" style="stroke:#181818;stroke-width:1;stroke-linejoin:miter;stroke-miterlimit:10;"/><line style="stroke:#181818;stroke-width:1;" x1="746.6798" x2="746.6798" y1="178.3984" y2="183.3984"/><line style="stroke:#181818;stroke-width:1;" x1="746.6798" x2="89.6528" y1="183.3984" y2="183.3984"/><line style="stroke:#181818;stroke-width:1;" x1="89.6528" x2="89.6528" y1="183.3984" y2="198.3984"/><polygon fill="#181818" points="85.6528,188.3984,89.6528,198.3984,93.6528,188.3984,89.6528,192.3984" style="stroke:#181818;stroke-width:1;stroke-linejoin:miter;stroke-miterlimit:10;"/><line style="stroke:#181818;stroke-width:1;" x1="1004.7705" x2="1252.6665" y1="210.3984" y2="210.3984"/><line style="stroke:#181818;stroke-width:1;" x1="1252.6665" x2="1252.6665" y1="210.3984" y2="239.1147"/><polygon fill="#181818" points="1248.6665,229.1147,1252.6665,239.1147,1256.6665,229.1147,1252.6665,233.1147" style="stroke:#181818;stroke-width:1;stroke-linejoin:miter;stroke-miterlimit:10;"/><line style="stroke:#181818;stroke-width:1;" x1="1252.6665" x2="1252.6665" y1="502.3228" y2="522.3228"/><polygon fill="#181818" points="1248.6665,512.3228,1252.6665,522.3228,1256.6665,512.3228,1252.6665,516.3228" style="stroke:#181818;stroke-width:1;stroke-linejoin:miter;stroke-miterlimit:10;"/><line style="stroke:#181818;stroke-width:1;" x1="89.6528" x2="1252.6665" y1="522.3228" y2="522.3228"/><line style="stroke:#181818;stroke-width:1;" x1="746.6798" x2="746.6798" y1="522.3228" y2="542.3228"/><polygon fill="#181818" points="742.6798,532.3228,746.6798,542.3228,750.6798,532.3228,746.6798,536.3228" style="stroke:#181818;stroke-width:1;stroke-linejoin:miter;stroke-miterlimit:10;"/><?plantuml-src fLLTJnD157tVNp693xG9oO9GZIN68Bg93pxvQaBMtG56jxlDxgo9YWcL50i854MWGOMgnIPAmK-gvUE_66TcUU8lEBkpRRVO4XDcapQTU-RUSy-Pk-q2by-mf2v0lzN8J9ci7O3V4qk0LOeiFqKMLybkwS_-A_ezmygpntivkhn3thuvtflc9yvKqBc7pBHggobmHzNkZTgMQ-f3bc7Pu9notNyY21sEgAw15Sl4jz1327fx8q5Lm-W-mW_08mdmTVLajkjzoddbceXPjWxjSBytSI4nr1FiHnC_ZjP5QieozNzIAefoQQY_3J2QNqbSL7elHa0ELcqS1lk71fL4JoG8cydx-_lwBaH2_1CZZ2op9NrViDh2_g4xw3-InCC6REziu7dp1iI4pN596c_0nwMW0Id92ZMo_v9zhR7Q-e2Kz0xNIBOKmlBpP65deFKO6k7vNipnMknpZRoPlH87U0oQ8CQMoZItAv2ybEz4agwNsAjP4I6v5QzO7WW2feKXiD7e60v--ijvu0ox3hG1oPR9rWgjV6-4IFwZz-6vD_s5PBzwcQLWdoiSP0aBaTmQgVsIsTwoTx0eiyqChocJtCPHuRseth4koKqTPUT4_fXj6N0OwV56rAiSiFqAsPvY6vdOpMk9PaGqocP-q8bCZ6k9NIT-WXaq7EZB9PAB0msvwEfsNQKmLM21mDusOxuUFfruH-O1MStIOHAeUWgPCeQgDWPjsS6k3iqJG5DDSM33I9c-B91gJYPRcsnflG7LeQFPAErVl7OoSwMu788ZVJrvLCWFHDhSFk1thtERf5Aa6rLP00IOzwbPhksSqgNZthaBDTmD133eentTRX2sp_thu0F9VYABCwSGN5WarKdXWy26Fl0qI3k5Op2AFaCJHtNd0pOASU1YZCwNZoOoPFkdzxdOl4IQ3LKCXp4AUsgLs-VCldsW4oN1ffLpFKUI3mpxM10514M_OTvkVZE2ei-cGz-YG5D78qAW-bHpbxnAiNM0HOIkbCZXIYY9bUPA6zPePr7yOUPUT8EKfRj6qpF_f2eSG-d_L2Ba0GPl06zdqf_eEXSL3MkgOVmd5KU3PfD9shPIQNwpREZm_wCc5J-VxjP9YjdkO0_PUqAgLQ5F1tlenbEliYDp_xojpSx-aFtdjFXEzDLgZlXgVNLRQUal?></g></svg>