<?xml version="1.0" encoding="UTF-8" standalone="no"?>
<!DOCTYPE svg PUBLIC "-//W3C//DTD SVG 1.1//EN"
 "http://www.w3.org/Graphics/SVG/1.1/DTD/svg11.dtd">
<!-- Generated by graphviz version 15.1.0 (20260618.0150)
 -->
<!-- Title: 管理员活动图 Pages: 1 -->
<svg width="706pt" height="902pt"
 viewBox="0.00 0.00 706.00 902.00" xmlns="http://www.w3.org/2000/svg" xmlns:xlink="http://www.w3.org/1999/xlink">
<g id="graph0" class="graph" transform="scale(1.66667 1.66667) rotate(0) translate(4 537.26)">
<title>管理员活动图</title>
<polygon fill="white" stroke="none" points="-4,4 -4,-537.26 419.75,-537.26 419.75,4 -4,4"/>
<g id="clust1" class="cluster">
<title>cluster_admin</title>
<polygon fill="none" stroke="gray" stroke-dasharray="5,2" points="85.75,-8 85.75,-525.26 407.75,-525.26 407.75,-8 85.75,-8"/>
</g>
<!-- start -->
<g id="node1" class="node">
<title>start</title>
<ellipse fill="black" stroke="black" cx="230.75" cy="-506.46" rx="10.8" ry="10.8"/>
</g>
<!-- a1 -->
<g id="node2" class="node">
<title>a1</title>
<path fill="white" stroke="black" d="M245.75,-477.66C245.75,-477.66 215.75,-477.66 215.75,-477.66 209.75,-477.66 203.75,-471.66 203.75,-465.66 203.75,-465.66 203.75,-453.66 203.75,-453.66 203.75,-447.66 209.75,-441.66 215.75,-441.66 215.75,-441.66 245.75,-441.66 245.75,-441.66 251.75,-441.66 257.75,-447.66 257.75,-453.66 257.75,-453.66 257.75,-465.66 257.75,-465.66 257.75,-471.66 251.75,-477.66 245.75,-477.66"/>
<text xml:space="preserve" text-anchor="middle" x="230.75" y="-458.06" font-family="PingFang SC,Microsoft YaHei,sans-serif" font-size="8.00">a1</text>
<text xml:space="preserve" text-anchor="middle" x="187.25" y="-482.06" font-family="PingFang SC,Microsoft YaHei,sans-serif" font-size="8.00">登录系统</text>
</g>
<!-- start&#45;&gt;a1 -->
<g id="edge1" class="edge">
<title>start&#45;&gt;a1</title>
<path fill="none" stroke="black" d="M230.75,-495.61C230.75,-495.61 230.75,-489.67 230.75,-489.67"/>
<polygon fill="black" stroke="black" points="234.25,-489.67 230.75,-479.67 227.25,-489.67 234.25,-489.67"/>
</g>
<!-- a2 -->
<g id="node3" class="node">
<title>a2</title>
<path fill="white" stroke="black" d="M245.75,-423.66C245.75,-423.66 215.75,-423.66 215.75,-423.66 209.75,-423.66 203.75,-417.66 203.75,-411.66 203.75,-411.66 203.75,-399.66 203.75,-399.66 203.75,-393.66 209.75,-387.66 215.75,-387.66 215.75,-387.66 245.75,-387.66 245.75,-387.66 251.75,-387.66 257.75,-393.66 257.75,-399.66 257.75,-399.66 257.75,-411.66 257.75,-411.66 257.75,-417.66 251.75,-423.66 245.75,-423.66"/>
<text xml:space="preserve" text-anchor="middle" x="230.75" y="-404.06" font-family="PingFang SC,Microsoft YaHei,sans-serif" font-size="8.00">a2</text>
<text xml:space="preserve" text-anchor="middle" x="179" y="-428.06" font-family="PingFang SC,Microsoft YaHei,sans-serif" font-size="8.00">进入管理后台</text>
</g>
<!-- a1&#45;&gt;a2 -->
<g id="edge2" class="edge">
<title>a1&#45;&gt;a2</title>
<path fill="none" stroke="black" d="M230.75,-441.38C230.75,-441.38 230.75,-435.44 230.75,-435.44"/>
<polygon fill="black" stroke="black" points="234.25,-435.44 230.75,-425.44 227.25,-435.44 234.25,-435.44"/>
</g>
<!-- d1 -->
<g id="node17" class="node">
<title>d1</title>
<polygon fill="white" stroke="black" points="230.75,-369.66 203.75,-351.66 230.75,-333.66 257.75,-351.66 230.75,-369.66"/>
<text xml:space="preserve" text-anchor="middle" x="230.75" y="-350.16" font-family="PingFang SC,Microsoft YaHei,sans-serif" font-size="7.50">d1</text>
<text xml:space="preserve" text-anchor="middle" x="194.38" y="-385.04" font-family="PingFang SC,Microsoft YaHei,sans-serif" font-size="7.50">操作</text>
<text xml:space="preserve" text-anchor="middle" x="194.38" y="-373.79" font-family="PingFang SC,Microsoft YaHei,sans-serif" font-size="7.50">类型?</text>
</g>
<!-- a2&#45;&gt;d1 -->
<g id="edge3" class="edge">
<title>a2&#45;&gt;d1</title>
<path fill="none" stroke="black" d="M230.75,-387.38C230.75,-387.38 230.75,-381.44 230.75,-381.44"/>
<polygon fill="black" stroke="black" points="234.25,-381.44 230.75,-371.44 227.25,-381.44 234.25,-381.44"/>
</g>
<!-- a3 -->
<g id="node4" class="node">
<title>a3</title>
<path fill="white" stroke="black" d="M135.75,-315.66C135.75,-315.66 105.75,-315.66 105.75,-315.66 99.75,-315.66 93.75,-309.66 93.75,-303.66 93.75,-303.66 93.75,-291.66 93.75,-291.66 93.75,-285.66 99.75,-279.66 105.75,-279.66 105.75,-279.66 135.75,-279.66 135.75,-279.66 141.75,-279.66 147.75,-285.66 147.75,-291.66 147.75,-291.66 147.75,-303.66 147.75,-303.66 147.75,-309.66 141.75,-315.66 135.75,-315.66"/>
<text xml:space="preserve" text-anchor="middle" x="120.75" y="-296.06" font-family="PingFang SC,Microsoft YaHei,sans-serif" font-size="8.00">a3</text>
<text xml:space="preserve" text-anchor="middle" x="61.5" y="-332.06" font-family="PingFang SC,Microsoft YaHei,sans-serif" font-size="8.00">查看用户列表</text>
<text xml:space="preserve" text-anchor="middle" x="61.5" y="-320.06" font-family="PingFang SC,Microsoft YaHei,sans-serif" font-size="8.00">(sys_user 全字段)</text>
</g>
<!-- a4 -->
<g id="node5" class="node">
<title>a4</title>
<path fill="white" stroke="black" d="M135.75,-261.66C135.75,-261.66 105.75,-261.66 105.75,-261.66 99.75,-261.66 93.75,-255.66 93.75,-249.66 93.75,-249.66 93.75,-237.66 93.75,-237.66 93.75,-231.66 99.75,-225.66 105.75,-225.66 105.75,-225.66 135.75,-225.66 135.75,-225.66 141.75,-225.66 147.75,-231.66 147.75,-237.66 147.75,-237.66 147.75,-249.66 147.75,-249.66 147.75,-255.66 141.75,-261.66 135.75,-261.66"/>
<text xml:space="preserve" text-anchor="middle" x="120.75" y="-242.06" font-family="PingFang SC,Microsoft YaHei,sans-serif" font-size="8.00">a4</text>
<text xml:space="preserve" text-anchor="middle" x="46.88" y="-278.06" font-family="PingFang SC,Microsoft YaHei,sans-serif" font-size="8.00">创建/编辑/禁用/删除用户</text>
<text xml:space="preserve" text-anchor="middle" x="46.88" y="-266.06" font-family="PingFang SC,Microsoft YaHei,sans-serif" font-size="8.00">(分配角色, 设置密码)</text>
</g>
<!-- a3&#45;&gt;a4 -->
<g id="edge5" class="edge">
<title>a3&#45;&gt;a4</title>
<path fill="none" stroke="black" d="M120.75,-279.38C120.75,-279.38 120.75,-273.44 120.75,-273.44"/>
<polygon fill="black" stroke="black" points="124.25,-273.44 120.75,-263.44 117.25,-273.44 124.25,-273.44"/>
</g>
<!-- stop_node -->
<g id="node16" class="node">
<title>stop_node</title>
<ellipse fill="black" stroke="black" cx="168.75" cy="-57.83" rx="37.83" ry="37.83"/>
<ellipse fill="none" stroke="black" cx="168.75" cy="-57.83" rx="41.83" ry="41.83"/>
<text xml:space="preserve" text-anchor="middle" x="168.75" y="-56.23" font-family="PingFang SC,Microsoft YaHei,sans-serif" font-size="8.00">stop_node</text>
</g>
<!-- a4&#45;&gt;stop_node -->
<g id="edge6" class="edge">
<title>a4&#45;&gt;stop_node</title>
<path fill="none" stroke="black" d="M101.75,-225.18C101.75,-178.22 101.75,-58 101.75,-58 101.75,-58 115.18,-58 115.18,-58"/>
<polygon fill="black" stroke="black" points="115.18,-61.5 125.18,-58 115.18,-54.5 115.18,-61.5"/>
</g>
<!-- a5 -->
<g id="node6" class="node">
<title>a5</title>
<path fill="white" stroke="black" d="M203.75,-315.66C203.75,-315.66 173.75,-315.66 173.75,-315.66 167.75,-315.66 161.75,-309.66 161.75,-303.66 161.75,-303.66 161.75,-291.66 161.75,-291.66 161.75,-285.66 167.75,-279.66 173.75,-279.66 173.75,-279.66 203.75,-279.66 203.75,-279.66 209.75,-279.66 215.75,-285.66 215.75,-291.66 215.75,-291.66 215.75,-303.66 215.75,-303.66 215.75,-309.66 209.75,-315.66 203.75,-315.66"/>
<text xml:space="preserve" text-anchor="middle" x="188.75" y="-296.06" font-family="PingFang SC,Microsoft YaHei,sans-serif" font-size="8.00">a5</text>
<text xml:space="preserve" text-anchor="middle" x="137" y="-332.06" font-family="PingFang SC,Microsoft YaHei,sans-serif" font-size="8.00">管理系统角色</text>
<text xml:space="preserve" text-anchor="middle" x="137" y="-320.06" font-family="PingFang SC,Microsoft YaHei,sans-serif" font-size="8.00">(sys_role)</text>
</g>
<!-- a6 -->
<g id="node7" class="node">
<title>a6</title>
<path fill="white" stroke="black" d="M151.75,-207.66C151.75,-207.66 121.75,-207.66 121.75,-207.66 115.75,-207.66 109.75,-201.66 109.75,-195.66 109.75,-195.66 109.75,-183.66 109.75,-183.66 109.75,-177.66 115.75,-171.66 121.75,-171.66 121.75,-171.66 151.75,-171.66 151.75,-171.66 157.75,-171.66 163.75,-177.66 163.75,-183.66 163.75,-183.66 163.75,-195.66 163.75,-195.66 163.75,-201.66 157.75,-207.66 151.75,-207.66"/>
<text xml:space="preserve" text-anchor="middle" x="136.75" y="-188.06" font-family="PingFang SC,Microsoft YaHei,sans-serif" font-size="8.00">a6</text>
<text xml:space="preserve" text-anchor="middle" x="85" y="-212.06" font-family="PingFang SC,Microsoft YaHei,sans-serif" font-size="8.00">配置角色权限</text>
</g>
<!-- a5&#45;&gt;a6 -->
<g id="edge8" class="edge">
<title>a5&#45;&gt;a6</title>
<path fill="none" stroke="black" d="M170.75,-279.4C170.75,-248.68 170.75,-190 170.75,-190 170.75,-190 170.09,-190 170.09,-190"/>
<polygon fill="black" stroke="black" points="175.71,-186.5 165.71,-190 175.71,-193.5 175.71,-186.5"/>
</g>
<!-- a6&#45;&gt;stop_node -->
<g id="edge9" class="edge">
<title>a6&#45;&gt;stop_node</title>
<path fill="none" stroke="black" d="M134.33,-171.33C134.33,-171.33 134.33,-93.79 134.33,-93.79"/>
<polygon fill="black" stroke="black" points="137.83,-93.79 134.33,-83.79 130.83,-93.79 137.83,-93.79"/>
</g>
<!-- a7 -->
<g id="node8" class="node">
<title>a7</title>
<path fill="white" stroke="black" d="M219.75,-207.66C219.75,-207.66 189.75,-207.66 189.75,-207.66 183.75,-207.66 177.75,-201.66 177.75,-195.66 177.75,-195.66 177.75,-183.66 177.75,-183.66 177.75,-177.66 183.75,-171.66 189.75,-171.66 189.75,-171.66 219.75,-171.66 219.75,-171.66 225.75,-171.66 231.75,-177.66 231.75,-183.66 231.75,-183.66 231.75,-195.66 231.75,-195.66 231.75,-201.66 225.75,-207.66 219.75,-207.66"/>
<text xml:space="preserve" text-anchor="middle" x="204.75" y="-188.06" font-family="PingFang SC,Microsoft YaHei,sans-serif" font-size="8.00">a7</text>
<text xml:space="preserve" text-anchor="middle" x="204.38" y="-224.06" font-family="PingFang SC,Microsoft YaHei,sans-serif" font-size="8.00">审核/管理课程</text>
<text xml:space="preserve" text-anchor="middle" x="204.38" y="-212.06" font-family="PingFang SC,Microsoft YaHei,sans-serif" font-size="8.00">(course)</text>
</g>
<!-- a7&#45;&gt;stop_node -->
<g id="edge11" class="edge">
<title>a7&#45;&gt;stop_node</title>
<path fill="none" stroke="black" d="M200.42,-171.33C200.42,-171.33 200.42,-97.17 200.42,-97.17"/>
<polygon fill="black" stroke="black" points="203.92,-97.17 200.42,-87.17 196.92,-97.17 203.92,-97.17"/>
</g>
<!-- a8 -->
<g id="node9" class="node">
<title>a8</title>
<path fill="white" stroke="black" d="M287.75,-315.66C287.75,-315.66 257.75,-315.66 257.75,-315.66 251.75,-315.66 245.75,-309.66 245.75,-303.66 245.75,-303.66 245.75,-291.66 245.75,-291.66 245.75,-285.66 251.75,-279.66 257.75,-279.66 257.75,-279.66 287.75,-279.66 287.75,-279.66 293.75,-279.66 299.75,-285.66 299.75,-291.66 299.75,-291.66 299.75,-303.66 299.75,-303.66 299.75,-309.66 293.75,-315.66 287.75,-315.66"/>
<text xml:space="preserve" text-anchor="middle" x="272.75" y="-296.06" font-family="PingFang SC,Microsoft YaHei,sans-serif" font-size="8.00">a8</text>
<text xml:space="preserve" text-anchor="middle" x="270.5" y="-272.06" font-family="PingFang SC,Microsoft YaHei,sans-serif" font-size="8.00">发布系统公告</text>
<text xml:space="preserve" text-anchor="middle" x="270.5" y="-260.06" font-family="PingFang SC,Microsoft YaHei,sans-serif" font-size="8.00">(sys_notice)</text>
</g>
<!-- d2 -->
<g id="node18" class="node">
<title>d2</title>
<polygon fill="white" stroke="black" points="272.75,-207.66 245.75,-189.66 272.75,-171.66 299.75,-189.66 272.75,-207.66"/>
<text xml:space="preserve" text-anchor="middle" x="272.75" y="-188.16" font-family="PingFang SC,Microsoft YaHei,sans-serif" font-size="7.50">d2</text>
<text xml:space="preserve" text-anchor="middle" x="255.12" y="-223.04" font-family="PingFang SC,Microsoft YaHei,sans-serif" font-size="7.50">紧急</text>
<text xml:space="preserve" text-anchor="middle" x="255.12" y="-211.79" font-family="PingFang SC,Microsoft YaHei,sans-serif" font-size="7.50">公告?</text>
</g>
<!-- a8&#45;&gt;d2 -->
<g id="edge13" class="edge">
<title>a8&#45;&gt;d2</title>
<path fill="none" stroke="black" d="M272.75,-279.34C272.75,-279.34 272.75,-219.58 272.75,-219.58"/>
<polygon fill="black" stroke="black" points="276.25,-219.58 272.75,-209.58 269.25,-219.58 276.25,-219.58"/>
</g>
<!-- a9 -->
<g id="node10" class="node">
<title>a9</title>
<path fill="white" stroke="black" d="M183.75,-153.66C183.75,-153.66 153.75,-153.66 153.75,-153.66 147.75,-153.66 141.75,-147.66 141.75,-141.66 141.75,-141.66 141.75,-129.66 141.75,-129.66 141.75,-123.66 147.75,-117.66 153.75,-117.66 153.75,-117.66 183.75,-117.66 183.75,-117.66 189.75,-117.66 195.75,-123.66 195.75,-129.66 195.75,-129.66 195.75,-141.66 195.75,-141.66 195.75,-147.66 189.75,-153.66 183.75,-153.66"/>
<text xml:space="preserve" text-anchor="middle" x="168.75" y="-134.06" font-family="PingFang SC,Microsoft YaHei,sans-serif" font-size="8.00">a9</text>
<text xml:space="preserve" text-anchor="middle" x="125.25" y="-158.06" font-family="PingFang SC,Microsoft YaHei,sans-serif" font-size="8.00">全站推送</text>
</g>
<!-- a9&#45;&gt;stop_node -->
<g id="edge16" class="edge">
<title>a9&#45;&gt;stop_node</title>
<path fill="none" stroke="black" d="M168.75,-117.22C168.75,-117.22 168.75,-111.61 168.75,-111.61"/>
<polygon fill="black" stroke="black" points="172.25,-111.61 168.75,-101.61 165.25,-111.61 172.25,-111.61"/>
</g>
<!-- a10 -->
<g id="node11" class="node">
<title>a10</title>
<path fill="white" stroke="black" d="M251.75,-153.66C251.75,-153.66 221.75,-153.66 221.75,-153.66 215.75,-153.66 209.75,-147.66 209.75,-141.66 209.75,-141.66 209.75,-129.66 209.75,-129.66 209.75,-123.66 215.75,-117.66 221.75,-117.66 221.75,-117.66 251.75,-117.66 251.75,-117.66 257.75,-117.66 263.75,-123.66 263.75,-129.66 263.75,-129.66 263.75,-141.66 263.75,-141.66 263.75,-147.66 257.75,-153.66 251.75,-153.66"/>
<text xml:space="preserve" text-anchor="middle" x="236.75" y="-134.06" font-family="PingFang SC,Microsoft YaHei,sans-serif" font-size="8.00">a10</text>
<text xml:space="preserve" text-anchor="middle" x="189.12" y="-158.06" font-family="PingFang SC,Microsoft YaHei,sans-serif" font-size="8.00">按角色推送</text>
</g>
<!-- a10&#45;&gt;stop_node -->
<g id="edge17" class="edge">
<title>a10&#45;&gt;stop_node</title>
<path fill="none" stroke="black" d="M209.49,-136C206.82,-136 205.08,-136 205.08,-136 205.08,-136 205.08,-90.7 205.08,-90.7"/>
<polygon fill="black" stroke="black" points="208.58,-90.7 205.08,-80.7 201.58,-90.7 208.58,-90.7"/>
</g>
<!-- a11 -->
<g id="node12" class="node">
<title>a11</title>
<path fill="white" stroke="black" d="M355.75,-315.66C355.75,-315.66 325.75,-315.66 325.75,-315.66 319.75,-315.66 313.75,-309.66 313.75,-303.66 313.75,-303.66 313.75,-291.66 313.75,-291.66 313.75,-285.66 319.75,-279.66 325.75,-279.66 325.75,-279.66 355.75,-279.66 355.75,-279.66 361.75,-279.66 367.75,-285.66 367.75,-291.66 367.75,-291.66 367.75,-303.66 367.75,-303.66 367.75,-309.66 361.75,-315.66 355.75,-315.66"/>
<text xml:space="preserve" text-anchor="middle" x="340.75" y="-296.06" font-family="PingFang SC,Microsoft YaHei,sans-serif" font-size="8.00">a11</text>
<text xml:space="preserve" text-anchor="middle" x="287.5" y="-332.06" font-family="PingFang SC,Microsoft YaHei,sans-serif" font-size="8.00">查看操作日志</text>
<text xml:space="preserve" text-anchor="middle" x="287.5" y="-320.06" font-family="PingFang SC,Microsoft YaHei,sans-serif" font-size="8.00">(sys_oper_log)</text>
</g>
<!-- a12 -->
<g id="node13" class="node">
<title>a12</title>
<path fill="white" stroke="black" d="M355.75,-261.66C355.75,-261.66 325.75,-261.66 325.75,-261.66 319.75,-261.66 313.75,-255.66 313.75,-249.66 313.75,-249.66 313.75,-237.66 313.75,-237.66 313.75,-231.66 319.75,-225.66 325.75,-225.66 325.75,-225.66 355.75,-225.66 355.75,-225.66 361.75,-225.66 367.75,-231.66 367.75,-237.66 367.75,-237.66 367.75,-249.66 367.75,-249.66 367.75,-255.66 361.75,-261.66 355.75,-261.66"/>
<text xml:space="preserve" text-anchor="middle" x="340.75" y="-242.06" font-family="PingFang SC,Microsoft YaHei,sans-serif" font-size="8.00">a12</text>
<text xml:space="preserve" text-anchor="middle" x="282.25" y="-242.06" font-family="PingFang SC,Microsoft YaHei,sans-serif" font-size="8.00">查看 AI 调用日志</text>
<text xml:space="preserve" text-anchor="middle" x="282.25" y="-230.06" font-family="PingFang SC,Microsoft YaHei,sans-serif" font-size="8.00">(ai_call_log)</text>
</g>
<!-- a11&#45;&gt;a12 -->
<g id="edge19" class="edge">
<title>a11&#45;&gt;a12</title>
<path fill="none" stroke="black" d="M340.75,-279.38C340.75,-279.38 340.75,-273.44 340.75,-273.44"/>
<polygon fill="black" stroke="black" points="344.25,-273.44 340.75,-263.44 337.25,-273.44 344.25,-273.44"/>
</g>
<!-- d3 -->
<g id="node19" class="node">
<title>d3</title>
<polygon fill="white" stroke="black" points="340.75,-207.66 313.75,-189.66 340.75,-171.66 367.75,-189.66 340.75,-207.66"/>
<text xml:space="preserve" text-anchor="middle" x="340.75" y="-188.16" font-family="PingFang SC,Microsoft YaHei,sans-serif" font-size="7.50">d3</text>
<text xml:space="preserve" text-anchor="middle" x="377.12" y="-223.04" font-family="PingFang SC,Microsoft YaHei,sans-serif" font-size="7.50">异常</text>
<text xml:space="preserve" text-anchor="middle" x="377.12" y="-211.79" font-family="PingFang SC,Microsoft YaHei,sans-serif" font-size="7.50">操作?</text>
</g>
<!-- a12&#45;&gt;d3 -->
<g id="edge20" class="edge">
<title>a12&#45;&gt;d3</title>
<path fill="none" stroke="black" d="M340.75,-225.38C340.75,-225.38 340.75,-219.44 340.75,-219.44"/>
<polygon fill="black" stroke="black" points="344.25,-219.44 340.75,-209.44 337.25,-219.44 344.25,-219.44"/>
</g>
<!-- a13 -->
<g id="node14" class="node">
<title>a13</title>
<path fill="white" stroke="black" d="M319.75,-153.66C319.75,-153.66 289.75,-153.66 289.75,-153.66 283.75,-153.66 277.75,-147.66 277.75,-141.66 277.75,-141.66 277.75,-129.66 277.75,-129.66 277.75,-123.66 283.75,-117.66 289.75,-117.66 289.75,-117.66 319.75,-117.66 319.75,-117.66 325.75,-117.66 331.75,-123.66 331.75,-129.66 331.75,-129.66 331.75,-141.66 331.75,-141.66 331.75,-147.66 325.75,-153.66 319.75,-153.66"/>
<text xml:space="preserve" text-anchor="middle" x="304.75" y="-134.06" font-family="PingFang SC,Microsoft YaHei,sans-serif" font-size="8.00">a13</text>
<text xml:space="preserve" text-anchor="middle" x="259.38" y="-158.06" font-family="PingFang SC,Microsoft YaHei,sans-serif" font-size="8.00">标记/告警</text>
</g>
<!-- a13&#45;&gt;stop_node -->
<g id="edge23" class="edge">
<title>a13&#45;&gt;stop_node</title>
<path fill="none" stroke="black" d="M304.75,-117.25C304.75,-98.45 304.75,-72 304.75,-72 304.75,-72 219.97,-72 219.97,-72"/>
<polygon fill="black" stroke="black" points="219.97,-68.5 209.97,-72 219.97,-75.5 219.97,-68.5"/>
</g>
<!-- a14 -->
<g id="node15" class="node">
<title>a14</title>
<path fill="white" stroke="black" d="M387.75,-153.66C387.75,-153.66 357.75,-153.66 357.75,-153.66 351.75,-153.66 345.75,-147.66 345.75,-141.66 345.75,-141.66 345.75,-129.66 345.75,-129.66 345.75,-123.66 351.75,-117.66 357.75,-117.66 357.75,-117.66 387.75,-117.66 387.75,-117.66 393.75,-117.66 399.75,-123.66 399.75,-129.66 399.75,-129.66 399.75,-141.66 399.75,-141.66 399.75,-147.66 393.75,-153.66 387.75,-153.66"/>
<text xml:space="preserve" text-anchor="middle" x="372.75" y="-134.06" font-family="PingFang SC,Microsoft YaHei,sans-serif" font-size="8.00">a14</text>
<text xml:space="preserve" text-anchor="middle" x="329.25" y="-158.06" font-family="PingFang SC,Microsoft YaHei,sans-serif" font-size="8.00">归档日志</text>
</g>
<!-- a14&#45;&gt;stop_node -->
<g id="edge24" class="edge">
<title>a14&#45;&gt;stop_node</title>
<path fill="none" stroke="black" d="M372.75,-117.55C372.75,-90.84 372.75,-44 372.75,-44 372.75,-44 220.08,-44 220.08,-44"/>
<polygon fill="black" stroke="black" points="220.08,-40.5 210.08,-44 220.08,-47.5 220.08,-40.5"/>
</g>
<!-- d1&#45;&gt;a3 -->
<g id="edge4" class="edge">
<title>d1&#45;&gt;a3</title>
<path fill="none" stroke="black" d="M203.56,-352C170.98,-352 120.75,-352 120.75,-352 120.75,-352 120.75,-327.57 120.75,-327.57"/>
<polygon fill="black" stroke="black" points="124.25,-327.57 120.75,-317.57 117.25,-327.57 124.25,-327.57"/>
<text xml:space="preserve" text-anchor="middle" x="134.94" y="-356.12" font-family="PingFang SC,Microsoft YaHei,sans-serif" font-size="7.50">用户管理</text>
</g>
<!-- d1&#45;&gt;a5 -->
<g id="edge7" class="edge">
<title>d1&#45;&gt;a5</title>
<path fill="none" stroke="black" d="M209.75,-347.42C209.75,-347.42 209.75,-327.52 209.75,-327.52"/>
<polygon fill="black" stroke="black" points="213.25,-327.52 209.75,-317.52 206.25,-327.52 213.25,-327.52"/>
<text xml:space="preserve" text-anchor="middle" x="194.75" y="-330.35" font-family="PingFang SC,Microsoft YaHei,sans-serif" font-size="7.50">角色管理</text>
</g>
<!-- d1&#45;&gt;a7 -->
<g id="edge10" class="edge">
<title>d1&#45;&gt;a7</title>
<path fill="none" stroke="black" d="M223.75,-337.85C223.75,-337.85 223.75,-219.59 223.75,-219.59"/>
<polygon fill="black" stroke="black" points="227.25,-219.59 223.75,-209.59 220.25,-219.59 227.25,-219.59"/>
<text xml:space="preserve" text-anchor="middle" x="208.75" y="-271.59" font-family="PingFang SC,Microsoft YaHei,sans-serif" font-size="7.50">课程管理</text>
</g>
<!-- d1&#45;&gt;a8 -->
<g id="edge12" class="edge">
<title>d1&#45;&gt;a8</title>
<path fill="none" stroke="black" d="M251.75,-347.42C251.75,-347.42 251.75,-327.52 251.75,-327.52"/>
<polygon fill="black" stroke="black" points="255.25,-327.52 251.75,-317.52 248.25,-327.52 255.25,-327.52"/>
<text xml:space="preserve" text-anchor="middle" x="244.25" y="-330.35" font-family="PingFang SC,Microsoft YaHei,sans-serif" font-size="7.50">公告管理</text>
</g>
<!-- d1&#45;&gt;a11 -->
<g id="edge18" class="edge">
<title>d1&#45;&gt;a11</title>
<path fill="none" stroke="black" d="M257.94,-352C290.52,-352 340.75,-352 340.75,-352 340.75,-352 340.75,-327.57 340.75,-327.57"/>
<polygon fill="black" stroke="black" points="344.25,-327.57 340.75,-317.57 337.25,-327.57 344.25,-327.57"/>
<text xml:space="preserve" text-anchor="middle" x="296.56" y="-356.12" font-family="PingFang SC,Microsoft YaHei,sans-serif" font-size="7.50">操作审计</text>
</g>
<!-- d2&#45;&gt;a9 -->
<g id="edge14" class="edge">
<title>d2&#45;&gt;a9</title>
<path fill="none" stroke="black" d="M251.75,-185.49C251.75,-178 251.75,-163 251.75,-163 251.75,-163 186.75,-163 186.75,-163 186.75,-163 186.75,-162.1 186.75,-162.1"/>
<polygon fill="black" stroke="black" points="190.25,-165.56 186.75,-155.56 183.25,-165.56 190.25,-165.56"/>
<text xml:space="preserve" text-anchor="middle" x="233.8" y="-167.12" font-family="PingFang SC,Microsoft YaHei,sans-serif" font-size="7.50">是</text>
</g>
<!-- d2&#45;&gt;a10 -->
<g id="edge15" class="edge">
<title>d2&#45;&gt;a10</title>
<path fill="none" stroke="black" d="M257.75,-181.22C257.75,-181.22 257.75,-165.61 257.75,-165.61"/>
<polygon fill="black" stroke="black" points="261.25,-165.61 257.75,-155.61 254.25,-165.61 261.25,-165.61"/>
<text xml:space="preserve" text-anchor="middle" x="261.5" y="-166.29" font-family="PingFang SC,Microsoft YaHei,sans-serif" font-size="7.50">否</text>
</g>
<!-- d3&#45;&gt;a13 -->
<g id="edge21" class="edge">
<title>d3&#45;&gt;a13</title>
<path fill="none" stroke="black" d="M322.75,-183.47C322.75,-183.47 322.75,-165.28 322.75,-165.28"/>
<polygon fill="black" stroke="black" points="326.25,-165.28 322.75,-155.28 319.25,-165.28 326.25,-165.28"/>
<text xml:space="preserve" text-anchor="middle" x="319" y="-167.25" font-family="PingFang SC,Microsoft YaHei,sans-serif" font-size="7.50">是</text>
</g>
<!-- d3&#45;&gt;a14 -->
<g id="edge22" class="edge">
<title>d3&#45;&gt;a14</title>
<path fill="none" stroke="black" d="M356.75,-182.15C356.75,-182.15 356.75,-165.31 356.75,-165.31"/>
<polygon fill="black" stroke="black" points="360.25,-165.31 356.75,-155.31 353.25,-165.31 360.25,-165.31"/>
<text xml:space="preserve" text-anchor="middle" x="353" y="-166.61" font-family="PingFang SC,Microsoft YaHei,sans-serif" font-size="7.50">否</text>
</g>
</g>
</svg>
