<svg xmlns="http://www.w3.org/2000/svg" xmlns:xlink="http://www.w3.org/1999/xlink" contentStyleType="text/css" data-diagram-type="DESCRIPTION" height="870px" preserveAspectRatio="none" style="width:502px;height:870px;background:#FFFFFF;" version="1.1" viewBox="0 0 502 870" width="502px" zoomAndPan="magnify"><?plantuml 1.2026.6?><defs/><g><!--cluster KG ?????? ? ???--><g class="cluster" data-qualified-name="KG ...... . ..." data-source-line="22" id="ent0004"><rect fill="#FFFFFF" height="689" rx="2.5" ry="2.5" style="stroke:#333333;stroke-width:1;" width="363.16" x="125.29" y="7"/><text fill="#000000" font-family="sans-serif" font-size="14" font-weight="700" lengthAdjust="spacing" textLength="174.2207" x="219.7596" y="22.5352">KG &#26234;&#33021;&#23548;&#23398;&#31995;&#32479; &#8212; &#23398;&#29983;&#31471;</text></g><!--entity UC1--><g class="entity" data-qualified-name="KG ...... . ....UC1" data-source-line="24" id="ent0005"><ellipse cx="200.9505" cy="55.0034" fill="#FFFFFF" rx="46.7605" ry="12.9934" style="stroke:#333333;stroke-width:0.5;"/><text fill="#000000" font-family="sans-serif" font-size="12" lengthAdjust="spacing" textLength="61.8867" x="170.0072" y="58.5698">&#30331;&#24405; / &#27880;&#20876;</text></g><!--entity UC2--><g class="entity" data-qualified-name="KG ...... . ....UC2" data-source-line="25" id="ent0006"><ellipse cx="200.955" cy="239.001" fill="#FFFFFF" rx="59.655" ry="14.331" style="stroke:#333333;stroke-width:0.5;"/><text fill="#000000" font-family="sans-serif" font-size="12" lengthAdjust="spacing" textLength="88.5762" x="156.6669" y="242.5674">&#27983;&#35272;3D&#30693;&#35782;&#22270;&#35889;</text></g><!--entity UC3--><g class="entity" data-qualified-name="KG ...... . ....UC3" data-source-line="26" id="ent0007"><ellipse cx="200.9516" cy="300.9983" fill="#FFFFFF" rx="53.4416" ry="13.0883" style="stroke:#333333;stroke-width:0.5;"/><text fill="#000000" font-family="sans-serif" font-size="12" lengthAdjust="spacing" textLength="72" x="164.9516" y="304.5647">&#29983;&#25104;&#23398;&#20064;&#36335;&#24452;</text></g><!--entity UC4--><g class="entity" data-qualified-name="KG ...... . ....UC4" data-source-line="27" id="ent0008"><ellipse cx="200.9511" cy="362.0034" fill="#FFFFFF" rx="36.9411" ry="12.9934" style="stroke:#333333;stroke-width:0.5;"/><text fill="#000000" font-family="sans-serif" font-size="12" lengthAdjust="spacing" textLength="48" x="176.9511" y="365.5698">&#21047;&#39064;&#32451;&#20064;</text></g><!--entity UC5--><g class="entity" data-qualified-name="KG ...... . ....UC5" data-source-line="28" id="ent0009"><ellipse cx="200.9516" cy="115.9983" fill="#FFFFFF" rx="53.4416" ry="13.0883" style="stroke:#333333;stroke-width:0.5;"/><text fill="#000000" font-family="sans-serif" font-size="12" lengthAdjust="spacing" textLength="72" x="164.9516" y="119.5647">&#27983;&#35272;&#23398;&#20064;&#36164;&#28304;</text></g><!--entity UC6--><g class="entity" data-qualified-name="KG ...... . ....UC6" data-source-line="29" id="ent0010"><ellipse cx="200.9542" cy="606.0034" fill="#FFFFFF" rx="30.9542" ry="12.9934" style="stroke:#333333;stroke-width:0.5;"/><text fill="#000000" font-family="sans-serif" font-size="12" lengthAdjust="spacing" textLength="39.5332" x="181.1876" y="609.5698">AI &#31572;&#30097;</text></g><!--entity UC7--><g class="entity" data-qualified-name="KG ...... . ....UC7" data-source-line="30" id="ent0011"><ellipse cx="200.9495" cy="667.0034" fill="#FFFFFF" rx="39.4395" ry="12.9934" style="stroke:#333333;stroke-width:0.5;"/><text fill="#000000" font-family="sans-serif" font-size="12" lengthAdjust="spacing" textLength="51.5332" x="175.1829" y="670.5698">AI &#21010;&#37325;&#28857;</text></g><!--entity UC8--><g class="entity" data-qualified-name="KG ...... . ....UC8" data-source-line="31" id="ent0012"><ellipse cx="200.9464" cy="177.0034" fill="#FFFFFF" rx="45.4264" ry="12.9934" style="stroke:#333333;stroke-width:0.5;"/><text fill="#000000" font-family="sans-serif" font-size="12" lengthAdjust="spacing" textLength="60" x="170.9464" y="180.5698">&#25910;&#34255;&#30693;&#35782;&#28857;</text></g><!--entity UC9--><g class="entity" data-qualified-name="KG ...... . ....UC9" data-source-line="32" id="ent0013"><ellipse cx="200.9511" cy="423.0034" fill="#FFFFFF" rx="36.9411" ry="12.9934" style="stroke:#333333;stroke-width:0.5;"/><text fill="#000000" font-family="sans-serif" font-size="12" lengthAdjust="spacing" textLength="48" x="176.9511" y="426.5698">&#21442;&#21152;&#27979;&#35780;</text></g><!--entity UC10--><g class="entity" data-qualified-name="KG ...... . ....UC10" data-source-line="33" id="ent0014"><ellipse cx="200.9464" cy="484.0034" fill="#FFFFFF" rx="45.4264" ry="12.9934" style="stroke:#333333;stroke-width:0.5;"/><text fill="#000000" font-family="sans-serif" font-size="12" lengthAdjust="spacing" textLength="60" x="170.9464" y="487.5698">&#26597;&#30475;&#38169;&#39064;&#26412;</text></g><!--entity UC11--><g class="entity" data-qualified-name="KG ...... . ....UC11" data-source-line="34" id="ent0015"><ellipse cx="200.9516" cy="544.9983" fill="#FFFFFF" rx="53.4416" ry="13.0883" style="stroke:#333333;stroke-width:0.5;"/><text fill="#000000" font-family="sans-serif" font-size="12" lengthAdjust="spacing" textLength="72" x="164.9516" y="548.5647">&#26597;&#30475;&#23398;&#24773;&#25253;&#21578;</text></g><!--entity UC12--><g class="entity" data-qualified-name="KG ...... . ....UC12" data-source-line="36" id="ent0016"><ellipse cx="424.5264" cy="301.0034" fill="#FFFFFF" rx="45.4264" ry="12.9934" style="stroke:#333333;stroke-width:0.5;"/><text fill="#000000" font-family="sans-serif" font-size="12" lengthAdjust="spacing" textLength="60" x="394.5264" y="304.5698">&#21457;&#36865;&#39564;&#35777;&#30721;</text></g><!--entity UC13--><g class="entity" data-qualified-name="KG ...... . ....UC13" data-source-line="37" id="ent0017"><ellipse cx="424.5311" cy="240.0034" fill="#FFFFFF" rx="36.9411" ry="12.9934" style="stroke:#333333;stroke-width:0.5;"/><text fill="#000000" font-family="sans-serif" font-size="12" lengthAdjust="spacing" textLength="48" x="400.5311" y="243.5698">&#25299;&#25169;&#25490;&#24207;</text></g><!--entity UC14--><g class="entity" data-qualified-name="KG ...... . ....UC14" data-source-line="38" id="ent0018"><ellipse cx="424.5348" cy="606.0034" fill="#FFFFFF" rx="47.9248" ry="12.9934" style="stroke:#333333;stroke-width:0.5;"/><text fill="#000000" font-family="sans-serif" font-size="12" lengthAdjust="spacing" textLength="63.5332" x="392.7682" y="609.5698">AI &#35786;&#26029;&#20998;&#26512;</text></g><!--entity UC15--><g class="entity" data-qualified-name="KG ...... . ....UC15" data-source-line="39" id="ent0019"><ellipse cx="424.5311" cy="362.0034" fill="#FFFFFF" rx="36.9411" ry="12.9934" style="stroke:#333333;stroke-width:0.5;"/><text fill="#000000" font-family="sans-serif" font-size="12" lengthAdjust="spacing" textLength="48" x="400.5311" y="365.5698">&#25746;&#33457;&#24198;&#31069;</text></g><!--entity S--><g class="entity" data-qualified-name="S" data-source-line="18" id="ent0001"><ellipse cx="42.15" cy="340.93" fill="#F1F1F1" rx="16" ry="16" style="stroke:#181818;stroke-width:0.5;"/><path d="M42.15,360.93 C46.15,360.93 49.15,360.93 53.15,356.93 C61.15,356.93 69.15,364.93 69.15,372.93 L69.15,376.93 C69.15,380.93 65.15,384.93 61.15,384.93 L23.15,384.93 C19.15,384.93 15.15,380.93 15.15,376.93 L15.15,372.93 C15.15,364.93 23.15,356.93 31.15,356.93 C35.15,360.93 38.15,360.93 42.15,360.93" fill="#F1F1F1" style="stroke:#181818;stroke-width:0.5;"/><text fill="#000000" font-family="sans-serif" font-size="12" lengthAdjust="spacing" textLength="24" x="30.15" y="397.0316">&#23398;&#29983;</text></g><!--entity E--><g class="entity" data-qualified-name="E" data-source-line="19" id="ent0002"><ellipse cx="200.95" cy="746.0028" fill="#F1F1F1" rx="16" ry="16" style="stroke:#181818;stroke-width:0.5;"/><path d="M200.95,766.0028 C204.95,766.0028 207.95,766.0028 211.95,762.0028 C219.95,762.0028 227.95,770.0028 227.95,778.0028 L227.95,782.0028 C227.95,786.0028 223.95,790.0028 219.95,790.0028 L181.95,790.0028 C177.95,790.0028 173.95,786.0028 173.95,782.0028 L173.95,778.0028 C173.95,770.0028 181.95,762.0028 189.95,762.0028 C193.95,766.0028 196.95,766.0028 200.95,766.0028" fill="#F1F1F1" style="stroke:#181818;stroke-width:0.5;"/><text fill="#000000" font-family="sans-serif" font-size="12" lengthAdjust="spacing" textLength="48" x="176.95" y="802.1044">&#37038;&#31665;&#26381;&#21153;</text><text fill="#000000" font-family="sans-serif" font-size="12" font-style="italic" lengthAdjust="spacing" textLength="36.5742" x="182.6629" y="726.9716">&#171;&#22806;&#37096;&#187;</text></g><!--entity AI--><g class="entity" data-qualified-name="AI" data-source-line="20" id="ent0003"><ellipse cx="42.1465" cy="653.0028" fill="#F1F1F1" rx="16" ry="16" style="stroke:#181818;stroke-width:0.5;"/><path d="M42.1465,673.0028 C46.1465,673.0028 49.1465,673.0028 53.1465,669.0028 C61.1465,669.0028 69.1465,677.0028 69.1465,685.0028 L69.1465,689.0028 C69.1465,693.0028 65.1465,697.0028 61.1465,697.0028 L23.1465,697.0028 C19.1465,697.0028 15.1465,693.0028 15.1465,689.0028 L15.1465,685.0028 C15.1465,677.0028 23.1465,669.0028 31.1465,669.0028 C35.1465,673.0028 38.1465,673.0028 42.1465,673.0028" fill="#F1F1F1" style="stroke:#181818;stroke-width:0.5;"/><text fill="#000000" font-family="sans-serif" font-size="12" lengthAdjust="spacing" textLength="72.293" x="6" y="709.1044">DeepSeek AI</text><text fill="#000000" font-family="sans-serif" font-size="12" font-style="italic" lengthAdjust="spacing" textLength="36.5742" x="23.8594" y="633.9716">&#171;&#22806;&#37096;&#187;</text></g><!--link UC1 to UC12--><g class="link" data-entity-1="ent0005" data-entity-2="ent0016" data-link-type="dependency" data-source-line="41" id="lnk20"><path d="M229.85,65.53 C240.29,70.38 251.75,76.89 260.6,85 C332.16,150.56 308.8,200.57 376.6,270 C383.97,277.54 389.2052,281.6301 397.7352,286.8501" fill="none" id="UC1-to-UC12" style="stroke:#181818;stroke-width:1;stroke-dasharray:7,7;"/><polygon fill="#181818" points="402,289.46,396.4113,281.3504,397.7352,286.8501,392.2355,288.1741,402,289.46" style="stroke:#181818;stroke-width:1;stroke-linejoin:miter;stroke-miterlimit:10;"/><text fill="#000000" font-family="sans-serif" font-size="12" lengthAdjust="spacing" textLength="52.793" x="292.6" y="115.7016">&#171;extend&#187;</text></g><!--link UC3 to UC13--><g class="link" data-entity-1="ent0007" data-entity-2="ent0017" data-link-type="dependency" data-source-line="42" id="lnk21"><path d="M237.55,291.2 C281.22,279.18 349.5894,260.3574 389.8994,249.2574" fill="none" id="UC3-to-UC13" style="stroke:#181818;stroke-width:1;stroke-dasharray:7,7;"/><polygon fill="#181818" points="394.72,247.93,384.981,246.4629,389.8994,249.2574,387.1049,254.1758,394.72,247.93" style="stroke:#181818;stroke-width:1;stroke-linejoin:miter;stroke-miterlimit:10;"/><text fill="#000000" font-family="sans-serif" font-size="12" lengthAdjust="spacing" textLength="54.791" x="291.6" y="258.0716">&#171;include&#187;</text></g><!--link UC9 to UC14--><g class="link" data-entity-1="ent0013" data-entity-2="ent0018" data-link-type="dependency" data-source-line="43" id="lnk22"><path d="M224.77,433.3 C235.98,438.8 249.44,446.05 260.6,454 C323.32,498.63 383.6104,562.026 408.8504,589.696" fill="none" id="UC9-to-UC14" style="stroke:#181818;stroke-width:1;stroke-dasharray:7,7;"/><polygon fill="#181818" points="412.22,593.39,409.1099,584.0451,408.8504,589.696,403.1995,589.4365,412.22,593.39" style="stroke:#181818;stroke-width:1;stroke-linejoin:miter;stroke-miterlimit:10;"/><text fill="#000000" font-family="sans-serif" font-size="12" lengthAdjust="spacing" textLength="54.791" x="291.6" y="476.5416">&#171;include&#187;</text></g><!--link UC4 to UC15--><g class="link" data-entity-1="ent0008" data-entity-2="ent0019" data-link-type="dependency" data-source-line="44" id="lnk23"><path d="M238.18,362.5 C254.24,362.7 273.36,362.9 290.6,363 C315.49,363.14 321.71,363.16 346.6,363 C359.83,362.91 369.3305,362.8203 382.1405,362.6403" fill="none" id="UC4-to-UC15" style="stroke:#181818;stroke-width:1;stroke-dasharray:7,7;"/><polygon fill="#181818" points="387.14,362.57,378.0847,358.6968,382.1405,362.6403,378.1971,366.6961,387.14,362.57" style="stroke:#181818;stroke-width:1;stroke-linejoin:miter;stroke-miterlimit:10;"/><text fill="#000000" font-family="sans-serif" font-size="12" lengthAdjust="spacing" textLength="52.793" x="292.6" y="359.6016">&#171;extend&#187;</text></g><!--link UC3 to UC15--><g class="link" data-entity-1="ent0007" data-entity-2="ent0019" data-link-type="dependency" data-source-line="45" id="lnk24"><path d="M237.55,310.8 C281.22,322.82 349.5894,341.6426 389.8994,352.7426" fill="none" id="UC3-to-UC15" style="stroke:#181818;stroke-width:1;stroke-dasharray:7,7;"/><polygon fill="#181818" points="394.72,354.07,387.1049,347.8242,389.8994,352.7426,384.981,355.5371,394.72,354.07" style="stroke:#181818;stroke-width:1;stroke-linejoin:miter;stroke-miterlimit:10;"/><text fill="#000000" font-family="sans-serif" font-size="12" lengthAdjust="spacing" textLength="52.793" x="292.6" y="322.6416">&#171;extend&#187;</text></g><!--link S to UC1--><g class="link" data-entity-1="ent0001" data-entity-2="ent0005" data-link-type="dependency" data-source-line="48" id="lnk25"><path d="M42.76,324.14 C44.23,265.46 55.55,152.33 117.29,85 C128.33,72.96 139.7709,67.1086 154.9509,62.7886" fill="none" id="S-to-UC1" style="stroke:#181818;stroke-width:1;"/><polygon fill="#181818" points="159.76,61.42,150.0088,60.0362,154.9509,62.7886,152.1986,67.7307,159.76,61.42" style="stroke:#181818;stroke-width:1;stroke-linejoin:miter;stroke-miterlimit:10;"/></g><!--link S to UC2--><g class="link" data-entity-1="ent0001" data-entity-2="ent0006" data-link-type="dependency" data-source-line="49" id="lnk26"><path d="M66.47,324.36 C79.51,305.88 97.17,284.54 117.29,270 C129.72,261.03 140.3199,255.9504 154.3899,251.1304" fill="none" id="S-to-UC2" style="stroke:#181818;stroke-width:1;"/><polygon fill="#181818" points="159.12,249.51,149.3094,248.6426,154.3899,251.1304,151.9021,256.2109,159.12,249.51" style="stroke:#181818;stroke-width:1;stroke-linejoin:miter;stroke-miterlimit:10;"/></g><!--link S to UC3--><g class="link" data-entity-1="ent0001" data-entity-2="ent0007" data-link-type="dependency" data-source-line="50" id="lnk27"><path d="M69.85,351 C83.93,345.25 101.51,338.15 117.29,332 C134.71,325.21 149.6123,319.5893 165.3523,313.7493" fill="none" id="S-to-UC3" style="stroke:#181818;stroke-width:1;"/><polygon fill="#181818" points="170.04,312.01,160.2106,311.3905,165.3523,313.7493,162.9935,318.8909,170.04,312.01" style="stroke:#181818;stroke-width:1;stroke-linejoin:miter;stroke-miterlimit:10;"/></g><!--link S to UC4--><g class="link" data-entity-1="ent0001" data-entity-2="ent0008" data-link-type="dependency" data-source-line="51" id="lnk28"><path d="M70.1,362 C95.93,362 130.1,362 158.67,362" fill="none" id="S-to-UC4" style="stroke:#181818;stroke-width:1;"/><polygon fill="#181818" points="163.67,362,154.67,358,158.67,362,154.67,366,163.67,362" style="stroke:#181818;stroke-width:1;stroke-linejoin:miter;stroke-miterlimit:10;"/></g><!--link S to UC5--><g class="link" data-entity-1="ent0001" data-entity-2="ent0009" data-link-type="dependency" data-source-line="52" id="lnk29"><path d="M46.45,324.29 C52.53,276.92 69.64,195.94 117.29,147 C128.2,135.8 138.7638,130.111 153.2738,125.511" fill="none" id="S-to-UC5" style="stroke:#181818;stroke-width:1;"/><polygon fill="#181818" points="158.04,124,148.252,122.9068,153.2738,125.511,150.6696,130.5328,158.04,124" style="stroke:#181818;stroke-width:1;stroke-linejoin:miter;stroke-miterlimit:10;"/></g><!--link S to UC6--><g class="link" data-entity-1="ent0001" data-entity-2="ent0010" data-link-type="dependency" data-source-line="53" id="lnk30"><path d="M56.47,399.8 C69.94,438.11 91.27,499.1 109.29,552 C112.92,562.64 109.45,567.95 117.29,576 C131.57,590.65 148.6541,597.1279 166.3641,600.9779" fill="none" id="S-to-UC6" style="stroke:#181818;stroke-width:1;"/><polygon fill="#181818" points="171.25,602.04,163.3051,596.2194,166.3641,600.9779,161.6057,604.0368,171.25,602.04" style="stroke:#181818;stroke-width:1;stroke-linejoin:miter;stroke-miterlimit:10;"/></g><!--link S to UC7--><g class="link" data-entity-1="ent0001" data-entity-2="ent0011" data-link-type="dependency" data-source-line="54" id="lnk31"><path d="M42.99,399.86 C44.79,457.94 56.61,569.29 117.29,636 C129.57,649.49 143.4527,655.875 159.9727,660.195" fill="none" id="S-to-UC7" style="stroke:#181818;stroke-width:1;"/><polygon fill="#181818" points="164.81,661.46,157.1148,655.3132,159.9727,660.195,155.0908,663.0529,164.81,661.46" style="stroke:#181818;stroke-width:1;stroke-linejoin:miter;stroke-miterlimit:10;"/></g><!--link S to UC8--><g class="link" data-entity-1="ent0001" data-entity-2="ent0012" data-link-type="dependency" data-source-line="55" id="lnk32"><path d="M52.37,324.17 C62.7,289.3 82.7,238.35 117.29,207 C129.73,195.72 141.9383,189.9942 157.2983,185.5342" fill="none" id="S-to-UC8" style="stroke:#181818;stroke-width:1;"/><polygon fill="#181818" points="162.1,184.14,152.3416,182.8083,157.2983,185.5342,154.5724,190.491,162.1,184.14" style="stroke:#181818;stroke-width:1;stroke-linejoin:miter;stroke-miterlimit:10;"/></g><!--link S to UC9--><g class="link" data-entity-1="ent0001" data-entity-2="ent0013" data-link-type="dependency" data-source-line="56" id="lnk33"><path d="M69.85,373 C83.93,378.75 101.51,385.85 117.29,392 C136.43,399.46 153.4916,405.8626 169.8716,411.9326" fill="none" id="S-to-UC9" style="stroke:#181818;stroke-width:1;"/><polygon fill="#181818" points="174.56,413.67,167.5107,406.7919,169.8716,411.9326,164.7309,414.2934,174.56,413.67" style="stroke:#181818;stroke-width:1;stroke-linejoin:miter;stroke-miterlimit:10;"/></g><!--link S to UC10--><g class="link" data-entity-1="ent0001" data-entity-2="ent0014" data-link-type="dependency" data-source-line="57" id="lnk34"><path d="M66.87,399.68 C79.9,417.85 97.43,438.73 117.29,453 C131.61,463.28 144.9716,469.0759 160.6016,474.0059" fill="none" id="S-to-UC10" style="stroke:#181818;stroke-width:1;"/><polygon fill="#181818" points="165.37,475.51,157.9901,468.988,160.6016,474.0059,155.5836,476.6174,165.37,475.51" style="stroke:#181818;stroke-width:1;stroke-linejoin:miter;stroke-miterlimit:10;"/></g><!--link S to UC11--><g class="link" data-entity-1="ent0001" data-entity-2="ent0015" data-link-type="dependency" data-source-line="58" id="lnk35"><path d="M52.94,400.01 C63.54,434.12 83.62,483.38 117.29,514 C129.09,524.72 140.1765,530.3304 154.8465,535.0104" fill="none" id="S-to-UC11" style="stroke:#181818;stroke-width:1;"/><polygon fill="#181818" points="159.61,536.53,152.2515,529.9839,154.8465,535.0104,149.82,537.6054,159.61,536.53" style="stroke:#181818;stroke-width:1;stroke-linejoin:miter;stroke-miterlimit:10;"/></g><!--link E to UC12--><g class="link" data-entity-1="ent0002" data-entity-2="ent0016" data-link-type="dependency" data-source-line="60" id="lnk36"><path d="M228.71,733.92 C239.34,722.79 251.25,709.32 260.6,696 C307.91,628.65 321.03,610.23 346.6,532 C374.53,446.57 328.26,407.77 376.6,332 C381.96,323.6 386.1994,319.5304 394.5294,314.5904" fill="none" id="E-to-UC12" style="stroke:#181818;stroke-width:1;"/><polygon fill="#181818" points="398.83,312.04,389.0485,313.1903,394.5294,314.5904,393.1292,320.0713,398.83,312.04" style="stroke:#181818;stroke-width:1;stroke-linejoin:miter;stroke-miterlimit:10;"/></g><!--link AI to UC14--><g class="link" data-entity-1="ent0003" data-entity-2="ent0018" data-link-type="dependency" data-source-line="61" id="lnk37"><path d="M51.19,712.08 C60.36,748.7 79.31,798.07 117.29,822 C171.18,855.96 203.6,850.41 260.6,822 C349.52,777.69 400.8769,663.8079 416.6869,623.9379" fill="none" id="AI-to-UC14" style="stroke:#181818;stroke-width:1;"/><polygon fill="#181818" points="418.53,619.29,411.4941,626.1818,416.6869,623.9379,418.9308,629.1307,418.53,619.29" style="stroke:#181818;stroke-width:1;stroke-linejoin:miter;stroke-miterlimit:10;"/></g><!--link AI to UC6--><g class="link" data-entity-1="ent0003" data-entity-2="ent0010" data-link-type="dependency" data-source-line="62" id="lnk38"><path d="M78.52,652.47 C90.78,647.5 104.61,641.94 117.29,637 C137.28,629.21 155.4405,622.4045 172.0405,616.2645" fill="none" id="AI-to-UC6" style="stroke:#181818;stroke-width:1;"/><polygon fill="#181818" points="176.73,614.53,166.9013,613.9006,172.0405,616.2645,169.6766,621.4038,176.73,614.53" style="stroke:#181818;stroke-width:1;stroke-linejoin:miter;stroke-miterlimit:10;"/></g><!--link AI to UC7--><g class="link" data-entity-1="ent0003" data-entity-2="ent0011" data-link-type="dependency" data-source-line="63" id="lnk39"><path d="M78.73,667 C103.3,667 130.98,667 156.21,667" fill="none" id="AI-to-UC7" style="stroke:#181818;stroke-width:1;"/><polygon fill="#181818" points="161.21,667,152.21,663,156.21,667,152.21,671,161.21,667" style="stroke:#181818;stroke-width:1;stroke-linejoin:miter;stroke-miterlimit:10;"/></g><?plantuml-src XPDlJzD07CUVzrLSvcEGhTi0GqYGFuRuSF45bFN0XTAIhel_GW8Cvzp0iLcdY-ZGE2Ngg0kPX4ruCSQxQz-5nwtNRcNYFVhslf_-llVxzPfUJQdhaYwjWIKfkRgYQnbLdjKKJGSt5jWIqXuXmsKfenWBcceaKeyX24VwJ2bfQ7h2UAH083s0QMqDzfcPD4nAQGYU282ks_z8Ofwcor1tzqMss7v_w4PVPHqc3KbTKRpQ_tq_wZ-pqovfYdpjiJO4GO7B1Z0qeATMxXj0JbscfZHL45ZN88IQdubP3m4f3H9ypza-9iSjVB272X-OCm-cfj2dgfCzcfxcq1o4wma8Ly7C8cDc5liXmUykTFSEmBMEdJr7rg_Bk9CkwTR1xqqJzCB9Doj4Py0wuUCEaLeNdRy2Dm4-EKAvNHPnRpOy2E5soVwI5-T8lM5REVJsmlxHSib8e9nPn_bzclVdxD0-jT35Zik9WnpAdpeVtv1kbd8k4HsMwLPgx-3Elil51Zaw3z8qIRNisl4hDifNd6TxPFlC9SO3GUPF-tMfrveFJGJEMzf6XKFSBjeMxsWoKARU80T5nwpHll31Tpx8iM4KxGfdd-920vKB70mBmSIoixdbVDsrhIrokCMnmBnnyIL-NiOlAgXJueXuPGAsLS3L9ihdy7i-nN1mt9MANMYXJeuqtd4arZiILM1qT9gbWrlqzi671bHbUljwhiXTaRafDQbaPEZPazoE3hMZt8vTMplWqZyk0KP6cEMfYAT4JqKz5VDKt5FZdfhmrAHVUSoNzFFCSnqHw4nT7VLrt9VZmby0?></g></svg>